<?xml version="1.0" encoding="utf-8" standalone="no"?>
<!DOCTYPE svg PUBLIC "-//W3C//DTD SVG 1.1//EN"
  "http://www.w3.org/Graphics/SVG/1.1/DTD/svg11.dtd">
<svg xmlns:xlink="http://www.w3.org/1999/xlink" width="827.958061pt" height="337.676406pt" viewBox="0 0 827.958061 337.676406" xmlns="http://www.w3.org/2000/svg" version="1.1">
 <metadata>
  <rdf:RDF xmlns:dc="http://purl.org/dc/elements/1.1/" xmlns:cc="http://creativecommons.org/ns#" xmlns:rdf="http://www.w3.org/1999/02/22-rdf-syntax-ns#">
   <cc:Work>
    <dc:type rdf:resource="http://purl.org/dc/dcmitype/StillImage"/>
    <dc:date>2026-04-19T15:18:52.405109</dc:date>
    <dc:format>image/svg+xml</dc:format>
    <dc:creator>
     <cc:Agent>
      <dc:title>Matplotlib v3.10.8, https://matplotlib.org/</dc:title>
     </cc:Agent>
    </dc:creator>
   </cc:Work>
  </rdf:RDF>
 </metadata>
 <defs>
  <style type="text/css">*{stroke-linejoin: round; stroke-linecap: butt}</style>
 </defs>
 <g id="figure_1">
  <g id="patch_1">
   <path d="M -0 337.676406 
L 827.958061 337.676406 
L 827.958061 0 
L -0 0 
z
" style="fill: #ffffff"/>
  </g>
  <g id="axes_1">
   <g id="patch_2">
    <path d="M 52.45 300.576406 
L 371.869419 300.576406 
L 371.869419 22.196406 
L 52.45 22.196406 
z
" style="fill: #fcfbf8"/>
   </g>
   <g id="matplotlib.axis_1">
    <g id="xtick_1">
     <g id="line2d_1">
      <path d="M 63.965014 300.576406 
L 63.965014 22.196406 
" clip-path="url(#p728c3f9042)" style="fill: none; stroke-dasharray: 0.7,1.155; stroke-dashoffset: 0; stroke: #cbd5e1; stroke-opacity: 0.35; stroke-width: 0.7"/>
     </g>
     <g id="line2d_2">
      <defs>
       <path id="m982491dc3c" d="M 0 0 
L 0 3.5 
" style="stroke: #334155; stroke-width: 0.8"/>
      </defs>
      <g>
       <use xlink:href="#m982491dc3c" x="63.965014" y="300.576406" style="fill: #334155; stroke: #334155; stroke-width: 0.8"/>
      </g>
     </g>
     <g id="text_1">
      <!-- −10.0 -->
      <g style="fill: #334155" transform="translate(51.790014 314.406094) scale(0.1 -0.1)">
       <defs>
        <path id="STIXGeneral-Regular-2212" d="M 3974 1408 
L 410 1408 
L 410 1830 
L 3974 1830 
L 3974 1408 
z
" transform="scale(0.015625)"/>
        <path id="STIXGeneral-Regular-31" d="M 2522 0 
L 755 0 
L 755 96 
Q 1107 115 1235 227 
Q 1363 339 1363 608 
L 1363 3482 
Q 1363 3795 1171 3795 
Q 1082 3795 883 3718 
L 710 3654 
L 710 3744 
L 1856 4326 
L 1914 4307 
L 1914 486 
Q 1914 275 2042 185 
Q 2170 96 2522 96 
L 2522 0 
z
" transform="scale(0.015625)"/>
        <path id="STIXGeneral-Regular-30" d="M 3046 2112 
Q 3046 1683 2963 1302 
Q 2880 922 2717 602 
Q 2554 282 2266 96 
Q 1978 -90 1600 -90 
Q 1210 -90 915 108 
Q 621 307 461 640 
Q 301 973 227 1350 
Q 154 1728 154 2150 
Q 154 2746 301 3222 
Q 448 3699 790 4012 
Q 1133 4326 1626 4326 
Q 2253 4326 2649 3712 
Q 3046 3098 3046 2112 
z
M 2432 2080 
Q 2432 3091 2217 3625 
Q 2003 4160 1587 4160 
Q 1190 4160 979 3622 
Q 768 3085 768 2106 
Q 768 1120 979 598 
Q 1190 77 1600 77 
Q 2003 77 2217 598 
Q 2432 1120 2432 2080 
z
" transform="scale(0.015625)"/>
        <path id="STIXGeneral-Regular-2e" d="M 1158 275 
Q 1158 134 1052 32 
Q 947 -70 800 -70 
Q 653 -70 550 32 
Q 448 134 448 281 
Q 448 429 553 534 
Q 659 640 806 640 
Q 947 640 1052 531 
Q 1158 422 1158 275 
z
" transform="scale(0.015625)"/>
       </defs>
       <use xlink:href="#STIXGeneral-Regular-2212"/>
       <use xlink:href="#STIXGeneral-Regular-31" transform="translate(68.499985 0)"/>
       <use xlink:href="#STIXGeneral-Regular-30" transform="translate(118.499969 0)"/>
       <use xlink:href="#STIXGeneral-Regular-2e" transform="translate(168.499954 0)"/>
       <use xlink:href="#STIXGeneral-Regular-30" transform="translate(193.499939 0)"/>
      </g>
     </g>
    </g>
    <g id="xtick_2">
     <g id="line2d_3">
      <path d="M 100.796303 300.576406 
L 100.796303 22.196406 
" clip-path="url(#p728c3f9042)" style="fill: none; stroke-dasharray: 0.7,1.155; stroke-dashoffset: 0; stroke: #cbd5e1; stroke-opacity: 0.35; stroke-width: 0.7"/>
     </g>
     <g id="line2d_4">
      <g>
       <use xlink:href="#m982491dc3c" x="100.796303" y="300.576406" style="fill: #334155; stroke: #334155; stroke-width: 0.8"/>
      </g>
     </g>
     <g id="text_2">
      <!-- −7.5 -->
      <g style="fill: #334155" transform="translate(91.121303 314.406094) scale(0.1 -0.1)">
       <defs>
        <path id="STIXGeneral-Regular-37" d="M 2874 4134 
L 1517 -51 
L 1101 -51 
L 2368 3763 
L 992 3763 
Q 717 3763 582 3667 
Q 448 3571 243 3238 
L 128 3296 
L 512 4237 
L 2874 4237 
L 2874 4134 
z
" transform="scale(0.015625)"/>
        <path id="STIXGeneral-Regular-35" d="M 2803 4358 
L 2573 3814 
Q 2534 3731 2400 3731 
L 1158 3731 
L 902 3187 
Q 1606 3053 1920 2896 
Q 2234 2739 2502 2368 
Q 2726 2061 2726 1555 
Q 2726 1094 2576 780 
Q 2426 467 2099 224 
Q 1664 -90 1011 -90 
Q 646 -90 422 19 
Q 198 128 198 307 
Q 198 550 486 550 
Q 717 550 960 352 
Q 1210 147 1414 147 
Q 1747 147 2012 480 
Q 2278 813 2278 1229 
Q 2278 1843 1850 2189 
Q 1293 2637 486 2637 
Q 410 2637 410 2688 
L 416 2720 
L 1114 4237 
L 2438 4237 
Q 2547 4237 2608 4269 
Q 2669 4301 2746 4403 
L 2803 4358 
z
" transform="scale(0.015625)"/>
       </defs>
       <use xlink:href="#STIXGeneral-Regular-2212"/>
       <use xlink:href="#STIXGeneral-Regular-37" transform="translate(68.499985 0)"/>
       <use xlink:href="#STIXGeneral-Regular-2e" transform="translate(118.499969 0)"/>
       <use xlink:href="#STIXGeneral-Regular-35" transform="translate(143.499954 0)"/>
      </g>
     </g>
    </g>
    <g id="xtick_3">
     <g id="line2d_5">
      <path d="M 137.627591 300.576406 
L 137.627591 22.196406 
" clip-path="url(#p728c3f9042)" style="fill: none; stroke-dasharray: 0.7,1.155; stroke-dashoffset: 0; stroke: #cbd5e1; stroke-opacity: 0.35; stroke-width: 0.7"/>
     </g>
     <g id="line2d_6">
      <g>
       <use xlink:href="#m982491dc3c" x="137.627591" y="300.576406" style="fill: #334155; stroke: #334155; stroke-width: 0.8"/>
      </g>
     </g>
     <g id="text_3">
      <!-- −5.0 -->
      <g style="fill: #334155" transform="translate(127.952591 314.406094) scale(0.1 -0.1)">
       <use xlink:href="#STIXGeneral-Regular-2212"/>
       <use xlink:href="#STIXGeneral-Regular-35" transform="translate(68.499985 0)"/>
       <use xlink:href="#STIXGeneral-Regular-2e" transform="translate(118.499969 0)"/>
       <use xlink:href="#STIXGeneral-Regular-30" transform="translate(143.499954 0)"/>
      </g>
     </g>
    </g>
    <g id="xtick_4">
     <g id="line2d_7">
      <path d="M 174.45888 300.576406 
L 174.45888 22.196406 
" clip-path="url(#p728c3f9042)" style="fill: none; stroke-dasharray: 0.7,1.155; stroke-dashoffset: 0; stroke: #cbd5e1; stroke-opacity: 0.35; stroke-width: 0.7"/>
     </g>
     <g id="line2d_8">
      <g>
       <use xlink:href="#m982491dc3c" x="174.45888" y="300.576406" style="fill: #334155; stroke: #334155; stroke-width: 0.8"/>
      </g>
     </g>
     <g id="text_4">
      <!-- −2.5 -->
      <g style="fill: #334155" transform="translate(164.78388 314.406094) scale(0.1 -0.1)">
       <defs>
        <path id="STIXGeneral-Regular-32" d="M 3034 877 
L 2688 0 
L 186 0 
L 186 77 
L 1325 1286 
Q 1773 1754 1965 2144 
Q 2157 2534 2157 2950 
Q 2157 3379 1920 3616 
Q 1683 3853 1267 3853 
Q 922 3853 720 3673 
Q 518 3494 326 3021 
L 192 3053 
Q 301 3648 630 3987 
Q 960 4326 1523 4326 
Q 2054 4326 2380 4006 
Q 2707 3686 2707 3200 
Q 2707 2477 1888 1613 
L 832 486 
L 2330 486 
Q 2541 486 2665 569 
Q 2790 653 2944 915 
L 3034 877 
z
" transform="scale(0.015625)"/>
       </defs>
       <use xlink:href="#STIXGeneral-Regular-2212"/>
       <use xlink:href="#STIXGeneral-Regular-32" transform="translate(68.499985 0)"/>
       <use xlink:href="#STIXGeneral-Regular-2e" transform="translate(118.499969 0)"/>
       <use xlink:href="#STIXGeneral-Regular-35" transform="translate(143.499954 0)"/>
      </g>
     </g>
    </g>
    <g id="xtick_5">
     <g id="line2d_9">
      <path d="M 211.290168 300.576406 
L 211.290168 22.196406 
" clip-path="url(#p728c3f9042)" style="fill: none; stroke-dasharray: 0.7,1.155; stroke-dashoffset: 0; stroke: #cbd5e1; stroke-opacity: 0.35; stroke-width: 0.7"/>
     </g>
     <g id="line2d_10">
      <g>
       <use xlink:href="#m982491dc3c" x="211.290168" y="300.576406" style="fill: #334155; stroke: #334155; stroke-width: 0.8"/>
      </g>
     </g>
     <g id="text_5">
      <!-- 0.0 -->
      <g style="fill: #334155" transform="translate(205.040168 314.406094) scale(0.1 -0.1)">
       <use xlink:href="#STIXGeneral-Regular-30"/>
       <use xlink:href="#STIXGeneral-Regular-2e" transform="translate(49.999985 0)"/>
       <use xlink:href="#STIXGeneral-Regular-30" transform="translate(74.999969 0)"/>
      </g>
     </g>
    </g>
    <g id="xtick_6">
     <g id="line2d_11">
      <path d="M 248.121456 300.576406 
L 248.121456 22.196406 
" clip-path="url(#p728c3f9042)" style="fill: none; stroke-dasharray: 0.7,1.155; stroke-dashoffset: 0; stroke: #cbd5e1; stroke-opacity: 0.35; stroke-width: 0.7"/>
     </g>
     <g id="line2d_12">
      <g>
       <use xlink:href="#m982491dc3c" x="248.121456" y="300.576406" style="fill: #334155; stroke: #334155; stroke-width: 0.8"/>
      </g>
     </g>
     <g id="text_6">
      <!-- 2.5 -->
      <g style="fill: #334155" transform="translate(241.871456 314.406094) scale(0.1 -0.1)">
       <use xlink:href="#STIXGeneral-Regular-32"/>
       <use xlink:href="#STIXGeneral-Regular-2e" transform="translate(49.999985 0)"/>
       <use xlink:href="#STIXGeneral-Regular-35" transform="translate(74.999969 0)"/>
      </g>
     </g>
    </g>
    <g id="xtick_7">
     <g id="line2d_13">
      <path d="M 284.952745 300.576406 
L 284.952745 22.196406 
" clip-path="url(#p728c3f9042)" style="fill: none; stroke-dasharray: 0.7,1.155; stroke-dashoffset: 0; stroke: #cbd5e1; stroke-opacity: 0.35; stroke-width: 0.7"/>
     </g>
     <g id="line2d_14">
      <g>
       <use xlink:href="#m982491dc3c" x="284.952745" y="300.576406" style="fill: #334155; stroke: #334155; stroke-width: 0.8"/>
      </g>
     </g>
     <g id="text_7">
      <!-- 5.0 -->
      <g style="fill: #334155" transform="translate(278.702745 314.406094) scale(0.1 -0.1)">
       <use xlink:href="#STIXGeneral-Regular-35"/>
       <use xlink:href="#STIXGeneral-Regular-2e" transform="translate(49.999985 0)"/>
       <use xlink:href="#STIXGeneral-Regular-30" transform="translate(74.999969 0)"/>
      </g>
     </g>
    </g>
    <g id="xtick_8">
     <g id="line2d_15">
      <path d="M 321.784033 300.576406 
L 321.784033 22.196406 
" clip-path="url(#p728c3f9042)" style="fill: none; stroke-dasharray: 0.7,1.155; stroke-dashoffset: 0; stroke: #cbd5e1; stroke-opacity: 0.35; stroke-width: 0.7"/>
     </g>
     <g id="line2d_16">
      <g>
       <use xlink:href="#m982491dc3c" x="321.784033" y="300.576406" style="fill: #334155; stroke: #334155; stroke-width: 0.8"/>
      </g>
     </g>
     <g id="text_8">
      <!-- 7.5 -->
      <g style="fill: #334155" transform="translate(315.534033 314.406094) scale(0.1 -0.1)">
       <use xlink:href="#STIXGeneral-Regular-37"/>
       <use xlink:href="#STIXGeneral-Regular-2e" transform="translate(49.999985 0)"/>
       <use xlink:href="#STIXGeneral-Regular-35" transform="translate(74.999969 0)"/>
      </g>
     </g>
    </g>
    <g id="xtick_9">
     <g id="line2d_17">
      <path d="M 358.615322 300.576406 
L 358.615322 22.196406 
" clip-path="url(#p728c3f9042)" style="fill: none; stroke-dasharray: 0.7,1.155; stroke-dashoffset: 0; stroke: #cbd5e1; stroke-opacity: 0.35; stroke-width: 0.7"/>
     </g>
     <g id="line2d_18">
      <g>
       <use xlink:href="#m982491dc3c" x="358.615322" y="300.576406" style="fill: #334155; stroke: #334155; stroke-width: 0.8"/>
      </g>
     </g>
     <g id="text_9">
      <!-- 10.0 -->
      <g style="fill: #334155" transform="translate(349.865322 314.406094) scale(0.1 -0.1)">
       <use xlink:href="#STIXGeneral-Regular-31"/>
       <use xlink:href="#STIXGeneral-Regular-30" transform="translate(49.999985 0)"/>
       <use xlink:href="#STIXGeneral-Regular-2e" transform="translate(99.999969 0)"/>
       <use xlink:href="#STIXGeneral-Regular-30" transform="translate(124.999954 0)"/>
      </g>
     </g>
    </g>
    <g id="text_10">
     <!-- X -->
     <g style="fill: #0f172a" transform="translate(208.188538 328.089062) scale(0.11 -0.11)">
      <defs>
       <path id="STIXGeneral-Regular-58" d="M 4506 0 
L 2611 0 
L 2611 122 
L 2778 134 
Q 3098 154 3098 320 
Q 3098 461 2771 947 
L 2163 1850 
L 1402 896 
Q 1062 474 1062 326 
Q 1062 230 1168 185 
Q 1274 141 1549 122 
L 1549 0 
L 64 0 
L 64 122 
Q 314 147 470 268 
Q 627 390 992 851 
L 1990 2099 
L 1312 3091 
Q 864 3744 665 3913 
Q 467 4083 141 4115 
L 141 4237 
L 2067 4237 
L 2067 4115 
L 1882 4109 
Q 1734 4102 1660 4064 
Q 1587 4026 1587 3923 
Q 1587 3885 1596 3843 
Q 1606 3802 1635 3744 
Q 1664 3686 1689 3638 
Q 1715 3590 1769 3507 
Q 1824 3424 1862 3366 
Q 1901 3309 1984 3190 
Q 2067 3072 2118 2995 
L 2400 2586 
L 3117 3482 
Q 3373 3795 3373 3910 
Q 3373 4019 3283 4064 
Q 3194 4109 2938 4115 
L 2938 4237 
L 4454 4237 
L 4454 4115 
Q 4147 4096 3968 3977 
Q 3789 3859 3482 3482 
L 2566 2349 
L 3795 595 
Q 3981 326 4115 240 
Q 4250 154 4506 122 
L 4506 0 
z
" transform="scale(0.015625)"/>
      </defs>
      <use xlink:href="#STIXGeneral-Regular-58"/>
     </g>
    </g>
   </g>
   <g id="matplotlib.axis_2">
    <g id="ytick_1">
     <g id="line2d_19">
      <path d="M 52.45 283.011517 
L 371.869419 283.011517 
" clip-path="url(#p728c3f9042)" style="fill: none; stroke-dasharray: 0.7,1.155; stroke-dashoffset: 0; stroke: #cbd5e1; stroke-opacity: 0.35; stroke-width: 0.7"/>
     </g>
     <g id="line2d_20">
      <defs>
       <path id="mf78ff44350" d="M 0 0 
L -3.5 0 
" style="stroke: #334155; stroke-width: 0.8"/>
      </defs>
      <g>
       <use xlink:href="#mf78ff44350" x="52.45" y="283.011517" style="fill: #334155; stroke: #334155; stroke-width: 0.8"/>
      </g>
     </g>
     <g id="text_11">
      <!-- −10.0 -->
      <g style="fill: #334155" transform="translate(21.1 286.426361) scale(0.1 -0.1)">
       <use xlink:href="#STIXGeneral-Regular-2212"/>
       <use xlink:href="#STIXGeneral-Regular-31" transform="translate(68.499985 0)"/>
       <use xlink:href="#STIXGeneral-Regular-30" transform="translate(118.499969 0)"/>
       <use xlink:href="#STIXGeneral-Regular-2e" transform="translate(168.499954 0)"/>
       <use xlink:href="#STIXGeneral-Regular-30" transform="translate(193.499939 0)"/>
      </g>
     </g>
    </g>
    <g id="ytick_2">
     <g id="line2d_21">
      <path d="M 52.45 246.180229 
L 371.869419 246.180229 
" clip-path="url(#p728c3f9042)" style="fill: none; stroke-dasharray: 0.7,1.155; stroke-dashoffset: 0; stroke: #cbd5e1; stroke-opacity: 0.35; stroke-width: 0.7"/>
     </g>
     <g id="line2d_22">
      <g>
       <use xlink:href="#mf78ff44350" x="52.45" y="246.180229" style="fill: #334155; stroke: #334155; stroke-width: 0.8"/>
      </g>
     </g>
     <g id="text_12">
      <!-- −7.5 -->
      <g style="fill: #334155" transform="translate(26.1 249.595073) scale(0.1 -0.1)">
       <use xlink:href="#STIXGeneral-Regular-2212"/>
       <use xlink:href="#STIXGeneral-Regular-37" transform="translate(68.499985 0)"/>
       <use xlink:href="#STIXGeneral-Regular-2e" transform="translate(118.499969 0)"/>
       <use xlink:href="#STIXGeneral-Regular-35" transform="translate(143.499954 0)"/>
      </g>
     </g>
    </g>
    <g id="ytick_3">
     <g id="line2d_23">
      <path d="M 52.45 209.348941 
L 371.869419 209.348941 
" clip-path="url(#p728c3f9042)" style="fill: none; stroke-dasharray: 0.7,1.155; stroke-dashoffset: 0; stroke: #cbd5e1; stroke-opacity: 0.35; stroke-width: 0.7"/>
     </g>
     <g id="line2d_24">
      <g>
       <use xlink:href="#mf78ff44350" x="52.45" y="209.348941" style="fill: #334155; stroke: #334155; stroke-width: 0.8"/>
      </g>
     </g>
     <g id="text_13">
      <!-- −5.0 -->
      <g style="fill: #334155" transform="translate(26.1 212.763784) scale(0.1 -0.1)">
       <use xlink:href="#STIXGeneral-Regular-2212"/>
       <use xlink:href="#STIXGeneral-Regular-35" transform="translate(68.499985 0)"/>
       <use xlink:href="#STIXGeneral-Regular-2e" transform="translate(118.499969 0)"/>
       <use xlink:href="#STIXGeneral-Regular-30" transform="translate(143.499954 0)"/>
      </g>
     </g>
    </g>
    <g id="ytick_4">
     <g id="line2d_25">
      <path d="M 52.45 172.517652 
L 371.869419 172.517652 
" clip-path="url(#p728c3f9042)" style="fill: none; stroke-dasharray: 0.7,1.155; stroke-dashoffset: 0; stroke: #cbd5e1; stroke-opacity: 0.35; stroke-width: 0.7"/>
     </g>
     <g id="line2d_26">
      <g>
       <use xlink:href="#mf78ff44350" x="52.45" y="172.517652" style="fill: #334155; stroke: #334155; stroke-width: 0.8"/>
      </g>
     </g>
     <g id="text_14">
      <!-- −2.5 -->
      <g style="fill: #334155" transform="translate(26.1 175.932496) scale(0.1 -0.1)">
       <use xlink:href="#STIXGeneral-Regular-2212"/>
       <use xlink:href="#STIXGeneral-Regular-32" transform="translate(68.499985 0)"/>
       <use xlink:href="#STIXGeneral-Regular-2e" transform="translate(118.499969 0)"/>
       <use xlink:href="#STIXGeneral-Regular-35" transform="translate(143.499954 0)"/>
      </g>
     </g>
    </g>
    <g id="ytick_5">
     <g id="line2d_27">
      <path d="M 52.45 135.686364 
L 371.869419 135.686364 
" clip-path="url(#p728c3f9042)" style="fill: none; stroke-dasharray: 0.7,1.155; stroke-dashoffset: 0; stroke: #cbd5e1; stroke-opacity: 0.35; stroke-width: 0.7"/>
     </g>
     <g id="line2d_28">
      <g>
       <use xlink:href="#mf78ff44350" x="52.45" y="135.686364" style="fill: #334155; stroke: #334155; stroke-width: 0.8"/>
      </g>
     </g>
     <g id="text_15">
      <!-- 0.0 -->
      <g style="fill: #334155" transform="translate(32.95 139.101207) scale(0.1 -0.1)">
       <use xlink:href="#STIXGeneral-Regular-30"/>
       <use xlink:href="#STIXGeneral-Regular-2e" transform="translate(49.999985 0)"/>
       <use xlink:href="#STIXGeneral-Regular-30" transform="translate(74.999969 0)"/>
      </g>
     </g>
    </g>
    <g id="ytick_6">
     <g id="line2d_29">
      <path d="M 52.45 98.855075 
L 371.869419 98.855075 
" clip-path="url(#p728c3f9042)" style="fill: none; stroke-dasharray: 0.7,1.155; stroke-dashoffset: 0; stroke: #cbd5e1; stroke-opacity: 0.35; stroke-width: 0.7"/>
     </g>
     <g id="line2d_30">
      <g>
       <use xlink:href="#mf78ff44350" x="52.45" y="98.855075" style="fill: #334155; stroke: #334155; stroke-width: 0.8"/>
      </g>
     </g>
     <g id="text_16">
      <!-- 2.5 -->
      <g style="fill: #334155" transform="translate(32.95 102.269919) scale(0.1 -0.1)">
       <use xlink:href="#STIXGeneral-Regular-32"/>
       <use xlink:href="#STIXGeneral-Regular-2e" transform="translate(49.999985 0)"/>
       <use xlink:href="#STIXGeneral-Regular-35" transform="translate(74.999969 0)"/>
      </g>
     </g>
    </g>
    <g id="ytick_7">
     <g id="line2d_31">
      <path d="M 52.45 62.023787 
L 371.869419 62.023787 
" clip-path="url(#p728c3f9042)" style="fill: none; stroke-dasharray: 0.7,1.155; stroke-dashoffset: 0; stroke: #cbd5e1; stroke-opacity: 0.35; stroke-width: 0.7"/>
     </g>
     <g id="line2d_32">
      <g>
       <use xlink:href="#mf78ff44350" x="52.45" y="62.023787" style="fill: #334155; stroke: #334155; stroke-width: 0.8"/>
      </g>
     </g>
     <g id="text_17">
      <!-- 5.0 -->
      <g style="fill: #334155" transform="translate(32.95 65.438631) scale(0.1 -0.1)">
       <use xlink:href="#STIXGeneral-Regular-35"/>
       <use xlink:href="#STIXGeneral-Regular-2e" transform="translate(49.999985 0)"/>
       <use xlink:href="#STIXGeneral-Regular-30" transform="translate(74.999969 0)"/>
      </g>
     </g>
    </g>
    <g id="ytick_8">
     <g id="line2d_33">
      <path d="M 52.45 25.192498 
L 371.869419 25.192498 
" clip-path="url(#p728c3f9042)" style="fill: none; stroke-dasharray: 0.7,1.155; stroke-dashoffset: 0; stroke: #cbd5e1; stroke-opacity: 0.35; stroke-width: 0.7"/>
     </g>
     <g id="line2d_34">
      <g>
       <use xlink:href="#mf78ff44350" x="52.45" y="25.192498" style="fill: #334155; stroke: #334155; stroke-width: 0.8"/>
      </g>
     </g>
     <g id="text_18">
      <!-- 7.5 -->
      <g style="fill: #334155" transform="translate(32.95 28.607342) scale(0.1 -0.1)">
       <use xlink:href="#STIXGeneral-Regular-37"/>
       <use xlink:href="#STIXGeneral-Regular-2e" transform="translate(49.999985 0)"/>
       <use xlink:href="#STIXGeneral-Regular-35" transform="translate(74.999969 0)"/>
      </g>
     </g>
    </g>
    <g id="text_19">
     <!-- Y -->
     <g style="fill: #0f172a" transform="translate(14.712656 165.357578) rotate(-90) scale(0.11 -0.11)">
      <defs>
       <path id="STIXGeneral-Regular-59" d="M 4499 4237 
L 4499 4115 
Q 4218 4090 4054 3955 
Q 3891 3821 3616 3398 
L 2669 1939 
L 2669 710 
Q 2669 346 2790 243 
Q 2912 141 3328 122 
L 3328 0 
L 1370 0 
L 1370 122 
Q 1805 154 1910 259 
Q 2016 365 2016 787 
L 2016 1882 
L 1178 3110 
Q 742 3750 556 3926 
Q 371 4102 141 4115 
L 141 4237 
L 1926 4237 
L 1926 4115 
L 1773 4109 
Q 1472 4102 1472 3942 
Q 1472 3808 1587 3642 
L 2522 2227 
L 3450 3648 
Q 3539 3782 3539 3917 
Q 3533 4026 3440 4067 
Q 3347 4109 3104 4115 
L 3104 4237 
L 4499 4237 
z
" transform="scale(0.015625)"/>
      </defs>
      <use xlink:href="#STIXGeneral-Regular-59"/>
     </g>
    </g>
   </g>
   <g id="line2d_35">
    <path d="M 85.486259 178.935328 
L 320.066327 155.778769 
" clip-path="url(#p728c3f9042)" style="fill: none; stroke-dasharray: 3.515,1.52; stroke-dashoffset: 0; stroke: #cbd5e1; stroke-opacity: 0.8; stroke-width: 0.95"/>
   </g>
   <g id="line2d_36">
    <path d="M 66.969065 72.066872 
L 286.811489 157.115932 
" clip-path="url(#p728c3f9042)" style="fill: none; stroke-dasharray: 3.515,1.52; stroke-dashoffset: 0; stroke: #cbd5e1; stroke-opacity: 0.8; stroke-width: 0.95"/>
   </g>
   <g id="line2d_37">
    <path d="M 321.18398 34.850043 
L 199.781759 236.90334 
" clip-path="url(#p728c3f9042)" style="fill: none; stroke-dasharray: 3.515,1.52; stroke-dashoffset: 0; stroke: #cbd5e1; stroke-opacity: 0.8; stroke-width: 0.95"/>
   </g>
   <g id="line2d_38">
    <path d="M 72.9227 136.240994 
L 307.651479 157.838094 
" clip-path="url(#p728c3f9042)" style="fill: none; stroke-dasharray: 3.515,1.52; stroke-dashoffset: 0; stroke: #cbd5e1; stroke-opacity: 0.8; stroke-width: 0.95"/>
   </g>
   <g id="line2d_39">
    <path d="M 124.55299 243.715607 
L 316.644124 107.095586 
" clip-path="url(#p728c3f9042)" style="fill: none; stroke-dasharray: 3.515,1.52; stroke-dashoffset: 0; stroke: #cbd5e1; stroke-opacity: 0.8; stroke-width: 0.95"/>
   </g>
   <g id="line2d_40">
    <path d="M 253.131284 287.92277 
L 246.903512 52.284808 
" clip-path="url(#p728c3f9042)" style="fill: none; stroke-dasharray: 3.515,1.52; stroke-dashoffset: 0; stroke: #cbd5e1; stroke-opacity: 0.8; stroke-width: 0.95"/>
   </g>
   <g id="line2d_41">
    <path d="M 68.869919 212.174253 
L 283.996331 115.817307 
" clip-path="url(#p728c3f9042)" style="fill: none; stroke-dasharray: 3.515,1.52; stroke-dashoffset: 0; stroke: #cbd5e1; stroke-opacity: 0.8; stroke-width: 0.95"/>
   </g>
   <g id="line2d_42">
    <path d="M 140.243643 78.805677 
L 357.350355 170.613683 
" clip-path="url(#p728c3f9042)" style="fill: none; stroke-dasharray: 3.515,1.52; stroke-dashoffset: 0; stroke: #cbd5e1; stroke-opacity: 0.8; stroke-width: 0.95"/>
   </g>
   <g id="patch_3">
    <path d="M 52.45 300.576406 
L 52.45 22.196406 
" style="fill: none; stroke: #cbd5e1; stroke-width: 0.9; stroke-linejoin: miter; stroke-linecap: square"/>
   </g>
   <g id="patch_4">
    <path d="M 52.45 300.576406 
L 371.869419 300.576406 
" style="fill: none; stroke: #cbd5e1; stroke-width: 0.9; stroke-linejoin: miter; stroke-linecap: square"/>
   </g>
   <g id="PathCollection_1">
    <defs>
     <path id="m1c213cf2cb" d="M 0 4.1833 
C 1.109424 4.1833 2.173559 3.742521 2.95804 2.95804 
C 3.742521 2.173559 4.1833 1.109424 4.1833 0 
C 4.1833 -1.109424 3.742521 -2.173559 2.95804 -2.95804 
C 2.173559 -3.742521 1.109424 -4.1833 0 -4.1833 
C -1.109424 -4.1833 -2.173559 -3.742521 -2.95804 -2.95804 
C -3.742521 -2.173559 -4.1833 -1.109424 -4.1833 0 
C -4.1833 1.109424 -3.742521 2.173559 -2.95804 2.95804 
C -2.173559 3.742521 -1.109424 4.1833 0 4.1833 
z
" style="stroke: #6b7280; stroke-width: 0.9"/>
    </defs>
    <g clip-path="url(#p728c3f9042)">
     <use xlink:href="#m1c213cf2cb" x="85.486259" y="178.935328" style="fill: #e5e7eb; stroke: #6b7280; stroke-width: 0.9"/>
    </g>
   </g>
   <g id="PathCollection_2">
    <g clip-path="url(#p728c3f9042)">
     <use xlink:href="#m1c213cf2cb" x="66.969065" y="72.066872" style="fill: #e5e7eb; stroke: #6b7280; stroke-width: 0.9"/>
    </g>
   </g>
   <g id="PathCollection_3">
    <g clip-path="url(#p728c3f9042)">
     <use xlink:href="#m1c213cf2cb" x="321.18398" y="34.850043" style="fill: #e5e7eb; stroke: #6b7280; stroke-width: 0.9"/>
    </g>
   </g>
   <g id="PathCollection_4">
    <g clip-path="url(#p728c3f9042)">
     <use xlink:href="#m1c213cf2cb" x="72.9227" y="136.240994" style="fill: #e5e7eb; stroke: #6b7280; stroke-width: 0.9"/>
    </g>
   </g>
   <g id="PathCollection_5">
    <g clip-path="url(#p728c3f9042)">
     <use xlink:href="#m1c213cf2cb" x="124.55299" y="243.715607" style="fill: #e5e7eb; stroke: #6b7280; stroke-width: 0.9"/>
    </g>
   </g>
   <g id="PathCollection_6">
    <g clip-path="url(#p728c3f9042)">
     <use xlink:href="#m1c213cf2cb" x="253.131284" y="287.92277" style="fill: #e5e7eb; stroke: #6b7280; stroke-width: 0.9"/>
    </g>
   </g>
   <g id="PathCollection_7">
    <defs>
     <path id="m30e35a207f" d="M 0 4.1833 
C 1.109424 4.1833 2.173559 3.742521 2.95804 2.95804 
C 3.742521 2.173559 4.1833 1.109424 4.1833 0 
C 4.1833 -1.109424 3.742521 -2.173559 2.95804 -2.95804 
C 2.173559 -3.742521 1.109424 -4.1833 0 -4.1833 
C -1.109424 -4.1833 -2.173559 -3.742521 -2.95804 -2.95804 
C -3.742521 -2.173559 -4.1833 -1.109424 -4.1833 0 
C -4.1833 1.109424 -3.742521 2.173559 -2.95804 2.95804 
C -2.173559 3.742521 -1.109424 4.1833 0 4.1833 
z
" style="stroke: #b45309; stroke-width: 0.9"/>
    </defs>
    <g clip-path="url(#p728c3f9042)">
     <use xlink:href="#m30e35a207f" x="68.869919" y="212.174253" style="fill: #f59e0b; stroke: #b45309; stroke-width: 0.9"/>
    </g>
   </g>
   <g id="PathCollection_8">
    <g clip-path="url(#p728c3f9042)">
     <use xlink:href="#m30e35a207f" x="140.243643" y="78.805677" style="fill: #f59e0b; stroke: #b45309; stroke-width: 0.9"/>
    </g>
   </g>
   <g id="text_20">
    <!-- RANSAC failure case under heterogeneous bias -->
    <g style="fill: #0f172a" transform="translate(79.460178 16.196406) scale(0.13 -0.13)">
     <defs>
      <path id="STIXGeneral-Bold-52" d="M 4582 0 
L 3270 0 
L 1946 2003 
L 1766 2003 
L 1766 749 
Q 1766 403 1859 307 
Q 1952 211 2330 160 
L 2330 0 
L 166 0 
L 166 160 
Q 544 205 637 301 
Q 730 397 730 768 
L 730 3526 
Q 730 3904 624 4022 
Q 518 4141 166 4166 
L 166 4326 
L 2138 4326 
Q 4032 4326 4032 3226 
Q 4032 2739 3744 2470 
Q 3475 2227 3027 2106 
L 4301 301 
Q 4397 160 4582 160 
L 4582 0 
z
M 1766 3821 
L 1766 2208 
Q 2426 2214 2682 2406 
Q 2938 2598 2938 3162 
Q 2938 3667 2746 3888 
Q 2554 4109 2106 4109 
Q 1920 4109 1843 4045 
Q 1766 3981 1766 3821 
z
" transform="scale(0.015625)"/>
      <path id="STIXGeneral-Bold-41" d="M 4410 0 
L 2349 0 
L 2349 160 
L 2554 179 
Q 2714 192 2781 240 
Q 2848 288 2848 390 
Q 2848 576 2554 1261 
L 1114 1261 
L 1030 1043 
Q 832 531 832 422 
Q 832 301 950 240 
Q 1069 179 1350 160 
L 1350 0 
L 58 0 
L 58 160 
Q 282 198 397 339 
Q 512 480 691 928 
L 2106 4416 
L 2285 4416 
L 3706 1075 
Q 3949 499 4080 329 
Q 4211 160 4410 160 
L 4410 0 
z
M 2458 1510 
L 1811 3066 
L 1210 1510 
L 2458 1510 
z
" transform="scale(0.015625)"/>
      <path id="STIXGeneral-Bold-4e" d="M 4486 4326 
L 4486 4166 
Q 4166 4115 4076 4022 
Q 3987 3930 3987 3635 
L 3987 -115 
L 3808 -115 
L 947 3373 
L 947 838 
Q 947 467 1062 336 
Q 1178 205 1549 160 
L 1549 0 
L 102 0 
L 102 160 
Q 454 205 560 304 
Q 666 403 666 698 
L 666 3706 
Q 333 4166 122 4166 
L 122 4326 
L 1472 4326 
L 3706 1574 
L 3706 3488 
Q 3706 3872 3590 4003 
Q 3475 4134 3117 4166 
L 3117 4326 
L 4486 4326 
z
" transform="scale(0.015625)"/>
      <path id="STIXGeneral-Bold-53" d="M 3098 3034 
L 2918 3034 
Q 2752 3578 2470 3866 
Q 2125 4224 1683 4224 
Q 1357 4224 1168 4048 
Q 979 3872 979 3590 
Q 979 3360 1113 3213 
Q 1248 3066 1638 2861 
Q 1754 2797 2077 2633 
Q 2400 2470 2586 2368 
Q 2899 2195 3091 1897 
Q 3283 1600 3283 1242 
Q 3283 634 2844 256 
Q 2406 -122 1696 -122 
Q 1306 -122 864 32 
Q 666 96 602 96 
Q 525 96 480 48 
Q 435 0 410 -122 
L 224 -122 
L 224 1466 
L 410 1466 
Q 557 851 794 550 
Q 1158 90 1715 90 
Q 2086 90 2304 285 
Q 2522 480 2522 813 
Q 2522 1120 2157 1376 
Q 1997 1491 1376 1792 
Q 806 2067 544 2368 
Q 282 2669 282 3136 
Q 282 3744 656 4083 
Q 1030 4422 1683 4422 
Q 2035 4422 2432 4275 
Q 2624 4211 2701 4211 
Q 2790 4211 2832 4256 
Q 2874 4301 2906 4429 
L 3098 4429 
L 3098 3034 
z
" transform="scale(0.015625)"/>
      <path id="STIXGeneral-Bold-43" d="M 4205 973 
L 4397 813 
Q 3968 282 3549 80 
Q 3130 -122 2554 -122 
Q 1536 -122 925 496 
Q 314 1114 314 2067 
Q 314 3091 938 3756 
Q 1562 4422 2534 4422 
Q 2989 4422 3533 4198 
Q 3738 4109 3827 4109 
Q 3917 4109 3977 4169 
Q 4038 4230 4109 4403 
L 4282 4403 
L 4282 2899 
L 4122 2899 
Q 3981 3296 3693 3635 
Q 3213 4211 2624 4211 
Q 2106 4211 1776 3676 
Q 1446 3142 1446 2208 
Q 1446 1216 1792 672 
Q 1933 454 2192 320 
Q 2451 186 2733 186 
Q 3142 186 3539 403 
Q 3802 550 4205 973 
z
" transform="scale(0.015625)"/>
      <path id="STIXGeneral-Bold-20" transform="scale(0.015625)"/>
      <path id="STIXGeneral-Bold-66" d="M 90 2950 
L 454 2950 
Q 454 3789 710 4096 
Q 979 4422 1574 4422 
Q 1984 4422 2237 4243 
Q 2490 4064 2490 3782 
Q 2490 3603 2381 3488 
Q 2272 3373 2093 3373 
Q 1933 3373 1821 3481 
Q 1709 3590 1709 3738 
Q 1709 3866 1779 3971 
Q 1850 4077 1850 4102 
Q 1850 4224 1664 4224 
Q 1491 4224 1417 4112 
Q 1344 4000 1344 3718 
L 1344 2950 
L 1894 2950 
L 1894 2669 
L 1344 2669 
L 1344 685 
Q 1344 365 1440 262 
Q 1536 160 1869 154 
L 1869 0 
L 90 0 
L 90 154 
Q 307 179 380 259 
Q 454 339 454 557 
L 454 2669 
L 90 2669 
L 90 2950 
z
" transform="scale(0.015625)"/>
      <path id="STIXGeneral-Bold-61" d="M 3027 410 
L 3123 275 
Q 2784 -90 2406 -90 
Q 2170 -90 2051 9 
Q 1933 109 1882 352 
Q 1395 -90 864 -90 
Q 544 -90 352 80 
Q 160 250 160 589 
Q 160 1018 589 1306 
Q 909 1517 1875 1792 
L 1875 2227 
Q 1875 2541 1756 2681 
Q 1638 2822 1357 2822 
Q 1178 2822 1059 2758 
Q 941 2694 941 2586 
Q 941 2515 1011 2438 
Q 1133 2291 1133 2170 
Q 1133 2003 1011 1894 
Q 890 1786 698 1786 
Q 499 1786 390 1901 
Q 282 2016 282 2221 
Q 282 2598 618 2812 
Q 954 3027 1504 3027 
Q 2093 3027 2425 2803 
Q 2758 2579 2758 2170 
L 2758 499 
Q 2758 320 2893 320 
Q 2938 320 2963 346 
L 3027 410 
z
M 1875 621 
L 1875 1568 
Q 1094 1350 1094 794 
Q 1094 589 1187 477 
Q 1280 365 1427 365 
Q 1696 365 1875 621 
z
" transform="scale(0.015625)"/>
      <path id="STIXGeneral-Bold-69" d="M 1376 3923 
Q 1376 3712 1232 3571 
Q 1088 3430 877 3430 
Q 666 3430 525 3571 
Q 384 3712 384 3923 
Q 384 4134 528 4278 
Q 672 4422 890 4422 
Q 1088 4422 1232 4275 
Q 1376 4128 1376 3923 
z
M 1638 0 
L 102 0 
L 102 154 
Q 326 205 384 275 
Q 442 346 442 563 
L 442 2387 
Q 442 2598 374 2675 
Q 307 2752 96 2797 
L 96 2950 
L 1331 2950 
L 1331 544 
Q 1331 339 1398 259 
Q 1466 179 1638 154 
L 1638 0 
z
" transform="scale(0.015625)"/>
      <path id="STIXGeneral-Bold-6c" d="M 1638 0 
L 102 0 
L 102 154 
Q 429 179 429 557 
L 429 3757 
Q 429 4147 96 4173 
L 96 4326 
L 1318 4326 
L 1318 557 
Q 1318 346 1395 253 
Q 1472 160 1638 154 
L 1638 0 
z
" transform="scale(0.015625)"/>
      <path id="STIXGeneral-Bold-75" d="M 3443 128 
L 3040 83 
Q 2509 26 2195 -83 
L 2195 333 
Q 1946 96 1738 3 
Q 1530 -90 1267 -90 
Q 864 -90 640 153 
Q 416 397 416 838 
L 416 2381 
Q 416 2605 358 2681 
Q 301 2758 102 2797 
L 102 2950 
L 1306 2950 
L 1306 813 
Q 1306 326 1664 326 
Q 1914 326 2189 627 
L 2189 2394 
Q 2189 2611 2112 2694 
Q 2035 2778 1798 2797 
L 1798 2950 
L 3078 2950 
L 3078 672 
Q 3078 461 3155 371 
Q 3232 282 3443 275 
L 3443 128 
z
" transform="scale(0.015625)"/>
      <path id="STIXGeneral-Bold-72" d="M 1395 2950 
L 1395 2426 
Q 1619 2752 1817 2889 
Q 2016 3027 2259 3027 
Q 2483 3027 2630 2883 
Q 2778 2739 2778 2522 
Q 2778 2330 2666 2208 
Q 2554 2086 2374 2086 
Q 2138 2086 1990 2330 
Q 1901 2477 1811 2477 
Q 1645 2477 1533 2285 
Q 1421 2093 1421 1811 
L 1421 678 
Q 1421 371 1507 272 
Q 1594 173 1882 154 
L 1882 0 
L 186 0 
L 186 154 
Q 397 192 464 265 
Q 531 339 531 538 
L 531 2387 
Q 531 2611 460 2688 
Q 390 2765 179 2797 
L 179 2950 
L 1395 2950 
z
" transform="scale(0.015625)"/>
      <path id="STIXGeneral-Bold-65" d="M 2579 806 
L 2733 717 
Q 2451 269 2166 89 
Q 1882 -90 1466 -90 
Q 890 -90 525 342 
Q 160 774 160 1434 
Q 160 2150 528 2588 
Q 896 3027 1498 3027 
Q 2029 3027 2317 2707 
Q 2656 2336 2694 1568 
L 1082 1568 
Q 1101 1299 1133 1116 
Q 1165 934 1241 748 
Q 1318 563 1468 467 
Q 1619 371 1843 371 
Q 2048 371 2214 470 
Q 2381 570 2579 806 
z
M 1907 1805 
L 1907 1939 
Q 1907 2406 1850 2528 
Q 1773 2688 1699 2758 
Q 1626 2829 1498 2829 
Q 1267 2829 1158 2595 
Q 1050 2362 1050 1805 
L 1907 1805 
z
" transform="scale(0.015625)"/>
      <path id="STIXGeneral-Bold-63" d="M 2637 698 
L 2752 582 
Q 2490 224 2202 67 
Q 1914 -90 1530 -90 
Q 922 -90 541 326 
Q 160 742 160 1421 
Q 160 2125 595 2576 
Q 1030 3027 1677 3027 
Q 2099 3027 2380 2828 
Q 2662 2630 2662 2323 
Q 2662 2138 2544 2026 
Q 2426 1914 2227 1914 
Q 2061 1914 1965 2035 
Q 1869 2157 1869 2381 
Q 1869 2496 1865 2547 
Q 1862 2598 1849 2665 
Q 1837 2733 1811 2761 
Q 1786 2790 1731 2809 
Q 1677 2829 1600 2829 
Q 1357 2829 1209 2544 
Q 1062 2259 1062 1747 
Q 1062 1094 1299 716 
Q 1536 339 1952 339 
Q 2323 339 2637 698 
z
" transform="scale(0.015625)"/>
      <path id="STIXGeneral-Bold-73" d="M 2176 2086 
L 2016 2086 
Q 1894 2445 1715 2611 
Q 1498 2816 1235 2816 
Q 1056 2816 934 2710 
Q 813 2605 813 2445 
Q 813 2278 957 2147 
Q 1101 2016 1427 1882 
Q 1907 1683 2108 1452 
Q 2310 1222 2310 883 
Q 2310 454 2035 182 
Q 1760 -90 1325 -90 
Q 992 -90 634 58 
Q 538 96 486 96 
Q 416 96 320 -83 
L 160 -83 
L 160 973 
L 339 973 
Q 544 128 1216 128 
Q 1434 128 1565 243 
Q 1696 358 1696 544 
Q 1696 698 1555 829 
Q 1414 960 1082 1101 
Q 602 1306 387 1539 
Q 173 1773 173 2093 
Q 173 2496 457 2761 
Q 742 3027 1178 3027 
Q 1395 3027 1677 2931 
Q 1818 2886 1875 2886 
Q 1984 2886 2035 3014 
L 2176 3014 
L 2176 2086 
z
" transform="scale(0.015625)"/>
      <path id="STIXGeneral-Bold-6e" d="M 3450 0 
L 1952 0 
L 1952 154 
Q 2112 173 2179 259 
Q 2246 346 2246 538 
L 2246 2054 
Q 2246 2598 1920 2598 
Q 1690 2598 1472 2381 
Q 1363 2272 1363 2227 
L 1363 538 
Q 1363 352 1430 265 
Q 1498 179 1670 154 
L 1670 0 
L 134 0 
L 134 154 
Q 346 198 410 275 
Q 474 352 474 557 
L 474 2406 
Q 474 2611 410 2688 
Q 346 2765 134 2797 
L 134 2950 
L 1357 2950 
L 1357 2470 
L 1363 2470 
Q 1677 3027 2272 3027 
Q 2669 3027 2902 2780 
Q 3136 2534 3136 2118 
L 3136 538 
Q 3136 320 3200 243 
Q 3264 166 3450 154 
L 3450 0 
z
" transform="scale(0.015625)"/>
      <path id="STIXGeneral-Bold-64" d="M 3418 128 
L 3021 77 
Q 2496 6 2170 -83 
L 2170 333 
Q 1946 96 1760 3 
Q 1574 -90 1318 -90 
Q 813 -90 486 332 
Q 160 755 160 1414 
Q 160 2112 509 2569 
Q 858 3027 1389 3027 
Q 1606 3027 1776 2940 
Q 1946 2854 2150 2630 
L 2150 3802 
Q 2150 4026 2067 4086 
Q 1984 4147 1664 4173 
L 1664 4326 
L 3040 4326 
L 3040 646 
Q 3040 442 3120 365 
Q 3200 288 3418 275 
L 3418 128 
z
M 2150 717 
L 2150 2272 
Q 2080 2458 1945 2563 
Q 1811 2669 1651 2669 
Q 1107 2669 1107 1466 
Q 1107 269 1606 269 
Q 1837 269 2029 506 
Q 2150 666 2150 717 
z
" transform="scale(0.015625)"/>
      <path id="STIXGeneral-Bold-68" d="M 3418 0 
L 1920 0 
L 1920 154 
Q 2080 173 2147 259 
Q 2214 346 2214 544 
L 2214 1978 
Q 2214 2323 2144 2460 
Q 2074 2598 1888 2598 
Q 1658 2598 1440 2381 
Q 1331 2272 1331 2227 
L 1331 544 
Q 1331 346 1395 262 
Q 1459 179 1638 154 
L 1638 0 
L 102 0 
L 102 154 
Q 333 198 387 256 
Q 442 314 442 570 
L 442 3782 
Q 442 4006 384 4067 
Q 326 4128 96 4173 
L 96 4326 
L 1331 4326 
L 1331 2534 
Q 1747 3027 2272 3027 
Q 2656 3027 2880 2784 
Q 3104 2541 3104 2157 
L 3104 557 
Q 3104 339 3177 246 
Q 3251 154 3418 154 
L 3418 0 
z
" transform="scale(0.015625)"/>
      <path id="STIXGeneral-Bold-74" d="M 1965 717 
L 2125 646 
Q 1926 250 1712 86 
Q 1498 -77 1178 -77 
Q 845 -77 653 105 
Q 461 288 461 608 
L 461 2669 
L 122 2669 
L 122 2842 
Q 435 3053 646 3299 
Q 858 3546 1190 4032 
L 1350 4032 
L 1350 2950 
L 1958 2950 
L 1958 2669 
L 1350 2669 
L 1350 762 
Q 1350 378 1600 378 
Q 1786 378 1965 717 
z
" transform="scale(0.015625)"/>
      <path id="STIXGeneral-Bold-6f" d="M 3046 1466 
Q 3046 794 2633 352 
Q 2221 -90 1600 -90 
Q 992 -90 576 348 
Q 160 787 160 1459 
Q 160 2157 573 2592 
Q 986 3027 1626 3027 
Q 2234 3027 2640 2585 
Q 3046 2144 3046 1466 
z
M 2106 1395 
Q 2106 2214 1997 2521 
Q 1888 2829 1606 2829 
Q 1312 2829 1206 2525 
Q 1101 2221 1101 1395 
Q 1101 698 1216 403 
Q 1331 109 1606 109 
Q 1882 109 1994 393 
Q 2106 678 2106 1395 
z
" transform="scale(0.015625)"/>
      <path id="STIXGeneral-Bold-67" d="M 1626 435 
L 1958 435 
Q 2477 435 2784 227 
Q 3091 19 3091 -333 
Q 3091 -787 2652 -1052 
Q 2214 -1318 1421 -1318 
Q 179 -1318 179 -730 
Q 179 -339 794 -250 
Q 493 -141 381 -25 
Q 269 90 269 275 
Q 269 557 454 733 
Q 640 909 1030 1024 
Q 678 1120 457 1382 
Q 237 1645 237 1997 
Q 237 2464 598 2745 
Q 960 3027 1536 3027 
Q 1869 3027 2253 2886 
L 3078 2886 
L 3078 2547 
L 2566 2547 
Q 2822 2317 2822 1920 
Q 2822 1318 2234 1075 
Q 2080 1011 1971 998 
Q 1862 986 1421 986 
Q 1229 986 1104 899 
Q 979 813 979 672 
Q 979 538 1113 486 
Q 1248 435 1626 435 
z
M 1958 1997 
Q 1958 2445 1859 2637 
Q 1760 2829 1529 2829 
Q 1299 2829 1206 2643 
Q 1114 2458 1114 1990 
Q 1114 1542 1210 1353 
Q 1306 1165 1536 1165 
Q 1766 1165 1862 1353 
Q 1958 1542 1958 1997 
z
M 2016 -333 
L 966 -333 
Q 832 -442 787 -512 
Q 742 -582 742 -685 
Q 742 -1114 1600 -1114 
Q 2061 -1114 2323 -995 
Q 2586 -877 2586 -691 
Q 2586 -333 2016 -333 
z
" transform="scale(0.015625)"/>
      <path id="STIXGeneral-Bold-62" d="M 1350 4326 
L 1350 2669 
Q 1690 3027 2131 3027 
Q 2662 3027 2998 2611 
Q 3334 2195 3334 1530 
Q 3334 806 2931 358 
Q 2528 -90 1888 -90 
Q 1440 -90 1043 275 
L 538 -83 
L 461 -83 
L 461 3802 
Q 461 3994 397 4061 
Q 333 4128 109 4173 
L 109 4326 
L 1350 4326 
z
M 1350 2304 
L 1350 621 
Q 1350 390 1472 252 
Q 1594 115 1792 115 
Q 2394 115 2394 1414 
Q 2394 2682 1798 2682 
Q 1638 2682 1536 2595 
Q 1434 2509 1350 2304 
z
" transform="scale(0.015625)"/>
     </defs>
     <use xlink:href="#STIXGeneral-Bold-52"/>
     <use xlink:href="#STIXGeneral-Bold-41" transform="translate(72.199982 0)"/>
     <use xlink:href="#STIXGeneral-Bold-4e" transform="translate(144.399963 0)"/>
     <use xlink:href="#STIXGeneral-Bold-53" transform="translate(216.599945 0)"/>
     <use xlink:href="#STIXGeneral-Bold-41" transform="translate(272.199936 0)"/>
     <use xlink:href="#STIXGeneral-Bold-43" transform="translate(344.399918 0)"/>
     <use xlink:href="#STIXGeneral-Bold-20" transform="translate(416.599899 0)"/>
     <use xlink:href="#STIXGeneral-Bold-66" transform="translate(441.599884 0)"/>
     <use xlink:href="#STIXGeneral-Bold-61" transform="translate(474.899872 0)"/>
     <use xlink:href="#STIXGeneral-Bold-69" transform="translate(524.899857 0)"/>
     <use xlink:href="#STIXGeneral-Bold-6c" transform="translate(552.699844 0)"/>
     <use xlink:href="#STIXGeneral-Bold-75" transform="translate(580.499832 0)"/>
     <use xlink:href="#STIXGeneral-Bold-72" transform="translate(636.099823 0)"/>
     <use xlink:href="#STIXGeneral-Bold-65" transform="translate(680.499817 0)"/>
     <use xlink:href="#STIXGeneral-Bold-20" transform="translate(724.899811 0)"/>
     <use xlink:href="#STIXGeneral-Bold-63" transform="translate(749.899796 0)"/>
     <use xlink:href="#STIXGeneral-Bold-61" transform="translate(794.299789 0)"/>
     <use xlink:href="#STIXGeneral-Bold-73" transform="translate(844.299774 0)"/>
     <use xlink:href="#STIXGeneral-Bold-65" transform="translate(883.199768 0)"/>
     <use xlink:href="#STIXGeneral-Bold-20" transform="translate(927.599762 0)"/>
     <use xlink:href="#STIXGeneral-Bold-75" transform="translate(952.599747 0)"/>
     <use xlink:href="#STIXGeneral-Bold-6e" transform="translate(1008.199738 0)"/>
     <use xlink:href="#STIXGeneral-Bold-64" transform="translate(1063.799728 0)"/>
     <use xlink:href="#STIXGeneral-Bold-65" transform="translate(1119.399719 0)"/>
     <use xlink:href="#STIXGeneral-Bold-72" transform="translate(1163.799713 0)"/>
     <use xlink:href="#STIXGeneral-Bold-20" transform="translate(1208.199707 0)"/>
     <use xlink:href="#STIXGeneral-Bold-68" transform="translate(1233.199692 0)"/>
     <use xlink:href="#STIXGeneral-Bold-65" transform="translate(1288.799683 0)"/>
     <use xlink:href="#STIXGeneral-Bold-74" transform="translate(1333.199677 0)"/>
     <use xlink:href="#STIXGeneral-Bold-65" transform="translate(1366.499664 0)"/>
     <use xlink:href="#STIXGeneral-Bold-72" transform="translate(1410.899658 0)"/>
     <use xlink:href="#STIXGeneral-Bold-6f" transform="translate(1455.299652 0)"/>
     <use xlink:href="#STIXGeneral-Bold-67" transform="translate(1505.299637 0)"/>
     <use xlink:href="#STIXGeneral-Bold-65" transform="translate(1555.299622 0)"/>
     <use xlink:href="#STIXGeneral-Bold-6e" transform="translate(1599.699615 0)"/>
     <use xlink:href="#STIXGeneral-Bold-65" transform="translate(1655.299606 0)"/>
     <use xlink:href="#STIXGeneral-Bold-6f" transform="translate(1699.6996 0)"/>
     <use xlink:href="#STIXGeneral-Bold-75" transform="translate(1749.699585 0)"/>
     <use xlink:href="#STIXGeneral-Bold-73" transform="translate(1805.299576 0)"/>
     <use xlink:href="#STIXGeneral-Bold-20" transform="translate(1844.19957 0)"/>
     <use xlink:href="#STIXGeneral-Bold-62" transform="translate(1869.199554 0)"/>
     <use xlink:href="#STIXGeneral-Bold-69" transform="translate(1924.799545 0)"/>
     <use xlink:href="#STIXGeneral-Bold-61" transform="translate(1952.599533 0)"/>
     <use xlink:href="#STIXGeneral-Bold-73" transform="translate(2002.599518 0)"/>
    </g>
   </g>
   <g id="PathCollection_9">
    <defs>
     <path id="m805da6ea8d" d="M 0 -7.582875 
L -1.702462 -2.343237 
L -7.211743 -2.343237 
L -2.754641 0.895037 
L -4.457102 6.134675 
L -0 2.896401 
L 4.457102 6.134675 
L 2.754641 0.895037 
L 7.211743 -2.343237 
L 1.702462 -2.343237 
z
" style="stroke: #ffffff; stroke-width: 0.9"/>
    </defs>
    <g clip-path="url(#p728c3f9042)">
     <use xlink:href="#m805da6ea8d" x="248.121456" y="157.785137" style="fill: #b91c1c; stroke: #ffffff; stroke-width: 0.9"/>
    </g>
   </g>
   <g id="legend_1">
    <g id="PathCollection_10">
     <g>
      <use xlink:href="#m805da6ea8d" x="300.719419" y="35.571406" style="fill: #b91c1c; stroke: #ffffff; stroke-width: 0.9"/>
     </g>
    </g>
    <g id="text_21">
     <!-- True target -->
     <g style="fill: #0f172a" transform="translate(318.719419 38.196406) scale(0.1 -0.1)">
      <defs>
       <path id="STIXGeneral-Regular-54" d="M 3795 3149 
L 3642 3149 
Q 3539 3674 3353 3821 
Q 3168 3968 2656 3968 
L 2278 3968 
L 2278 710 
Q 2278 346 2387 243 
Q 2496 141 2893 122 
L 2893 0 
L 1024 0 
L 1024 122 
Q 1427 147 1526 256 
Q 1626 365 1626 787 
L 1626 3968 
L 1242 3968 
Q 723 3968 540 3817 
Q 358 3667 262 3149 
L 109 3149 
L 154 4237 
L 3750 4237 
L 3795 3149 
z
" transform="scale(0.015625)"/>
       <path id="STIXGeneral-Regular-72" d="M 1024 2931 
L 1024 2342 
Q 1267 2688 1430 2816 
Q 1594 2944 1792 2944 
Q 1958 2944 2051 2854 
Q 2144 2765 2144 2605 
Q 2144 2470 2077 2393 
Q 2010 2317 1894 2317 
Q 1773 2317 1638 2445 
Q 1536 2541 1472 2541 
Q 1338 2541 1181 2355 
Q 1024 2170 1024 2016 
L 1024 576 
Q 1024 301 1133 205 
Q 1242 109 1568 96 
L 1568 0 
L 32 0 
L 32 96 
Q 339 154 412 224 
Q 486 294 486 538 
L 486 2138 
Q 486 2349 438 2435 
Q 390 2522 269 2522 
Q 166 2522 45 2496 
L 45 2598 
Q 448 2726 992 2944 
L 1024 2931 
z
" transform="scale(0.015625)"/>
       <path id="STIXGeneral-Regular-75" d="M 3072 320 
L 3072 230 
Q 2573 96 2195 -58 
L 2163 -38 
L 2163 486 
L 2150 486 
Q 1747 -64 1235 -64 
Q 870 -64 662 160 
Q 454 384 454 755 
L 454 2362 
Q 454 2598 371 2688 
Q 288 2778 58 2790 
L 58 2880 
L 992 2880 
L 992 813 
Q 992 595 1123 451 
Q 1254 307 1446 307 
Q 1760 307 1984 506 
Q 2067 582 2099 649 
Q 2131 717 2131 877 
L 2131 2355 
Q 2131 2605 2041 2678 
Q 1952 2752 1658 2771 
L 1658 2880 
L 2669 2880 
L 2669 685 
Q 2669 461 2742 390 
Q 2816 320 3034 320 
L 3072 320 
z
" transform="scale(0.015625)"/>
       <path id="STIXGeneral-Regular-65" d="M 2611 1050 
L 2714 1005 
Q 2330 -64 1376 -64 
Q 813 -64 486 329 
Q 160 723 160 1389 
Q 160 2074 525 2509 
Q 890 2944 1485 2944 
Q 2061 2944 2374 2502 
Q 2560 2246 2592 1773 
L 621 1773 
Q 646 1370 700 1158 
Q 755 947 915 730 
Q 1184 378 1626 378 
Q 1939 378 2153 531 
Q 2368 685 2611 1050 
z
M 634 1978 
L 1939 1978 
Q 1882 2381 1750 2547 
Q 1619 2714 1312 2714 
Q 1043 2714 864 2525 
Q 685 2336 634 1978 
z
" transform="scale(0.015625)"/>
       <path id="STIXGeneral-Regular-20" transform="scale(0.015625)"/>
       <path id="STIXGeneral-Regular-74" d="M 1702 493 
L 1786 422 
Q 1478 -64 1011 -64 
Q 448 -64 448 749 
L 448 2675 
L 109 2675 
Q 83 2694 83 2720 
Q 83 2771 192 2842 
Q 435 2982 813 3526 
Q 826 3546 874 3606 
Q 922 3667 941 3706 
Q 986 3706 986 3622 
L 986 2880 
L 1632 2880 
L 1632 2675 
L 986 2675 
L 986 845 
Q 986 538 1062 403 
Q 1139 269 1318 269 
Q 1510 269 1702 493 
z
" transform="scale(0.015625)"/>
       <path id="STIXGeneral-Regular-61" d="M 2829 422 
L 2829 243 
Q 2586 -64 2253 -64 
Q 1888 -64 1843 403 
L 1837 403 
Q 1427 -64 909 -64 
Q 608 -64 422 112 
Q 237 288 237 602 
Q 237 1050 685 1350 
Q 992 1555 1837 1869 
L 1837 2214 
Q 1837 2502 1699 2646 
Q 1562 2790 1338 2790 
Q 1146 2790 1018 2697 
Q 890 2605 890 2477 
Q 890 2419 909 2348 
Q 928 2278 928 2208 
Q 928 2112 841 2029 
Q 755 1946 634 1946 
Q 525 1946 441 2029 
Q 358 2112 358 2240 
Q 358 2547 685 2752 
Q 986 2944 1421 2944 
Q 1939 2944 2176 2656 
Q 2291 2522 2323 2384 
Q 2355 2246 2355 1946 
L 2355 723 
Q 2355 301 2554 301 
Q 2682 301 2829 422 
z
M 1837 813 
L 1837 1715 
Q 1248 1510 1018 1293 
Q 800 1094 800 800 
Q 800 557 921 432 
Q 1043 307 1242 307 
Q 1453 307 1613 410 
Q 1747 506 1792 589 
Q 1837 672 1837 813 
z
" transform="scale(0.015625)"/>
       <path id="STIXGeneral-Regular-67" d="M 3008 2483 
L 2477 2483 
Q 2598 2208 2598 1946 
Q 2598 1453 2265 1203 
Q 1933 954 1600 954 
Q 1530 954 1357 973 
L 1235 986 
Q 1107 947 979 812 
Q 851 678 851 582 
Q 851 435 1350 410 
L 2176 371 
Q 2528 358 2739 172 
Q 2950 -13 2950 -314 
Q 2950 -685 2566 -986 
Q 2035 -1395 1286 -1395 
Q 826 -1395 502 -1212 
Q 179 -1030 179 -774 
Q 179 -595 320 -419 
Q 461 -243 806 6 
Q 602 102 534 172 
Q 467 243 467 346 
Q 467 531 762 787 
Q 909 915 1037 1043 
Q 717 1203 579 1401 
Q 442 1600 442 1901 
Q 442 2336 752 2640 
Q 1062 2944 1510 2944 
Q 1766 2944 2022 2848 
L 2163 2797 
Q 2349 2733 2515 2733 
L 3008 2733 
L 3008 2483 
z
M 973 2163 
L 973 2144 
Q 973 1683 1155 1398 
Q 1338 1114 1632 1114 
Q 1850 1114 1978 1270 
Q 2106 1427 2106 1690 
Q 2106 2112 1914 2464 
Q 1754 2765 1446 2765 
Q 1222 2765 1097 2605 
Q 973 2445 973 2163 
z
M 2771 -410 
Q 2771 -230 2595 -163 
Q 2419 -96 1978 -96 
Q 1344 -96 941 -13 
Q 749 -243 688 -348 
Q 627 -454 627 -563 
Q 627 -774 880 -902 
Q 1133 -1030 1555 -1030 
Q 2099 -1030 2435 -860 
Q 2771 -691 2771 -410 
z
" transform="scale(0.015625)"/>
      </defs>
      <use xlink:href="#STIXGeneral-Regular-54"/>
      <use xlink:href="#STIXGeneral-Regular-72" transform="translate(61.099991 0)"/>
      <use xlink:href="#STIXGeneral-Regular-75" transform="translate(94.399979 0)"/>
      <use xlink:href="#STIXGeneral-Regular-65" transform="translate(144.399963 0)"/>
      <use xlink:href="#STIXGeneral-Regular-20" transform="translate(188.799957 0)"/>
      <use xlink:href="#STIXGeneral-Regular-74" transform="translate(213.799942 0)"/>
      <use xlink:href="#STIXGeneral-Regular-61" transform="translate(241.59993 0)"/>
      <use xlink:href="#STIXGeneral-Regular-72" transform="translate(285.999924 0)"/>
      <use xlink:href="#STIXGeneral-Regular-67" transform="translate(319.299911 0)"/>
      <use xlink:href="#STIXGeneral-Regular-65" transform="translate(369.299896 0)"/>
      <use xlink:href="#STIXGeneral-Regular-74" transform="translate(413.69989 0)"/>
     </g>
    </g>
    <g id="PathCollection_11">
     <defs>
      <path id="m076a2c5071" d="M 0 4.898979 
C 1.299225 4.898979 2.545411 4.382792 3.464102 3.464102 
C 4.382792 2.545411 4.898979 1.299225 4.898979 0 
C 4.898979 -1.299225 4.382792 -2.545411 3.464102 -3.464102 
C 2.545411 -4.382792 1.299225 -4.898979 0 -4.898979 
C -1.299225 -4.898979 -2.545411 -4.382792 -3.464102 -3.464102 
C -4.382792 -2.545411 -4.898979 -1.299225 -4.898979 0 
C -4.898979 1.299225 -4.382792 2.545411 -3.464102 3.464102 
C -2.545411 4.382792 -1.299225 4.898979 0 4.898979 
z
" style="stroke: #ffffff; stroke-width: 0.9"/>
     </defs>
     <g>
      <use xlink:href="#m076a2c5071" x="300.719419" y="49.751094" style="fill: #6b7280; stroke: #ffffff; stroke-width: 0.9"/>
     </g>
    </g>
    <g id="text_22">
     <!-- LS -->
     <g style="fill: #0f172a" transform="translate(318.719419 52.376094) scale(0.1 -0.1)">
      <defs>
       <path id="STIXGeneral-Regular-4c" d="M 3827 1114 
L 3520 0 
L 77 0 
L 77 122 
Q 429 141 531 256 
Q 634 371 634 736 
L 634 3494 
Q 634 3872 541 3981 
Q 448 4090 77 4115 
L 77 4237 
L 1888 4237 
L 1888 4115 
Q 1498 4090 1392 3984 
Q 1286 3878 1286 3507 
L 1286 538 
Q 1286 358 1398 304 
Q 1510 250 1862 250 
L 2310 250 
Q 3085 250 3392 640 
Q 3520 813 3661 1114 
L 3827 1114 
z
" transform="scale(0.015625)"/>
       <path id="STIXGeneral-Regular-53" d="M 3002 2963 
L 2842 2963 
Q 2733 3360 2579 3565 
Q 2189 4064 1651 4064 
Q 1357 4064 1181 3894 
Q 1005 3725 1005 3456 
Q 1005 3328 1069 3206 
Q 1133 3085 1206 2998 
Q 1280 2912 1465 2784 
Q 1651 2656 1766 2589 
Q 1882 2522 2150 2362 
Q 2669 2061 2905 1763 
Q 3142 1466 3142 1107 
Q 3142 576 2771 243 
Q 2400 -90 1837 -90 
Q 1421 -90 1082 58 
Q 915 128 781 128 
Q 704 128 653 70 
Q 602 13 602 -83 
L 461 -83 
L 275 1274 
L 416 1274 
Q 845 141 1734 141 
Q 2074 141 2285 342 
Q 2496 544 2496 858 
Q 2496 1158 2310 1363 
Q 2003 1696 1235 2106 
Q 454 2522 454 3206 
Q 454 3718 768 4022 
Q 1082 4326 1568 4326 
Q 1907 4326 2240 4186 
Q 2413 4109 2522 4109 
Q 2688 4109 2726 4326 
L 2861 4326 
L 3002 2963 
z
" transform="scale(0.015625)"/>
      </defs>
      <use xlink:href="#STIXGeneral-Regular-4c"/>
      <use xlink:href="#STIXGeneral-Regular-53" transform="translate(61.099991 0)"/>
     </g>
    </g>
    <g id="PathCollection_12">
     <defs>
      <path id="m27a39aaac0" d="M -2.44949 4.898979 
L 0 2.44949 
L 2.44949 4.898979 
L 4.898979 2.44949 
L 2.44949 0 
L 4.898979 -2.44949 
L 2.44949 -4.898979 
L 0 -2.44949 
L -2.44949 -4.898979 
L -4.898979 -2.44949 
L -2.44949 0 
L -4.898979 2.44949 
z
" style="stroke: #ffffff; stroke-width: 0.9"/>
     </defs>
     <g>
      <use xlink:href="#m27a39aaac0" x="300.719419" y="63.921406" style="fill: #7c3aed; stroke: #ffffff; stroke-width: 0.9"/>
     </g>
    </g>
    <g id="text_23">
     <!-- RANSAC -->
     <g style="fill: #0f172a" transform="translate(318.719419 66.546406) scale(0.1 -0.1)">
      <defs>
       <path id="STIXGeneral-Regular-52" d="M 4224 0 
L 3187 0 
L 1664 1971 
L 1306 1958 
L 1306 717 
Q 1306 352 1405 249 
Q 1504 147 1875 122 
L 1875 0 
L 109 0 
L 109 122 
Q 474 154 563 262 
Q 653 371 653 794 
L 653 3526 
Q 653 3885 563 3987 
Q 474 4090 109 4115 
L 109 4237 
L 1850 4237 
Q 2726 4237 3187 3859 
Q 3501 3603 3501 3091 
Q 3501 2221 2342 2042 
L 3622 422 
Q 3757 256 3878 198 
Q 4000 141 4224 122 
L 4224 0 
z
M 1306 3731 
L 1306 2195 
Q 1766 2202 1990 2246 
Q 2214 2291 2438 2413 
Q 2803 2618 2803 3142 
Q 2803 4000 1632 4000 
Q 1459 4000 1382 3945 
Q 1306 3891 1306 3731 
z
" transform="scale(0.015625)"/>
       <path id="STIXGeneral-Regular-41" d="M 4525 0 
L 2893 0 
L 2893 122 
Q 3149 122 3245 179 
Q 3334 224 3334 333 
Q 3334 499 3213 781 
L 2950 1382 
L 1274 1382 
L 979 653 
Q 922 506 922 384 
Q 922 237 1027 179 
Q 1133 122 1370 122 
L 1370 0 
L 96 0 
L 96 122 
Q 365 147 486 316 
Q 608 486 902 1190 
L 2221 4314 
L 2349 4314 
L 3923 710 
Q 4064 378 4176 262 
Q 4288 147 4525 122 
L 4525 0 
z
M 2861 1645 
L 2118 3405 
L 1382 1645 
L 2861 1645 
z
" transform="scale(0.015625)"/>
       <path id="STIXGeneral-Regular-4e" d="M 4525 4237 
L 4525 4115 
Q 4198 4083 4102 4000 
Q 4000 3910 3958 3756 
Q 3917 3603 3917 3245 
L 3917 -70 
L 3802 -70 
L 979 3443 
L 979 960 
Q 979 474 1088 323 
Q 1197 173 1574 122 
L 1574 0 
L 77 0 
L 77 122 
Q 474 166 586 310 
Q 698 454 698 960 
L 698 3776 
Q 531 3981 416 4048 
Q 301 4115 77 4115 
L 77 4237 
L 1165 4237 
L 3635 1146 
L 3635 3322 
Q 3635 3808 3514 3949 
Q 3437 4032 3344 4061 
Q 3251 4090 3008 4115 
L 3008 4237 
L 4525 4237 
z
" transform="scale(0.015625)"/>
       <path id="STIXGeneral-Regular-43" d="M 3930 838 
L 4051 723 
Q 3482 -90 2304 -90 
Q 1376 -90 794 480 
Q 179 1082 179 2080 
Q 179 3014 755 3661 
Q 1357 4326 2310 4326 
Q 2720 4326 3072 4230 
Q 3475 4115 3514 4115 
Q 3725 4115 3782 4326 
L 3910 4326 
L 3968 2874 
L 3821 2874 
Q 3718 3334 3488 3584 
Q 3034 4070 2458 4070 
Q 1747 4070 1334 3548 
Q 922 3027 922 2182 
Q 922 1152 1382 653 
Q 1811 192 2522 192 
Q 2944 192 3251 339 
Q 3558 486 3930 838 
z
" transform="scale(0.015625)"/>
      </defs>
      <use xlink:href="#STIXGeneral-Regular-52"/>
      <use xlink:href="#STIXGeneral-Regular-41" transform="translate(66.699997 0)"/>
      <use xlink:href="#STIXGeneral-Regular-4e" transform="translate(138.899979 0)"/>
      <use xlink:href="#STIXGeneral-Regular-53" transform="translate(211.09996 0)"/>
      <use xlink:href="#STIXGeneral-Regular-41" transform="translate(266.699951 0)"/>
      <use xlink:href="#STIXGeneral-Regular-43" transform="translate(338.899933 0)"/>
     </g>
    </g>
    <g id="PathCollection_13">
     <defs>
      <path id="md63df809e3" d="M -4.898979 4.898979 
L 4.898979 4.898979 
L 4.898979 -4.898979 
L -4.898979 -4.898979 
z
" style="stroke: #ffffff; stroke-width: 0.9"/>
     </defs>
     <g>
      <use xlink:href="#md63df809e3" x="300.719419" y="78.091719" style="fill: #0f766e; stroke: #ffffff; stroke-width: 0.9"/>
     </g>
    </g>
    <g id="text_24">
     <!-- Proposed -->
     <g style="fill: #0f172a" transform="translate(318.719419 80.716719) scale(0.1 -0.1)">
      <defs>
       <path id="STIXGeneral-Regular-50" d="M 102 4237 
L 1760 4237 
Q 2669 4237 3149 3834 
Q 3469 3565 3469 3072 
Q 3469 2560 3104 2234 
Q 2835 1990 2553 1916 
Q 2272 1843 1734 1843 
Q 1549 1843 1293 1862 
L 1293 717 
Q 1293 352 1398 246 
Q 1504 141 1894 122 
L 1894 0 
L 102 0 
L 102 122 
Q 474 147 557 256 
Q 640 365 640 781 
L 640 3526 
Q 640 3885 547 3987 
Q 454 4090 102 4115 
L 102 4237 
z
M 1293 3770 
L 1293 2118 
Q 1510 2099 1683 2099 
Q 2202 2099 2486 2352 
Q 2771 2605 2771 3040 
Q 2771 3558 2476 3779 
Q 2182 4000 1517 4000 
Q 1382 4000 1337 3952 
Q 1293 3904 1293 3770 
z
" transform="scale(0.015625)"/>
       <path id="STIXGeneral-Regular-6f" d="M 3008 1478 
Q 3008 806 2608 371 
Q 2208 -64 1568 -64 
Q 979 -64 582 368 
Q 186 800 186 1459 
Q 186 2125 582 2534 
Q 979 2944 1626 2944 
Q 2221 2944 2614 2537 
Q 3008 2131 3008 1478 
z
M 2432 1306 
Q 2432 2035 2112 2445 
Q 1856 2765 1504 2765 
Q 1171 2765 966 2493 
Q 762 2221 762 1747 
Q 762 928 1101 435 
Q 1318 115 1677 115 
Q 2029 115 2230 432 
Q 2432 749 2432 1306 
z
" transform="scale(0.015625)"/>
       <path id="STIXGeneral-Regular-70" d="M 1018 2931 
L 1018 2438 
Q 1421 2944 1939 2944 
Q 2406 2944 2707 2560 
Q 3008 2176 3008 1581 
Q 3008 883 2621 409 
Q 2234 -64 1664 -64 
Q 1466 -64 1328 -6 
Q 1190 51 1018 211 
L 1018 -794 
Q 1018 -1094 1120 -1180 
Q 1222 -1267 1581 -1274 
L 1581 -1389 
L 32 -1389 
L 32 -1280 
Q 314 -1254 397 -1171 
Q 480 -1088 480 -838 
L 480 2157 
Q 480 2381 429 2451 
Q 378 2522 218 2522 
Q 115 2522 58 2515 
L 58 2618 
Q 506 2752 979 2944 
L 1018 2931 
z
M 1018 2138 
L 1018 563 
Q 1018 422 1238 281 
Q 1459 141 1683 141 
Q 2029 141 2243 467 
Q 2458 794 2458 1325 
Q 2458 1888 2243 2224 
Q 2029 2560 1670 2560 
Q 1446 2560 1232 2419 
Q 1018 2278 1018 2138 
z
" transform="scale(0.015625)"/>
       <path id="STIXGeneral-Regular-73" d="M 998 1926 
L 1664 1523 
Q 1984 1331 2105 1164 
Q 2227 998 2227 736 
Q 2227 416 1961 176 
Q 1696 -64 1331 -64 
Q 1030 -64 864 -6 
Q 691 51 570 51 
Q 461 51 416 -26 
L 333 -26 
L 333 979 
L 435 979 
Q 538 512 730 294 
Q 922 77 1248 77 
Q 1485 77 1632 211 
Q 1779 346 1779 550 
Q 1779 845 1440 1030 
L 1094 1222 
Q 326 1651 326 2150 
Q 326 2522 566 2730 
Q 806 2938 1210 2938 
Q 1491 2938 1638 2867 
Q 1754 2816 1818 2816 
Q 1862 2816 1920 2880 
L 1990 2880 
L 2022 2010 
L 1926 2010 
Q 1818 2445 1654 2621 
Q 1491 2797 1203 2797 
Q 986 2797 854 2688 
Q 723 2579 723 2362 
Q 723 2253 796 2128 
Q 870 2003 998 1926 
z
" transform="scale(0.015625)"/>
       <path id="STIXGeneral-Regular-64" d="M 3142 269 
L 2202 -64 
L 2176 -45 
L 2176 365 
Q 1869 -64 1357 -64 
Q 826 -64 499 317 
Q 173 698 173 1312 
Q 173 1990 563 2467 
Q 954 2944 1504 2944 
Q 1850 2944 2176 2669 
L 2176 3667 
Q 2176 3866 2118 3930 
Q 2061 3994 1882 3994 
Q 1792 3994 1741 3987 
L 1741 4090 
Q 2323 4243 2682 4371 
L 2714 4358 
L 2714 730 
Q 2714 506 2768 435 
Q 2822 365 2995 365 
Q 3034 365 3142 371 
L 3142 269 
z
M 2176 653 
L 2176 2125 
Q 2176 2381 1981 2573 
Q 1786 2765 1523 2765 
Q 1158 2765 940 2438 
Q 723 2112 723 1568 
Q 723 979 963 624 
Q 1203 269 1606 269 
Q 1907 269 2080 474 
Q 2176 582 2176 653 
z
" transform="scale(0.015625)"/>
      </defs>
      <use xlink:href="#STIXGeneral-Regular-50"/>
      <use xlink:href="#STIXGeneral-Regular-72" transform="translate(55.699997 0)"/>
      <use xlink:href="#STIXGeneral-Regular-6f" transform="translate(88.999985 0)"/>
      <use xlink:href="#STIXGeneral-Regular-70" transform="translate(138.999969 0)"/>
      <use xlink:href="#STIXGeneral-Regular-6f" transform="translate(188.999954 0)"/>
      <use xlink:href="#STIXGeneral-Regular-73" transform="translate(238.999939 0)"/>
      <use xlink:href="#STIXGeneral-Regular-65" transform="translate(277.899933 0)"/>
      <use xlink:href="#STIXGeneral-Regular-64" transform="translate(322.299927 0)"/>
     </g>
    </g>
   </g>
   <g id="PathCollection_14">
    <g clip-path="url(#p728c3f9042)">
     <use xlink:href="#m076a2c5071" x="257.360474" y="143.389399" style="fill: #6b7280; stroke: #ffffff; stroke-width: 0.9"/>
    </g>
   </g>
   <g id="PathCollection_15">
    <g clip-path="url(#p728c3f9042)">
     <use xlink:href="#m27a39aaac0" x="256.10443" y="144.076688" style="fill: #7c3aed; stroke: #ffffff; stroke-width: 0.9"/>
    </g>
   </g>
   <g id="PathCollection_16">
    <g clip-path="url(#p728c3f9042)">
     <use xlink:href="#md63df809e3" x="250.995253" y="150.842073" style="fill: #0f766e; stroke: #ffffff; stroke-width: 0.9"/>
    </g>
   </g>
  </g>
  <g id="axes_2">
   <g id="patch_5">
    <path d="M 473.681358 300.576406 
L 820.758061 300.576406 
L 820.758061 22.196406 
L 473.681358 22.196406 
z
" style="fill: #fcfbf8"/>
   </g>
   <g id="patch_6">
    <path d="M 489.457572 300.576406 
L 542.044951 300.576406 
L 542.044951 35.452597 
L 489.457572 35.452597 
z
" clip-path="url(#pee6e856e76)" style="fill: #6b7280"/>
   </g>
   <g id="patch_7">
    <path d="M 555.191796 300.576406 
L 607.779175 300.576406 
L 607.779175 54.70276 
L 555.191796 54.70276 
z
" clip-path="url(#pee6e856e76)" style="fill: #7c3aed"/>
   </g>
   <g id="patch_8">
    <path d="M 620.92602 300.576406 
L 673.513399 300.576406 
L 673.513399 50.458165 
L 620.92602 50.458165 
z
" clip-path="url(#pee6e856e76)" style="fill: #2563eb"/>
   </g>
   <g id="patch_9">
    <path d="M 686.660244 300.576406 
L 739.247624 300.576406 
L 739.247624 72.759523 
L 686.660244 72.759523 
z
" clip-path="url(#pee6e856e76)" style="fill: #c2410c"/>
   </g>
   <g id="patch_10">
    <path d="M 752.394468 300.576406 
L 804.981848 300.576406 
L 804.981848 184.109351 
L 752.394468 184.109351 
z
" clip-path="url(#pee6e856e76)" style="fill: #0f766e"/>
   </g>
   <g id="matplotlib.axis_3">
    <g id="xtick_10">
     <g id="line2d_43">
      <g>
       <use xlink:href="#m982491dc3c" x="515.751262" y="300.576406" style="fill: #334155; stroke: #334155; stroke-width: 0.8"/>
      </g>
     </g>
     <g id="text_25">
      <!-- LS -->
      <g style="fill: #334155" transform="translate(510.41007 316.328593) rotate(-10) scale(0.1 -0.1)">
       <use xlink:href="#STIXGeneral-Regular-4c"/>
       <use xlink:href="#STIXGeneral-Regular-53" transform="translate(61.099991 0)"/>
      </g>
     </g>
    </g>
    <g id="xtick_11">
     <g id="line2d_44">
      <g>
       <use xlink:href="#m982491dc3c" x="581.485486" y="300.576406" style="fill: #334155; stroke: #334155; stroke-width: 0.8"/>
      </g>
     </g>
     <g id="text_26">
      <!-- RANSAC -->
      <g style="fill: #334155" transform="translate(561.917669 321.345668) rotate(-10) scale(0.1 -0.1)">
       <use xlink:href="#STIXGeneral-Regular-52"/>
       <use xlink:href="#STIXGeneral-Regular-41" transform="translate(66.699997 0)"/>
       <use xlink:href="#STIXGeneral-Regular-4e" transform="translate(138.899979 0)"/>
       <use xlink:href="#STIXGeneral-Regular-53" transform="translate(211.09996 0)"/>
       <use xlink:href="#STIXGeneral-Regular-41" transform="translate(266.699951 0)"/>
       <use xlink:href="#STIXGeneral-Regular-43" transform="translate(338.899933 0)"/>
      </g>
     </g>
    </g>
    <g id="xtick_12">
     <g id="line2d_45">
      <g>
       <use xlink:href="#m982491dc3c" x="647.21971" y="300.576406" style="fill: #334155; stroke: #334155; stroke-width: 0.8"/>
      </g>
     </g>
     <g id="text_27">
      <!-- GNC-GM -->
      <g style="fill: #334155" transform="translate(627.656509 321.34404) rotate(-10) scale(0.1 -0.1)">
       <defs>
        <path id="STIXGeneral-Regular-47" d="M 4538 2266 
L 4538 2150 
Q 4256 2125 4173 2035 
Q 4090 1946 4090 1638 
L 4090 358 
Q 3539 -90 2464 -90 
Q 1965 -90 1507 89 
Q 1050 269 736 595 
Q 205 1152 205 2093 
Q 205 3155 890 3776 
Q 1491 4326 2419 4326 
Q 2829 4326 3270 4179 
Q 3443 4115 3552 4115 
Q 3654 4115 3731 4176 
Q 3808 4237 3840 4326 
L 3981 4326 
L 4032 2976 
L 3885 2976 
Q 3680 3475 3430 3718 
Q 3059 4070 2496 4070 
Q 1856 4070 1427 3629 
Q 934 3136 934 2074 
Q 934 1190 1395 678 
Q 1856 166 2618 166 
Q 2982 166 3225 281 
Q 3469 397 3469 557 
L 3469 1562 
Q 3469 1933 3376 2025 
Q 3283 2118 2899 2150 
L 2899 2266 
L 4538 2266 
z
" transform="scale(0.015625)"/>
        <path id="STIXGeneral-Regular-2d" d="M 1824 1242 
L 250 1242 
L 250 1645 
L 1824 1645 
L 1824 1242 
z
" transform="scale(0.015625)"/>
        <path id="STIXGeneral-Regular-4d" d="M 5530 0 
L 3738 0 
L 3738 122 
Q 4115 147 4214 265 
Q 4314 384 4314 787 
L 4314 3661 
L 2682 0 
L 2592 0 
L 979 3514 
L 979 966 
Q 979 448 1088 294 
Q 1197 141 1574 122 
L 1574 0 
L 77 0 
L 77 122 
Q 358 141 480 205 
Q 602 269 650 432 
Q 698 595 698 966 
L 698 3514 
Q 698 3878 589 3984 
Q 480 4090 90 4115 
L 90 4237 
L 1357 4237 
L 2835 1024 
L 4250 4237 
L 5523 4237 
L 5523 4115 
Q 5178 4109 5072 3993 
Q 4966 3878 4966 3520 
L 4966 717 
Q 4966 378 5072 262 
Q 5178 147 5530 122 
L 5530 0 
z
" transform="scale(0.015625)"/>
       </defs>
       <use xlink:href="#STIXGeneral-Regular-47"/>
       <use xlink:href="#STIXGeneral-Regular-4e" transform="translate(72.199982 0)"/>
       <use xlink:href="#STIXGeneral-Regular-43" transform="translate(144.399963 0)"/>
       <use xlink:href="#STIXGeneral-Regular-2d" transform="translate(211.09996 0)"/>
       <use xlink:href="#STIXGeneral-Regular-47" transform="translate(244.399948 0)"/>
       <use xlink:href="#STIXGeneral-Regular-4d" transform="translate(316.59993 0)"/>
      </g>
     </g>
    </g>
    <g id="xtick_13">
     <g id="line2d_46">
      <g>
       <use xlink:href="#m982491dc3c" x="712.953934" y="300.576406" style="fill: #334155; stroke: #334155; stroke-width: 0.8"/>
      </g>
     </g>
     <g id="text_28">
      <!-- PSO -->
      <g style="fill: #334155" transform="translate(704.322869 317.48878) rotate(-10) scale(0.1 -0.1)">
       <defs>
        <path id="STIXGeneral-Regular-4f" d="M 4403 2118 
Q 4403 1133 3820 521 
Q 3238 -90 2310 -90 
Q 1376 -90 797 524 
Q 218 1139 218 2138 
Q 218 3110 797 3718 
Q 1376 4326 2310 4326 
Q 3245 4326 3824 3702 
Q 4403 3078 4403 2118 
z
M 3674 2157 
Q 3674 2701 3520 3133 
Q 3366 3565 3091 3795 
Q 2733 4096 2304 4096 
Q 1760 4096 1389 3667 
Q 1184 3437 1065 3011 
Q 947 2586 947 2125 
Q 947 960 1523 429 
Q 1837 141 2317 141 
Q 2816 141 3142 448 
Q 3674 960 3674 2157 
z
" transform="scale(0.015625)"/>
       </defs>
       <use xlink:href="#STIXGeneral-Regular-50"/>
       <use xlink:href="#STIXGeneral-Regular-53" transform="translate(55.699997 0)"/>
       <use xlink:href="#STIXGeneral-Regular-4f" transform="translate(111.299988 0)"/>
      </g>
     </g>
    </g>
    <g id="xtick_14">
     <g id="line2d_47">
      <g>
       <use xlink:href="#m982491dc3c" x="778.688158" y="300.576406" style="fill: #334155; stroke: #334155; stroke-width: 0.8"/>
      </g>
     </g>
     <g id="text_29">
      <!-- Proposed -->
      <g style="fill: #334155" transform="translate(760.759892 320.767474) rotate(-10) scale(0.1 -0.1)">
       <use xlink:href="#STIXGeneral-Regular-50"/>
       <use xlink:href="#STIXGeneral-Regular-72" transform="translate(55.699997 0)"/>
       <use xlink:href="#STIXGeneral-Regular-6f" transform="translate(88.999985 0)"/>
       <use xlink:href="#STIXGeneral-Regular-70" transform="translate(138.999969 0)"/>
       <use xlink:href="#STIXGeneral-Regular-6f" transform="translate(188.999954 0)"/>
       <use xlink:href="#STIXGeneral-Regular-73" transform="translate(238.999939 0)"/>
       <use xlink:href="#STIXGeneral-Regular-65" transform="translate(277.899933 0)"/>
       <use xlink:href="#STIXGeneral-Regular-64" transform="translate(322.299927 0)"/>
      </g>
     </g>
    </g>
   </g>
   <g id="matplotlib.axis_4">
    <g id="ytick_9">
     <g id="line2d_48">
      <path d="M 473.681358 300.576406 
L 820.758061 300.576406 
" clip-path="url(#pee6e856e76)" style="fill: none; stroke-dasharray: 0.7,1.155; stroke-dashoffset: 0; stroke: #cbd5e1; stroke-opacity: 0.35; stroke-width: 0.7"/>
     </g>
     <g id="line2d_49">
      <g>
       <use xlink:href="#mf78ff44350" x="473.681358" y="300.576406" style="fill: #334155; stroke: #334155; stroke-width: 0.8"/>
      </g>
     </g>
     <g id="text_30">
      <!-- 0.0 -->
      <g style="fill: #334155" transform="translate(454.181358 303.99125) scale(0.1 -0.1)">
       <use xlink:href="#STIXGeneral-Regular-30"/>
       <use xlink:href="#STIXGeneral-Regular-2e" transform="translate(49.999985 0)"/>
       <use xlink:href="#STIXGeneral-Regular-30" transform="translate(74.999969 0)"/>
      </g>
     </g>
    </g>
    <g id="ytick_10">
     <g id="line2d_50">
      <path d="M 473.681358 254.907468 
L 820.758061 254.907468 
" clip-path="url(#pee6e856e76)" style="fill: none; stroke-dasharray: 0.7,1.155; stroke-dashoffset: 0; stroke: #cbd5e1; stroke-opacity: 0.35; stroke-width: 0.7"/>
     </g>
     <g id="line2d_51">
      <g>
       <use xlink:href="#mf78ff44350" x="473.681358" y="254.907468" style="fill: #334155; stroke: #334155; stroke-width: 0.8"/>
      </g>
     </g>
     <g id="text_31">
      <!-- 0.2 -->
      <g style="fill: #334155" transform="translate(454.181358 258.322312) scale(0.1 -0.1)">
       <use xlink:href="#STIXGeneral-Regular-30"/>
       <use xlink:href="#STIXGeneral-Regular-2e" transform="translate(49.999985 0)"/>
       <use xlink:href="#STIXGeneral-Regular-32" transform="translate(74.999969 0)"/>
      </g>
     </g>
    </g>
    <g id="ytick_11">
     <g id="line2d_52">
      <path d="M 473.681358 209.238529 
L 820.758061 209.238529 
" clip-path="url(#pee6e856e76)" style="fill: none; stroke-dasharray: 0.7,1.155; stroke-dashoffset: 0; stroke: #cbd5e1; stroke-opacity: 0.35; stroke-width: 0.7"/>
     </g>
     <g id="line2d_53">
      <g>
       <use xlink:href="#mf78ff44350" x="473.681358" y="209.238529" style="fill: #334155; stroke: #334155; stroke-width: 0.8"/>
      </g>
     </g>
     <g id="text_32">
      <!-- 0.4 -->
      <g style="fill: #334155" transform="translate(454.181358 212.653373) scale(0.1 -0.1)">
       <defs>
        <path id="STIXGeneral-Regular-34" d="M 3027 1069 
L 2368 1069 
L 2368 0 
L 1869 0 
L 1869 1069 
L 77 1069 
L 77 1478 
L 2086 4326 
L 2368 4326 
L 2368 1478 
L 3027 1478 
L 3027 1069 
z
M 1869 1478 
L 1869 3674 
L 333 1478 
L 1869 1478 
z
" transform="scale(0.015625)"/>
       </defs>
       <use xlink:href="#STIXGeneral-Regular-30"/>
       <use xlink:href="#STIXGeneral-Regular-2e" transform="translate(49.999985 0)"/>
       <use xlink:href="#STIXGeneral-Regular-34" transform="translate(74.999969 0)"/>
      </g>
     </g>
    </g>
    <g id="ytick_12">
     <g id="line2d_54">
      <path d="M 473.681358 163.569591 
L 820.758061 163.569591 
" clip-path="url(#pee6e856e76)" style="fill: none; stroke-dasharray: 0.7,1.155; stroke-dashoffset: 0; stroke: #cbd5e1; stroke-opacity: 0.35; stroke-width: 0.7"/>
     </g>
     <g id="line2d_55">
      <g>
       <use xlink:href="#mf78ff44350" x="473.681358" y="163.569591" style="fill: #334155; stroke: #334155; stroke-width: 0.8"/>
      </g>
     </g>
     <g id="text_33">
      <!-- 0.6 -->
      <g style="fill: #334155" transform="translate(454.181358 166.984435) scale(0.1 -0.1)">
       <defs>
        <path id="STIXGeneral-Regular-36" d="M 2854 4378 
L 2867 4275 
Q 2112 4154 1606 3664 
Q 1101 3174 973 2451 
Q 1344 2739 1786 2739 
Q 2349 2739 2672 2380 
Q 2995 2022 2995 1402 
Q 2995 774 2669 378 
Q 2291 -90 1651 -90 
Q 870 -90 518 557 
Q 218 1107 218 1786 
Q 218 2835 915 3552 
Q 1312 3962 1731 4131 
Q 2150 4301 2854 4378 
z
M 2419 1203 
Q 2419 2445 1555 2445 
Q 1235 2445 1024 2275 
Q 813 2106 813 1702 
Q 813 954 1046 522 
Q 1280 90 1722 90 
Q 2061 90 2240 394 
Q 2419 698 2419 1203 
z
" transform="scale(0.015625)"/>
       </defs>
       <use xlink:href="#STIXGeneral-Regular-30"/>
       <use xlink:href="#STIXGeneral-Regular-2e" transform="translate(49.999985 0)"/>
       <use xlink:href="#STIXGeneral-Regular-36" transform="translate(74.999969 0)"/>
      </g>
     </g>
    </g>
    <g id="ytick_13">
     <g id="line2d_56">
      <path d="M 473.681358 117.900653 
L 820.758061 117.900653 
" clip-path="url(#pee6e856e76)" style="fill: none; stroke-dasharray: 0.7,1.155; stroke-dashoffset: 0; stroke: #cbd5e1; stroke-opacity: 0.35; stroke-width: 0.7"/>
     </g>
     <g id="line2d_57">
      <g>
       <use xlink:href="#mf78ff44350" x="473.681358" y="117.900653" style="fill: #334155; stroke: #334155; stroke-width: 0.8"/>
      </g>
     </g>
     <g id="text_34">
      <!-- 0.8 -->
      <g style="fill: #334155" transform="translate(454.181358 121.315496) scale(0.1 -0.1)">
       <defs>
        <path id="STIXGeneral-Regular-38" d="M 2848 992 
Q 2848 499 2505 204 
Q 2163 -90 1587 -90 
Q 1050 -90 704 204 
Q 358 499 358 954 
Q 358 1293 524 1533 
Q 691 1773 1190 2125 
Q 710 2522 553 2765 
Q 397 3008 397 3328 
Q 397 3782 745 4054 
Q 1094 4326 1638 4326 
Q 2106 4326 2410 4060 
Q 2714 3795 2714 3411 
Q 2714 3059 2531 2848 
Q 2349 2637 1856 2374 
Q 2432 1990 2640 1689 
Q 2848 1389 2848 992 
z
M 2272 3411 
Q 2272 3744 2086 3945 
Q 1901 4147 1574 4147 
Q 1248 4147 1059 3977 
Q 870 3808 870 3513 
Q 870 3219 1059 2979 
Q 1248 2739 1670 2490 
Q 1997 2682 2134 2896 
Q 2272 3110 2272 3411 
z
M 1734 1741 
L 1357 1997 
Q 1075 1766 960 1545 
Q 845 1325 845 1011 
Q 845 576 1065 333 
Q 1286 90 1658 90 
Q 1971 90 2166 285 
Q 2362 480 2362 794 
Q 2362 1082 2214 1299 
Q 2067 1517 1734 1741 
z
" transform="scale(0.015625)"/>
       </defs>
       <use xlink:href="#STIXGeneral-Regular-30"/>
       <use xlink:href="#STIXGeneral-Regular-2e" transform="translate(49.999985 0)"/>
       <use xlink:href="#STIXGeneral-Regular-38" transform="translate(74.999969 0)"/>
      </g>
     </g>
    </g>
    <g id="ytick_14">
     <g id="line2d_58">
      <path d="M 473.681358 72.231714 
L 820.758061 72.231714 
" clip-path="url(#pee6e856e76)" style="fill: none; stroke-dasharray: 0.7,1.155; stroke-dashoffset: 0; stroke: #cbd5e1; stroke-opacity: 0.35; stroke-width: 0.7"/>
     </g>
     <g id="line2d_59">
      <g>
       <use xlink:href="#mf78ff44350" x="473.681358" y="72.231714" style="fill: #334155; stroke: #334155; stroke-width: 0.8"/>
      </g>
     </g>
     <g id="text_35">
      <!-- 1.0 -->
      <g style="fill: #334155" transform="translate(454.181358 75.646558) scale(0.1 -0.1)">
       <use xlink:href="#STIXGeneral-Regular-31"/>
       <use xlink:href="#STIXGeneral-Regular-2e" transform="translate(49.999985 0)"/>
       <use xlink:href="#STIXGeneral-Regular-30" transform="translate(74.999969 0)"/>
      </g>
     </g>
    </g>
    <g id="ytick_15">
     <g id="line2d_60">
      <path d="M 473.681358 26.562776 
L 820.758061 26.562776 
" clip-path="url(#pee6e856e76)" style="fill: none; stroke-dasharray: 0.7,1.155; stroke-dashoffset: 0; stroke: #cbd5e1; stroke-opacity: 0.35; stroke-width: 0.7"/>
     </g>
     <g id="line2d_61">
      <g>
       <use xlink:href="#mf78ff44350" x="473.681358" y="26.562776" style="fill: #334155; stroke: #334155; stroke-width: 0.8"/>
      </g>
     </g>
     <g id="text_36">
      <!-- 1.2 -->
      <g style="fill: #334155" transform="translate(454.181358 29.977619) scale(0.1 -0.1)">
       <use xlink:href="#STIXGeneral-Regular-31"/>
       <use xlink:href="#STIXGeneral-Regular-2e" transform="translate(49.999985 0)"/>
       <use xlink:href="#STIXGeneral-Regular-32" transform="translate(74.999969 0)"/>
      </g>
     </g>
    </g>
    <g id="text_37">
     <!-- Localization error -->
     <g style="fill: #0f172a" transform="translate(447.794014 200.942578) rotate(-90) scale(0.11 -0.11)">
      <defs>
       <path id="STIXGeneral-Regular-63" d="M 2547 998 
L 2637 941 
Q 2362 403 2112 205 
Q 1786 -64 1376 -64 
Q 845 -64 502 336 
Q 160 736 160 1357 
Q 160 2170 698 2618 
Q 1094 2944 1562 2944 
Q 1965 2944 2256 2749 
Q 2547 2554 2547 2285 
Q 2547 2176 2457 2096 
Q 2368 2016 2246 2016 
Q 2022 2016 1939 2310 
L 1901 2451 
Q 1850 2630 1773 2694 
Q 1696 2758 1523 2758 
Q 1133 2758 893 2451 
Q 653 2144 653 1645 
Q 653 1094 928 745 
Q 1203 397 1645 397 
Q 1920 397 2118 528 
Q 2317 659 2547 998 
z
" transform="scale(0.015625)"/>
       <path id="STIXGeneral-Regular-6c" d="M 1645 0 
L 134 0 
L 134 96 
Q 435 122 531 221 
Q 627 320 627 589 
L 627 3590 
Q 627 3821 569 3910 
Q 512 4000 358 4000 
Q 224 4000 122 3987 
L 122 4090 
Q 730 4237 1133 4371 
L 1165 4346 
L 1165 557 
Q 1165 288 1254 201 
Q 1344 115 1645 96 
L 1645 0 
z
" transform="scale(0.015625)"/>
       <path id="STIXGeneral-Regular-69" d="M 1152 4045 
Q 1152 3904 1056 3811 
Q 960 3718 819 3718 
Q 685 3718 592 3811 
Q 499 3904 499 4045 
Q 499 4179 595 4275 
Q 691 4371 826 4371 
Q 966 4371 1059 4275 
Q 1152 4179 1152 4045 
z
M 1619 0 
L 102 0 
L 102 96 
Q 435 115 521 211 
Q 608 307 608 666 
L 608 2118 
Q 608 2342 563 2432 
Q 518 2522 397 2522 
Q 243 2522 128 2490 
L 128 2592 
L 1120 2944 
L 1146 2918 
L 1146 672 
Q 1146 314 1226 218 
Q 1306 122 1619 96 
L 1619 0 
z
" transform="scale(0.015625)"/>
       <path id="STIXGeneral-Regular-7a" d="M 2675 870 
L 2579 0 
L 173 0 
L 173 96 
L 1875 2688 
L 1011 2688 
Q 710 2688 604 2582 
Q 499 2477 454 2125 
L 339 2125 
L 365 2880 
L 2579 2880 
L 2579 2784 
L 858 192 
L 1709 192 
Q 2246 192 2387 365 
Q 2477 474 2560 896 
L 2675 870 
z
" transform="scale(0.015625)"/>
       <path id="STIXGeneral-Regular-6e" d="M 3104 0 
L 1773 0 
L 1779 96 
Q 2016 115 2096 233 
Q 2176 352 2176 672 
L 2176 1946 
Q 2176 2592 1709 2592 
Q 1549 2592 1408 2515 
Q 1267 2438 1050 2227 
L 1050 461 
Q 1050 269 1136 192 
Q 1222 115 1466 96 
L 1466 0 
L 115 0 
L 115 96 
Q 358 115 435 214 
Q 512 314 512 602 
L 512 2157 
Q 512 2394 467 2483 
Q 422 2573 288 2573 
Q 160 2573 102 2547 
L 102 2656 
Q 550 2784 979 2944 
L 1030 2925 
L 1030 2426 
L 1037 2426 
Q 1491 2944 1958 2944 
Q 2323 2944 2518 2688 
Q 2714 2432 2714 1958 
L 2714 544 
Q 2714 288 2790 205 
Q 2867 122 3104 96 
L 3104 0 
z
" transform="scale(0.015625)"/>
      </defs>
      <use xlink:href="#STIXGeneral-Regular-4c"/>
      <use xlink:href="#STIXGeneral-Regular-6f" transform="translate(61.099991 0)"/>
      <use xlink:href="#STIXGeneral-Regular-63" transform="translate(111.099976 0)"/>
      <use xlink:href="#STIXGeneral-Regular-61" transform="translate(155.499969 0)"/>
      <use xlink:href="#STIXGeneral-Regular-6c" transform="translate(199.899963 0)"/>
      <use xlink:href="#STIXGeneral-Regular-69" transform="translate(227.699951 0)"/>
      <use xlink:href="#STIXGeneral-Regular-7a" transform="translate(255.499939 0)"/>
      <use xlink:href="#STIXGeneral-Regular-61" transform="translate(299.899933 0)"/>
      <use xlink:href="#STIXGeneral-Regular-74" transform="translate(344.299927 0)"/>
      <use xlink:href="#STIXGeneral-Regular-69" transform="translate(372.099915 0)"/>
      <use xlink:href="#STIXGeneral-Regular-6f" transform="translate(399.899902 0)"/>
      <use xlink:href="#STIXGeneral-Regular-6e" transform="translate(449.899887 0)"/>
      <use xlink:href="#STIXGeneral-Regular-20" transform="translate(499.899872 0)"/>
      <use xlink:href="#STIXGeneral-Regular-65" transform="translate(524.899857 0)"/>
      <use xlink:href="#STIXGeneral-Regular-72" transform="translate(569.29985 0)"/>
      <use xlink:href="#STIXGeneral-Regular-72" transform="translate(602.599838 0)"/>
      <use xlink:href="#STIXGeneral-Regular-6f" transform="translate(635.899826 0)"/>
      <use xlink:href="#STIXGeneral-Regular-72" transform="translate(685.899811 0)"/>
     </g>
    </g>
   </g>
   <g id="patch_11">
    <path d="M 473.681358 300.576406 
L 473.681358 22.196406 
" style="fill: none; stroke: #cbd5e1; stroke-width: 0.9; stroke-linejoin: miter; stroke-linecap: square"/>
   </g>
   <g id="patch_12">
    <path d="M 473.681358 300.576406 
L 820.758061 300.576406 
" style="fill: none; stroke: #cbd5e1; stroke-width: 0.9; stroke-linejoin: miter; stroke-linecap: square"/>
   </g>
   <g id="text_38">
    <!-- 1.16 -->
    <g style="fill: #0f172a" transform="translate(507.876262 33.499315) scale(0.09 -0.09)">
     <use xlink:href="#STIXGeneral-Regular-31"/>
     <use xlink:href="#STIXGeneral-Regular-2e" transform="translate(49.999985 0)"/>
     <use xlink:href="#STIXGeneral-Regular-31" transform="translate(74.999969 0)"/>
     <use xlink:href="#STIXGeneral-Regular-36" transform="translate(124.999954 0)"/>
    </g>
   </g>
   <g id="text_39">
    <!-- 1.08 -->
    <g style="fill: #0f172a" transform="translate(573.610486 52.749478) scale(0.09 -0.09)">
     <use xlink:href="#STIXGeneral-Regular-31"/>
     <use xlink:href="#STIXGeneral-Regular-2e" transform="translate(49.999985 0)"/>
     <use xlink:href="#STIXGeneral-Regular-30" transform="translate(74.999969 0)"/>
     <use xlink:href="#STIXGeneral-Regular-38" transform="translate(124.999954 0)"/>
    </g>
   </g>
   <g id="text_40">
    <!-- 1.10 -->
    <g style="fill: #0f172a" transform="translate(639.34471 48.504883) scale(0.09 -0.09)">
     <use xlink:href="#STIXGeneral-Regular-31"/>
     <use xlink:href="#STIXGeneral-Regular-2e" transform="translate(49.999985 0)"/>
     <use xlink:href="#STIXGeneral-Regular-31" transform="translate(74.999969 0)"/>
     <use xlink:href="#STIXGeneral-Regular-30" transform="translate(124.999954 0)"/>
    </g>
   </g>
   <g id="text_41">
    <!-- 1.00 -->
    <g style="fill: #0f172a" transform="translate(705.078934 70.806242) scale(0.09 -0.09)">
     <use xlink:href="#STIXGeneral-Regular-31"/>
     <use xlink:href="#STIXGeneral-Regular-2e" transform="translate(49.999985 0)"/>
     <use xlink:href="#STIXGeneral-Regular-30" transform="translate(74.999969 0)"/>
     <use xlink:href="#STIXGeneral-Regular-30" transform="translate(124.999954 0)"/>
    </g>
   </g>
   <g id="text_42">
    <!-- 0.51 -->
    <g style="fill: #0f172a" transform="translate(770.813158 182.15607) scale(0.09 -0.09)">
     <use xlink:href="#STIXGeneral-Regular-30"/>
     <use xlink:href="#STIXGeneral-Regular-2e" transform="translate(49.999985 0)"/>
     <use xlink:href="#STIXGeneral-Regular-35" transform="translate(74.999969 0)"/>
     <use xlink:href="#STIXGeneral-Regular-31" transform="translate(124.999954 0)"/>
    </g>
   </g>
   <g id="text_43">
    <!-- Front-end robustness under heterogeneous bias -->
    <g style="fill: #0f172a" transform="translate(515.412913 16.196406) scale(0.13 -0.13)">
     <defs>
      <path id="STIXGeneral-Bold-46" d="M 3731 3034 
L 3578 3034 
Q 3514 3398 3437 3555 
Q 3360 3712 3194 3859 
Q 2906 4109 2150 4109 
Q 1907 4109 1804 4035 
Q 1702 3962 1702 3782 
L 1702 2323 
Q 2182 2323 2400 2531 
Q 2618 2739 2682 3277 
L 2842 3277 
L 2842 1114 
L 2682 1114 
Q 2637 1670 2419 1881 
Q 2202 2093 1702 2106 
L 1702 646 
Q 1702 371 1836 275 
Q 1971 179 2406 160 
L 2406 0 
L 102 0 
L 102 160 
Q 454 198 560 294 
Q 666 390 666 659 
L 666 3680 
Q 666 3955 550 4051 
Q 435 4147 102 4166 
L 102 4326 
L 3731 4326 
L 3731 3034 
z
" transform="scale(0.015625)"/>
      <path id="STIXGeneral-Bold-2d" d="M 1837 1094 
L 282 1094 
L 282 1837 
L 1837 1837 
L 1837 1094 
z
" transform="scale(0.015625)"/>
     </defs>
     <use xlink:href="#STIXGeneral-Bold-46"/>
     <use xlink:href="#STIXGeneral-Bold-72" transform="translate(61.099991 0)"/>
     <use xlink:href="#STIXGeneral-Bold-6f" transform="translate(105.499985 0)"/>
     <use xlink:href="#STIXGeneral-Bold-6e" transform="translate(155.499969 0)"/>
     <use xlink:href="#STIXGeneral-Bold-74" transform="translate(211.09996 0)"/>
     <use xlink:href="#STIXGeneral-Bold-2d" transform="translate(244.399948 0)"/>
     <use xlink:href="#STIXGeneral-Bold-65" transform="translate(277.699936 0)"/>
     <use xlink:href="#STIXGeneral-Bold-6e" transform="translate(322.09993 0)"/>
     <use xlink:href="#STIXGeneral-Bold-64" transform="translate(377.699921 0)"/>
     <use xlink:href="#STIXGeneral-Bold-20" transform="translate(433.299911 0)"/>
     <use xlink:href="#STIXGeneral-Bold-72" transform="translate(458.299896 0)"/>
     <use xlink:href="#STIXGeneral-Bold-6f" transform="translate(502.69989 0)"/>
     <use xlink:href="#STIXGeneral-Bold-62" transform="translate(552.699875 0)"/>
     <use xlink:href="#STIXGeneral-Bold-75" transform="translate(608.299866 0)"/>
     <use xlink:href="#STIXGeneral-Bold-73" transform="translate(663.899857 0)"/>
     <use xlink:href="#STIXGeneral-Bold-74" transform="translate(702.79985 0)"/>
     <use xlink:href="#STIXGeneral-Bold-6e" transform="translate(736.099838 0)"/>
     <use xlink:href="#STIXGeneral-Bold-65" transform="translate(791.699829 0)"/>
     <use xlink:href="#STIXGeneral-Bold-73" transform="translate(836.099823 0)"/>
     <use xlink:href="#STIXGeneral-Bold-73" transform="translate(874.999817 0)"/>
     <use xlink:href="#STIXGeneral-Bold-20" transform="translate(913.899811 0)"/>
     <use xlink:href="#STIXGeneral-Bold-75" transform="translate(938.899796 0)"/>
     <use xlink:href="#STIXGeneral-Bold-6e" transform="translate(994.499786 0)"/>
     <use xlink:href="#STIXGeneral-Bold-64" transform="translate(1050.099777 0)"/>
     <use xlink:href="#STIXGeneral-Bold-65" transform="translate(1105.699768 0)"/>
     <use xlink:href="#STIXGeneral-Bold-72" transform="translate(1150.099762 0)"/>
     <use xlink:href="#STIXGeneral-Bold-20" transform="translate(1194.499756 0)"/>
     <use xlink:href="#STIXGeneral-Bold-68" transform="translate(1219.499741 0)"/>
     <use xlink:href="#STIXGeneral-Bold-65" transform="translate(1275.099731 0)"/>
     <use xlink:href="#STIXGeneral-Bold-74" transform="translate(1319.499725 0)"/>
     <use xlink:href="#STIXGeneral-Bold-65" transform="translate(1352.799713 0)"/>
     <use xlink:href="#STIXGeneral-Bold-72" transform="translate(1397.199707 0)"/>
     <use xlink:href="#STIXGeneral-Bold-6f" transform="translate(1441.599701 0)"/>
     <use xlink:href="#STIXGeneral-Bold-67" transform="translate(1491.599686 0)"/>
     <use xlink:href="#STIXGeneral-Bold-65" transform="translate(1541.59967 0)"/>
     <use xlink:href="#STIXGeneral-Bold-6e" transform="translate(1585.999664 0)"/>
     <use xlink:href="#STIXGeneral-Bold-65" transform="translate(1641.599655 0)"/>
     <use xlink:href="#STIXGeneral-Bold-6f" transform="translate(1685.999649 0)"/>
     <use xlink:href="#STIXGeneral-Bold-75" transform="translate(1735.999634 0)"/>
     <use xlink:href="#STIXGeneral-Bold-73" transform="translate(1791.599625 0)"/>
     <use xlink:href="#STIXGeneral-Bold-20" transform="translate(1830.499619 0)"/>
     <use xlink:href="#STIXGeneral-Bold-62" transform="translate(1855.499603 0)"/>
     <use xlink:href="#STIXGeneral-Bold-69" transform="translate(1911.099594 0)"/>
     <use xlink:href="#STIXGeneral-Bold-61" transform="translate(1938.899582 0)"/>
     <use xlink:href="#STIXGeneral-Bold-73" transform="translate(1988.899567 0)"/>
    </g>
   </g>
  </g>
 </g>
 <defs>
  <clipPath id="p728c3f9042">
   <rect x="52.45" y="22.196406" width="319.419419" height="278.38"/>
  </clipPath>
  <clipPath id="pee6e856e76">
   <rect x="473.681358" y="22.196406" width="347.076703" height="278.38"/>
  </clipPath>
 </defs>
</svg>
