<?xml version="1.0" encoding="utf-8" standalone="no"?>
<!DOCTYPE svg PUBLIC "-//W3C//DTD SVG 1.1//EN"
  "http://www.w3.org/Graphics/SVG/1.1/DTD/svg11.dtd">
<svg xmlns:xlink="http://www.w3.org/1999/xlink" width="604.635pt" height="295.037399pt" viewBox="0 0 604.635 295.037399" xmlns="http://www.w3.org/2000/svg" version="1.1">
 <metadata>
  <rdf:RDF xmlns:dc="http://purl.org/dc/elements/1.1/" xmlns:cc="http://creativecommons.org/ns#" xmlns:rdf="http://www.w3.org/1999/02/22-rdf-syntax-ns#">
   <cc:Work>
    <dc:type rdf:resource="http://purl.org/dc/dcmitype/StillImage"/>
    <dc:date>2026-04-20T12:20:09.093455</dc:date>
    <dc:format>image/svg+xml</dc:format>
    <dc:creator>
     <cc:Agent>
      <dc:title>Matplotlib v3.10.8, https://matplotlib.org/</dc:title>
     </cc:Agent>
    </dc:creator>
   </cc:Work>
  </rdf:RDF>
 </metadata>
 <defs>
  <style type="text/css">*{stroke-linejoin: round; stroke-linecap: butt}</style>
 </defs>
 <g id="figure_1">
  <g id="patch_1">
   <path d="M 0 295.037399 
L 604.635 295.037399 
L 604.635 0 
L 0 0 
z
" style="fill: #ffffff"/>
  </g>
  <g id="axes_1">
   <g id="patch_2">
    <path d="M 47.825 256.612282 
L 597.435 256.612282 
L 597.435 23.218594 
L 47.825 23.218594 
z
" style="fill: #fcfcfd"/>
   </g>
   <g id="matplotlib.axis_1">
    <g id="xtick_1">
     <g id="line2d_1">
      <path d="M 72.807273 256.612282 
L 72.807273 23.218594 
" clip-path="url(#pb9670bd218)" style="fill: none; stroke-dasharray: 0.7,1.155; stroke-dashoffset: 0; stroke: #cbd5e1; stroke-opacity: 0.4; stroke-width: 0.7"/>
     </g>
     <g id="line2d_2">
      <defs>
       <path id="m1d036dbdcf" d="M 0 0 
L 0 3.5 
" style="stroke: #334155; stroke-width: 0.8"/>
      </defs>
      <g>
       <use xlink:href="#m1d036dbdcf" x="72.807273" y="256.612282" style="fill: #334155; stroke: #334155; stroke-width: 0.8"/>
      </g>
     </g>
     <g id="text_1">
      <!-- default -->
      <g style="fill: #334155" transform="translate(59.357756 278.085963) rotate(-15) scale(0.105 -0.105)">
       <defs>
        <path id="STIXGeneral-Regular-64" d="M 3142 269 
L 2202 -64 
L 2176 -45 
L 2176 365 
Q 1869 -64 1357 -64 
Q 826 -64 499 317 
Q 173 698 173 1312 
Q 173 1990 563 2467 
Q 954 2944 1504 2944 
Q 1850 2944 2176 2669 
L 2176 3667 
Q 2176 3866 2118 3930 
Q 2061 3994 1882 3994 
Q 1792 3994 1741 3987 
L 1741 4090 
Q 2323 4243 2682 4371 
L 2714 4358 
L 2714 730 
Q 2714 506 2768 435 
Q 2822 365 2995 365 
Q 3034 365 3142 371 
L 3142 269 
z
M 2176 653 
L 2176 2125 
Q 2176 2381 1981 2573 
Q 1786 2765 1523 2765 
Q 1158 2765 940 2438 
Q 723 2112 723 1568 
Q 723 979 963 624 
Q 1203 269 1606 269 
Q 1907 269 2080 474 
Q 2176 582 2176 653 
z
" transform="scale(0.015625)"/>
        <path id="STIXGeneral-Regular-65" d="M 2611 1050 
L 2714 1005 
Q 2330 -64 1376 -64 
Q 813 -64 486 329 
Q 160 723 160 1389 
Q 160 2074 525 2509 
Q 890 2944 1485 2944 
Q 2061 2944 2374 2502 
Q 2560 2246 2592 1773 
L 621 1773 
Q 646 1370 700 1158 
Q 755 947 915 730 
Q 1184 378 1626 378 
Q 1939 378 2153 531 
Q 2368 685 2611 1050 
z
M 634 1978 
L 1939 1978 
Q 1882 2381 1750 2547 
Q 1619 2714 1312 2714 
Q 1043 2714 864 2525 
Q 685 2336 634 1978 
z
" transform="scale(0.015625)"/>
        <path id="STIXGeneral-Regular-66" d="M 134 2880 
L 659 2880 
Q 666 3264 710 3478 
Q 755 3693 883 3910 
Q 1152 4371 1786 4371 
Q 2074 4371 2262 4259 
Q 2451 4147 2451 3974 
Q 2451 3866 2374 3789 
Q 2298 3712 2182 3712 
Q 2029 3712 1894 3942 
Q 1741 4192 1555 4192 
Q 1197 4192 1197 3622 
L 1197 2880 
L 1978 2880 
L 1978 2675 
L 1197 2675 
L 1197 666 
Q 1197 307 1299 208 
Q 1402 109 1792 96 
L 1792 0 
L 128 0 
L 128 96 
Q 474 115 566 214 
Q 659 314 659 666 
L 659 2675 
L 134 2675 
L 134 2880 
z
" transform="scale(0.015625)"/>
        <path id="STIXGeneral-Regular-61" d="M 2829 422 
L 2829 243 
Q 2586 -64 2253 -64 
Q 1888 -64 1843 403 
L 1837 403 
Q 1427 -64 909 -64 
Q 608 -64 422 112 
Q 237 288 237 602 
Q 237 1050 685 1350 
Q 992 1555 1837 1869 
L 1837 2214 
Q 1837 2502 1699 2646 
Q 1562 2790 1338 2790 
Q 1146 2790 1018 2697 
Q 890 2605 890 2477 
Q 890 2419 909 2348 
Q 928 2278 928 2208 
Q 928 2112 841 2029 
Q 755 1946 634 1946 
Q 525 1946 441 2029 
Q 358 2112 358 2240 
Q 358 2547 685 2752 
Q 986 2944 1421 2944 
Q 1939 2944 2176 2656 
Q 2291 2522 2323 2384 
Q 2355 2246 2355 1946 
L 2355 723 
Q 2355 301 2554 301 
Q 2682 301 2829 422 
z
M 1837 813 
L 1837 1715 
Q 1248 1510 1018 1293 
Q 800 1094 800 800 
Q 800 557 921 432 
Q 1043 307 1242 307 
Q 1453 307 1613 410 
Q 1747 506 1792 589 
Q 1837 672 1837 813 
z
" transform="scale(0.015625)"/>
        <path id="STIXGeneral-Regular-75" d="M 3072 320 
L 3072 230 
Q 2573 96 2195 -58 
L 2163 -38 
L 2163 486 
L 2150 486 
Q 1747 -64 1235 -64 
Q 870 -64 662 160 
Q 454 384 454 755 
L 454 2362 
Q 454 2598 371 2688 
Q 288 2778 58 2790 
L 58 2880 
L 992 2880 
L 992 813 
Q 992 595 1123 451 
Q 1254 307 1446 307 
Q 1760 307 1984 506 
Q 2067 582 2099 649 
Q 2131 717 2131 877 
L 2131 2355 
Q 2131 2605 2041 2678 
Q 1952 2752 1658 2771 
L 1658 2880 
L 2669 2880 
L 2669 685 
Q 2669 461 2742 390 
Q 2816 320 3034 320 
L 3072 320 
z
" transform="scale(0.015625)"/>
        <path id="STIXGeneral-Regular-6c" d="M 1645 0 
L 134 0 
L 134 96 
Q 435 122 531 221 
Q 627 320 627 589 
L 627 3590 
Q 627 3821 569 3910 
Q 512 4000 358 4000 
Q 224 4000 122 3987 
L 122 4090 
Q 730 4237 1133 4371 
L 1165 4346 
L 1165 557 
Q 1165 288 1254 201 
Q 1344 115 1645 96 
L 1645 0 
z
" transform="scale(0.015625)"/>
        <path id="STIXGeneral-Regular-74" d="M 1702 493 
L 1786 422 
Q 1478 -64 1011 -64 
Q 448 -64 448 749 
L 448 2675 
L 109 2675 
Q 83 2694 83 2720 
Q 83 2771 192 2842 
Q 435 2982 813 3526 
Q 826 3546 874 3606 
Q 922 3667 941 3706 
Q 986 3706 986 3622 
L 986 2880 
L 1632 2880 
L 1632 2675 
L 986 2675 
L 986 845 
Q 986 538 1062 403 
Q 1139 269 1318 269 
Q 1510 269 1702 493 
z
" transform="scale(0.015625)"/>
       </defs>
       <use xlink:href="#STIXGeneral-Regular-64"/>
       <use xlink:href="#STIXGeneral-Regular-65" transform="translate(49.999985 0)"/>
       <use xlink:href="#STIXGeneral-Regular-66" transform="translate(94.399979 0)"/>
       <use xlink:href="#STIXGeneral-Regular-61" transform="translate(127.699966 0)"/>
       <use xlink:href="#STIXGeneral-Regular-75" transform="translate(172.09996 0)"/>
       <use xlink:href="#STIXGeneral-Regular-6c" transform="translate(222.099945 0)"/>
       <use xlink:href="#STIXGeneral-Regular-74" transform="translate(249.899933 0)"/>
      </g>
     </g>
    </g>
    <g id="xtick_2">
     <g id="line2d_3">
      <path d="M 197.718636 256.612282 
L 197.718636 23.218594 
" clip-path="url(#pb9670bd218)" style="fill: none; stroke-dasharray: 0.7,1.155; stroke-dashoffset: 0; stroke: #cbd5e1; stroke-opacity: 0.4; stroke-width: 0.7"/>
     </g>
     <g id="line2d_4">
      <g>
       <use xlink:href="#m1d036dbdcf" x="197.718636" y="256.612282" style="fill: #334155; stroke: #334155; stroke-width: 0.8"/>
      </g>
     </g>
     <g id="text_2">
      <!-- no_consensus -->
      <g style="fill: #334155" transform="translate(170.180148 285.63622) rotate(-15) scale(0.105 -0.105)">
       <defs>
        <path id="STIXGeneral-Regular-6e" d="M 3104 0 
L 1773 0 
L 1779 96 
Q 2016 115 2096 233 
Q 2176 352 2176 672 
L 2176 1946 
Q 2176 2592 1709 2592 
Q 1549 2592 1408 2515 
Q 1267 2438 1050 2227 
L 1050 461 
Q 1050 269 1136 192 
Q 1222 115 1466 96 
L 1466 0 
L 115 0 
L 115 96 
Q 358 115 435 214 
Q 512 314 512 602 
L 512 2157 
Q 512 2394 467 2483 
Q 422 2573 288 2573 
Q 160 2573 102 2547 
L 102 2656 
Q 550 2784 979 2944 
L 1030 2925 
L 1030 2426 
L 1037 2426 
Q 1491 2944 1958 2944 
Q 2323 2944 2518 2688 
Q 2714 2432 2714 1958 
L 2714 544 
Q 2714 288 2790 205 
Q 2867 122 3104 96 
L 3104 0 
z
" transform="scale(0.015625)"/>
        <path id="STIXGeneral-Regular-6f" d="M 3008 1478 
Q 3008 806 2608 371 
Q 2208 -64 1568 -64 
Q 979 -64 582 368 
Q 186 800 186 1459 
Q 186 2125 582 2534 
Q 979 2944 1626 2944 
Q 2221 2944 2614 2537 
Q 3008 2131 3008 1478 
z
M 2432 1306 
Q 2432 2035 2112 2445 
Q 1856 2765 1504 2765 
Q 1171 2765 966 2493 
Q 762 2221 762 1747 
Q 762 928 1101 435 
Q 1318 115 1677 115 
Q 2029 115 2230 432 
Q 2432 749 2432 1306 
z
" transform="scale(0.015625)"/>
        <path id="STIXGeneral-Regular-5f" d="M 3200 -800 
L 0 -800 
L 0 -480 
L 3200 -480 
L 3200 -800 
z
" transform="scale(0.015625)"/>
        <path id="STIXGeneral-Regular-63" d="M 2547 998 
L 2637 941 
Q 2362 403 2112 205 
Q 1786 -64 1376 -64 
Q 845 -64 502 336 
Q 160 736 160 1357 
Q 160 2170 698 2618 
Q 1094 2944 1562 2944 
Q 1965 2944 2256 2749 
Q 2547 2554 2547 2285 
Q 2547 2176 2457 2096 
Q 2368 2016 2246 2016 
Q 2022 2016 1939 2310 
L 1901 2451 
Q 1850 2630 1773 2694 
Q 1696 2758 1523 2758 
Q 1133 2758 893 2451 
Q 653 2144 653 1645 
Q 653 1094 928 745 
Q 1203 397 1645 397 
Q 1920 397 2118 528 
Q 2317 659 2547 998 
z
" transform="scale(0.015625)"/>
        <path id="STIXGeneral-Regular-73" d="M 998 1926 
L 1664 1523 
Q 1984 1331 2105 1164 
Q 2227 998 2227 736 
Q 2227 416 1961 176 
Q 1696 -64 1331 -64 
Q 1030 -64 864 -6 
Q 691 51 570 51 
Q 461 51 416 -26 
L 333 -26 
L 333 979 
L 435 979 
Q 538 512 730 294 
Q 922 77 1248 77 
Q 1485 77 1632 211 
Q 1779 346 1779 550 
Q 1779 845 1440 1030 
L 1094 1222 
Q 326 1651 326 2150 
Q 326 2522 566 2730 
Q 806 2938 1210 2938 
Q 1491 2938 1638 2867 
Q 1754 2816 1818 2816 
Q 1862 2816 1920 2880 
L 1990 2880 
L 2022 2010 
L 1926 2010 
Q 1818 2445 1654 2621 
Q 1491 2797 1203 2797 
Q 986 2797 854 2688 
Q 723 2579 723 2362 
Q 723 2253 796 2128 
Q 870 2003 998 1926 
z
" transform="scale(0.015625)"/>
       </defs>
       <use xlink:href="#STIXGeneral-Regular-6e"/>
       <use xlink:href="#STIXGeneral-Regular-6f" transform="translate(49.999985 0)"/>
       <use xlink:href="#STIXGeneral-Regular-5f" transform="translate(99.999969 0)"/>
       <use xlink:href="#STIXGeneral-Regular-63" transform="translate(149.999954 0)"/>
       <use xlink:href="#STIXGeneral-Regular-6f" transform="translate(194.399948 0)"/>
       <use xlink:href="#STIXGeneral-Regular-6e" transform="translate(244.399933 0)"/>
       <use xlink:href="#STIXGeneral-Regular-73" transform="translate(294.399918 0)"/>
       <use xlink:href="#STIXGeneral-Regular-65" transform="translate(333.299911 0)"/>
       <use xlink:href="#STIXGeneral-Regular-6e" transform="translate(377.699905 0)"/>
       <use xlink:href="#STIXGeneral-Regular-73" transform="translate(427.69989 0)"/>
       <use xlink:href="#STIXGeneral-Regular-75" transform="translate(466.599884 0)"/>
       <use xlink:href="#STIXGeneral-Regular-73" transform="translate(516.599869 0)"/>
      </g>
     </g>
    </g>
    <g id="xtick_3">
     <g id="line2d_5">
      <path d="M 322.63 256.612282 
L 322.63 23.218594 
" clip-path="url(#pb9670bd218)" style="fill: none; stroke-dasharray: 0.7,1.155; stroke-dashoffset: 0; stroke: #cbd5e1; stroke-opacity: 0.4; stroke-width: 0.7"/>
     </g>
     <g id="line2d_6">
      <g>
       <use xlink:href="#m1d036dbdcf" x="322.63" y="256.612282" style="fill: #334155; stroke: #334155; stroke-width: 0.8"/>
      </g>
     </g>
     <g id="text_3">
      <!-- no_bias -->
      <g style="fill: #334155" transform="translate(307.486415 278.993811) rotate(-15) scale(0.105 -0.105)">
       <defs>
        <path id="STIXGeneral-Regular-62" d="M 979 4358 
L 979 2406 
Q 1082 2650 1315 2797 
Q 1549 2944 1843 2944 
Q 2349 2944 2672 2541 
Q 2995 2138 2995 1536 
Q 2995 832 2566 384 
Q 2138 -64 1498 -64 
Q 1107 -64 774 67 
Q 442 198 442 358 
L 442 3622 
Q 442 3859 384 3926 
Q 326 3994 128 3994 
Q 83 3994 19 3981 
L 19 4090 
L 211 4147 
Q 864 4346 947 4371 
L 979 4358 
z
M 979 2035 
L 979 474 
Q 979 326 1161 233 
Q 1344 141 1600 141 
Q 1978 141 2195 416 
Q 2432 710 2432 1261 
Q 2432 1888 2182 2240 
Q 1971 2541 1613 2541 
Q 1357 2541 1168 2390 
Q 979 2240 979 2035 
z
" transform="scale(0.015625)"/>
        <path id="STIXGeneral-Regular-69" d="M 1152 4045 
Q 1152 3904 1056 3811 
Q 960 3718 819 3718 
Q 685 3718 592 3811 
Q 499 3904 499 4045 
Q 499 4179 595 4275 
Q 691 4371 826 4371 
Q 966 4371 1059 4275 
Q 1152 4179 1152 4045 
z
M 1619 0 
L 102 0 
L 102 96 
Q 435 115 521 211 
Q 608 307 608 666 
L 608 2118 
Q 608 2342 563 2432 
Q 518 2522 397 2522 
Q 243 2522 128 2490 
L 128 2592 
L 1120 2944 
L 1146 2918 
L 1146 672 
Q 1146 314 1226 218 
Q 1306 122 1619 96 
L 1619 0 
z
" transform="scale(0.015625)"/>
       </defs>
       <use xlink:href="#STIXGeneral-Regular-6e"/>
       <use xlink:href="#STIXGeneral-Regular-6f" transform="translate(49.999985 0)"/>
       <use xlink:href="#STIXGeneral-Regular-5f" transform="translate(99.999969 0)"/>
       <use xlink:href="#STIXGeneral-Regular-62" transform="translate(149.999954 0)"/>
       <use xlink:href="#STIXGeneral-Regular-69" transform="translate(199.999939 0)"/>
       <use xlink:href="#STIXGeneral-Regular-61" transform="translate(227.799927 0)"/>
       <use xlink:href="#STIXGeneral-Regular-73" transform="translate(272.199921 0)"/>
      </g>
     </g>
    </g>
    <g id="xtick_4">
     <g id="line2d_7">
      <path d="M 447.541364 256.612282 
L 447.541364 23.218594 
" clip-path="url(#pb9670bd218)" style="fill: none; stroke-dasharray: 0.7,1.155; stroke-dashoffset: 0; stroke: #cbd5e1; stroke-opacity: 0.4; stroke-width: 0.7"/>
     </g>
     <g id="line2d_8">
      <g>
       <use xlink:href="#m1d036dbdcf" x="447.541364" y="256.612282" style="fill: #334155; stroke: #334155; stroke-width: 0.8"/>
      </g>
     </g>
     <g id="text_4">
      <!-- no_trim -->
      <g style="fill: #334155" transform="translate(432.114906 279.145402) rotate(-15) scale(0.105 -0.105)">
       <defs>
        <path id="STIXGeneral-Regular-72" d="M 1024 2931 
L 1024 2342 
Q 1267 2688 1430 2816 
Q 1594 2944 1792 2944 
Q 1958 2944 2051 2854 
Q 2144 2765 2144 2605 
Q 2144 2470 2077 2393 
Q 2010 2317 1894 2317 
Q 1773 2317 1638 2445 
Q 1536 2541 1472 2541 
Q 1338 2541 1181 2355 
Q 1024 2170 1024 2016 
L 1024 576 
Q 1024 301 1133 205 
Q 1242 109 1568 96 
L 1568 0 
L 32 0 
L 32 96 
Q 339 154 412 224 
Q 486 294 486 538 
L 486 2138 
Q 486 2349 438 2435 
Q 390 2522 269 2522 
Q 166 2522 45 2496 
L 45 2598 
Q 448 2726 992 2944 
L 1024 2931 
z
" transform="scale(0.015625)"/>
        <path id="STIXGeneral-Regular-6d" d="M 4960 0 
L 3565 0 
L 3565 96 
Q 3834 122 3907 208 
Q 3981 294 3981 576 
L 3981 1894 
Q 3981 2278 3869 2444 
Q 3757 2611 3488 2611 
Q 3264 2611 3107 2521 
Q 2950 2432 2803 2221 
L 2803 608 
Q 2803 301 2896 201 
Q 2989 102 3264 96 
L 3264 0 
L 1830 0 
L 1830 96 
Q 2112 115 2189 188 
Q 2266 262 2266 550 
L 2266 1901 
Q 2266 2611 1850 2611 
Q 1670 2611 1468 2531 
Q 1267 2451 1171 2336 
Q 1088 2240 1088 2227 
L 1088 448 
Q 1088 243 1177 176 
Q 1267 109 1523 96 
L 1523 0 
L 102 0 
L 102 96 
Q 371 102 460 195 
Q 550 288 550 563 
L 550 2150 
Q 550 2387 499 2480 
Q 448 2573 326 2573 
Q 230 2573 122 2547 
L 122 2656 
Q 557 2778 1011 2944 
L 1062 2925 
L 1062 2451 
L 1075 2451 
Q 1363 2752 1584 2848 
Q 1805 2944 2054 2944 
Q 2560 2944 2733 2406 
Q 3232 2944 3776 2944 
Q 4518 2944 4518 1792 
L 4518 493 
Q 4518 282 4582 202 
Q 4646 122 4794 109 
L 4960 96 
L 4960 0 
z
" transform="scale(0.015625)"/>
       </defs>
       <use xlink:href="#STIXGeneral-Regular-6e"/>
       <use xlink:href="#STIXGeneral-Regular-6f" transform="translate(49.999985 0)"/>
       <use xlink:href="#STIXGeneral-Regular-5f" transform="translate(99.999969 0)"/>
       <use xlink:href="#STIXGeneral-Regular-74" transform="translate(149.999954 0)"/>
       <use xlink:href="#STIXGeneral-Regular-72" transform="translate(177.799942 0)"/>
       <use xlink:href="#STIXGeneral-Regular-69" transform="translate(211.09993 0)"/>
       <use xlink:href="#STIXGeneral-Regular-6d" transform="translate(238.899918 0)"/>
      </g>
     </g>
    </g>
    <g id="xtick_5">
     <g id="line2d_9">
      <path d="M 572.452727 256.612282 
L 572.452727 23.218594 
" clip-path="url(#pb9670bd218)" style="fill: none; stroke-dasharray: 0.7,1.155; stroke-dashoffset: 0; stroke: #cbd5e1; stroke-opacity: 0.4; stroke-width: 0.7"/>
     </g>
     <g id="line2d_10">
      <g>
       <use xlink:href="#m1d036dbdcf" x="572.452727" y="256.612282" style="fill: #334155; stroke: #334155; stroke-width: 0.8"/>
      </g>
     </g>
     <g id="text_5">
      <!-- light_rw -->
      <g style="fill: #334155" transform="translate(555.899051 279.748794) rotate(-15) scale(0.105 -0.105)">
       <defs>
        <path id="STIXGeneral-Regular-67" d="M 3008 2483 
L 2477 2483 
Q 2598 2208 2598 1946 
Q 2598 1453 2265 1203 
Q 1933 954 1600 954 
Q 1530 954 1357 973 
L 1235 986 
Q 1107 947 979 812 
Q 851 678 851 582 
Q 851 435 1350 410 
L 2176 371 
Q 2528 358 2739 172 
Q 2950 -13 2950 -314 
Q 2950 -685 2566 -986 
Q 2035 -1395 1286 -1395 
Q 826 -1395 502 -1212 
Q 179 -1030 179 -774 
Q 179 -595 320 -419 
Q 461 -243 806 6 
Q 602 102 534 172 
Q 467 243 467 346 
Q 467 531 762 787 
Q 909 915 1037 1043 
Q 717 1203 579 1401 
Q 442 1600 442 1901 
Q 442 2336 752 2640 
Q 1062 2944 1510 2944 
Q 1766 2944 2022 2848 
L 2163 2797 
Q 2349 2733 2515 2733 
L 3008 2733 
L 3008 2483 
z
M 973 2163 
L 973 2144 
Q 973 1683 1155 1398 
Q 1338 1114 1632 1114 
Q 1850 1114 1978 1270 
Q 2106 1427 2106 1690 
Q 2106 2112 1914 2464 
Q 1754 2765 1446 2765 
Q 1222 2765 1097 2605 
Q 973 2445 973 2163 
z
M 2771 -410 
Q 2771 -230 2595 -163 
Q 2419 -96 1978 -96 
Q 1344 -96 941 -13 
Q 749 -243 688 -348 
Q 627 -454 627 -563 
Q 627 -774 880 -902 
Q 1133 -1030 1555 -1030 
Q 2099 -1030 2435 -860 
Q 2771 -691 2771 -410 
z
" transform="scale(0.015625)"/>
        <path id="STIXGeneral-Regular-68" d="M 3117 0 
L 1760 0 
L 1760 96 
Q 2042 128 2118 224 
Q 2195 320 2195 653 
L 2195 1920 
Q 2195 2598 1722 2598 
Q 1530 2598 1370 2508 
Q 1210 2419 1005 2195 
L 1005 653 
Q 1005 320 1081 224 
Q 1158 128 1440 96 
L 1440 0 
L 58 0 
L 58 96 
Q 333 134 400 224 
Q 467 314 467 653 
L 467 3667 
Q 467 3872 406 3933 
Q 346 3994 141 3994 
Q 83 3994 64 3987 
L 64 4090 
L 237 4141 
Q 730 4288 973 4371 
L 1005 4352 
L 1005 2406 
Q 1229 2694 1446 2819 
Q 1664 2944 1946 2944 
Q 2733 2944 2733 1926 
L 2733 653 
Q 2733 320 2793 233 
Q 2854 147 3117 96 
L 3117 0 
z
" transform="scale(0.015625)"/>
        <path id="STIXGeneral-Regular-77" d="M 4442 2880 
L 4442 2784 
Q 4346 2752 4301 2691 
Q 4256 2630 4179 2438 
L 3296 224 
Q 3168 -90 3117 -90 
Q 3085 -90 3062 -48 
Q 3040 -6 2963 186 
L 2381 1696 
L 1664 160 
Q 1549 -90 1504 -90 
Q 1446 -90 1338 192 
L 474 2381 
Q 378 2630 314 2700 
Q 250 2771 134 2784 
L 134 2880 
L 1286 2880 
L 1286 2784 
Q 1120 2765 1056 2720 
Q 992 2675 992 2573 
Q 992 2477 1030 2381 
L 1664 710 
L 2246 1984 
L 2118 2342 
Q 2029 2598 1942 2681 
Q 1856 2765 1677 2784 
L 1677 2880 
L 2976 2880 
L 2976 2784 
Q 2752 2752 2678 2707 
Q 2605 2662 2605 2560 
Q 2605 2458 2714 2176 
L 3251 742 
L 3827 2163 
Q 3936 2432 3936 2592 
Q 3936 2669 3875 2710 
Q 3814 2752 3654 2784 
L 3654 2880 
L 4442 2880 
z
" transform="scale(0.015625)"/>
       </defs>
       <use xlink:href="#STIXGeneral-Regular-6c"/>
       <use xlink:href="#STIXGeneral-Regular-69" transform="translate(27.799988 0)"/>
       <use xlink:href="#STIXGeneral-Regular-67" transform="translate(55.599976 0)"/>
       <use xlink:href="#STIXGeneral-Regular-68" transform="translate(105.59996 0)"/>
       <use xlink:href="#STIXGeneral-Regular-74" transform="translate(155.599945 0)"/>
       <use xlink:href="#STIXGeneral-Regular-5f" transform="translate(183.399933 0)"/>
       <use xlink:href="#STIXGeneral-Regular-72" transform="translate(233.399918 0)"/>
       <use xlink:href="#STIXGeneral-Regular-77" transform="translate(266.699905 0)"/>
      </g>
     </g>
    </g>
   </g>
   <g id="matplotlib.axis_2">
    <g id="ytick_1">
     <g id="line2d_11">
      <path d="M 47.825 247.751518 
L 597.435 247.751518 
" clip-path="url(#pb9670bd218)" style="fill: none; stroke-dasharray: 0.7,1.155; stroke-dashoffset: 0; stroke: #cbd5e1; stroke-opacity: 0.4; stroke-width: 0.7"/>
     </g>
     <g id="line2d_12">
      <defs>
       <path id="m4a30fbdb63" d="M 0 0 
L -3.5 0 
" style="stroke: #334155; stroke-width: 0.8"/>
      </defs>
      <g>
       <use xlink:href="#m4a30fbdb63" x="47.825" y="247.751518" style="fill: #334155; stroke: #334155; stroke-width: 0.8"/>
      </g>
     </g>
     <g id="text_6">
      <!-- 0.25 -->
      <g style="fill: #334155" transform="translate(22.45 251.337104) scale(0.105 -0.105)">
       <defs>
        <path id="STIXGeneral-Regular-30" d="M 3046 2112 
Q 3046 1683 2963 1302 
Q 2880 922 2717 602 
Q 2554 282 2266 96 
Q 1978 -90 1600 -90 
Q 1210 -90 915 108 
Q 621 307 461 640 
Q 301 973 227 1350 
Q 154 1728 154 2150 
Q 154 2746 301 3222 
Q 448 3699 790 4012 
Q 1133 4326 1626 4326 
Q 2253 4326 2649 3712 
Q 3046 3098 3046 2112 
z
M 2432 2080 
Q 2432 3091 2217 3625 
Q 2003 4160 1587 4160 
Q 1190 4160 979 3622 
Q 768 3085 768 2106 
Q 768 1120 979 598 
Q 1190 77 1600 77 
Q 2003 77 2217 598 
Q 2432 1120 2432 2080 
z
" transform="scale(0.015625)"/>
        <path id="STIXGeneral-Regular-2e" d="M 1158 275 
Q 1158 134 1052 32 
Q 947 -70 800 -70 
Q 653 -70 550 32 
Q 448 134 448 281 
Q 448 429 553 534 
Q 659 640 806 640 
Q 947 640 1052 531 
Q 1158 422 1158 275 
z
" transform="scale(0.015625)"/>
        <path id="STIXGeneral-Regular-32" d="M 3034 877 
L 2688 0 
L 186 0 
L 186 77 
L 1325 1286 
Q 1773 1754 1965 2144 
Q 2157 2534 2157 2950 
Q 2157 3379 1920 3616 
Q 1683 3853 1267 3853 
Q 922 3853 720 3673 
Q 518 3494 326 3021 
L 192 3053 
Q 301 3648 630 3987 
Q 960 4326 1523 4326 
Q 2054 4326 2380 4006 
Q 2707 3686 2707 3200 
Q 2707 2477 1888 1613 
L 832 486 
L 2330 486 
Q 2541 486 2665 569 
Q 2790 653 2944 915 
L 3034 877 
z
" transform="scale(0.015625)"/>
        <path id="STIXGeneral-Regular-35" d="M 2803 4358 
L 2573 3814 
Q 2534 3731 2400 3731 
L 1158 3731 
L 902 3187 
Q 1606 3053 1920 2896 
Q 2234 2739 2502 2368 
Q 2726 2061 2726 1555 
Q 2726 1094 2576 780 
Q 2426 467 2099 224 
Q 1664 -90 1011 -90 
Q 646 -90 422 19 
Q 198 128 198 307 
Q 198 550 486 550 
Q 717 550 960 352 
Q 1210 147 1414 147 
Q 1747 147 2012 480 
Q 2278 813 2278 1229 
Q 2278 1843 1850 2189 
Q 1293 2637 486 2637 
Q 410 2637 410 2688 
L 416 2720 
L 1114 4237 
L 2438 4237 
Q 2547 4237 2608 4269 
Q 2669 4301 2746 4403 
L 2803 4358 
z
" transform="scale(0.015625)"/>
       </defs>
       <use xlink:href="#STIXGeneral-Regular-30"/>
       <use xlink:href="#STIXGeneral-Regular-2e" transform="translate(49.999985 0)"/>
       <use xlink:href="#STIXGeneral-Regular-32" transform="translate(74.999969 0)"/>
       <use xlink:href="#STIXGeneral-Regular-35" transform="translate(124.999954 0)"/>
      </g>
     </g>
    </g>
    <g id="ytick_2">
     <g id="line2d_13">
      <path d="M 47.825 219.348626 
L 597.435 219.348626 
" clip-path="url(#pb9670bd218)" style="fill: none; stroke-dasharray: 0.7,1.155; stroke-dashoffset: 0; stroke: #cbd5e1; stroke-opacity: 0.4; stroke-width: 0.7"/>
     </g>
     <g id="line2d_14">
      <g>
       <use xlink:href="#m4a30fbdb63" x="47.825" y="219.348626" style="fill: #334155; stroke: #334155; stroke-width: 0.8"/>
      </g>
     </g>
     <g id="text_7">
      <!-- 0.50 -->
      <g style="fill: #334155" transform="translate(22.45 222.934212) scale(0.105 -0.105)">
       <use xlink:href="#STIXGeneral-Regular-30"/>
       <use xlink:href="#STIXGeneral-Regular-2e" transform="translate(49.999985 0)"/>
       <use xlink:href="#STIXGeneral-Regular-35" transform="translate(74.999969 0)"/>
       <use xlink:href="#STIXGeneral-Regular-30" transform="translate(124.999954 0)"/>
      </g>
     </g>
    </g>
    <g id="ytick_3">
     <g id="line2d_15">
      <path d="M 47.825 190.945735 
L 597.435 190.945735 
" clip-path="url(#pb9670bd218)" style="fill: none; stroke-dasharray: 0.7,1.155; stroke-dashoffset: 0; stroke: #cbd5e1; stroke-opacity: 0.4; stroke-width: 0.7"/>
     </g>
     <g id="line2d_16">
      <g>
       <use xlink:href="#m4a30fbdb63" x="47.825" y="190.945735" style="fill: #334155; stroke: #334155; stroke-width: 0.8"/>
      </g>
     </g>
     <g id="text_8">
      <!-- 0.75 -->
      <g style="fill: #334155" transform="translate(22.45 194.531321) scale(0.105 -0.105)">
       <defs>
        <path id="STIXGeneral-Regular-37" d="M 2874 4134 
L 1517 -51 
L 1101 -51 
L 2368 3763 
L 992 3763 
Q 717 3763 582 3667 
Q 448 3571 243 3238 
L 128 3296 
L 512 4237 
L 2874 4237 
L 2874 4134 
z
" transform="scale(0.015625)"/>
       </defs>
       <use xlink:href="#STIXGeneral-Regular-30"/>
       <use xlink:href="#STIXGeneral-Regular-2e" transform="translate(49.999985 0)"/>
       <use xlink:href="#STIXGeneral-Regular-37" transform="translate(74.999969 0)"/>
       <use xlink:href="#STIXGeneral-Regular-35" transform="translate(124.999954 0)"/>
      </g>
     </g>
    </g>
    <g id="ytick_4">
     <g id="line2d_17">
      <path d="M 47.825 162.542843 
L 597.435 162.542843 
" clip-path="url(#pb9670bd218)" style="fill: none; stroke-dasharray: 0.7,1.155; stroke-dashoffset: 0; stroke: #cbd5e1; stroke-opacity: 0.4; stroke-width: 0.7"/>
     </g>
     <g id="line2d_18">
      <g>
       <use xlink:href="#m4a30fbdb63" x="47.825" y="162.542843" style="fill: #334155; stroke: #334155; stroke-width: 0.8"/>
      </g>
     </g>
     <g id="text_9">
      <!-- 1.00 -->
      <g style="fill: #334155" transform="translate(22.45 166.128429) scale(0.105 -0.105)">
       <defs>
        <path id="STIXGeneral-Regular-31" d="M 2522 0 
L 755 0 
L 755 96 
Q 1107 115 1235 227 
Q 1363 339 1363 608 
L 1363 3482 
Q 1363 3795 1171 3795 
Q 1082 3795 883 3718 
L 710 3654 
L 710 3744 
L 1856 4326 
L 1914 4307 
L 1914 486 
Q 1914 275 2042 185 
Q 2170 96 2522 96 
L 2522 0 
z
" transform="scale(0.015625)"/>
       </defs>
       <use xlink:href="#STIXGeneral-Regular-31"/>
       <use xlink:href="#STIXGeneral-Regular-2e" transform="translate(49.999985 0)"/>
       <use xlink:href="#STIXGeneral-Regular-30" transform="translate(74.999969 0)"/>
       <use xlink:href="#STIXGeneral-Regular-30" transform="translate(124.999954 0)"/>
      </g>
     </g>
    </g>
    <g id="ytick_5">
     <g id="line2d_19">
      <path d="M 47.825 134.139952 
L 597.435 134.139952 
" clip-path="url(#pb9670bd218)" style="fill: none; stroke-dasharray: 0.7,1.155; stroke-dashoffset: 0; stroke: #cbd5e1; stroke-opacity: 0.4; stroke-width: 0.7"/>
     </g>
     <g id="line2d_20">
      <g>
       <use xlink:href="#m4a30fbdb63" x="47.825" y="134.139952" style="fill: #334155; stroke: #334155; stroke-width: 0.8"/>
      </g>
     </g>
     <g id="text_10">
      <!-- 1.25 -->
      <g style="fill: #334155" transform="translate(22.45 137.725537) scale(0.105 -0.105)">
       <use xlink:href="#STIXGeneral-Regular-31"/>
       <use xlink:href="#STIXGeneral-Regular-2e" transform="translate(49.999985 0)"/>
       <use xlink:href="#STIXGeneral-Regular-32" transform="translate(74.999969 0)"/>
       <use xlink:href="#STIXGeneral-Regular-35" transform="translate(124.999954 0)"/>
      </g>
     </g>
    </g>
    <g id="ytick_6">
     <g id="line2d_21">
      <path d="M 47.825 105.73706 
L 597.435 105.73706 
" clip-path="url(#pb9670bd218)" style="fill: none; stroke-dasharray: 0.7,1.155; stroke-dashoffset: 0; stroke: #cbd5e1; stroke-opacity: 0.4; stroke-width: 0.7"/>
     </g>
     <g id="line2d_22">
      <g>
       <use xlink:href="#m4a30fbdb63" x="47.825" y="105.73706" style="fill: #334155; stroke: #334155; stroke-width: 0.8"/>
      </g>
     </g>
     <g id="text_11">
      <!-- 1.50 -->
      <g style="fill: #334155" transform="translate(22.45 109.322646) scale(0.105 -0.105)">
       <use xlink:href="#STIXGeneral-Regular-31"/>
       <use xlink:href="#STIXGeneral-Regular-2e" transform="translate(49.999985 0)"/>
       <use xlink:href="#STIXGeneral-Regular-35" transform="translate(74.999969 0)"/>
       <use xlink:href="#STIXGeneral-Regular-30" transform="translate(124.999954 0)"/>
      </g>
     </g>
    </g>
    <g id="ytick_7">
     <g id="line2d_23">
      <path d="M 47.825 77.334168 
L 597.435 77.334168 
" clip-path="url(#pb9670bd218)" style="fill: none; stroke-dasharray: 0.7,1.155; stroke-dashoffset: 0; stroke: #cbd5e1; stroke-opacity: 0.4; stroke-width: 0.7"/>
     </g>
     <g id="line2d_24">
      <g>
       <use xlink:href="#m4a30fbdb63" x="47.825" y="77.334168" style="fill: #334155; stroke: #334155; stroke-width: 0.8"/>
      </g>
     </g>
     <g id="text_12">
      <!-- 1.75 -->
      <g style="fill: #334155" transform="translate(22.45 80.919754) scale(0.105 -0.105)">
       <use xlink:href="#STIXGeneral-Regular-31"/>
       <use xlink:href="#STIXGeneral-Regular-2e" transform="translate(49.999985 0)"/>
       <use xlink:href="#STIXGeneral-Regular-37" transform="translate(74.999969 0)"/>
       <use xlink:href="#STIXGeneral-Regular-35" transform="translate(124.999954 0)"/>
      </g>
     </g>
    </g>
    <g id="ytick_8">
     <g id="line2d_25">
      <path d="M 47.825 48.931277 
L 597.435 48.931277 
" clip-path="url(#pb9670bd218)" style="fill: none; stroke-dasharray: 0.7,1.155; stroke-dashoffset: 0; stroke: #cbd5e1; stroke-opacity: 0.4; stroke-width: 0.7"/>
     </g>
     <g id="line2d_26">
      <g>
       <use xlink:href="#m4a30fbdb63" x="47.825" y="48.931277" style="fill: #334155; stroke: #334155; stroke-width: 0.8"/>
      </g>
     </g>
     <g id="text_13">
      <!-- 2.00 -->
      <g style="fill: #334155" transform="translate(22.45 52.516863) scale(0.105 -0.105)">
       <use xlink:href="#STIXGeneral-Regular-32"/>
       <use xlink:href="#STIXGeneral-Regular-2e" transform="translate(49.999985 0)"/>
       <use xlink:href="#STIXGeneral-Regular-30" transform="translate(74.999969 0)"/>
       <use xlink:href="#STIXGeneral-Regular-30" transform="translate(124.999954 0)"/>
      </g>
     </g>
    </g>
    <g id="text_14">
     <!-- Error -->
     <g style="fill: #0f172a" transform="translate(15.737109 153.101962) rotate(-90) scale(0.125 -0.125)">
      <defs>
       <path id="STIXGeneral-Regular-45" d="M 3821 1082 
L 3526 0 
L 77 0 
L 77 122 
Q 442 147 538 252 
Q 634 358 634 730 
L 634 3520 
Q 634 3878 534 3987 
Q 435 4096 77 4115 
L 77 4237 
L 3469 4237 
L 3494 3322 
L 3334 3322 
Q 3264 3750 3085 3872 
Q 2906 3994 2349 3994 
L 1510 3994 
Q 1370 3994 1328 3952 
Q 1286 3910 1286 3763 
L 1286 2355 
L 2253 2355 
Q 2656 2355 2787 2470 
Q 2918 2586 2976 2970 
L 3123 2970 
L 3123 1472 
L 2976 1472 
Q 2918 1875 2790 1984 
Q 2662 2093 2253 2093 
L 1286 2093 
L 1286 538 
Q 1286 346 1420 291 
Q 1555 237 1933 237 
L 2163 237 
Q 2848 237 3136 403 
Q 3424 570 3642 1082 
L 3821 1082 
z
" transform="scale(0.015625)"/>
      </defs>
      <use xlink:href="#STIXGeneral-Regular-45"/>
      <use xlink:href="#STIXGeneral-Regular-72" transform="translate(61.099991 0)"/>
      <use xlink:href="#STIXGeneral-Regular-72" transform="translate(94.399979 0)"/>
      <use xlink:href="#STIXGeneral-Regular-6f" transform="translate(127.699966 0)"/>
      <use xlink:href="#STIXGeneral-Regular-72" transform="translate(177.699951 0)"/>
     </g>
    </g>
   </g>
   <g id="line2d_27">
    <path d="M 72.807273 234.420769 
L 197.718636 246.003478 
L 322.63 234.420769 
L 447.541364 234.420769 
L 572.452727 234.420769 
" clip-path="url(#pb9670bd218)" style="fill: none; stroke: #2ca02c; stroke-width: 2.2; stroke-linecap: square"/>
    <defs>
     <path id="m1a41fecde8" d="M 0 3 
C 0.795609 3 1.55874 2.683901 2.12132 2.12132 
C 2.683901 1.55874 3 0.795609 3 0 
C 3 -0.795609 2.683901 -1.55874 2.12132 -2.12132 
C 1.55874 -2.683901 0.795609 -3 0 -3 
C -0.795609 -3 -1.55874 -2.683901 -2.12132 -2.12132 
C -2.683901 -1.55874 -3 -0.795609 -3 0 
C -3 0.795609 -2.683901 1.55874 -2.12132 2.12132 
C -1.55874 2.683901 -0.795609 3 0 3 
z
" style="stroke: #2ca02c"/>
    </defs>
    <g clip-path="url(#pb9670bd218)">
     <use xlink:href="#m1a41fecde8" x="72.807273" y="234.420769" style="fill: #2ca02c; stroke: #2ca02c"/>
     <use xlink:href="#m1a41fecde8" x="197.718636" y="246.003478" style="fill: #2ca02c; stroke: #2ca02c"/>
     <use xlink:href="#m1a41fecde8" x="322.63" y="234.420769" style="fill: #2ca02c; stroke: #2ca02c"/>
     <use xlink:href="#m1a41fecde8" x="447.541364" y="234.420769" style="fill: #2ca02c; stroke: #2ca02c"/>
     <use xlink:href="#m1a41fecde8" x="572.452727" y="234.420769" style="fill: #2ca02c; stroke: #2ca02c"/>
    </g>
   </g>
   <g id="line2d_28">
    <path d="M 72.807273 162.577332 
L 197.718636 33.827398 
L 322.63 162.577332 
L 447.541364 162.577332 
L 572.452727 162.577332 
" clip-path="url(#pb9670bd218)" style="fill: none; stroke: #9467bd; stroke-width: 2.2; stroke-linecap: square"/>
    <defs>
     <path id="m901a1866a9" d="M -3 3 
L 3 3 
L 3 -3 
L -3 -3 
z
" style="stroke: #9467bd; stroke-linejoin: miter"/>
    </defs>
    <g clip-path="url(#pb9670bd218)">
     <use xlink:href="#m901a1866a9" x="72.807273" y="162.577332" style="fill: #9467bd; stroke: #9467bd; stroke-linejoin: miter"/>
     <use xlink:href="#m901a1866a9" x="197.718636" y="33.827398" style="fill: #9467bd; stroke: #9467bd; stroke-linejoin: miter"/>
     <use xlink:href="#m901a1866a9" x="322.63" y="162.577332" style="fill: #9467bd; stroke: #9467bd; stroke-linejoin: miter"/>
     <use xlink:href="#m901a1866a9" x="447.541364" y="162.577332" style="fill: #9467bd; stroke: #9467bd; stroke-linejoin: miter"/>
     <use xlink:href="#m901a1866a9" x="572.452727" y="162.577332" style="fill: #9467bd; stroke: #9467bd; stroke-linejoin: miter"/>
    </g>
   </g>
   <g id="patch_3">
    <path d="M 47.825 256.612282 
L 47.825 23.218594 
" style="fill: none; stroke: #cbd5e1; stroke-linejoin: miter; stroke-linecap: square"/>
   </g>
   <g id="patch_4">
    <path d="M 47.825 256.612282 
L 597.435 256.612282 
" style="fill: none; stroke: #cbd5e1; stroke-linejoin: miter; stroke-linecap: square"/>
   </g>
   <g id="text_15">
    <!-- Mixed-Regime Ablation -->
    <g style="fill: #0f172a" transform="translate(248.32543 17.218594) scale(0.145 -0.145)">
     <defs>
      <path id="STIXGeneral-Bold-4d" d="M 5894 0 
L 3770 0 
L 3770 160 
Q 4122 192 4230 301 
Q 4339 410 4339 698 
L 4339 3872 
L 2726 0 
L 2554 0 
L 941 3802 
L 941 826 
Q 941 454 1069 320 
Q 1197 186 1587 160 
L 1587 0 
L 90 0 
L 90 160 
Q 467 198 569 291 
Q 672 384 672 691 
L 672 3693 
Q 672 3955 563 4048 
Q 454 4141 102 4166 
L 102 4326 
L 1722 4326 
L 2995 1306 
L 4282 4326 
L 5894 4326 
L 5894 4166 
Q 5542 4141 5436 4022 
Q 5331 3904 5331 3546 
L 5331 806 
Q 5331 442 5427 317 
Q 5523 192 5894 160 
L 5894 0 
z
" transform="scale(0.015625)"/>
      <path id="STIXGeneral-Bold-69" d="M 1376 3923 
Q 1376 3712 1232 3571 
Q 1088 3430 877 3430 
Q 666 3430 525 3571 
Q 384 3712 384 3923 
Q 384 4134 528 4278 
Q 672 4422 890 4422 
Q 1088 4422 1232 4275 
Q 1376 4128 1376 3923 
z
M 1638 0 
L 102 0 
L 102 154 
Q 326 205 384 275 
Q 442 346 442 563 
L 442 2387 
Q 442 2598 374 2675 
Q 307 2752 96 2797 
L 96 2950 
L 1331 2950 
L 1331 544 
Q 1331 339 1398 259 
Q 1466 179 1638 154 
L 1638 0 
z
" transform="scale(0.015625)"/>
      <path id="STIXGeneral-Bold-78" d="M 3098 0 
L 1555 0 
L 1555 154 
Q 1843 173 1843 282 
Q 1843 384 1632 691 
Q 1485 896 1363 1094 
Q 1350 1082 1315 1037 
Q 1280 992 1261 966 
Q 851 474 851 307 
Q 851 173 1171 154 
L 1171 0 
L 90 0 
L 90 154 
Q 269 166 406 278 
Q 544 390 813 749 
L 1088 1107 
Q 1120 1146 1136 1168 
Q 1152 1190 1158 1196 
Q 1165 1203 1181 1225 
Q 1197 1248 1229 1286 
L 410 2547 
Q 314 2694 256 2736 
Q 198 2778 77 2797 
L 77 2950 
L 1677 2950 
L 1677 2797 
Q 1376 2790 1376 2675 
Q 1376 2534 1747 2048 
Q 1811 1971 1830 1939 
L 2061 2234 
Q 2304 2547 2304 2643 
Q 2304 2714 2259 2742 
Q 2214 2771 2106 2784 
L 1978 2797 
L 1978 2950 
L 3053 2950 
L 3053 2797 
Q 2771 2752 2605 2547 
L 1958 1741 
L 2906 282 
Q 2957 198 3098 154 
L 3098 0 
z
" transform="scale(0.015625)"/>
      <path id="STIXGeneral-Bold-65" d="M 2579 806 
L 2733 717 
Q 2451 269 2166 89 
Q 1882 -90 1466 -90 
Q 890 -90 525 342 
Q 160 774 160 1434 
Q 160 2150 528 2588 
Q 896 3027 1498 3027 
Q 2029 3027 2317 2707 
Q 2656 2336 2694 1568 
L 1082 1568 
Q 1101 1299 1133 1116 
Q 1165 934 1241 748 
Q 1318 563 1468 467 
Q 1619 371 1843 371 
Q 2048 371 2214 470 
Q 2381 570 2579 806 
z
M 1907 1805 
L 1907 1939 
Q 1907 2406 1850 2528 
Q 1773 2688 1699 2758 
Q 1626 2829 1498 2829 
Q 1267 2829 1158 2595 
Q 1050 2362 1050 1805 
L 1907 1805 
z
" transform="scale(0.015625)"/>
      <path id="STIXGeneral-Bold-64" d="M 3418 128 
L 3021 77 
Q 2496 6 2170 -83 
L 2170 333 
Q 1946 96 1760 3 
Q 1574 -90 1318 -90 
Q 813 -90 486 332 
Q 160 755 160 1414 
Q 160 2112 509 2569 
Q 858 3027 1389 3027 
Q 1606 3027 1776 2940 
Q 1946 2854 2150 2630 
L 2150 3802 
Q 2150 4026 2067 4086 
Q 1984 4147 1664 4173 
L 1664 4326 
L 3040 4326 
L 3040 646 
Q 3040 442 3120 365 
Q 3200 288 3418 275 
L 3418 128 
z
M 2150 717 
L 2150 2272 
Q 2080 2458 1945 2563 
Q 1811 2669 1651 2669 
Q 1107 2669 1107 1466 
Q 1107 269 1606 269 
Q 1837 269 2029 506 
Q 2150 666 2150 717 
z
" transform="scale(0.015625)"/>
      <path id="STIXGeneral-Bold-2d" d="M 1837 1094 
L 282 1094 
L 282 1837 
L 1837 1837 
L 1837 1094 
z
" transform="scale(0.015625)"/>
      <path id="STIXGeneral-Bold-52" d="M 4582 0 
L 3270 0 
L 1946 2003 
L 1766 2003 
L 1766 749 
Q 1766 403 1859 307 
Q 1952 211 2330 160 
L 2330 0 
L 166 0 
L 166 160 
Q 544 205 637 301 
Q 730 397 730 768 
L 730 3526 
Q 730 3904 624 4022 
Q 518 4141 166 4166 
L 166 4326 
L 2138 4326 
Q 4032 4326 4032 3226 
Q 4032 2739 3744 2470 
Q 3475 2227 3027 2106 
L 4301 301 
Q 4397 160 4582 160 
L 4582 0 
z
M 1766 3821 
L 1766 2208 
Q 2426 2214 2682 2406 
Q 2938 2598 2938 3162 
Q 2938 3667 2746 3888 
Q 2554 4109 2106 4109 
Q 1920 4109 1843 4045 
Q 1766 3981 1766 3821 
z
" transform="scale(0.015625)"/>
      <path id="STIXGeneral-Bold-67" d="M 1626 435 
L 1958 435 
Q 2477 435 2784 227 
Q 3091 19 3091 -333 
Q 3091 -787 2652 -1052 
Q 2214 -1318 1421 -1318 
Q 179 -1318 179 -730 
Q 179 -339 794 -250 
Q 493 -141 381 -25 
Q 269 90 269 275 
Q 269 557 454 733 
Q 640 909 1030 1024 
Q 678 1120 457 1382 
Q 237 1645 237 1997 
Q 237 2464 598 2745 
Q 960 3027 1536 3027 
Q 1869 3027 2253 2886 
L 3078 2886 
L 3078 2547 
L 2566 2547 
Q 2822 2317 2822 1920 
Q 2822 1318 2234 1075 
Q 2080 1011 1971 998 
Q 1862 986 1421 986 
Q 1229 986 1104 899 
Q 979 813 979 672 
Q 979 538 1113 486 
Q 1248 435 1626 435 
z
M 1958 1997 
Q 1958 2445 1859 2637 
Q 1760 2829 1529 2829 
Q 1299 2829 1206 2643 
Q 1114 2458 1114 1990 
Q 1114 1542 1210 1353 
Q 1306 1165 1536 1165 
Q 1766 1165 1862 1353 
Q 1958 1542 1958 1997 
z
M 2016 -333 
L 966 -333 
Q 832 -442 787 -512 
Q 742 -582 742 -685 
Q 742 -1114 1600 -1114 
Q 2061 -1114 2323 -995 
Q 2586 -877 2586 -691 
Q 2586 -333 2016 -333 
z
" transform="scale(0.015625)"/>
      <path id="STIXGeneral-Bold-6d" d="M 5210 0 
L 3693 0 
L 3693 154 
Q 3872 166 3936 246 
Q 4000 326 4000 531 
L 4000 1990 
Q 4000 2598 3661 2598 
Q 3475 2598 3290 2438 
Q 3232 2394 3174 2323 
Q 3117 2253 3117 2227 
L 3117 531 
Q 3117 346 3181 259 
Q 3245 173 3411 154 
L 3411 0 
L 1926 0 
L 1926 154 
Q 2099 166 2163 249 
Q 2227 333 2227 531 
L 2227 2067 
Q 2227 2355 2147 2476 
Q 2067 2598 1882 2598 
Q 1760 2598 1552 2454 
Q 1344 2310 1344 2202 
L 1344 531 
Q 1344 346 1405 262 
Q 1466 179 1632 154 
L 1632 0 
L 102 0 
L 102 154 
Q 314 192 384 272 
Q 454 352 454 550 
L 454 2387 
Q 454 2611 384 2688 
Q 314 2765 96 2797 
L 96 2950 
L 1325 2950 
L 1325 2470 
L 1344 2470 
Q 1530 2765 1744 2896 
Q 1958 3027 2266 3027 
Q 2566 3027 2752 2899 
Q 2938 2771 3085 2470 
Q 3334 2778 3542 2902 
Q 3750 3027 4026 3027 
Q 4422 3027 4656 2784 
Q 4890 2541 4890 2118 
L 4890 531 
Q 4890 326 4957 243 
Q 5024 160 5210 154 
L 5210 0 
z
" transform="scale(0.015625)"/>
      <path id="STIXGeneral-Bold-20" transform="scale(0.015625)"/>
      <path id="STIXGeneral-Bold-41" d="M 4410 0 
L 2349 0 
L 2349 160 
L 2554 179 
Q 2714 192 2781 240 
Q 2848 288 2848 390 
Q 2848 576 2554 1261 
L 1114 1261 
L 1030 1043 
Q 832 531 832 422 
Q 832 301 950 240 
Q 1069 179 1350 160 
L 1350 0 
L 58 0 
L 58 160 
Q 282 198 397 339 
Q 512 480 691 928 
L 2106 4416 
L 2285 4416 
L 3706 1075 
Q 3949 499 4080 329 
Q 4211 160 4410 160 
L 4410 0 
z
M 2458 1510 
L 1811 3066 
L 1210 1510 
L 2458 1510 
z
" transform="scale(0.015625)"/>
      <path id="STIXGeneral-Bold-62" d="M 1350 4326 
L 1350 2669 
Q 1690 3027 2131 3027 
Q 2662 3027 2998 2611 
Q 3334 2195 3334 1530 
Q 3334 806 2931 358 
Q 2528 -90 1888 -90 
Q 1440 -90 1043 275 
L 538 -83 
L 461 -83 
L 461 3802 
Q 461 3994 397 4061 
Q 333 4128 109 4173 
L 109 4326 
L 1350 4326 
z
M 1350 2304 
L 1350 621 
Q 1350 390 1472 252 
Q 1594 115 1792 115 
Q 2394 115 2394 1414 
Q 2394 2682 1798 2682 
Q 1638 2682 1536 2595 
Q 1434 2509 1350 2304 
z
" transform="scale(0.015625)"/>
      <path id="STIXGeneral-Bold-6c" d="M 1638 0 
L 102 0 
L 102 154 
Q 429 179 429 557 
L 429 3757 
Q 429 4147 96 4173 
L 96 4326 
L 1318 4326 
L 1318 557 
Q 1318 346 1395 253 
Q 1472 160 1638 154 
L 1638 0 
z
" transform="scale(0.015625)"/>
      <path id="STIXGeneral-Bold-61" d="M 3027 410 
L 3123 275 
Q 2784 -90 2406 -90 
Q 2170 -90 2051 9 
Q 1933 109 1882 352 
Q 1395 -90 864 -90 
Q 544 -90 352 80 
Q 160 250 160 589 
Q 160 1018 589 1306 
Q 909 1517 1875 1792 
L 1875 2227 
Q 1875 2541 1756 2681 
Q 1638 2822 1357 2822 
Q 1178 2822 1059 2758 
Q 941 2694 941 2586 
Q 941 2515 1011 2438 
Q 1133 2291 1133 2170 
Q 1133 2003 1011 1894 
Q 890 1786 698 1786 
Q 499 1786 390 1901 
Q 282 2016 282 2221 
Q 282 2598 618 2812 
Q 954 3027 1504 3027 
Q 2093 3027 2425 2803 
Q 2758 2579 2758 2170 
L 2758 499 
Q 2758 320 2893 320 
Q 2938 320 2963 346 
L 3027 410 
z
M 1875 621 
L 1875 1568 
Q 1094 1350 1094 794 
Q 1094 589 1187 477 
Q 1280 365 1427 365 
Q 1696 365 1875 621 
z
" transform="scale(0.015625)"/>
      <path id="STIXGeneral-Bold-74" d="M 1965 717 
L 2125 646 
Q 1926 250 1712 86 
Q 1498 -77 1178 -77 
Q 845 -77 653 105 
Q 461 288 461 608 
L 461 2669 
L 122 2669 
L 122 2842 
Q 435 3053 646 3299 
Q 858 3546 1190 4032 
L 1350 4032 
L 1350 2950 
L 1958 2950 
L 1958 2669 
L 1350 2669 
L 1350 762 
Q 1350 378 1600 378 
Q 1786 378 1965 717 
z
" transform="scale(0.015625)"/>
      <path id="STIXGeneral-Bold-6f" d="M 3046 1466 
Q 3046 794 2633 352 
Q 2221 -90 1600 -90 
Q 992 -90 576 348 
Q 160 787 160 1459 
Q 160 2157 573 2592 
Q 986 3027 1626 3027 
Q 2234 3027 2640 2585 
Q 3046 2144 3046 1466 
z
M 2106 1395 
Q 2106 2214 1997 2521 
Q 1888 2829 1606 2829 
Q 1312 2829 1206 2525 
Q 1101 2221 1101 1395 
Q 1101 698 1216 403 
Q 1331 109 1606 109 
Q 1882 109 1994 393 
Q 2106 678 2106 1395 
z
" transform="scale(0.015625)"/>
      <path id="STIXGeneral-Bold-6e" d="M 3450 0 
L 1952 0 
L 1952 154 
Q 2112 173 2179 259 
Q 2246 346 2246 538 
L 2246 2054 
Q 2246 2598 1920 2598 
Q 1690 2598 1472 2381 
Q 1363 2272 1363 2227 
L 1363 538 
Q 1363 352 1430 265 
Q 1498 179 1670 154 
L 1670 0 
L 134 0 
L 134 154 
Q 346 198 410 275 
Q 474 352 474 557 
L 474 2406 
Q 474 2611 410 2688 
Q 346 2765 134 2797 
L 134 2950 
L 1357 2950 
L 1357 2470 
L 1363 2470 
Q 1677 3027 2272 3027 
Q 2669 3027 2902 2780 
Q 3136 2534 3136 2118 
L 3136 538 
Q 3136 320 3200 243 
Q 3264 166 3450 154 
L 3450 0 
z
" transform="scale(0.015625)"/>
     </defs>
     <use xlink:href="#STIXGeneral-Bold-4d"/>
     <use xlink:href="#STIXGeneral-Bold-69" transform="translate(94.399994 0)"/>
     <use xlink:href="#STIXGeneral-Bold-78" transform="translate(122.199982 0)"/>
     <use xlink:href="#STIXGeneral-Bold-65" transform="translate(172.199966 0)"/>
     <use xlink:href="#STIXGeneral-Bold-64" transform="translate(216.59996 0)"/>
     <use xlink:href="#STIXGeneral-Bold-2d" transform="translate(272.199951 0)"/>
     <use xlink:href="#STIXGeneral-Bold-52" transform="translate(305.499939 0)"/>
     <use xlink:href="#STIXGeneral-Bold-65" transform="translate(377.699921 0)"/>
     <use xlink:href="#STIXGeneral-Bold-67" transform="translate(422.099915 0)"/>
     <use xlink:href="#STIXGeneral-Bold-69" transform="translate(472.099899 0)"/>
     <use xlink:href="#STIXGeneral-Bold-6d" transform="translate(499.899887 0)"/>
     <use xlink:href="#STIXGeneral-Bold-65" transform="translate(583.199875 0)"/>
     <use xlink:href="#STIXGeneral-Bold-20" transform="translate(627.599869 0)"/>
     <use xlink:href="#STIXGeneral-Bold-41" transform="translate(652.599854 0)"/>
     <use xlink:href="#STIXGeneral-Bold-62" transform="translate(724.799835 0)"/>
     <use xlink:href="#STIXGeneral-Bold-6c" transform="translate(780.399826 0)"/>
     <use xlink:href="#STIXGeneral-Bold-61" transform="translate(808.199814 0)"/>
     <use xlink:href="#STIXGeneral-Bold-74" transform="translate(858.199799 0)"/>
     <use xlink:href="#STIXGeneral-Bold-69" transform="translate(891.499786 0)"/>
     <use xlink:href="#STIXGeneral-Bold-6f" transform="translate(919.299774 0)"/>
     <use xlink:href="#STIXGeneral-Bold-6e" transform="translate(969.299759 0)"/>
    </g>
   </g>
   <g id="legend_1">
    <g id="line2d_29">
     <path d="M 526.505859 36.343594 
L 537.005859 36.343594 
L 547.505859 36.343594 
" style="fill: none; stroke: #2ca02c; stroke-width: 2.2; stroke-linecap: square"/>
     <g>
      <use xlink:href="#m1a41fecde8" x="537.005859" y="36.343594" style="fill: #2ca02c; stroke: #2ca02c"/>
     </g>
    </g>
    <g id="text_16">
     <!-- Median -->
     <g style="fill: #0f172a" transform="translate(555.905859 40.018594) scale(0.105 -0.105)">
      <defs>
       <path id="STIXGeneral-Regular-4d" d="M 5530 0 
L 3738 0 
L 3738 122 
Q 4115 147 4214 265 
Q 4314 384 4314 787 
L 4314 3661 
L 2682 0 
L 2592 0 
L 979 3514 
L 979 966 
Q 979 448 1088 294 
Q 1197 141 1574 122 
L 1574 0 
L 77 0 
L 77 122 
Q 358 141 480 205 
Q 602 269 650 432 
Q 698 595 698 966 
L 698 3514 
Q 698 3878 589 3984 
Q 480 4090 90 4115 
L 90 4237 
L 1357 4237 
L 2835 1024 
L 4250 4237 
L 5523 4237 
L 5523 4115 
Q 5178 4109 5072 3993 
Q 4966 3878 4966 3520 
L 4966 717 
Q 4966 378 5072 262 
Q 5178 147 5530 122 
L 5530 0 
z
" transform="scale(0.015625)"/>
      </defs>
      <use xlink:href="#STIXGeneral-Regular-4d"/>
      <use xlink:href="#STIXGeneral-Regular-65" transform="translate(88.899994 0)"/>
      <use xlink:href="#STIXGeneral-Regular-64" transform="translate(133.299988 0)"/>
      <use xlink:href="#STIXGeneral-Regular-69" transform="translate(183.299973 0)"/>
      <use xlink:href="#STIXGeneral-Regular-61" transform="translate(211.09996 0)"/>
      <use xlink:href="#STIXGeneral-Regular-6e" transform="translate(255.499954 0)"/>
     </g>
    </g>
    <g id="line2d_30">
     <path d="M 526.505859 51.222422 
L 537.005859 51.222422 
L 547.505859 51.222422 
" style="fill: none; stroke: #9467bd; stroke-width: 2.2; stroke-linecap: square"/>
     <g>
      <use xlink:href="#m901a1866a9" x="537.005859" y="51.222422" style="fill: #9467bd; stroke: #9467bd; stroke-linejoin: miter"/>
     </g>
    </g>
    <g id="text_17">
     <!-- P90 -->
     <g style="fill: #0f172a" transform="translate(555.905859 54.897422) scale(0.105 -0.105)">
      <defs>
       <path id="STIXGeneral-Regular-50" d="M 102 4237 
L 1760 4237 
Q 2669 4237 3149 3834 
Q 3469 3565 3469 3072 
Q 3469 2560 3104 2234 
Q 2835 1990 2553 1916 
Q 2272 1843 1734 1843 
Q 1549 1843 1293 1862 
L 1293 717 
Q 1293 352 1398 246 
Q 1504 141 1894 122 
L 1894 0 
L 102 0 
L 102 122 
Q 474 147 557 256 
Q 640 365 640 781 
L 640 3526 
Q 640 3885 547 3987 
Q 454 4090 102 4115 
L 102 4237 
z
M 1293 3770 
L 1293 2118 
Q 1510 2099 1683 2099 
Q 2202 2099 2486 2352 
Q 2771 2605 2771 3040 
Q 2771 3558 2476 3779 
Q 2182 4000 1517 4000 
Q 1382 4000 1337 3952 
Q 1293 3904 1293 3770 
z
" transform="scale(0.015625)"/>
       <path id="STIXGeneral-Regular-39" d="M 378 -141 
L 358 -13 
Q 1094 115 1603 608 
Q 2112 1101 2304 1882 
Q 1933 1517 1344 1517 
Q 826 1517 509 1875 
Q 192 2234 192 2816 
Q 192 3462 573 3894 
Q 954 4326 1523 4326 
Q 2131 4326 2528 3840 
Q 2938 3328 2938 2522 
Q 2938 1958 2742 1462 
Q 2547 966 2170 621 
Q 1773 262 1395 105 
Q 1018 -51 378 -141 
z
M 2317 2272 
L 2317 2522 
Q 2317 4147 1472 4147 
Q 1171 4147 1005 3930 
Q 909 3802 845 3546 
Q 781 3290 781 3034 
Q 781 2464 995 2128 
Q 1210 1792 1568 1792 
Q 1824 1792 2070 1917 
Q 2317 2042 2317 2272 
z
" transform="scale(0.015625)"/>
      </defs>
      <use xlink:href="#STIXGeneral-Regular-50"/>
      <use xlink:href="#STIXGeneral-Regular-39" transform="translate(55.699997 0)"/>
      <use xlink:href="#STIXGeneral-Regular-30" transform="translate(105.699982 0)"/>
     </g>
    </g>
   </g>
  </g>
 </g>
 <defs>
  <clipPath id="pb9670bd218">
   <rect x="47.825" y="23.218594" width="549.61" height="233.393689"/>
  </clipPath>
 </defs>
</svg>
