<?xml version="1.0" encoding="utf-8" standalone="no"?>
<!DOCTYPE svg PUBLIC "-//W3C//DTD SVG 1.1//EN"
  "http://www.w3.org/Graphics/SVG/1.1/DTD/svg11.dtd">
<svg xmlns:xlink="http://www.w3.org/1999/xlink" width="996.764717pt" height="338.159497pt" viewBox="0 0 996.764717 338.159497" xmlns="http://www.w3.org/2000/svg" version="1.1">
 <metadata>
  <rdf:RDF xmlns:dc="http://purl.org/dc/elements/1.1/" xmlns:cc="http://creativecommons.org/ns#" xmlns:rdf="http://www.w3.org/1999/02/22-rdf-syntax-ns#">
   <cc:Work>
    <dc:type rdf:resource="http://purl.org/dc/dcmitype/StillImage"/>
    <dc:date>2026-04-20T12:20:17.736434</dc:date>
    <dc:format>image/svg+xml</dc:format>
    <dc:creator>
     <cc:Agent>
      <dc:title>Matplotlib v3.10.8, https://matplotlib.org/</dc:title>
     </cc:Agent>
    </dc:creator>
   </cc:Work>
  </rdf:RDF>
 </metadata>
 <defs>
  <style type="text/css">*{stroke-linejoin: round; stroke-linecap: butt}</style>
 </defs>
 <g id="figure_1">
  <g id="patch_1">
   <path d="M 0 338.159497 
L 996.764717 338.159497 
L 996.764717 0 
L 0 0 
z
" style="fill: #ffffff"/>
  </g>
  <g id="axes_1">
   <g id="patch_2">
    <path d="M 42.575 306.496904 
L 492.879234 306.496904 
L 492.879234 23.218594 
L 42.575 23.218594 
z
" style="fill: #fcfcfd"/>
   </g>
   <g id="patch_3">
    <path d="M 63.043374 306.496904 
L 74.1768 306.496904 
L 74.1768 277.566246 
L 63.043374 277.566246 
z
" clip-path="url(#p2a62cdb8ef)" style="fill: #7f7f7f"/>
   </g>
   <g id="patch_4">
    <path d="M 148.685108 306.496904 
L 159.818533 306.496904 
L 159.818533 36.708037 
L 148.685108 36.708037 
z
" clip-path="url(#p2a62cdb8ef)" style="fill: #7f7f7f"/>
   </g>
   <g id="patch_5">
    <path d="M 234.326841 306.496904 
L 245.460266 306.496904 
L 245.460266 64.953473 
L 234.326841 64.953473 
z
" clip-path="url(#p2a62cdb8ef)" style="fill: #7f7f7f"/>
   </g>
   <g id="patch_6">
    <path d="M 319.968574 306.496904 
L 331.101999 306.496904 
L 331.101999 138.03013 
L 319.968574 138.03013 
z
" clip-path="url(#p2a62cdb8ef)" style="fill: #7f7f7f"/>
   </g>
   <g id="patch_7">
    <path d="M 405.610307 306.496904 
L 416.743733 306.496904 
L 416.743733 178.611664 
L 405.610307 178.611664 
z
" clip-path="url(#p2a62cdb8ef)" style="fill: #7f7f7f"/>
   </g>
   <g id="patch_8">
    <path d="M 74.1768 306.496904 
L 85.310225 306.496904 
L 85.310225 277.566246 
L 74.1768 277.566246 
z
" clip-path="url(#p2a62cdb8ef)" style="fill: #17becf"/>
   </g>
   <g id="patch_9">
    <path d="M 159.818533 306.496904 
L 170.951958 306.496904 
L 170.951958 198.151221 
L 159.818533 198.151221 
z
" clip-path="url(#p2a62cdb8ef)" style="fill: #17becf"/>
   </g>
   <g id="patch_10">
    <path d="M 245.460266 306.496904 
L 256.593691 306.496904 
L 256.593691 180.619341 
L 245.460266 180.619341 
z
" clip-path="url(#p2a62cdb8ef)" style="fill: #17becf"/>
   </g>
   <g id="patch_11">
    <path d="M 331.101999 306.496904 
L 342.235425 306.496904 
L 342.235425 188.37489 
L 331.101999 188.37489 
z
" clip-path="url(#p2a62cdb8ef)" style="fill: #17becf"/>
   </g>
   <g id="patch_12">
    <path d="M 416.743733 306.496904 
L 427.877158 306.496904 
L 427.877158 204.13764 
L 416.743733 204.13764 
z
" clip-path="url(#p2a62cdb8ef)" style="fill: #17becf"/>
   </g>
   <g id="patch_13">
    <path d="M 85.310225 306.496904 
L 96.44365 306.496904 
L 96.44365 277.309842 
L 85.310225 277.309842 
z
" clip-path="url(#p2a62cdb8ef)" style="fill: #bcbd22"/>
   </g>
   <g id="patch_14">
    <path d="M 170.951958 306.496904 
L 182.085384 306.496904 
L 182.085384 217.886412 
L 170.951958 217.886412 
z
" clip-path="url(#p2a62cdb8ef)" style="fill: #bcbd22"/>
   </g>
   <g id="patch_15">
    <path d="M 256.593691 306.496904 
L 267.727117 306.496904 
L 267.727117 169.814758 
L 256.593691 169.814758 
z
" clip-path="url(#p2a62cdb8ef)" style="fill: #bcbd22"/>
   </g>
   <g id="patch_16">
    <path d="M 342.235425 306.496904 
L 353.36885 306.496904 
L 353.36885 171.101582 
L 342.235425 171.101582 
z
" clip-path="url(#p2a62cdb8ef)" style="fill: #bcbd22"/>
   </g>
   <g id="patch_17">
    <path d="M 427.877158 306.496904 
L 439.010583 306.496904 
L 439.010583 185.642761 
L 427.877158 185.642761 
z
" clip-path="url(#p2a62cdb8ef)" style="fill: #bcbd22"/>
   </g>
   <g id="patch_18">
    <path d="M 96.44365 306.496904 
L 107.577076 306.496904 
L 107.577076 277.566246 
L 96.44365 277.566246 
z
" clip-path="url(#p2a62cdb8ef)" style="fill: #d62728"/>
   </g>
   <g id="patch_19">
    <path d="M 182.085384 306.496904 
L 193.218809 306.496904 
L 193.218809 256.0751 
L 182.085384 256.0751 
z
" clip-path="url(#p2a62cdb8ef)" style="fill: #d62728"/>
   </g>
   <g id="patch_20">
    <path d="M 267.727117 306.496904 
L 278.860542 306.496904 
L 278.860542 202.440144 
L 267.727117 202.440144 
z
" clip-path="url(#p2a62cdb8ef)" style="fill: #d62728"/>
   </g>
   <g id="patch_21">
    <path d="M 353.36885 306.496904 
L 364.502275 306.496904 
L 364.502275 197.352971 
L 353.36885 197.352971 
z
" clip-path="url(#p2a62cdb8ef)" style="fill: #d62728"/>
   </g>
   <g id="patch_22">
    <path d="M 439.010583 306.496904 
L 450.144009 306.496904 
L 450.144009 206.462503 
L 439.010583 206.462503 
z
" clip-path="url(#p2a62cdb8ef)" style="fill: #d62728"/>
   </g>
   <g id="patch_23">
    <path d="M 107.577076 306.496904 
L 118.710501 306.496904 
L 118.710501 277.534756 
L 107.577076 277.534756 
z
" clip-path="url(#p2a62cdb8ef)" style="fill: #9467bd"/>
   </g>
   <g id="patch_24">
    <path d="M 193.218809 306.496904 
L 204.352234 306.496904 
L 204.352234 198.667118 
L 193.218809 198.667118 
z
" clip-path="url(#p2a62cdb8ef)" style="fill: #9467bd"/>
   </g>
   <g id="patch_25">
    <path d="M 278.860542 306.496904 
L 289.993967 306.496904 
L 289.993967 184.976917 
L 278.860542 184.976917 
z
" clip-path="url(#p2a62cdb8ef)" style="fill: #9467bd"/>
   </g>
   <g id="patch_26">
    <path d="M 364.502275 306.496904 
L 375.635701 306.496904 
L 375.635701 188.336368 
L 364.502275 188.336368 
z
" clip-path="url(#p2a62cdb8ef)" style="fill: #9467bd"/>
   </g>
   <g id="patch_27">
    <path d="M 450.144009 306.496904 
L 461.277434 306.496904 
L 461.277434 204.639482 
L 450.144009 204.639482 
z
" clip-path="url(#p2a62cdb8ef)" style="fill: #9467bd"/>
   </g>
   <g id="patch_28">
    <path d="M 118.710501 306.496904 
L 129.843926 306.496904 
L 129.843926 277.534756 
L 118.710501 277.534756 
z
" clip-path="url(#p2a62cdb8ef)" style="fill: #2ca02c"/>
   </g>
   <g id="patch_29">
    <path d="M 204.352234 306.496904 
L 215.485659 306.496904 
L 215.485659 255.651674 
L 204.352234 255.651674 
z
" clip-path="url(#p2a62cdb8ef)" style="fill: #2ca02c"/>
   </g>
   <g id="patch_30">
    <path d="M 289.993967 306.496904 
L 301.127393 306.496904 
L 301.127393 201.676969 
L 289.993967 201.676969 
z
" clip-path="url(#p2a62cdb8ef)" style="fill: #2ca02c"/>
   </g>
   <g id="patch_31">
    <path d="M 375.635701 306.496904 
L 386.769126 306.496904 
L 386.769126 196.461867 
L 375.635701 196.461867 
z
" clip-path="url(#p2a62cdb8ef)" style="fill: #2ca02c"/>
   </g>
   <g id="patch_32">
    <path d="M 461.277434 306.496904 
L 472.410859 306.496904 
L 472.410859 204.917572 
L 461.277434 204.917572 
z
" clip-path="url(#p2a62cdb8ef)" style="fill: #2ca02c"/>
   </g>
   <g id="matplotlib.axis_1">
    <g id="xtick_1">
     <g id="line2d_1">
      <defs>
       <path id="m7cead4b94f" d="M 0 0 
L 0 3.5 
" style="stroke: #334155; stroke-width: 0.8"/>
      </defs>
      <g>
       <use xlink:href="#m7cead4b94f" x="96.44365" y="306.496904" style="fill: #334155; stroke: #334155; stroke-width: 0.8"/>
      </g>
     </g>
     <g id="text_1">
      <!-- Clean -->
      <g style="fill: #334155" transform="translate(84.805606 324.81313) rotate(-10) scale(0.105 -0.105)">
       <defs>
        <path id="STIXGeneral-Regular-43" d="M 3930 838 
L 4051 723 
Q 3482 -90 2304 -90 
Q 1376 -90 794 480 
Q 179 1082 179 2080 
Q 179 3014 755 3661 
Q 1357 4326 2310 4326 
Q 2720 4326 3072 4230 
Q 3475 4115 3514 4115 
Q 3725 4115 3782 4326 
L 3910 4326 
L 3968 2874 
L 3821 2874 
Q 3718 3334 3488 3584 
Q 3034 4070 2458 4070 
Q 1747 4070 1334 3548 
Q 922 3027 922 2182 
Q 922 1152 1382 653 
Q 1811 192 2522 192 
Q 2944 192 3251 339 
Q 3558 486 3930 838 
z
" transform="scale(0.015625)"/>
        <path id="STIXGeneral-Regular-6c" d="M 1645 0 
L 134 0 
L 134 96 
Q 435 122 531 221 
Q 627 320 627 589 
L 627 3590 
Q 627 3821 569 3910 
Q 512 4000 358 4000 
Q 224 4000 122 3987 
L 122 4090 
Q 730 4237 1133 4371 
L 1165 4346 
L 1165 557 
Q 1165 288 1254 201 
Q 1344 115 1645 96 
L 1645 0 
z
" transform="scale(0.015625)"/>
        <path id="STIXGeneral-Regular-65" d="M 2611 1050 
L 2714 1005 
Q 2330 -64 1376 -64 
Q 813 -64 486 329 
Q 160 723 160 1389 
Q 160 2074 525 2509 
Q 890 2944 1485 2944 
Q 2061 2944 2374 2502 
Q 2560 2246 2592 1773 
L 621 1773 
Q 646 1370 700 1158 
Q 755 947 915 730 
Q 1184 378 1626 378 
Q 1939 378 2153 531 
Q 2368 685 2611 1050 
z
M 634 1978 
L 1939 1978 
Q 1882 2381 1750 2547 
Q 1619 2714 1312 2714 
Q 1043 2714 864 2525 
Q 685 2336 634 1978 
z
" transform="scale(0.015625)"/>
        <path id="STIXGeneral-Regular-61" d="M 2829 422 
L 2829 243 
Q 2586 -64 2253 -64 
Q 1888 -64 1843 403 
L 1837 403 
Q 1427 -64 909 -64 
Q 608 -64 422 112 
Q 237 288 237 602 
Q 237 1050 685 1350 
Q 992 1555 1837 1869 
L 1837 2214 
Q 1837 2502 1699 2646 
Q 1562 2790 1338 2790 
Q 1146 2790 1018 2697 
Q 890 2605 890 2477 
Q 890 2419 909 2348 
Q 928 2278 928 2208 
Q 928 2112 841 2029 
Q 755 1946 634 1946 
Q 525 1946 441 2029 
Q 358 2112 358 2240 
Q 358 2547 685 2752 
Q 986 2944 1421 2944 
Q 1939 2944 2176 2656 
Q 2291 2522 2323 2384 
Q 2355 2246 2355 1946 
L 2355 723 
Q 2355 301 2554 301 
Q 2682 301 2829 422 
z
M 1837 813 
L 1837 1715 
Q 1248 1510 1018 1293 
Q 800 1094 800 800 
Q 800 557 921 432 
Q 1043 307 1242 307 
Q 1453 307 1613 410 
Q 1747 506 1792 589 
Q 1837 672 1837 813 
z
" transform="scale(0.015625)"/>
        <path id="STIXGeneral-Regular-6e" d="M 3104 0 
L 1773 0 
L 1779 96 
Q 2016 115 2096 233 
Q 2176 352 2176 672 
L 2176 1946 
Q 2176 2592 1709 2592 
Q 1549 2592 1408 2515 
Q 1267 2438 1050 2227 
L 1050 461 
Q 1050 269 1136 192 
Q 1222 115 1466 96 
L 1466 0 
L 115 0 
L 115 96 
Q 358 115 435 214 
Q 512 314 512 602 
L 512 2157 
Q 512 2394 467 2483 
Q 422 2573 288 2573 
Q 160 2573 102 2547 
L 102 2656 
Q 550 2784 979 2944 
L 1030 2925 
L 1030 2426 
L 1037 2426 
Q 1491 2944 1958 2944 
Q 2323 2944 2518 2688 
Q 2714 2432 2714 1958 
L 2714 544 
Q 2714 288 2790 205 
Q 2867 122 3104 96 
L 3104 0 
z
" transform="scale(0.015625)"/>
       </defs>
       <use xlink:href="#STIXGeneral-Regular-43"/>
       <use xlink:href="#STIXGeneral-Regular-6c" transform="translate(66.699997 0)"/>
       <use xlink:href="#STIXGeneral-Regular-65" transform="translate(94.499985 0)"/>
       <use xlink:href="#STIXGeneral-Regular-61" transform="translate(138.899979 0)"/>
       <use xlink:href="#STIXGeneral-Regular-6e" transform="translate(183.299973 0)"/>
      </g>
     </g>
    </g>
    <g id="xtick_2">
     <g id="line2d_2">
      <g>
       <use xlink:href="#m7cead4b94f" x="182.085384" y="306.496904" style="fill: #334155; stroke: #334155; stroke-width: 0.8"/>
      </g>
     </g>
     <g id="text_2">
      <!-- Outlier -->
      <g style="fill: #334155" transform="translate(167.863026 325.724498) rotate(-10) scale(0.105 -0.105)">
       <defs>
        <path id="STIXGeneral-Regular-4f" d="M 4403 2118 
Q 4403 1133 3820 521 
Q 3238 -90 2310 -90 
Q 1376 -90 797 524 
Q 218 1139 218 2138 
Q 218 3110 797 3718 
Q 1376 4326 2310 4326 
Q 3245 4326 3824 3702 
Q 4403 3078 4403 2118 
z
M 3674 2157 
Q 3674 2701 3520 3133 
Q 3366 3565 3091 3795 
Q 2733 4096 2304 4096 
Q 1760 4096 1389 3667 
Q 1184 3437 1065 3011 
Q 947 2586 947 2125 
Q 947 960 1523 429 
Q 1837 141 2317 141 
Q 2816 141 3142 448 
Q 3674 960 3674 2157 
z
" transform="scale(0.015625)"/>
        <path id="STIXGeneral-Regular-75" d="M 3072 320 
L 3072 230 
Q 2573 96 2195 -58 
L 2163 -38 
L 2163 486 
L 2150 486 
Q 1747 -64 1235 -64 
Q 870 -64 662 160 
Q 454 384 454 755 
L 454 2362 
Q 454 2598 371 2688 
Q 288 2778 58 2790 
L 58 2880 
L 992 2880 
L 992 813 
Q 992 595 1123 451 
Q 1254 307 1446 307 
Q 1760 307 1984 506 
Q 2067 582 2099 649 
Q 2131 717 2131 877 
L 2131 2355 
Q 2131 2605 2041 2678 
Q 1952 2752 1658 2771 
L 1658 2880 
L 2669 2880 
L 2669 685 
Q 2669 461 2742 390 
Q 2816 320 3034 320 
L 3072 320 
z
" transform="scale(0.015625)"/>
        <path id="STIXGeneral-Regular-74" d="M 1702 493 
L 1786 422 
Q 1478 -64 1011 -64 
Q 448 -64 448 749 
L 448 2675 
L 109 2675 
Q 83 2694 83 2720 
Q 83 2771 192 2842 
Q 435 2982 813 3526 
Q 826 3546 874 3606 
Q 922 3667 941 3706 
Q 986 3706 986 3622 
L 986 2880 
L 1632 2880 
L 1632 2675 
L 986 2675 
L 986 845 
Q 986 538 1062 403 
Q 1139 269 1318 269 
Q 1510 269 1702 493 
z
" transform="scale(0.015625)"/>
        <path id="STIXGeneral-Regular-69" d="M 1152 4045 
Q 1152 3904 1056 3811 
Q 960 3718 819 3718 
Q 685 3718 592 3811 
Q 499 3904 499 4045 
Q 499 4179 595 4275 
Q 691 4371 826 4371 
Q 966 4371 1059 4275 
Q 1152 4179 1152 4045 
z
M 1619 0 
L 102 0 
L 102 96 
Q 435 115 521 211 
Q 608 307 608 666 
L 608 2118 
Q 608 2342 563 2432 
Q 518 2522 397 2522 
Q 243 2522 128 2490 
L 128 2592 
L 1120 2944 
L 1146 2918 
L 1146 672 
Q 1146 314 1226 218 
Q 1306 122 1619 96 
L 1619 0 
z
" transform="scale(0.015625)"/>
        <path id="STIXGeneral-Regular-72" d="M 1024 2931 
L 1024 2342 
Q 1267 2688 1430 2816 
Q 1594 2944 1792 2944 
Q 1958 2944 2051 2854 
Q 2144 2765 2144 2605 
Q 2144 2470 2077 2393 
Q 2010 2317 1894 2317 
Q 1773 2317 1638 2445 
Q 1536 2541 1472 2541 
Q 1338 2541 1181 2355 
Q 1024 2170 1024 2016 
L 1024 576 
Q 1024 301 1133 205 
Q 1242 109 1568 96 
L 1568 0 
L 32 0 
L 32 96 
Q 339 154 412 224 
Q 486 294 486 538 
L 486 2138 
Q 486 2349 438 2435 
Q 390 2522 269 2522 
Q 166 2522 45 2496 
L 45 2598 
Q 448 2726 992 2944 
L 1024 2931 
z
" transform="scale(0.015625)"/>
       </defs>
       <use xlink:href="#STIXGeneral-Regular-4f"/>
       <use xlink:href="#STIXGeneral-Regular-75" transform="translate(72.199982 0)"/>
       <use xlink:href="#STIXGeneral-Regular-74" transform="translate(122.199966 0)"/>
       <use xlink:href="#STIXGeneral-Regular-6c" transform="translate(149.999954 0)"/>
       <use xlink:href="#STIXGeneral-Regular-69" transform="translate(177.799942 0)"/>
       <use xlink:href="#STIXGeneral-Regular-65" transform="translate(205.59993 0)"/>
       <use xlink:href="#STIXGeneral-Regular-72" transform="translate(249.999924 0)"/>
      </g>
     </g>
    </g>
    <g id="xtick_3">
     <g id="line2d_3">
      <g>
       <use xlink:href="#m7cead4b94f" x="267.727117" y="306.496904" style="fill: #334155; stroke: #334155; stroke-width: 0.8"/>
      </g>
     </g>
     <g id="text_3">
      <!-- Mixed -->
      <g style="fill: #334155" transform="translate(254.651907 325.319952) rotate(-10) scale(0.105 -0.105)">
       <defs>
        <path id="STIXGeneral-Regular-4d" d="M 5530 0 
L 3738 0 
L 3738 122 
Q 4115 147 4214 265 
Q 4314 384 4314 787 
L 4314 3661 
L 2682 0 
L 2592 0 
L 979 3514 
L 979 966 
Q 979 448 1088 294 
Q 1197 141 1574 122 
L 1574 0 
L 77 0 
L 77 122 
Q 358 141 480 205 
Q 602 269 650 432 
Q 698 595 698 966 
L 698 3514 
Q 698 3878 589 3984 
Q 480 4090 90 4115 
L 90 4237 
L 1357 4237 
L 2835 1024 
L 4250 4237 
L 5523 4237 
L 5523 4115 
Q 5178 4109 5072 3993 
Q 4966 3878 4966 3520 
L 4966 717 
Q 4966 378 5072 262 
Q 5178 147 5530 122 
L 5530 0 
z
" transform="scale(0.015625)"/>
        <path id="STIXGeneral-Regular-78" d="M 3066 0 
L 1779 0 
L 1779 96 
Q 1939 109 1987 137 
Q 2035 166 2035 250 
Q 2035 307 1997 365 
L 1414 1261 
L 909 474 
Q 781 275 781 211 
Q 781 96 1037 96 
L 1037 0 
L 109 0 
L 109 96 
Q 269 109 355 169 
Q 442 230 576 422 
L 1306 1478 
L 704 2400 
Q 557 2624 454 2704 
Q 352 2784 211 2784 
L 154 2784 
L 154 2880 
L 1478 2880 
L 1478 2784 
Q 1203 2778 1203 2643 
Q 1203 2509 1498 2074 
Q 1581 1958 1587 1946 
Q 1619 1990 1779 2227 
Q 1811 2285 1856 2349 
Q 1901 2413 1923 2451 
Q 1946 2490 1971 2528 
Q 1997 2566 2006 2595 
Q 2016 2624 2016 2643 
Q 2016 2765 1760 2784 
L 1760 2880 
L 2771 2880 
L 2771 2784 
Q 2445 2771 2253 2502 
L 1722 1734 
L 2541 480 
Q 2790 96 3066 96 
L 3066 0 
z
" transform="scale(0.015625)"/>
        <path id="STIXGeneral-Regular-64" d="M 3142 269 
L 2202 -64 
L 2176 -45 
L 2176 365 
Q 1869 -64 1357 -64 
Q 826 -64 499 317 
Q 173 698 173 1312 
Q 173 1990 563 2467 
Q 954 2944 1504 2944 
Q 1850 2944 2176 2669 
L 2176 3667 
Q 2176 3866 2118 3930 
Q 2061 3994 1882 3994 
Q 1792 3994 1741 3987 
L 1741 4090 
Q 2323 4243 2682 4371 
L 2714 4358 
L 2714 730 
Q 2714 506 2768 435 
Q 2822 365 2995 365 
Q 3034 365 3142 371 
L 3142 269 
z
M 2176 653 
L 2176 2125 
Q 2176 2381 1981 2573 
Q 1786 2765 1523 2765 
Q 1158 2765 940 2438 
Q 723 2112 723 1568 
Q 723 979 963 624 
Q 1203 269 1606 269 
Q 1907 269 2080 474 
Q 2176 582 2176 653 
z
" transform="scale(0.015625)"/>
       </defs>
       <use xlink:href="#STIXGeneral-Regular-4d"/>
       <use xlink:href="#STIXGeneral-Regular-69" transform="translate(88.899994 0)"/>
       <use xlink:href="#STIXGeneral-Regular-78" transform="translate(116.699982 0)"/>
       <use xlink:href="#STIXGeneral-Regular-65" transform="translate(166.699966 0)"/>
       <use xlink:href="#STIXGeneral-Regular-64" transform="translate(211.09996 0)"/>
      </g>
     </g>
    </g>
    <g id="xtick_4">
     <g id="line2d_4">
      <g>
       <use xlink:href="#m7cead4b94f" x="353.36885" y="306.496904" style="fill: #334155; stroke: #334155; stroke-width: 0.8"/>
      </g>
     </g>
     <g id="text_4">
      <!-- Pose Noise -->
      <g style="fill: #334155" transform="translate(330.665683 328.715289) rotate(-10) scale(0.105 -0.105)">
       <defs>
        <path id="STIXGeneral-Regular-50" d="M 102 4237 
L 1760 4237 
Q 2669 4237 3149 3834 
Q 3469 3565 3469 3072 
Q 3469 2560 3104 2234 
Q 2835 1990 2553 1916 
Q 2272 1843 1734 1843 
Q 1549 1843 1293 1862 
L 1293 717 
Q 1293 352 1398 246 
Q 1504 141 1894 122 
L 1894 0 
L 102 0 
L 102 122 
Q 474 147 557 256 
Q 640 365 640 781 
L 640 3526 
Q 640 3885 547 3987 
Q 454 4090 102 4115 
L 102 4237 
z
M 1293 3770 
L 1293 2118 
Q 1510 2099 1683 2099 
Q 2202 2099 2486 2352 
Q 2771 2605 2771 3040 
Q 2771 3558 2476 3779 
Q 2182 4000 1517 4000 
Q 1382 4000 1337 3952 
Q 1293 3904 1293 3770 
z
" transform="scale(0.015625)"/>
        <path id="STIXGeneral-Regular-6f" d="M 3008 1478 
Q 3008 806 2608 371 
Q 2208 -64 1568 -64 
Q 979 -64 582 368 
Q 186 800 186 1459 
Q 186 2125 582 2534 
Q 979 2944 1626 2944 
Q 2221 2944 2614 2537 
Q 3008 2131 3008 1478 
z
M 2432 1306 
Q 2432 2035 2112 2445 
Q 1856 2765 1504 2765 
Q 1171 2765 966 2493 
Q 762 2221 762 1747 
Q 762 928 1101 435 
Q 1318 115 1677 115 
Q 2029 115 2230 432 
Q 2432 749 2432 1306 
z
" transform="scale(0.015625)"/>
        <path id="STIXGeneral-Regular-73" d="M 998 1926 
L 1664 1523 
Q 1984 1331 2105 1164 
Q 2227 998 2227 736 
Q 2227 416 1961 176 
Q 1696 -64 1331 -64 
Q 1030 -64 864 -6 
Q 691 51 570 51 
Q 461 51 416 -26 
L 333 -26 
L 333 979 
L 435 979 
Q 538 512 730 294 
Q 922 77 1248 77 
Q 1485 77 1632 211 
Q 1779 346 1779 550 
Q 1779 845 1440 1030 
L 1094 1222 
Q 326 1651 326 2150 
Q 326 2522 566 2730 
Q 806 2938 1210 2938 
Q 1491 2938 1638 2867 
Q 1754 2816 1818 2816 
Q 1862 2816 1920 2880 
L 1990 2880 
L 2022 2010 
L 1926 2010 
Q 1818 2445 1654 2621 
Q 1491 2797 1203 2797 
Q 986 2797 854 2688 
Q 723 2579 723 2362 
Q 723 2253 796 2128 
Q 870 2003 998 1926 
z
" transform="scale(0.015625)"/>
        <path id="STIXGeneral-Regular-20" transform="scale(0.015625)"/>
        <path id="STIXGeneral-Regular-4e" d="M 4525 4237 
L 4525 4115 
Q 4198 4083 4102 4000 
Q 4000 3910 3958 3756 
Q 3917 3603 3917 3245 
L 3917 -70 
L 3802 -70 
L 979 3443 
L 979 960 
Q 979 474 1088 323 
Q 1197 173 1574 122 
L 1574 0 
L 77 0 
L 77 122 
Q 474 166 586 310 
Q 698 454 698 960 
L 698 3776 
Q 531 3981 416 4048 
Q 301 4115 77 4115 
L 77 4237 
L 1165 4237 
L 3635 1146 
L 3635 3322 
Q 3635 3808 3514 3949 
Q 3437 4032 3344 4061 
Q 3251 4090 3008 4115 
L 3008 4237 
L 4525 4237 
z
" transform="scale(0.015625)"/>
       </defs>
       <use xlink:href="#STIXGeneral-Regular-50"/>
       <use xlink:href="#STIXGeneral-Regular-6f" transform="translate(55.699997 0)"/>
       <use xlink:href="#STIXGeneral-Regular-73" transform="translate(105.699982 0)"/>
       <use xlink:href="#STIXGeneral-Regular-65" transform="translate(144.599976 0)"/>
       <use xlink:href="#STIXGeneral-Regular-20" transform="translate(188.999969 0)"/>
       <use xlink:href="#STIXGeneral-Regular-4e" transform="translate(213.999954 0)"/>
       <use xlink:href="#STIXGeneral-Regular-6f" transform="translate(286.199936 0)"/>
       <use xlink:href="#STIXGeneral-Regular-69" transform="translate(336.199921 0)"/>
       <use xlink:href="#STIXGeneral-Regular-73" transform="translate(363.999908 0)"/>
       <use xlink:href="#STIXGeneral-Regular-65" transform="translate(402.899902 0)"/>
      </g>
     </g>
    </g>
    <g id="xtick_5">
     <g id="line2d_5">
      <g>
       <use xlink:href="#m7cead4b94f" x="439.010583" y="306.496904" style="fill: #334155; stroke: #334155; stroke-width: 0.8"/>
      </g>
     </g>
     <g id="text_5">
      <!-- Het. Bias -->
      <g style="fill: #334155" transform="translate(420.190751 327.345816) rotate(-10) scale(0.105 -0.105)">
       <defs>
        <path id="STIXGeneral-Regular-48" d="M 4499 0 
L 2714 0 
L 2714 122 
Q 3085 147 3181 265 
Q 3277 384 3277 794 
L 3277 2016 
L 1338 2016 
L 1338 723 
Q 1338 371 1440 256 
Q 1542 141 1894 122 
L 1901 0 
L 115 0 
L 115 122 
Q 493 147 589 259 
Q 685 371 685 781 
L 685 3507 
Q 685 3878 585 3980 
Q 486 4083 115 4115 
L 115 4237 
L 1907 4237 
L 1907 4115 
Q 1549 4083 1443 3977 
Q 1338 3872 1338 3507 
L 1338 2298 
L 3277 2298 
L 3277 3507 
Q 3277 3878 3177 3980 
Q 3078 4083 2707 4115 
L 2707 4237 
L 4499 4237 
L 4499 4115 
Q 4141 4083 4035 3977 
Q 3930 3872 3930 3507 
L 3930 710 
Q 3930 371 4035 259 
Q 4141 147 4499 122 
L 4499 0 
z
" transform="scale(0.015625)"/>
        <path id="STIXGeneral-Regular-2e" d="M 1158 275 
Q 1158 134 1052 32 
Q 947 -70 800 -70 
Q 653 -70 550 32 
Q 448 134 448 281 
Q 448 429 553 534 
Q 659 640 806 640 
Q 947 640 1052 531 
Q 1158 422 1158 275 
z
" transform="scale(0.015625)"/>
        <path id="STIXGeneral-Regular-42" d="M 2701 2234 
L 2701 2227 
Q 3181 2150 3482 1875 
Q 3795 1594 3795 1139 
Q 3795 608 3379 304 
Q 2963 0 2266 0 
L 109 0 
L 109 122 
Q 486 134 604 246 
Q 723 358 723 723 
L 723 3520 
Q 723 3891 614 3990 
Q 506 4090 109 4115 
L 109 4237 
L 1901 4237 
Q 2726 4237 3152 3958 
Q 3578 3680 3578 3168 
Q 3578 2733 3315 2502 
Q 3130 2342 2701 2234 
z
M 1376 2342 
L 1965 2342 
Q 2925 2342 2925 3136 
Q 2925 3546 2640 3773 
Q 2355 4000 1792 4000 
L 1530 4000 
Q 1376 4000 1376 3795 
L 1376 2342 
z
M 1376 2086 
L 1376 525 
Q 1376 365 1462 301 
Q 1549 237 1773 237 
Q 2208 237 2413 285 
Q 2618 333 2816 512 
Q 3059 723 3059 1146 
Q 3059 1632 2758 1830 
Q 2688 1882 2617 1917 
Q 2547 1952 2492 1974 
Q 2438 1997 2348 2016 
Q 2259 2035 2211 2044 
Q 2163 2054 2041 2060 
Q 1920 2067 1862 2070 
Q 1805 2074 1635 2080 
Q 1466 2086 1376 2086 
z
" transform="scale(0.015625)"/>
       </defs>
       <use xlink:href="#STIXGeneral-Regular-48"/>
       <use xlink:href="#STIXGeneral-Regular-65" transform="translate(72.199982 0)"/>
       <use xlink:href="#STIXGeneral-Regular-74" transform="translate(116.599976 0)"/>
       <use xlink:href="#STIXGeneral-Regular-2e" transform="translate(144.399963 0)"/>
       <use xlink:href="#STIXGeneral-Regular-20" transform="translate(169.399948 0)"/>
       <use xlink:href="#STIXGeneral-Regular-42" transform="translate(194.399933 0)"/>
       <use xlink:href="#STIXGeneral-Regular-69" transform="translate(261.09993 0)"/>
       <use xlink:href="#STIXGeneral-Regular-61" transform="translate(288.899918 0)"/>
       <use xlink:href="#STIXGeneral-Regular-73" transform="translate(333.299911 0)"/>
      </g>
     </g>
    </g>
   </g>
   <g id="matplotlib.axis_2">
    <g id="ytick_1">
     <g id="line2d_6">
      <path d="M 42.575 306.496904 
L 492.879234 306.496904 
" clip-path="url(#p2a62cdb8ef)" style="fill: none; stroke-dasharray: 0.7,1.155; stroke-dashoffset: 0; stroke: #cbd5e1; stroke-opacity: 0.35; stroke-width: 0.7"/>
     </g>
     <g id="line2d_7">
      <defs>
       <path id="m633c0d8c7e" d="M 0 0 
L -3.5 0 
" style="stroke: #334155; stroke-width: 0.8"/>
      </defs>
      <g>
       <use xlink:href="#m633c0d8c7e" x="42.575" y="306.496904" style="fill: #334155; stroke: #334155; stroke-width: 0.8"/>
      </g>
     </g>
     <g id="text_6">
      <!-- 0.0 -->
      <g style="fill: #334155" transform="translate(22.45 310.08249) scale(0.105 -0.105)">
       <defs>
        <path id="STIXGeneral-Regular-30" d="M 3046 2112 
Q 3046 1683 2963 1302 
Q 2880 922 2717 602 
Q 2554 282 2266 96 
Q 1978 -90 1600 -90 
Q 1210 -90 915 108 
Q 621 307 461 640 
Q 301 973 227 1350 
Q 154 1728 154 2150 
Q 154 2746 301 3222 
Q 448 3699 790 4012 
Q 1133 4326 1626 4326 
Q 2253 4326 2649 3712 
Q 3046 3098 3046 2112 
z
M 2432 2080 
Q 2432 3091 2217 3625 
Q 2003 4160 1587 4160 
Q 1190 4160 979 3622 
Q 768 3085 768 2106 
Q 768 1120 979 598 
Q 1190 77 1600 77 
Q 2003 77 2217 598 
Q 2432 1120 2432 2080 
z
" transform="scale(0.015625)"/>
       </defs>
       <use xlink:href="#STIXGeneral-Regular-30"/>
       <use xlink:href="#STIXGeneral-Regular-2e" transform="translate(49.999985 0)"/>
       <use xlink:href="#STIXGeneral-Regular-30" transform="translate(74.999969 0)"/>
      </g>
     </g>
    </g>
    <g id="ytick_2">
     <g id="line2d_8">
      <path d="M 42.575 258.261981 
L 492.879234 258.261981 
" clip-path="url(#p2a62cdb8ef)" style="fill: none; stroke-dasharray: 0.7,1.155; stroke-dashoffset: 0; stroke: #cbd5e1; stroke-opacity: 0.35; stroke-width: 0.7"/>
     </g>
     <g id="line2d_9">
      <g>
       <use xlink:href="#m633c0d8c7e" x="42.575" y="258.261981" style="fill: #334155; stroke: #334155; stroke-width: 0.8"/>
      </g>
     </g>
     <g id="text_7">
      <!-- 0.2 -->
      <g style="fill: #334155" transform="translate(22.45 261.847567) scale(0.105 -0.105)">
       <defs>
        <path id="STIXGeneral-Regular-32" d="M 3034 877 
L 2688 0 
L 186 0 
L 186 77 
L 1325 1286 
Q 1773 1754 1965 2144 
Q 2157 2534 2157 2950 
Q 2157 3379 1920 3616 
Q 1683 3853 1267 3853 
Q 922 3853 720 3673 
Q 518 3494 326 3021 
L 192 3053 
Q 301 3648 630 3987 
Q 960 4326 1523 4326 
Q 2054 4326 2380 4006 
Q 2707 3686 2707 3200 
Q 2707 2477 1888 1613 
L 832 486 
L 2330 486 
Q 2541 486 2665 569 
Q 2790 653 2944 915 
L 3034 877 
z
" transform="scale(0.015625)"/>
       </defs>
       <use xlink:href="#STIXGeneral-Regular-30"/>
       <use xlink:href="#STIXGeneral-Regular-2e" transform="translate(49.999985 0)"/>
       <use xlink:href="#STIXGeneral-Regular-32" transform="translate(74.999969 0)"/>
      </g>
     </g>
    </g>
    <g id="ytick_3">
     <g id="line2d_10">
      <path d="M 42.575 210.027059 
L 492.879234 210.027059 
" clip-path="url(#p2a62cdb8ef)" style="fill: none; stroke-dasharray: 0.7,1.155; stroke-dashoffset: 0; stroke: #cbd5e1; stroke-opacity: 0.35; stroke-width: 0.7"/>
     </g>
     <g id="line2d_11">
      <g>
       <use xlink:href="#m633c0d8c7e" x="42.575" y="210.027059" style="fill: #334155; stroke: #334155; stroke-width: 0.8"/>
      </g>
     </g>
     <g id="text_8">
      <!-- 0.4 -->
      <g style="fill: #334155" transform="translate(22.45 213.612645) scale(0.105 -0.105)">
       <defs>
        <path id="STIXGeneral-Regular-34" d="M 3027 1069 
L 2368 1069 
L 2368 0 
L 1869 0 
L 1869 1069 
L 77 1069 
L 77 1478 
L 2086 4326 
L 2368 4326 
L 2368 1478 
L 3027 1478 
L 3027 1069 
z
M 1869 1478 
L 1869 3674 
L 333 1478 
L 1869 1478 
z
" transform="scale(0.015625)"/>
       </defs>
       <use xlink:href="#STIXGeneral-Regular-30"/>
       <use xlink:href="#STIXGeneral-Regular-2e" transform="translate(49.999985 0)"/>
       <use xlink:href="#STIXGeneral-Regular-34" transform="translate(74.999969 0)"/>
      </g>
     </g>
    </g>
    <g id="ytick_4">
     <g id="line2d_12">
      <path d="M 42.575 161.792136 
L 492.879234 161.792136 
" clip-path="url(#p2a62cdb8ef)" style="fill: none; stroke-dasharray: 0.7,1.155; stroke-dashoffset: 0; stroke: #cbd5e1; stroke-opacity: 0.35; stroke-width: 0.7"/>
     </g>
     <g id="line2d_13">
      <g>
       <use xlink:href="#m633c0d8c7e" x="42.575" y="161.792136" style="fill: #334155; stroke: #334155; stroke-width: 0.8"/>
      </g>
     </g>
     <g id="text_9">
      <!-- 0.6 -->
      <g style="fill: #334155" transform="translate(22.45 165.377722) scale(0.105 -0.105)">
       <defs>
        <path id="STIXGeneral-Regular-36" d="M 2854 4378 
L 2867 4275 
Q 2112 4154 1606 3664 
Q 1101 3174 973 2451 
Q 1344 2739 1786 2739 
Q 2349 2739 2672 2380 
Q 2995 2022 2995 1402 
Q 2995 774 2669 378 
Q 2291 -90 1651 -90 
Q 870 -90 518 557 
Q 218 1107 218 1786 
Q 218 2835 915 3552 
Q 1312 3962 1731 4131 
Q 2150 4301 2854 4378 
z
M 2419 1203 
Q 2419 2445 1555 2445 
Q 1235 2445 1024 2275 
Q 813 2106 813 1702 
Q 813 954 1046 522 
Q 1280 90 1722 90 
Q 2061 90 2240 394 
Q 2419 698 2419 1203 
z
" transform="scale(0.015625)"/>
       </defs>
       <use xlink:href="#STIXGeneral-Regular-30"/>
       <use xlink:href="#STIXGeneral-Regular-2e" transform="translate(49.999985 0)"/>
       <use xlink:href="#STIXGeneral-Regular-36" transform="translate(74.999969 0)"/>
      </g>
     </g>
    </g>
    <g id="ytick_5">
     <g id="line2d_14">
      <path d="M 42.575 113.557214 
L 492.879234 113.557214 
" clip-path="url(#p2a62cdb8ef)" style="fill: none; stroke-dasharray: 0.7,1.155; stroke-dashoffset: 0; stroke: #cbd5e1; stroke-opacity: 0.35; stroke-width: 0.7"/>
     </g>
     <g id="line2d_15">
      <g>
       <use xlink:href="#m633c0d8c7e" x="42.575" y="113.557214" style="fill: #334155; stroke: #334155; stroke-width: 0.8"/>
      </g>
     </g>
     <g id="text_10">
      <!-- 0.8 -->
      <g style="fill: #334155" transform="translate(22.45 117.1428) scale(0.105 -0.105)">
       <defs>
        <path id="STIXGeneral-Regular-38" d="M 2848 992 
Q 2848 499 2505 204 
Q 2163 -90 1587 -90 
Q 1050 -90 704 204 
Q 358 499 358 954 
Q 358 1293 524 1533 
Q 691 1773 1190 2125 
Q 710 2522 553 2765 
Q 397 3008 397 3328 
Q 397 3782 745 4054 
Q 1094 4326 1638 4326 
Q 2106 4326 2410 4060 
Q 2714 3795 2714 3411 
Q 2714 3059 2531 2848 
Q 2349 2637 1856 2374 
Q 2432 1990 2640 1689 
Q 2848 1389 2848 992 
z
M 2272 3411 
Q 2272 3744 2086 3945 
Q 1901 4147 1574 4147 
Q 1248 4147 1059 3977 
Q 870 3808 870 3513 
Q 870 3219 1059 2979 
Q 1248 2739 1670 2490 
Q 1997 2682 2134 2896 
Q 2272 3110 2272 3411 
z
M 1734 1741 
L 1357 1997 
Q 1075 1766 960 1545 
Q 845 1325 845 1011 
Q 845 576 1065 333 
Q 1286 90 1658 90 
Q 1971 90 2166 285 
Q 2362 480 2362 794 
Q 2362 1082 2214 1299 
Q 2067 1517 1734 1741 
z
" transform="scale(0.015625)"/>
       </defs>
       <use xlink:href="#STIXGeneral-Regular-30"/>
       <use xlink:href="#STIXGeneral-Regular-2e" transform="translate(49.999985 0)"/>
       <use xlink:href="#STIXGeneral-Regular-38" transform="translate(74.999969 0)"/>
      </g>
     </g>
    </g>
    <g id="ytick_6">
     <g id="line2d_16">
      <path d="M 42.575 65.322291 
L 492.879234 65.322291 
" clip-path="url(#p2a62cdb8ef)" style="fill: none; stroke-dasharray: 0.7,1.155; stroke-dashoffset: 0; stroke: #cbd5e1; stroke-opacity: 0.35; stroke-width: 0.7"/>
     </g>
     <g id="line2d_17">
      <g>
       <use xlink:href="#m633c0d8c7e" x="42.575" y="65.322291" style="fill: #334155; stroke: #334155; stroke-width: 0.8"/>
      </g>
     </g>
     <g id="text_11">
      <!-- 1.0 -->
      <g style="fill: #334155" transform="translate(22.45 68.907877) scale(0.105 -0.105)">
       <defs>
        <path id="STIXGeneral-Regular-31" d="M 2522 0 
L 755 0 
L 755 96 
Q 1107 115 1235 227 
Q 1363 339 1363 608 
L 1363 3482 
Q 1363 3795 1171 3795 
Q 1082 3795 883 3718 
L 710 3654 
L 710 3744 
L 1856 4326 
L 1914 4307 
L 1914 486 
Q 1914 275 2042 185 
Q 2170 96 2522 96 
L 2522 0 
z
" transform="scale(0.015625)"/>
       </defs>
       <use xlink:href="#STIXGeneral-Regular-31"/>
       <use xlink:href="#STIXGeneral-Regular-2e" transform="translate(49.999985 0)"/>
       <use xlink:href="#STIXGeneral-Regular-30" transform="translate(74.999969 0)"/>
      </g>
     </g>
    </g>
    <g id="text_12">
     <!-- Median Localization Error -->
     <g style="fill: #0f172a" transform="translate(15.737109 231.508139) rotate(-90) scale(0.125 -0.125)">
      <defs>
       <path id="STIXGeneral-Regular-4c" d="M 3827 1114 
L 3520 0 
L 77 0 
L 77 122 
Q 429 141 531 256 
Q 634 371 634 736 
L 634 3494 
Q 634 3872 541 3981 
Q 448 4090 77 4115 
L 77 4237 
L 1888 4237 
L 1888 4115 
Q 1498 4090 1392 3984 
Q 1286 3878 1286 3507 
L 1286 538 
Q 1286 358 1398 304 
Q 1510 250 1862 250 
L 2310 250 
Q 3085 250 3392 640 
Q 3520 813 3661 1114 
L 3827 1114 
z
" transform="scale(0.015625)"/>
       <path id="STIXGeneral-Regular-63" d="M 2547 998 
L 2637 941 
Q 2362 403 2112 205 
Q 1786 -64 1376 -64 
Q 845 -64 502 336 
Q 160 736 160 1357 
Q 160 2170 698 2618 
Q 1094 2944 1562 2944 
Q 1965 2944 2256 2749 
Q 2547 2554 2547 2285 
Q 2547 2176 2457 2096 
Q 2368 2016 2246 2016 
Q 2022 2016 1939 2310 
L 1901 2451 
Q 1850 2630 1773 2694 
Q 1696 2758 1523 2758 
Q 1133 2758 893 2451 
Q 653 2144 653 1645 
Q 653 1094 928 745 
Q 1203 397 1645 397 
Q 1920 397 2118 528 
Q 2317 659 2547 998 
z
" transform="scale(0.015625)"/>
       <path id="STIXGeneral-Regular-7a" d="M 2675 870 
L 2579 0 
L 173 0 
L 173 96 
L 1875 2688 
L 1011 2688 
Q 710 2688 604 2582 
Q 499 2477 454 2125 
L 339 2125 
L 365 2880 
L 2579 2880 
L 2579 2784 
L 858 192 
L 1709 192 
Q 2246 192 2387 365 
Q 2477 474 2560 896 
L 2675 870 
z
" transform="scale(0.015625)"/>
       <path id="STIXGeneral-Regular-45" d="M 3821 1082 
L 3526 0 
L 77 0 
L 77 122 
Q 442 147 538 252 
Q 634 358 634 730 
L 634 3520 
Q 634 3878 534 3987 
Q 435 4096 77 4115 
L 77 4237 
L 3469 4237 
L 3494 3322 
L 3334 3322 
Q 3264 3750 3085 3872 
Q 2906 3994 2349 3994 
L 1510 3994 
Q 1370 3994 1328 3952 
Q 1286 3910 1286 3763 
L 1286 2355 
L 2253 2355 
Q 2656 2355 2787 2470 
Q 2918 2586 2976 2970 
L 3123 2970 
L 3123 1472 
L 2976 1472 
Q 2918 1875 2790 1984 
Q 2662 2093 2253 2093 
L 1286 2093 
L 1286 538 
Q 1286 346 1420 291 
Q 1555 237 1933 237 
L 2163 237 
Q 2848 237 3136 403 
Q 3424 570 3642 1082 
L 3821 1082 
z
" transform="scale(0.015625)"/>
      </defs>
      <use xlink:href="#STIXGeneral-Regular-4d"/>
      <use xlink:href="#STIXGeneral-Regular-65" transform="translate(88.899994 0)"/>
      <use xlink:href="#STIXGeneral-Regular-64" transform="translate(133.299988 0)"/>
      <use xlink:href="#STIXGeneral-Regular-69" transform="translate(183.299973 0)"/>
      <use xlink:href="#STIXGeneral-Regular-61" transform="translate(211.09996 0)"/>
      <use xlink:href="#STIXGeneral-Regular-6e" transform="translate(255.499954 0)"/>
      <use xlink:href="#STIXGeneral-Regular-20" transform="translate(305.499939 0)"/>
      <use xlink:href="#STIXGeneral-Regular-4c" transform="translate(330.499924 0)"/>
      <use xlink:href="#STIXGeneral-Regular-6f" transform="translate(391.599915 0)"/>
      <use xlink:href="#STIXGeneral-Regular-63" transform="translate(441.599899 0)"/>
      <use xlink:href="#STIXGeneral-Regular-61" transform="translate(485.999893 0)"/>
      <use xlink:href="#STIXGeneral-Regular-6c" transform="translate(530.399887 0)"/>
      <use xlink:href="#STIXGeneral-Regular-69" transform="translate(558.199875 0)"/>
      <use xlink:href="#STIXGeneral-Regular-7a" transform="translate(585.999863 0)"/>
      <use xlink:href="#STIXGeneral-Regular-61" transform="translate(630.399857 0)"/>
      <use xlink:href="#STIXGeneral-Regular-74" transform="translate(674.79985 0)"/>
      <use xlink:href="#STIXGeneral-Regular-69" transform="translate(702.599838 0)"/>
      <use xlink:href="#STIXGeneral-Regular-6f" transform="translate(730.399826 0)"/>
      <use xlink:href="#STIXGeneral-Regular-6e" transform="translate(780.399811 0)"/>
      <use xlink:href="#STIXGeneral-Regular-20" transform="translate(830.399796 0)"/>
      <use xlink:href="#STIXGeneral-Regular-45" transform="translate(855.39978 0)"/>
      <use xlink:href="#STIXGeneral-Regular-72" transform="translate(916.499771 0)"/>
      <use xlink:href="#STIXGeneral-Regular-72" transform="translate(949.799759 0)"/>
      <use xlink:href="#STIXGeneral-Regular-6f" transform="translate(983.099747 0)"/>
      <use xlink:href="#STIXGeneral-Regular-72" transform="translate(1033.099731 0)"/>
     </g>
    </g>
   </g>
   <g id="patch_33">
    <path d="M 42.575 306.496904 
L 42.575 23.218594 
" style="fill: none; stroke: #cbd5e1; stroke-linejoin: miter; stroke-linecap: square"/>
   </g>
   <g id="patch_34">
    <path d="M 42.575 306.496904 
L 492.879234 306.496904 
" style="fill: none; stroke: #cbd5e1; stroke-linejoin: miter; stroke-linecap: square"/>
   </g>
   <g id="text_13">
    <!-- Robust Localization Across Corruption Regimes -->
    <g style="fill: #0f172a" transform="translate(117.498054 17.218594) scale(0.145 -0.145)">
     <defs>
      <path id="STIXGeneral-Bold-52" d="M 4582 0 
L 3270 0 
L 1946 2003 
L 1766 2003 
L 1766 749 
Q 1766 403 1859 307 
Q 1952 211 2330 160 
L 2330 0 
L 166 0 
L 166 160 
Q 544 205 637 301 
Q 730 397 730 768 
L 730 3526 
Q 730 3904 624 4022 
Q 518 4141 166 4166 
L 166 4326 
L 2138 4326 
Q 4032 4326 4032 3226 
Q 4032 2739 3744 2470 
Q 3475 2227 3027 2106 
L 4301 301 
Q 4397 160 4582 160 
L 4582 0 
z
M 1766 3821 
L 1766 2208 
Q 2426 2214 2682 2406 
Q 2938 2598 2938 3162 
Q 2938 3667 2746 3888 
Q 2554 4109 2106 4109 
Q 1920 4109 1843 4045 
Q 1766 3981 1766 3821 
z
" transform="scale(0.015625)"/>
      <path id="STIXGeneral-Bold-6f" d="M 3046 1466 
Q 3046 794 2633 352 
Q 2221 -90 1600 -90 
Q 992 -90 576 348 
Q 160 787 160 1459 
Q 160 2157 573 2592 
Q 986 3027 1626 3027 
Q 2234 3027 2640 2585 
Q 3046 2144 3046 1466 
z
M 2106 1395 
Q 2106 2214 1997 2521 
Q 1888 2829 1606 2829 
Q 1312 2829 1206 2525 
Q 1101 2221 1101 1395 
Q 1101 698 1216 403 
Q 1331 109 1606 109 
Q 1882 109 1994 393 
Q 2106 678 2106 1395 
z
" transform="scale(0.015625)"/>
      <path id="STIXGeneral-Bold-62" d="M 1350 4326 
L 1350 2669 
Q 1690 3027 2131 3027 
Q 2662 3027 2998 2611 
Q 3334 2195 3334 1530 
Q 3334 806 2931 358 
Q 2528 -90 1888 -90 
Q 1440 -90 1043 275 
L 538 -83 
L 461 -83 
L 461 3802 
Q 461 3994 397 4061 
Q 333 4128 109 4173 
L 109 4326 
L 1350 4326 
z
M 1350 2304 
L 1350 621 
Q 1350 390 1472 252 
Q 1594 115 1792 115 
Q 2394 115 2394 1414 
Q 2394 2682 1798 2682 
Q 1638 2682 1536 2595 
Q 1434 2509 1350 2304 
z
" transform="scale(0.015625)"/>
      <path id="STIXGeneral-Bold-75" d="M 3443 128 
L 3040 83 
Q 2509 26 2195 -83 
L 2195 333 
Q 1946 96 1738 3 
Q 1530 -90 1267 -90 
Q 864 -90 640 153 
Q 416 397 416 838 
L 416 2381 
Q 416 2605 358 2681 
Q 301 2758 102 2797 
L 102 2950 
L 1306 2950 
L 1306 813 
Q 1306 326 1664 326 
Q 1914 326 2189 627 
L 2189 2394 
Q 2189 2611 2112 2694 
Q 2035 2778 1798 2797 
L 1798 2950 
L 3078 2950 
L 3078 672 
Q 3078 461 3155 371 
Q 3232 282 3443 275 
L 3443 128 
z
" transform="scale(0.015625)"/>
      <path id="STIXGeneral-Bold-73" d="M 2176 2086 
L 2016 2086 
Q 1894 2445 1715 2611 
Q 1498 2816 1235 2816 
Q 1056 2816 934 2710 
Q 813 2605 813 2445 
Q 813 2278 957 2147 
Q 1101 2016 1427 1882 
Q 1907 1683 2108 1452 
Q 2310 1222 2310 883 
Q 2310 454 2035 182 
Q 1760 -90 1325 -90 
Q 992 -90 634 58 
Q 538 96 486 96 
Q 416 96 320 -83 
L 160 -83 
L 160 973 
L 339 973 
Q 544 128 1216 128 
Q 1434 128 1565 243 
Q 1696 358 1696 544 
Q 1696 698 1555 829 
Q 1414 960 1082 1101 
Q 602 1306 387 1539 
Q 173 1773 173 2093 
Q 173 2496 457 2761 
Q 742 3027 1178 3027 
Q 1395 3027 1677 2931 
Q 1818 2886 1875 2886 
Q 1984 2886 2035 3014 
L 2176 3014 
L 2176 2086 
z
" transform="scale(0.015625)"/>
      <path id="STIXGeneral-Bold-74" d="M 1965 717 
L 2125 646 
Q 1926 250 1712 86 
Q 1498 -77 1178 -77 
Q 845 -77 653 105 
Q 461 288 461 608 
L 461 2669 
L 122 2669 
L 122 2842 
Q 435 3053 646 3299 
Q 858 3546 1190 4032 
L 1350 4032 
L 1350 2950 
L 1958 2950 
L 1958 2669 
L 1350 2669 
L 1350 762 
Q 1350 378 1600 378 
Q 1786 378 1965 717 
z
" transform="scale(0.015625)"/>
      <path id="STIXGeneral-Bold-20" transform="scale(0.015625)"/>
      <path id="STIXGeneral-Bold-4c" d="M 4083 1453 
L 3814 0 
L 122 0 
L 122 160 
Q 474 205 573 288 
Q 672 371 672 627 
L 672 3686 
Q 672 3955 560 4051 
Q 448 4147 122 4166 
L 122 4326 
L 2349 4333 
L 2349 4173 
Q 1933 4154 1821 4045 
Q 1709 3936 1709 3539 
L 1709 570 
Q 1709 358 1827 278 
Q 1946 198 2253 198 
Q 2950 198 3341 550 
Q 3610 800 3898 1453 
L 4083 1453 
z
" transform="scale(0.015625)"/>
      <path id="STIXGeneral-Bold-63" d="M 2637 698 
L 2752 582 
Q 2490 224 2202 67 
Q 1914 -90 1530 -90 
Q 922 -90 541 326 
Q 160 742 160 1421 
Q 160 2125 595 2576 
Q 1030 3027 1677 3027 
Q 2099 3027 2380 2828 
Q 2662 2630 2662 2323 
Q 2662 2138 2544 2026 
Q 2426 1914 2227 1914 
Q 2061 1914 1965 2035 
Q 1869 2157 1869 2381 
Q 1869 2496 1865 2547 
Q 1862 2598 1849 2665 
Q 1837 2733 1811 2761 
Q 1786 2790 1731 2809 
Q 1677 2829 1600 2829 
Q 1357 2829 1209 2544 
Q 1062 2259 1062 1747 
Q 1062 1094 1299 716 
Q 1536 339 1952 339 
Q 2323 339 2637 698 
z
" transform="scale(0.015625)"/>
      <path id="STIXGeneral-Bold-61" d="M 3027 410 
L 3123 275 
Q 2784 -90 2406 -90 
Q 2170 -90 2051 9 
Q 1933 109 1882 352 
Q 1395 -90 864 -90 
Q 544 -90 352 80 
Q 160 250 160 589 
Q 160 1018 589 1306 
Q 909 1517 1875 1792 
L 1875 2227 
Q 1875 2541 1756 2681 
Q 1638 2822 1357 2822 
Q 1178 2822 1059 2758 
Q 941 2694 941 2586 
Q 941 2515 1011 2438 
Q 1133 2291 1133 2170 
Q 1133 2003 1011 1894 
Q 890 1786 698 1786 
Q 499 1786 390 1901 
Q 282 2016 282 2221 
Q 282 2598 618 2812 
Q 954 3027 1504 3027 
Q 2093 3027 2425 2803 
Q 2758 2579 2758 2170 
L 2758 499 
Q 2758 320 2893 320 
Q 2938 320 2963 346 
L 3027 410 
z
M 1875 621 
L 1875 1568 
Q 1094 1350 1094 794 
Q 1094 589 1187 477 
Q 1280 365 1427 365 
Q 1696 365 1875 621 
z
" transform="scale(0.015625)"/>
      <path id="STIXGeneral-Bold-6c" d="M 1638 0 
L 102 0 
L 102 154 
Q 429 179 429 557 
L 429 3757 
Q 429 4147 96 4173 
L 96 4326 
L 1318 4326 
L 1318 557 
Q 1318 346 1395 253 
Q 1472 160 1638 154 
L 1638 0 
z
" transform="scale(0.015625)"/>
      <path id="STIXGeneral-Bold-69" d="M 1376 3923 
Q 1376 3712 1232 3571 
Q 1088 3430 877 3430 
Q 666 3430 525 3571 
Q 384 3712 384 3923 
Q 384 4134 528 4278 
Q 672 4422 890 4422 
Q 1088 4422 1232 4275 
Q 1376 4128 1376 3923 
z
M 1638 0 
L 102 0 
L 102 154 
Q 326 205 384 275 
Q 442 346 442 563 
L 442 2387 
Q 442 2598 374 2675 
Q 307 2752 96 2797 
L 96 2950 
L 1331 2950 
L 1331 544 
Q 1331 339 1398 259 
Q 1466 179 1638 154 
L 1638 0 
z
" transform="scale(0.015625)"/>
      <path id="STIXGeneral-Bold-7a" d="M 2688 1024 
L 2586 0 
L 134 0 
L 134 160 
L 1632 2746 
Q 954 2746 742 2624 
Q 531 2502 410 2042 
L 243 2042 
L 288 2950 
L 2662 2950 
L 2662 2784 
L 1184 205 
L 1370 205 
Q 1760 205 1955 285 
Q 2150 365 2310 582 
Q 2438 774 2509 1024 
L 2688 1024 
z
" transform="scale(0.015625)"/>
      <path id="STIXGeneral-Bold-6e" d="M 3450 0 
L 1952 0 
L 1952 154 
Q 2112 173 2179 259 
Q 2246 346 2246 538 
L 2246 2054 
Q 2246 2598 1920 2598 
Q 1690 2598 1472 2381 
Q 1363 2272 1363 2227 
L 1363 538 
Q 1363 352 1430 265 
Q 1498 179 1670 154 
L 1670 0 
L 134 0 
L 134 154 
Q 346 198 410 275 
Q 474 352 474 557 
L 474 2406 
Q 474 2611 410 2688 
Q 346 2765 134 2797 
L 134 2950 
L 1357 2950 
L 1357 2470 
L 1363 2470 
Q 1677 3027 2272 3027 
Q 2669 3027 2902 2780 
Q 3136 2534 3136 2118 
L 3136 538 
Q 3136 320 3200 243 
Q 3264 166 3450 154 
L 3450 0 
z
" transform="scale(0.015625)"/>
      <path id="STIXGeneral-Bold-41" d="M 4410 0 
L 2349 0 
L 2349 160 
L 2554 179 
Q 2714 192 2781 240 
Q 2848 288 2848 390 
Q 2848 576 2554 1261 
L 1114 1261 
L 1030 1043 
Q 832 531 832 422 
Q 832 301 950 240 
Q 1069 179 1350 160 
L 1350 0 
L 58 0 
L 58 160 
Q 282 198 397 339 
Q 512 480 691 928 
L 2106 4416 
L 2285 4416 
L 3706 1075 
Q 3949 499 4080 329 
Q 4211 160 4410 160 
L 4410 0 
z
M 2458 1510 
L 1811 3066 
L 1210 1510 
L 2458 1510 
z
" transform="scale(0.015625)"/>
      <path id="STIXGeneral-Bold-72" d="M 1395 2950 
L 1395 2426 
Q 1619 2752 1817 2889 
Q 2016 3027 2259 3027 
Q 2483 3027 2630 2883 
Q 2778 2739 2778 2522 
Q 2778 2330 2666 2208 
Q 2554 2086 2374 2086 
Q 2138 2086 1990 2330 
Q 1901 2477 1811 2477 
Q 1645 2477 1533 2285 
Q 1421 2093 1421 1811 
L 1421 678 
Q 1421 371 1507 272 
Q 1594 173 1882 154 
L 1882 0 
L 186 0 
L 186 154 
Q 397 192 464 265 
Q 531 339 531 538 
L 531 2387 
Q 531 2611 460 2688 
Q 390 2765 179 2797 
L 179 2950 
L 1395 2950 
z
" transform="scale(0.015625)"/>
      <path id="STIXGeneral-Bold-43" d="M 4205 973 
L 4397 813 
Q 3968 282 3549 80 
Q 3130 -122 2554 -122 
Q 1536 -122 925 496 
Q 314 1114 314 2067 
Q 314 3091 938 3756 
Q 1562 4422 2534 4422 
Q 2989 4422 3533 4198 
Q 3738 4109 3827 4109 
Q 3917 4109 3977 4169 
Q 4038 4230 4109 4403 
L 4282 4403 
L 4282 2899 
L 4122 2899 
Q 3981 3296 3693 3635 
Q 3213 4211 2624 4211 
Q 2106 4211 1776 3676 
Q 1446 3142 1446 2208 
Q 1446 1216 1792 672 
Q 1933 454 2192 320 
Q 2451 186 2733 186 
Q 3142 186 3539 403 
Q 3802 550 4205 973 
z
" transform="scale(0.015625)"/>
      <path id="STIXGeneral-Bold-70" d="M 1357 2950 
L 1357 2509 
Q 1517 2790 1712 2908 
Q 1907 3027 2195 3027 
Q 2739 3027 3046 2659 
Q 3354 2291 3354 1594 
Q 3354 838 3024 377 
Q 2694 -83 2125 -83 
Q 1907 -83 1753 -3 
Q 1600 77 1370 301 
L 1370 -506 
Q 1370 -838 1475 -992 
Q 1581 -1146 1862 -1158 
L 1862 -1312 
L 122 -1312 
L 122 -1158 
Q 346 -1120 413 -1040 
Q 480 -960 480 -755 
L 480 2381 
Q 480 2592 409 2678 
Q 339 2765 128 2797 
L 128 2950 
L 1357 2950 
z
M 1370 2214 
L 1370 685 
Q 1446 499 1577 384 
Q 1709 269 1862 269 
Q 2406 269 2406 1498 
Q 2406 2662 1920 2662 
Q 1683 2662 1485 2426 
Q 1370 2291 1370 2214 
z
" transform="scale(0.015625)"/>
      <path id="STIXGeneral-Bold-65" d="M 2579 806 
L 2733 717 
Q 2451 269 2166 89 
Q 1882 -90 1466 -90 
Q 890 -90 525 342 
Q 160 774 160 1434 
Q 160 2150 528 2588 
Q 896 3027 1498 3027 
Q 2029 3027 2317 2707 
Q 2656 2336 2694 1568 
L 1082 1568 
Q 1101 1299 1133 1116 
Q 1165 934 1241 748 
Q 1318 563 1468 467 
Q 1619 371 1843 371 
Q 2048 371 2214 470 
Q 2381 570 2579 806 
z
M 1907 1805 
L 1907 1939 
Q 1907 2406 1850 2528 
Q 1773 2688 1699 2758 
Q 1626 2829 1498 2829 
Q 1267 2829 1158 2595 
Q 1050 2362 1050 1805 
L 1907 1805 
z
" transform="scale(0.015625)"/>
      <path id="STIXGeneral-Bold-67" d="M 1626 435 
L 1958 435 
Q 2477 435 2784 227 
Q 3091 19 3091 -333 
Q 3091 -787 2652 -1052 
Q 2214 -1318 1421 -1318 
Q 179 -1318 179 -730 
Q 179 -339 794 -250 
Q 493 -141 381 -25 
Q 269 90 269 275 
Q 269 557 454 733 
Q 640 909 1030 1024 
Q 678 1120 457 1382 
Q 237 1645 237 1997 
Q 237 2464 598 2745 
Q 960 3027 1536 3027 
Q 1869 3027 2253 2886 
L 3078 2886 
L 3078 2547 
L 2566 2547 
Q 2822 2317 2822 1920 
Q 2822 1318 2234 1075 
Q 2080 1011 1971 998 
Q 1862 986 1421 986 
Q 1229 986 1104 899 
Q 979 813 979 672 
Q 979 538 1113 486 
Q 1248 435 1626 435 
z
M 1958 1997 
Q 1958 2445 1859 2637 
Q 1760 2829 1529 2829 
Q 1299 2829 1206 2643 
Q 1114 2458 1114 1990 
Q 1114 1542 1210 1353 
Q 1306 1165 1536 1165 
Q 1766 1165 1862 1353 
Q 1958 1542 1958 1997 
z
M 2016 -333 
L 966 -333 
Q 832 -442 787 -512 
Q 742 -582 742 -685 
Q 742 -1114 1600 -1114 
Q 2061 -1114 2323 -995 
Q 2586 -877 2586 -691 
Q 2586 -333 2016 -333 
z
" transform="scale(0.015625)"/>
      <path id="STIXGeneral-Bold-6d" d="M 5210 0 
L 3693 0 
L 3693 154 
Q 3872 166 3936 246 
Q 4000 326 4000 531 
L 4000 1990 
Q 4000 2598 3661 2598 
Q 3475 2598 3290 2438 
Q 3232 2394 3174 2323 
Q 3117 2253 3117 2227 
L 3117 531 
Q 3117 346 3181 259 
Q 3245 173 3411 154 
L 3411 0 
L 1926 0 
L 1926 154 
Q 2099 166 2163 249 
Q 2227 333 2227 531 
L 2227 2067 
Q 2227 2355 2147 2476 
Q 2067 2598 1882 2598 
Q 1760 2598 1552 2454 
Q 1344 2310 1344 2202 
L 1344 531 
Q 1344 346 1405 262 
Q 1466 179 1632 154 
L 1632 0 
L 102 0 
L 102 154 
Q 314 192 384 272 
Q 454 352 454 550 
L 454 2387 
Q 454 2611 384 2688 
Q 314 2765 96 2797 
L 96 2950 
L 1325 2950 
L 1325 2470 
L 1344 2470 
Q 1530 2765 1744 2896 
Q 1958 3027 2266 3027 
Q 2566 3027 2752 2899 
Q 2938 2771 3085 2470 
Q 3334 2778 3542 2902 
Q 3750 3027 4026 3027 
Q 4422 3027 4656 2784 
Q 4890 2541 4890 2118 
L 4890 531 
Q 4890 326 4957 243 
Q 5024 160 5210 154 
L 5210 0 
z
" transform="scale(0.015625)"/>
     </defs>
     <use xlink:href="#STIXGeneral-Bold-52"/>
     <use xlink:href="#STIXGeneral-Bold-6f" transform="translate(72.199982 0)"/>
     <use xlink:href="#STIXGeneral-Bold-62" transform="translate(122.199966 0)"/>
     <use xlink:href="#STIXGeneral-Bold-75" transform="translate(177.799957 0)"/>
     <use xlink:href="#STIXGeneral-Bold-73" transform="translate(233.399948 0)"/>
     <use xlink:href="#STIXGeneral-Bold-74" transform="translate(272.299942 0)"/>
     <use xlink:href="#STIXGeneral-Bold-20" transform="translate(305.59993 0)"/>
     <use xlink:href="#STIXGeneral-Bold-4c" transform="translate(330.599915 0)"/>
     <use xlink:href="#STIXGeneral-Bold-6f" transform="translate(397.299911 0)"/>
     <use xlink:href="#STIXGeneral-Bold-63" transform="translate(447.299896 0)"/>
     <use xlink:href="#STIXGeneral-Bold-61" transform="translate(491.69989 0)"/>
     <use xlink:href="#STIXGeneral-Bold-6c" transform="translate(541.699875 0)"/>
     <use xlink:href="#STIXGeneral-Bold-69" transform="translate(569.499863 0)"/>
     <use xlink:href="#STIXGeneral-Bold-7a" transform="translate(597.29985 0)"/>
     <use xlink:href="#STIXGeneral-Bold-61" transform="translate(641.699844 0)"/>
     <use xlink:href="#STIXGeneral-Bold-74" transform="translate(691.699829 0)"/>
     <use xlink:href="#STIXGeneral-Bold-69" transform="translate(724.999817 0)"/>
     <use xlink:href="#STIXGeneral-Bold-6f" transform="translate(752.799805 0)"/>
     <use xlink:href="#STIXGeneral-Bold-6e" transform="translate(802.799789 0)"/>
     <use xlink:href="#STIXGeneral-Bold-20" transform="translate(858.39978 0)"/>
     <use xlink:href="#STIXGeneral-Bold-41" transform="translate(883.399765 0)"/>
     <use xlink:href="#STIXGeneral-Bold-63" transform="translate(955.599747 0)"/>
     <use xlink:href="#STIXGeneral-Bold-72" transform="translate(999.999741 0)"/>
     <use xlink:href="#STIXGeneral-Bold-6f" transform="translate(1044.399734 0)"/>
     <use xlink:href="#STIXGeneral-Bold-73" transform="translate(1094.399719 0)"/>
     <use xlink:href="#STIXGeneral-Bold-73" transform="translate(1133.299713 0)"/>
     <use xlink:href="#STIXGeneral-Bold-20" transform="translate(1172.199707 0)"/>
     <use xlink:href="#STIXGeneral-Bold-43" transform="translate(1197.199692 0)"/>
     <use xlink:href="#STIXGeneral-Bold-6f" transform="translate(1269.399673 0)"/>
     <use xlink:href="#STIXGeneral-Bold-72" transform="translate(1319.399658 0)"/>
     <use xlink:href="#STIXGeneral-Bold-72" transform="translate(1363.799652 0)"/>
     <use xlink:href="#STIXGeneral-Bold-75" transform="translate(1408.199646 0)"/>
     <use xlink:href="#STIXGeneral-Bold-70" transform="translate(1463.799637 0)"/>
     <use xlink:href="#STIXGeneral-Bold-74" transform="translate(1519.399628 0)"/>
     <use xlink:href="#STIXGeneral-Bold-69" transform="translate(1552.699615 0)"/>
     <use xlink:href="#STIXGeneral-Bold-6f" transform="translate(1580.499603 0)"/>
     <use xlink:href="#STIXGeneral-Bold-6e" transform="translate(1630.499588 0)"/>
     <use xlink:href="#STIXGeneral-Bold-20" transform="translate(1686.099579 0)"/>
     <use xlink:href="#STIXGeneral-Bold-52" transform="translate(1711.099564 0)"/>
     <use xlink:href="#STIXGeneral-Bold-65" transform="translate(1783.299545 0)"/>
     <use xlink:href="#STIXGeneral-Bold-67" transform="translate(1827.699539 0)"/>
     <use xlink:href="#STIXGeneral-Bold-69" transform="translate(1877.699524 0)"/>
     <use xlink:href="#STIXGeneral-Bold-6d" transform="translate(1905.499512 0)"/>
     <use xlink:href="#STIXGeneral-Bold-65" transform="translate(1988.7995 0)"/>
     <use xlink:href="#STIXGeneral-Bold-73" transform="translate(2033.199493 0)"/>
    </g>
   </g>
  </g>
  <g id="axes_2">
   <g id="patch_35">
    <path d="M 539.260484 306.496904 
L 989.564717 306.496904 
L 989.564717 23.218594 
L 539.260484 23.218594 
z
" style="fill: #fcfcfd"/>
   </g>
   <g id="matplotlib.axis_3">
    <g id="xtick_6">
     <g id="line2d_18">
      <path d="M 559.728858 306.496904 
L 559.728858 23.218594 
" clip-path="url(#pd02ca9cdd1)" style="fill: none; stroke-dasharray: 0.7,1.155; stroke-dashoffset: 0; stroke: #cbd5e1; stroke-opacity: 0.35; stroke-width: 0.7"/>
     </g>
     <g id="line2d_19">
      <g>
       <use xlink:href="#m7cead4b94f" x="559.728858" y="306.496904" style="fill: #334155; stroke: #334155; stroke-width: 0.8"/>
      </g>
     </g>
     <g id="text_14">
      <!-- Clean -->
      <g style="fill: #334155" transform="translate(548.090813 324.81313) rotate(-10) scale(0.105 -0.105)">
       <use xlink:href="#STIXGeneral-Regular-43"/>
       <use xlink:href="#STIXGeneral-Regular-6c" transform="translate(66.699997 0)"/>
       <use xlink:href="#STIXGeneral-Regular-65" transform="translate(94.499985 0)"/>
       <use xlink:href="#STIXGeneral-Regular-61" transform="translate(138.899979 0)"/>
       <use xlink:href="#STIXGeneral-Regular-6e" transform="translate(183.299973 0)"/>
      </g>
     </g>
    </g>
    <g id="xtick_7">
     <g id="line2d_20">
      <path d="M 662.070729 306.496904 
L 662.070729 23.218594 
" clip-path="url(#pd02ca9cdd1)" style="fill: none; stroke-dasharray: 0.7,1.155; stroke-dashoffset: 0; stroke: #cbd5e1; stroke-opacity: 0.35; stroke-width: 0.7"/>
     </g>
     <g id="line2d_21">
      <g>
       <use xlink:href="#m7cead4b94f" x="662.070729" y="306.496904" style="fill: #334155; stroke: #334155; stroke-width: 0.8"/>
      </g>
     </g>
     <g id="text_15">
      <!-- Outlier -->
      <g style="fill: #334155" transform="translate(647.848372 325.724498) rotate(-10) scale(0.105 -0.105)">
       <use xlink:href="#STIXGeneral-Regular-4f"/>
       <use xlink:href="#STIXGeneral-Regular-75" transform="translate(72.199982 0)"/>
       <use xlink:href="#STIXGeneral-Regular-74" transform="translate(122.199966 0)"/>
       <use xlink:href="#STIXGeneral-Regular-6c" transform="translate(149.999954 0)"/>
       <use xlink:href="#STIXGeneral-Regular-69" transform="translate(177.799942 0)"/>
       <use xlink:href="#STIXGeneral-Regular-65" transform="translate(205.59993 0)"/>
       <use xlink:href="#STIXGeneral-Regular-72" transform="translate(249.999924 0)"/>
      </g>
     </g>
    </g>
    <g id="xtick_8">
     <g id="line2d_22">
      <path d="M 764.4126 306.496904 
L 764.4126 23.218594 
" clip-path="url(#pd02ca9cdd1)" style="fill: none; stroke-dasharray: 0.7,1.155; stroke-dashoffset: 0; stroke: #cbd5e1; stroke-opacity: 0.35; stroke-width: 0.7"/>
     </g>
     <g id="line2d_23">
      <g>
       <use xlink:href="#m7cead4b94f" x="764.4126" y="306.496904" style="fill: #334155; stroke: #334155; stroke-width: 0.8"/>
      </g>
     </g>
     <g id="text_16">
      <!-- Mixed -->
      <g style="fill: #334155" transform="translate(751.33739 325.319952) rotate(-10) scale(0.105 -0.105)">
       <use xlink:href="#STIXGeneral-Regular-4d"/>
       <use xlink:href="#STIXGeneral-Regular-69" transform="translate(88.899994 0)"/>
       <use xlink:href="#STIXGeneral-Regular-78" transform="translate(116.699982 0)"/>
       <use xlink:href="#STIXGeneral-Regular-65" transform="translate(166.699966 0)"/>
       <use xlink:href="#STIXGeneral-Regular-64" transform="translate(211.09996 0)"/>
      </g>
     </g>
    </g>
    <g id="xtick_9">
     <g id="line2d_24">
      <path d="M 866.754472 306.496904 
L 866.754472 23.218594 
" clip-path="url(#pd02ca9cdd1)" style="fill: none; stroke-dasharray: 0.7,1.155; stroke-dashoffset: 0; stroke: #cbd5e1; stroke-opacity: 0.35; stroke-width: 0.7"/>
     </g>
     <g id="line2d_25">
      <g>
       <use xlink:href="#m7cead4b94f" x="866.754472" y="306.496904" style="fill: #334155; stroke: #334155; stroke-width: 0.8"/>
      </g>
     </g>
     <g id="text_17">
      <!-- Pose Noise -->
      <g style="fill: #334155" transform="translate(844.051304 328.715289) rotate(-10) scale(0.105 -0.105)">
       <use xlink:href="#STIXGeneral-Regular-50"/>
       <use xlink:href="#STIXGeneral-Regular-6f" transform="translate(55.699997 0)"/>
       <use xlink:href="#STIXGeneral-Regular-73" transform="translate(105.699982 0)"/>
       <use xlink:href="#STIXGeneral-Regular-65" transform="translate(144.599976 0)"/>
       <use xlink:href="#STIXGeneral-Regular-20" transform="translate(188.999969 0)"/>
       <use xlink:href="#STIXGeneral-Regular-4e" transform="translate(213.999954 0)"/>
       <use xlink:href="#STIXGeneral-Regular-6f" transform="translate(286.199936 0)"/>
       <use xlink:href="#STIXGeneral-Regular-69" transform="translate(336.199921 0)"/>
       <use xlink:href="#STIXGeneral-Regular-73" transform="translate(363.999908 0)"/>
       <use xlink:href="#STIXGeneral-Regular-65" transform="translate(402.899902 0)"/>
      </g>
     </g>
    </g>
    <g id="xtick_10">
     <g id="line2d_26">
      <path d="M 969.096343 306.496904 
L 969.096343 23.218594 
" clip-path="url(#pd02ca9cdd1)" style="fill: none; stroke-dasharray: 0.7,1.155; stroke-dashoffset: 0; stroke: #cbd5e1; stroke-opacity: 0.35; stroke-width: 0.7"/>
     </g>
     <g id="line2d_27">
      <g>
       <use xlink:href="#m7cead4b94f" x="969.096343" y="306.496904" style="fill: #334155; stroke: #334155; stroke-width: 0.8"/>
      </g>
     </g>
     <g id="text_18">
      <!-- Het. Bias -->
      <g style="fill: #334155" transform="translate(950.276511 327.345816) rotate(-10) scale(0.105 -0.105)">
       <use xlink:href="#STIXGeneral-Regular-48"/>
       <use xlink:href="#STIXGeneral-Regular-65" transform="translate(72.199982 0)"/>
       <use xlink:href="#STIXGeneral-Regular-74" transform="translate(116.599976 0)"/>
       <use xlink:href="#STIXGeneral-Regular-2e" transform="translate(144.399963 0)"/>
       <use xlink:href="#STIXGeneral-Regular-20" transform="translate(169.399948 0)"/>
       <use xlink:href="#STIXGeneral-Regular-42" transform="translate(194.399933 0)"/>
       <use xlink:href="#STIXGeneral-Regular-69" transform="translate(261.09993 0)"/>
       <use xlink:href="#STIXGeneral-Regular-61" transform="translate(288.899918 0)"/>
       <use xlink:href="#STIXGeneral-Regular-73" transform="translate(333.299911 0)"/>
      </g>
     </g>
    </g>
   </g>
   <g id="matplotlib.axis_4">
    <g id="ytick_7">
     <g id="line2d_28">
      <path d="M 539.260484 303.692168 
L 989.564717 303.692168 
" clip-path="url(#pd02ca9cdd1)" style="fill: none; stroke-dasharray: 0.7,1.155; stroke-dashoffset: 0; stroke: #cbd5e1; stroke-opacity: 0.35; stroke-width: 0.7"/>
     </g>
     <g id="line2d_29">
      <g>
       <use xlink:href="#m633c0d8c7e" x="539.260484" y="303.692168" style="fill: #334155; stroke: #334155; stroke-width: 0.8"/>
      </g>
     </g>
     <g id="text_19">
      <!-- 0.0 -->
      <g style="fill: #334155" transform="translate(519.135484 307.277754) scale(0.105 -0.105)">
       <use xlink:href="#STIXGeneral-Regular-30"/>
       <use xlink:href="#STIXGeneral-Regular-2e" transform="translate(49.999985 0)"/>
       <use xlink:href="#STIXGeneral-Regular-30" transform="translate(74.999969 0)"/>
      </g>
     </g>
    </g>
    <g id="ytick_8">
     <g id="line2d_30">
      <path d="M 539.260484 247.597453 
L 989.564717 247.597453 
" clip-path="url(#pd02ca9cdd1)" style="fill: none; stroke-dasharray: 0.7,1.155; stroke-dashoffset: 0; stroke: #cbd5e1; stroke-opacity: 0.35; stroke-width: 0.7"/>
     </g>
     <g id="line2d_31">
      <g>
       <use xlink:href="#m633c0d8c7e" x="539.260484" y="247.597453" style="fill: #334155; stroke: #334155; stroke-width: 0.8"/>
      </g>
     </g>
     <g id="text_20">
      <!-- 0.2 -->
      <g style="fill: #334155" transform="translate(519.135484 251.183039) scale(0.105 -0.105)">
       <use xlink:href="#STIXGeneral-Regular-30"/>
       <use xlink:href="#STIXGeneral-Regular-2e" transform="translate(49.999985 0)"/>
       <use xlink:href="#STIXGeneral-Regular-32" transform="translate(74.999969 0)"/>
      </g>
     </g>
    </g>
    <g id="ytick_9">
     <g id="line2d_32">
      <path d="M 539.260484 191.502738 
L 989.564717 191.502738 
" clip-path="url(#pd02ca9cdd1)" style="fill: none; stroke-dasharray: 0.7,1.155; stroke-dashoffset: 0; stroke: #cbd5e1; stroke-opacity: 0.35; stroke-width: 0.7"/>
     </g>
     <g id="line2d_33">
      <g>
       <use xlink:href="#m633c0d8c7e" x="539.260484" y="191.502738" style="fill: #334155; stroke: #334155; stroke-width: 0.8"/>
      </g>
     </g>
     <g id="text_21">
      <!-- 0.4 -->
      <g style="fill: #334155" transform="translate(519.135484 195.088324) scale(0.105 -0.105)">
       <use xlink:href="#STIXGeneral-Regular-30"/>
       <use xlink:href="#STIXGeneral-Regular-2e" transform="translate(49.999985 0)"/>
       <use xlink:href="#STIXGeneral-Regular-34" transform="translate(74.999969 0)"/>
      </g>
     </g>
    </g>
    <g id="ytick_10">
     <g id="line2d_34">
      <path d="M 539.260484 135.408023 
L 989.564717 135.408023 
" clip-path="url(#pd02ca9cdd1)" style="fill: none; stroke-dasharray: 0.7,1.155; stroke-dashoffset: 0; stroke: #cbd5e1; stroke-opacity: 0.35; stroke-width: 0.7"/>
     </g>
     <g id="line2d_35">
      <g>
       <use xlink:href="#m633c0d8c7e" x="539.260484" y="135.408023" style="fill: #334155; stroke: #334155; stroke-width: 0.8"/>
      </g>
     </g>
     <g id="text_22">
      <!-- 0.6 -->
      <g style="fill: #334155" transform="translate(519.135484 138.993609) scale(0.105 -0.105)">
       <use xlink:href="#STIXGeneral-Regular-30"/>
       <use xlink:href="#STIXGeneral-Regular-2e" transform="translate(49.999985 0)"/>
       <use xlink:href="#STIXGeneral-Regular-36" transform="translate(74.999969 0)"/>
      </g>
     </g>
    </g>
    <g id="ytick_11">
     <g id="line2d_36">
      <path d="M 539.260484 79.313309 
L 989.564717 79.313309 
" clip-path="url(#pd02ca9cdd1)" style="fill: none; stroke-dasharray: 0.7,1.155; stroke-dashoffset: 0; stroke: #cbd5e1; stroke-opacity: 0.35; stroke-width: 0.7"/>
     </g>
     <g id="line2d_37">
      <g>
       <use xlink:href="#m633c0d8c7e" x="539.260484" y="79.313309" style="fill: #334155; stroke: #334155; stroke-width: 0.8"/>
      </g>
     </g>
     <g id="text_23">
      <!-- 0.8 -->
      <g style="fill: #334155" transform="translate(519.135484 82.898895) scale(0.105 -0.105)">
       <use xlink:href="#STIXGeneral-Regular-30"/>
       <use xlink:href="#STIXGeneral-Regular-2e" transform="translate(49.999985 0)"/>
       <use xlink:href="#STIXGeneral-Regular-38" transform="translate(74.999969 0)"/>
      </g>
     </g>
    </g>
    <g id="ytick_12">
     <g id="line2d_38">
      <path d="M 539.260484 23.218594 
L 989.564717 23.218594 
" clip-path="url(#pd02ca9cdd1)" style="fill: none; stroke-dasharray: 0.7,1.155; stroke-dashoffset: 0; stroke: #cbd5e1; stroke-opacity: 0.35; stroke-width: 0.7"/>
     </g>
     <g id="line2d_39">
      <g>
       <use xlink:href="#m633c0d8c7e" x="539.260484" y="23.218594" style="fill: #334155; stroke: #334155; stroke-width: 0.8"/>
      </g>
     </g>
     <g id="text_24">
      <!-- 1.0 -->
      <g style="fill: #334155" transform="translate(519.135484 26.80418) scale(0.105 -0.105)">
       <use xlink:href="#STIXGeneral-Regular-31"/>
       <use xlink:href="#STIXGeneral-Regular-2e" transform="translate(49.999985 0)"/>
       <use xlink:href="#STIXGeneral-Regular-30" transform="translate(74.999969 0)"/>
      </g>
     </g>
    </g>
    <g id="text_25">
     <!-- Catastrophic Failure Rate -->
     <g style="fill: #0f172a" transform="translate(512.422593 228.740561) rotate(-90) scale(0.125 -0.125)">
      <defs>
       <path id="STIXGeneral-Regular-70" d="M 1018 2931 
L 1018 2438 
Q 1421 2944 1939 2944 
Q 2406 2944 2707 2560 
Q 3008 2176 3008 1581 
Q 3008 883 2621 409 
Q 2234 -64 1664 -64 
Q 1466 -64 1328 -6 
Q 1190 51 1018 211 
L 1018 -794 
Q 1018 -1094 1120 -1180 
Q 1222 -1267 1581 -1274 
L 1581 -1389 
L 32 -1389 
L 32 -1280 
Q 314 -1254 397 -1171 
Q 480 -1088 480 -838 
L 480 2157 
Q 480 2381 429 2451 
Q 378 2522 218 2522 
Q 115 2522 58 2515 
L 58 2618 
Q 506 2752 979 2944 
L 1018 2931 
z
M 1018 2138 
L 1018 563 
Q 1018 422 1238 281 
Q 1459 141 1683 141 
Q 2029 141 2243 467 
Q 2458 794 2458 1325 
Q 2458 1888 2243 2224 
Q 2029 2560 1670 2560 
Q 1446 2560 1232 2419 
Q 1018 2278 1018 2138 
z
" transform="scale(0.015625)"/>
       <path id="STIXGeneral-Regular-68" d="M 3117 0 
L 1760 0 
L 1760 96 
Q 2042 128 2118 224 
Q 2195 320 2195 653 
L 2195 1920 
Q 2195 2598 1722 2598 
Q 1530 2598 1370 2508 
Q 1210 2419 1005 2195 
L 1005 653 
Q 1005 320 1081 224 
Q 1158 128 1440 96 
L 1440 0 
L 58 0 
L 58 96 
Q 333 134 400 224 
Q 467 314 467 653 
L 467 3667 
Q 467 3872 406 3933 
Q 346 3994 141 3994 
Q 83 3994 64 3987 
L 64 4090 
L 237 4141 
Q 730 4288 973 4371 
L 1005 4352 
L 1005 2406 
Q 1229 2694 1446 2819 
Q 1664 2944 1946 2944 
Q 2733 2944 2733 1926 
L 2733 653 
Q 2733 320 2793 233 
Q 2854 147 3117 96 
L 3117 0 
z
" transform="scale(0.015625)"/>
       <path id="STIXGeneral-Regular-46" d="M 3494 3322 
L 3334 3322 
Q 3264 3757 3094 3875 
Q 2925 3994 2349 3994 
L 1504 3994 
Q 1370 3994 1328 3946 
Q 1286 3898 1286 3744 
L 1286 2355 
L 2195 2355 
Q 2598 2355 2736 2470 
Q 2874 2586 2918 2963 
L 3066 2963 
L 3066 1472 
L 2918 1472 
Q 2880 1862 2745 1977 
Q 2611 2093 2195 2093 
L 1286 2093 
L 1286 717 
Q 1286 352 1392 246 
Q 1498 141 1869 122 
L 1869 0 
L 70 0 
L 70 122 
Q 435 147 534 259 
Q 634 371 634 787 
L 634 3526 
Q 634 3878 538 3984 
Q 442 4090 77 4115 
L 77 4237 
L 3462 4237 
L 3494 3322 
z
" transform="scale(0.015625)"/>
       <path id="STIXGeneral-Regular-52" d="M 4224 0 
L 3187 0 
L 1664 1971 
L 1306 1958 
L 1306 717 
Q 1306 352 1405 249 
Q 1504 147 1875 122 
L 1875 0 
L 109 0 
L 109 122 
Q 474 154 563 262 
Q 653 371 653 794 
L 653 3526 
Q 653 3885 563 3987 
Q 474 4090 109 4115 
L 109 4237 
L 1850 4237 
Q 2726 4237 3187 3859 
Q 3501 3603 3501 3091 
Q 3501 2221 2342 2042 
L 3622 422 
Q 3757 256 3878 198 
Q 4000 141 4224 122 
L 4224 0 
z
M 1306 3731 
L 1306 2195 
Q 1766 2202 1990 2246 
Q 2214 2291 2438 2413 
Q 2803 2618 2803 3142 
Q 2803 4000 1632 4000 
Q 1459 4000 1382 3945 
Q 1306 3891 1306 3731 
z
" transform="scale(0.015625)"/>
      </defs>
      <use xlink:href="#STIXGeneral-Regular-43"/>
      <use xlink:href="#STIXGeneral-Regular-61" transform="translate(66.699997 0)"/>
      <use xlink:href="#STIXGeneral-Regular-74" transform="translate(111.099991 0)"/>
      <use xlink:href="#STIXGeneral-Regular-61" transform="translate(138.899979 0)"/>
      <use xlink:href="#STIXGeneral-Regular-73" transform="translate(183.299973 0)"/>
      <use xlink:href="#STIXGeneral-Regular-74" transform="translate(222.199966 0)"/>
      <use xlink:href="#STIXGeneral-Regular-72" transform="translate(249.999954 0)"/>
      <use xlink:href="#STIXGeneral-Regular-6f" transform="translate(283.299942 0)"/>
      <use xlink:href="#STIXGeneral-Regular-70" transform="translate(333.299927 0)"/>
      <use xlink:href="#STIXGeneral-Regular-68" transform="translate(383.299911 0)"/>
      <use xlink:href="#STIXGeneral-Regular-69" transform="translate(433.299896 0)"/>
      <use xlink:href="#STIXGeneral-Regular-63" transform="translate(461.099884 0)"/>
      <use xlink:href="#STIXGeneral-Regular-20" transform="translate(505.499878 0)"/>
      <use xlink:href="#STIXGeneral-Regular-46" transform="translate(530.499863 0)"/>
      <use xlink:href="#STIXGeneral-Regular-61" transform="translate(586.099854 0)"/>
      <use xlink:href="#STIXGeneral-Regular-69" transform="translate(630.499847 0)"/>
      <use xlink:href="#STIXGeneral-Regular-6c" transform="translate(658.299835 0)"/>
      <use xlink:href="#STIXGeneral-Regular-75" transform="translate(686.099823 0)"/>
      <use xlink:href="#STIXGeneral-Regular-72" transform="translate(736.099808 0)"/>
      <use xlink:href="#STIXGeneral-Regular-65" transform="translate(769.399796 0)"/>
      <use xlink:href="#STIXGeneral-Regular-20" transform="translate(813.799789 0)"/>
      <use xlink:href="#STIXGeneral-Regular-52" transform="translate(838.799774 0)"/>
      <use xlink:href="#STIXGeneral-Regular-61" transform="translate(905.499771 0)"/>
      <use xlink:href="#STIXGeneral-Regular-74" transform="translate(949.899765 0)"/>
      <use xlink:href="#STIXGeneral-Regular-65" transform="translate(977.699753 0)"/>
     </g>
    </g>
   </g>
   <g id="line2d_40">
    <path d="M 559.728858 303.224712 
L 662.070729 283.124106 
L 764.4126 285.928842 
L 866.754472 293.408137 
L 969.096343 299.95252 
" clip-path="url(#pd02ca9cdd1)" style="fill: none; stroke: #7f7f7f; stroke-width: 2; stroke-linecap: square"/>
    <defs>
     <path id="m111ad19a12" d="M 0 3 
C 0.795609 3 1.55874 2.683901 2.12132 2.12132 
C 2.683901 1.55874 3 0.795609 3 0 
C 3 -0.795609 2.683901 -1.55874 2.12132 -2.12132 
C 1.55874 -2.683901 0.795609 -3 0 -3 
C -0.795609 -3 -1.55874 -2.683901 -2.12132 -2.12132 
C -2.683901 -1.55874 -3 -0.795609 -3 0 
C -3 0.795609 -2.683901 1.55874 -2.12132 2.12132 
C -1.55874 2.683901 -0.795609 3 0 3 
z
" style="stroke: #7f7f7f"/>
    </defs>
    <g clip-path="url(#pd02ca9cdd1)">
     <use xlink:href="#m111ad19a12" x="559.728858" y="303.224712" style="fill: #7f7f7f; stroke: #7f7f7f"/>
     <use xlink:href="#m111ad19a12" x="662.070729" y="283.124106" style="fill: #7f7f7f; stroke: #7f7f7f"/>
     <use xlink:href="#m111ad19a12" x="764.4126" y="285.928842" style="fill: #7f7f7f; stroke: #7f7f7f"/>
     <use xlink:href="#m111ad19a12" x="866.754472" y="293.408137" style="fill: #7f7f7f; stroke: #7f7f7f"/>
     <use xlink:href="#m111ad19a12" x="969.096343" y="299.95252" style="fill: #7f7f7f; stroke: #7f7f7f"/>
    </g>
   </g>
   <g id="line2d_41">
    <path d="M 559.728858 303.224712 
L 662.070729 292.005769 
L 764.4126 291.070857 
L 866.754472 297.147785 
L 969.096343 300.887432 
" clip-path="url(#pd02ca9cdd1)" style="fill: none; stroke: #17becf; stroke-width: 2; stroke-linecap: square"/>
    <defs>
     <path id="m74445eb60b" d="M 0 3 
C 0.795609 3 1.55874 2.683901 2.12132 2.12132 
C 2.683901 1.55874 3 0.795609 3 0 
C 3 -0.795609 2.683901 -1.55874 2.12132 -2.12132 
C 1.55874 -2.683901 0.795609 -3 0 -3 
C -0.795609 -3 -1.55874 -2.683901 -2.12132 -2.12132 
C -2.683901 -1.55874 -3 -0.795609 -3 0 
C -3 0.795609 -2.683901 1.55874 -2.12132 2.12132 
C -1.55874 2.683901 -0.795609 3 0 3 
z
" style="stroke: #17becf"/>
    </defs>
    <g clip-path="url(#pd02ca9cdd1)">
     <use xlink:href="#m74445eb60b" x="559.728858" y="303.224712" style="fill: #17becf; stroke: #17becf"/>
     <use xlink:href="#m74445eb60b" x="662.070729" y="292.005769" style="fill: #17becf; stroke: #17becf"/>
     <use xlink:href="#m74445eb60b" x="764.4126" y="291.070857" style="fill: #17becf; stroke: #17becf"/>
     <use xlink:href="#m74445eb60b" x="866.754472" y="297.147785" style="fill: #17becf; stroke: #17becf"/>
     <use xlink:href="#m74445eb60b" x="969.096343" y="300.887432" style="fill: #17becf; stroke: #17becf"/>
    </g>
   </g>
   <g id="line2d_42">
    <path d="M 559.728858 298.550152 
L 662.070729 238.71579 
L 764.4126 244.792717 
L 866.754472 255.076748 
L 969.096343 264.425868 
" clip-path="url(#pd02ca9cdd1)" style="fill: none; stroke: #bcbd22; stroke-width: 2; stroke-linecap: square"/>
    <defs>
     <path id="mfdffafd1d9" d="M 0 3 
C 0.795609 3 1.55874 2.683901 2.12132 2.12132 
C 2.683901 1.55874 3 0.795609 3 0 
C 3 -0.795609 2.683901 -1.55874 2.12132 -2.12132 
C 1.55874 -2.683901 0.795609 -3 0 -3 
C -0.795609 -3 -1.55874 -2.683901 -2.12132 -2.12132 
C -2.683901 -1.55874 -3 -0.795609 -3 0 
C -3 0.795609 -2.683901 1.55874 -2.12132 2.12132 
C -1.55874 2.683901 -0.795609 3 0 3 
z
" style="stroke: #bcbd22"/>
    </defs>
    <g clip-path="url(#pd02ca9cdd1)">
     <use xlink:href="#mfdffafd1d9" x="559.728858" y="298.550152" style="fill: #bcbd22; stroke: #bcbd22"/>
     <use xlink:href="#mfdffafd1d9" x="662.070729" y="238.71579" style="fill: #bcbd22; stroke: #bcbd22"/>
     <use xlink:href="#mfdffafd1d9" x="764.4126" y="244.792717" style="fill: #bcbd22; stroke: #bcbd22"/>
     <use xlink:href="#mfdffafd1d9" x="866.754472" y="255.076748" style="fill: #bcbd22; stroke: #bcbd22"/>
     <use xlink:href="#mfdffafd1d9" x="969.096343" y="264.425868" style="fill: #bcbd22; stroke: #bcbd22"/>
    </g>
   </g>
   <g id="line2d_43">
    <path d="M 559.728858 303.692168 
L 662.070729 302.2898 
L 764.4126 299.017608 
L 866.754472 302.2898 
L 969.096343 302.2898 
" clip-path="url(#pd02ca9cdd1)" style="fill: none; stroke: #d62728; stroke-width: 2; stroke-linecap: square"/>
    <defs>
     <path id="m84b5bf10f6" d="M 0 3 
C 0.795609 3 1.55874 2.683901 2.12132 2.12132 
C 2.683901 1.55874 3 0.795609 3 0 
C 3 -0.795609 2.683901 -1.55874 2.12132 -2.12132 
C 1.55874 -2.683901 0.795609 -3 0 -3 
C -0.795609 -3 -1.55874 -2.683901 -2.12132 -2.12132 
C -2.683901 -1.55874 -3 -0.795609 -3 0 
C -3 0.795609 -2.683901 1.55874 -2.12132 2.12132 
C -1.55874 2.683901 -0.795609 3 0 3 
z
" style="stroke: #d62728"/>
    </defs>
    <g clip-path="url(#pd02ca9cdd1)">
     <use xlink:href="#m84b5bf10f6" x="559.728858" y="303.692168" style="fill: #d62728; stroke: #d62728"/>
     <use xlink:href="#m84b5bf10f6" x="662.070729" y="302.2898" style="fill: #d62728; stroke: #d62728"/>
     <use xlink:href="#m84b5bf10f6" x="764.4126" y="299.017608" style="fill: #d62728; stroke: #d62728"/>
     <use xlink:href="#m84b5bf10f6" x="866.754472" y="302.2898" style="fill: #d62728; stroke: #d62728"/>
     <use xlink:href="#m84b5bf10f6" x="969.096343" y="302.2898" style="fill: #d62728; stroke: #d62728"/>
    </g>
   </g>
   <g id="line2d_44">
    <path d="M 559.728858 303.692168 
L 662.070729 294.343049 
L 764.4126 291.070857 
L 866.754472 299.95252 
L 969.096343 301.822344 
" clip-path="url(#pd02ca9cdd1)" style="fill: none; stroke: #9467bd; stroke-width: 2; stroke-linecap: square"/>
    <defs>
     <path id="m39110855b6" d="M 0 3 
C 0.795609 3 1.55874 2.683901 2.12132 2.12132 
C 2.683901 1.55874 3 0.795609 3 0 
C 3 -0.795609 2.683901 -1.55874 2.12132 -2.12132 
C 1.55874 -2.683901 0.795609 -3 0 -3 
C -0.795609 -3 -1.55874 -2.683901 -2.12132 -2.12132 
C -2.683901 -1.55874 -3 -0.795609 -3 0 
C -3 0.795609 -2.683901 1.55874 -2.12132 2.12132 
C -1.55874 2.683901 -0.795609 3 0 3 
z
" style="stroke: #9467bd"/>
    </defs>
    <g clip-path="url(#pd02ca9cdd1)">
     <use xlink:href="#m39110855b6" x="559.728858" y="303.692168" style="fill: #9467bd; stroke: #9467bd"/>
     <use xlink:href="#m39110855b6" x="662.070729" y="294.343049" style="fill: #9467bd; stroke: #9467bd"/>
     <use xlink:href="#m39110855b6" x="764.4126" y="291.070857" style="fill: #9467bd; stroke: #9467bd"/>
     <use xlink:href="#m39110855b6" x="866.754472" y="299.95252" style="fill: #9467bd; stroke: #9467bd"/>
     <use xlink:href="#m39110855b6" x="969.096343" y="301.822344" style="fill: #9467bd; stroke: #9467bd"/>
    </g>
   </g>
   <g id="line2d_45">
    <path d="M 559.728858 303.692168 
L 662.070729 302.2898 
L 764.4126 298.082696 
L 866.754472 302.2898 
L 969.096343 302.2898 
" clip-path="url(#pd02ca9cdd1)" style="fill: none; stroke: #2ca02c; stroke-width: 2; stroke-linecap: square"/>
    <defs>
     <path id="m12c232d1d1" d="M 0 3 
C 0.795609 3 1.55874 2.683901 2.12132 2.12132 
C 2.683901 1.55874 3 0.795609 3 0 
C 3 -0.795609 2.683901 -1.55874 2.12132 -2.12132 
C 1.55874 -2.683901 0.795609 -3 0 -3 
C -0.795609 -3 -1.55874 -2.683901 -2.12132 -2.12132 
C -2.683901 -1.55874 -3 -0.795609 -3 0 
C -3 0.795609 -2.683901 1.55874 -2.12132 2.12132 
C -1.55874 2.683901 -0.795609 3 0 3 
z
" style="stroke: #2ca02c"/>
    </defs>
    <g clip-path="url(#pd02ca9cdd1)">
     <use xlink:href="#m12c232d1d1" x="559.728858" y="303.692168" style="fill: #2ca02c; stroke: #2ca02c"/>
     <use xlink:href="#m12c232d1d1" x="662.070729" y="302.2898" style="fill: #2ca02c; stroke: #2ca02c"/>
     <use xlink:href="#m12c232d1d1" x="764.4126" y="298.082696" style="fill: #2ca02c; stroke: #2ca02c"/>
     <use xlink:href="#m12c232d1d1" x="866.754472" y="302.2898" style="fill: #2ca02c; stroke: #2ca02c"/>
     <use xlink:href="#m12c232d1d1" x="969.096343" y="302.2898" style="fill: #2ca02c; stroke: #2ca02c"/>
    </g>
   </g>
   <g id="patch_36">
    <path d="M 539.260484 306.496904 
L 539.260484 23.218594 
" style="fill: none; stroke: #cbd5e1; stroke-linejoin: miter; stroke-linecap: square"/>
   </g>
   <g id="patch_37">
    <path d="M 539.260484 306.496904 
L 989.564717 306.496904 
" style="fill: none; stroke: #cbd5e1; stroke-linejoin: miter; stroke-linecap: square"/>
   </g>
   <g id="text_26">
    <!-- Failure-Risk Envelope -->
    <g style="fill: #0f172a" transform="translate(694.92928 17.218594) scale(0.145 -0.145)">
     <defs>
      <path id="STIXGeneral-Bold-46" d="M 3731 3034 
L 3578 3034 
Q 3514 3398 3437 3555 
Q 3360 3712 3194 3859 
Q 2906 4109 2150 4109 
Q 1907 4109 1804 4035 
Q 1702 3962 1702 3782 
L 1702 2323 
Q 2182 2323 2400 2531 
Q 2618 2739 2682 3277 
L 2842 3277 
L 2842 1114 
L 2682 1114 
Q 2637 1670 2419 1881 
Q 2202 2093 1702 2106 
L 1702 646 
Q 1702 371 1836 275 
Q 1971 179 2406 160 
L 2406 0 
L 102 0 
L 102 160 
Q 454 198 560 294 
Q 666 390 666 659 
L 666 3680 
Q 666 3955 550 4051 
Q 435 4147 102 4166 
L 102 4326 
L 3731 4326 
L 3731 3034 
z
" transform="scale(0.015625)"/>
      <path id="STIXGeneral-Bold-2d" d="M 1837 1094 
L 282 1094 
L 282 1837 
L 1837 1837 
L 1837 1094 
z
" transform="scale(0.015625)"/>
      <path id="STIXGeneral-Bold-6b" d="M 3475 0 
L 1978 0 
L 1978 154 
Q 2246 166 2246 275 
Q 2246 352 2093 563 
L 1485 1421 
L 1338 1267 
L 1338 538 
Q 1338 314 1392 250 
Q 1446 186 1670 154 
L 1670 0 
L 141 0 
L 141 154 
Q 448 179 448 538 
L 448 3802 
Q 448 4147 141 4173 
L 141 4326 
L 1338 4326 
L 1338 1568 
L 2157 2387 
Q 2291 2522 2291 2630 
Q 2291 2746 2067 2778 
L 1914 2803 
L 1914 2950 
L 3283 2950 
L 3283 2803 
Q 2982 2765 2768 2617 
Q 2554 2470 2074 1965 
L 3315 250 
Q 3386 154 3475 154 
L 3475 0 
z
" transform="scale(0.015625)"/>
      <path id="STIXGeneral-Bold-45" d="M 4102 1331 
L 3846 0 
L 102 0 
L 102 160 
Q 448 198 557 294 
Q 666 390 666 646 
L 666 3712 
Q 666 3955 550 4051 
Q 435 4147 102 4166 
L 102 4326 
L 3795 4326 
L 3795 3040 
L 3635 3040 
Q 3526 3680 3216 3894 
Q 2906 4109 2118 4109 
Q 1875 4109 1788 4032 
Q 1702 3955 1702 3763 
L 1702 2323 
Q 2221 2330 2451 2531 
Q 2682 2733 2739 3277 
L 2906 3277 
L 2906 1114 
L 2739 1114 
Q 2694 1677 2464 1891 
Q 2234 2106 1702 2106 
L 1702 557 
Q 1702 352 1814 275 
Q 1926 198 2234 198 
Q 2982 198 3398 544 
Q 3558 672 3667 838 
Q 3776 1005 3923 1331 
L 4102 1331 
z
" transform="scale(0.015625)"/>
      <path id="STIXGeneral-Bold-76" d="M 3104 2950 
L 3104 2797 
Q 2950 2784 2886 2723 
Q 2822 2662 2733 2445 
L 1709 -90 
L 1542 -90 
L 774 1805 
Q 474 2547 352 2707 
Q 301 2771 134 2797 
L 134 2950 
L 1734 2950 
L 1734 2797 
L 1619 2784 
Q 1395 2758 1395 2630 
Q 1395 2573 1453 2432 
L 1958 1133 
L 2419 2298 
Q 2490 2464 2490 2586 
Q 2490 2701 2416 2742 
Q 2342 2784 2138 2797 
L 2138 2950 
L 3104 2950 
z
" transform="scale(0.015625)"/>
     </defs>
     <use xlink:href="#STIXGeneral-Bold-46"/>
     <use xlink:href="#STIXGeneral-Bold-61" transform="translate(61.099991 0)"/>
     <use xlink:href="#STIXGeneral-Bold-69" transform="translate(111.099976 0)"/>
     <use xlink:href="#STIXGeneral-Bold-6c" transform="translate(138.899963 0)"/>
     <use xlink:href="#STIXGeneral-Bold-75" transform="translate(166.699951 0)"/>
     <use xlink:href="#STIXGeneral-Bold-72" transform="translate(222.299942 0)"/>
     <use xlink:href="#STIXGeneral-Bold-65" transform="translate(266.699936 0)"/>
     <use xlink:href="#STIXGeneral-Bold-2d" transform="translate(311.09993 0)"/>
     <use xlink:href="#STIXGeneral-Bold-52" transform="translate(344.399918 0)"/>
     <use xlink:href="#STIXGeneral-Bold-69" transform="translate(416.599899 0)"/>
     <use xlink:href="#STIXGeneral-Bold-73" transform="translate(444.399887 0)"/>
     <use xlink:href="#STIXGeneral-Bold-6b" transform="translate(483.299881 0)"/>
     <use xlink:href="#STIXGeneral-Bold-20" transform="translate(538.899872 0)"/>
     <use xlink:href="#STIXGeneral-Bold-45" transform="translate(563.899857 0)"/>
     <use xlink:href="#STIXGeneral-Bold-6e" transform="translate(630.599854 0)"/>
     <use xlink:href="#STIXGeneral-Bold-76" transform="translate(686.199844 0)"/>
     <use xlink:href="#STIXGeneral-Bold-65" transform="translate(736.199829 0)"/>
     <use xlink:href="#STIXGeneral-Bold-6c" transform="translate(780.599823 0)"/>
     <use xlink:href="#STIXGeneral-Bold-6f" transform="translate(808.399811 0)"/>
     <use xlink:href="#STIXGeneral-Bold-70" transform="translate(858.399796 0)"/>
     <use xlink:href="#STIXGeneral-Bold-65" transform="translate(913.999786 0)"/>
    </g>
   </g>
   <g id="legend_1">
    <g id="line2d_46">
     <path d="M 548.710484 36.343594 
L 559.210484 36.343594 
L 569.710484 36.343594 
" style="fill: none; stroke: #7f7f7f; stroke-width: 2; stroke-linecap: square"/>
     <g>
      <use xlink:href="#m111ad19a12" x="559.210484" y="36.343594" style="fill: #7f7f7f; stroke: #7f7f7f"/>
     </g>
    </g>
    <g id="text_27">
     <!-- LS -->
     <g style="fill: #0f172a" transform="translate(578.110484 40.018594) scale(0.105 -0.105)">
      <defs>
       <path id="STIXGeneral-Regular-53" d="M 3002 2963 
L 2842 2963 
Q 2733 3360 2579 3565 
Q 2189 4064 1651 4064 
Q 1357 4064 1181 3894 
Q 1005 3725 1005 3456 
Q 1005 3328 1069 3206 
Q 1133 3085 1206 2998 
Q 1280 2912 1465 2784 
Q 1651 2656 1766 2589 
Q 1882 2522 2150 2362 
Q 2669 2061 2905 1763 
Q 3142 1466 3142 1107 
Q 3142 576 2771 243 
Q 2400 -90 1837 -90 
Q 1421 -90 1082 58 
Q 915 128 781 128 
Q 704 128 653 70 
Q 602 13 602 -83 
L 461 -83 
L 275 1274 
L 416 1274 
Q 845 141 1734 141 
Q 2074 141 2285 342 
Q 2496 544 2496 858 
Q 2496 1158 2310 1363 
Q 2003 1696 1235 2106 
Q 454 2522 454 3206 
Q 454 3718 768 4022 
Q 1082 4326 1568 4326 
Q 1907 4326 2240 4186 
Q 2413 4109 2522 4109 
Q 2688 4109 2726 4326 
L 2861 4326 
L 3002 2963 
z
" transform="scale(0.015625)"/>
      </defs>
      <use xlink:href="#STIXGeneral-Regular-4c"/>
      <use xlink:href="#STIXGeneral-Regular-53" transform="translate(61.099991 0)"/>
     </g>
    </g>
    <g id="line2d_47">
     <path d="M 548.710484 51.222422 
L 559.210484 51.222422 
L 569.710484 51.222422 
" style="fill: none; stroke: #17becf; stroke-width: 2; stroke-linecap: square"/>
     <g>
      <use xlink:href="#m74445eb60b" x="559.210484" y="51.222422" style="fill: #17becf; stroke: #17becf"/>
     </g>
    </g>
    <g id="text_28">
     <!-- Huber -->
     <g style="fill: #0f172a" transform="translate(578.110484 54.897422) scale(0.105 -0.105)">
      <defs>
       <path id="STIXGeneral-Regular-62" d="M 979 4358 
L 979 2406 
Q 1082 2650 1315 2797 
Q 1549 2944 1843 2944 
Q 2349 2944 2672 2541 
Q 2995 2138 2995 1536 
Q 2995 832 2566 384 
Q 2138 -64 1498 -64 
Q 1107 -64 774 67 
Q 442 198 442 358 
L 442 3622 
Q 442 3859 384 3926 
Q 326 3994 128 3994 
Q 83 3994 19 3981 
L 19 4090 
L 211 4147 
Q 864 4346 947 4371 
L 979 4358 
z
M 979 2035 
L 979 474 
Q 979 326 1161 233 
Q 1344 141 1600 141 
Q 1978 141 2195 416 
Q 2432 710 2432 1261 
Q 2432 1888 2182 2240 
Q 1971 2541 1613 2541 
Q 1357 2541 1168 2390 
Q 979 2240 979 2035 
z
" transform="scale(0.015625)"/>
      </defs>
      <use xlink:href="#STIXGeneral-Regular-48"/>
      <use xlink:href="#STIXGeneral-Regular-75" transform="translate(72.199982 0)"/>
      <use xlink:href="#STIXGeneral-Regular-62" transform="translate(122.199966 0)"/>
      <use xlink:href="#STIXGeneral-Regular-65" transform="translate(172.199951 0)"/>
      <use xlink:href="#STIXGeneral-Regular-72" transform="translate(216.599945 0)"/>
     </g>
    </g>
    <g id="line2d_48">
     <path d="M 548.710484 66.10125 
L 559.210484 66.10125 
L 569.710484 66.10125 
" style="fill: none; stroke: #bcbd22; stroke-width: 2; stroke-linecap: square"/>
     <g>
      <use xlink:href="#mfdffafd1d9" x="559.210484" y="66.10125" style="fill: #bcbd22; stroke: #bcbd22"/>
     </g>
    </g>
    <g id="text_29">
     <!-- Tukey -->
     <g style="fill: #0f172a" transform="translate(578.110484 69.77625) scale(0.105 -0.105)">
      <defs>
       <path id="STIXGeneral-Regular-54" d="M 3795 3149 
L 3642 3149 
Q 3539 3674 3353 3821 
Q 3168 3968 2656 3968 
L 2278 3968 
L 2278 710 
Q 2278 346 2387 243 
Q 2496 141 2893 122 
L 2893 0 
L 1024 0 
L 1024 122 
Q 1427 147 1526 256 
Q 1626 365 1626 787 
L 1626 3968 
L 1242 3968 
Q 723 3968 540 3817 
Q 358 3667 262 3149 
L 109 3149 
L 154 4237 
L 3750 4237 
L 3795 3149 
z
" transform="scale(0.015625)"/>
       <path id="STIXGeneral-Regular-6b" d="M 3232 0 
L 1837 0 
L 1837 96 
L 1958 96 
Q 2093 96 2093 192 
Q 2093 250 2022 339 
L 1062 1606 
L 1062 429 
Q 1062 262 1142 185 
Q 1222 109 1414 102 
L 1542 96 
L 1542 0 
L 45 0 
L 45 96 
Q 390 154 457 214 
Q 525 275 525 525 
L 525 3610 
Q 525 3840 467 3920 
Q 410 4000 250 4000 
Q 211 4000 45 3987 
L 45 4090 
L 237 4141 
Q 621 4243 1037 4371 
L 1062 4358 
L 1062 1670 
L 1939 2451 
Q 2086 2586 2086 2675 
Q 2086 2739 2019 2761 
Q 1952 2784 1766 2790 
L 1766 2880 
L 3072 2880 
L 3072 2784 
Q 2752 2784 2505 2646 
Q 2259 2509 1690 1978 
L 1504 1805 
L 2483 563 
Q 2829 122 3232 96 
L 3232 0 
z
" transform="scale(0.015625)"/>
       <path id="STIXGeneral-Regular-79" d="M 3040 2880 
L 3040 2784 
Q 2925 2771 2854 2700 
Q 2784 2630 2720 2458 
L 1760 -160 
Q 1510 -838 1257 -1116 
Q 1005 -1395 640 -1395 
Q 435 -1395 313 -1289 
Q 192 -1184 192 -1024 
Q 192 -902 272 -816 
Q 352 -730 467 -730 
Q 653 -730 800 -813 
Q 883 -858 966 -858 
Q 1101 -858 1286 -576 
Q 1376 -448 1459 -211 
Q 1542 26 1542 115 
Q 1542 198 1274 762 
L 429 2566 
Q 346 2752 90 2790 
L 90 2880 
L 1402 2880 
L 1402 2784 
Q 1197 2778 1117 2739 
Q 1037 2701 1037 2611 
Q 1037 2541 1120 2349 
L 1837 749 
L 2458 2515 
Q 2483 2573 2483 2630 
Q 2483 2784 2189 2784 
L 2189 2880 
L 3040 2880 
z
" transform="scale(0.015625)"/>
      </defs>
      <use xlink:href="#STIXGeneral-Regular-54"/>
      <use xlink:href="#STIXGeneral-Regular-75" transform="translate(61.099991 0)"/>
      <use xlink:href="#STIXGeneral-Regular-6b" transform="translate(111.099976 0)"/>
      <use xlink:href="#STIXGeneral-Regular-65" transform="translate(161.09996 0)"/>
      <use xlink:href="#STIXGeneral-Regular-79" transform="translate(205.499954 0)"/>
     </g>
    </g>
    <g id="line2d_49">
     <path d="M 625.937984 36.343594 
L 636.437984 36.343594 
L 646.937984 36.343594 
" style="fill: none; stroke: #d62728; stroke-width: 2; stroke-linecap: square"/>
     <g>
      <use xlink:href="#m84b5bf10f6" x="636.437984" y="36.343594" style="fill: #d62728; stroke: #d62728"/>
     </g>
    </g>
    <g id="text_30">
     <!-- RANSAC -->
     <g style="fill: #0f172a" transform="translate(655.337984 40.018594) scale(0.105 -0.105)">
      <defs>
       <path id="STIXGeneral-Regular-41" d="M 4525 0 
L 2893 0 
L 2893 122 
Q 3149 122 3245 179 
Q 3334 224 3334 333 
Q 3334 499 3213 781 
L 2950 1382 
L 1274 1382 
L 979 653 
Q 922 506 922 384 
Q 922 237 1027 179 
Q 1133 122 1370 122 
L 1370 0 
L 96 0 
L 96 122 
Q 365 147 486 316 
Q 608 486 902 1190 
L 2221 4314 
L 2349 4314 
L 3923 710 
Q 4064 378 4176 262 
Q 4288 147 4525 122 
L 4525 0 
z
M 2861 1645 
L 2118 3405 
L 1382 1645 
L 2861 1645 
z
" transform="scale(0.015625)"/>
      </defs>
      <use xlink:href="#STIXGeneral-Regular-52"/>
      <use xlink:href="#STIXGeneral-Regular-41" transform="translate(66.699997 0)"/>
      <use xlink:href="#STIXGeneral-Regular-4e" transform="translate(138.899979 0)"/>
      <use xlink:href="#STIXGeneral-Regular-53" transform="translate(211.09996 0)"/>
      <use xlink:href="#STIXGeneral-Regular-41" transform="translate(266.699951 0)"/>
      <use xlink:href="#STIXGeneral-Regular-43" transform="translate(338.899933 0)"/>
     </g>
    </g>
    <g id="line2d_50">
     <path d="M 625.937984 51.222422 
L 636.437984 51.222422 
L 646.937984 51.222422 
" style="fill: none; stroke: #9467bd; stroke-width: 2; stroke-linecap: square"/>
     <g>
      <use xlink:href="#m39110855b6" x="636.437984" y="51.222422" style="fill: #9467bd; stroke: #9467bd"/>
     </g>
    </g>
    <g id="text_31">
     <!-- GNC-GM -->
     <g style="fill: #0f172a" transform="translate(655.337984 54.897422) scale(0.105 -0.105)">
      <defs>
       <path id="STIXGeneral-Regular-47" d="M 4538 2266 
L 4538 2150 
Q 4256 2125 4173 2035 
Q 4090 1946 4090 1638 
L 4090 358 
Q 3539 -90 2464 -90 
Q 1965 -90 1507 89 
Q 1050 269 736 595 
Q 205 1152 205 2093 
Q 205 3155 890 3776 
Q 1491 4326 2419 4326 
Q 2829 4326 3270 4179 
Q 3443 4115 3552 4115 
Q 3654 4115 3731 4176 
Q 3808 4237 3840 4326 
L 3981 4326 
L 4032 2976 
L 3885 2976 
Q 3680 3475 3430 3718 
Q 3059 4070 2496 4070 
Q 1856 4070 1427 3629 
Q 934 3136 934 2074 
Q 934 1190 1395 678 
Q 1856 166 2618 166 
Q 2982 166 3225 281 
Q 3469 397 3469 557 
L 3469 1562 
Q 3469 1933 3376 2025 
Q 3283 2118 2899 2150 
L 2899 2266 
L 4538 2266 
z
" transform="scale(0.015625)"/>
       <path id="STIXGeneral-Regular-2d" d="M 1824 1242 
L 250 1242 
L 250 1645 
L 1824 1645 
L 1824 1242 
z
" transform="scale(0.015625)"/>
      </defs>
      <use xlink:href="#STIXGeneral-Regular-47"/>
      <use xlink:href="#STIXGeneral-Regular-4e" transform="translate(72.199982 0)"/>
      <use xlink:href="#STIXGeneral-Regular-43" transform="translate(144.399963 0)"/>
      <use xlink:href="#STIXGeneral-Regular-2d" transform="translate(211.09996 0)"/>
      <use xlink:href="#STIXGeneral-Regular-47" transform="translate(244.399948 0)"/>
      <use xlink:href="#STIXGeneral-Regular-4d" transform="translate(316.59993 0)"/>
     </g>
    </g>
    <g id="line2d_51">
     <path d="M 625.937984 66.10125 
L 636.437984 66.10125 
L 646.937984 66.10125 
" style="fill: none; stroke: #2ca02c; stroke-width: 2; stroke-linecap: square"/>
     <g>
      <use xlink:href="#m12c232d1d1" x="636.437984" y="66.10125" style="fill: #2ca02c; stroke: #2ca02c"/>
     </g>
    </g>
    <g id="text_32">
     <!-- Proposed -->
     <g style="fill: #0f172a" transform="translate(655.337984 69.77625) scale(0.105 -0.105)">
      <use xlink:href="#STIXGeneral-Regular-50"/>
      <use xlink:href="#STIXGeneral-Regular-72" transform="translate(55.699997 0)"/>
      <use xlink:href="#STIXGeneral-Regular-6f" transform="translate(88.999985 0)"/>
      <use xlink:href="#STIXGeneral-Regular-70" transform="translate(138.999969 0)"/>
      <use xlink:href="#STIXGeneral-Regular-6f" transform="translate(188.999954 0)"/>
      <use xlink:href="#STIXGeneral-Regular-73" transform="translate(238.999939 0)"/>
      <use xlink:href="#STIXGeneral-Regular-65" transform="translate(277.899933 0)"/>
      <use xlink:href="#STIXGeneral-Regular-64" transform="translate(322.299927 0)"/>
     </g>
    </g>
   </g>
  </g>
 </g>
 <defs>
  <clipPath id="p2a62cdb8ef">
   <rect x="42.575" y="23.218594" width="450.304234" height="283.27831"/>
  </clipPath>
  <clipPath id="pd02ca9cdd1">
   <rect x="539.260484" y="23.218594" width="450.304234" height="283.27831"/>
  </clipPath>
 </defs>
</svg>
