<?xml version="1.0" encoding="utf-8" standalone="no"?>
<!DOCTYPE svg PUBLIC "-//W3C//DTD SVG 1.1//EN"
  "http://www.w3.org/Graphics/SVG/1.1/DTD/svg11.dtd">
<svg xmlns:xlink="http://www.w3.org/1999/xlink" width="914.205pt" height="323.825797pt" viewBox="0 0 914.205 323.825797" xmlns="http://www.w3.org/2000/svg" version="1.1">
 <metadata>
  <rdf:RDF xmlns:dc="http://purl.org/dc/elements/1.1/" xmlns:cc="http://creativecommons.org/ns#" xmlns:rdf="http://www.w3.org/1999/02/22-rdf-syntax-ns#">
   <cc:Work>
    <dc:type rdf:resource="http://purl.org/dc/dcmitype/StillImage"/>
    <dc:date>2026-04-19T18:22:14.761645</dc:date>
    <dc:format>image/svg+xml</dc:format>
    <dc:creator>
     <cc:Agent>
      <dc:title>Matplotlib v3.10.8, https://matplotlib.org/</dc:title>
     </cc:Agent>
    </dc:creator>
   </cc:Work>
  </rdf:RDF>
 </metadata>
 <defs>
  <style type="text/css">*{stroke-linejoin: round; stroke-linecap: butt}</style>
 </defs>
 <g id="figure_1">
  <g id="patch_1">
   <path d="M 0 323.825797 
L 914.205 323.825797 
L 914.205 0 
L 0 0 
z
" style="fill: #ffffff"/>
  </g>
  <g id="axes_1">
   <g id="patch_2">
    <path d="M 42.575 281.136424 
L 451.605 281.136424 
L 451.605 23.218594 
L 42.575 23.218594 
z
" style="fill: #fcfcfd"/>
   </g>
   <g id="patch_3">
    <path d="M 61.167273 281.136424 
L 123.141515 281.136424 
L 123.141515 76.122421 
L 61.167273 76.122421 
z
" clip-path="url(#p3143462786)" style="fill: #7f7f7f"/>
   </g>
   <g id="patch_4">
    <path d="M 138.635076 281.136424 
L 200.609318 281.136424 
L 200.609318 35.500395 
L 138.635076 35.500395 
z
" clip-path="url(#p3143462786)" style="fill: #1f77b4"/>
   </g>
   <g id="patch_5">
    <path d="M 216.102879 281.136424 
L 278.077121 281.136424 
L 278.077121 37.366847 
L 216.102879 37.366847 
z
" clip-path="url(#p3143462786)" style="fill: #d62728"/>
   </g>
   <g id="patch_6">
    <path d="M 293.570682 281.136424 
L 355.544924 281.136424 
L 355.544924 44.570346 
L 293.570682 44.570346 
z
" clip-path="url(#p3143462786)" style="fill: #17becf"/>
   </g>
   <g id="patch_7">
    <path d="M 371.038485 281.136424 
L 433.012727 281.136424 
L 433.012727 38.287274 
L 371.038485 38.287274 
z
" clip-path="url(#p3143462786)" style="fill: #2ca02c"/>
   </g>
   <g id="matplotlib.axis_1">
    <g id="xtick_1">
     <g id="line2d_1">
      <defs>
       <path id="m23b31dfee3" d="M 0 0 
L 0 3.5 
" style="stroke: #334155; stroke-width: 0.8"/>
      </defs>
      <g>
       <use xlink:href="#m23b31dfee3" x="92.154394" y="281.136424" style="fill: #334155; stroke: #334155; stroke-width: 0.8"/>
      </g>
     </g>
     <g id="text_1">
      <!-- All sensors -->
      <g style="fill: #334155" transform="translate(69.964618 306.454742) rotate(-14) scale(0.105 -0.105)">
       <defs>
        <path id="STIXGeneral-Regular-41" d="M 4525 0 
L 2893 0 
L 2893 122 
Q 3149 122 3245 179 
Q 3334 224 3334 333 
Q 3334 499 3213 781 
L 2950 1382 
L 1274 1382 
L 979 653 
Q 922 506 922 384 
Q 922 237 1027 179 
Q 1133 122 1370 122 
L 1370 0 
L 96 0 
L 96 122 
Q 365 147 486 316 
Q 608 486 902 1190 
L 2221 4314 
L 2349 4314 
L 3923 710 
Q 4064 378 4176 262 
Q 4288 147 4525 122 
L 4525 0 
z
M 2861 1645 
L 2118 3405 
L 1382 1645 
L 2861 1645 
z
" transform="scale(0.015625)"/>
        <path id="STIXGeneral-Regular-6c" d="M 1645 0 
L 134 0 
L 134 96 
Q 435 122 531 221 
Q 627 320 627 589 
L 627 3590 
Q 627 3821 569 3910 
Q 512 4000 358 4000 
Q 224 4000 122 3987 
L 122 4090 
Q 730 4237 1133 4371 
L 1165 4346 
L 1165 557 
Q 1165 288 1254 201 
Q 1344 115 1645 96 
L 1645 0 
z
" transform="scale(0.015625)"/>
        <path id="STIXGeneral-Regular-20" transform="scale(0.015625)"/>
        <path id="STIXGeneral-Regular-73" d="M 998 1926 
L 1664 1523 
Q 1984 1331 2105 1164 
Q 2227 998 2227 736 
Q 2227 416 1961 176 
Q 1696 -64 1331 -64 
Q 1030 -64 864 -6 
Q 691 51 570 51 
Q 461 51 416 -26 
L 333 -26 
L 333 979 
L 435 979 
Q 538 512 730 294 
Q 922 77 1248 77 
Q 1485 77 1632 211 
Q 1779 346 1779 550 
Q 1779 845 1440 1030 
L 1094 1222 
Q 326 1651 326 2150 
Q 326 2522 566 2730 
Q 806 2938 1210 2938 
Q 1491 2938 1638 2867 
Q 1754 2816 1818 2816 
Q 1862 2816 1920 2880 
L 1990 2880 
L 2022 2010 
L 1926 2010 
Q 1818 2445 1654 2621 
Q 1491 2797 1203 2797 
Q 986 2797 854 2688 
Q 723 2579 723 2362 
Q 723 2253 796 2128 
Q 870 2003 998 1926 
z
" transform="scale(0.015625)"/>
        <path id="STIXGeneral-Regular-65" d="M 2611 1050 
L 2714 1005 
Q 2330 -64 1376 -64 
Q 813 -64 486 329 
Q 160 723 160 1389 
Q 160 2074 525 2509 
Q 890 2944 1485 2944 
Q 2061 2944 2374 2502 
Q 2560 2246 2592 1773 
L 621 1773 
Q 646 1370 700 1158 
Q 755 947 915 730 
Q 1184 378 1626 378 
Q 1939 378 2153 531 
Q 2368 685 2611 1050 
z
M 634 1978 
L 1939 1978 
Q 1882 2381 1750 2547 
Q 1619 2714 1312 2714 
Q 1043 2714 864 2525 
Q 685 2336 634 1978 
z
" transform="scale(0.015625)"/>
        <path id="STIXGeneral-Regular-6e" d="M 3104 0 
L 1773 0 
L 1779 96 
Q 2016 115 2096 233 
Q 2176 352 2176 672 
L 2176 1946 
Q 2176 2592 1709 2592 
Q 1549 2592 1408 2515 
Q 1267 2438 1050 2227 
L 1050 461 
Q 1050 269 1136 192 
Q 1222 115 1466 96 
L 1466 0 
L 115 0 
L 115 96 
Q 358 115 435 214 
Q 512 314 512 602 
L 512 2157 
Q 512 2394 467 2483 
Q 422 2573 288 2573 
Q 160 2573 102 2547 
L 102 2656 
Q 550 2784 979 2944 
L 1030 2925 
L 1030 2426 
L 1037 2426 
Q 1491 2944 1958 2944 
Q 2323 2944 2518 2688 
Q 2714 2432 2714 1958 
L 2714 544 
Q 2714 288 2790 205 
Q 2867 122 3104 96 
L 3104 0 
z
" transform="scale(0.015625)"/>
        <path id="STIXGeneral-Regular-6f" d="M 3008 1478 
Q 3008 806 2608 371 
Q 2208 -64 1568 -64 
Q 979 -64 582 368 
Q 186 800 186 1459 
Q 186 2125 582 2534 
Q 979 2944 1626 2944 
Q 2221 2944 2614 2537 
Q 3008 2131 3008 1478 
z
M 2432 1306 
Q 2432 2035 2112 2445 
Q 1856 2765 1504 2765 
Q 1171 2765 966 2493 
Q 762 2221 762 1747 
Q 762 928 1101 435 
Q 1318 115 1677 115 
Q 2029 115 2230 432 
Q 2432 749 2432 1306 
z
" transform="scale(0.015625)"/>
        <path id="STIXGeneral-Regular-72" d="M 1024 2931 
L 1024 2342 
Q 1267 2688 1430 2816 
Q 1594 2944 1792 2944 
Q 1958 2944 2051 2854 
Q 2144 2765 2144 2605 
Q 2144 2470 2077 2393 
Q 2010 2317 1894 2317 
Q 1773 2317 1638 2445 
Q 1536 2541 1472 2541 
Q 1338 2541 1181 2355 
Q 1024 2170 1024 2016 
L 1024 576 
Q 1024 301 1133 205 
Q 1242 109 1568 96 
L 1568 0 
L 32 0 
L 32 96 
Q 339 154 412 224 
Q 486 294 486 538 
L 486 2138 
Q 486 2349 438 2435 
Q 390 2522 269 2522 
Q 166 2522 45 2496 
L 45 2598 
Q 448 2726 992 2944 
L 1024 2931 
z
" transform="scale(0.015625)"/>
       </defs>
       <use xlink:href="#STIXGeneral-Regular-41"/>
       <use xlink:href="#STIXGeneral-Regular-6c" transform="translate(72.199982 0)"/>
       <use xlink:href="#STIXGeneral-Regular-6c" transform="translate(99.999969 0)"/>
       <use xlink:href="#STIXGeneral-Regular-20" transform="translate(127.799957 0)"/>
       <use xlink:href="#STIXGeneral-Regular-73" transform="translate(152.799942 0)"/>
       <use xlink:href="#STIXGeneral-Regular-65" transform="translate(191.699936 0)"/>
       <use xlink:href="#STIXGeneral-Regular-6e" transform="translate(236.09993 0)"/>
       <use xlink:href="#STIXGeneral-Regular-73" transform="translate(286.099915 0)"/>
       <use xlink:href="#STIXGeneral-Regular-6f" transform="translate(324.999908 0)"/>
       <use xlink:href="#STIXGeneral-Regular-72" transform="translate(374.999893 0)"/>
       <use xlink:href="#STIXGeneral-Regular-73" transform="translate(408.299881 0)"/>
      </g>
     </g>
    </g>
    <g id="xtick_2">
     <g id="line2d_2">
      <g>
       <use xlink:href="#m23b31dfee3" x="169.622197" y="281.136424" style="fill: #334155; stroke: #334155; stroke-width: 0.8"/>
      </g>
     </g>
     <g id="text_2">
      <!-- Geometry -->
      <g style="fill: #334155" transform="translate(149.840164 305.243368) rotate(-14) scale(0.105 -0.105)">
       <defs>
        <path id="STIXGeneral-Regular-47" d="M 4538 2266 
L 4538 2150 
Q 4256 2125 4173 2035 
Q 4090 1946 4090 1638 
L 4090 358 
Q 3539 -90 2464 -90 
Q 1965 -90 1507 89 
Q 1050 269 736 595 
Q 205 1152 205 2093 
Q 205 3155 890 3776 
Q 1491 4326 2419 4326 
Q 2829 4326 3270 4179 
Q 3443 4115 3552 4115 
Q 3654 4115 3731 4176 
Q 3808 4237 3840 4326 
L 3981 4326 
L 4032 2976 
L 3885 2976 
Q 3680 3475 3430 3718 
Q 3059 4070 2496 4070 
Q 1856 4070 1427 3629 
Q 934 3136 934 2074 
Q 934 1190 1395 678 
Q 1856 166 2618 166 
Q 2982 166 3225 281 
Q 3469 397 3469 557 
L 3469 1562 
Q 3469 1933 3376 2025 
Q 3283 2118 2899 2150 
L 2899 2266 
L 4538 2266 
z
" transform="scale(0.015625)"/>
        <path id="STIXGeneral-Regular-6d" d="M 4960 0 
L 3565 0 
L 3565 96 
Q 3834 122 3907 208 
Q 3981 294 3981 576 
L 3981 1894 
Q 3981 2278 3869 2444 
Q 3757 2611 3488 2611 
Q 3264 2611 3107 2521 
Q 2950 2432 2803 2221 
L 2803 608 
Q 2803 301 2896 201 
Q 2989 102 3264 96 
L 3264 0 
L 1830 0 
L 1830 96 
Q 2112 115 2189 188 
Q 2266 262 2266 550 
L 2266 1901 
Q 2266 2611 1850 2611 
Q 1670 2611 1468 2531 
Q 1267 2451 1171 2336 
Q 1088 2240 1088 2227 
L 1088 448 
Q 1088 243 1177 176 
Q 1267 109 1523 96 
L 1523 0 
L 102 0 
L 102 96 
Q 371 102 460 195 
Q 550 288 550 563 
L 550 2150 
Q 550 2387 499 2480 
Q 448 2573 326 2573 
Q 230 2573 122 2547 
L 122 2656 
Q 557 2778 1011 2944 
L 1062 2925 
L 1062 2451 
L 1075 2451 
Q 1363 2752 1584 2848 
Q 1805 2944 2054 2944 
Q 2560 2944 2733 2406 
Q 3232 2944 3776 2944 
Q 4518 2944 4518 1792 
L 4518 493 
Q 4518 282 4582 202 
Q 4646 122 4794 109 
L 4960 96 
L 4960 0 
z
" transform="scale(0.015625)"/>
        <path id="STIXGeneral-Regular-74" d="M 1702 493 
L 1786 422 
Q 1478 -64 1011 -64 
Q 448 -64 448 749 
L 448 2675 
L 109 2675 
Q 83 2694 83 2720 
Q 83 2771 192 2842 
Q 435 2982 813 3526 
Q 826 3546 874 3606 
Q 922 3667 941 3706 
Q 986 3706 986 3622 
L 986 2880 
L 1632 2880 
L 1632 2675 
L 986 2675 
L 986 845 
Q 986 538 1062 403 
Q 1139 269 1318 269 
Q 1510 269 1702 493 
z
" transform="scale(0.015625)"/>
        <path id="STIXGeneral-Regular-79" d="M 3040 2880 
L 3040 2784 
Q 2925 2771 2854 2700 
Q 2784 2630 2720 2458 
L 1760 -160 
Q 1510 -838 1257 -1116 
Q 1005 -1395 640 -1395 
Q 435 -1395 313 -1289 
Q 192 -1184 192 -1024 
Q 192 -902 272 -816 
Q 352 -730 467 -730 
Q 653 -730 800 -813 
Q 883 -858 966 -858 
Q 1101 -858 1286 -576 
Q 1376 -448 1459 -211 
Q 1542 26 1542 115 
Q 1542 198 1274 762 
L 429 2566 
Q 346 2752 90 2790 
L 90 2880 
L 1402 2880 
L 1402 2784 
Q 1197 2778 1117 2739 
Q 1037 2701 1037 2611 
Q 1037 2541 1120 2349 
L 1837 749 
L 2458 2515 
Q 2483 2573 2483 2630 
Q 2483 2784 2189 2784 
L 2189 2880 
L 3040 2880 
z
" transform="scale(0.015625)"/>
       </defs>
       <use xlink:href="#STIXGeneral-Regular-47"/>
       <use xlink:href="#STIXGeneral-Regular-65" transform="translate(72.199982 0)"/>
       <use xlink:href="#STIXGeneral-Regular-6f" transform="translate(116.599976 0)"/>
       <use xlink:href="#STIXGeneral-Regular-6d" transform="translate(166.59996 0)"/>
       <use xlink:href="#STIXGeneral-Regular-65" transform="translate(244.399948 0)"/>
       <use xlink:href="#STIXGeneral-Regular-74" transform="translate(288.799942 0)"/>
       <use xlink:href="#STIXGeneral-Regular-72" transform="translate(316.59993 0)"/>
       <use xlink:href="#STIXGeneral-Regular-79" transform="translate(349.899918 0)"/>
      </g>
     </g>
    </g>
    <g id="xtick_3">
     <g id="line2d_3">
      <g>
       <use xlink:href="#m23b31dfee3" x="247.09" y="281.136424" style="fill: #334155; stroke: #334155; stroke-width: 0.8"/>
      </g>
     </g>
     <g id="text_3">
      <!-- Geom.+Residual -->
      <g style="fill: #334155" transform="translate(212.638681 312.569035) rotate(-14) scale(0.105 -0.105)">
       <defs>
        <path id="STIXGeneral-Regular-2e" d="M 1158 275 
Q 1158 134 1052 32 
Q 947 -70 800 -70 
Q 653 -70 550 32 
Q 448 134 448 281 
Q 448 429 553 534 
Q 659 640 806 640 
Q 947 640 1052 531 
Q 1158 422 1158 275 
z
" transform="scale(0.015625)"/>
        <path id="STIXGeneral-Regular-2b" d="M 4070 1408 
L 2400 1408 
L 2400 -262 
L 1978 -262 
L 1978 1408 
L 307 1408 
L 307 1830 
L 1978 1830 
L 1978 3501 
L 2400 3501 
L 2400 1830 
L 4070 1830 
L 4070 1408 
z
" transform="scale(0.015625)"/>
        <path id="STIXGeneral-Regular-52" d="M 4224 0 
L 3187 0 
L 1664 1971 
L 1306 1958 
L 1306 717 
Q 1306 352 1405 249 
Q 1504 147 1875 122 
L 1875 0 
L 109 0 
L 109 122 
Q 474 154 563 262 
Q 653 371 653 794 
L 653 3526 
Q 653 3885 563 3987 
Q 474 4090 109 4115 
L 109 4237 
L 1850 4237 
Q 2726 4237 3187 3859 
Q 3501 3603 3501 3091 
Q 3501 2221 2342 2042 
L 3622 422 
Q 3757 256 3878 198 
Q 4000 141 4224 122 
L 4224 0 
z
M 1306 3731 
L 1306 2195 
Q 1766 2202 1990 2246 
Q 2214 2291 2438 2413 
Q 2803 2618 2803 3142 
Q 2803 4000 1632 4000 
Q 1459 4000 1382 3945 
Q 1306 3891 1306 3731 
z
" transform="scale(0.015625)"/>
        <path id="STIXGeneral-Regular-69" d="M 1152 4045 
Q 1152 3904 1056 3811 
Q 960 3718 819 3718 
Q 685 3718 592 3811 
Q 499 3904 499 4045 
Q 499 4179 595 4275 
Q 691 4371 826 4371 
Q 966 4371 1059 4275 
Q 1152 4179 1152 4045 
z
M 1619 0 
L 102 0 
L 102 96 
Q 435 115 521 211 
Q 608 307 608 666 
L 608 2118 
Q 608 2342 563 2432 
Q 518 2522 397 2522 
Q 243 2522 128 2490 
L 128 2592 
L 1120 2944 
L 1146 2918 
L 1146 672 
Q 1146 314 1226 218 
Q 1306 122 1619 96 
L 1619 0 
z
" transform="scale(0.015625)"/>
        <path id="STIXGeneral-Regular-64" d="M 3142 269 
L 2202 -64 
L 2176 -45 
L 2176 365 
Q 1869 -64 1357 -64 
Q 826 -64 499 317 
Q 173 698 173 1312 
Q 173 1990 563 2467 
Q 954 2944 1504 2944 
Q 1850 2944 2176 2669 
L 2176 3667 
Q 2176 3866 2118 3930 
Q 2061 3994 1882 3994 
Q 1792 3994 1741 3987 
L 1741 4090 
Q 2323 4243 2682 4371 
L 2714 4358 
L 2714 730 
Q 2714 506 2768 435 
Q 2822 365 2995 365 
Q 3034 365 3142 371 
L 3142 269 
z
M 2176 653 
L 2176 2125 
Q 2176 2381 1981 2573 
Q 1786 2765 1523 2765 
Q 1158 2765 940 2438 
Q 723 2112 723 1568 
Q 723 979 963 624 
Q 1203 269 1606 269 
Q 1907 269 2080 474 
Q 2176 582 2176 653 
z
" transform="scale(0.015625)"/>
        <path id="STIXGeneral-Regular-75" d="M 3072 320 
L 3072 230 
Q 2573 96 2195 -58 
L 2163 -38 
L 2163 486 
L 2150 486 
Q 1747 -64 1235 -64 
Q 870 -64 662 160 
Q 454 384 454 755 
L 454 2362 
Q 454 2598 371 2688 
Q 288 2778 58 2790 
L 58 2880 
L 992 2880 
L 992 813 
Q 992 595 1123 451 
Q 1254 307 1446 307 
Q 1760 307 1984 506 
Q 2067 582 2099 649 
Q 2131 717 2131 877 
L 2131 2355 
Q 2131 2605 2041 2678 
Q 1952 2752 1658 2771 
L 1658 2880 
L 2669 2880 
L 2669 685 
Q 2669 461 2742 390 
Q 2816 320 3034 320 
L 3072 320 
z
" transform="scale(0.015625)"/>
        <path id="STIXGeneral-Regular-61" d="M 2829 422 
L 2829 243 
Q 2586 -64 2253 -64 
Q 1888 -64 1843 403 
L 1837 403 
Q 1427 -64 909 -64 
Q 608 -64 422 112 
Q 237 288 237 602 
Q 237 1050 685 1350 
Q 992 1555 1837 1869 
L 1837 2214 
Q 1837 2502 1699 2646 
Q 1562 2790 1338 2790 
Q 1146 2790 1018 2697 
Q 890 2605 890 2477 
Q 890 2419 909 2348 
Q 928 2278 928 2208 
Q 928 2112 841 2029 
Q 755 1946 634 1946 
Q 525 1946 441 2029 
Q 358 2112 358 2240 
Q 358 2547 685 2752 
Q 986 2944 1421 2944 
Q 1939 2944 2176 2656 
Q 2291 2522 2323 2384 
Q 2355 2246 2355 1946 
L 2355 723 
Q 2355 301 2554 301 
Q 2682 301 2829 422 
z
M 1837 813 
L 1837 1715 
Q 1248 1510 1018 1293 
Q 800 1094 800 800 
Q 800 557 921 432 
Q 1043 307 1242 307 
Q 1453 307 1613 410 
Q 1747 506 1792 589 
Q 1837 672 1837 813 
z
" transform="scale(0.015625)"/>
       </defs>
       <use xlink:href="#STIXGeneral-Regular-47"/>
       <use xlink:href="#STIXGeneral-Regular-65" transform="translate(72.199982 0)"/>
       <use xlink:href="#STIXGeneral-Regular-6f" transform="translate(116.599976 0)"/>
       <use xlink:href="#STIXGeneral-Regular-6d" transform="translate(166.59996 0)"/>
       <use xlink:href="#STIXGeneral-Regular-2e" transform="translate(244.399948 0)"/>
       <use xlink:href="#STIXGeneral-Regular-2b" transform="translate(269.399933 0)"/>
       <use xlink:href="#STIXGeneral-Regular-52" transform="translate(337.899918 0)"/>
       <use xlink:href="#STIXGeneral-Regular-65" transform="translate(404.599915 0)"/>
       <use xlink:href="#STIXGeneral-Regular-73" transform="translate(448.999908 0)"/>
       <use xlink:href="#STIXGeneral-Regular-69" transform="translate(487.899902 0)"/>
       <use xlink:href="#STIXGeneral-Regular-64" transform="translate(515.69989 0)"/>
       <use xlink:href="#STIXGeneral-Regular-75" transform="translate(565.699875 0)"/>
       <use xlink:href="#STIXGeneral-Regular-61" transform="translate(615.69986 0)"/>
       <use xlink:href="#STIXGeneral-Regular-6c" transform="translate(660.099854 0)"/>
      </g>
     </g>
    </g>
    <g id="xtick_4">
     <g id="line2d_4">
      <g>
       <use xlink:href="#m23b31dfee3" x="324.557803" y="281.136424" style="fill: #334155; stroke: #334155; stroke-width: 0.8"/>
      </g>
     </g>
     <g id="text_4">
      <!-- Geom.+Reliability -->
      <g style="fill: #334155" transform="translate(286.423248 314.405108) rotate(-14) scale(0.105 -0.105)">
       <defs>
        <path id="STIXGeneral-Regular-62" d="M 979 4358 
L 979 2406 
Q 1082 2650 1315 2797 
Q 1549 2944 1843 2944 
Q 2349 2944 2672 2541 
Q 2995 2138 2995 1536 
Q 2995 832 2566 384 
Q 2138 -64 1498 -64 
Q 1107 -64 774 67 
Q 442 198 442 358 
L 442 3622 
Q 442 3859 384 3926 
Q 326 3994 128 3994 
Q 83 3994 19 3981 
L 19 4090 
L 211 4147 
Q 864 4346 947 4371 
L 979 4358 
z
M 979 2035 
L 979 474 
Q 979 326 1161 233 
Q 1344 141 1600 141 
Q 1978 141 2195 416 
Q 2432 710 2432 1261 
Q 2432 1888 2182 2240 
Q 1971 2541 1613 2541 
Q 1357 2541 1168 2390 
Q 979 2240 979 2035 
z
" transform="scale(0.015625)"/>
       </defs>
       <use xlink:href="#STIXGeneral-Regular-47"/>
       <use xlink:href="#STIXGeneral-Regular-65" transform="translate(72.199982 0)"/>
       <use xlink:href="#STIXGeneral-Regular-6f" transform="translate(116.599976 0)"/>
       <use xlink:href="#STIXGeneral-Regular-6d" transform="translate(166.59996 0)"/>
       <use xlink:href="#STIXGeneral-Regular-2e" transform="translate(244.399948 0)"/>
       <use xlink:href="#STIXGeneral-Regular-2b" transform="translate(269.399933 0)"/>
       <use xlink:href="#STIXGeneral-Regular-52" transform="translate(337.899918 0)"/>
       <use xlink:href="#STIXGeneral-Regular-65" transform="translate(404.599915 0)"/>
       <use xlink:href="#STIXGeneral-Regular-6c" transform="translate(448.999908 0)"/>
       <use xlink:href="#STIXGeneral-Regular-69" transform="translate(476.799896 0)"/>
       <use xlink:href="#STIXGeneral-Regular-61" transform="translate(504.599884 0)"/>
       <use xlink:href="#STIXGeneral-Regular-62" transform="translate(548.999878 0)"/>
       <use xlink:href="#STIXGeneral-Regular-69" transform="translate(598.999863 0)"/>
       <use xlink:href="#STIXGeneral-Regular-6c" transform="translate(626.79985 0)"/>
       <use xlink:href="#STIXGeneral-Regular-69" transform="translate(654.599838 0)"/>
       <use xlink:href="#STIXGeneral-Regular-74" transform="translate(682.399826 0)"/>
       <use xlink:href="#STIXGeneral-Regular-79" transform="translate(710.199814 0)"/>
      </g>
     </g>
    </g>
    <g id="xtick_5">
     <g id="line2d_5">
      <g>
       <use xlink:href="#m23b31dfee3" x="402.025606" y="281.136424" style="fill: #334155; stroke: #334155; stroke-width: 0.8"/>
      </g>
     </g>
     <g id="text_5">
      <!-- Full score -->
      <g style="fill: #334155" transform="translate(382.383653 305.184255) rotate(-14) scale(0.105 -0.105)">
       <defs>
        <path id="STIXGeneral-Regular-46" d="M 3494 3322 
L 3334 3322 
Q 3264 3757 3094 3875 
Q 2925 3994 2349 3994 
L 1504 3994 
Q 1370 3994 1328 3946 
Q 1286 3898 1286 3744 
L 1286 2355 
L 2195 2355 
Q 2598 2355 2736 2470 
Q 2874 2586 2918 2963 
L 3066 2963 
L 3066 1472 
L 2918 1472 
Q 2880 1862 2745 1977 
Q 2611 2093 2195 2093 
L 1286 2093 
L 1286 717 
Q 1286 352 1392 246 
Q 1498 141 1869 122 
L 1869 0 
L 70 0 
L 70 122 
Q 435 147 534 259 
Q 634 371 634 787 
L 634 3526 
Q 634 3878 538 3984 
Q 442 4090 77 4115 
L 77 4237 
L 3462 4237 
L 3494 3322 
z
" transform="scale(0.015625)"/>
        <path id="STIXGeneral-Regular-63" d="M 2547 998 
L 2637 941 
Q 2362 403 2112 205 
Q 1786 -64 1376 -64 
Q 845 -64 502 336 
Q 160 736 160 1357 
Q 160 2170 698 2618 
Q 1094 2944 1562 2944 
Q 1965 2944 2256 2749 
Q 2547 2554 2547 2285 
Q 2547 2176 2457 2096 
Q 2368 2016 2246 2016 
Q 2022 2016 1939 2310 
L 1901 2451 
Q 1850 2630 1773 2694 
Q 1696 2758 1523 2758 
Q 1133 2758 893 2451 
Q 653 2144 653 1645 
Q 653 1094 928 745 
Q 1203 397 1645 397 
Q 1920 397 2118 528 
Q 2317 659 2547 998 
z
" transform="scale(0.015625)"/>
       </defs>
       <use xlink:href="#STIXGeneral-Regular-46"/>
       <use xlink:href="#STIXGeneral-Regular-75" transform="translate(55.599991 0)"/>
       <use xlink:href="#STIXGeneral-Regular-6c" transform="translate(105.599976 0)"/>
       <use xlink:href="#STIXGeneral-Regular-6c" transform="translate(133.399963 0)"/>
       <use xlink:href="#STIXGeneral-Regular-20" transform="translate(161.199951 0)"/>
       <use xlink:href="#STIXGeneral-Regular-73" transform="translate(186.199936 0)"/>
       <use xlink:href="#STIXGeneral-Regular-63" transform="translate(225.09993 0)"/>
       <use xlink:href="#STIXGeneral-Regular-6f" transform="translate(269.499924 0)"/>
       <use xlink:href="#STIXGeneral-Regular-72" transform="translate(319.499908 0)"/>
       <use xlink:href="#STIXGeneral-Regular-65" transform="translate(352.799896 0)"/>
      </g>
     </g>
    </g>
   </g>
   <g id="matplotlib.axis_2">
    <g id="ytick_1">
     <g id="line2d_6">
      <path d="M 42.575 281.136424 
L 451.605 281.136424 
" clip-path="url(#p3143462786)" style="fill: none; stroke-dasharray: 0.7,1.155; stroke-dashoffset: 0; stroke: #cbd5e1; stroke-opacity: 0.35; stroke-width: 0.7"/>
     </g>
     <g id="line2d_7">
      <defs>
       <path id="m0e5bc14c35" d="M 0 0 
L -3.5 0 
" style="stroke: #334155; stroke-width: 0.8"/>
      </defs>
      <g>
       <use xlink:href="#m0e5bc14c35" x="42.575" y="281.136424" style="fill: #334155; stroke: #334155; stroke-width: 0.8"/>
      </g>
     </g>
     <g id="text_6">
      <!-- 0.0 -->
      <g style="fill: #334155" transform="translate(22.45 284.72201) scale(0.105 -0.105)">
       <defs>
        <path id="STIXGeneral-Regular-30" d="M 3046 2112 
Q 3046 1683 2963 1302 
Q 2880 922 2717 602 
Q 2554 282 2266 96 
Q 1978 -90 1600 -90 
Q 1210 -90 915 108 
Q 621 307 461 640 
Q 301 973 227 1350 
Q 154 1728 154 2150 
Q 154 2746 301 3222 
Q 448 3699 790 4012 
Q 1133 4326 1626 4326 
Q 2253 4326 2649 3712 
Q 3046 3098 3046 2112 
z
M 2432 2080 
Q 2432 3091 2217 3625 
Q 2003 4160 1587 4160 
Q 1190 4160 979 3622 
Q 768 3085 768 2106 
Q 768 1120 979 598 
Q 1190 77 1600 77 
Q 2003 77 2217 598 
Q 2432 1120 2432 2080 
z
" transform="scale(0.015625)"/>
       </defs>
       <use xlink:href="#STIXGeneral-Regular-30"/>
       <use xlink:href="#STIXGeneral-Regular-2e" transform="translate(49.999985 0)"/>
       <use xlink:href="#STIXGeneral-Regular-30" transform="translate(74.999969 0)"/>
      </g>
     </g>
    </g>
    <g id="ytick_2">
     <g id="line2d_8">
      <path d="M 42.575 239.196944 
L 451.605 239.196944 
" clip-path="url(#p3143462786)" style="fill: none; stroke-dasharray: 0.7,1.155; stroke-dashoffset: 0; stroke: #cbd5e1; stroke-opacity: 0.35; stroke-width: 0.7"/>
     </g>
     <g id="line2d_9">
      <g>
       <use xlink:href="#m0e5bc14c35" x="42.575" y="239.196944" style="fill: #334155; stroke: #334155; stroke-width: 0.8"/>
      </g>
     </g>
     <g id="text_7">
      <!-- 0.1 -->
      <g style="fill: #334155" transform="translate(22.45 242.78253) scale(0.105 -0.105)">
       <defs>
        <path id="STIXGeneral-Regular-31" d="M 2522 0 
L 755 0 
L 755 96 
Q 1107 115 1235 227 
Q 1363 339 1363 608 
L 1363 3482 
Q 1363 3795 1171 3795 
Q 1082 3795 883 3718 
L 710 3654 
L 710 3744 
L 1856 4326 
L 1914 4307 
L 1914 486 
Q 1914 275 2042 185 
Q 2170 96 2522 96 
L 2522 0 
z
" transform="scale(0.015625)"/>
       </defs>
       <use xlink:href="#STIXGeneral-Regular-30"/>
       <use xlink:href="#STIXGeneral-Regular-2e" transform="translate(49.999985 0)"/>
       <use xlink:href="#STIXGeneral-Regular-31" transform="translate(74.999969 0)"/>
      </g>
     </g>
    </g>
    <g id="ytick_3">
     <g id="line2d_10">
      <path d="M 42.575 197.257464 
L 451.605 197.257464 
" clip-path="url(#p3143462786)" style="fill: none; stroke-dasharray: 0.7,1.155; stroke-dashoffset: 0; stroke: #cbd5e1; stroke-opacity: 0.35; stroke-width: 0.7"/>
     </g>
     <g id="line2d_11">
      <g>
       <use xlink:href="#m0e5bc14c35" x="42.575" y="197.257464" style="fill: #334155; stroke: #334155; stroke-width: 0.8"/>
      </g>
     </g>
     <g id="text_8">
      <!-- 0.2 -->
      <g style="fill: #334155" transform="translate(22.45 200.84305) scale(0.105 -0.105)">
       <defs>
        <path id="STIXGeneral-Regular-32" d="M 3034 877 
L 2688 0 
L 186 0 
L 186 77 
L 1325 1286 
Q 1773 1754 1965 2144 
Q 2157 2534 2157 2950 
Q 2157 3379 1920 3616 
Q 1683 3853 1267 3853 
Q 922 3853 720 3673 
Q 518 3494 326 3021 
L 192 3053 
Q 301 3648 630 3987 
Q 960 4326 1523 4326 
Q 2054 4326 2380 4006 
Q 2707 3686 2707 3200 
Q 2707 2477 1888 1613 
L 832 486 
L 2330 486 
Q 2541 486 2665 569 
Q 2790 653 2944 915 
L 3034 877 
z
" transform="scale(0.015625)"/>
       </defs>
       <use xlink:href="#STIXGeneral-Regular-30"/>
       <use xlink:href="#STIXGeneral-Regular-2e" transform="translate(49.999985 0)"/>
       <use xlink:href="#STIXGeneral-Regular-32" transform="translate(74.999969 0)"/>
      </g>
     </g>
    </g>
    <g id="ytick_4">
     <g id="line2d_12">
      <path d="M 42.575 155.317984 
L 451.605 155.317984 
" clip-path="url(#p3143462786)" style="fill: none; stroke-dasharray: 0.7,1.155; stroke-dashoffset: 0; stroke: #cbd5e1; stroke-opacity: 0.35; stroke-width: 0.7"/>
     </g>
     <g id="line2d_13">
      <g>
       <use xlink:href="#m0e5bc14c35" x="42.575" y="155.317984" style="fill: #334155; stroke: #334155; stroke-width: 0.8"/>
      </g>
     </g>
     <g id="text_9">
      <!-- 0.3 -->
      <g style="fill: #334155" transform="translate(22.45 158.90357) scale(0.105 -0.105)">
       <defs>
        <path id="STIXGeneral-Regular-33" d="M 390 3264 
L 288 3290 
Q 435 3770 748 4048 
Q 1062 4326 1542 4326 
Q 1990 4326 2265 4083 
Q 2541 3840 2541 3450 
Q 2541 2925 1946 2566 
Q 2298 2413 2477 2227 
Q 2758 1914 2758 1402 
Q 2758 890 2464 506 
Q 2246 211 1840 60 
Q 1434 -90 979 -90 
Q 262 -90 262 275 
Q 262 378 339 442 
Q 416 506 525 506 
Q 685 506 915 339 
Q 1197 141 1466 141 
Q 1818 141 2058 425 
Q 2298 710 2298 1120 
Q 2298 1856 1632 2048 
Q 1434 2112 979 2112 
L 979 2202 
Q 1338 2323 1517 2432 
Q 2035 2726 2035 3290 
Q 2035 3610 1852 3776 
Q 1670 3942 1344 3942 
Q 768 3942 390 3264 
z
" transform="scale(0.015625)"/>
       </defs>
       <use xlink:href="#STIXGeneral-Regular-30"/>
       <use xlink:href="#STIXGeneral-Regular-2e" transform="translate(49.999985 0)"/>
       <use xlink:href="#STIXGeneral-Regular-33" transform="translate(74.999969 0)"/>
      </g>
     </g>
    </g>
    <g id="ytick_5">
     <g id="line2d_14">
      <path d="M 42.575 113.378503 
L 451.605 113.378503 
" clip-path="url(#p3143462786)" style="fill: none; stroke-dasharray: 0.7,1.155; stroke-dashoffset: 0; stroke: #cbd5e1; stroke-opacity: 0.35; stroke-width: 0.7"/>
     </g>
     <g id="line2d_15">
      <g>
       <use xlink:href="#m0e5bc14c35" x="42.575" y="113.378503" style="fill: #334155; stroke: #334155; stroke-width: 0.8"/>
      </g>
     </g>
     <g id="text_10">
      <!-- 0.4 -->
      <g style="fill: #334155" transform="translate(22.45 116.964089) scale(0.105 -0.105)">
       <defs>
        <path id="STIXGeneral-Regular-34" d="M 3027 1069 
L 2368 1069 
L 2368 0 
L 1869 0 
L 1869 1069 
L 77 1069 
L 77 1478 
L 2086 4326 
L 2368 4326 
L 2368 1478 
L 3027 1478 
L 3027 1069 
z
M 1869 1478 
L 1869 3674 
L 333 1478 
L 1869 1478 
z
" transform="scale(0.015625)"/>
       </defs>
       <use xlink:href="#STIXGeneral-Regular-30"/>
       <use xlink:href="#STIXGeneral-Regular-2e" transform="translate(49.999985 0)"/>
       <use xlink:href="#STIXGeneral-Regular-34" transform="translate(74.999969 0)"/>
      </g>
     </g>
    </g>
    <g id="ytick_6">
     <g id="line2d_16">
      <path d="M 42.575 71.439023 
L 451.605 71.439023 
" clip-path="url(#p3143462786)" style="fill: none; stroke-dasharray: 0.7,1.155; stroke-dashoffset: 0; stroke: #cbd5e1; stroke-opacity: 0.35; stroke-width: 0.7"/>
     </g>
     <g id="line2d_17">
      <g>
       <use xlink:href="#m0e5bc14c35" x="42.575" y="71.439023" style="fill: #334155; stroke: #334155; stroke-width: 0.8"/>
      </g>
     </g>
     <g id="text_11">
      <!-- 0.5 -->
      <g style="fill: #334155" transform="translate(22.45 75.024609) scale(0.105 -0.105)">
       <defs>
        <path id="STIXGeneral-Regular-35" d="M 2803 4358 
L 2573 3814 
Q 2534 3731 2400 3731 
L 1158 3731 
L 902 3187 
Q 1606 3053 1920 2896 
Q 2234 2739 2502 2368 
Q 2726 2061 2726 1555 
Q 2726 1094 2576 780 
Q 2426 467 2099 224 
Q 1664 -90 1011 -90 
Q 646 -90 422 19 
Q 198 128 198 307 
Q 198 550 486 550 
Q 717 550 960 352 
Q 1210 147 1414 147 
Q 1747 147 2012 480 
Q 2278 813 2278 1229 
Q 2278 1843 1850 2189 
Q 1293 2637 486 2637 
Q 410 2637 410 2688 
L 416 2720 
L 1114 4237 
L 2438 4237 
Q 2547 4237 2608 4269 
Q 2669 4301 2746 4403 
L 2803 4358 
z
" transform="scale(0.015625)"/>
       </defs>
       <use xlink:href="#STIXGeneral-Regular-30"/>
       <use xlink:href="#STIXGeneral-Regular-2e" transform="translate(49.999985 0)"/>
       <use xlink:href="#STIXGeneral-Regular-35" transform="translate(74.999969 0)"/>
      </g>
     </g>
    </g>
    <g id="ytick_7">
     <g id="line2d_18">
      <path d="M 42.575 29.499543 
L 451.605 29.499543 
" clip-path="url(#p3143462786)" style="fill: none; stroke-dasharray: 0.7,1.155; stroke-dashoffset: 0; stroke: #cbd5e1; stroke-opacity: 0.35; stroke-width: 0.7"/>
     </g>
     <g id="line2d_19">
      <g>
       <use xlink:href="#m0e5bc14c35" x="42.575" y="29.499543" style="fill: #334155; stroke: #334155; stroke-width: 0.8"/>
      </g>
     </g>
     <g id="text_12">
      <!-- 0.6 -->
      <g style="fill: #334155" transform="translate(22.45 33.085129) scale(0.105 -0.105)">
       <defs>
        <path id="STIXGeneral-Regular-36" d="M 2854 4378 
L 2867 4275 
Q 2112 4154 1606 3664 
Q 1101 3174 973 2451 
Q 1344 2739 1786 2739 
Q 2349 2739 2672 2380 
Q 2995 2022 2995 1402 
Q 2995 774 2669 378 
Q 2291 -90 1651 -90 
Q 870 -90 518 557 
Q 218 1107 218 1786 
Q 218 2835 915 3552 
Q 1312 3962 1731 4131 
Q 2150 4301 2854 4378 
z
M 2419 1203 
Q 2419 2445 1555 2445 
Q 1235 2445 1024 2275 
Q 813 2106 813 1702 
Q 813 954 1046 522 
Q 1280 90 1722 90 
Q 2061 90 2240 394 
Q 2419 698 2419 1203 
z
" transform="scale(0.015625)"/>
       </defs>
       <use xlink:href="#STIXGeneral-Regular-30"/>
       <use xlink:href="#STIXGeneral-Regular-2e" transform="translate(49.999985 0)"/>
       <use xlink:href="#STIXGeneral-Regular-36" transform="translate(74.999969 0)"/>
      </g>
     </g>
    </g>
    <g id="text_13">
     <!-- Overall median error -->
     <g style="fill: #0f172a" transform="translate(15.737109 204.590595) rotate(-90) scale(0.125 -0.125)">
      <defs>
       <path id="STIXGeneral-Regular-4f" d="M 4403 2118 
Q 4403 1133 3820 521 
Q 3238 -90 2310 -90 
Q 1376 -90 797 524 
Q 218 1139 218 2138 
Q 218 3110 797 3718 
Q 1376 4326 2310 4326 
Q 3245 4326 3824 3702 
Q 4403 3078 4403 2118 
z
M 3674 2157 
Q 3674 2701 3520 3133 
Q 3366 3565 3091 3795 
Q 2733 4096 2304 4096 
Q 1760 4096 1389 3667 
Q 1184 3437 1065 3011 
Q 947 2586 947 2125 
Q 947 960 1523 429 
Q 1837 141 2317 141 
Q 2816 141 3142 448 
Q 3674 960 3674 2157 
z
" transform="scale(0.015625)"/>
       <path id="STIXGeneral-Regular-76" d="M 3053 2880 
L 3053 2784 
Q 2906 2771 2835 2688 
Q 2765 2605 2637 2285 
L 1818 230 
Q 1690 -90 1638 -90 
Q 1587 -90 1523 77 
Q 1510 96 1497 141 
Q 1485 186 1472 211 
L 704 2048 
Q 499 2534 403 2652 
Q 307 2771 122 2784 
L 122 2880 
L 1376 2880 
L 1376 2784 
Q 1210 2771 1146 2732 
Q 1082 2694 1082 2611 
Q 1082 2509 1139 2368 
L 1792 730 
L 2426 2387 
Q 2464 2483 2464 2579 
Q 2464 2758 2163 2784 
L 2163 2880 
L 3053 2880 
z
" transform="scale(0.015625)"/>
      </defs>
      <use xlink:href="#STIXGeneral-Regular-4f"/>
      <use xlink:href="#STIXGeneral-Regular-76" transform="translate(72.199982 0)"/>
      <use xlink:href="#STIXGeneral-Regular-65" transform="translate(122.199966 0)"/>
      <use xlink:href="#STIXGeneral-Regular-72" transform="translate(166.59996 0)"/>
      <use xlink:href="#STIXGeneral-Regular-61" transform="translate(199.899948 0)"/>
      <use xlink:href="#STIXGeneral-Regular-6c" transform="translate(244.299942 0)"/>
      <use xlink:href="#STIXGeneral-Regular-6c" transform="translate(272.09993 0)"/>
      <use xlink:href="#STIXGeneral-Regular-20" transform="translate(299.899918 0)"/>
      <use xlink:href="#STIXGeneral-Regular-6d" transform="translate(324.899902 0)"/>
      <use xlink:href="#STIXGeneral-Regular-65" transform="translate(402.69989 0)"/>
      <use xlink:href="#STIXGeneral-Regular-64" transform="translate(447.099884 0)"/>
      <use xlink:href="#STIXGeneral-Regular-69" transform="translate(497.099869 0)"/>
      <use xlink:href="#STIXGeneral-Regular-61" transform="translate(524.899857 0)"/>
      <use xlink:href="#STIXGeneral-Regular-6e" transform="translate(569.29985 0)"/>
      <use xlink:href="#STIXGeneral-Regular-20" transform="translate(619.299835 0)"/>
      <use xlink:href="#STIXGeneral-Regular-65" transform="translate(644.29982 0)"/>
      <use xlink:href="#STIXGeneral-Regular-72" transform="translate(688.699814 0)"/>
      <use xlink:href="#STIXGeneral-Regular-72" transform="translate(721.999802 0)"/>
      <use xlink:href="#STIXGeneral-Regular-6f" transform="translate(755.299789 0)"/>
      <use xlink:href="#STIXGeneral-Regular-72" transform="translate(805.299774 0)"/>
     </g>
    </g>
   </g>
   <g id="patch_8">
    <path d="M 42.575 281.136424 
L 42.575 23.218594 
" style="fill: none; stroke: #cbd5e1; stroke-linejoin: miter; stroke-linecap: square"/>
   </g>
   <g id="patch_9">
    <path d="M 42.575 281.136424 
L 451.605 281.136424 
" style="fill: none; stroke: #cbd5e1; stroke-linejoin: miter; stroke-linecap: square"/>
   </g>
   <g id="text_14">
    <!-- 0.49 -->
    <g style="fill: #0f172a" transform="translate(84.279394 74.16914) scale(0.09 -0.09)">
     <defs>
      <path id="STIXGeneral-Regular-39" d="M 378 -141 
L 358 -13 
Q 1094 115 1603 608 
Q 2112 1101 2304 1882 
Q 1933 1517 1344 1517 
Q 826 1517 509 1875 
Q 192 2234 192 2816 
Q 192 3462 573 3894 
Q 954 4326 1523 4326 
Q 2131 4326 2528 3840 
Q 2938 3328 2938 2522 
Q 2938 1958 2742 1462 
Q 2547 966 2170 621 
Q 1773 262 1395 105 
Q 1018 -51 378 -141 
z
M 2317 2272 
L 2317 2522 
Q 2317 4147 1472 4147 
Q 1171 4147 1005 3930 
Q 909 3802 845 3546 
Q 781 3290 781 3034 
Q 781 2464 995 2128 
Q 1210 1792 1568 1792 
Q 1824 1792 2070 1917 
Q 2317 2042 2317 2272 
z
" transform="scale(0.015625)"/>
     </defs>
     <use xlink:href="#STIXGeneral-Regular-30"/>
     <use xlink:href="#STIXGeneral-Regular-2e" transform="translate(49.999985 0)"/>
     <use xlink:href="#STIXGeneral-Regular-34" transform="translate(74.999969 0)"/>
     <use xlink:href="#STIXGeneral-Regular-39" transform="translate(124.999954 0)"/>
    </g>
   </g>
   <g id="text_15">
    <!-- 0.59 -->
    <g style="fill: #0f172a" transform="translate(161.747197 33.547114) scale(0.09 -0.09)">
     <use xlink:href="#STIXGeneral-Regular-30"/>
     <use xlink:href="#STIXGeneral-Regular-2e" transform="translate(49.999985 0)"/>
     <use xlink:href="#STIXGeneral-Regular-35" transform="translate(74.999969 0)"/>
     <use xlink:href="#STIXGeneral-Regular-39" transform="translate(124.999954 0)"/>
    </g>
   </g>
   <g id="text_16">
    <!-- 0.58 -->
    <g style="fill: #0f172a" transform="translate(239.215 35.413566) scale(0.09 -0.09)">
     <defs>
      <path id="STIXGeneral-Regular-38" d="M 2848 992 
Q 2848 499 2505 204 
Q 2163 -90 1587 -90 
Q 1050 -90 704 204 
Q 358 499 358 954 
Q 358 1293 524 1533 
Q 691 1773 1190 2125 
Q 710 2522 553 2765 
Q 397 3008 397 3328 
Q 397 3782 745 4054 
Q 1094 4326 1638 4326 
Q 2106 4326 2410 4060 
Q 2714 3795 2714 3411 
Q 2714 3059 2531 2848 
Q 2349 2637 1856 2374 
Q 2432 1990 2640 1689 
Q 2848 1389 2848 992 
z
M 2272 3411 
Q 2272 3744 2086 3945 
Q 1901 4147 1574 4147 
Q 1248 4147 1059 3977 
Q 870 3808 870 3513 
Q 870 3219 1059 2979 
Q 1248 2739 1670 2490 
Q 1997 2682 2134 2896 
Q 2272 3110 2272 3411 
z
M 1734 1741 
L 1357 1997 
Q 1075 1766 960 1545 
Q 845 1325 845 1011 
Q 845 576 1065 333 
Q 1286 90 1658 90 
Q 1971 90 2166 285 
Q 2362 480 2362 794 
Q 2362 1082 2214 1299 
Q 2067 1517 1734 1741 
z
" transform="scale(0.015625)"/>
     </defs>
     <use xlink:href="#STIXGeneral-Regular-30"/>
     <use xlink:href="#STIXGeneral-Regular-2e" transform="translate(49.999985 0)"/>
     <use xlink:href="#STIXGeneral-Regular-35" transform="translate(74.999969 0)"/>
     <use xlink:href="#STIXGeneral-Regular-38" transform="translate(124.999954 0)"/>
    </g>
   </g>
   <g id="text_17">
    <!-- 0.56 -->
    <g style="fill: #0f172a" transform="translate(316.682803 42.617065) scale(0.09 -0.09)">
     <use xlink:href="#STIXGeneral-Regular-30"/>
     <use xlink:href="#STIXGeneral-Regular-2e" transform="translate(49.999985 0)"/>
     <use xlink:href="#STIXGeneral-Regular-35" transform="translate(74.999969 0)"/>
     <use xlink:href="#STIXGeneral-Regular-36" transform="translate(124.999954 0)"/>
    </g>
   </g>
   <g id="text_18">
    <!-- 0.58 -->
    <g style="fill: #0f172a" transform="translate(394.150606 36.333993) scale(0.09 -0.09)">
     <use xlink:href="#STIXGeneral-Regular-30"/>
     <use xlink:href="#STIXGeneral-Regular-2e" transform="translate(49.999985 0)"/>
     <use xlink:href="#STIXGeneral-Regular-35" transform="translate(74.999969 0)"/>
     <use xlink:href="#STIXGeneral-Regular-38" transform="translate(124.999954 0)"/>
    </g>
   </g>
   <g id="text_19">
    <!-- Score-term ablation -->
    <g style="fill: #0f172a" transform="translate(185.276953 17.218594) scale(0.145 -0.145)">
     <defs>
      <path id="STIXGeneral-Bold-53" d="M 3098 3034 
L 2918 3034 
Q 2752 3578 2470 3866 
Q 2125 4224 1683 4224 
Q 1357 4224 1168 4048 
Q 979 3872 979 3590 
Q 979 3360 1113 3213 
Q 1248 3066 1638 2861 
Q 1754 2797 2077 2633 
Q 2400 2470 2586 2368 
Q 2899 2195 3091 1897 
Q 3283 1600 3283 1242 
Q 3283 634 2844 256 
Q 2406 -122 1696 -122 
Q 1306 -122 864 32 
Q 666 96 602 96 
Q 525 96 480 48 
Q 435 0 410 -122 
L 224 -122 
L 224 1466 
L 410 1466 
Q 557 851 794 550 
Q 1158 90 1715 90 
Q 2086 90 2304 285 
Q 2522 480 2522 813 
Q 2522 1120 2157 1376 
Q 1997 1491 1376 1792 
Q 806 2067 544 2368 
Q 282 2669 282 3136 
Q 282 3744 656 4083 
Q 1030 4422 1683 4422 
Q 2035 4422 2432 4275 
Q 2624 4211 2701 4211 
Q 2790 4211 2832 4256 
Q 2874 4301 2906 4429 
L 3098 4429 
L 3098 3034 
z
" transform="scale(0.015625)"/>
      <path id="STIXGeneral-Bold-63" d="M 2637 698 
L 2752 582 
Q 2490 224 2202 67 
Q 1914 -90 1530 -90 
Q 922 -90 541 326 
Q 160 742 160 1421 
Q 160 2125 595 2576 
Q 1030 3027 1677 3027 
Q 2099 3027 2380 2828 
Q 2662 2630 2662 2323 
Q 2662 2138 2544 2026 
Q 2426 1914 2227 1914 
Q 2061 1914 1965 2035 
Q 1869 2157 1869 2381 
Q 1869 2496 1865 2547 
Q 1862 2598 1849 2665 
Q 1837 2733 1811 2761 
Q 1786 2790 1731 2809 
Q 1677 2829 1600 2829 
Q 1357 2829 1209 2544 
Q 1062 2259 1062 1747 
Q 1062 1094 1299 716 
Q 1536 339 1952 339 
Q 2323 339 2637 698 
z
" transform="scale(0.015625)"/>
      <path id="STIXGeneral-Bold-6f" d="M 3046 1466 
Q 3046 794 2633 352 
Q 2221 -90 1600 -90 
Q 992 -90 576 348 
Q 160 787 160 1459 
Q 160 2157 573 2592 
Q 986 3027 1626 3027 
Q 2234 3027 2640 2585 
Q 3046 2144 3046 1466 
z
M 2106 1395 
Q 2106 2214 1997 2521 
Q 1888 2829 1606 2829 
Q 1312 2829 1206 2525 
Q 1101 2221 1101 1395 
Q 1101 698 1216 403 
Q 1331 109 1606 109 
Q 1882 109 1994 393 
Q 2106 678 2106 1395 
z
" transform="scale(0.015625)"/>
      <path id="STIXGeneral-Bold-72" d="M 1395 2950 
L 1395 2426 
Q 1619 2752 1817 2889 
Q 2016 3027 2259 3027 
Q 2483 3027 2630 2883 
Q 2778 2739 2778 2522 
Q 2778 2330 2666 2208 
Q 2554 2086 2374 2086 
Q 2138 2086 1990 2330 
Q 1901 2477 1811 2477 
Q 1645 2477 1533 2285 
Q 1421 2093 1421 1811 
L 1421 678 
Q 1421 371 1507 272 
Q 1594 173 1882 154 
L 1882 0 
L 186 0 
L 186 154 
Q 397 192 464 265 
Q 531 339 531 538 
L 531 2387 
Q 531 2611 460 2688 
Q 390 2765 179 2797 
L 179 2950 
L 1395 2950 
z
" transform="scale(0.015625)"/>
      <path id="STIXGeneral-Bold-65" d="M 2579 806 
L 2733 717 
Q 2451 269 2166 89 
Q 1882 -90 1466 -90 
Q 890 -90 525 342 
Q 160 774 160 1434 
Q 160 2150 528 2588 
Q 896 3027 1498 3027 
Q 2029 3027 2317 2707 
Q 2656 2336 2694 1568 
L 1082 1568 
Q 1101 1299 1133 1116 
Q 1165 934 1241 748 
Q 1318 563 1468 467 
Q 1619 371 1843 371 
Q 2048 371 2214 470 
Q 2381 570 2579 806 
z
M 1907 1805 
L 1907 1939 
Q 1907 2406 1850 2528 
Q 1773 2688 1699 2758 
Q 1626 2829 1498 2829 
Q 1267 2829 1158 2595 
Q 1050 2362 1050 1805 
L 1907 1805 
z
" transform="scale(0.015625)"/>
      <path id="STIXGeneral-Bold-2d" d="M 1837 1094 
L 282 1094 
L 282 1837 
L 1837 1837 
L 1837 1094 
z
" transform="scale(0.015625)"/>
      <path id="STIXGeneral-Bold-74" d="M 1965 717 
L 2125 646 
Q 1926 250 1712 86 
Q 1498 -77 1178 -77 
Q 845 -77 653 105 
Q 461 288 461 608 
L 461 2669 
L 122 2669 
L 122 2842 
Q 435 3053 646 3299 
Q 858 3546 1190 4032 
L 1350 4032 
L 1350 2950 
L 1958 2950 
L 1958 2669 
L 1350 2669 
L 1350 762 
Q 1350 378 1600 378 
Q 1786 378 1965 717 
z
" transform="scale(0.015625)"/>
      <path id="STIXGeneral-Bold-6d" d="M 5210 0 
L 3693 0 
L 3693 154 
Q 3872 166 3936 246 
Q 4000 326 4000 531 
L 4000 1990 
Q 4000 2598 3661 2598 
Q 3475 2598 3290 2438 
Q 3232 2394 3174 2323 
Q 3117 2253 3117 2227 
L 3117 531 
Q 3117 346 3181 259 
Q 3245 173 3411 154 
L 3411 0 
L 1926 0 
L 1926 154 
Q 2099 166 2163 249 
Q 2227 333 2227 531 
L 2227 2067 
Q 2227 2355 2147 2476 
Q 2067 2598 1882 2598 
Q 1760 2598 1552 2454 
Q 1344 2310 1344 2202 
L 1344 531 
Q 1344 346 1405 262 
Q 1466 179 1632 154 
L 1632 0 
L 102 0 
L 102 154 
Q 314 192 384 272 
Q 454 352 454 550 
L 454 2387 
Q 454 2611 384 2688 
Q 314 2765 96 2797 
L 96 2950 
L 1325 2950 
L 1325 2470 
L 1344 2470 
Q 1530 2765 1744 2896 
Q 1958 3027 2266 3027 
Q 2566 3027 2752 2899 
Q 2938 2771 3085 2470 
Q 3334 2778 3542 2902 
Q 3750 3027 4026 3027 
Q 4422 3027 4656 2784 
Q 4890 2541 4890 2118 
L 4890 531 
Q 4890 326 4957 243 
Q 5024 160 5210 154 
L 5210 0 
z
" transform="scale(0.015625)"/>
      <path id="STIXGeneral-Bold-20" transform="scale(0.015625)"/>
      <path id="STIXGeneral-Bold-61" d="M 3027 410 
L 3123 275 
Q 2784 -90 2406 -90 
Q 2170 -90 2051 9 
Q 1933 109 1882 352 
Q 1395 -90 864 -90 
Q 544 -90 352 80 
Q 160 250 160 589 
Q 160 1018 589 1306 
Q 909 1517 1875 1792 
L 1875 2227 
Q 1875 2541 1756 2681 
Q 1638 2822 1357 2822 
Q 1178 2822 1059 2758 
Q 941 2694 941 2586 
Q 941 2515 1011 2438 
Q 1133 2291 1133 2170 
Q 1133 2003 1011 1894 
Q 890 1786 698 1786 
Q 499 1786 390 1901 
Q 282 2016 282 2221 
Q 282 2598 618 2812 
Q 954 3027 1504 3027 
Q 2093 3027 2425 2803 
Q 2758 2579 2758 2170 
L 2758 499 
Q 2758 320 2893 320 
Q 2938 320 2963 346 
L 3027 410 
z
M 1875 621 
L 1875 1568 
Q 1094 1350 1094 794 
Q 1094 589 1187 477 
Q 1280 365 1427 365 
Q 1696 365 1875 621 
z
" transform="scale(0.015625)"/>
      <path id="STIXGeneral-Bold-62" d="M 1350 4326 
L 1350 2669 
Q 1690 3027 2131 3027 
Q 2662 3027 2998 2611 
Q 3334 2195 3334 1530 
Q 3334 806 2931 358 
Q 2528 -90 1888 -90 
Q 1440 -90 1043 275 
L 538 -83 
L 461 -83 
L 461 3802 
Q 461 3994 397 4061 
Q 333 4128 109 4173 
L 109 4326 
L 1350 4326 
z
M 1350 2304 
L 1350 621 
Q 1350 390 1472 252 
Q 1594 115 1792 115 
Q 2394 115 2394 1414 
Q 2394 2682 1798 2682 
Q 1638 2682 1536 2595 
Q 1434 2509 1350 2304 
z
" transform="scale(0.015625)"/>
      <path id="STIXGeneral-Bold-6c" d="M 1638 0 
L 102 0 
L 102 154 
Q 429 179 429 557 
L 429 3757 
Q 429 4147 96 4173 
L 96 4326 
L 1318 4326 
L 1318 557 
Q 1318 346 1395 253 
Q 1472 160 1638 154 
L 1638 0 
z
" transform="scale(0.015625)"/>
      <path id="STIXGeneral-Bold-69" d="M 1376 3923 
Q 1376 3712 1232 3571 
Q 1088 3430 877 3430 
Q 666 3430 525 3571 
Q 384 3712 384 3923 
Q 384 4134 528 4278 
Q 672 4422 890 4422 
Q 1088 4422 1232 4275 
Q 1376 4128 1376 3923 
z
M 1638 0 
L 102 0 
L 102 154 
Q 326 205 384 275 
Q 442 346 442 563 
L 442 2387 
Q 442 2598 374 2675 
Q 307 2752 96 2797 
L 96 2950 
L 1331 2950 
L 1331 544 
Q 1331 339 1398 259 
Q 1466 179 1638 154 
L 1638 0 
z
" transform="scale(0.015625)"/>
      <path id="STIXGeneral-Bold-6e" d="M 3450 0 
L 1952 0 
L 1952 154 
Q 2112 173 2179 259 
Q 2246 346 2246 538 
L 2246 2054 
Q 2246 2598 1920 2598 
Q 1690 2598 1472 2381 
Q 1363 2272 1363 2227 
L 1363 538 
Q 1363 352 1430 265 
Q 1498 179 1670 154 
L 1670 0 
L 134 0 
L 134 154 
Q 346 198 410 275 
Q 474 352 474 557 
L 474 2406 
Q 474 2611 410 2688 
Q 346 2765 134 2797 
L 134 2950 
L 1357 2950 
L 1357 2470 
L 1363 2470 
Q 1677 3027 2272 3027 
Q 2669 3027 2902 2780 
Q 3136 2534 3136 2118 
L 3136 538 
Q 3136 320 3200 243 
Q 3264 166 3450 154 
L 3450 0 
z
" transform="scale(0.015625)"/>
     </defs>
     <use xlink:href="#STIXGeneral-Bold-53"/>
     <use xlink:href="#STIXGeneral-Bold-63" transform="translate(55.599991 0)"/>
     <use xlink:href="#STIXGeneral-Bold-6f" transform="translate(99.999985 0)"/>
     <use xlink:href="#STIXGeneral-Bold-72" transform="translate(149.999969 0)"/>
     <use xlink:href="#STIXGeneral-Bold-65" transform="translate(194.399963 0)"/>
     <use xlink:href="#STIXGeneral-Bold-2d" transform="translate(238.799957 0)"/>
     <use xlink:href="#STIXGeneral-Bold-74" transform="translate(272.099945 0)"/>
     <use xlink:href="#STIXGeneral-Bold-65" transform="translate(305.399933 0)"/>
     <use xlink:href="#STIXGeneral-Bold-72" transform="translate(349.799927 0)"/>
     <use xlink:href="#STIXGeneral-Bold-6d" transform="translate(394.199921 0)"/>
     <use xlink:href="#STIXGeneral-Bold-20" transform="translate(477.499908 0)"/>
     <use xlink:href="#STIXGeneral-Bold-61" transform="translate(502.499893 0)"/>
     <use xlink:href="#STIXGeneral-Bold-62" transform="translate(552.499878 0)"/>
     <use xlink:href="#STIXGeneral-Bold-6c" transform="translate(608.099869 0)"/>
     <use xlink:href="#STIXGeneral-Bold-61" transform="translate(635.899857 0)"/>
     <use xlink:href="#STIXGeneral-Bold-74" transform="translate(685.899841 0)"/>
     <use xlink:href="#STIXGeneral-Bold-69" transform="translate(719.199829 0)"/>
     <use xlink:href="#STIXGeneral-Bold-6f" transform="translate(746.999817 0)"/>
     <use xlink:href="#STIXGeneral-Bold-6e" transform="translate(796.999802 0)"/>
    </g>
   </g>
  </g>
  <g id="axes_2">
   <g id="patch_10">
    <path d="M 497.975 281.136424 
L 907.005 281.136424 
L 907.005 23.218594 
L 497.975 23.218594 
z
" style="fill: #fcfcfd"/>
   </g>
   <g id="patch_11">
    <path d="M 516.567273 281.136424 
L 578.541515 281.136424 
L 578.541515 82.383092 
L 516.567273 82.383092 
z
" clip-path="url(#p142849e4ae)" style="fill: #7f7f7f"/>
   </g>
   <g id="patch_12">
    <path d="M 594.035076 281.136424 
L 656.009318 281.136424 
L 656.009318 35.500395 
L 594.035076 35.500395 
z
" clip-path="url(#p142849e4ae)" style="fill: #1f77b4"/>
   </g>
   <g id="patch_13">
    <path d="M 671.502879 281.136424 
L 733.477121 281.136424 
L 733.477121 85.771732 
L 671.502879 85.771732 
z
" clip-path="url(#p142849e4ae)" style="fill: #d62728"/>
   </g>
   <g id="patch_14">
    <path d="M 748.970682 281.136424 
L 810.944924 281.136424 
L 810.944924 78.303127 
L 748.970682 78.303127 
z
" clip-path="url(#p142849e4ae)" style="fill: #17becf"/>
   </g>
   <g id="patch_15">
    <path d="M 826.438485 281.136424 
L 888.412727 281.136424 
L 888.412727 72.867875 
L 826.438485 72.867875 
z
" clip-path="url(#p142849e4ae)" style="fill: #2ca02c"/>
   </g>
   <g id="matplotlib.axis_3">
    <g id="xtick_6">
     <g id="line2d_20">
      <g>
       <use xlink:href="#m23b31dfee3" x="547.554394" y="281.136424" style="fill: #334155; stroke: #334155; stroke-width: 0.8"/>
      </g>
     </g>
     <g id="text_20">
      <!-- All sensors -->
      <g style="fill: #334155" transform="translate(525.364618 306.454742) rotate(-14) scale(0.105 -0.105)">
       <use xlink:href="#STIXGeneral-Regular-41"/>
       <use xlink:href="#STIXGeneral-Regular-6c" transform="translate(72.199982 0)"/>
       <use xlink:href="#STIXGeneral-Regular-6c" transform="translate(99.999969 0)"/>
       <use xlink:href="#STIXGeneral-Regular-20" transform="translate(127.799957 0)"/>
       <use xlink:href="#STIXGeneral-Regular-73" transform="translate(152.799942 0)"/>
       <use xlink:href="#STIXGeneral-Regular-65" transform="translate(191.699936 0)"/>
       <use xlink:href="#STIXGeneral-Regular-6e" transform="translate(236.09993 0)"/>
       <use xlink:href="#STIXGeneral-Regular-73" transform="translate(286.099915 0)"/>
       <use xlink:href="#STIXGeneral-Regular-6f" transform="translate(324.999908 0)"/>
       <use xlink:href="#STIXGeneral-Regular-72" transform="translate(374.999893 0)"/>
       <use xlink:href="#STIXGeneral-Regular-73" transform="translate(408.299881 0)"/>
      </g>
     </g>
    </g>
    <g id="xtick_7">
     <g id="line2d_21">
      <g>
       <use xlink:href="#m23b31dfee3" x="625.022197" y="281.136424" style="fill: #334155; stroke: #334155; stroke-width: 0.8"/>
      </g>
     </g>
     <g id="text_21">
      <!-- Geometry -->
      <g style="fill: #334155" transform="translate(605.240164 305.243368) rotate(-14) scale(0.105 -0.105)">
       <use xlink:href="#STIXGeneral-Regular-47"/>
       <use xlink:href="#STIXGeneral-Regular-65" transform="translate(72.199982 0)"/>
       <use xlink:href="#STIXGeneral-Regular-6f" transform="translate(116.599976 0)"/>
       <use xlink:href="#STIXGeneral-Regular-6d" transform="translate(166.59996 0)"/>
       <use xlink:href="#STIXGeneral-Regular-65" transform="translate(244.399948 0)"/>
       <use xlink:href="#STIXGeneral-Regular-74" transform="translate(288.799942 0)"/>
       <use xlink:href="#STIXGeneral-Regular-72" transform="translate(316.59993 0)"/>
       <use xlink:href="#STIXGeneral-Regular-79" transform="translate(349.899918 0)"/>
      </g>
     </g>
    </g>
    <g id="xtick_8">
     <g id="line2d_22">
      <g>
       <use xlink:href="#m23b31dfee3" x="702.49" y="281.136424" style="fill: #334155; stroke: #334155; stroke-width: 0.8"/>
      </g>
     </g>
     <g id="text_22">
      <!-- Geom.+Residual -->
      <g style="fill: #334155" transform="translate(668.038681 312.569035) rotate(-14) scale(0.105 -0.105)">
       <use xlink:href="#STIXGeneral-Regular-47"/>
       <use xlink:href="#STIXGeneral-Regular-65" transform="translate(72.199982 0)"/>
       <use xlink:href="#STIXGeneral-Regular-6f" transform="translate(116.599976 0)"/>
       <use xlink:href="#STIXGeneral-Regular-6d" transform="translate(166.59996 0)"/>
       <use xlink:href="#STIXGeneral-Regular-2e" transform="translate(244.399948 0)"/>
       <use xlink:href="#STIXGeneral-Regular-2b" transform="translate(269.399933 0)"/>
       <use xlink:href="#STIXGeneral-Regular-52" transform="translate(337.899918 0)"/>
       <use xlink:href="#STIXGeneral-Regular-65" transform="translate(404.599915 0)"/>
       <use xlink:href="#STIXGeneral-Regular-73" transform="translate(448.999908 0)"/>
       <use xlink:href="#STIXGeneral-Regular-69" transform="translate(487.899902 0)"/>
       <use xlink:href="#STIXGeneral-Regular-64" transform="translate(515.69989 0)"/>
       <use xlink:href="#STIXGeneral-Regular-75" transform="translate(565.699875 0)"/>
       <use xlink:href="#STIXGeneral-Regular-61" transform="translate(615.69986 0)"/>
       <use xlink:href="#STIXGeneral-Regular-6c" transform="translate(660.099854 0)"/>
      </g>
     </g>
    </g>
    <g id="xtick_9">
     <g id="line2d_23">
      <g>
       <use xlink:href="#m23b31dfee3" x="779.957803" y="281.136424" style="fill: #334155; stroke: #334155; stroke-width: 0.8"/>
      </g>
     </g>
     <g id="text_23">
      <!-- Geom.+Reliability -->
      <g style="fill: #334155" transform="translate(741.823248 314.405108) rotate(-14) scale(0.105 -0.105)">
       <use xlink:href="#STIXGeneral-Regular-47"/>
       <use xlink:href="#STIXGeneral-Regular-65" transform="translate(72.199982 0)"/>
       <use xlink:href="#STIXGeneral-Regular-6f" transform="translate(116.599976 0)"/>
       <use xlink:href="#STIXGeneral-Regular-6d" transform="translate(166.59996 0)"/>
       <use xlink:href="#STIXGeneral-Regular-2e" transform="translate(244.399948 0)"/>
       <use xlink:href="#STIXGeneral-Regular-2b" transform="translate(269.399933 0)"/>
       <use xlink:href="#STIXGeneral-Regular-52" transform="translate(337.899918 0)"/>
       <use xlink:href="#STIXGeneral-Regular-65" transform="translate(404.599915 0)"/>
       <use xlink:href="#STIXGeneral-Regular-6c" transform="translate(448.999908 0)"/>
       <use xlink:href="#STIXGeneral-Regular-69" transform="translate(476.799896 0)"/>
       <use xlink:href="#STIXGeneral-Regular-61" transform="translate(504.599884 0)"/>
       <use xlink:href="#STIXGeneral-Regular-62" transform="translate(548.999878 0)"/>
       <use xlink:href="#STIXGeneral-Regular-69" transform="translate(598.999863 0)"/>
       <use xlink:href="#STIXGeneral-Regular-6c" transform="translate(626.79985 0)"/>
       <use xlink:href="#STIXGeneral-Regular-69" transform="translate(654.599838 0)"/>
       <use xlink:href="#STIXGeneral-Regular-74" transform="translate(682.399826 0)"/>
       <use xlink:href="#STIXGeneral-Regular-79" transform="translate(710.199814 0)"/>
      </g>
     </g>
    </g>
    <g id="xtick_10">
     <g id="line2d_24">
      <g>
       <use xlink:href="#m23b31dfee3" x="857.425606" y="281.136424" style="fill: #334155; stroke: #334155; stroke-width: 0.8"/>
      </g>
     </g>
     <g id="text_24">
      <!-- Full score -->
      <g style="fill: #334155" transform="translate(837.783653 305.184255) rotate(-14) scale(0.105 -0.105)">
       <use xlink:href="#STIXGeneral-Regular-46"/>
       <use xlink:href="#STIXGeneral-Regular-75" transform="translate(55.599991 0)"/>
       <use xlink:href="#STIXGeneral-Regular-6c" transform="translate(105.599976 0)"/>
       <use xlink:href="#STIXGeneral-Regular-6c" transform="translate(133.399963 0)"/>
       <use xlink:href="#STIXGeneral-Regular-20" transform="translate(161.199951 0)"/>
       <use xlink:href="#STIXGeneral-Regular-73" transform="translate(186.199936 0)"/>
       <use xlink:href="#STIXGeneral-Regular-63" transform="translate(225.09993 0)"/>
       <use xlink:href="#STIXGeneral-Regular-6f" transform="translate(269.499924 0)"/>
       <use xlink:href="#STIXGeneral-Regular-72" transform="translate(319.499908 0)"/>
       <use xlink:href="#STIXGeneral-Regular-65" transform="translate(352.799896 0)"/>
      </g>
     </g>
    </g>
   </g>
   <g id="matplotlib.axis_4">
    <g id="ytick_8">
     <g id="line2d_25">
      <path d="M 497.975 281.136424 
L 907.005 281.136424 
" clip-path="url(#p142849e4ae)" style="fill: none; stroke-dasharray: 0.7,1.155; stroke-dashoffset: 0; stroke: #cbd5e1; stroke-opacity: 0.35; stroke-width: 0.7"/>
     </g>
     <g id="line2d_26">
      <g>
       <use xlink:href="#m0e5bc14c35" x="497.975" y="281.136424" style="fill: #334155; stroke: #334155; stroke-width: 0.8"/>
      </g>
     </g>
     <g id="text_25">
      <!-- 0.0 -->
      <g style="fill: #334155" transform="translate(477.85 284.72201) scale(0.105 -0.105)">
       <use xlink:href="#STIXGeneral-Regular-30"/>
       <use xlink:href="#STIXGeneral-Regular-2e" transform="translate(49.999985 0)"/>
       <use xlink:href="#STIXGeneral-Regular-30" transform="translate(74.999969 0)"/>
      </g>
     </g>
    </g>
    <g id="ytick_9">
     <g id="line2d_27">
      <path d="M 497.975 234.654031 
L 907.005 234.654031 
" clip-path="url(#p142849e4ae)" style="fill: none; stroke-dasharray: 0.7,1.155; stroke-dashoffset: 0; stroke: #cbd5e1; stroke-opacity: 0.35; stroke-width: 0.7"/>
     </g>
     <g id="line2d_28">
      <g>
       <use xlink:href="#m0e5bc14c35" x="497.975" y="234.654031" style="fill: #334155; stroke: #334155; stroke-width: 0.8"/>
      </g>
     </g>
     <g id="text_26">
      <!-- 0.5 -->
      <g style="fill: #334155" transform="translate(477.85 238.239617) scale(0.105 -0.105)">
       <use xlink:href="#STIXGeneral-Regular-30"/>
       <use xlink:href="#STIXGeneral-Regular-2e" transform="translate(49.999985 0)"/>
       <use xlink:href="#STIXGeneral-Regular-35" transform="translate(74.999969 0)"/>
      </g>
     </g>
    </g>
    <g id="ytick_10">
     <g id="line2d_29">
      <path d="M 497.975 188.171638 
L 907.005 188.171638 
" clip-path="url(#p142849e4ae)" style="fill: none; stroke-dasharray: 0.7,1.155; stroke-dashoffset: 0; stroke: #cbd5e1; stroke-opacity: 0.35; stroke-width: 0.7"/>
     </g>
     <g id="line2d_30">
      <g>
       <use xlink:href="#m0e5bc14c35" x="497.975" y="188.171638" style="fill: #334155; stroke: #334155; stroke-width: 0.8"/>
      </g>
     </g>
     <g id="text_27">
      <!-- 1.0 -->
      <g style="fill: #334155" transform="translate(477.85 191.757224) scale(0.105 -0.105)">
       <use xlink:href="#STIXGeneral-Regular-31"/>
       <use xlink:href="#STIXGeneral-Regular-2e" transform="translate(49.999985 0)"/>
       <use xlink:href="#STIXGeneral-Regular-30" transform="translate(74.999969 0)"/>
      </g>
     </g>
    </g>
    <g id="ytick_11">
     <g id="line2d_31">
      <path d="M 497.975 141.689245 
L 907.005 141.689245 
" clip-path="url(#p142849e4ae)" style="fill: none; stroke-dasharray: 0.7,1.155; stroke-dashoffset: 0; stroke: #cbd5e1; stroke-opacity: 0.35; stroke-width: 0.7"/>
     </g>
     <g id="line2d_32">
      <g>
       <use xlink:href="#m0e5bc14c35" x="497.975" y="141.689245" style="fill: #334155; stroke: #334155; stroke-width: 0.8"/>
      </g>
     </g>
     <g id="text_28">
      <!-- 1.5 -->
      <g style="fill: #334155" transform="translate(477.85 145.274831) scale(0.105 -0.105)">
       <use xlink:href="#STIXGeneral-Regular-31"/>
       <use xlink:href="#STIXGeneral-Regular-2e" transform="translate(49.999985 0)"/>
       <use xlink:href="#STIXGeneral-Regular-35" transform="translate(74.999969 0)"/>
      </g>
     </g>
    </g>
    <g id="ytick_12">
     <g id="line2d_33">
      <path d="M 497.975 95.206851 
L 907.005 95.206851 
" clip-path="url(#p142849e4ae)" style="fill: none; stroke-dasharray: 0.7,1.155; stroke-dashoffset: 0; stroke: #cbd5e1; stroke-opacity: 0.35; stroke-width: 0.7"/>
     </g>
     <g id="line2d_34">
      <g>
       <use xlink:href="#m0e5bc14c35" x="497.975" y="95.206851" style="fill: #334155; stroke: #334155; stroke-width: 0.8"/>
      </g>
     </g>
     <g id="text_29">
      <!-- 2.0 -->
      <g style="fill: #334155" transform="translate(477.85 98.792437) scale(0.105 -0.105)">
       <use xlink:href="#STIXGeneral-Regular-32"/>
       <use xlink:href="#STIXGeneral-Regular-2e" transform="translate(49.999985 0)"/>
       <use xlink:href="#STIXGeneral-Regular-30" transform="translate(74.999969 0)"/>
      </g>
     </g>
    </g>
    <g id="ytick_13">
     <g id="line2d_35">
      <path d="M 497.975 48.724458 
L 907.005 48.724458 
" clip-path="url(#p142849e4ae)" style="fill: none; stroke-dasharray: 0.7,1.155; stroke-dashoffset: 0; stroke: #cbd5e1; stroke-opacity: 0.35; stroke-width: 0.7"/>
     </g>
     <g id="line2d_36">
      <g>
       <use xlink:href="#m0e5bc14c35" x="497.975" y="48.724458" style="fill: #334155; stroke: #334155; stroke-width: 0.8"/>
      </g>
     </g>
     <g id="text_30">
      <!-- 2.5 -->
      <g style="fill: #334155" transform="translate(477.85 52.310044) scale(0.105 -0.105)">
       <use xlink:href="#STIXGeneral-Regular-32"/>
       <use xlink:href="#STIXGeneral-Regular-2e" transform="translate(49.999985 0)"/>
       <use xlink:href="#STIXGeneral-Regular-35" transform="translate(74.999969 0)"/>
      </g>
     </g>
    </g>
    <g id="text_31">
     <!-- Severe-regime P90 error -->
     <g style="fill: #0f172a" transform="translate(471.125391 213.621845) rotate(-90) scale(0.125 -0.125)">
      <defs>
       <path id="STIXGeneral-Regular-53" d="M 3002 2963 
L 2842 2963 
Q 2733 3360 2579 3565 
Q 2189 4064 1651 4064 
Q 1357 4064 1181 3894 
Q 1005 3725 1005 3456 
Q 1005 3328 1069 3206 
Q 1133 3085 1206 2998 
Q 1280 2912 1465 2784 
Q 1651 2656 1766 2589 
Q 1882 2522 2150 2362 
Q 2669 2061 2905 1763 
Q 3142 1466 3142 1107 
Q 3142 576 2771 243 
Q 2400 -90 1837 -90 
Q 1421 -90 1082 58 
Q 915 128 781 128 
Q 704 128 653 70 
Q 602 13 602 -83 
L 461 -83 
L 275 1274 
L 416 1274 
Q 845 141 1734 141 
Q 2074 141 2285 342 
Q 2496 544 2496 858 
Q 2496 1158 2310 1363 
Q 2003 1696 1235 2106 
Q 454 2522 454 3206 
Q 454 3718 768 4022 
Q 1082 4326 1568 4326 
Q 1907 4326 2240 4186 
Q 2413 4109 2522 4109 
Q 2688 4109 2726 4326 
L 2861 4326 
L 3002 2963 
z
" transform="scale(0.015625)"/>
       <path id="STIXGeneral-Regular-2d" d="M 1824 1242 
L 250 1242 
L 250 1645 
L 1824 1645 
L 1824 1242 
z
" transform="scale(0.015625)"/>
       <path id="STIXGeneral-Regular-67" d="M 3008 2483 
L 2477 2483 
Q 2598 2208 2598 1946 
Q 2598 1453 2265 1203 
Q 1933 954 1600 954 
Q 1530 954 1357 973 
L 1235 986 
Q 1107 947 979 812 
Q 851 678 851 582 
Q 851 435 1350 410 
L 2176 371 
Q 2528 358 2739 172 
Q 2950 -13 2950 -314 
Q 2950 -685 2566 -986 
Q 2035 -1395 1286 -1395 
Q 826 -1395 502 -1212 
Q 179 -1030 179 -774 
Q 179 -595 320 -419 
Q 461 -243 806 6 
Q 602 102 534 172 
Q 467 243 467 346 
Q 467 531 762 787 
Q 909 915 1037 1043 
Q 717 1203 579 1401 
Q 442 1600 442 1901 
Q 442 2336 752 2640 
Q 1062 2944 1510 2944 
Q 1766 2944 2022 2848 
L 2163 2797 
Q 2349 2733 2515 2733 
L 3008 2733 
L 3008 2483 
z
M 973 2163 
L 973 2144 
Q 973 1683 1155 1398 
Q 1338 1114 1632 1114 
Q 1850 1114 1978 1270 
Q 2106 1427 2106 1690 
Q 2106 2112 1914 2464 
Q 1754 2765 1446 2765 
Q 1222 2765 1097 2605 
Q 973 2445 973 2163 
z
M 2771 -410 
Q 2771 -230 2595 -163 
Q 2419 -96 1978 -96 
Q 1344 -96 941 -13 
Q 749 -243 688 -348 
Q 627 -454 627 -563 
Q 627 -774 880 -902 
Q 1133 -1030 1555 -1030 
Q 2099 -1030 2435 -860 
Q 2771 -691 2771 -410 
z
" transform="scale(0.015625)"/>
       <path id="STIXGeneral-Regular-50" d="M 102 4237 
L 1760 4237 
Q 2669 4237 3149 3834 
Q 3469 3565 3469 3072 
Q 3469 2560 3104 2234 
Q 2835 1990 2553 1916 
Q 2272 1843 1734 1843 
Q 1549 1843 1293 1862 
L 1293 717 
Q 1293 352 1398 246 
Q 1504 141 1894 122 
L 1894 0 
L 102 0 
L 102 122 
Q 474 147 557 256 
Q 640 365 640 781 
L 640 3526 
Q 640 3885 547 3987 
Q 454 4090 102 4115 
L 102 4237 
z
M 1293 3770 
L 1293 2118 
Q 1510 2099 1683 2099 
Q 2202 2099 2486 2352 
Q 2771 2605 2771 3040 
Q 2771 3558 2476 3779 
Q 2182 4000 1517 4000 
Q 1382 4000 1337 3952 
Q 1293 3904 1293 3770 
z
" transform="scale(0.015625)"/>
      </defs>
      <use xlink:href="#STIXGeneral-Regular-53"/>
      <use xlink:href="#STIXGeneral-Regular-65" transform="translate(55.599991 0)"/>
      <use xlink:href="#STIXGeneral-Regular-76" transform="translate(99.999985 0)"/>
      <use xlink:href="#STIXGeneral-Regular-65" transform="translate(149.999969 0)"/>
      <use xlink:href="#STIXGeneral-Regular-72" transform="translate(194.399963 0)"/>
      <use xlink:href="#STIXGeneral-Regular-65" transform="translate(227.699951 0)"/>
      <use xlink:href="#STIXGeneral-Regular-2d" transform="translate(272.099945 0)"/>
      <use xlink:href="#STIXGeneral-Regular-72" transform="translate(305.399933 0)"/>
      <use xlink:href="#STIXGeneral-Regular-65" transform="translate(338.699921 0)"/>
      <use xlink:href="#STIXGeneral-Regular-67" transform="translate(383.099915 0)"/>
      <use xlink:href="#STIXGeneral-Regular-69" transform="translate(433.099899 0)"/>
      <use xlink:href="#STIXGeneral-Regular-6d" transform="translate(460.899887 0)"/>
      <use xlink:href="#STIXGeneral-Regular-65" transform="translate(538.699875 0)"/>
      <use xlink:href="#STIXGeneral-Regular-20" transform="translate(583.099869 0)"/>
      <use xlink:href="#STIXGeneral-Regular-50" transform="translate(608.099854 0)"/>
      <use xlink:href="#STIXGeneral-Regular-39" transform="translate(663.79985 0)"/>
      <use xlink:href="#STIXGeneral-Regular-30" transform="translate(713.799835 0)"/>
      <use xlink:href="#STIXGeneral-Regular-20" transform="translate(763.79982 0)"/>
      <use xlink:href="#STIXGeneral-Regular-65" transform="translate(788.799805 0)"/>
      <use xlink:href="#STIXGeneral-Regular-72" transform="translate(833.199799 0)"/>
      <use xlink:href="#STIXGeneral-Regular-72" transform="translate(866.499786 0)"/>
      <use xlink:href="#STIXGeneral-Regular-6f" transform="translate(899.799774 0)"/>
      <use xlink:href="#STIXGeneral-Regular-72" transform="translate(949.799759 0)"/>
     </g>
    </g>
   </g>
   <g id="patch_16">
    <path d="M 497.975 281.136424 
L 497.975 23.218594 
" style="fill: none; stroke: #cbd5e1; stroke-linejoin: miter; stroke-linecap: square"/>
   </g>
   <g id="patch_17">
    <path d="M 497.975 281.136424 
L 907.005 281.136424 
" style="fill: none; stroke: #cbd5e1; stroke-linejoin: miter; stroke-linecap: square"/>
   </g>
   <g id="text_32">
    <!-- 2.14 -->
    <g style="fill: #0f172a" transform="translate(539.679394 80.429811) scale(0.09 -0.09)">
     <use xlink:href="#STIXGeneral-Regular-32"/>
     <use xlink:href="#STIXGeneral-Regular-2e" transform="translate(49.999985 0)"/>
     <use xlink:href="#STIXGeneral-Regular-31" transform="translate(74.999969 0)"/>
     <use xlink:href="#STIXGeneral-Regular-34" transform="translate(124.999954 0)"/>
    </g>
   </g>
   <g id="text_33">
    <!-- 2.64 -->
    <g style="fill: #0f172a" transform="translate(617.147197 33.547114) scale(0.09 -0.09)">
     <use xlink:href="#STIXGeneral-Regular-32"/>
     <use xlink:href="#STIXGeneral-Regular-2e" transform="translate(49.999985 0)"/>
     <use xlink:href="#STIXGeneral-Regular-36" transform="translate(74.999969 0)"/>
     <use xlink:href="#STIXGeneral-Regular-34" transform="translate(124.999954 0)"/>
    </g>
   </g>
   <g id="text_34">
    <!-- 2.10 -->
    <g style="fill: #0f172a" transform="translate(694.615 83.818451) scale(0.09 -0.09)">
     <use xlink:href="#STIXGeneral-Regular-32"/>
     <use xlink:href="#STIXGeneral-Regular-2e" transform="translate(49.999985 0)"/>
     <use xlink:href="#STIXGeneral-Regular-31" transform="translate(74.999969 0)"/>
     <use xlink:href="#STIXGeneral-Regular-30" transform="translate(124.999954 0)"/>
    </g>
   </g>
   <g id="text_35">
    <!-- 2.18 -->
    <g style="fill: #0f172a" transform="translate(772.082803 76.349845) scale(0.09 -0.09)">
     <use xlink:href="#STIXGeneral-Regular-32"/>
     <use xlink:href="#STIXGeneral-Regular-2e" transform="translate(49.999985 0)"/>
     <use xlink:href="#STIXGeneral-Regular-31" transform="translate(74.999969 0)"/>
     <use xlink:href="#STIXGeneral-Regular-38" transform="translate(124.999954 0)"/>
    </g>
   </g>
   <g id="text_36">
    <!-- 2.24 -->
    <g style="fill: #0f172a" transform="translate(849.550606 70.914594) scale(0.09 -0.09)">
     <use xlink:href="#STIXGeneral-Regular-32"/>
     <use xlink:href="#STIXGeneral-Regular-2e" transform="translate(49.999985 0)"/>
     <use xlink:href="#STIXGeneral-Regular-32" transform="translate(74.999969 0)"/>
     <use xlink:href="#STIXGeneral-Regular-34" transform="translate(124.999954 0)"/>
    </g>
   </g>
   <g id="text_37">
    <!-- Tail risk under severe corruption -->
    <g style="fill: #0f172a" transform="translate(599.379141 17.218594) scale(0.145 -0.145)">
     <defs>
      <path id="STIXGeneral-Bold-54" d="M 4070 3040 
L 3885 3040 
Q 3802 3610 3523 3856 
Q 3245 4102 2656 4122 
L 2656 749 
Q 2656 384 2761 288 
Q 2867 192 3283 160 
L 3283 0 
L 998 0 
L 998 160 
Q 1408 192 1513 291 
Q 1619 390 1619 749 
L 1619 4122 
Q 1024 4102 745 3856 
Q 467 3610 384 3040 
L 198 3040 
L 218 4326 
L 4058 4326 
L 4070 3040 
z
" transform="scale(0.015625)"/>
      <path id="STIXGeneral-Bold-73" d="M 2176 2086 
L 2016 2086 
Q 1894 2445 1715 2611 
Q 1498 2816 1235 2816 
Q 1056 2816 934 2710 
Q 813 2605 813 2445 
Q 813 2278 957 2147 
Q 1101 2016 1427 1882 
Q 1907 1683 2108 1452 
Q 2310 1222 2310 883 
Q 2310 454 2035 182 
Q 1760 -90 1325 -90 
Q 992 -90 634 58 
Q 538 96 486 96 
Q 416 96 320 -83 
L 160 -83 
L 160 973 
L 339 973 
Q 544 128 1216 128 
Q 1434 128 1565 243 
Q 1696 358 1696 544 
Q 1696 698 1555 829 
Q 1414 960 1082 1101 
Q 602 1306 387 1539 
Q 173 1773 173 2093 
Q 173 2496 457 2761 
Q 742 3027 1178 3027 
Q 1395 3027 1677 2931 
Q 1818 2886 1875 2886 
Q 1984 2886 2035 3014 
L 2176 3014 
L 2176 2086 
z
" transform="scale(0.015625)"/>
      <path id="STIXGeneral-Bold-6b" d="M 3475 0 
L 1978 0 
L 1978 154 
Q 2246 166 2246 275 
Q 2246 352 2093 563 
L 1485 1421 
L 1338 1267 
L 1338 538 
Q 1338 314 1392 250 
Q 1446 186 1670 154 
L 1670 0 
L 141 0 
L 141 154 
Q 448 179 448 538 
L 448 3802 
Q 448 4147 141 4173 
L 141 4326 
L 1338 4326 
L 1338 1568 
L 2157 2387 
Q 2291 2522 2291 2630 
Q 2291 2746 2067 2778 
L 1914 2803 
L 1914 2950 
L 3283 2950 
L 3283 2803 
Q 2982 2765 2768 2617 
Q 2554 2470 2074 1965 
L 3315 250 
Q 3386 154 3475 154 
L 3475 0 
z
" transform="scale(0.015625)"/>
      <path id="STIXGeneral-Bold-75" d="M 3443 128 
L 3040 83 
Q 2509 26 2195 -83 
L 2195 333 
Q 1946 96 1738 3 
Q 1530 -90 1267 -90 
Q 864 -90 640 153 
Q 416 397 416 838 
L 416 2381 
Q 416 2605 358 2681 
Q 301 2758 102 2797 
L 102 2950 
L 1306 2950 
L 1306 813 
Q 1306 326 1664 326 
Q 1914 326 2189 627 
L 2189 2394 
Q 2189 2611 2112 2694 
Q 2035 2778 1798 2797 
L 1798 2950 
L 3078 2950 
L 3078 672 
Q 3078 461 3155 371 
Q 3232 282 3443 275 
L 3443 128 
z
" transform="scale(0.015625)"/>
      <path id="STIXGeneral-Bold-64" d="M 3418 128 
L 3021 77 
Q 2496 6 2170 -83 
L 2170 333 
Q 1946 96 1760 3 
Q 1574 -90 1318 -90 
Q 813 -90 486 332 
Q 160 755 160 1414 
Q 160 2112 509 2569 
Q 858 3027 1389 3027 
Q 1606 3027 1776 2940 
Q 1946 2854 2150 2630 
L 2150 3802 
Q 2150 4026 2067 4086 
Q 1984 4147 1664 4173 
L 1664 4326 
L 3040 4326 
L 3040 646 
Q 3040 442 3120 365 
Q 3200 288 3418 275 
L 3418 128 
z
M 2150 717 
L 2150 2272 
Q 2080 2458 1945 2563 
Q 1811 2669 1651 2669 
Q 1107 2669 1107 1466 
Q 1107 269 1606 269 
Q 1837 269 2029 506 
Q 2150 666 2150 717 
z
" transform="scale(0.015625)"/>
      <path id="STIXGeneral-Bold-76" d="M 3104 2950 
L 3104 2797 
Q 2950 2784 2886 2723 
Q 2822 2662 2733 2445 
L 1709 -90 
L 1542 -90 
L 774 1805 
Q 474 2547 352 2707 
Q 301 2771 134 2797 
L 134 2950 
L 1734 2950 
L 1734 2797 
L 1619 2784 
Q 1395 2758 1395 2630 
Q 1395 2573 1453 2432 
L 1958 1133 
L 2419 2298 
Q 2490 2464 2490 2586 
Q 2490 2701 2416 2742 
Q 2342 2784 2138 2797 
L 2138 2950 
L 3104 2950 
z
" transform="scale(0.015625)"/>
      <path id="STIXGeneral-Bold-70" d="M 1357 2950 
L 1357 2509 
Q 1517 2790 1712 2908 
Q 1907 3027 2195 3027 
Q 2739 3027 3046 2659 
Q 3354 2291 3354 1594 
Q 3354 838 3024 377 
Q 2694 -83 2125 -83 
Q 1907 -83 1753 -3 
Q 1600 77 1370 301 
L 1370 -506 
Q 1370 -838 1475 -992 
Q 1581 -1146 1862 -1158 
L 1862 -1312 
L 122 -1312 
L 122 -1158 
Q 346 -1120 413 -1040 
Q 480 -960 480 -755 
L 480 2381 
Q 480 2592 409 2678 
Q 339 2765 128 2797 
L 128 2950 
L 1357 2950 
z
M 1370 2214 
L 1370 685 
Q 1446 499 1577 384 
Q 1709 269 1862 269 
Q 2406 269 2406 1498 
Q 2406 2662 1920 2662 
Q 1683 2662 1485 2426 
Q 1370 2291 1370 2214 
z
" transform="scale(0.015625)"/>
     </defs>
     <use xlink:href="#STIXGeneral-Bold-54"/>
     <use xlink:href="#STIXGeneral-Bold-61" transform="translate(66.699997 0)"/>
     <use xlink:href="#STIXGeneral-Bold-69" transform="translate(116.699982 0)"/>
     <use xlink:href="#STIXGeneral-Bold-6c" transform="translate(144.499969 0)"/>
     <use xlink:href="#STIXGeneral-Bold-20" transform="translate(172.299957 0)"/>
     <use xlink:href="#STIXGeneral-Bold-72" transform="translate(197.299942 0)"/>
     <use xlink:href="#STIXGeneral-Bold-69" transform="translate(241.699936 0)"/>
     <use xlink:href="#STIXGeneral-Bold-73" transform="translate(269.499924 0)"/>
     <use xlink:href="#STIXGeneral-Bold-6b" transform="translate(308.399918 0)"/>
     <use xlink:href="#STIXGeneral-Bold-20" transform="translate(363.999908 0)"/>
     <use xlink:href="#STIXGeneral-Bold-75" transform="translate(388.999893 0)"/>
     <use xlink:href="#STIXGeneral-Bold-6e" transform="translate(444.599884 0)"/>
     <use xlink:href="#STIXGeneral-Bold-64" transform="translate(500.199875 0)"/>
     <use xlink:href="#STIXGeneral-Bold-65" transform="translate(555.799866 0)"/>
     <use xlink:href="#STIXGeneral-Bold-72" transform="translate(600.19986 0)"/>
     <use xlink:href="#STIXGeneral-Bold-20" transform="translate(644.599854 0)"/>
     <use xlink:href="#STIXGeneral-Bold-73" transform="translate(669.599838 0)"/>
     <use xlink:href="#STIXGeneral-Bold-65" transform="translate(708.499832 0)"/>
     <use xlink:href="#STIXGeneral-Bold-76" transform="translate(752.899826 0)"/>
     <use xlink:href="#STIXGeneral-Bold-65" transform="translate(802.899811 0)"/>
     <use xlink:href="#STIXGeneral-Bold-72" transform="translate(847.299805 0)"/>
     <use xlink:href="#STIXGeneral-Bold-65" transform="translate(891.699799 0)"/>
     <use xlink:href="#STIXGeneral-Bold-20" transform="translate(936.099792 0)"/>
     <use xlink:href="#STIXGeneral-Bold-63" transform="translate(961.099777 0)"/>
     <use xlink:href="#STIXGeneral-Bold-6f" transform="translate(1005.499771 0)"/>
     <use xlink:href="#STIXGeneral-Bold-72" transform="translate(1055.499756 0)"/>
     <use xlink:href="#STIXGeneral-Bold-72" transform="translate(1099.89975 0)"/>
     <use xlink:href="#STIXGeneral-Bold-75" transform="translate(1144.299744 0)"/>
     <use xlink:href="#STIXGeneral-Bold-70" transform="translate(1199.899734 0)"/>
     <use xlink:href="#STIXGeneral-Bold-74" transform="translate(1255.499725 0)"/>
     <use xlink:href="#STIXGeneral-Bold-69" transform="translate(1288.799713 0)"/>
     <use xlink:href="#STIXGeneral-Bold-6f" transform="translate(1316.599701 0)"/>
     <use xlink:href="#STIXGeneral-Bold-6e" transform="translate(1366.599686 0)"/>
    </g>
   </g>
  </g>
 </g>
 <defs>
  <clipPath id="p3143462786">
   <rect x="42.575" y="23.218594" width="409.03" height="257.91783"/>
  </clipPath>
  <clipPath id="p142849e4ae">
   <rect x="497.975" y="23.218594" width="409.03" height="257.91783"/>
  </clipPath>
 </defs>
</svg>
