<?xml version="1.0" encoding="utf-8" standalone="no"?>
<!DOCTYPE svg PUBLIC "-//W3C//DTD SVG 1.1//EN"
  "http://www.w3.org/Graphics/SVG/1.1/DTD/svg11.dtd">
<svg xmlns:xlink="http://www.w3.org/1999/xlink" width="928.850625pt" height="322.995156pt" viewBox="0 0 928.850625 322.995156" xmlns="http://www.w3.org/2000/svg" version="1.1">
 <metadata>
  <rdf:RDF xmlns:dc="http://purl.org/dc/elements/1.1/" xmlns:cc="http://creativecommons.org/ns#" xmlns:rdf="http://www.w3.org/1999/02/22-rdf-syntax-ns#">
   <cc:Work>
    <dc:type rdf:resource="http://purl.org/dc/dcmitype/StillImage"/>
    <dc:date>2026-04-19T15:18:55.021468</dc:date>
    <dc:format>image/svg+xml</dc:format>
    <dc:creator>
     <cc:Agent>
      <dc:title>Matplotlib v3.10.8, https://matplotlib.org/</dc:title>
     </cc:Agent>
    </dc:creator>
   </cc:Work>
  </rdf:RDF>
 </metadata>
 <defs>
  <style type="text/css">*{stroke-linejoin: round; stroke-linecap: butt}</style>
 </defs>
 <g id="figure_1">
  <g id="patch_1">
   <path d="M 0 322.995156 
L 928.850625 322.995156 
L 928.850625 0 
L 0 0 
z
" style="fill: #ffffff"/>
  </g>
  <g id="axes_1">
   <g id="patch_2">
    <path d="M 53.080625 299.795156 
L 313.937292 299.795156 
L 313.937292 22.196406 
L 53.080625 22.196406 
z
" style="fill: #fcfbf8"/>
   </g>
   <g id="patch_3">
    <path d="M 64.937746 299.795156 
L 132.692725 299.795156 
L 132.692725 35.415394 
L 64.937746 35.415394 
z
" clip-path="url(#p6c1c33c0fd)" style="fill: #6b7280"/>
   </g>
   <g id="patch_4">
    <path d="M 149.631469 299.795156 
L 217.386448 299.795156 
L 217.386448 123.541982 
L 149.631469 123.541982 
z
" clip-path="url(#p6c1c33c0fd)" style="fill: #7c3aed"/>
   </g>
   <g id="patch_5">
    <path d="M 234.325192 299.795156 
L 302.08017 299.795156 
L 302.08017 123.541982 
L 234.325192 123.541982 
z
" clip-path="url(#p6c1c33c0fd)" style="fill: #0f766e"/>
   </g>
   <g id="matplotlib.axis_1">
    <g id="xtick_1">
     <g id="line2d_1">
      <defs>
       <path id="mec71ae9765" d="M 0 0 
L 0 3.5 
" style="stroke: #334155; stroke-width: 0.8"/>
      </defs>
      <g>
       <use xlink:href="#mec71ae9765" x="98.815235" y="299.795156" style="fill: #334155; stroke: #334155; stroke-width: 0.8"/>
      </g>
     </g>
     <g id="text_1">
      <!-- LS -->
      <g style="fill: #334155" transform="translate(92.98086 313.624844) scale(0.1 -0.1)">
       <defs>
        <path id="STIXGeneral-Regular-4c" d="M 3827 1114 
L 3520 0 
L 77 0 
L 77 122 
Q 429 141 531 256 
Q 634 371 634 736 
L 634 3494 
Q 634 3872 541 3981 
Q 448 4090 77 4115 
L 77 4237 
L 1888 4237 
L 1888 4115 
Q 1498 4090 1392 3984 
Q 1286 3878 1286 3507 
L 1286 538 
Q 1286 358 1398 304 
Q 1510 250 1862 250 
L 2310 250 
Q 3085 250 3392 640 
Q 3520 813 3661 1114 
L 3827 1114 
z
" transform="scale(0.015625)"/>
        <path id="STIXGeneral-Regular-53" d="M 3002 2963 
L 2842 2963 
Q 2733 3360 2579 3565 
Q 2189 4064 1651 4064 
Q 1357 4064 1181 3894 
Q 1005 3725 1005 3456 
Q 1005 3328 1069 3206 
Q 1133 3085 1206 2998 
Q 1280 2912 1465 2784 
Q 1651 2656 1766 2589 
Q 1882 2522 2150 2362 
Q 2669 2061 2905 1763 
Q 3142 1466 3142 1107 
Q 3142 576 2771 243 
Q 2400 -90 1837 -90 
Q 1421 -90 1082 58 
Q 915 128 781 128 
Q 704 128 653 70 
Q 602 13 602 -83 
L 461 -83 
L 275 1274 
L 416 1274 
Q 845 141 1734 141 
Q 2074 141 2285 342 
Q 2496 544 2496 858 
Q 2496 1158 2310 1363 
Q 2003 1696 1235 2106 
Q 454 2522 454 3206 
Q 454 3718 768 4022 
Q 1082 4326 1568 4326 
Q 1907 4326 2240 4186 
Q 2413 4109 2522 4109 
Q 2688 4109 2726 4326 
L 2861 4326 
L 3002 2963 
z
" transform="scale(0.015625)"/>
       </defs>
       <use xlink:href="#STIXGeneral-Regular-4c"/>
       <use xlink:href="#STIXGeneral-Regular-53" transform="translate(61.099991 0)"/>
      </g>
     </g>
    </g>
    <g id="xtick_2">
     <g id="line2d_2">
      <g>
       <use xlink:href="#mec71ae9765" x="183.508958" y="299.795156" style="fill: #334155; stroke: #334155; stroke-width: 0.8"/>
      </g>
     </g>
     <g id="text_2">
      <!-- RANSAC -->
      <g style="fill: #334155" transform="translate(163.22849 313.624844) scale(0.1 -0.1)">
       <defs>
        <path id="STIXGeneral-Regular-52" d="M 4224 0 
L 3187 0 
L 1664 1971 
L 1306 1958 
L 1306 717 
Q 1306 352 1405 249 
Q 1504 147 1875 122 
L 1875 0 
L 109 0 
L 109 122 
Q 474 154 563 262 
Q 653 371 653 794 
L 653 3526 
Q 653 3885 563 3987 
Q 474 4090 109 4115 
L 109 4237 
L 1850 4237 
Q 2726 4237 3187 3859 
Q 3501 3603 3501 3091 
Q 3501 2221 2342 2042 
L 3622 422 
Q 3757 256 3878 198 
Q 4000 141 4224 122 
L 4224 0 
z
M 1306 3731 
L 1306 2195 
Q 1766 2202 1990 2246 
Q 2214 2291 2438 2413 
Q 2803 2618 2803 3142 
Q 2803 4000 1632 4000 
Q 1459 4000 1382 3945 
Q 1306 3891 1306 3731 
z
" transform="scale(0.015625)"/>
        <path id="STIXGeneral-Regular-41" d="M 4525 0 
L 2893 0 
L 2893 122 
Q 3149 122 3245 179 
Q 3334 224 3334 333 
Q 3334 499 3213 781 
L 2950 1382 
L 1274 1382 
L 979 653 
Q 922 506 922 384 
Q 922 237 1027 179 
Q 1133 122 1370 122 
L 1370 0 
L 96 0 
L 96 122 
Q 365 147 486 316 
Q 608 486 902 1190 
L 2221 4314 
L 2349 4314 
L 3923 710 
Q 4064 378 4176 262 
Q 4288 147 4525 122 
L 4525 0 
z
M 2861 1645 
L 2118 3405 
L 1382 1645 
L 2861 1645 
z
" transform="scale(0.015625)"/>
        <path id="STIXGeneral-Regular-4e" d="M 4525 4237 
L 4525 4115 
Q 4198 4083 4102 4000 
Q 4000 3910 3958 3756 
Q 3917 3603 3917 3245 
L 3917 -70 
L 3802 -70 
L 979 3443 
L 979 960 
Q 979 474 1088 323 
Q 1197 173 1574 122 
L 1574 0 
L 77 0 
L 77 122 
Q 474 166 586 310 
Q 698 454 698 960 
L 698 3776 
Q 531 3981 416 4048 
Q 301 4115 77 4115 
L 77 4237 
L 1165 4237 
L 3635 1146 
L 3635 3322 
Q 3635 3808 3514 3949 
Q 3437 4032 3344 4061 
Q 3251 4090 3008 4115 
L 3008 4237 
L 4525 4237 
z
" transform="scale(0.015625)"/>
        <path id="STIXGeneral-Regular-43" d="M 3930 838 
L 4051 723 
Q 3482 -90 2304 -90 
Q 1376 -90 794 480 
Q 179 1082 179 2080 
Q 179 3014 755 3661 
Q 1357 4326 2310 4326 
Q 2720 4326 3072 4230 
Q 3475 4115 3514 4115 
Q 3725 4115 3782 4326 
L 3910 4326 
L 3968 2874 
L 3821 2874 
Q 3718 3334 3488 3584 
Q 3034 4070 2458 4070 
Q 1747 4070 1334 3548 
Q 922 3027 922 2182 
Q 922 1152 1382 653 
Q 1811 192 2522 192 
Q 2944 192 3251 339 
Q 3558 486 3930 838 
z
" transform="scale(0.015625)"/>
       </defs>
       <use xlink:href="#STIXGeneral-Regular-52"/>
       <use xlink:href="#STIXGeneral-Regular-41" transform="translate(66.699997 0)"/>
       <use xlink:href="#STIXGeneral-Regular-4e" transform="translate(138.899979 0)"/>
       <use xlink:href="#STIXGeneral-Regular-53" transform="translate(211.09996 0)"/>
       <use xlink:href="#STIXGeneral-Regular-41" transform="translate(266.699951 0)"/>
       <use xlink:href="#STIXGeneral-Regular-43" transform="translate(338.899933 0)"/>
      </g>
     </g>
    </g>
    <g id="xtick_3">
     <g id="line2d_3">
      <g>
       <use xlink:href="#mec71ae9765" x="268.202681" y="299.795156" style="fill: #334155; stroke: #334155; stroke-width: 0.8"/>
      </g>
     </g>
     <g id="text_3">
      <!-- Proposed -->
      <g style="fill: #334155" transform="translate(249.587056 313.624844) scale(0.1 -0.1)">
       <defs>
        <path id="STIXGeneral-Regular-50" d="M 102 4237 
L 1760 4237 
Q 2669 4237 3149 3834 
Q 3469 3565 3469 3072 
Q 3469 2560 3104 2234 
Q 2835 1990 2553 1916 
Q 2272 1843 1734 1843 
Q 1549 1843 1293 1862 
L 1293 717 
Q 1293 352 1398 246 
Q 1504 141 1894 122 
L 1894 0 
L 102 0 
L 102 122 
Q 474 147 557 256 
Q 640 365 640 781 
L 640 3526 
Q 640 3885 547 3987 
Q 454 4090 102 4115 
L 102 4237 
z
M 1293 3770 
L 1293 2118 
Q 1510 2099 1683 2099 
Q 2202 2099 2486 2352 
Q 2771 2605 2771 3040 
Q 2771 3558 2476 3779 
Q 2182 4000 1517 4000 
Q 1382 4000 1337 3952 
Q 1293 3904 1293 3770 
z
" transform="scale(0.015625)"/>
        <path id="STIXGeneral-Regular-72" d="M 1024 2931 
L 1024 2342 
Q 1267 2688 1430 2816 
Q 1594 2944 1792 2944 
Q 1958 2944 2051 2854 
Q 2144 2765 2144 2605 
Q 2144 2470 2077 2393 
Q 2010 2317 1894 2317 
Q 1773 2317 1638 2445 
Q 1536 2541 1472 2541 
Q 1338 2541 1181 2355 
Q 1024 2170 1024 2016 
L 1024 576 
Q 1024 301 1133 205 
Q 1242 109 1568 96 
L 1568 0 
L 32 0 
L 32 96 
Q 339 154 412 224 
Q 486 294 486 538 
L 486 2138 
Q 486 2349 438 2435 
Q 390 2522 269 2522 
Q 166 2522 45 2496 
L 45 2598 
Q 448 2726 992 2944 
L 1024 2931 
z
" transform="scale(0.015625)"/>
        <path id="STIXGeneral-Regular-6f" d="M 3008 1478 
Q 3008 806 2608 371 
Q 2208 -64 1568 -64 
Q 979 -64 582 368 
Q 186 800 186 1459 
Q 186 2125 582 2534 
Q 979 2944 1626 2944 
Q 2221 2944 2614 2537 
Q 3008 2131 3008 1478 
z
M 2432 1306 
Q 2432 2035 2112 2445 
Q 1856 2765 1504 2765 
Q 1171 2765 966 2493 
Q 762 2221 762 1747 
Q 762 928 1101 435 
Q 1318 115 1677 115 
Q 2029 115 2230 432 
Q 2432 749 2432 1306 
z
" transform="scale(0.015625)"/>
        <path id="STIXGeneral-Regular-70" d="M 1018 2931 
L 1018 2438 
Q 1421 2944 1939 2944 
Q 2406 2944 2707 2560 
Q 3008 2176 3008 1581 
Q 3008 883 2621 409 
Q 2234 -64 1664 -64 
Q 1466 -64 1328 -6 
Q 1190 51 1018 211 
L 1018 -794 
Q 1018 -1094 1120 -1180 
Q 1222 -1267 1581 -1274 
L 1581 -1389 
L 32 -1389 
L 32 -1280 
Q 314 -1254 397 -1171 
Q 480 -1088 480 -838 
L 480 2157 
Q 480 2381 429 2451 
Q 378 2522 218 2522 
Q 115 2522 58 2515 
L 58 2618 
Q 506 2752 979 2944 
L 1018 2931 
z
M 1018 2138 
L 1018 563 
Q 1018 422 1238 281 
Q 1459 141 1683 141 
Q 2029 141 2243 467 
Q 2458 794 2458 1325 
Q 2458 1888 2243 2224 
Q 2029 2560 1670 2560 
Q 1446 2560 1232 2419 
Q 1018 2278 1018 2138 
z
" transform="scale(0.015625)"/>
        <path id="STIXGeneral-Regular-73" d="M 998 1926 
L 1664 1523 
Q 1984 1331 2105 1164 
Q 2227 998 2227 736 
Q 2227 416 1961 176 
Q 1696 -64 1331 -64 
Q 1030 -64 864 -6 
Q 691 51 570 51 
Q 461 51 416 -26 
L 333 -26 
L 333 979 
L 435 979 
Q 538 512 730 294 
Q 922 77 1248 77 
Q 1485 77 1632 211 
Q 1779 346 1779 550 
Q 1779 845 1440 1030 
L 1094 1222 
Q 326 1651 326 2150 
Q 326 2522 566 2730 
Q 806 2938 1210 2938 
Q 1491 2938 1638 2867 
Q 1754 2816 1818 2816 
Q 1862 2816 1920 2880 
L 1990 2880 
L 2022 2010 
L 1926 2010 
Q 1818 2445 1654 2621 
Q 1491 2797 1203 2797 
Q 986 2797 854 2688 
Q 723 2579 723 2362 
Q 723 2253 796 2128 
Q 870 2003 998 1926 
z
" transform="scale(0.015625)"/>
        <path id="STIXGeneral-Regular-65" d="M 2611 1050 
L 2714 1005 
Q 2330 -64 1376 -64 
Q 813 -64 486 329 
Q 160 723 160 1389 
Q 160 2074 525 2509 
Q 890 2944 1485 2944 
Q 2061 2944 2374 2502 
Q 2560 2246 2592 1773 
L 621 1773 
Q 646 1370 700 1158 
Q 755 947 915 730 
Q 1184 378 1626 378 
Q 1939 378 2153 531 
Q 2368 685 2611 1050 
z
M 634 1978 
L 1939 1978 
Q 1882 2381 1750 2547 
Q 1619 2714 1312 2714 
Q 1043 2714 864 2525 
Q 685 2336 634 1978 
z
" transform="scale(0.015625)"/>
        <path id="STIXGeneral-Regular-64" d="M 3142 269 
L 2202 -64 
L 2176 -45 
L 2176 365 
Q 1869 -64 1357 -64 
Q 826 -64 499 317 
Q 173 698 173 1312 
Q 173 1990 563 2467 
Q 954 2944 1504 2944 
Q 1850 2944 2176 2669 
L 2176 3667 
Q 2176 3866 2118 3930 
Q 2061 3994 1882 3994 
Q 1792 3994 1741 3987 
L 1741 4090 
Q 2323 4243 2682 4371 
L 2714 4358 
L 2714 730 
Q 2714 506 2768 435 
Q 2822 365 2995 365 
Q 3034 365 3142 371 
L 3142 269 
z
M 2176 653 
L 2176 2125 
Q 2176 2381 1981 2573 
Q 1786 2765 1523 2765 
Q 1158 2765 940 2438 
Q 723 2112 723 1568 
Q 723 979 963 624 
Q 1203 269 1606 269 
Q 1907 269 2080 474 
Q 2176 582 2176 653 
z
" transform="scale(0.015625)"/>
       </defs>
       <use xlink:href="#STIXGeneral-Regular-50"/>
       <use xlink:href="#STIXGeneral-Regular-72" transform="translate(55.699997 0)"/>
       <use xlink:href="#STIXGeneral-Regular-6f" transform="translate(88.999985 0)"/>
       <use xlink:href="#STIXGeneral-Regular-70" transform="translate(138.999969 0)"/>
       <use xlink:href="#STIXGeneral-Regular-6f" transform="translate(188.999954 0)"/>
       <use xlink:href="#STIXGeneral-Regular-73" transform="translate(238.999939 0)"/>
       <use xlink:href="#STIXGeneral-Regular-65" transform="translate(277.899933 0)"/>
       <use xlink:href="#STIXGeneral-Regular-64" transform="translate(322.299927 0)"/>
      </g>
     </g>
    </g>
   </g>
   <g id="matplotlib.axis_2">
    <g id="ytick_1">
     <g id="line2d_4">
      <path d="M 53.080625 299.795156 
L 313.937292 299.795156 
" clip-path="url(#p6c1c33c0fd)" style="fill: none; stroke-dasharray: 0.7,1.155; stroke-dashoffset: 0; stroke: #cbd5e1; stroke-opacity: 0.35; stroke-width: 0.7"/>
     </g>
     <g id="line2d_5">
      <defs>
       <path id="m48817c0672" d="M 0 0 
L -3.5 0 
" style="stroke: #334155; stroke-width: 0.8"/>
      </defs>
      <g>
       <use xlink:href="#m48817c0672" x="53.080625" y="299.795156" style="fill: #334155; stroke: #334155; stroke-width: 0.8"/>
      </g>
     </g>
     <g id="text_4">
      <!-- 0.0% -->
      <g style="fill: #334155" transform="translate(26.110313 303.21) scale(0.1 -0.1)">
       <defs>
        <path id="STIXGeneral-Regular-30" d="M 3046 2112 
Q 3046 1683 2963 1302 
Q 2880 922 2717 602 
Q 2554 282 2266 96 
Q 1978 -90 1600 -90 
Q 1210 -90 915 108 
Q 621 307 461 640 
Q 301 973 227 1350 
Q 154 1728 154 2150 
Q 154 2746 301 3222 
Q 448 3699 790 4012 
Q 1133 4326 1626 4326 
Q 2253 4326 2649 3712 
Q 3046 3098 3046 2112 
z
M 2432 2080 
Q 2432 3091 2217 3625 
Q 2003 4160 1587 4160 
Q 1190 4160 979 3622 
Q 768 3085 768 2106 
Q 768 1120 979 598 
Q 1190 77 1600 77 
Q 2003 77 2217 598 
Q 2432 1120 2432 2080 
z
" transform="scale(0.015625)"/>
        <path id="STIXGeneral-Regular-2e" d="M 1158 275 
Q 1158 134 1052 32 
Q 947 -70 800 -70 
Q 653 -70 550 32 
Q 448 134 448 281 
Q 448 429 553 534 
Q 659 640 806 640 
Q 947 640 1052 531 
Q 1158 422 1158 275 
z
" transform="scale(0.015625)"/>
        <path id="STIXGeneral-Regular-25" d="M 4390 1363 
Q 4390 781 4070 329 
Q 3750 -122 3341 -122 
Q 3014 -122 2790 134 
Q 2566 390 2566 762 
Q 2566 1274 2940 1693 
Q 3315 2112 3776 2112 
Q 4070 2112 4230 1917 
Q 4390 1722 4390 1363 
z
M 4243 1376 
Q 4243 1626 4131 1779 
Q 4019 1933 3840 1933 
Q 3654 1933 3526 1786 
Q 3315 1562 3171 1187 
Q 3027 813 3027 486 
Q 3027 301 3129 176 
Q 3232 51 3386 51 
Q 3718 51 3980 457 
Q 4243 864 4243 1376 
z
M 3974 4518 
L 1222 -115 
L 922 -115 
L 3443 4096 
Q 3264 3891 3094 3811 
Q 2925 3731 2669 3731 
Q 2445 3731 2182 3821 
Q 2208 3674 2208 3539 
Q 2208 3206 2067 2873 
Q 1926 2541 1696 2323 
Q 1453 2086 1146 2086 
Q 826 2086 608 2339 
Q 390 2592 390 2963 
Q 390 3507 761 3916 
Q 1133 4326 1626 4326 
Q 1792 4326 2010 4147 
Q 2310 3898 2624 3898 
Q 2918 3898 3084 3994 
Q 3251 4090 3693 4518 
L 3974 4518 
z
M 2054 3642 
Q 2054 3782 2025 3833 
Q 1997 3885 1894 3936 
Q 1747 4006 1613 4154 
Q 1414 4058 1331 3984 
Q 1248 3910 1152 3750 
Q 845 3264 845 2707 
Q 845 2509 944 2384 
Q 1043 2259 1210 2259 
Q 1549 2259 1801 2675 
Q 2054 3091 2054 3642 
z
" transform="scale(0.015625)"/>
       </defs>
       <use xlink:href="#STIXGeneral-Regular-30"/>
       <use xlink:href="#STIXGeneral-Regular-2e" transform="translate(49.999985 0)"/>
       <use xlink:href="#STIXGeneral-Regular-30" transform="translate(74.999969 0)"/>
       <use xlink:href="#STIXGeneral-Regular-25" transform="translate(124.999954 0)"/>
      </g>
     </g>
    </g>
    <g id="ytick_2">
     <g id="line2d_6">
      <path d="M 53.080625 257.494394 
L 313.937292 257.494394 
" clip-path="url(#p6c1c33c0fd)" style="fill: none; stroke-dasharray: 0.7,1.155; stroke-dashoffset: 0; stroke: #cbd5e1; stroke-opacity: 0.35; stroke-width: 0.7"/>
     </g>
     <g id="line2d_7">
      <g>
       <use xlink:href="#m48817c0672" x="53.080625" y="257.494394" style="fill: #334155; stroke: #334155; stroke-width: 0.8"/>
      </g>
     </g>
     <g id="text_5">
      <!-- 2.0% -->
      <g style="fill: #334155" transform="translate(26.110313 260.909238) scale(0.1 -0.1)">
       <defs>
        <path id="STIXGeneral-Regular-32" d="M 3034 877 
L 2688 0 
L 186 0 
L 186 77 
L 1325 1286 
Q 1773 1754 1965 2144 
Q 2157 2534 2157 2950 
Q 2157 3379 1920 3616 
Q 1683 3853 1267 3853 
Q 922 3853 720 3673 
Q 518 3494 326 3021 
L 192 3053 
Q 301 3648 630 3987 
Q 960 4326 1523 4326 
Q 2054 4326 2380 4006 
Q 2707 3686 2707 3200 
Q 2707 2477 1888 1613 
L 832 486 
L 2330 486 
Q 2541 486 2665 569 
Q 2790 653 2944 915 
L 3034 877 
z
" transform="scale(0.015625)"/>
       </defs>
       <use xlink:href="#STIXGeneral-Regular-32"/>
       <use xlink:href="#STIXGeneral-Regular-2e" transform="translate(49.999985 0)"/>
       <use xlink:href="#STIXGeneral-Regular-30" transform="translate(74.999969 0)"/>
       <use xlink:href="#STIXGeneral-Regular-25" transform="translate(124.999954 0)"/>
      </g>
     </g>
    </g>
    <g id="ytick_3">
     <g id="line2d_8">
      <path d="M 53.080625 215.193632 
L 313.937292 215.193632 
" clip-path="url(#p6c1c33c0fd)" style="fill: none; stroke-dasharray: 0.7,1.155; stroke-dashoffset: 0; stroke: #cbd5e1; stroke-opacity: 0.35; stroke-width: 0.7"/>
     </g>
     <g id="line2d_9">
      <g>
       <use xlink:href="#m48817c0672" x="53.080625" y="215.193632" style="fill: #334155; stroke: #334155; stroke-width: 0.8"/>
      </g>
     </g>
     <g id="text_6">
      <!-- 4.0% -->
      <g style="fill: #334155" transform="translate(26.110313 218.608476) scale(0.1 -0.1)">
       <defs>
        <path id="STIXGeneral-Regular-34" d="M 3027 1069 
L 2368 1069 
L 2368 0 
L 1869 0 
L 1869 1069 
L 77 1069 
L 77 1478 
L 2086 4326 
L 2368 4326 
L 2368 1478 
L 3027 1478 
L 3027 1069 
z
M 1869 1478 
L 1869 3674 
L 333 1478 
L 1869 1478 
z
" transform="scale(0.015625)"/>
       </defs>
       <use xlink:href="#STIXGeneral-Regular-34"/>
       <use xlink:href="#STIXGeneral-Regular-2e" transform="translate(49.999985 0)"/>
       <use xlink:href="#STIXGeneral-Regular-30" transform="translate(74.999969 0)"/>
       <use xlink:href="#STIXGeneral-Regular-25" transform="translate(124.999954 0)"/>
      </g>
     </g>
    </g>
    <g id="ytick_4">
     <g id="line2d_10">
      <path d="M 53.080625 172.892871 
L 313.937292 172.892871 
" clip-path="url(#p6c1c33c0fd)" style="fill: none; stroke-dasharray: 0.7,1.155; stroke-dashoffset: 0; stroke: #cbd5e1; stroke-opacity: 0.35; stroke-width: 0.7"/>
     </g>
     <g id="line2d_11">
      <g>
       <use xlink:href="#m48817c0672" x="53.080625" y="172.892871" style="fill: #334155; stroke: #334155; stroke-width: 0.8"/>
      </g>
     </g>
     <g id="text_7">
      <!-- 6.0% -->
      <g style="fill: #334155" transform="translate(26.110313 176.307714) scale(0.1 -0.1)">
       <defs>
        <path id="STIXGeneral-Regular-36" d="M 2854 4378 
L 2867 4275 
Q 2112 4154 1606 3664 
Q 1101 3174 973 2451 
Q 1344 2739 1786 2739 
Q 2349 2739 2672 2380 
Q 2995 2022 2995 1402 
Q 2995 774 2669 378 
Q 2291 -90 1651 -90 
Q 870 -90 518 557 
Q 218 1107 218 1786 
Q 218 2835 915 3552 
Q 1312 3962 1731 4131 
Q 2150 4301 2854 4378 
z
M 2419 1203 
Q 2419 2445 1555 2445 
Q 1235 2445 1024 2275 
Q 813 2106 813 1702 
Q 813 954 1046 522 
Q 1280 90 1722 90 
Q 2061 90 2240 394 
Q 2419 698 2419 1203 
z
" transform="scale(0.015625)"/>
       </defs>
       <use xlink:href="#STIXGeneral-Regular-36"/>
       <use xlink:href="#STIXGeneral-Regular-2e" transform="translate(49.999985 0)"/>
       <use xlink:href="#STIXGeneral-Regular-30" transform="translate(74.999969 0)"/>
       <use xlink:href="#STIXGeneral-Regular-25" transform="translate(124.999954 0)"/>
      </g>
     </g>
    </g>
    <g id="ytick_5">
     <g id="line2d_12">
      <path d="M 53.080625 130.592109 
L 313.937292 130.592109 
" clip-path="url(#p6c1c33c0fd)" style="fill: none; stroke-dasharray: 0.7,1.155; stroke-dashoffset: 0; stroke: #cbd5e1; stroke-opacity: 0.35; stroke-width: 0.7"/>
     </g>
     <g id="line2d_13">
      <g>
       <use xlink:href="#m48817c0672" x="53.080625" y="130.592109" style="fill: #334155; stroke: #334155; stroke-width: 0.8"/>
      </g>
     </g>
     <g id="text_8">
      <!-- 8.0% -->
      <g style="fill: #334155" transform="translate(26.110313 134.006952) scale(0.1 -0.1)">
       <defs>
        <path id="STIXGeneral-Regular-38" d="M 2848 992 
Q 2848 499 2505 204 
Q 2163 -90 1587 -90 
Q 1050 -90 704 204 
Q 358 499 358 954 
Q 358 1293 524 1533 
Q 691 1773 1190 2125 
Q 710 2522 553 2765 
Q 397 3008 397 3328 
Q 397 3782 745 4054 
Q 1094 4326 1638 4326 
Q 2106 4326 2410 4060 
Q 2714 3795 2714 3411 
Q 2714 3059 2531 2848 
Q 2349 2637 1856 2374 
Q 2432 1990 2640 1689 
Q 2848 1389 2848 992 
z
M 2272 3411 
Q 2272 3744 2086 3945 
Q 1901 4147 1574 4147 
Q 1248 4147 1059 3977 
Q 870 3808 870 3513 
Q 870 3219 1059 2979 
Q 1248 2739 1670 2490 
Q 1997 2682 2134 2896 
Q 2272 3110 2272 3411 
z
M 1734 1741 
L 1357 1997 
Q 1075 1766 960 1545 
Q 845 1325 845 1011 
Q 845 576 1065 333 
Q 1286 90 1658 90 
Q 1971 90 2166 285 
Q 2362 480 2362 794 
Q 2362 1082 2214 1299 
Q 2067 1517 1734 1741 
z
" transform="scale(0.015625)"/>
       </defs>
       <use xlink:href="#STIXGeneral-Regular-38"/>
       <use xlink:href="#STIXGeneral-Regular-2e" transform="translate(49.999985 0)"/>
       <use xlink:href="#STIXGeneral-Regular-30" transform="translate(74.999969 0)"/>
       <use xlink:href="#STIXGeneral-Regular-25" transform="translate(124.999954 0)"/>
      </g>
     </g>
    </g>
    <g id="ytick_6">
     <g id="line2d_14">
      <path d="M 53.080625 88.291347 
L 313.937292 88.291347 
" clip-path="url(#p6c1c33c0fd)" style="fill: none; stroke-dasharray: 0.7,1.155; stroke-dashoffset: 0; stroke: #cbd5e1; stroke-opacity: 0.35; stroke-width: 0.7"/>
     </g>
     <g id="line2d_15">
      <g>
       <use xlink:href="#m48817c0672" x="53.080625" y="88.291347" style="fill: #334155; stroke: #334155; stroke-width: 0.8"/>
      </g>
     </g>
     <g id="text_9">
      <!-- 10.0% -->
      <g style="fill: #334155" transform="translate(21.110313 91.70619) scale(0.1 -0.1)">
       <defs>
        <path id="STIXGeneral-Regular-31" d="M 2522 0 
L 755 0 
L 755 96 
Q 1107 115 1235 227 
Q 1363 339 1363 608 
L 1363 3482 
Q 1363 3795 1171 3795 
Q 1082 3795 883 3718 
L 710 3654 
L 710 3744 
L 1856 4326 
L 1914 4307 
L 1914 486 
Q 1914 275 2042 185 
Q 2170 96 2522 96 
L 2522 0 
z
" transform="scale(0.015625)"/>
       </defs>
       <use xlink:href="#STIXGeneral-Regular-31"/>
       <use xlink:href="#STIXGeneral-Regular-30" transform="translate(49.999985 0)"/>
       <use xlink:href="#STIXGeneral-Regular-2e" transform="translate(99.999969 0)"/>
       <use xlink:href="#STIXGeneral-Regular-30" transform="translate(124.999954 0)"/>
       <use xlink:href="#STIXGeneral-Regular-25" transform="translate(174.999939 0)"/>
      </g>
     </g>
    </g>
    <g id="ytick_7">
     <g id="line2d_16">
      <path d="M 53.080625 45.990585 
L 313.937292 45.990585 
" clip-path="url(#p6c1c33c0fd)" style="fill: none; stroke-dasharray: 0.7,1.155; stroke-dashoffset: 0; stroke: #cbd5e1; stroke-opacity: 0.35; stroke-width: 0.7"/>
     </g>
     <g id="line2d_17">
      <g>
       <use xlink:href="#m48817c0672" x="53.080625" y="45.990585" style="fill: #334155; stroke: #334155; stroke-width: 0.8"/>
      </g>
     </g>
     <g id="text_10">
      <!-- 12.0% -->
      <g style="fill: #334155" transform="translate(21.110313 49.405429) scale(0.1 -0.1)">
       <use xlink:href="#STIXGeneral-Regular-31"/>
       <use xlink:href="#STIXGeneral-Regular-32" transform="translate(49.999985 0)"/>
       <use xlink:href="#STIXGeneral-Regular-2e" transform="translate(99.999969 0)"/>
       <use xlink:href="#STIXGeneral-Regular-30" transform="translate(124.999954 0)"/>
       <use xlink:href="#STIXGeneral-Regular-25" transform="translate(174.999939 0)"/>
      </g>
     </g>
    </g>
    <g id="text_11">
     <!-- Proxy metric value -->
     <g style="fill: #0f172a" transform="translate(14.712656 202.856797) rotate(-90) scale(0.11 -0.11)">
      <defs>
       <path id="STIXGeneral-Regular-78" d="M 3066 0 
L 1779 0 
L 1779 96 
Q 1939 109 1987 137 
Q 2035 166 2035 250 
Q 2035 307 1997 365 
L 1414 1261 
L 909 474 
Q 781 275 781 211 
Q 781 96 1037 96 
L 1037 0 
L 109 0 
L 109 96 
Q 269 109 355 169 
Q 442 230 576 422 
L 1306 1478 
L 704 2400 
Q 557 2624 454 2704 
Q 352 2784 211 2784 
L 154 2784 
L 154 2880 
L 1478 2880 
L 1478 2784 
Q 1203 2778 1203 2643 
Q 1203 2509 1498 2074 
Q 1581 1958 1587 1946 
Q 1619 1990 1779 2227 
Q 1811 2285 1856 2349 
Q 1901 2413 1923 2451 
Q 1946 2490 1971 2528 
Q 1997 2566 2006 2595 
Q 2016 2624 2016 2643 
Q 2016 2765 1760 2784 
L 1760 2880 
L 2771 2880 
L 2771 2784 
Q 2445 2771 2253 2502 
L 1722 1734 
L 2541 480 
Q 2790 96 3066 96 
L 3066 0 
z
" transform="scale(0.015625)"/>
       <path id="STIXGeneral-Regular-79" d="M 3040 2880 
L 3040 2784 
Q 2925 2771 2854 2700 
Q 2784 2630 2720 2458 
L 1760 -160 
Q 1510 -838 1257 -1116 
Q 1005 -1395 640 -1395 
Q 435 -1395 313 -1289 
Q 192 -1184 192 -1024 
Q 192 -902 272 -816 
Q 352 -730 467 -730 
Q 653 -730 800 -813 
Q 883 -858 966 -858 
Q 1101 -858 1286 -576 
Q 1376 -448 1459 -211 
Q 1542 26 1542 115 
Q 1542 198 1274 762 
L 429 2566 
Q 346 2752 90 2790 
L 90 2880 
L 1402 2880 
L 1402 2784 
Q 1197 2778 1117 2739 
Q 1037 2701 1037 2611 
Q 1037 2541 1120 2349 
L 1837 749 
L 2458 2515 
Q 2483 2573 2483 2630 
Q 2483 2784 2189 2784 
L 2189 2880 
L 3040 2880 
z
" transform="scale(0.015625)"/>
       <path id="STIXGeneral-Regular-20" transform="scale(0.015625)"/>
       <path id="STIXGeneral-Regular-6d" d="M 4960 0 
L 3565 0 
L 3565 96 
Q 3834 122 3907 208 
Q 3981 294 3981 576 
L 3981 1894 
Q 3981 2278 3869 2444 
Q 3757 2611 3488 2611 
Q 3264 2611 3107 2521 
Q 2950 2432 2803 2221 
L 2803 608 
Q 2803 301 2896 201 
Q 2989 102 3264 96 
L 3264 0 
L 1830 0 
L 1830 96 
Q 2112 115 2189 188 
Q 2266 262 2266 550 
L 2266 1901 
Q 2266 2611 1850 2611 
Q 1670 2611 1468 2531 
Q 1267 2451 1171 2336 
Q 1088 2240 1088 2227 
L 1088 448 
Q 1088 243 1177 176 
Q 1267 109 1523 96 
L 1523 0 
L 102 0 
L 102 96 
Q 371 102 460 195 
Q 550 288 550 563 
L 550 2150 
Q 550 2387 499 2480 
Q 448 2573 326 2573 
Q 230 2573 122 2547 
L 122 2656 
Q 557 2778 1011 2944 
L 1062 2925 
L 1062 2451 
L 1075 2451 
Q 1363 2752 1584 2848 
Q 1805 2944 2054 2944 
Q 2560 2944 2733 2406 
Q 3232 2944 3776 2944 
Q 4518 2944 4518 1792 
L 4518 493 
Q 4518 282 4582 202 
Q 4646 122 4794 109 
L 4960 96 
L 4960 0 
z
" transform="scale(0.015625)"/>
       <path id="STIXGeneral-Regular-74" d="M 1702 493 
L 1786 422 
Q 1478 -64 1011 -64 
Q 448 -64 448 749 
L 448 2675 
L 109 2675 
Q 83 2694 83 2720 
Q 83 2771 192 2842 
Q 435 2982 813 3526 
Q 826 3546 874 3606 
Q 922 3667 941 3706 
Q 986 3706 986 3622 
L 986 2880 
L 1632 2880 
L 1632 2675 
L 986 2675 
L 986 845 
Q 986 538 1062 403 
Q 1139 269 1318 269 
Q 1510 269 1702 493 
z
" transform="scale(0.015625)"/>
       <path id="STIXGeneral-Regular-69" d="M 1152 4045 
Q 1152 3904 1056 3811 
Q 960 3718 819 3718 
Q 685 3718 592 3811 
Q 499 3904 499 4045 
Q 499 4179 595 4275 
Q 691 4371 826 4371 
Q 966 4371 1059 4275 
Q 1152 4179 1152 4045 
z
M 1619 0 
L 102 0 
L 102 96 
Q 435 115 521 211 
Q 608 307 608 666 
L 608 2118 
Q 608 2342 563 2432 
Q 518 2522 397 2522 
Q 243 2522 128 2490 
L 128 2592 
L 1120 2944 
L 1146 2918 
L 1146 672 
Q 1146 314 1226 218 
Q 1306 122 1619 96 
L 1619 0 
z
" transform="scale(0.015625)"/>
       <path id="STIXGeneral-Regular-63" d="M 2547 998 
L 2637 941 
Q 2362 403 2112 205 
Q 1786 -64 1376 -64 
Q 845 -64 502 336 
Q 160 736 160 1357 
Q 160 2170 698 2618 
Q 1094 2944 1562 2944 
Q 1965 2944 2256 2749 
Q 2547 2554 2547 2285 
Q 2547 2176 2457 2096 
Q 2368 2016 2246 2016 
Q 2022 2016 1939 2310 
L 1901 2451 
Q 1850 2630 1773 2694 
Q 1696 2758 1523 2758 
Q 1133 2758 893 2451 
Q 653 2144 653 1645 
Q 653 1094 928 745 
Q 1203 397 1645 397 
Q 1920 397 2118 528 
Q 2317 659 2547 998 
z
" transform="scale(0.015625)"/>
       <path id="STIXGeneral-Regular-76" d="M 3053 2880 
L 3053 2784 
Q 2906 2771 2835 2688 
Q 2765 2605 2637 2285 
L 1818 230 
Q 1690 -90 1638 -90 
Q 1587 -90 1523 77 
Q 1510 96 1497 141 
Q 1485 186 1472 211 
L 704 2048 
Q 499 2534 403 2652 
Q 307 2771 122 2784 
L 122 2880 
L 1376 2880 
L 1376 2784 
Q 1210 2771 1146 2732 
Q 1082 2694 1082 2611 
Q 1082 2509 1139 2368 
L 1792 730 
L 2426 2387 
Q 2464 2483 2464 2579 
Q 2464 2758 2163 2784 
L 2163 2880 
L 3053 2880 
z
" transform="scale(0.015625)"/>
       <path id="STIXGeneral-Regular-61" d="M 2829 422 
L 2829 243 
Q 2586 -64 2253 -64 
Q 1888 -64 1843 403 
L 1837 403 
Q 1427 -64 909 -64 
Q 608 -64 422 112 
Q 237 288 237 602 
Q 237 1050 685 1350 
Q 992 1555 1837 1869 
L 1837 2214 
Q 1837 2502 1699 2646 
Q 1562 2790 1338 2790 
Q 1146 2790 1018 2697 
Q 890 2605 890 2477 
Q 890 2419 909 2348 
Q 928 2278 928 2208 
Q 928 2112 841 2029 
Q 755 1946 634 1946 
Q 525 1946 441 2029 
Q 358 2112 358 2240 
Q 358 2547 685 2752 
Q 986 2944 1421 2944 
Q 1939 2944 2176 2656 
Q 2291 2522 2323 2384 
Q 2355 2246 2355 1946 
L 2355 723 
Q 2355 301 2554 301 
Q 2682 301 2829 422 
z
M 1837 813 
L 1837 1715 
Q 1248 1510 1018 1293 
Q 800 1094 800 800 
Q 800 557 921 432 
Q 1043 307 1242 307 
Q 1453 307 1613 410 
Q 1747 506 1792 589 
Q 1837 672 1837 813 
z
" transform="scale(0.015625)"/>
       <path id="STIXGeneral-Regular-6c" d="M 1645 0 
L 134 0 
L 134 96 
Q 435 122 531 221 
Q 627 320 627 589 
L 627 3590 
Q 627 3821 569 3910 
Q 512 4000 358 4000 
Q 224 4000 122 3987 
L 122 4090 
Q 730 4237 1133 4371 
L 1165 4346 
L 1165 557 
Q 1165 288 1254 201 
Q 1344 115 1645 96 
L 1645 0 
z
" transform="scale(0.015625)"/>
       <path id="STIXGeneral-Regular-75" d="M 3072 320 
L 3072 230 
Q 2573 96 2195 -58 
L 2163 -38 
L 2163 486 
L 2150 486 
Q 1747 -64 1235 -64 
Q 870 -64 662 160 
Q 454 384 454 755 
L 454 2362 
Q 454 2598 371 2688 
Q 288 2778 58 2790 
L 58 2880 
L 992 2880 
L 992 813 
Q 992 595 1123 451 
Q 1254 307 1446 307 
Q 1760 307 1984 506 
Q 2067 582 2099 649 
Q 2131 717 2131 877 
L 2131 2355 
Q 2131 2605 2041 2678 
Q 1952 2752 1658 2771 
L 1658 2880 
L 2669 2880 
L 2669 685 
Q 2669 461 2742 390 
Q 2816 320 3034 320 
L 3072 320 
z
" transform="scale(0.015625)"/>
      </defs>
      <use xlink:href="#STIXGeneral-Regular-50"/>
      <use xlink:href="#STIXGeneral-Regular-72" transform="translate(55.699997 0)"/>
      <use xlink:href="#STIXGeneral-Regular-6f" transform="translate(88.999985 0)"/>
      <use xlink:href="#STIXGeneral-Regular-78" transform="translate(138.999969 0)"/>
      <use xlink:href="#STIXGeneral-Regular-79" transform="translate(188.999954 0)"/>
      <use xlink:href="#STIXGeneral-Regular-20" transform="translate(238.999939 0)"/>
      <use xlink:href="#STIXGeneral-Regular-6d" transform="translate(263.999924 0)"/>
      <use xlink:href="#STIXGeneral-Regular-65" transform="translate(341.799911 0)"/>
      <use xlink:href="#STIXGeneral-Regular-74" transform="translate(386.199905 0)"/>
      <use xlink:href="#STIXGeneral-Regular-72" transform="translate(413.999893 0)"/>
      <use xlink:href="#STIXGeneral-Regular-69" transform="translate(447.299881 0)"/>
      <use xlink:href="#STIXGeneral-Regular-63" transform="translate(475.099869 0)"/>
      <use xlink:href="#STIXGeneral-Regular-20" transform="translate(519.499863 0)"/>
      <use xlink:href="#STIXGeneral-Regular-76" transform="translate(544.499847 0)"/>
      <use xlink:href="#STIXGeneral-Regular-61" transform="translate(594.499832 0)"/>
      <use xlink:href="#STIXGeneral-Regular-6c" transform="translate(638.899826 0)"/>
      <use xlink:href="#STIXGeneral-Regular-75" transform="translate(666.699814 0)"/>
      <use xlink:href="#STIXGeneral-Regular-65" transform="translate(716.699799 0)"/>
     </g>
    </g>
   </g>
   <g id="patch_6">
    <path d="M 53.080625 299.795156 
L 53.080625 22.196406 
" style="fill: none; stroke: #cbd5e1; stroke-width: 0.9; stroke-linejoin: miter; stroke-linecap: square"/>
   </g>
   <g id="patch_7">
    <path d="M 53.080625 299.795156 
L 313.937292 299.795156 
" style="fill: none; stroke: #cbd5e1; stroke-width: 0.9; stroke-linejoin: miter; stroke-linecap: square"/>
   </g>
   <g id="text_12">
    <!-- 0.12 -->
    <g style="fill: #0f172a" transform="translate(90.940235 33.462113) scale(0.09 -0.09)">
     <use xlink:href="#STIXGeneral-Regular-30"/>
     <use xlink:href="#STIXGeneral-Regular-2e" transform="translate(49.999985 0)"/>
     <use xlink:href="#STIXGeneral-Regular-31" transform="translate(74.999969 0)"/>
     <use xlink:href="#STIXGeneral-Regular-32" transform="translate(124.999954 0)"/>
    </g>
   </g>
   <g id="text_13">
    <!-- 0.08 -->
    <g style="fill: #0f172a" transform="translate(175.633958 121.5887) scale(0.09 -0.09)">
     <use xlink:href="#STIXGeneral-Regular-30"/>
     <use xlink:href="#STIXGeneral-Regular-2e" transform="translate(49.999985 0)"/>
     <use xlink:href="#STIXGeneral-Regular-30" transform="translate(74.999969 0)"/>
     <use xlink:href="#STIXGeneral-Regular-38" transform="translate(124.999954 0)"/>
    </g>
   </g>
   <g id="text_14">
    <!-- 0.08 -->
    <g style="fill: #0f172a" transform="translate(260.327681 121.5887) scale(0.09 -0.09)">
     <use xlink:href="#STIXGeneral-Regular-30"/>
     <use xlink:href="#STIXGeneral-Regular-2e" transform="translate(49.999985 0)"/>
     <use xlink:href="#STIXGeneral-Regular-30" transform="translate(74.999969 0)"/>
     <use xlink:href="#STIXGeneral-Regular-38" transform="translate(124.999954 0)"/>
    </g>
   </g>
   <g id="text_15">
    <!-- Overall sequence break rate -->
    <g style="fill: #0f172a" transform="translate(105.338333 16.196406) scale(0.13 -0.13)">
     <defs>
      <path id="STIXGeneral-Bold-4f" d="M 4755 2144 
Q 4755 1146 4118 512 
Q 3482 -122 2483 -122 
Q 1491 -122 857 512 
Q 224 1146 224 2138 
Q 224 3155 870 3788 
Q 1517 4422 2522 4422 
Q 3488 4422 4121 3779 
Q 4755 3136 4755 2144 
z
M 3622 2099 
Q 3622 3123 3324 3667 
Q 3027 4211 2464 4211 
Q 1933 4211 1645 3664 
Q 1357 3117 1357 2112 
Q 1357 1107 1651 598 
Q 1946 90 2496 90 
Q 3046 90 3334 602 
Q 3622 1114 3622 2099 
z
" transform="scale(0.015625)"/>
      <path id="STIXGeneral-Bold-76" d="M 3104 2950 
L 3104 2797 
Q 2950 2784 2886 2723 
Q 2822 2662 2733 2445 
L 1709 -90 
L 1542 -90 
L 774 1805 
Q 474 2547 352 2707 
Q 301 2771 134 2797 
L 134 2950 
L 1734 2950 
L 1734 2797 
L 1619 2784 
Q 1395 2758 1395 2630 
Q 1395 2573 1453 2432 
L 1958 1133 
L 2419 2298 
Q 2490 2464 2490 2586 
Q 2490 2701 2416 2742 
Q 2342 2784 2138 2797 
L 2138 2950 
L 3104 2950 
z
" transform="scale(0.015625)"/>
      <path id="STIXGeneral-Bold-65" d="M 2579 806 
L 2733 717 
Q 2451 269 2166 89 
Q 1882 -90 1466 -90 
Q 890 -90 525 342 
Q 160 774 160 1434 
Q 160 2150 528 2588 
Q 896 3027 1498 3027 
Q 2029 3027 2317 2707 
Q 2656 2336 2694 1568 
L 1082 1568 
Q 1101 1299 1133 1116 
Q 1165 934 1241 748 
Q 1318 563 1468 467 
Q 1619 371 1843 371 
Q 2048 371 2214 470 
Q 2381 570 2579 806 
z
M 1907 1805 
L 1907 1939 
Q 1907 2406 1850 2528 
Q 1773 2688 1699 2758 
Q 1626 2829 1498 2829 
Q 1267 2829 1158 2595 
Q 1050 2362 1050 1805 
L 1907 1805 
z
" transform="scale(0.015625)"/>
      <path id="STIXGeneral-Bold-72" d="M 1395 2950 
L 1395 2426 
Q 1619 2752 1817 2889 
Q 2016 3027 2259 3027 
Q 2483 3027 2630 2883 
Q 2778 2739 2778 2522 
Q 2778 2330 2666 2208 
Q 2554 2086 2374 2086 
Q 2138 2086 1990 2330 
Q 1901 2477 1811 2477 
Q 1645 2477 1533 2285 
Q 1421 2093 1421 1811 
L 1421 678 
Q 1421 371 1507 272 
Q 1594 173 1882 154 
L 1882 0 
L 186 0 
L 186 154 
Q 397 192 464 265 
Q 531 339 531 538 
L 531 2387 
Q 531 2611 460 2688 
Q 390 2765 179 2797 
L 179 2950 
L 1395 2950 
z
" transform="scale(0.015625)"/>
      <path id="STIXGeneral-Bold-61" d="M 3027 410 
L 3123 275 
Q 2784 -90 2406 -90 
Q 2170 -90 2051 9 
Q 1933 109 1882 352 
Q 1395 -90 864 -90 
Q 544 -90 352 80 
Q 160 250 160 589 
Q 160 1018 589 1306 
Q 909 1517 1875 1792 
L 1875 2227 
Q 1875 2541 1756 2681 
Q 1638 2822 1357 2822 
Q 1178 2822 1059 2758 
Q 941 2694 941 2586 
Q 941 2515 1011 2438 
Q 1133 2291 1133 2170 
Q 1133 2003 1011 1894 
Q 890 1786 698 1786 
Q 499 1786 390 1901 
Q 282 2016 282 2221 
Q 282 2598 618 2812 
Q 954 3027 1504 3027 
Q 2093 3027 2425 2803 
Q 2758 2579 2758 2170 
L 2758 499 
Q 2758 320 2893 320 
Q 2938 320 2963 346 
L 3027 410 
z
M 1875 621 
L 1875 1568 
Q 1094 1350 1094 794 
Q 1094 589 1187 477 
Q 1280 365 1427 365 
Q 1696 365 1875 621 
z
" transform="scale(0.015625)"/>
      <path id="STIXGeneral-Bold-6c" d="M 1638 0 
L 102 0 
L 102 154 
Q 429 179 429 557 
L 429 3757 
Q 429 4147 96 4173 
L 96 4326 
L 1318 4326 
L 1318 557 
Q 1318 346 1395 253 
Q 1472 160 1638 154 
L 1638 0 
z
" transform="scale(0.015625)"/>
      <path id="STIXGeneral-Bold-20" transform="scale(0.015625)"/>
      <path id="STIXGeneral-Bold-73" d="M 2176 2086 
L 2016 2086 
Q 1894 2445 1715 2611 
Q 1498 2816 1235 2816 
Q 1056 2816 934 2710 
Q 813 2605 813 2445 
Q 813 2278 957 2147 
Q 1101 2016 1427 1882 
Q 1907 1683 2108 1452 
Q 2310 1222 2310 883 
Q 2310 454 2035 182 
Q 1760 -90 1325 -90 
Q 992 -90 634 58 
Q 538 96 486 96 
Q 416 96 320 -83 
L 160 -83 
L 160 973 
L 339 973 
Q 544 128 1216 128 
Q 1434 128 1565 243 
Q 1696 358 1696 544 
Q 1696 698 1555 829 
Q 1414 960 1082 1101 
Q 602 1306 387 1539 
Q 173 1773 173 2093 
Q 173 2496 457 2761 
Q 742 3027 1178 3027 
Q 1395 3027 1677 2931 
Q 1818 2886 1875 2886 
Q 1984 2886 2035 3014 
L 2176 3014 
L 2176 2086 
z
" transform="scale(0.015625)"/>
      <path id="STIXGeneral-Bold-71" d="M 3430 -1312 
L 1722 -1312 
L 1722 -1158 
Q 2029 -1114 2109 -1008 
Q 2189 -902 2189 -576 
L 2189 269 
Q 1907 -90 1401 -90 
Q 896 -90 557 316 
Q 218 723 218 1402 
Q 218 2093 611 2560 
Q 1005 3027 1638 3027 
Q 1882 3027 2061 2950 
Q 2240 2874 2483 2669 
L 2976 3021 
L 3078 3021 
L 3078 -787 
Q 3078 -979 3142 -1046 
Q 3206 -1114 3430 -1158 
L 3430 -1312 
z
M 2189 627 
L 2189 2266 
Q 2189 2528 2070 2675 
Q 1952 2822 1760 2822 
Q 1478 2822 1315 2496 
Q 1152 2170 1152 1510 
Q 1152 883 1312 569 
Q 1472 256 1747 256 
Q 1926 256 2057 355 
Q 2189 454 2189 627 
z
" transform="scale(0.015625)"/>
      <path id="STIXGeneral-Bold-75" d="M 3443 128 
L 3040 83 
Q 2509 26 2195 -83 
L 2195 333 
Q 1946 96 1738 3 
Q 1530 -90 1267 -90 
Q 864 -90 640 153 
Q 416 397 416 838 
L 416 2381 
Q 416 2605 358 2681 
Q 301 2758 102 2797 
L 102 2950 
L 1306 2950 
L 1306 813 
Q 1306 326 1664 326 
Q 1914 326 2189 627 
L 2189 2394 
Q 2189 2611 2112 2694 
Q 2035 2778 1798 2797 
L 1798 2950 
L 3078 2950 
L 3078 672 
Q 3078 461 3155 371 
Q 3232 282 3443 275 
L 3443 128 
z
" transform="scale(0.015625)"/>
      <path id="STIXGeneral-Bold-6e" d="M 3450 0 
L 1952 0 
L 1952 154 
Q 2112 173 2179 259 
Q 2246 346 2246 538 
L 2246 2054 
Q 2246 2598 1920 2598 
Q 1690 2598 1472 2381 
Q 1363 2272 1363 2227 
L 1363 538 
Q 1363 352 1430 265 
Q 1498 179 1670 154 
L 1670 0 
L 134 0 
L 134 154 
Q 346 198 410 275 
Q 474 352 474 557 
L 474 2406 
Q 474 2611 410 2688 
Q 346 2765 134 2797 
L 134 2950 
L 1357 2950 
L 1357 2470 
L 1363 2470 
Q 1677 3027 2272 3027 
Q 2669 3027 2902 2780 
Q 3136 2534 3136 2118 
L 3136 538 
Q 3136 320 3200 243 
Q 3264 166 3450 154 
L 3450 0 
z
" transform="scale(0.015625)"/>
      <path id="STIXGeneral-Bold-63" d="M 2637 698 
L 2752 582 
Q 2490 224 2202 67 
Q 1914 -90 1530 -90 
Q 922 -90 541 326 
Q 160 742 160 1421 
Q 160 2125 595 2576 
Q 1030 3027 1677 3027 
Q 2099 3027 2380 2828 
Q 2662 2630 2662 2323 
Q 2662 2138 2544 2026 
Q 2426 1914 2227 1914 
Q 2061 1914 1965 2035 
Q 1869 2157 1869 2381 
Q 1869 2496 1865 2547 
Q 1862 2598 1849 2665 
Q 1837 2733 1811 2761 
Q 1786 2790 1731 2809 
Q 1677 2829 1600 2829 
Q 1357 2829 1209 2544 
Q 1062 2259 1062 1747 
Q 1062 1094 1299 716 
Q 1536 339 1952 339 
Q 2323 339 2637 698 
z
" transform="scale(0.015625)"/>
      <path id="STIXGeneral-Bold-62" d="M 1350 4326 
L 1350 2669 
Q 1690 3027 2131 3027 
Q 2662 3027 2998 2611 
Q 3334 2195 3334 1530 
Q 3334 806 2931 358 
Q 2528 -90 1888 -90 
Q 1440 -90 1043 275 
L 538 -83 
L 461 -83 
L 461 3802 
Q 461 3994 397 4061 
Q 333 4128 109 4173 
L 109 4326 
L 1350 4326 
z
M 1350 2304 
L 1350 621 
Q 1350 390 1472 252 
Q 1594 115 1792 115 
Q 2394 115 2394 1414 
Q 2394 2682 1798 2682 
Q 1638 2682 1536 2595 
Q 1434 2509 1350 2304 
z
" transform="scale(0.015625)"/>
      <path id="STIXGeneral-Bold-6b" d="M 3475 0 
L 1978 0 
L 1978 154 
Q 2246 166 2246 275 
Q 2246 352 2093 563 
L 1485 1421 
L 1338 1267 
L 1338 538 
Q 1338 314 1392 250 
Q 1446 186 1670 154 
L 1670 0 
L 141 0 
L 141 154 
Q 448 179 448 538 
L 448 3802 
Q 448 4147 141 4173 
L 141 4326 
L 1338 4326 
L 1338 1568 
L 2157 2387 
Q 2291 2522 2291 2630 
Q 2291 2746 2067 2778 
L 1914 2803 
L 1914 2950 
L 3283 2950 
L 3283 2803 
Q 2982 2765 2768 2617 
Q 2554 2470 2074 1965 
L 3315 250 
Q 3386 154 3475 154 
L 3475 0 
z
" transform="scale(0.015625)"/>
      <path id="STIXGeneral-Bold-74" d="M 1965 717 
L 2125 646 
Q 1926 250 1712 86 
Q 1498 -77 1178 -77 
Q 845 -77 653 105 
Q 461 288 461 608 
L 461 2669 
L 122 2669 
L 122 2842 
Q 435 3053 646 3299 
Q 858 3546 1190 4032 
L 1350 4032 
L 1350 2950 
L 1958 2950 
L 1958 2669 
L 1350 2669 
L 1350 762 
Q 1350 378 1600 378 
Q 1786 378 1965 717 
z
" transform="scale(0.015625)"/>
     </defs>
     <use xlink:href="#STIXGeneral-Bold-4f"/>
     <use xlink:href="#STIXGeneral-Bold-76" transform="translate(77.799988 0)"/>
     <use xlink:href="#STIXGeneral-Bold-65" transform="translate(127.799973 0)"/>
     <use xlink:href="#STIXGeneral-Bold-72" transform="translate(172.199966 0)"/>
     <use xlink:href="#STIXGeneral-Bold-61" transform="translate(216.59996 0)"/>
     <use xlink:href="#STIXGeneral-Bold-6c" transform="translate(266.599945 0)"/>
     <use xlink:href="#STIXGeneral-Bold-6c" transform="translate(294.399933 0)"/>
     <use xlink:href="#STIXGeneral-Bold-20" transform="translate(322.199921 0)"/>
     <use xlink:href="#STIXGeneral-Bold-73" transform="translate(347.199905 0)"/>
     <use xlink:href="#STIXGeneral-Bold-65" transform="translate(386.099899 0)"/>
     <use xlink:href="#STIXGeneral-Bold-71" transform="translate(430.499893 0)"/>
     <use xlink:href="#STIXGeneral-Bold-75" transform="translate(486.099884 0)"/>
     <use xlink:href="#STIXGeneral-Bold-65" transform="translate(541.699875 0)"/>
     <use xlink:href="#STIXGeneral-Bold-6e" transform="translate(586.099869 0)"/>
     <use xlink:href="#STIXGeneral-Bold-63" transform="translate(641.69986 0)"/>
     <use xlink:href="#STIXGeneral-Bold-65" transform="translate(686.099854 0)"/>
     <use xlink:href="#STIXGeneral-Bold-20" transform="translate(730.499847 0)"/>
     <use xlink:href="#STIXGeneral-Bold-62" transform="translate(755.499832 0)"/>
     <use xlink:href="#STIXGeneral-Bold-72" transform="translate(811.099823 0)"/>
     <use xlink:href="#STIXGeneral-Bold-65" transform="translate(855.499817 0)"/>
     <use xlink:href="#STIXGeneral-Bold-61" transform="translate(899.899811 0)"/>
     <use xlink:href="#STIXGeneral-Bold-6b" transform="translate(949.899796 0)"/>
     <use xlink:href="#STIXGeneral-Bold-20" transform="translate(1005.499786 0)"/>
     <use xlink:href="#STIXGeneral-Bold-72" transform="translate(1030.499771 0)"/>
     <use xlink:href="#STIXGeneral-Bold-61" transform="translate(1074.899765 0)"/>
     <use xlink:href="#STIXGeneral-Bold-74" transform="translate(1124.89975 0)"/>
     <use xlink:href="#STIXGeneral-Bold-65" transform="translate(1158.199738 0)"/>
    </g>
   </g>
  </g>
  <g id="axes_2">
   <g id="patch_8">
    <path d="M 356.937292 299.795156 
L 617.793958 299.795156 
L 617.793958 22.196406 
L 356.937292 22.196406 
z
" style="fill: #fcfbf8"/>
   </g>
   <g id="patch_9">
    <path d="M 368.794413 299.795156 
L 436.549391 299.795156 
L 436.549391 35.415394 
L 368.794413 35.415394 
z
" clip-path="url(#p38f46e0d6b)" style="fill: #6b7280"/>
   </g>
   <g id="patch_10">
    <path d="M 453.488136 299.795156 
L 521.243114 299.795156 
L 521.243114 167.605275 
L 453.488136 167.605275 
z
" clip-path="url(#p38f46e0d6b)" style="fill: #7c3aed"/>
   </g>
   <g id="patch_11">
    <path d="M 538.181859 299.795156 
L 605.936837 299.795156 
L 605.936837 167.605275 
L 538.181859 167.605275 
z
" clip-path="url(#p38f46e0d6b)" style="fill: #0f766e"/>
   </g>
   <g id="matplotlib.axis_3">
    <g id="xtick_4">
     <g id="line2d_18">
      <g>
       <use xlink:href="#mec71ae9765" x="402.671902" y="299.795156" style="fill: #334155; stroke: #334155; stroke-width: 0.8"/>
      </g>
     </g>
     <g id="text_16">
      <!-- LS -->
      <g style="fill: #334155" transform="translate(396.837527 313.624844) scale(0.1 -0.1)">
       <use xlink:href="#STIXGeneral-Regular-4c"/>
       <use xlink:href="#STIXGeneral-Regular-53" transform="translate(61.099991 0)"/>
      </g>
     </g>
    </g>
    <g id="xtick_5">
     <g id="line2d_19">
      <g>
       <use xlink:href="#mec71ae9765" x="487.365625" y="299.795156" style="fill: #334155; stroke: #334155; stroke-width: 0.8"/>
      </g>
     </g>
     <g id="text_17">
      <!-- RANSAC -->
      <g style="fill: #334155" transform="translate(467.085156 313.624844) scale(0.1 -0.1)">
       <use xlink:href="#STIXGeneral-Regular-52"/>
       <use xlink:href="#STIXGeneral-Regular-41" transform="translate(66.699997 0)"/>
       <use xlink:href="#STIXGeneral-Regular-4e" transform="translate(138.899979 0)"/>
       <use xlink:href="#STIXGeneral-Regular-53" transform="translate(211.09996 0)"/>
       <use xlink:href="#STIXGeneral-Regular-41" transform="translate(266.699951 0)"/>
       <use xlink:href="#STIXGeneral-Regular-43" transform="translate(338.899933 0)"/>
      </g>
     </g>
    </g>
    <g id="xtick_6">
     <g id="line2d_20">
      <g>
       <use xlink:href="#mec71ae9765" x="572.059348" y="299.795156" style="fill: #334155; stroke: #334155; stroke-width: 0.8"/>
      </g>
     </g>
     <g id="text_18">
      <!-- Proposed -->
      <g style="fill: #334155" transform="translate(553.443723 313.624844) scale(0.1 -0.1)">
       <use xlink:href="#STIXGeneral-Regular-50"/>
       <use xlink:href="#STIXGeneral-Regular-72" transform="translate(55.699997 0)"/>
       <use xlink:href="#STIXGeneral-Regular-6f" transform="translate(88.999985 0)"/>
       <use xlink:href="#STIXGeneral-Regular-70" transform="translate(138.999969 0)"/>
       <use xlink:href="#STIXGeneral-Regular-6f" transform="translate(188.999954 0)"/>
       <use xlink:href="#STIXGeneral-Regular-73" transform="translate(238.999939 0)"/>
       <use xlink:href="#STIXGeneral-Regular-65" transform="translate(277.899933 0)"/>
       <use xlink:href="#STIXGeneral-Regular-64" transform="translate(322.299927 0)"/>
      </g>
     </g>
    </g>
   </g>
   <g id="matplotlib.axis_4">
    <g id="ytick_8">
     <g id="line2d_21">
      <path d="M 356.937292 299.795156 
L 617.793958 299.795156 
" clip-path="url(#p38f46e0d6b)" style="fill: none; stroke-dasharray: 0.7,1.155; stroke-dashoffset: 0; stroke: #cbd5e1; stroke-opacity: 0.35; stroke-width: 0.7"/>
     </g>
     <g id="line2d_22">
      <g>
       <use xlink:href="#m48817c0672" x="356.937292" y="299.795156" style="fill: #334155; stroke: #334155; stroke-width: 0.8"/>
      </g>
     </g>
     <g id="text_19">
      <!-- 0.0% -->
      <g style="fill: #334155" transform="translate(329.966979 303.21) scale(0.1 -0.1)">
       <use xlink:href="#STIXGeneral-Regular-30"/>
       <use xlink:href="#STIXGeneral-Regular-2e" transform="translate(49.999985 0)"/>
       <use xlink:href="#STIXGeneral-Regular-30" transform="translate(74.999969 0)"/>
       <use xlink:href="#STIXGeneral-Regular-25" transform="translate(124.999954 0)"/>
      </g>
     </g>
    </g>
    <g id="ytick_9">
     <g id="line2d_23">
      <path d="M 356.937292 268.069585 
L 617.793958 268.069585 
" clip-path="url(#p38f46e0d6b)" style="fill: none; stroke-dasharray: 0.7,1.155; stroke-dashoffset: 0; stroke: #cbd5e1; stroke-opacity: 0.35; stroke-width: 0.7"/>
     </g>
     <g id="line2d_24">
      <g>
       <use xlink:href="#m48817c0672" x="356.937292" y="268.069585" style="fill: #334155; stroke: #334155; stroke-width: 0.8"/>
      </g>
     </g>
     <g id="text_20">
      <!-- 2.0% -->
      <g style="fill: #334155" transform="translate(329.966979 271.484429) scale(0.1 -0.1)">
       <use xlink:href="#STIXGeneral-Regular-32"/>
       <use xlink:href="#STIXGeneral-Regular-2e" transform="translate(49.999985 0)"/>
       <use xlink:href="#STIXGeneral-Regular-30" transform="translate(74.999969 0)"/>
       <use xlink:href="#STIXGeneral-Regular-25" transform="translate(124.999954 0)"/>
      </g>
     </g>
    </g>
    <g id="ytick_10">
     <g id="line2d_25">
      <path d="M 356.937292 236.344013 
L 617.793958 236.344013 
" clip-path="url(#p38f46e0d6b)" style="fill: none; stroke-dasharray: 0.7,1.155; stroke-dashoffset: 0; stroke: #cbd5e1; stroke-opacity: 0.35; stroke-width: 0.7"/>
     </g>
     <g id="line2d_26">
      <g>
       <use xlink:href="#m48817c0672" x="356.937292" y="236.344013" style="fill: #334155; stroke: #334155; stroke-width: 0.8"/>
      </g>
     </g>
     <g id="text_21">
      <!-- 4.0% -->
      <g style="fill: #334155" transform="translate(329.966979 239.758857) scale(0.1 -0.1)">
       <use xlink:href="#STIXGeneral-Regular-34"/>
       <use xlink:href="#STIXGeneral-Regular-2e" transform="translate(49.999985 0)"/>
       <use xlink:href="#STIXGeneral-Regular-30" transform="translate(74.999969 0)"/>
       <use xlink:href="#STIXGeneral-Regular-25" transform="translate(124.999954 0)"/>
      </g>
     </g>
    </g>
    <g id="ytick_11">
     <g id="line2d_27">
      <path d="M 356.937292 204.618442 
L 617.793958 204.618442 
" clip-path="url(#p38f46e0d6b)" style="fill: none; stroke-dasharray: 0.7,1.155; stroke-dashoffset: 0; stroke: #cbd5e1; stroke-opacity: 0.35; stroke-width: 0.7"/>
     </g>
     <g id="line2d_28">
      <g>
       <use xlink:href="#m48817c0672" x="356.937292" y="204.618442" style="fill: #334155; stroke: #334155; stroke-width: 0.8"/>
      </g>
     </g>
     <g id="text_22">
      <!-- 6.0% -->
      <g style="fill: #334155" transform="translate(329.966979 208.033286) scale(0.1 -0.1)">
       <use xlink:href="#STIXGeneral-Regular-36"/>
       <use xlink:href="#STIXGeneral-Regular-2e" transform="translate(49.999985 0)"/>
       <use xlink:href="#STIXGeneral-Regular-30" transform="translate(74.999969 0)"/>
       <use xlink:href="#STIXGeneral-Regular-25" transform="translate(124.999954 0)"/>
      </g>
     </g>
    </g>
    <g id="ytick_12">
     <g id="line2d_29">
      <path d="M 356.937292 172.892871 
L 617.793958 172.892871 
" clip-path="url(#p38f46e0d6b)" style="fill: none; stroke-dasharray: 0.7,1.155; stroke-dashoffset: 0; stroke: #cbd5e1; stroke-opacity: 0.35; stroke-width: 0.7"/>
     </g>
     <g id="line2d_30">
      <g>
       <use xlink:href="#m48817c0672" x="356.937292" y="172.892871" style="fill: #334155; stroke: #334155; stroke-width: 0.8"/>
      </g>
     </g>
     <g id="text_23">
      <!-- 8.0% -->
      <g style="fill: #334155" transform="translate(329.966979 176.307714) scale(0.1 -0.1)">
       <use xlink:href="#STIXGeneral-Regular-38"/>
       <use xlink:href="#STIXGeneral-Regular-2e" transform="translate(49.999985 0)"/>
       <use xlink:href="#STIXGeneral-Regular-30" transform="translate(74.999969 0)"/>
       <use xlink:href="#STIXGeneral-Regular-25" transform="translate(124.999954 0)"/>
      </g>
     </g>
    </g>
    <g id="ytick_13">
     <g id="line2d_31">
      <path d="M 356.937292 141.167299 
L 617.793958 141.167299 
" clip-path="url(#p38f46e0d6b)" style="fill: none; stroke-dasharray: 0.7,1.155; stroke-dashoffset: 0; stroke: #cbd5e1; stroke-opacity: 0.35; stroke-width: 0.7"/>
     </g>
     <g id="line2d_32">
      <g>
       <use xlink:href="#m48817c0672" x="356.937292" y="141.167299" style="fill: #334155; stroke: #334155; stroke-width: 0.8"/>
      </g>
     </g>
     <g id="text_24">
      <!-- 10.0% -->
      <g style="fill: #334155" transform="translate(324.966979 144.582143) scale(0.1 -0.1)">
       <use xlink:href="#STIXGeneral-Regular-31"/>
       <use xlink:href="#STIXGeneral-Regular-30" transform="translate(49.999985 0)"/>
       <use xlink:href="#STIXGeneral-Regular-2e" transform="translate(99.999969 0)"/>
       <use xlink:href="#STIXGeneral-Regular-30" transform="translate(124.999954 0)"/>
       <use xlink:href="#STIXGeneral-Regular-25" transform="translate(174.999939 0)"/>
      </g>
     </g>
    </g>
    <g id="ytick_14">
     <g id="line2d_33">
      <path d="M 356.937292 109.441728 
L 617.793958 109.441728 
" clip-path="url(#p38f46e0d6b)" style="fill: none; stroke-dasharray: 0.7,1.155; stroke-dashoffset: 0; stroke: #cbd5e1; stroke-opacity: 0.35; stroke-width: 0.7"/>
     </g>
     <g id="line2d_34">
      <g>
       <use xlink:href="#m48817c0672" x="356.937292" y="109.441728" style="fill: #334155; stroke: #334155; stroke-width: 0.8"/>
      </g>
     </g>
     <g id="text_25">
      <!-- 12.0% -->
      <g style="fill: #334155" transform="translate(324.966979 112.856571) scale(0.1 -0.1)">
       <use xlink:href="#STIXGeneral-Regular-31"/>
       <use xlink:href="#STIXGeneral-Regular-32" transform="translate(49.999985 0)"/>
       <use xlink:href="#STIXGeneral-Regular-2e" transform="translate(99.999969 0)"/>
       <use xlink:href="#STIXGeneral-Regular-30" transform="translate(124.999954 0)"/>
       <use xlink:href="#STIXGeneral-Regular-25" transform="translate(174.999939 0)"/>
      </g>
     </g>
    </g>
    <g id="ytick_15">
     <g id="line2d_35">
      <path d="M 356.937292 77.716156 
L 617.793958 77.716156 
" clip-path="url(#p38f46e0d6b)" style="fill: none; stroke-dasharray: 0.7,1.155; stroke-dashoffset: 0; stroke: #cbd5e1; stroke-opacity: 0.35; stroke-width: 0.7"/>
     </g>
     <g id="line2d_36">
      <g>
       <use xlink:href="#m48817c0672" x="356.937292" y="77.716156" style="fill: #334155; stroke: #334155; stroke-width: 0.8"/>
      </g>
     </g>
     <g id="text_26">
      <!-- 14.0% -->
      <g style="fill: #334155" transform="translate(324.966979 81.131) scale(0.1 -0.1)">
       <use xlink:href="#STIXGeneral-Regular-31"/>
       <use xlink:href="#STIXGeneral-Regular-34" transform="translate(49.999985 0)"/>
       <use xlink:href="#STIXGeneral-Regular-2e" transform="translate(99.999969 0)"/>
       <use xlink:href="#STIXGeneral-Regular-30" transform="translate(124.999954 0)"/>
       <use xlink:href="#STIXGeneral-Regular-25" transform="translate(174.999939 0)"/>
      </g>
     </g>
    </g>
    <g id="ytick_16">
     <g id="line2d_37">
      <path d="M 356.937292 45.990585 
L 617.793958 45.990585 
" clip-path="url(#p38f46e0d6b)" style="fill: none; stroke-dasharray: 0.7,1.155; stroke-dashoffset: 0; stroke: #cbd5e1; stroke-opacity: 0.35; stroke-width: 0.7"/>
     </g>
     <g id="line2d_38">
      <g>
       <use xlink:href="#m48817c0672" x="356.937292" y="45.990585" style="fill: #334155; stroke: #334155; stroke-width: 0.8"/>
      </g>
     </g>
     <g id="text_27">
      <!-- 16.0% -->
      <g style="fill: #334155" transform="translate(324.966979 49.405429) scale(0.1 -0.1)">
       <use xlink:href="#STIXGeneral-Regular-31"/>
       <use xlink:href="#STIXGeneral-Regular-36" transform="translate(49.999985 0)"/>
       <use xlink:href="#STIXGeneral-Regular-2e" transform="translate(99.999969 0)"/>
       <use xlink:href="#STIXGeneral-Regular-30" transform="translate(124.999954 0)"/>
       <use xlink:href="#STIXGeneral-Regular-25" transform="translate(174.999939 0)"/>
      </g>
     </g>
    </g>
   </g>
   <g id="patch_12">
    <path d="M 356.937292 299.795156 
L 356.937292 22.196406 
" style="fill: none; stroke: #cbd5e1; stroke-width: 0.9; stroke-linejoin: miter; stroke-linecap: square"/>
   </g>
   <g id="patch_13">
    <path d="M 356.937292 299.795156 
L 617.793958 299.795156 
" style="fill: none; stroke: #cbd5e1; stroke-width: 0.9; stroke-linejoin: miter; stroke-linecap: square"/>
   </g>
   <g id="text_28">
    <!-- 0.17 -->
    <g style="fill: #0f172a" transform="translate(394.796902 33.462113) scale(0.09 -0.09)">
     <defs>
      <path id="STIXGeneral-Regular-37" d="M 2874 4134 
L 1517 -51 
L 1101 -51 
L 2368 3763 
L 992 3763 
Q 717 3763 582 3667 
Q 448 3571 243 3238 
L 128 3296 
L 512 4237 
L 2874 4237 
L 2874 4134 
z
" transform="scale(0.015625)"/>
     </defs>
     <use xlink:href="#STIXGeneral-Regular-30"/>
     <use xlink:href="#STIXGeneral-Regular-2e" transform="translate(49.999985 0)"/>
     <use xlink:href="#STIXGeneral-Regular-31" transform="translate(74.999969 0)"/>
     <use xlink:href="#STIXGeneral-Regular-37" transform="translate(124.999954 0)"/>
    </g>
   </g>
   <g id="text_29">
    <!-- 0.08 -->
    <g style="fill: #0f172a" transform="translate(479.490625 165.651994) scale(0.09 -0.09)">
     <use xlink:href="#STIXGeneral-Regular-30"/>
     <use xlink:href="#STIXGeneral-Regular-2e" transform="translate(49.999985 0)"/>
     <use xlink:href="#STIXGeneral-Regular-30" transform="translate(74.999969 0)"/>
     <use xlink:href="#STIXGeneral-Regular-38" transform="translate(124.999954 0)"/>
    </g>
   </g>
   <g id="text_30">
    <!-- 0.08 -->
    <g style="fill: #0f172a" transform="translate(564.184348 165.651994) scale(0.09 -0.09)">
     <use xlink:href="#STIXGeneral-Regular-30"/>
     <use xlink:href="#STIXGeneral-Regular-2e" transform="translate(49.999985 0)"/>
     <use xlink:href="#STIXGeneral-Regular-30" transform="translate(74.999969 0)"/>
     <use xlink:href="#STIXGeneral-Regular-38" transform="translate(124.999954 0)"/>
    </g>
   </g>
   <g id="text_31">
    <!-- Disturbed sequence break rate -->
    <g style="fill: #0f172a" transform="translate(402.331406 16.196406) scale(0.13 -0.13)">
     <defs>
      <path id="STIXGeneral-Bold-44" d="M 90 4326 
L 2086 4326 
Q 3181 4326 3798 3763 
Q 4416 3200 4416 2208 
Q 4416 1715 4221 1267 
Q 4026 819 3680 518 
Q 3085 0 2067 0 
L 90 0 
L 90 160 
Q 365 166 493 281 
Q 621 397 621 627 
L 621 3738 
Q 621 3955 509 4044 
Q 397 4134 90 4166 
L 90 4326 
z
M 1658 3827 
L 1658 640 
Q 1658 416 1738 320 
Q 1818 224 2029 224 
Q 2656 224 2982 685 
Q 3130 896 3216 1289 
Q 3302 1683 3302 2112 
Q 3302 3002 3040 3462 
Q 2669 4109 1997 4109 
Q 1658 4109 1658 3827 
z
" transform="scale(0.015625)"/>
      <path id="STIXGeneral-Bold-69" d="M 1376 3923 
Q 1376 3712 1232 3571 
Q 1088 3430 877 3430 
Q 666 3430 525 3571 
Q 384 3712 384 3923 
Q 384 4134 528 4278 
Q 672 4422 890 4422 
Q 1088 4422 1232 4275 
Q 1376 4128 1376 3923 
z
M 1638 0 
L 102 0 
L 102 154 
Q 326 205 384 275 
Q 442 346 442 563 
L 442 2387 
Q 442 2598 374 2675 
Q 307 2752 96 2797 
L 96 2950 
L 1331 2950 
L 1331 544 
Q 1331 339 1398 259 
Q 1466 179 1638 154 
L 1638 0 
z
" transform="scale(0.015625)"/>
      <path id="STIXGeneral-Bold-64" d="M 3418 128 
L 3021 77 
Q 2496 6 2170 -83 
L 2170 333 
Q 1946 96 1760 3 
Q 1574 -90 1318 -90 
Q 813 -90 486 332 
Q 160 755 160 1414 
Q 160 2112 509 2569 
Q 858 3027 1389 3027 
Q 1606 3027 1776 2940 
Q 1946 2854 2150 2630 
L 2150 3802 
Q 2150 4026 2067 4086 
Q 1984 4147 1664 4173 
L 1664 4326 
L 3040 4326 
L 3040 646 
Q 3040 442 3120 365 
Q 3200 288 3418 275 
L 3418 128 
z
M 2150 717 
L 2150 2272 
Q 2080 2458 1945 2563 
Q 1811 2669 1651 2669 
Q 1107 2669 1107 1466 
Q 1107 269 1606 269 
Q 1837 269 2029 506 
Q 2150 666 2150 717 
z
" transform="scale(0.015625)"/>
     </defs>
     <use xlink:href="#STIXGeneral-Bold-44"/>
     <use xlink:href="#STIXGeneral-Bold-69" transform="translate(72.199982 0)"/>
     <use xlink:href="#STIXGeneral-Bold-73" transform="translate(99.999969 0)"/>
     <use xlink:href="#STIXGeneral-Bold-74" transform="translate(138.899963 0)"/>
     <use xlink:href="#STIXGeneral-Bold-75" transform="translate(172.199951 0)"/>
     <use xlink:href="#STIXGeneral-Bold-72" transform="translate(227.799942 0)"/>
     <use xlink:href="#STIXGeneral-Bold-62" transform="translate(272.199936 0)"/>
     <use xlink:href="#STIXGeneral-Bold-65" transform="translate(327.799927 0)"/>
     <use xlink:href="#STIXGeneral-Bold-64" transform="translate(372.199921 0)"/>
     <use xlink:href="#STIXGeneral-Bold-20" transform="translate(427.799911 0)"/>
     <use xlink:href="#STIXGeneral-Bold-73" transform="translate(452.799896 0)"/>
     <use xlink:href="#STIXGeneral-Bold-65" transform="translate(491.69989 0)"/>
     <use xlink:href="#STIXGeneral-Bold-71" transform="translate(536.099884 0)"/>
     <use xlink:href="#STIXGeneral-Bold-75" transform="translate(591.699875 0)"/>
     <use xlink:href="#STIXGeneral-Bold-65" transform="translate(647.299866 0)"/>
     <use xlink:href="#STIXGeneral-Bold-6e" transform="translate(691.69986 0)"/>
     <use xlink:href="#STIXGeneral-Bold-63" transform="translate(747.29985 0)"/>
     <use xlink:href="#STIXGeneral-Bold-65" transform="translate(791.699844 0)"/>
     <use xlink:href="#STIXGeneral-Bold-20" transform="translate(836.099838 0)"/>
     <use xlink:href="#STIXGeneral-Bold-62" transform="translate(861.099823 0)"/>
     <use xlink:href="#STIXGeneral-Bold-72" transform="translate(916.699814 0)"/>
     <use xlink:href="#STIXGeneral-Bold-65" transform="translate(961.099808 0)"/>
     <use xlink:href="#STIXGeneral-Bold-61" transform="translate(1005.499802 0)"/>
     <use xlink:href="#STIXGeneral-Bold-6b" transform="translate(1055.499786 0)"/>
     <use xlink:href="#STIXGeneral-Bold-20" transform="translate(1111.099777 0)"/>
     <use xlink:href="#STIXGeneral-Bold-72" transform="translate(1136.099762 0)"/>
     <use xlink:href="#STIXGeneral-Bold-61" transform="translate(1180.499756 0)"/>
     <use xlink:href="#STIXGeneral-Bold-74" transform="translate(1230.499741 0)"/>
     <use xlink:href="#STIXGeneral-Bold-65" transform="translate(1263.799728 0)"/>
    </g>
   </g>
  </g>
  <g id="axes_3">
   <g id="patch_14">
    <path d="M 660.793958 299.795156 
L 921.650625 299.795156 
L 921.650625 22.196406 
L 660.793958 22.196406 
z
" style="fill: #fcfbf8"/>
   </g>
   <g id="patch_15">
    <path d="M 672.65108 299.795156 
L 740.406058 299.795156 
L 740.406058 35.415394 
L 672.65108 35.415394 
z
" clip-path="url(#pf875bd57d9)" style="fill: #6b7280"/>
   </g>
   <g id="patch_16">
    <path d="M 757.344802 299.795156 
L 825.099781 299.795156 
L 825.099781 293.167151 
L 757.344802 293.167151 
z
" clip-path="url(#pf875bd57d9)" style="fill: #7c3aed"/>
   </g>
   <g id="patch_17">
    <path d="M 842.038525 299.795156 
L 909.793504 299.795156 
L 909.793504 293.083877 
L 842.038525 293.083877 
z
" clip-path="url(#pf875bd57d9)" style="fill: #0f766e"/>
   </g>
   <g id="matplotlib.axis_5">
    <g id="xtick_7">
     <g id="line2d_39">
      <g>
       <use xlink:href="#mec71ae9765" x="706.528569" y="299.795156" style="fill: #334155; stroke: #334155; stroke-width: 0.8"/>
      </g>
     </g>
     <g id="text_32">
      <!-- LS -->
      <g style="fill: #334155" transform="translate(700.694194 313.624844) scale(0.1 -0.1)">
       <use xlink:href="#STIXGeneral-Regular-4c"/>
       <use xlink:href="#STIXGeneral-Regular-53" transform="translate(61.099991 0)"/>
      </g>
     </g>
    </g>
    <g id="xtick_8">
     <g id="line2d_40">
      <g>
       <use xlink:href="#mec71ae9765" x="791.222292" y="299.795156" style="fill: #334155; stroke: #334155; stroke-width: 0.8"/>
      </g>
     </g>
     <g id="text_33">
      <!-- RANSAC -->
      <g style="fill: #334155" transform="translate(770.941823 313.624844) scale(0.1 -0.1)">
       <use xlink:href="#STIXGeneral-Regular-52"/>
       <use xlink:href="#STIXGeneral-Regular-41" transform="translate(66.699997 0)"/>
       <use xlink:href="#STIXGeneral-Regular-4e" transform="translate(138.899979 0)"/>
       <use xlink:href="#STIXGeneral-Regular-53" transform="translate(211.09996 0)"/>
       <use xlink:href="#STIXGeneral-Regular-41" transform="translate(266.699951 0)"/>
       <use xlink:href="#STIXGeneral-Regular-43" transform="translate(338.899933 0)"/>
      </g>
     </g>
    </g>
    <g id="xtick_9">
     <g id="line2d_41">
      <g>
       <use xlink:href="#mec71ae9765" x="875.916015" y="299.795156" style="fill: #334155; stroke: #334155; stroke-width: 0.8"/>
      </g>
     </g>
     <g id="text_34">
      <!-- Proposed -->
      <g style="fill: #334155" transform="translate(857.30039 313.624844) scale(0.1 -0.1)">
       <use xlink:href="#STIXGeneral-Regular-50"/>
       <use xlink:href="#STIXGeneral-Regular-72" transform="translate(55.699997 0)"/>
       <use xlink:href="#STIXGeneral-Regular-6f" transform="translate(88.999985 0)"/>
       <use xlink:href="#STIXGeneral-Regular-70" transform="translate(138.999969 0)"/>
       <use xlink:href="#STIXGeneral-Regular-6f" transform="translate(188.999954 0)"/>
       <use xlink:href="#STIXGeneral-Regular-73" transform="translate(238.999939 0)"/>
       <use xlink:href="#STIXGeneral-Regular-65" transform="translate(277.899933 0)"/>
       <use xlink:href="#STIXGeneral-Regular-64" transform="translate(322.299927 0)"/>
      </g>
     </g>
    </g>
   </g>
   <g id="matplotlib.axis_6">
    <g id="ytick_17">
     <g id="line2d_42">
      <path d="M 660.793958 299.795156 
L 921.650625 299.795156 
" clip-path="url(#pf875bd57d9)" style="fill: none; stroke-dasharray: 0.7,1.155; stroke-dashoffset: 0; stroke: #cbd5e1; stroke-opacity: 0.35; stroke-width: 0.7"/>
     </g>
     <g id="line2d_43">
      <g>
       <use xlink:href="#m48817c0672" x="660.793958" y="299.795156" style="fill: #334155; stroke: #334155; stroke-width: 0.8"/>
      </g>
     </g>
     <g id="text_35">
      <!-- 0 -->
      <g style="fill: #334155" transform="translate(648.793958 303.21) scale(0.1 -0.1)">
       <use xlink:href="#STIXGeneral-Regular-30"/>
      </g>
     </g>
    </g>
    <g id="ytick_18">
     <g id="line2d_44">
      <path d="M 660.793958 266.699376 
L 921.650625 266.699376 
" clip-path="url(#pf875bd57d9)" style="fill: none; stroke-dasharray: 0.7,1.155; stroke-dashoffset: 0; stroke: #cbd5e1; stroke-opacity: 0.35; stroke-width: 0.7"/>
     </g>
     <g id="line2d_45">
      <g>
       <use xlink:href="#m48817c0672" x="660.793958" y="266.699376" style="fill: #334155; stroke: #334155; stroke-width: 0.8"/>
      </g>
     </g>
     <g id="text_36">
      <!-- 5 -->
      <g style="fill: #334155" transform="translate(648.793958 270.114219) scale(0.1 -0.1)">
       <defs>
        <path id="STIXGeneral-Regular-35" d="M 2803 4358 
L 2573 3814 
Q 2534 3731 2400 3731 
L 1158 3731 
L 902 3187 
Q 1606 3053 1920 2896 
Q 2234 2739 2502 2368 
Q 2726 2061 2726 1555 
Q 2726 1094 2576 780 
Q 2426 467 2099 224 
Q 1664 -90 1011 -90 
Q 646 -90 422 19 
Q 198 128 198 307 
Q 198 550 486 550 
Q 717 550 960 352 
Q 1210 147 1414 147 
Q 1747 147 2012 480 
Q 2278 813 2278 1229 
Q 2278 1843 1850 2189 
Q 1293 2637 486 2637 
Q 410 2637 410 2688 
L 416 2720 
L 1114 4237 
L 2438 4237 
Q 2547 4237 2608 4269 
Q 2669 4301 2746 4403 
L 2803 4358 
z
" transform="scale(0.015625)"/>
       </defs>
       <use xlink:href="#STIXGeneral-Regular-35"/>
      </g>
     </g>
    </g>
    <g id="ytick_19">
     <g id="line2d_46">
      <path d="M 660.793958 233.603595 
L 921.650625 233.603595 
" clip-path="url(#pf875bd57d9)" style="fill: none; stroke-dasharray: 0.7,1.155; stroke-dashoffset: 0; stroke: #cbd5e1; stroke-opacity: 0.35; stroke-width: 0.7"/>
     </g>
     <g id="line2d_47">
      <g>
       <use xlink:href="#m48817c0672" x="660.793958" y="233.603595" style="fill: #334155; stroke: #334155; stroke-width: 0.8"/>
      </g>
     </g>
     <g id="text_37">
      <!-- 10 -->
      <g style="fill: #334155" transform="translate(643.793958 237.018439) scale(0.1 -0.1)">
       <use xlink:href="#STIXGeneral-Regular-31"/>
       <use xlink:href="#STIXGeneral-Regular-30" transform="translate(49.999985 0)"/>
      </g>
     </g>
    </g>
    <g id="ytick_20">
     <g id="line2d_48">
      <path d="M 660.793958 200.507814 
L 921.650625 200.507814 
" clip-path="url(#pf875bd57d9)" style="fill: none; stroke-dasharray: 0.7,1.155; stroke-dashoffset: 0; stroke: #cbd5e1; stroke-opacity: 0.35; stroke-width: 0.7"/>
     </g>
     <g id="line2d_49">
      <g>
       <use xlink:href="#m48817c0672" x="660.793958" y="200.507814" style="fill: #334155; stroke: #334155; stroke-width: 0.8"/>
      </g>
     </g>
     <g id="text_38">
      <!-- 15 -->
      <g style="fill: #334155" transform="translate(643.793958 203.922658) scale(0.1 -0.1)">
       <use xlink:href="#STIXGeneral-Regular-31"/>
       <use xlink:href="#STIXGeneral-Regular-35" transform="translate(49.999985 0)"/>
      </g>
     </g>
    </g>
    <g id="ytick_21">
     <g id="line2d_50">
      <path d="M 660.793958 167.412034 
L 921.650625 167.412034 
" clip-path="url(#pf875bd57d9)" style="fill: none; stroke-dasharray: 0.7,1.155; stroke-dashoffset: 0; stroke: #cbd5e1; stroke-opacity: 0.35; stroke-width: 0.7"/>
     </g>
     <g id="line2d_51">
      <g>
       <use xlink:href="#m48817c0672" x="660.793958" y="167.412034" style="fill: #334155; stroke: #334155; stroke-width: 0.8"/>
      </g>
     </g>
     <g id="text_39">
      <!-- 20 -->
      <g style="fill: #334155" transform="translate(643.793958 170.826878) scale(0.1 -0.1)">
       <use xlink:href="#STIXGeneral-Regular-32"/>
       <use xlink:href="#STIXGeneral-Regular-30" transform="translate(49.999985 0)"/>
      </g>
     </g>
    </g>
    <g id="ytick_22">
     <g id="line2d_52">
      <path d="M 660.793958 134.316253 
L 921.650625 134.316253 
" clip-path="url(#pf875bd57d9)" style="fill: none; stroke-dasharray: 0.7,1.155; stroke-dashoffset: 0; stroke: #cbd5e1; stroke-opacity: 0.35; stroke-width: 0.7"/>
     </g>
     <g id="line2d_53">
      <g>
       <use xlink:href="#m48817c0672" x="660.793958" y="134.316253" style="fill: #334155; stroke: #334155; stroke-width: 0.8"/>
      </g>
     </g>
     <g id="text_40">
      <!-- 25 -->
      <g style="fill: #334155" transform="translate(643.793958 137.731097) scale(0.1 -0.1)">
       <use xlink:href="#STIXGeneral-Regular-32"/>
       <use xlink:href="#STIXGeneral-Regular-35" transform="translate(49.999985 0)"/>
      </g>
     </g>
    </g>
    <g id="ytick_23">
     <g id="line2d_54">
      <path d="M 660.793958 101.220473 
L 921.650625 101.220473 
" clip-path="url(#pf875bd57d9)" style="fill: none; stroke-dasharray: 0.7,1.155; stroke-dashoffset: 0; stroke: #cbd5e1; stroke-opacity: 0.35; stroke-width: 0.7"/>
     </g>
     <g id="line2d_55">
      <g>
       <use xlink:href="#m48817c0672" x="660.793958" y="101.220473" style="fill: #334155; stroke: #334155; stroke-width: 0.8"/>
      </g>
     </g>
     <g id="text_41">
      <!-- 30 -->
      <g style="fill: #334155" transform="translate(643.793958 104.635316) scale(0.1 -0.1)">
       <defs>
        <path id="STIXGeneral-Regular-33" d="M 390 3264 
L 288 3290 
Q 435 3770 748 4048 
Q 1062 4326 1542 4326 
Q 1990 4326 2265 4083 
Q 2541 3840 2541 3450 
Q 2541 2925 1946 2566 
Q 2298 2413 2477 2227 
Q 2758 1914 2758 1402 
Q 2758 890 2464 506 
Q 2246 211 1840 60 
Q 1434 -90 979 -90 
Q 262 -90 262 275 
Q 262 378 339 442 
Q 416 506 525 506 
Q 685 506 915 339 
Q 1197 141 1466 141 
Q 1818 141 2058 425 
Q 2298 710 2298 1120 
Q 2298 1856 1632 2048 
Q 1434 2112 979 2112 
L 979 2202 
Q 1338 2323 1517 2432 
Q 2035 2726 2035 3290 
Q 2035 3610 1852 3776 
Q 1670 3942 1344 3942 
Q 768 3942 390 3264 
z
" transform="scale(0.015625)"/>
       </defs>
       <use xlink:href="#STIXGeneral-Regular-33"/>
       <use xlink:href="#STIXGeneral-Regular-30" transform="translate(49.999985 0)"/>
      </g>
     </g>
    </g>
    <g id="ytick_24">
     <g id="line2d_56">
      <path d="M 660.793958 68.124692 
L 921.650625 68.124692 
" clip-path="url(#pf875bd57d9)" style="fill: none; stroke-dasharray: 0.7,1.155; stroke-dashoffset: 0; stroke: #cbd5e1; stroke-opacity: 0.35; stroke-width: 0.7"/>
     </g>
     <g id="line2d_57">
      <g>
       <use xlink:href="#m48817c0672" x="660.793958" y="68.124692" style="fill: #334155; stroke: #334155; stroke-width: 0.8"/>
      </g>
     </g>
     <g id="text_42">
      <!-- 35 -->
      <g style="fill: #334155" transform="translate(643.793958 71.539536) scale(0.1 -0.1)">
       <use xlink:href="#STIXGeneral-Regular-33"/>
       <use xlink:href="#STIXGeneral-Regular-35" transform="translate(49.999985 0)"/>
      </g>
     </g>
    </g>
    <g id="ytick_25">
     <g id="line2d_58">
      <path d="M 660.793958 35.028912 
L 921.650625 35.028912 
" clip-path="url(#pf875bd57d9)" style="fill: none; stroke-dasharray: 0.7,1.155; stroke-dashoffset: 0; stroke: #cbd5e1; stroke-opacity: 0.35; stroke-width: 0.7"/>
     </g>
     <g id="line2d_59">
      <g>
       <use xlink:href="#m48817c0672" x="660.793958" y="35.028912" style="fill: #334155; stroke: #334155; stroke-width: 0.8"/>
      </g>
     </g>
     <g id="text_43">
      <!-- 40 -->
      <g style="fill: #334155" transform="translate(643.793958 38.443755) scale(0.1 -0.1)">
       <use xlink:href="#STIXGeneral-Regular-34"/>
       <use xlink:href="#STIXGeneral-Regular-30" transform="translate(49.999985 0)"/>
      </g>
     </g>
    </g>
   </g>
   <g id="patch_18">
    <path d="M 660.793958 299.795156 
L 660.793958 22.196406 
" style="fill: none; stroke: #cbd5e1; stroke-width: 0.9; stroke-linejoin: miter; stroke-linecap: square"/>
   </g>
   <g id="patch_19">
    <path d="M 660.793958 299.795156 
L 921.650625 299.795156 
" style="fill: none; stroke: #cbd5e1; stroke-width: 0.9; stroke-linejoin: miter; stroke-linecap: square"/>
   </g>
   <g id="text_44">
    <!-- 39.94 -->
    <g style="fill: #0f172a" transform="translate(696.403569 33.462113) scale(0.09 -0.09)">
     <defs>
      <path id="STIXGeneral-Regular-39" d="M 378 -141 
L 358 -13 
Q 1094 115 1603 608 
Q 2112 1101 2304 1882 
Q 1933 1517 1344 1517 
Q 826 1517 509 1875 
Q 192 2234 192 2816 
Q 192 3462 573 3894 
Q 954 4326 1523 4326 
Q 2131 4326 2528 3840 
Q 2938 3328 2938 2522 
Q 2938 1958 2742 1462 
Q 2547 966 2170 621 
Q 1773 262 1395 105 
Q 1018 -51 378 -141 
z
M 2317 2272 
L 2317 2522 
Q 2317 4147 1472 4147 
Q 1171 4147 1005 3930 
Q 909 3802 845 3546 
Q 781 3290 781 3034 
Q 781 2464 995 2128 
Q 1210 1792 1568 1792 
Q 1824 1792 2070 1917 
Q 2317 2042 2317 2272 
z
" transform="scale(0.015625)"/>
     </defs>
     <use xlink:href="#STIXGeneral-Regular-33"/>
     <use xlink:href="#STIXGeneral-Regular-39" transform="translate(49.999985 0)"/>
     <use xlink:href="#STIXGeneral-Regular-2e" transform="translate(99.999969 0)"/>
     <use xlink:href="#STIXGeneral-Regular-39" transform="translate(124.999954 0)"/>
     <use xlink:href="#STIXGeneral-Regular-34" transform="translate(174.999939 0)"/>
    </g>
   </g>
   <g id="text_45">
    <!-- 1.00 -->
    <g style="fill: #0f172a" transform="translate(783.347292 291.21387) scale(0.09 -0.09)">
     <use xlink:href="#STIXGeneral-Regular-31"/>
     <use xlink:href="#STIXGeneral-Regular-2e" transform="translate(49.999985 0)"/>
     <use xlink:href="#STIXGeneral-Regular-30" transform="translate(74.999969 0)"/>
     <use xlink:href="#STIXGeneral-Regular-30" transform="translate(124.999954 0)"/>
    </g>
   </g>
   <g id="text_46">
    <!-- 1.01 -->
    <g style="fill: #0f172a" transform="translate(868.041015 291.130596) scale(0.09 -0.09)">
     <use xlink:href="#STIXGeneral-Regular-31"/>
     <use xlink:href="#STIXGeneral-Regular-2e" transform="translate(49.999985 0)"/>
     <use xlink:href="#STIXGeneral-Regular-30" transform="translate(74.999969 0)"/>
     <use xlink:href="#STIXGeneral-Regular-31" transform="translate(124.999954 0)"/>
    </g>
   </g>
   <g id="text_47">
    <g id="patch_20">
     <path d="M 671.228225 74.422812 
L 750.41135 74.422812 
Q 752.66135 74.422812 752.66135 72.172812 
L 752.66135 36.067906 
Q 752.66135 33.817906 750.41135 33.817906 
L 671.228225 33.817906 
Q 668.978225 33.817906 668.978225 36.067906 
L 668.978225 72.172812 
Q 668.978225 74.422812 671.228225 74.422812 
z
" style="fill: #f8fafc; stroke: #cbd5e1; stroke-linejoin: miter"/>
    </g>
    <!-- Disturbed replay: -->
    <g style="fill: #0f172a" transform="translate(671.228225 42.223062) scale(0.09 -0.09)">
     <defs>
      <path id="STIXGeneral-Regular-44" d="M 102 4237 
L 1830 4237 
Q 3078 4237 3750 3654 
Q 4384 3110 4384 2138 
Q 4384 966 3514 410 
Q 2880 0 1901 0 
L 102 0 
L 102 122 
Q 474 147 570 252 
Q 666 358 666 736 
L 666 3520 
Q 666 3891 570 3990 
Q 474 4090 102 4115 
L 102 4237 
z
M 1318 3731 
L 1318 538 
Q 1318 365 1379 301 
Q 1440 237 1626 237 
Q 2125 237 2432 307 
Q 2739 378 3021 570 
Q 3686 1018 3686 2099 
Q 3686 3027 3078 3558 
Q 2803 3802 2476 3901 
Q 2150 4000 1658 4000 
Q 1472 4000 1395 3942 
Q 1318 3885 1318 3731 
z
" transform="scale(0.015625)"/>
      <path id="STIXGeneral-Regular-62" d="M 979 4358 
L 979 2406 
Q 1082 2650 1315 2797 
Q 1549 2944 1843 2944 
Q 2349 2944 2672 2541 
Q 2995 2138 2995 1536 
Q 2995 832 2566 384 
Q 2138 -64 1498 -64 
Q 1107 -64 774 67 
Q 442 198 442 358 
L 442 3622 
Q 442 3859 384 3926 
Q 326 3994 128 3994 
Q 83 3994 19 3981 
L 19 4090 
L 211 4147 
Q 864 4346 947 4371 
L 979 4358 
z
M 979 2035 
L 979 474 
Q 979 326 1161 233 
Q 1344 141 1600 141 
Q 1978 141 2195 416 
Q 2432 710 2432 1261 
Q 2432 1888 2182 2240 
Q 1971 2541 1613 2541 
Q 1357 2541 1168 2390 
Q 979 2240 979 2035 
z
" transform="scale(0.015625)"/>
      <path id="STIXGeneral-Regular-3a" d="M 1123 2832 
Q 1229 2726 1229 2579 
Q 1229 2432 1126 2329 
Q 1024 2227 877 2227 
Q 730 2227 624 2332 
Q 518 2438 518 2579 
Q 518 2733 620 2835 
Q 723 2938 877 2938 
Q 1018 2938 1123 2832 
z
M 1229 282 
Q 1229 141 1126 35 
Q 1024 -70 877 -70 
Q 730 -70 624 35 
Q 518 141 518 282 
Q 518 435 620 537 
Q 723 640 877 640 
Q 1018 640 1123 534 
Q 1229 429 1229 282 
z
" transform="scale(0.015625)"/>
     </defs>
     <use xlink:href="#STIXGeneral-Regular-44"/>
     <use xlink:href="#STIXGeneral-Regular-69" transform="translate(72.199982 0)"/>
     <use xlink:href="#STIXGeneral-Regular-73" transform="translate(99.999969 0)"/>
     <use xlink:href="#STIXGeneral-Regular-74" transform="translate(138.899963 0)"/>
     <use xlink:href="#STIXGeneral-Regular-75" transform="translate(166.699951 0)"/>
     <use xlink:href="#STIXGeneral-Regular-72" transform="translate(216.699936 0)"/>
     <use xlink:href="#STIXGeneral-Regular-62" transform="translate(249.999924 0)"/>
     <use xlink:href="#STIXGeneral-Regular-65" transform="translate(299.999908 0)"/>
     <use xlink:href="#STIXGeneral-Regular-64" transform="translate(344.399902 0)"/>
     <use xlink:href="#STIXGeneral-Regular-20" transform="translate(394.399887 0)"/>
     <use xlink:href="#STIXGeneral-Regular-72" transform="translate(419.399872 0)"/>
     <use xlink:href="#STIXGeneral-Regular-65" transform="translate(452.69986 0)"/>
     <use xlink:href="#STIXGeneral-Regular-70" transform="translate(497.099854 0)"/>
     <use xlink:href="#STIXGeneral-Regular-6c" transform="translate(547.099838 0)"/>
     <use xlink:href="#STIXGeneral-Regular-61" transform="translate(574.899826 0)"/>
     <use xlink:href="#STIXGeneral-Regular-79" transform="translate(619.29982 0)"/>
     <use xlink:href="#STIXGeneral-Regular-3a" transform="translate(669.299805 0)"/>
    </g>
    <!-- LS P90 = 39.94 -->
    <g style="fill: #0f172a" transform="translate(671.228225 51.560844) scale(0.09 -0.09)">
     <defs>
      <path id="STIXGeneral-Regular-3d" d="M 4077 2048 
L 307 2048 
L 307 2470 
L 4077 2470 
L 4077 2048 
z
M 4077 768 
L 307 768 
L 307 1190 
L 4077 1190 
L 4077 768 
z
" transform="scale(0.015625)"/>
     </defs>
     <use xlink:href="#STIXGeneral-Regular-4c"/>
     <use xlink:href="#STIXGeneral-Regular-53" transform="translate(61.099991 0)"/>
     <use xlink:href="#STIXGeneral-Regular-20" transform="translate(116.699982 0)"/>
     <use xlink:href="#STIXGeneral-Regular-50" transform="translate(141.699966 0)"/>
     <use xlink:href="#STIXGeneral-Regular-39" transform="translate(197.399963 0)"/>
     <use xlink:href="#STIXGeneral-Regular-30" transform="translate(247.399948 0)"/>
     <use xlink:href="#STIXGeneral-Regular-20" transform="translate(297.399933 0)"/>
     <use xlink:href="#STIXGeneral-Regular-3d" transform="translate(322.399918 0)"/>
     <use xlink:href="#STIXGeneral-Regular-20" transform="translate(390.899902 0)"/>
     <use xlink:href="#STIXGeneral-Regular-33" transform="translate(415.899887 0)"/>
     <use xlink:href="#STIXGeneral-Regular-39" transform="translate(465.899872 0)"/>
     <use xlink:href="#STIXGeneral-Regular-2e" transform="translate(515.899857 0)"/>
     <use xlink:href="#STIXGeneral-Regular-39" transform="translate(540.899841 0)"/>
     <use xlink:href="#STIXGeneral-Regular-34" transform="translate(590.899826 0)"/>
    </g>
    <!-- RANSAC P90 = 1.00 -->
    <g style="fill: #0f172a" transform="translate(671.228225 60.890187) scale(0.09 -0.09)">
     <use xlink:href="#STIXGeneral-Regular-52"/>
     <use xlink:href="#STIXGeneral-Regular-41" transform="translate(66.699997 0)"/>
     <use xlink:href="#STIXGeneral-Regular-4e" transform="translate(138.899979 0)"/>
     <use xlink:href="#STIXGeneral-Regular-53" transform="translate(211.09996 0)"/>
     <use xlink:href="#STIXGeneral-Regular-41" transform="translate(266.699951 0)"/>
     <use xlink:href="#STIXGeneral-Regular-43" transform="translate(338.899933 0)"/>
     <use xlink:href="#STIXGeneral-Regular-20" transform="translate(405.59993 0)"/>
     <use xlink:href="#STIXGeneral-Regular-50" transform="translate(430.599915 0)"/>
     <use xlink:href="#STIXGeneral-Regular-39" transform="translate(486.299911 0)"/>
     <use xlink:href="#STIXGeneral-Regular-30" transform="translate(536.299896 0)"/>
     <use xlink:href="#STIXGeneral-Regular-20" transform="translate(586.299881 0)"/>
     <use xlink:href="#STIXGeneral-Regular-3d" transform="translate(611.299866 0)"/>
     <use xlink:href="#STIXGeneral-Regular-20" transform="translate(679.79985 0)"/>
     <use xlink:href="#STIXGeneral-Regular-31" transform="translate(704.799835 0)"/>
     <use xlink:href="#STIXGeneral-Regular-2e" transform="translate(754.79982 0)"/>
     <use xlink:href="#STIXGeneral-Regular-30" transform="translate(779.799805 0)"/>
     <use xlink:href="#STIXGeneral-Regular-30" transform="translate(829.799789 0)"/>
    </g>
    <!-- Proposed P90 = 1.01 -->
    <g style="fill: #0f172a" transform="translate(671.228225 70.219531) scale(0.09 -0.09)">
     <use xlink:href="#STIXGeneral-Regular-50"/>
     <use xlink:href="#STIXGeneral-Regular-72" transform="translate(55.699997 0)"/>
     <use xlink:href="#STIXGeneral-Regular-6f" transform="translate(88.999985 0)"/>
     <use xlink:href="#STIXGeneral-Regular-70" transform="translate(138.999969 0)"/>
     <use xlink:href="#STIXGeneral-Regular-6f" transform="translate(188.999954 0)"/>
     <use xlink:href="#STIXGeneral-Regular-73" transform="translate(238.999939 0)"/>
     <use xlink:href="#STIXGeneral-Regular-65" transform="translate(277.899933 0)"/>
     <use xlink:href="#STIXGeneral-Regular-64" transform="translate(322.299927 0)"/>
     <use xlink:href="#STIXGeneral-Regular-20" transform="translate(372.299911 0)"/>
     <use xlink:href="#STIXGeneral-Regular-50" transform="translate(397.299896 0)"/>
     <use xlink:href="#STIXGeneral-Regular-39" transform="translate(452.999893 0)"/>
     <use xlink:href="#STIXGeneral-Regular-30" transform="translate(502.999878 0)"/>
     <use xlink:href="#STIXGeneral-Regular-20" transform="translate(552.999863 0)"/>
     <use xlink:href="#STIXGeneral-Regular-3d" transform="translate(577.999847 0)"/>
     <use xlink:href="#STIXGeneral-Regular-20" transform="translate(646.499832 0)"/>
     <use xlink:href="#STIXGeneral-Regular-31" transform="translate(671.499817 0)"/>
     <use xlink:href="#STIXGeneral-Regular-2e" transform="translate(721.499802 0)"/>
     <use xlink:href="#STIXGeneral-Regular-30" transform="translate(746.499786 0)"/>
     <use xlink:href="#STIXGeneral-Regular-31" transform="translate(796.499771 0)"/>
    </g>
   </g>
   <g id="text_48">
    <!-- Disturbed P90 tracking RMSE -->
    <g style="fill: #0f172a" transform="translate(705.819401 16.196406) scale(0.13 -0.13)">
     <defs>
      <path id="STIXGeneral-Bold-50" d="M 102 4326 
L 2118 4326 
Q 2938 4326 3389 4035 
Q 3840 3744 3840 3168 
Q 3840 2784 3625 2499 
Q 3411 2214 3014 2067 
Q 2810 1990 2563 1968 
Q 2317 1946 1677 1939 
L 1677 710 
Q 1677 384 1766 294 
Q 1856 205 2234 160 
L 2234 0 
L 102 0 
L 102 160 
Q 314 179 390 218 
Q 538 275 589 409 
Q 640 544 640 806 
L 640 3539 
Q 640 3910 541 4022 
Q 442 4134 102 4166 
L 102 4326 
z
M 1677 3878 
L 1677 2163 
Q 2278 2170 2508 2368 
Q 2739 2566 2739 3098 
Q 2739 3635 2566 3868 
Q 2394 4102 1997 4102 
Q 1677 4102 1677 3878 
z
" transform="scale(0.015625)"/>
      <path id="STIXGeneral-Bold-39" d="M 198 -83 
L 198 83 
Q 883 224 1296 627 
Q 1709 1030 1914 1747 
Q 1677 1626 1350 1626 
Q 819 1626 492 1981 
Q 166 2336 166 2938 
Q 166 3558 556 3980 
Q 947 4403 1542 4403 
Q 2214 4403 2620 3891 
Q 3027 3379 3027 2522 
Q 3027 1350 2099 621 
Q 1670 282 1289 141 
Q 909 0 198 -83 
z
M 2029 2950 
Q 2029 3699 1869 4019 
Q 1760 4230 1523 4230 
Q 1306 4230 1222 4035 
Q 1139 3840 1139 3283 
Q 1139 2541 1264 2227 
Q 1389 1914 1683 1914 
Q 1862 1914 1946 1971 
Q 1971 1984 1978 2099 
Q 2029 2298 2029 2650 
L 2029 2950 
z
" transform="scale(0.015625)"/>
      <path id="STIXGeneral-Bold-30" d="M 3046 2157 
Q 3046 1152 2643 534 
Q 2240 -83 1606 -83 
Q 973 -83 563 531 
Q 154 1146 154 2138 
Q 154 2464 198 2774 
Q 243 3085 355 3385 
Q 467 3686 630 3907 
Q 794 4128 1050 4265 
Q 1306 4403 1619 4403 
Q 2099 4403 2435 4054 
Q 2771 3706 2908 3216 
Q 3046 2726 3046 2157 
z
M 2035 1434 
L 2035 2874 
Q 2035 3584 1932 3904 
Q 1830 4224 1593 4224 
Q 1357 4224 1261 3913 
Q 1165 3603 1165 2874 
L 1165 1434 
Q 1165 717 1267 406 
Q 1370 96 1606 96 
Q 1843 96 1939 403 
Q 2035 710 2035 1434 
z
" transform="scale(0.015625)"/>
      <path id="STIXGeneral-Bold-67" d="M 1626 435 
L 1958 435 
Q 2477 435 2784 227 
Q 3091 19 3091 -333 
Q 3091 -787 2652 -1052 
Q 2214 -1318 1421 -1318 
Q 179 -1318 179 -730 
Q 179 -339 794 -250 
Q 493 -141 381 -25 
Q 269 90 269 275 
Q 269 557 454 733 
Q 640 909 1030 1024 
Q 678 1120 457 1382 
Q 237 1645 237 1997 
Q 237 2464 598 2745 
Q 960 3027 1536 3027 
Q 1869 3027 2253 2886 
L 3078 2886 
L 3078 2547 
L 2566 2547 
Q 2822 2317 2822 1920 
Q 2822 1318 2234 1075 
Q 2080 1011 1971 998 
Q 1862 986 1421 986 
Q 1229 986 1104 899 
Q 979 813 979 672 
Q 979 538 1113 486 
Q 1248 435 1626 435 
z
M 1958 1997 
Q 1958 2445 1859 2637 
Q 1760 2829 1529 2829 
Q 1299 2829 1206 2643 
Q 1114 2458 1114 1990 
Q 1114 1542 1210 1353 
Q 1306 1165 1536 1165 
Q 1766 1165 1862 1353 
Q 1958 1542 1958 1997 
z
M 2016 -333 
L 966 -333 
Q 832 -442 787 -512 
Q 742 -582 742 -685 
Q 742 -1114 1600 -1114 
Q 2061 -1114 2323 -995 
Q 2586 -877 2586 -691 
Q 2586 -333 2016 -333 
z
" transform="scale(0.015625)"/>
      <path id="STIXGeneral-Bold-52" d="M 4582 0 
L 3270 0 
L 1946 2003 
L 1766 2003 
L 1766 749 
Q 1766 403 1859 307 
Q 1952 211 2330 160 
L 2330 0 
L 166 0 
L 166 160 
Q 544 205 637 301 
Q 730 397 730 768 
L 730 3526 
Q 730 3904 624 4022 
Q 518 4141 166 4166 
L 166 4326 
L 2138 4326 
Q 4032 4326 4032 3226 
Q 4032 2739 3744 2470 
Q 3475 2227 3027 2106 
L 4301 301 
Q 4397 160 4582 160 
L 4582 0 
z
M 1766 3821 
L 1766 2208 
Q 2426 2214 2682 2406 
Q 2938 2598 2938 3162 
Q 2938 3667 2746 3888 
Q 2554 4109 2106 4109 
Q 1920 4109 1843 4045 
Q 1766 3981 1766 3821 
z
" transform="scale(0.015625)"/>
      <path id="STIXGeneral-Bold-4d" d="M 5894 0 
L 3770 0 
L 3770 160 
Q 4122 192 4230 301 
Q 4339 410 4339 698 
L 4339 3872 
L 2726 0 
L 2554 0 
L 941 3802 
L 941 826 
Q 941 454 1069 320 
Q 1197 186 1587 160 
L 1587 0 
L 90 0 
L 90 160 
Q 467 198 569 291 
Q 672 384 672 691 
L 672 3693 
Q 672 3955 563 4048 
Q 454 4141 102 4166 
L 102 4326 
L 1722 4326 
L 2995 1306 
L 4282 4326 
L 5894 4326 
L 5894 4166 
Q 5542 4141 5436 4022 
Q 5331 3904 5331 3546 
L 5331 806 
Q 5331 442 5427 317 
Q 5523 192 5894 160 
L 5894 0 
z
" transform="scale(0.015625)"/>
      <path id="STIXGeneral-Bold-53" d="M 3098 3034 
L 2918 3034 
Q 2752 3578 2470 3866 
Q 2125 4224 1683 4224 
Q 1357 4224 1168 4048 
Q 979 3872 979 3590 
Q 979 3360 1113 3213 
Q 1248 3066 1638 2861 
Q 1754 2797 2077 2633 
Q 2400 2470 2586 2368 
Q 2899 2195 3091 1897 
Q 3283 1600 3283 1242 
Q 3283 634 2844 256 
Q 2406 -122 1696 -122 
Q 1306 -122 864 32 
Q 666 96 602 96 
Q 525 96 480 48 
Q 435 0 410 -122 
L 224 -122 
L 224 1466 
L 410 1466 
Q 557 851 794 550 
Q 1158 90 1715 90 
Q 2086 90 2304 285 
Q 2522 480 2522 813 
Q 2522 1120 2157 1376 
Q 1997 1491 1376 1792 
Q 806 2067 544 2368 
Q 282 2669 282 3136 
Q 282 3744 656 4083 
Q 1030 4422 1683 4422 
Q 2035 4422 2432 4275 
Q 2624 4211 2701 4211 
Q 2790 4211 2832 4256 
Q 2874 4301 2906 4429 
L 3098 4429 
L 3098 3034 
z
" transform="scale(0.015625)"/>
      <path id="STIXGeneral-Bold-45" d="M 4102 1331 
L 3846 0 
L 102 0 
L 102 160 
Q 448 198 557 294 
Q 666 390 666 646 
L 666 3712 
Q 666 3955 550 4051 
Q 435 4147 102 4166 
L 102 4326 
L 3795 4326 
L 3795 3040 
L 3635 3040 
Q 3526 3680 3216 3894 
Q 2906 4109 2118 4109 
Q 1875 4109 1788 4032 
Q 1702 3955 1702 3763 
L 1702 2323 
Q 2221 2330 2451 2531 
Q 2682 2733 2739 3277 
L 2906 3277 
L 2906 1114 
L 2739 1114 
Q 2694 1677 2464 1891 
Q 2234 2106 1702 2106 
L 1702 557 
Q 1702 352 1814 275 
Q 1926 198 2234 198 
Q 2982 198 3398 544 
Q 3558 672 3667 838 
Q 3776 1005 3923 1331 
L 4102 1331 
z
" transform="scale(0.015625)"/>
     </defs>
     <use xlink:href="#STIXGeneral-Bold-44"/>
     <use xlink:href="#STIXGeneral-Bold-69" transform="translate(72.199982 0)"/>
     <use xlink:href="#STIXGeneral-Bold-73" transform="translate(99.999969 0)"/>
     <use xlink:href="#STIXGeneral-Bold-74" transform="translate(138.899963 0)"/>
     <use xlink:href="#STIXGeneral-Bold-75" transform="translate(172.199951 0)"/>
     <use xlink:href="#STIXGeneral-Bold-72" transform="translate(227.799942 0)"/>
     <use xlink:href="#STIXGeneral-Bold-62" transform="translate(272.199936 0)"/>
     <use xlink:href="#STIXGeneral-Bold-65" transform="translate(327.799927 0)"/>
     <use xlink:href="#STIXGeneral-Bold-64" transform="translate(372.199921 0)"/>
     <use xlink:href="#STIXGeneral-Bold-20" transform="translate(427.799911 0)"/>
     <use xlink:href="#STIXGeneral-Bold-50" transform="translate(452.799896 0)"/>
     <use xlink:href="#STIXGeneral-Bold-39" transform="translate(513.899887 0)"/>
     <use xlink:href="#STIXGeneral-Bold-30" transform="translate(563.899872 0)"/>
     <use xlink:href="#STIXGeneral-Bold-20" transform="translate(613.899857 0)"/>
     <use xlink:href="#STIXGeneral-Bold-74" transform="translate(638.899841 0)"/>
     <use xlink:href="#STIXGeneral-Bold-72" transform="translate(672.199829 0)"/>
     <use xlink:href="#STIXGeneral-Bold-61" transform="translate(716.599823 0)"/>
     <use xlink:href="#STIXGeneral-Bold-63" transform="translate(766.599808 0)"/>
     <use xlink:href="#STIXGeneral-Bold-6b" transform="translate(810.999802 0)"/>
     <use xlink:href="#STIXGeneral-Bold-69" transform="translate(866.599792 0)"/>
     <use xlink:href="#STIXGeneral-Bold-6e" transform="translate(894.39978 0)"/>
     <use xlink:href="#STIXGeneral-Bold-67" transform="translate(949.999771 0)"/>
     <use xlink:href="#STIXGeneral-Bold-20" transform="translate(999.999756 0)"/>
     <use xlink:href="#STIXGeneral-Bold-52" transform="translate(1024.999741 0)"/>
     <use xlink:href="#STIXGeneral-Bold-4d" transform="translate(1097.199722 0)"/>
     <use xlink:href="#STIXGeneral-Bold-53" transform="translate(1191.599716 0)"/>
     <use xlink:href="#STIXGeneral-Bold-45" transform="translate(1247.199707 0)"/>
    </g>
   </g>
  </g>
 </g>
 <defs>
  <clipPath id="p6c1c33c0fd">
   <rect x="53.080625" y="22.196406" width="260.856667" height="277.59875"/>
  </clipPath>
  <clipPath id="p38f46e0d6b">
   <rect x="356.937292" y="22.196406" width="260.856667" height="277.59875"/>
  </clipPath>
  <clipPath id="pf875bd57d9">
   <rect x="660.793958" y="22.196406" width="260.856667" height="277.59875"/>
  </clipPath>
 </defs>
</svg>
