<?xml version="1.0" encoding="utf-8" standalone="no"?>
<!DOCTYPE svg PUBLIC "-//W3C//DTD SVG 1.1//EN"
  "http://www.w3.org/Graphics/SVG/1.1/DTD/svg11.dtd">
<svg xmlns:xlink="http://www.w3.org/1999/xlink" width="820.605pt" height="294.471094pt" viewBox="0 0 820.605 294.471094" xmlns="http://www.w3.org/2000/svg" version="1.1">
 <metadata>
  <rdf:RDF xmlns:dc="http://purl.org/dc/elements/1.1/" xmlns:cc="http://creativecommons.org/ns#" xmlns:rdf="http://www.w3.org/1999/02/22-rdf-syntax-ns#">
   <cc:Work>
    <dc:type rdf:resource="http://purl.org/dc/dcmitype/StillImage"/>
    <dc:date>2026-04-19T18:22:05.846583</dc:date>
    <dc:format>image/svg+xml</dc:format>
    <dc:creator>
     <cc:Agent>
      <dc:title>Matplotlib v3.10.8, https://matplotlib.org/</dc:title>
     </cc:Agent>
    </dc:creator>
   </cc:Work>
  </rdf:RDF>
 </metadata>
 <defs>
  <style type="text/css">*{stroke-linejoin: round; stroke-linecap: butt}</style>
 </defs>
 <g id="figure_1">
  <g id="patch_1">
   <path d="M -0 294.471094 
L 820.605 294.471094 
L 820.605 0 
L -0 0 
z
" style="fill: #ffffff"/>
  </g>
  <g id="axes_1">
   <g id="patch_2">
    <path d="M 42.575 255.571094 
L 420.84 255.571094 
L 420.84 23.001094 
L 42.575 23.001094 
z
" style="fill: #fcfcfd"/>
   </g>
   <g id="matplotlib.axis_1">
    <g id="xtick_1">
     <g id="line2d_1">
      <path d="M 59.768864 255.571094 
L 59.768864 23.001094 
" clip-path="url(#p155d28e037)" style="fill: none; stroke-dasharray: 0.7,1.155; stroke-dashoffset: 0; stroke: #cbd5e1; stroke-opacity: 0.35; stroke-width: 0.7"/>
     </g>
     <g id="line2d_2">
      <defs>
       <path id="m1cb0b935d7" d="M 0 0 
L 0 3.5 
" style="stroke: #334155; stroke-width: 0.8"/>
      </defs>
      <g>
       <use xlink:href="#m1cb0b935d7" x="59.768864" y="255.571094" style="fill: #334155; stroke: #334155; stroke-width: 0.8"/>
      </g>
     </g>
     <g id="text_1">
      <!-- 4 -->
      <g style="fill: #334155" transform="translate(57.143864 269.742266) scale(0.105 -0.105)">
       <defs>
        <path id="STIXGeneral-Regular-34" d="M 3027 1069 
L 2368 1069 
L 2368 0 
L 1869 0 
L 1869 1069 
L 77 1069 
L 77 1478 
L 2086 4326 
L 2368 4326 
L 2368 1478 
L 3027 1478 
L 3027 1069 
z
M 1869 1478 
L 1869 3674 
L 333 1478 
L 1869 1478 
z
" transform="scale(0.015625)"/>
       </defs>
       <use xlink:href="#STIXGeneral-Regular-34"/>
      </g>
     </g>
    </g>
    <g id="xtick_2">
     <g id="line2d_3">
      <path d="M 102.753523 255.571094 
L 102.753523 23.001094 
" clip-path="url(#p155d28e037)" style="fill: none; stroke-dasharray: 0.7,1.155; stroke-dashoffset: 0; stroke: #cbd5e1; stroke-opacity: 0.35; stroke-width: 0.7"/>
     </g>
     <g id="line2d_4">
      <g>
       <use xlink:href="#m1cb0b935d7" x="102.753523" y="255.571094" style="fill: #334155; stroke: #334155; stroke-width: 0.8"/>
      </g>
     </g>
     <g id="text_2">
      <!-- 5 -->
      <g style="fill: #334155" transform="translate(100.128523 269.742266) scale(0.105 -0.105)">
       <defs>
        <path id="STIXGeneral-Regular-35" d="M 2803 4358 
L 2573 3814 
Q 2534 3731 2400 3731 
L 1158 3731 
L 902 3187 
Q 1606 3053 1920 2896 
Q 2234 2739 2502 2368 
Q 2726 2061 2726 1555 
Q 2726 1094 2576 780 
Q 2426 467 2099 224 
Q 1664 -90 1011 -90 
Q 646 -90 422 19 
Q 198 128 198 307 
Q 198 550 486 550 
Q 717 550 960 352 
Q 1210 147 1414 147 
Q 1747 147 2012 480 
Q 2278 813 2278 1229 
Q 2278 1843 1850 2189 
Q 1293 2637 486 2637 
Q 410 2637 410 2688 
L 416 2720 
L 1114 4237 
L 2438 4237 
Q 2547 4237 2608 4269 
Q 2669 4301 2746 4403 
L 2803 4358 
z
" transform="scale(0.015625)"/>
       </defs>
       <use xlink:href="#STIXGeneral-Regular-35"/>
      </g>
     </g>
    </g>
    <g id="xtick_3">
     <g id="line2d_5">
      <path d="M 145.738182 255.571094 
L 145.738182 23.001094 
" clip-path="url(#p155d28e037)" style="fill: none; stroke-dasharray: 0.7,1.155; stroke-dashoffset: 0; stroke: #cbd5e1; stroke-opacity: 0.35; stroke-width: 0.7"/>
     </g>
     <g id="line2d_6">
      <g>
       <use xlink:href="#m1cb0b935d7" x="145.738182" y="255.571094" style="fill: #334155; stroke: #334155; stroke-width: 0.8"/>
      </g>
     </g>
     <g id="text_3">
      <!-- 6 -->
      <g style="fill: #334155" transform="translate(143.113182 269.742266) scale(0.105 -0.105)">
       <defs>
        <path id="STIXGeneral-Regular-36" d="M 2854 4378 
L 2867 4275 
Q 2112 4154 1606 3664 
Q 1101 3174 973 2451 
Q 1344 2739 1786 2739 
Q 2349 2739 2672 2380 
Q 2995 2022 2995 1402 
Q 2995 774 2669 378 
Q 2291 -90 1651 -90 
Q 870 -90 518 557 
Q 218 1107 218 1786 
Q 218 2835 915 3552 
Q 1312 3962 1731 4131 
Q 2150 4301 2854 4378 
z
M 2419 1203 
Q 2419 2445 1555 2445 
Q 1235 2445 1024 2275 
Q 813 2106 813 1702 
Q 813 954 1046 522 
Q 1280 90 1722 90 
Q 2061 90 2240 394 
Q 2419 698 2419 1203 
z
" transform="scale(0.015625)"/>
       </defs>
       <use xlink:href="#STIXGeneral-Regular-36"/>
      </g>
     </g>
    </g>
    <g id="xtick_4">
     <g id="line2d_7">
      <path d="M 188.722841 255.571094 
L 188.722841 23.001094 
" clip-path="url(#p155d28e037)" style="fill: none; stroke-dasharray: 0.7,1.155; stroke-dashoffset: 0; stroke: #cbd5e1; stroke-opacity: 0.35; stroke-width: 0.7"/>
     </g>
     <g id="line2d_8">
      <g>
       <use xlink:href="#m1cb0b935d7" x="188.722841" y="255.571094" style="fill: #334155; stroke: #334155; stroke-width: 0.8"/>
      </g>
     </g>
     <g id="text_4">
      <!-- 7 -->
      <g style="fill: #334155" transform="translate(186.097841 269.742266) scale(0.105 -0.105)">
       <defs>
        <path id="STIXGeneral-Regular-37" d="M 2874 4134 
L 1517 -51 
L 1101 -51 
L 2368 3763 
L 992 3763 
Q 717 3763 582 3667 
Q 448 3571 243 3238 
L 128 3296 
L 512 4237 
L 2874 4237 
L 2874 4134 
z
" transform="scale(0.015625)"/>
       </defs>
       <use xlink:href="#STIXGeneral-Regular-37"/>
      </g>
     </g>
    </g>
    <g id="xtick_5">
     <g id="line2d_9">
      <path d="M 231.7075 255.571094 
L 231.7075 23.001094 
" clip-path="url(#p155d28e037)" style="fill: none; stroke-dasharray: 0.7,1.155; stroke-dashoffset: 0; stroke: #cbd5e1; stroke-opacity: 0.35; stroke-width: 0.7"/>
     </g>
     <g id="line2d_10">
      <g>
       <use xlink:href="#m1cb0b935d7" x="231.7075" y="255.571094" style="fill: #334155; stroke: #334155; stroke-width: 0.8"/>
      </g>
     </g>
     <g id="text_5">
      <!-- 8 -->
      <g style="fill: #334155" transform="translate(229.0825 269.742266) scale(0.105 -0.105)">
       <defs>
        <path id="STIXGeneral-Regular-38" d="M 2848 992 
Q 2848 499 2505 204 
Q 2163 -90 1587 -90 
Q 1050 -90 704 204 
Q 358 499 358 954 
Q 358 1293 524 1533 
Q 691 1773 1190 2125 
Q 710 2522 553 2765 
Q 397 3008 397 3328 
Q 397 3782 745 4054 
Q 1094 4326 1638 4326 
Q 2106 4326 2410 4060 
Q 2714 3795 2714 3411 
Q 2714 3059 2531 2848 
Q 2349 2637 1856 2374 
Q 2432 1990 2640 1689 
Q 2848 1389 2848 992 
z
M 2272 3411 
Q 2272 3744 2086 3945 
Q 1901 4147 1574 4147 
Q 1248 4147 1059 3977 
Q 870 3808 870 3513 
Q 870 3219 1059 2979 
Q 1248 2739 1670 2490 
Q 1997 2682 2134 2896 
Q 2272 3110 2272 3411 
z
M 1734 1741 
L 1357 1997 
Q 1075 1766 960 1545 
Q 845 1325 845 1011 
Q 845 576 1065 333 
Q 1286 90 1658 90 
Q 1971 90 2166 285 
Q 2362 480 2362 794 
Q 2362 1082 2214 1299 
Q 2067 1517 1734 1741 
z
" transform="scale(0.015625)"/>
       </defs>
       <use xlink:href="#STIXGeneral-Regular-38"/>
      </g>
     </g>
    </g>
    <g id="xtick_6">
     <g id="line2d_11">
      <path d="M 274.692159 255.571094 
L 274.692159 23.001094 
" clip-path="url(#p155d28e037)" style="fill: none; stroke-dasharray: 0.7,1.155; stroke-dashoffset: 0; stroke: #cbd5e1; stroke-opacity: 0.35; stroke-width: 0.7"/>
     </g>
     <g id="line2d_12">
      <g>
       <use xlink:href="#m1cb0b935d7" x="274.692159" y="255.571094" style="fill: #334155; stroke: #334155; stroke-width: 0.8"/>
      </g>
     </g>
     <g id="text_6">
      <!-- 9 -->
      <g style="fill: #334155" transform="translate(272.067159 269.742266) scale(0.105 -0.105)">
       <defs>
        <path id="STIXGeneral-Regular-39" d="M 378 -141 
L 358 -13 
Q 1094 115 1603 608 
Q 2112 1101 2304 1882 
Q 1933 1517 1344 1517 
Q 826 1517 509 1875 
Q 192 2234 192 2816 
Q 192 3462 573 3894 
Q 954 4326 1523 4326 
Q 2131 4326 2528 3840 
Q 2938 3328 2938 2522 
Q 2938 1958 2742 1462 
Q 2547 966 2170 621 
Q 1773 262 1395 105 
Q 1018 -51 378 -141 
z
M 2317 2272 
L 2317 2522 
Q 2317 4147 1472 4147 
Q 1171 4147 1005 3930 
Q 909 3802 845 3546 
Q 781 3290 781 3034 
Q 781 2464 995 2128 
Q 1210 1792 1568 1792 
Q 1824 1792 2070 1917 
Q 2317 2042 2317 2272 
z
" transform="scale(0.015625)"/>
       </defs>
       <use xlink:href="#STIXGeneral-Regular-39"/>
      </g>
     </g>
    </g>
    <g id="xtick_7">
     <g id="line2d_13">
      <path d="M 317.676818 255.571094 
L 317.676818 23.001094 
" clip-path="url(#p155d28e037)" style="fill: none; stroke-dasharray: 0.7,1.155; stroke-dashoffset: 0; stroke: #cbd5e1; stroke-opacity: 0.35; stroke-width: 0.7"/>
     </g>
     <g id="line2d_14">
      <g>
       <use xlink:href="#m1cb0b935d7" x="317.676818" y="255.571094" style="fill: #334155; stroke: #334155; stroke-width: 0.8"/>
      </g>
     </g>
     <g id="text_7">
      <!-- 10 -->
      <g style="fill: #334155" transform="translate(312.426818 269.742266) scale(0.105 -0.105)">
       <defs>
        <path id="STIXGeneral-Regular-31" d="M 2522 0 
L 755 0 
L 755 96 
Q 1107 115 1235 227 
Q 1363 339 1363 608 
L 1363 3482 
Q 1363 3795 1171 3795 
Q 1082 3795 883 3718 
L 710 3654 
L 710 3744 
L 1856 4326 
L 1914 4307 
L 1914 486 
Q 1914 275 2042 185 
Q 2170 96 2522 96 
L 2522 0 
z
" transform="scale(0.015625)"/>
        <path id="STIXGeneral-Regular-30" d="M 3046 2112 
Q 3046 1683 2963 1302 
Q 2880 922 2717 602 
Q 2554 282 2266 96 
Q 1978 -90 1600 -90 
Q 1210 -90 915 108 
Q 621 307 461 640 
Q 301 973 227 1350 
Q 154 1728 154 2150 
Q 154 2746 301 3222 
Q 448 3699 790 4012 
Q 1133 4326 1626 4326 
Q 2253 4326 2649 3712 
Q 3046 3098 3046 2112 
z
M 2432 2080 
Q 2432 3091 2217 3625 
Q 2003 4160 1587 4160 
Q 1190 4160 979 3622 
Q 768 3085 768 2106 
Q 768 1120 979 598 
Q 1190 77 1600 77 
Q 2003 77 2217 598 
Q 2432 1120 2432 2080 
z
" transform="scale(0.015625)"/>
       </defs>
       <use xlink:href="#STIXGeneral-Regular-31"/>
       <use xlink:href="#STIXGeneral-Regular-30" transform="translate(49.999985 0)"/>
      </g>
     </g>
    </g>
    <g id="xtick_8">
     <g id="line2d_15">
      <path d="M 360.661477 255.571094 
L 360.661477 23.001094 
" clip-path="url(#p155d28e037)" style="fill: none; stroke-dasharray: 0.7,1.155; stroke-dashoffset: 0; stroke: #cbd5e1; stroke-opacity: 0.35; stroke-width: 0.7"/>
     </g>
     <g id="line2d_16">
      <g>
       <use xlink:href="#m1cb0b935d7" x="360.661477" y="255.571094" style="fill: #334155; stroke: #334155; stroke-width: 0.8"/>
      </g>
     </g>
     <g id="text_8">
      <!-- 11 -->
      <g style="fill: #334155" transform="translate(355.411477 269.742266) scale(0.105 -0.105)">
       <use xlink:href="#STIXGeneral-Regular-31"/>
       <use xlink:href="#STIXGeneral-Regular-31" transform="translate(49.999985 0)"/>
      </g>
     </g>
    </g>
    <g id="xtick_9">
     <g id="line2d_17">
      <path d="M 403.646136 255.571094 
L 403.646136 23.001094 
" clip-path="url(#p155d28e037)" style="fill: none; stroke-dasharray: 0.7,1.155; stroke-dashoffset: 0; stroke: #cbd5e1; stroke-opacity: 0.35; stroke-width: 0.7"/>
     </g>
     <g id="line2d_18">
      <g>
       <use xlink:href="#m1cb0b935d7" x="403.646136" y="255.571094" style="fill: #334155; stroke: #334155; stroke-width: 0.8"/>
      </g>
     </g>
     <g id="text_9">
      <!-- 12 -->
      <g style="fill: #334155" transform="translate(398.396136 269.742266) scale(0.105 -0.105)">
       <defs>
        <path id="STIXGeneral-Regular-32" d="M 3034 877 
L 2688 0 
L 186 0 
L 186 77 
L 1325 1286 
Q 1773 1754 1965 2144 
Q 2157 2534 2157 2950 
Q 2157 3379 1920 3616 
Q 1683 3853 1267 3853 
Q 922 3853 720 3673 
Q 518 3494 326 3021 
L 192 3053 
Q 301 3648 630 3987 
Q 960 4326 1523 4326 
Q 2054 4326 2380 4006 
Q 2707 3686 2707 3200 
Q 2707 2477 1888 1613 
L 832 486 
L 2330 486 
Q 2541 486 2665 569 
Q 2790 653 2944 915 
L 3034 877 
z
" transform="scale(0.015625)"/>
       </defs>
       <use xlink:href="#STIXGeneral-Regular-31"/>
       <use xlink:href="#STIXGeneral-Regular-32" transform="translate(49.999985 0)"/>
      </g>
     </g>
    </g>
    <g id="text_10">
     <!-- Number of UAVs -->
     <g style="fill: #0f172a" transform="translate(186.925273 284.558203) scale(0.125 -0.125)">
      <defs>
       <path id="STIXGeneral-Regular-4e" d="M 4525 4237 
L 4525 4115 
Q 4198 4083 4102 4000 
Q 4000 3910 3958 3756 
Q 3917 3603 3917 3245 
L 3917 -70 
L 3802 -70 
L 979 3443 
L 979 960 
Q 979 474 1088 323 
Q 1197 173 1574 122 
L 1574 0 
L 77 0 
L 77 122 
Q 474 166 586 310 
Q 698 454 698 960 
L 698 3776 
Q 531 3981 416 4048 
Q 301 4115 77 4115 
L 77 4237 
L 1165 4237 
L 3635 1146 
L 3635 3322 
Q 3635 3808 3514 3949 
Q 3437 4032 3344 4061 
Q 3251 4090 3008 4115 
L 3008 4237 
L 4525 4237 
z
" transform="scale(0.015625)"/>
       <path id="STIXGeneral-Regular-75" d="M 3072 320 
L 3072 230 
Q 2573 96 2195 -58 
L 2163 -38 
L 2163 486 
L 2150 486 
Q 1747 -64 1235 -64 
Q 870 -64 662 160 
Q 454 384 454 755 
L 454 2362 
Q 454 2598 371 2688 
Q 288 2778 58 2790 
L 58 2880 
L 992 2880 
L 992 813 
Q 992 595 1123 451 
Q 1254 307 1446 307 
Q 1760 307 1984 506 
Q 2067 582 2099 649 
Q 2131 717 2131 877 
L 2131 2355 
Q 2131 2605 2041 2678 
Q 1952 2752 1658 2771 
L 1658 2880 
L 2669 2880 
L 2669 685 
Q 2669 461 2742 390 
Q 2816 320 3034 320 
L 3072 320 
z
" transform="scale(0.015625)"/>
       <path id="STIXGeneral-Regular-6d" d="M 4960 0 
L 3565 0 
L 3565 96 
Q 3834 122 3907 208 
Q 3981 294 3981 576 
L 3981 1894 
Q 3981 2278 3869 2444 
Q 3757 2611 3488 2611 
Q 3264 2611 3107 2521 
Q 2950 2432 2803 2221 
L 2803 608 
Q 2803 301 2896 201 
Q 2989 102 3264 96 
L 3264 0 
L 1830 0 
L 1830 96 
Q 2112 115 2189 188 
Q 2266 262 2266 550 
L 2266 1901 
Q 2266 2611 1850 2611 
Q 1670 2611 1468 2531 
Q 1267 2451 1171 2336 
Q 1088 2240 1088 2227 
L 1088 448 
Q 1088 243 1177 176 
Q 1267 109 1523 96 
L 1523 0 
L 102 0 
L 102 96 
Q 371 102 460 195 
Q 550 288 550 563 
L 550 2150 
Q 550 2387 499 2480 
Q 448 2573 326 2573 
Q 230 2573 122 2547 
L 122 2656 
Q 557 2778 1011 2944 
L 1062 2925 
L 1062 2451 
L 1075 2451 
Q 1363 2752 1584 2848 
Q 1805 2944 2054 2944 
Q 2560 2944 2733 2406 
Q 3232 2944 3776 2944 
Q 4518 2944 4518 1792 
L 4518 493 
Q 4518 282 4582 202 
Q 4646 122 4794 109 
L 4960 96 
L 4960 0 
z
" transform="scale(0.015625)"/>
       <path id="STIXGeneral-Regular-62" d="M 979 4358 
L 979 2406 
Q 1082 2650 1315 2797 
Q 1549 2944 1843 2944 
Q 2349 2944 2672 2541 
Q 2995 2138 2995 1536 
Q 2995 832 2566 384 
Q 2138 -64 1498 -64 
Q 1107 -64 774 67 
Q 442 198 442 358 
L 442 3622 
Q 442 3859 384 3926 
Q 326 3994 128 3994 
Q 83 3994 19 3981 
L 19 4090 
L 211 4147 
Q 864 4346 947 4371 
L 979 4358 
z
M 979 2035 
L 979 474 
Q 979 326 1161 233 
Q 1344 141 1600 141 
Q 1978 141 2195 416 
Q 2432 710 2432 1261 
Q 2432 1888 2182 2240 
Q 1971 2541 1613 2541 
Q 1357 2541 1168 2390 
Q 979 2240 979 2035 
z
" transform="scale(0.015625)"/>
       <path id="STIXGeneral-Regular-65" d="M 2611 1050 
L 2714 1005 
Q 2330 -64 1376 -64 
Q 813 -64 486 329 
Q 160 723 160 1389 
Q 160 2074 525 2509 
Q 890 2944 1485 2944 
Q 2061 2944 2374 2502 
Q 2560 2246 2592 1773 
L 621 1773 
Q 646 1370 700 1158 
Q 755 947 915 730 
Q 1184 378 1626 378 
Q 1939 378 2153 531 
Q 2368 685 2611 1050 
z
M 634 1978 
L 1939 1978 
Q 1882 2381 1750 2547 
Q 1619 2714 1312 2714 
Q 1043 2714 864 2525 
Q 685 2336 634 1978 
z
" transform="scale(0.015625)"/>
       <path id="STIXGeneral-Regular-72" d="M 1024 2931 
L 1024 2342 
Q 1267 2688 1430 2816 
Q 1594 2944 1792 2944 
Q 1958 2944 2051 2854 
Q 2144 2765 2144 2605 
Q 2144 2470 2077 2393 
Q 2010 2317 1894 2317 
Q 1773 2317 1638 2445 
Q 1536 2541 1472 2541 
Q 1338 2541 1181 2355 
Q 1024 2170 1024 2016 
L 1024 576 
Q 1024 301 1133 205 
Q 1242 109 1568 96 
L 1568 0 
L 32 0 
L 32 96 
Q 339 154 412 224 
Q 486 294 486 538 
L 486 2138 
Q 486 2349 438 2435 
Q 390 2522 269 2522 
Q 166 2522 45 2496 
L 45 2598 
Q 448 2726 992 2944 
L 1024 2931 
z
" transform="scale(0.015625)"/>
       <path id="STIXGeneral-Regular-20" transform="scale(0.015625)"/>
       <path id="STIXGeneral-Regular-6f" d="M 3008 1478 
Q 3008 806 2608 371 
Q 2208 -64 1568 -64 
Q 979 -64 582 368 
Q 186 800 186 1459 
Q 186 2125 582 2534 
Q 979 2944 1626 2944 
Q 2221 2944 2614 2537 
Q 3008 2131 3008 1478 
z
M 2432 1306 
Q 2432 2035 2112 2445 
Q 1856 2765 1504 2765 
Q 1171 2765 966 2493 
Q 762 2221 762 1747 
Q 762 928 1101 435 
Q 1318 115 1677 115 
Q 2029 115 2230 432 
Q 2432 749 2432 1306 
z
" transform="scale(0.015625)"/>
       <path id="STIXGeneral-Regular-66" d="M 134 2880 
L 659 2880 
Q 666 3264 710 3478 
Q 755 3693 883 3910 
Q 1152 4371 1786 4371 
Q 2074 4371 2262 4259 
Q 2451 4147 2451 3974 
Q 2451 3866 2374 3789 
Q 2298 3712 2182 3712 
Q 2029 3712 1894 3942 
Q 1741 4192 1555 4192 
Q 1197 4192 1197 3622 
L 1197 2880 
L 1978 2880 
L 1978 2675 
L 1197 2675 
L 1197 666 
Q 1197 307 1299 208 
Q 1402 109 1792 96 
L 1792 0 
L 128 0 
L 128 96 
Q 474 115 566 214 
Q 659 314 659 666 
L 659 2675 
L 134 2675 
L 134 2880 
z
" transform="scale(0.015625)"/>
       <path id="STIXGeneral-Regular-55" d="M 4512 4237 
L 4512 4115 
Q 4122 4077 4016 3926 
Q 3910 3776 3910 3302 
L 3910 1670 
Q 3910 1178 3840 896 
Q 3770 614 3565 378 
Q 3155 -90 2272 -90 
Q 1574 -90 1184 205 
Q 666 589 666 1594 
L 666 3578 
Q 666 3898 566 3994 
Q 467 4090 90 4115 
L 90 4237 
L 1901 4237 
L 1901 4115 
Q 1517 4083 1417 3977 
Q 1318 3872 1318 3514 
L 1318 1517 
Q 1318 1101 1369 877 
Q 1421 653 1600 480 
Q 1901 192 2419 192 
Q 3066 192 3392 570 
Q 3539 749 3584 963 
Q 3629 1178 3629 1600 
L 3629 3283 
Q 3629 3782 3520 3936 
Q 3411 4090 3027 4115 
L 3027 4237 
L 4512 4237 
z
" transform="scale(0.015625)"/>
       <path id="STIXGeneral-Regular-41" d="M 4525 0 
L 2893 0 
L 2893 122 
Q 3149 122 3245 179 
Q 3334 224 3334 333 
Q 3334 499 3213 781 
L 2950 1382 
L 1274 1382 
L 979 653 
Q 922 506 922 384 
Q 922 237 1027 179 
Q 1133 122 1370 122 
L 1370 0 
L 96 0 
L 96 122 
Q 365 147 486 316 
Q 608 486 902 1190 
L 2221 4314 
L 2349 4314 
L 3923 710 
Q 4064 378 4176 262 
Q 4288 147 4525 122 
L 4525 0 
z
M 2861 1645 
L 2118 3405 
L 1382 1645 
L 2861 1645 
z
" transform="scale(0.015625)"/>
       <path id="STIXGeneral-Regular-56" d="M 4461 4237 
L 4461 4115 
Q 4262 4109 4134 3990 
Q 4006 3872 3872 3533 
L 2451 -70 
L 2355 -70 
L 794 3411 
Q 589 3866 467 3987 
Q 346 4109 102 4115 
L 102 4237 
L 1798 4237 
L 1798 4115 
L 1619 4102 
Q 1331 4083 1331 3904 
Q 1331 3776 1581 3219 
L 2554 1030 
L 3494 3392 
Q 3616 3699 3616 3853 
Q 3616 3898 3606 3933 
Q 3597 3968 3584 3993 
Q 3571 4019 3536 4038 
Q 3501 4058 3481 4067 
Q 3462 4077 3411 4086 
Q 3360 4096 3337 4099 
Q 3315 4102 3248 4108 
Q 3181 4115 3155 4115 
L 3155 4237 
L 4461 4237 
z
" transform="scale(0.015625)"/>
       <path id="STIXGeneral-Regular-73" d="M 998 1926 
L 1664 1523 
Q 1984 1331 2105 1164 
Q 2227 998 2227 736 
Q 2227 416 1961 176 
Q 1696 -64 1331 -64 
Q 1030 -64 864 -6 
Q 691 51 570 51 
Q 461 51 416 -26 
L 333 -26 
L 333 979 
L 435 979 
Q 538 512 730 294 
Q 922 77 1248 77 
Q 1485 77 1632 211 
Q 1779 346 1779 550 
Q 1779 845 1440 1030 
L 1094 1222 
Q 326 1651 326 2150 
Q 326 2522 566 2730 
Q 806 2938 1210 2938 
Q 1491 2938 1638 2867 
Q 1754 2816 1818 2816 
Q 1862 2816 1920 2880 
L 1990 2880 
L 2022 2010 
L 1926 2010 
Q 1818 2445 1654 2621 
Q 1491 2797 1203 2797 
Q 986 2797 854 2688 
Q 723 2579 723 2362 
Q 723 2253 796 2128 
Q 870 2003 998 1926 
z
" transform="scale(0.015625)"/>
      </defs>
      <use xlink:href="#STIXGeneral-Regular-4e"/>
      <use xlink:href="#STIXGeneral-Regular-75" transform="translate(72.199982 0)"/>
      <use xlink:href="#STIXGeneral-Regular-6d" transform="translate(122.199966 0)"/>
      <use xlink:href="#STIXGeneral-Regular-62" transform="translate(199.999954 0)"/>
      <use xlink:href="#STIXGeneral-Regular-65" transform="translate(249.999939 0)"/>
      <use xlink:href="#STIXGeneral-Regular-72" transform="translate(294.399933 0)"/>
      <use xlink:href="#STIXGeneral-Regular-20" transform="translate(327.699921 0)"/>
      <use xlink:href="#STIXGeneral-Regular-6f" transform="translate(352.699905 0)"/>
      <use xlink:href="#STIXGeneral-Regular-66" transform="translate(402.69989 0)"/>
      <use xlink:href="#STIXGeneral-Regular-20" transform="translate(435.999878 0)"/>
      <use xlink:href="#STIXGeneral-Regular-55" transform="translate(460.999863 0)"/>
      <use xlink:href="#STIXGeneral-Regular-41" transform="translate(533.199844 0)"/>
      <use xlink:href="#STIXGeneral-Regular-56" transform="translate(605.399826 0)"/>
      <use xlink:href="#STIXGeneral-Regular-73" transform="translate(677.599808 0)"/>
     </g>
    </g>
   </g>
   <g id="matplotlib.axis_2">
    <g id="ytick_1">
     <g id="line2d_19">
      <path d="M 42.575 223.049098 
L 420.84 223.049098 
" clip-path="url(#p155d28e037)" style="fill: none; stroke-dasharray: 0.7,1.155; stroke-dashoffset: 0; stroke: #cbd5e1; stroke-opacity: 0.35; stroke-width: 0.7"/>
     </g>
     <g id="line2d_20">
      <defs>
       <path id="m94f8fc52fa" d="M 0 0 
L -3.5 0 
" style="stroke: #334155; stroke-width: 0.8"/>
      </defs>
      <g>
       <use xlink:href="#m94f8fc52fa" x="42.575" y="223.049098" style="fill: #334155; stroke: #334155; stroke-width: 0.8"/>
      </g>
     </g>
     <g id="text_11">
      <!-- 0.5 -->
      <g style="fill: #334155" transform="translate(22.45 226.634684) scale(0.105 -0.105)">
       <defs>
        <path id="STIXGeneral-Regular-2e" d="M 1158 275 
Q 1158 134 1052 32 
Q 947 -70 800 -70 
Q 653 -70 550 32 
Q 448 134 448 281 
Q 448 429 553 534 
Q 659 640 806 640 
Q 947 640 1052 531 
Q 1158 422 1158 275 
z
" transform="scale(0.015625)"/>
       </defs>
       <use xlink:href="#STIXGeneral-Regular-30"/>
       <use xlink:href="#STIXGeneral-Regular-2e" transform="translate(49.999985 0)"/>
       <use xlink:href="#STIXGeneral-Regular-35" transform="translate(74.999969 0)"/>
      </g>
     </g>
    </g>
    <g id="ytick_2">
     <g id="line2d_21">
      <path d="M 42.575 179.113491 
L 420.84 179.113491 
" clip-path="url(#p155d28e037)" style="fill: none; stroke-dasharray: 0.7,1.155; stroke-dashoffset: 0; stroke: #cbd5e1; stroke-opacity: 0.35; stroke-width: 0.7"/>
     </g>
     <g id="line2d_22">
      <g>
       <use xlink:href="#m94f8fc52fa" x="42.575" y="179.113491" style="fill: #334155; stroke: #334155; stroke-width: 0.8"/>
      </g>
     </g>
     <g id="text_12">
      <!-- 1.0 -->
      <g style="fill: #334155" transform="translate(22.45 182.699076) scale(0.105 -0.105)">
       <use xlink:href="#STIXGeneral-Regular-31"/>
       <use xlink:href="#STIXGeneral-Regular-2e" transform="translate(49.999985 0)"/>
       <use xlink:href="#STIXGeneral-Regular-30" transform="translate(74.999969 0)"/>
      </g>
     </g>
    </g>
    <g id="ytick_3">
     <g id="line2d_23">
      <path d="M 42.575 135.177883 
L 420.84 135.177883 
" clip-path="url(#p155d28e037)" style="fill: none; stroke-dasharray: 0.7,1.155; stroke-dashoffset: 0; stroke: #cbd5e1; stroke-opacity: 0.35; stroke-width: 0.7"/>
     </g>
     <g id="line2d_24">
      <g>
       <use xlink:href="#m94f8fc52fa" x="42.575" y="135.177883" style="fill: #334155; stroke: #334155; stroke-width: 0.8"/>
      </g>
     </g>
     <g id="text_13">
      <!-- 1.5 -->
      <g style="fill: #334155" transform="translate(22.45 138.763469) scale(0.105 -0.105)">
       <use xlink:href="#STIXGeneral-Regular-31"/>
       <use xlink:href="#STIXGeneral-Regular-2e" transform="translate(49.999985 0)"/>
       <use xlink:href="#STIXGeneral-Regular-35" transform="translate(74.999969 0)"/>
      </g>
     </g>
    </g>
    <g id="ytick_4">
     <g id="line2d_25">
      <path d="M 42.575 91.242276 
L 420.84 91.242276 
" clip-path="url(#p155d28e037)" style="fill: none; stroke-dasharray: 0.7,1.155; stroke-dashoffset: 0; stroke: #cbd5e1; stroke-opacity: 0.35; stroke-width: 0.7"/>
     </g>
     <g id="line2d_26">
      <g>
       <use xlink:href="#m94f8fc52fa" x="42.575" y="91.242276" style="fill: #334155; stroke: #334155; stroke-width: 0.8"/>
      </g>
     </g>
     <g id="text_14">
      <!-- 2.0 -->
      <g style="fill: #334155" transform="translate(22.45 94.827862) scale(0.105 -0.105)">
       <use xlink:href="#STIXGeneral-Regular-32"/>
       <use xlink:href="#STIXGeneral-Regular-2e" transform="translate(49.999985 0)"/>
       <use xlink:href="#STIXGeneral-Regular-30" transform="translate(74.999969 0)"/>
      </g>
     </g>
    </g>
    <g id="ytick_5">
     <g id="line2d_27">
      <path d="M 42.575 47.306669 
L 420.84 47.306669 
" clip-path="url(#p155d28e037)" style="fill: none; stroke-dasharray: 0.7,1.155; stroke-dashoffset: 0; stroke: #cbd5e1; stroke-opacity: 0.35; stroke-width: 0.7"/>
     </g>
     <g id="line2d_28">
      <g>
       <use xlink:href="#m94f8fc52fa" x="42.575" y="47.306669" style="fill: #334155; stroke: #334155; stroke-width: 0.8"/>
      </g>
     </g>
     <g id="text_15">
      <!-- 2.5 -->
      <g style="fill: #334155" transform="translate(22.45 50.892255) scale(0.105 -0.105)">
       <use xlink:href="#STIXGeneral-Regular-32"/>
       <use xlink:href="#STIXGeneral-Regular-2e" transform="translate(49.999985 0)"/>
       <use xlink:href="#STIXGeneral-Regular-35" transform="translate(74.999969 0)"/>
      </g>
     </g>
    </g>
    <g id="text_16">
     <!-- Median Error -->
     <g style="fill: #0f172a" transform="translate(15.737109 173.129844) rotate(-90) scale(0.125 -0.125)">
      <defs>
       <path id="STIXGeneral-Regular-4d" d="M 5530 0 
L 3738 0 
L 3738 122 
Q 4115 147 4214 265 
Q 4314 384 4314 787 
L 4314 3661 
L 2682 0 
L 2592 0 
L 979 3514 
L 979 966 
Q 979 448 1088 294 
Q 1197 141 1574 122 
L 1574 0 
L 77 0 
L 77 122 
Q 358 141 480 205 
Q 602 269 650 432 
Q 698 595 698 966 
L 698 3514 
Q 698 3878 589 3984 
Q 480 4090 90 4115 
L 90 4237 
L 1357 4237 
L 2835 1024 
L 4250 4237 
L 5523 4237 
L 5523 4115 
Q 5178 4109 5072 3993 
Q 4966 3878 4966 3520 
L 4966 717 
Q 4966 378 5072 262 
Q 5178 147 5530 122 
L 5530 0 
z
" transform="scale(0.015625)"/>
       <path id="STIXGeneral-Regular-64" d="M 3142 269 
L 2202 -64 
L 2176 -45 
L 2176 365 
Q 1869 -64 1357 -64 
Q 826 -64 499 317 
Q 173 698 173 1312 
Q 173 1990 563 2467 
Q 954 2944 1504 2944 
Q 1850 2944 2176 2669 
L 2176 3667 
Q 2176 3866 2118 3930 
Q 2061 3994 1882 3994 
Q 1792 3994 1741 3987 
L 1741 4090 
Q 2323 4243 2682 4371 
L 2714 4358 
L 2714 730 
Q 2714 506 2768 435 
Q 2822 365 2995 365 
Q 3034 365 3142 371 
L 3142 269 
z
M 2176 653 
L 2176 2125 
Q 2176 2381 1981 2573 
Q 1786 2765 1523 2765 
Q 1158 2765 940 2438 
Q 723 2112 723 1568 
Q 723 979 963 624 
Q 1203 269 1606 269 
Q 1907 269 2080 474 
Q 2176 582 2176 653 
z
" transform="scale(0.015625)"/>
       <path id="STIXGeneral-Regular-69" d="M 1152 4045 
Q 1152 3904 1056 3811 
Q 960 3718 819 3718 
Q 685 3718 592 3811 
Q 499 3904 499 4045 
Q 499 4179 595 4275 
Q 691 4371 826 4371 
Q 966 4371 1059 4275 
Q 1152 4179 1152 4045 
z
M 1619 0 
L 102 0 
L 102 96 
Q 435 115 521 211 
Q 608 307 608 666 
L 608 2118 
Q 608 2342 563 2432 
Q 518 2522 397 2522 
Q 243 2522 128 2490 
L 128 2592 
L 1120 2944 
L 1146 2918 
L 1146 672 
Q 1146 314 1226 218 
Q 1306 122 1619 96 
L 1619 0 
z
" transform="scale(0.015625)"/>
       <path id="STIXGeneral-Regular-61" d="M 2829 422 
L 2829 243 
Q 2586 -64 2253 -64 
Q 1888 -64 1843 403 
L 1837 403 
Q 1427 -64 909 -64 
Q 608 -64 422 112 
Q 237 288 237 602 
Q 237 1050 685 1350 
Q 992 1555 1837 1869 
L 1837 2214 
Q 1837 2502 1699 2646 
Q 1562 2790 1338 2790 
Q 1146 2790 1018 2697 
Q 890 2605 890 2477 
Q 890 2419 909 2348 
Q 928 2278 928 2208 
Q 928 2112 841 2029 
Q 755 1946 634 1946 
Q 525 1946 441 2029 
Q 358 2112 358 2240 
Q 358 2547 685 2752 
Q 986 2944 1421 2944 
Q 1939 2944 2176 2656 
Q 2291 2522 2323 2384 
Q 2355 2246 2355 1946 
L 2355 723 
Q 2355 301 2554 301 
Q 2682 301 2829 422 
z
M 1837 813 
L 1837 1715 
Q 1248 1510 1018 1293 
Q 800 1094 800 800 
Q 800 557 921 432 
Q 1043 307 1242 307 
Q 1453 307 1613 410 
Q 1747 506 1792 589 
Q 1837 672 1837 813 
z
" transform="scale(0.015625)"/>
       <path id="STIXGeneral-Regular-6e" d="M 3104 0 
L 1773 0 
L 1779 96 
Q 2016 115 2096 233 
Q 2176 352 2176 672 
L 2176 1946 
Q 2176 2592 1709 2592 
Q 1549 2592 1408 2515 
Q 1267 2438 1050 2227 
L 1050 461 
Q 1050 269 1136 192 
Q 1222 115 1466 96 
L 1466 0 
L 115 0 
L 115 96 
Q 358 115 435 214 
Q 512 314 512 602 
L 512 2157 
Q 512 2394 467 2483 
Q 422 2573 288 2573 
Q 160 2573 102 2547 
L 102 2656 
Q 550 2784 979 2944 
L 1030 2925 
L 1030 2426 
L 1037 2426 
Q 1491 2944 1958 2944 
Q 2323 2944 2518 2688 
Q 2714 2432 2714 1958 
L 2714 544 
Q 2714 288 2790 205 
Q 2867 122 3104 96 
L 3104 0 
z
" transform="scale(0.015625)"/>
       <path id="STIXGeneral-Regular-45" d="M 3821 1082 
L 3526 0 
L 77 0 
L 77 122 
Q 442 147 538 252 
Q 634 358 634 730 
L 634 3520 
Q 634 3878 534 3987 
Q 435 4096 77 4115 
L 77 4237 
L 3469 4237 
L 3494 3322 
L 3334 3322 
Q 3264 3750 3085 3872 
Q 2906 3994 2349 3994 
L 1510 3994 
Q 1370 3994 1328 3952 
Q 1286 3910 1286 3763 
L 1286 2355 
L 2253 2355 
Q 2656 2355 2787 2470 
Q 2918 2586 2976 2970 
L 3123 2970 
L 3123 1472 
L 2976 1472 
Q 2918 1875 2790 1984 
Q 2662 2093 2253 2093 
L 1286 2093 
L 1286 538 
Q 1286 346 1420 291 
Q 1555 237 1933 237 
L 2163 237 
Q 2848 237 3136 403 
Q 3424 570 3642 1082 
L 3821 1082 
z
" transform="scale(0.015625)"/>
      </defs>
      <use xlink:href="#STIXGeneral-Regular-4d"/>
      <use xlink:href="#STIXGeneral-Regular-65" transform="translate(88.899994 0)"/>
      <use xlink:href="#STIXGeneral-Regular-64" transform="translate(133.299988 0)"/>
      <use xlink:href="#STIXGeneral-Regular-69" transform="translate(183.299973 0)"/>
      <use xlink:href="#STIXGeneral-Regular-61" transform="translate(211.09996 0)"/>
      <use xlink:href="#STIXGeneral-Regular-6e" transform="translate(255.499954 0)"/>
      <use xlink:href="#STIXGeneral-Regular-20" transform="translate(305.499939 0)"/>
      <use xlink:href="#STIXGeneral-Regular-45" transform="translate(330.499924 0)"/>
      <use xlink:href="#STIXGeneral-Regular-72" transform="translate(391.599915 0)"/>
      <use xlink:href="#STIXGeneral-Regular-72" transform="translate(424.899902 0)"/>
      <use xlink:href="#STIXGeneral-Regular-6f" transform="translate(458.19989 0)"/>
      <use xlink:href="#STIXGeneral-Regular-72" transform="translate(508.199875 0)"/>
     </g>
    </g>
   </g>
   <g id="line2d_29">
    <path d="M 59.768864 162.592208 
L 145.738182 136.378251 
L 231.7075 166.561609 
L 317.676818 179.262527 
L 403.646136 61.724427 
" clip-path="url(#p155d28e037)" style="fill: none; stroke: #7f7f7f; stroke-width: 2; stroke-linecap: square"/>
    <defs>
     <path id="md453178542" d="M 0 3 
C 0.795609 3 1.55874 2.683901 2.12132 2.12132 
C 2.683901 1.55874 3 0.795609 3 0 
C 3 -0.795609 2.683901 -1.55874 2.12132 -2.12132 
C 1.55874 -2.683901 0.795609 -3 0 -3 
C -0.795609 -3 -1.55874 -2.683901 -2.12132 -2.12132 
C -2.683901 -1.55874 -3 -0.795609 -3 0 
C -3 0.795609 -2.683901 1.55874 -2.12132 2.12132 
C -1.55874 2.683901 -0.795609 3 0 3 
z
" style="stroke: #7f7f7f"/>
    </defs>
    <g clip-path="url(#p155d28e037)">
     <use xlink:href="#md453178542" x="59.768864" y="162.592208" style="fill: #7f7f7f; stroke: #7f7f7f"/>
     <use xlink:href="#md453178542" x="145.738182" y="136.378251" style="fill: #7f7f7f; stroke: #7f7f7f"/>
     <use xlink:href="#md453178542" x="231.7075" y="166.561609" style="fill: #7f7f7f; stroke: #7f7f7f"/>
     <use xlink:href="#md453178542" x="317.676818" y="179.262527" style="fill: #7f7f7f; stroke: #7f7f7f"/>
     <use xlink:href="#md453178542" x="403.646136" y="61.724427" style="fill: #7f7f7f; stroke: #7f7f7f"/>
    </g>
   </g>
   <g id="line2d_30">
    <path d="M 59.768864 175.963137 
L 145.738182 207.420492 
L 231.7075 228.005811 
L 317.676818 237.210638 
L 403.646136 231.413367 
" clip-path="url(#p155d28e037)" style="fill: none; stroke: #2ca02c; stroke-width: 2; stroke-linecap: square"/>
    <defs>
     <path id="mc02e053199" d="M 0 3 
C 0.795609 3 1.55874 2.683901 2.12132 2.12132 
C 2.683901 1.55874 3 0.795609 3 0 
C 3 -0.795609 2.683901 -1.55874 2.12132 -2.12132 
C 1.55874 -2.683901 0.795609 -3 0 -3 
C -0.795609 -3 -1.55874 -2.683901 -2.12132 -2.12132 
C -2.683901 -1.55874 -3 -0.795609 -3 0 
C -3 0.795609 -2.683901 1.55874 -2.12132 2.12132 
C -1.55874 2.683901 -0.795609 3 0 3 
z
" style="stroke: #2ca02c"/>
    </defs>
    <g clip-path="url(#p155d28e037)">
     <use xlink:href="#mc02e053199" x="59.768864" y="175.963137" style="fill: #2ca02c; stroke: #2ca02c"/>
     <use xlink:href="#mc02e053199" x="145.738182" y="207.420492" style="fill: #2ca02c; stroke: #2ca02c"/>
     <use xlink:href="#mc02e053199" x="231.7075" y="228.005811" style="fill: #2ca02c; stroke: #2ca02c"/>
     <use xlink:href="#mc02e053199" x="317.676818" y="237.210638" style="fill: #2ca02c; stroke: #2ca02c"/>
     <use xlink:href="#mc02e053199" x="403.646136" y="231.413367" style="fill: #2ca02c; stroke: #2ca02c"/>
    </g>
   </g>
   <g id="line2d_31">
    <path d="M 59.768864 210.532498 
L 145.738182 222.300611 
L 231.7075 244.99973 
L 317.676818 240.682674 
L 403.646136 237.564852 
" clip-path="url(#p155d28e037)" style="fill: none; stroke: #ff7f0e; stroke-width: 2; stroke-linecap: square"/>
    <defs>
     <path id="m18b48e44b6" d="M 0 3 
C 0.795609 3 1.55874 2.683901 2.12132 2.12132 
C 2.683901 1.55874 3 0.795609 3 0 
C 3 -0.795609 2.683901 -1.55874 2.12132 -2.12132 
C 1.55874 -2.683901 0.795609 -3 0 -3 
C -0.795609 -3 -1.55874 -2.683901 -2.12132 -2.12132 
C -2.683901 -1.55874 -3 -0.795609 -3 0 
C -3 0.795609 -2.683901 1.55874 -2.12132 2.12132 
C -1.55874 2.683901 -0.795609 3 0 3 
z
" style="stroke: #ff7f0e"/>
    </defs>
    <g clip-path="url(#p155d28e037)">
     <use xlink:href="#m18b48e44b6" x="59.768864" y="210.532498" style="fill: #ff7f0e; stroke: #ff7f0e"/>
     <use xlink:href="#m18b48e44b6" x="145.738182" y="222.300611" style="fill: #ff7f0e; stroke: #ff7f0e"/>
     <use xlink:href="#m18b48e44b6" x="231.7075" y="244.99973" style="fill: #ff7f0e; stroke: #ff7f0e"/>
     <use xlink:href="#m18b48e44b6" x="317.676818" y="240.682674" style="fill: #ff7f0e; stroke: #ff7f0e"/>
     <use xlink:href="#m18b48e44b6" x="403.646136" y="237.564852" style="fill: #ff7f0e; stroke: #ff7f0e"/>
    </g>
   </g>
   <g id="patch_3">
    <path d="M 42.575 255.571094 
L 42.575 23.001094 
" style="fill: none; stroke: #cbd5e1; stroke-linejoin: miter; stroke-linecap: square"/>
   </g>
   <g id="patch_4">
    <path d="M 42.575 255.571094 
L 420.84 255.571094 
" style="fill: none; stroke: #cbd5e1; stroke-linejoin: miter; stroke-linecap: square"/>
   </g>
   <g id="text_17">
    <!-- Circle Formation -->
    <g style="fill: #0f172a" transform="translate(177.94875 17.001094) scale(0.145 -0.145)">
     <defs>
      <path id="STIXGeneral-Bold-43" d="M 4205 973 
L 4397 813 
Q 3968 282 3549 80 
Q 3130 -122 2554 -122 
Q 1536 -122 925 496 
Q 314 1114 314 2067 
Q 314 3091 938 3756 
Q 1562 4422 2534 4422 
Q 2989 4422 3533 4198 
Q 3738 4109 3827 4109 
Q 3917 4109 3977 4169 
Q 4038 4230 4109 4403 
L 4282 4403 
L 4282 2899 
L 4122 2899 
Q 3981 3296 3693 3635 
Q 3213 4211 2624 4211 
Q 2106 4211 1776 3676 
Q 1446 3142 1446 2208 
Q 1446 1216 1792 672 
Q 1933 454 2192 320 
Q 2451 186 2733 186 
Q 3142 186 3539 403 
Q 3802 550 4205 973 
z
" transform="scale(0.015625)"/>
      <path id="STIXGeneral-Bold-69" d="M 1376 3923 
Q 1376 3712 1232 3571 
Q 1088 3430 877 3430 
Q 666 3430 525 3571 
Q 384 3712 384 3923 
Q 384 4134 528 4278 
Q 672 4422 890 4422 
Q 1088 4422 1232 4275 
Q 1376 4128 1376 3923 
z
M 1638 0 
L 102 0 
L 102 154 
Q 326 205 384 275 
Q 442 346 442 563 
L 442 2387 
Q 442 2598 374 2675 
Q 307 2752 96 2797 
L 96 2950 
L 1331 2950 
L 1331 544 
Q 1331 339 1398 259 
Q 1466 179 1638 154 
L 1638 0 
z
" transform="scale(0.015625)"/>
      <path id="STIXGeneral-Bold-72" d="M 1395 2950 
L 1395 2426 
Q 1619 2752 1817 2889 
Q 2016 3027 2259 3027 
Q 2483 3027 2630 2883 
Q 2778 2739 2778 2522 
Q 2778 2330 2666 2208 
Q 2554 2086 2374 2086 
Q 2138 2086 1990 2330 
Q 1901 2477 1811 2477 
Q 1645 2477 1533 2285 
Q 1421 2093 1421 1811 
L 1421 678 
Q 1421 371 1507 272 
Q 1594 173 1882 154 
L 1882 0 
L 186 0 
L 186 154 
Q 397 192 464 265 
Q 531 339 531 538 
L 531 2387 
Q 531 2611 460 2688 
Q 390 2765 179 2797 
L 179 2950 
L 1395 2950 
z
" transform="scale(0.015625)"/>
      <path id="STIXGeneral-Bold-63" d="M 2637 698 
L 2752 582 
Q 2490 224 2202 67 
Q 1914 -90 1530 -90 
Q 922 -90 541 326 
Q 160 742 160 1421 
Q 160 2125 595 2576 
Q 1030 3027 1677 3027 
Q 2099 3027 2380 2828 
Q 2662 2630 2662 2323 
Q 2662 2138 2544 2026 
Q 2426 1914 2227 1914 
Q 2061 1914 1965 2035 
Q 1869 2157 1869 2381 
Q 1869 2496 1865 2547 
Q 1862 2598 1849 2665 
Q 1837 2733 1811 2761 
Q 1786 2790 1731 2809 
Q 1677 2829 1600 2829 
Q 1357 2829 1209 2544 
Q 1062 2259 1062 1747 
Q 1062 1094 1299 716 
Q 1536 339 1952 339 
Q 2323 339 2637 698 
z
" transform="scale(0.015625)"/>
      <path id="STIXGeneral-Bold-6c" d="M 1638 0 
L 102 0 
L 102 154 
Q 429 179 429 557 
L 429 3757 
Q 429 4147 96 4173 
L 96 4326 
L 1318 4326 
L 1318 557 
Q 1318 346 1395 253 
Q 1472 160 1638 154 
L 1638 0 
z
" transform="scale(0.015625)"/>
      <path id="STIXGeneral-Bold-65" d="M 2579 806 
L 2733 717 
Q 2451 269 2166 89 
Q 1882 -90 1466 -90 
Q 890 -90 525 342 
Q 160 774 160 1434 
Q 160 2150 528 2588 
Q 896 3027 1498 3027 
Q 2029 3027 2317 2707 
Q 2656 2336 2694 1568 
L 1082 1568 
Q 1101 1299 1133 1116 
Q 1165 934 1241 748 
Q 1318 563 1468 467 
Q 1619 371 1843 371 
Q 2048 371 2214 470 
Q 2381 570 2579 806 
z
M 1907 1805 
L 1907 1939 
Q 1907 2406 1850 2528 
Q 1773 2688 1699 2758 
Q 1626 2829 1498 2829 
Q 1267 2829 1158 2595 
Q 1050 2362 1050 1805 
L 1907 1805 
z
" transform="scale(0.015625)"/>
      <path id="STIXGeneral-Bold-20" transform="scale(0.015625)"/>
      <path id="STIXGeneral-Bold-46" d="M 3731 3034 
L 3578 3034 
Q 3514 3398 3437 3555 
Q 3360 3712 3194 3859 
Q 2906 4109 2150 4109 
Q 1907 4109 1804 4035 
Q 1702 3962 1702 3782 
L 1702 2323 
Q 2182 2323 2400 2531 
Q 2618 2739 2682 3277 
L 2842 3277 
L 2842 1114 
L 2682 1114 
Q 2637 1670 2419 1881 
Q 2202 2093 1702 2106 
L 1702 646 
Q 1702 371 1836 275 
Q 1971 179 2406 160 
L 2406 0 
L 102 0 
L 102 160 
Q 454 198 560 294 
Q 666 390 666 659 
L 666 3680 
Q 666 3955 550 4051 
Q 435 4147 102 4166 
L 102 4326 
L 3731 4326 
L 3731 3034 
z
" transform="scale(0.015625)"/>
      <path id="STIXGeneral-Bold-6f" d="M 3046 1466 
Q 3046 794 2633 352 
Q 2221 -90 1600 -90 
Q 992 -90 576 348 
Q 160 787 160 1459 
Q 160 2157 573 2592 
Q 986 3027 1626 3027 
Q 2234 3027 2640 2585 
Q 3046 2144 3046 1466 
z
M 2106 1395 
Q 2106 2214 1997 2521 
Q 1888 2829 1606 2829 
Q 1312 2829 1206 2525 
Q 1101 2221 1101 1395 
Q 1101 698 1216 403 
Q 1331 109 1606 109 
Q 1882 109 1994 393 
Q 2106 678 2106 1395 
z
" transform="scale(0.015625)"/>
      <path id="STIXGeneral-Bold-6d" d="M 5210 0 
L 3693 0 
L 3693 154 
Q 3872 166 3936 246 
Q 4000 326 4000 531 
L 4000 1990 
Q 4000 2598 3661 2598 
Q 3475 2598 3290 2438 
Q 3232 2394 3174 2323 
Q 3117 2253 3117 2227 
L 3117 531 
Q 3117 346 3181 259 
Q 3245 173 3411 154 
L 3411 0 
L 1926 0 
L 1926 154 
Q 2099 166 2163 249 
Q 2227 333 2227 531 
L 2227 2067 
Q 2227 2355 2147 2476 
Q 2067 2598 1882 2598 
Q 1760 2598 1552 2454 
Q 1344 2310 1344 2202 
L 1344 531 
Q 1344 346 1405 262 
Q 1466 179 1632 154 
L 1632 0 
L 102 0 
L 102 154 
Q 314 192 384 272 
Q 454 352 454 550 
L 454 2387 
Q 454 2611 384 2688 
Q 314 2765 96 2797 
L 96 2950 
L 1325 2950 
L 1325 2470 
L 1344 2470 
Q 1530 2765 1744 2896 
Q 1958 3027 2266 3027 
Q 2566 3027 2752 2899 
Q 2938 2771 3085 2470 
Q 3334 2778 3542 2902 
Q 3750 3027 4026 3027 
Q 4422 3027 4656 2784 
Q 4890 2541 4890 2118 
L 4890 531 
Q 4890 326 4957 243 
Q 5024 160 5210 154 
L 5210 0 
z
" transform="scale(0.015625)"/>
      <path id="STIXGeneral-Bold-61" d="M 3027 410 
L 3123 275 
Q 2784 -90 2406 -90 
Q 2170 -90 2051 9 
Q 1933 109 1882 352 
Q 1395 -90 864 -90 
Q 544 -90 352 80 
Q 160 250 160 589 
Q 160 1018 589 1306 
Q 909 1517 1875 1792 
L 1875 2227 
Q 1875 2541 1756 2681 
Q 1638 2822 1357 2822 
Q 1178 2822 1059 2758 
Q 941 2694 941 2586 
Q 941 2515 1011 2438 
Q 1133 2291 1133 2170 
Q 1133 2003 1011 1894 
Q 890 1786 698 1786 
Q 499 1786 390 1901 
Q 282 2016 282 2221 
Q 282 2598 618 2812 
Q 954 3027 1504 3027 
Q 2093 3027 2425 2803 
Q 2758 2579 2758 2170 
L 2758 499 
Q 2758 320 2893 320 
Q 2938 320 2963 346 
L 3027 410 
z
M 1875 621 
L 1875 1568 
Q 1094 1350 1094 794 
Q 1094 589 1187 477 
Q 1280 365 1427 365 
Q 1696 365 1875 621 
z
" transform="scale(0.015625)"/>
      <path id="STIXGeneral-Bold-74" d="M 1965 717 
L 2125 646 
Q 1926 250 1712 86 
Q 1498 -77 1178 -77 
Q 845 -77 653 105 
Q 461 288 461 608 
L 461 2669 
L 122 2669 
L 122 2842 
Q 435 3053 646 3299 
Q 858 3546 1190 4032 
L 1350 4032 
L 1350 2950 
L 1958 2950 
L 1958 2669 
L 1350 2669 
L 1350 762 
Q 1350 378 1600 378 
Q 1786 378 1965 717 
z
" transform="scale(0.015625)"/>
      <path id="STIXGeneral-Bold-6e" d="M 3450 0 
L 1952 0 
L 1952 154 
Q 2112 173 2179 259 
Q 2246 346 2246 538 
L 2246 2054 
Q 2246 2598 1920 2598 
Q 1690 2598 1472 2381 
Q 1363 2272 1363 2227 
L 1363 538 
Q 1363 352 1430 265 
Q 1498 179 1670 154 
L 1670 0 
L 134 0 
L 134 154 
Q 346 198 410 275 
Q 474 352 474 557 
L 474 2406 
Q 474 2611 410 2688 
Q 346 2765 134 2797 
L 134 2950 
L 1357 2950 
L 1357 2470 
L 1363 2470 
Q 1677 3027 2272 3027 
Q 2669 3027 2902 2780 
Q 3136 2534 3136 2118 
L 3136 538 
Q 3136 320 3200 243 
Q 3264 166 3450 154 
L 3450 0 
z
" transform="scale(0.015625)"/>
     </defs>
     <use xlink:href="#STIXGeneral-Bold-43"/>
     <use xlink:href="#STIXGeneral-Bold-69" transform="translate(72.199982 0)"/>
     <use xlink:href="#STIXGeneral-Bold-72" transform="translate(99.999969 0)"/>
     <use xlink:href="#STIXGeneral-Bold-63" transform="translate(144.399963 0)"/>
     <use xlink:href="#STIXGeneral-Bold-6c" transform="translate(188.799957 0)"/>
     <use xlink:href="#STIXGeneral-Bold-65" transform="translate(216.599945 0)"/>
     <use xlink:href="#STIXGeneral-Bold-20" transform="translate(260.999939 0)"/>
     <use xlink:href="#STIXGeneral-Bold-46" transform="translate(285.999924 0)"/>
     <use xlink:href="#STIXGeneral-Bold-6f" transform="translate(347.099915 0)"/>
     <use xlink:href="#STIXGeneral-Bold-72" transform="translate(397.099899 0)"/>
     <use xlink:href="#STIXGeneral-Bold-6d" transform="translate(441.499893 0)"/>
     <use xlink:href="#STIXGeneral-Bold-61" transform="translate(524.799881 0)"/>
     <use xlink:href="#STIXGeneral-Bold-74" transform="translate(574.799866 0)"/>
     <use xlink:href="#STIXGeneral-Bold-69" transform="translate(608.099854 0)"/>
     <use xlink:href="#STIXGeneral-Bold-6f" transform="translate(635.899841 0)"/>
     <use xlink:href="#STIXGeneral-Bold-6e" transform="translate(685.899826 0)"/>
    </g>
   </g>
  </g>
  <g id="axes_2">
   <g id="patch_5">
    <path d="M 435.14 255.571094 
L 813.405 255.571094 
L 813.405 23.001094 
L 435.14 23.001094 
z
" style="fill: #fcfcfd"/>
   </g>
   <g id="matplotlib.axis_3">
    <g id="xtick_10">
     <g id="line2d_32">
      <path d="M 452.333864 255.571094 
L 452.333864 23.001094 
" clip-path="url(#p9df47b997c)" style="fill: none; stroke-dasharray: 0.7,1.155; stroke-dashoffset: 0; stroke: #cbd5e1; stroke-opacity: 0.35; stroke-width: 0.7"/>
     </g>
     <g id="line2d_33">
      <g>
       <use xlink:href="#m1cb0b935d7" x="452.333864" y="255.571094" style="fill: #334155; stroke: #334155; stroke-width: 0.8"/>
      </g>
     </g>
     <g id="text_18">
      <!-- 4 -->
      <g style="fill: #334155" transform="translate(449.708864 269.742266) scale(0.105 -0.105)">
       <use xlink:href="#STIXGeneral-Regular-34"/>
      </g>
     </g>
    </g>
    <g id="xtick_11">
     <g id="line2d_34">
      <path d="M 495.318523 255.571094 
L 495.318523 23.001094 
" clip-path="url(#p9df47b997c)" style="fill: none; stroke-dasharray: 0.7,1.155; stroke-dashoffset: 0; stroke: #cbd5e1; stroke-opacity: 0.35; stroke-width: 0.7"/>
     </g>
     <g id="line2d_35">
      <g>
       <use xlink:href="#m1cb0b935d7" x="495.318523" y="255.571094" style="fill: #334155; stroke: #334155; stroke-width: 0.8"/>
      </g>
     </g>
     <g id="text_19">
      <!-- 5 -->
      <g style="fill: #334155" transform="translate(492.693523 269.742266) scale(0.105 -0.105)">
       <use xlink:href="#STIXGeneral-Regular-35"/>
      </g>
     </g>
    </g>
    <g id="xtick_12">
     <g id="line2d_36">
      <path d="M 538.303182 255.571094 
L 538.303182 23.001094 
" clip-path="url(#p9df47b997c)" style="fill: none; stroke-dasharray: 0.7,1.155; stroke-dashoffset: 0; stroke: #cbd5e1; stroke-opacity: 0.35; stroke-width: 0.7"/>
     </g>
     <g id="line2d_37">
      <g>
       <use xlink:href="#m1cb0b935d7" x="538.303182" y="255.571094" style="fill: #334155; stroke: #334155; stroke-width: 0.8"/>
      </g>
     </g>
     <g id="text_20">
      <!-- 6 -->
      <g style="fill: #334155" transform="translate(535.678182 269.742266) scale(0.105 -0.105)">
       <use xlink:href="#STIXGeneral-Regular-36"/>
      </g>
     </g>
    </g>
    <g id="xtick_13">
     <g id="line2d_38">
      <path d="M 581.287841 255.571094 
L 581.287841 23.001094 
" clip-path="url(#p9df47b997c)" style="fill: none; stroke-dasharray: 0.7,1.155; stroke-dashoffset: 0; stroke: #cbd5e1; stroke-opacity: 0.35; stroke-width: 0.7"/>
     </g>
     <g id="line2d_39">
      <g>
       <use xlink:href="#m1cb0b935d7" x="581.287841" y="255.571094" style="fill: #334155; stroke: #334155; stroke-width: 0.8"/>
      </g>
     </g>
     <g id="text_21">
      <!-- 7 -->
      <g style="fill: #334155" transform="translate(578.662841 269.742266) scale(0.105 -0.105)">
       <use xlink:href="#STIXGeneral-Regular-37"/>
      </g>
     </g>
    </g>
    <g id="xtick_14">
     <g id="line2d_40">
      <path d="M 624.2725 255.571094 
L 624.2725 23.001094 
" clip-path="url(#p9df47b997c)" style="fill: none; stroke-dasharray: 0.7,1.155; stroke-dashoffset: 0; stroke: #cbd5e1; stroke-opacity: 0.35; stroke-width: 0.7"/>
     </g>
     <g id="line2d_41">
      <g>
       <use xlink:href="#m1cb0b935d7" x="624.2725" y="255.571094" style="fill: #334155; stroke: #334155; stroke-width: 0.8"/>
      </g>
     </g>
     <g id="text_22">
      <!-- 8 -->
      <g style="fill: #334155" transform="translate(621.6475 269.742266) scale(0.105 -0.105)">
       <use xlink:href="#STIXGeneral-Regular-38"/>
      </g>
     </g>
    </g>
    <g id="xtick_15">
     <g id="line2d_42">
      <path d="M 667.257159 255.571094 
L 667.257159 23.001094 
" clip-path="url(#p9df47b997c)" style="fill: none; stroke-dasharray: 0.7,1.155; stroke-dashoffset: 0; stroke: #cbd5e1; stroke-opacity: 0.35; stroke-width: 0.7"/>
     </g>
     <g id="line2d_43">
      <g>
       <use xlink:href="#m1cb0b935d7" x="667.257159" y="255.571094" style="fill: #334155; stroke: #334155; stroke-width: 0.8"/>
      </g>
     </g>
     <g id="text_23">
      <!-- 9 -->
      <g style="fill: #334155" transform="translate(664.632159 269.742266) scale(0.105 -0.105)">
       <use xlink:href="#STIXGeneral-Regular-39"/>
      </g>
     </g>
    </g>
    <g id="xtick_16">
     <g id="line2d_44">
      <path d="M 710.241818 255.571094 
L 710.241818 23.001094 
" clip-path="url(#p9df47b997c)" style="fill: none; stroke-dasharray: 0.7,1.155; stroke-dashoffset: 0; stroke: #cbd5e1; stroke-opacity: 0.35; stroke-width: 0.7"/>
     </g>
     <g id="line2d_45">
      <g>
       <use xlink:href="#m1cb0b935d7" x="710.241818" y="255.571094" style="fill: #334155; stroke: #334155; stroke-width: 0.8"/>
      </g>
     </g>
     <g id="text_24">
      <!-- 10 -->
      <g style="fill: #334155" transform="translate(704.991818 269.742266) scale(0.105 -0.105)">
       <use xlink:href="#STIXGeneral-Regular-31"/>
       <use xlink:href="#STIXGeneral-Regular-30" transform="translate(49.999985 0)"/>
      </g>
     </g>
    </g>
    <g id="xtick_17">
     <g id="line2d_46">
      <path d="M 753.226477 255.571094 
L 753.226477 23.001094 
" clip-path="url(#p9df47b997c)" style="fill: none; stroke-dasharray: 0.7,1.155; stroke-dashoffset: 0; stroke: #cbd5e1; stroke-opacity: 0.35; stroke-width: 0.7"/>
     </g>
     <g id="line2d_47">
      <g>
       <use xlink:href="#m1cb0b935d7" x="753.226477" y="255.571094" style="fill: #334155; stroke: #334155; stroke-width: 0.8"/>
      </g>
     </g>
     <g id="text_25">
      <!-- 11 -->
      <g style="fill: #334155" transform="translate(747.976477 269.742266) scale(0.105 -0.105)">
       <use xlink:href="#STIXGeneral-Regular-31"/>
       <use xlink:href="#STIXGeneral-Regular-31" transform="translate(49.999985 0)"/>
      </g>
     </g>
    </g>
    <g id="xtick_18">
     <g id="line2d_48">
      <path d="M 796.211136 255.571094 
L 796.211136 23.001094 
" clip-path="url(#p9df47b997c)" style="fill: none; stroke-dasharray: 0.7,1.155; stroke-dashoffset: 0; stroke: #cbd5e1; stroke-opacity: 0.35; stroke-width: 0.7"/>
     </g>
     <g id="line2d_49">
      <g>
       <use xlink:href="#m1cb0b935d7" x="796.211136" y="255.571094" style="fill: #334155; stroke: #334155; stroke-width: 0.8"/>
      </g>
     </g>
     <g id="text_26">
      <!-- 12 -->
      <g style="fill: #334155" transform="translate(790.961136 269.742266) scale(0.105 -0.105)">
       <use xlink:href="#STIXGeneral-Regular-31"/>
       <use xlink:href="#STIXGeneral-Regular-32" transform="translate(49.999985 0)"/>
      </g>
     </g>
    </g>
    <g id="text_27">
     <!-- Number of UAVs -->
     <g style="fill: #0f172a" transform="translate(579.490273 284.558203) scale(0.125 -0.125)">
      <use xlink:href="#STIXGeneral-Regular-4e"/>
      <use xlink:href="#STIXGeneral-Regular-75" transform="translate(72.199982 0)"/>
      <use xlink:href="#STIXGeneral-Regular-6d" transform="translate(122.199966 0)"/>
      <use xlink:href="#STIXGeneral-Regular-62" transform="translate(199.999954 0)"/>
      <use xlink:href="#STIXGeneral-Regular-65" transform="translate(249.999939 0)"/>
      <use xlink:href="#STIXGeneral-Regular-72" transform="translate(294.399933 0)"/>
      <use xlink:href="#STIXGeneral-Regular-20" transform="translate(327.699921 0)"/>
      <use xlink:href="#STIXGeneral-Regular-6f" transform="translate(352.699905 0)"/>
      <use xlink:href="#STIXGeneral-Regular-66" transform="translate(402.69989 0)"/>
      <use xlink:href="#STIXGeneral-Regular-20" transform="translate(435.999878 0)"/>
      <use xlink:href="#STIXGeneral-Regular-55" transform="translate(460.999863 0)"/>
      <use xlink:href="#STIXGeneral-Regular-41" transform="translate(533.199844 0)"/>
      <use xlink:href="#STIXGeneral-Regular-56" transform="translate(605.399826 0)"/>
      <use xlink:href="#STIXGeneral-Regular-73" transform="translate(677.599808 0)"/>
     </g>
    </g>
   </g>
   <g id="matplotlib.axis_4">
    <g id="ytick_6">
     <g id="line2d_50">
      <path d="M 435.14 223.049098 
L 813.405 223.049098 
" clip-path="url(#p9df47b997c)" style="fill: none; stroke-dasharray: 0.7,1.155; stroke-dashoffset: 0; stroke: #cbd5e1; stroke-opacity: 0.35; stroke-width: 0.7"/>
     </g>
     <g id="line2d_51">
      <g>
       <use xlink:href="#m94f8fc52fa" x="435.14" y="223.049098" style="fill: #334155; stroke: #334155; stroke-width: 0.8"/>
      </g>
     </g>
    </g>
    <g id="ytick_7">
     <g id="line2d_52">
      <path d="M 435.14 179.113491 
L 813.405 179.113491 
" clip-path="url(#p9df47b997c)" style="fill: none; stroke-dasharray: 0.7,1.155; stroke-dashoffset: 0; stroke: #cbd5e1; stroke-opacity: 0.35; stroke-width: 0.7"/>
     </g>
     <g id="line2d_53">
      <g>
       <use xlink:href="#m94f8fc52fa" x="435.14" y="179.113491" style="fill: #334155; stroke: #334155; stroke-width: 0.8"/>
      </g>
     </g>
    </g>
    <g id="ytick_8">
     <g id="line2d_54">
      <path d="M 435.14 135.177883 
L 813.405 135.177883 
" clip-path="url(#p9df47b997c)" style="fill: none; stroke-dasharray: 0.7,1.155; stroke-dashoffset: 0; stroke: #cbd5e1; stroke-opacity: 0.35; stroke-width: 0.7"/>
     </g>
     <g id="line2d_55">
      <g>
       <use xlink:href="#m94f8fc52fa" x="435.14" y="135.177883" style="fill: #334155; stroke: #334155; stroke-width: 0.8"/>
      </g>
     </g>
    </g>
    <g id="ytick_9">
     <g id="line2d_56">
      <path d="M 435.14 91.242276 
L 813.405 91.242276 
" clip-path="url(#p9df47b997c)" style="fill: none; stroke-dasharray: 0.7,1.155; stroke-dashoffset: 0; stroke: #cbd5e1; stroke-opacity: 0.35; stroke-width: 0.7"/>
     </g>
     <g id="line2d_57">
      <g>
       <use xlink:href="#m94f8fc52fa" x="435.14" y="91.242276" style="fill: #334155; stroke: #334155; stroke-width: 0.8"/>
      </g>
     </g>
    </g>
    <g id="ytick_10">
     <g id="line2d_58">
      <path d="M 435.14 47.306669 
L 813.405 47.306669 
" clip-path="url(#p9df47b997c)" style="fill: none; stroke-dasharray: 0.7,1.155; stroke-dashoffset: 0; stroke: #cbd5e1; stroke-opacity: 0.35; stroke-width: 0.7"/>
     </g>
     <g id="line2d_59">
      <g>
       <use xlink:href="#m94f8fc52fa" x="435.14" y="47.306669" style="fill: #334155; stroke: #334155; stroke-width: 0.8"/>
      </g>
     </g>
    </g>
   </g>
   <g id="line2d_60">
    <path d="M 452.333864 176.084474 
L 538.303182 82.041525 
L 624.2725 153.865665 
L 710.241818 33.572457 
L 796.211136 168.135488 
" clip-path="url(#p9df47b997c)" style="fill: none; stroke: #7f7f7f; stroke-width: 2; stroke-linecap: square"/>
    <g clip-path="url(#p9df47b997c)">
     <use xlink:href="#md453178542" x="452.333864" y="176.084474" style="fill: #7f7f7f; stroke: #7f7f7f"/>
     <use xlink:href="#md453178542" x="538.303182" y="82.041525" style="fill: #7f7f7f; stroke: #7f7f7f"/>
     <use xlink:href="#md453178542" x="624.2725" y="153.865665" style="fill: #7f7f7f; stroke: #7f7f7f"/>
     <use xlink:href="#md453178542" x="710.241818" y="33.572457" style="fill: #7f7f7f; stroke: #7f7f7f"/>
     <use xlink:href="#md453178542" x="796.211136" y="168.135488" style="fill: #7f7f7f; stroke: #7f7f7f"/>
    </g>
   </g>
   <g id="line2d_61">
    <path d="M 452.333864 203.530298 
L 538.303182 216.298758 
L 624.2725 230.262859 
L 710.241818 231.391435 
L 796.211136 234.588734 
" clip-path="url(#p9df47b997c)" style="fill: none; stroke: #2ca02c; stroke-width: 2; stroke-linecap: square"/>
    <g clip-path="url(#p9df47b997c)">
     <use xlink:href="#mc02e053199" x="452.333864" y="203.530298" style="fill: #2ca02c; stroke: #2ca02c"/>
     <use xlink:href="#mc02e053199" x="538.303182" y="216.298758" style="fill: #2ca02c; stroke: #2ca02c"/>
     <use xlink:href="#mc02e053199" x="624.2725" y="230.262859" style="fill: #2ca02c; stroke: #2ca02c"/>
     <use xlink:href="#mc02e053199" x="710.241818" y="231.391435" style="fill: #2ca02c; stroke: #2ca02c"/>
     <use xlink:href="#mc02e053199" x="796.211136" y="234.588734" style="fill: #2ca02c; stroke: #2ca02c"/>
    </g>
   </g>
   <g id="line2d_62">
    <path d="M 452.333864 206.09592 
L 538.303182 221.415686 
L 624.2725 225.564927 
L 710.241818 229.312061 
L 796.211136 230.168438 
" clip-path="url(#p9df47b997c)" style="fill: none; stroke: #ff7f0e; stroke-width: 2; stroke-linecap: square"/>
    <g clip-path="url(#p9df47b997c)">
     <use xlink:href="#m18b48e44b6" x="452.333864" y="206.09592" style="fill: #ff7f0e; stroke: #ff7f0e"/>
     <use xlink:href="#m18b48e44b6" x="538.303182" y="221.415686" style="fill: #ff7f0e; stroke: #ff7f0e"/>
     <use xlink:href="#m18b48e44b6" x="624.2725" y="225.564927" style="fill: #ff7f0e; stroke: #ff7f0e"/>
     <use xlink:href="#m18b48e44b6" x="710.241818" y="229.312061" style="fill: #ff7f0e; stroke: #ff7f0e"/>
     <use xlink:href="#m18b48e44b6" x="796.211136" y="230.168438" style="fill: #ff7f0e; stroke: #ff7f0e"/>
    </g>
   </g>
   <g id="patch_6">
    <path d="M 435.14 255.571094 
L 435.14 23.001094 
" style="fill: none; stroke: #cbd5e1; stroke-linejoin: miter; stroke-linecap: square"/>
   </g>
   <g id="patch_7">
    <path d="M 435.14 255.571094 
L 813.405 255.571094 
" style="fill: none; stroke: #cbd5e1; stroke-linejoin: miter; stroke-linecap: square"/>
   </g>
   <g id="text_28">
    <!-- Random Formation -->
    <g style="fill: #0f172a" transform="translate(562.852539 17.001094) scale(0.145 -0.145)">
     <defs>
      <path id="STIXGeneral-Bold-52" d="M 4582 0 
L 3270 0 
L 1946 2003 
L 1766 2003 
L 1766 749 
Q 1766 403 1859 307 
Q 1952 211 2330 160 
L 2330 0 
L 166 0 
L 166 160 
Q 544 205 637 301 
Q 730 397 730 768 
L 730 3526 
Q 730 3904 624 4022 
Q 518 4141 166 4166 
L 166 4326 
L 2138 4326 
Q 4032 4326 4032 3226 
Q 4032 2739 3744 2470 
Q 3475 2227 3027 2106 
L 4301 301 
Q 4397 160 4582 160 
L 4582 0 
z
M 1766 3821 
L 1766 2208 
Q 2426 2214 2682 2406 
Q 2938 2598 2938 3162 
Q 2938 3667 2746 3888 
Q 2554 4109 2106 4109 
Q 1920 4109 1843 4045 
Q 1766 3981 1766 3821 
z
" transform="scale(0.015625)"/>
      <path id="STIXGeneral-Bold-64" d="M 3418 128 
L 3021 77 
Q 2496 6 2170 -83 
L 2170 333 
Q 1946 96 1760 3 
Q 1574 -90 1318 -90 
Q 813 -90 486 332 
Q 160 755 160 1414 
Q 160 2112 509 2569 
Q 858 3027 1389 3027 
Q 1606 3027 1776 2940 
Q 1946 2854 2150 2630 
L 2150 3802 
Q 2150 4026 2067 4086 
Q 1984 4147 1664 4173 
L 1664 4326 
L 3040 4326 
L 3040 646 
Q 3040 442 3120 365 
Q 3200 288 3418 275 
L 3418 128 
z
M 2150 717 
L 2150 2272 
Q 2080 2458 1945 2563 
Q 1811 2669 1651 2669 
Q 1107 2669 1107 1466 
Q 1107 269 1606 269 
Q 1837 269 2029 506 
Q 2150 666 2150 717 
z
" transform="scale(0.015625)"/>
     </defs>
     <use xlink:href="#STIXGeneral-Bold-52"/>
     <use xlink:href="#STIXGeneral-Bold-61" transform="translate(72.199982 0)"/>
     <use xlink:href="#STIXGeneral-Bold-6e" transform="translate(122.199966 0)"/>
     <use xlink:href="#STIXGeneral-Bold-64" transform="translate(177.799957 0)"/>
     <use xlink:href="#STIXGeneral-Bold-6f" transform="translate(233.399948 0)"/>
     <use xlink:href="#STIXGeneral-Bold-6d" transform="translate(283.399933 0)"/>
     <use xlink:href="#STIXGeneral-Bold-20" transform="translate(366.699921 0)"/>
     <use xlink:href="#STIXGeneral-Bold-46" transform="translate(391.699905 0)"/>
     <use xlink:href="#STIXGeneral-Bold-6f" transform="translate(452.799896 0)"/>
     <use xlink:href="#STIXGeneral-Bold-72" transform="translate(502.799881 0)"/>
     <use xlink:href="#STIXGeneral-Bold-6d" transform="translate(547.199875 0)"/>
     <use xlink:href="#STIXGeneral-Bold-61" transform="translate(630.499863 0)"/>
     <use xlink:href="#STIXGeneral-Bold-74" transform="translate(680.499847 0)"/>
     <use xlink:href="#STIXGeneral-Bold-69" transform="translate(713.799835 0)"/>
     <use xlink:href="#STIXGeneral-Bold-6f" transform="translate(741.599823 0)"/>
     <use xlink:href="#STIXGeneral-Bold-6e" transform="translate(791.599808 0)"/>
    </g>
   </g>
   <g id="legend_1">
    <g id="line2d_63">
     <path d="M 727.8825 36.126094 
L 738.3825 36.126094 
L 748.8825 36.126094 
" style="fill: none; stroke: #7f7f7f; stroke-width: 2; stroke-linecap: square"/>
     <g>
      <use xlink:href="#md453178542" x="738.3825" y="36.126094" style="fill: #7f7f7f; stroke: #7f7f7f"/>
     </g>
    </g>
    <g id="text_29">
     <!-- LS -->
     <g style="fill: #0f172a" transform="translate(757.2825 39.801094) scale(0.105 -0.105)">
      <defs>
       <path id="STIXGeneral-Regular-4c" d="M 3827 1114 
L 3520 0 
L 77 0 
L 77 122 
Q 429 141 531 256 
Q 634 371 634 736 
L 634 3494 
Q 634 3872 541 3981 
Q 448 4090 77 4115 
L 77 4237 
L 1888 4237 
L 1888 4115 
Q 1498 4090 1392 3984 
Q 1286 3878 1286 3507 
L 1286 538 
Q 1286 358 1398 304 
Q 1510 250 1862 250 
L 2310 250 
Q 3085 250 3392 640 
Q 3520 813 3661 1114 
L 3827 1114 
z
" transform="scale(0.015625)"/>
       <path id="STIXGeneral-Regular-53" d="M 3002 2963 
L 2842 2963 
Q 2733 3360 2579 3565 
Q 2189 4064 1651 4064 
Q 1357 4064 1181 3894 
Q 1005 3725 1005 3456 
Q 1005 3328 1069 3206 
Q 1133 3085 1206 2998 
Q 1280 2912 1465 2784 
Q 1651 2656 1766 2589 
Q 1882 2522 2150 2362 
Q 2669 2061 2905 1763 
Q 3142 1466 3142 1107 
Q 3142 576 2771 243 
Q 2400 -90 1837 -90 
Q 1421 -90 1082 58 
Q 915 128 781 128 
Q 704 128 653 70 
Q 602 13 602 -83 
L 461 -83 
L 275 1274 
L 416 1274 
Q 845 141 1734 141 
Q 2074 141 2285 342 
Q 2496 544 2496 858 
Q 2496 1158 2310 1363 
Q 2003 1696 1235 2106 
Q 454 2522 454 3206 
Q 454 3718 768 4022 
Q 1082 4326 1568 4326 
Q 1907 4326 2240 4186 
Q 2413 4109 2522 4109 
Q 2688 4109 2726 4326 
L 2861 4326 
L 3002 2963 
z
" transform="scale(0.015625)"/>
      </defs>
      <use xlink:href="#STIXGeneral-Regular-4c"/>
      <use xlink:href="#STIXGeneral-Regular-53" transform="translate(61.099991 0)"/>
     </g>
    </g>
    <g id="line2d_64">
     <path d="M 727.8825 51.004922 
L 738.3825 51.004922 
L 748.8825 51.004922 
" style="fill: none; stroke: #2ca02c; stroke-width: 2; stroke-linecap: square"/>
     <g>
      <use xlink:href="#mc02e053199" x="738.3825" y="51.004922" style="fill: #2ca02c; stroke: #2ca02c"/>
     </g>
    </g>
    <g id="text_30">
     <!-- Robust-BT -->
     <g style="fill: #0f172a" transform="translate(757.2825 54.679922) scale(0.105 -0.105)">
      <defs>
       <path id="STIXGeneral-Regular-52" d="M 4224 0 
L 3187 0 
L 1664 1971 
L 1306 1958 
L 1306 717 
Q 1306 352 1405 249 
Q 1504 147 1875 122 
L 1875 0 
L 109 0 
L 109 122 
Q 474 154 563 262 
Q 653 371 653 794 
L 653 3526 
Q 653 3885 563 3987 
Q 474 4090 109 4115 
L 109 4237 
L 1850 4237 
Q 2726 4237 3187 3859 
Q 3501 3603 3501 3091 
Q 3501 2221 2342 2042 
L 3622 422 
Q 3757 256 3878 198 
Q 4000 141 4224 122 
L 4224 0 
z
M 1306 3731 
L 1306 2195 
Q 1766 2202 1990 2246 
Q 2214 2291 2438 2413 
Q 2803 2618 2803 3142 
Q 2803 4000 1632 4000 
Q 1459 4000 1382 3945 
Q 1306 3891 1306 3731 
z
" transform="scale(0.015625)"/>
       <path id="STIXGeneral-Regular-74" d="M 1702 493 
L 1786 422 
Q 1478 -64 1011 -64 
Q 448 -64 448 749 
L 448 2675 
L 109 2675 
Q 83 2694 83 2720 
Q 83 2771 192 2842 
Q 435 2982 813 3526 
Q 826 3546 874 3606 
Q 922 3667 941 3706 
Q 986 3706 986 3622 
L 986 2880 
L 1632 2880 
L 1632 2675 
L 986 2675 
L 986 845 
Q 986 538 1062 403 
Q 1139 269 1318 269 
Q 1510 269 1702 493 
z
" transform="scale(0.015625)"/>
       <path id="STIXGeneral-Regular-2d" d="M 1824 1242 
L 250 1242 
L 250 1645 
L 1824 1645 
L 1824 1242 
z
" transform="scale(0.015625)"/>
       <path id="STIXGeneral-Regular-42" d="M 2701 2234 
L 2701 2227 
Q 3181 2150 3482 1875 
Q 3795 1594 3795 1139 
Q 3795 608 3379 304 
Q 2963 0 2266 0 
L 109 0 
L 109 122 
Q 486 134 604 246 
Q 723 358 723 723 
L 723 3520 
Q 723 3891 614 3990 
Q 506 4090 109 4115 
L 109 4237 
L 1901 4237 
Q 2726 4237 3152 3958 
Q 3578 3680 3578 3168 
Q 3578 2733 3315 2502 
Q 3130 2342 2701 2234 
z
M 1376 2342 
L 1965 2342 
Q 2925 2342 2925 3136 
Q 2925 3546 2640 3773 
Q 2355 4000 1792 4000 
L 1530 4000 
Q 1376 4000 1376 3795 
L 1376 2342 
z
M 1376 2086 
L 1376 525 
Q 1376 365 1462 301 
Q 1549 237 1773 237 
Q 2208 237 2413 285 
Q 2618 333 2816 512 
Q 3059 723 3059 1146 
Q 3059 1632 2758 1830 
Q 2688 1882 2617 1917 
Q 2547 1952 2492 1974 
Q 2438 1997 2348 2016 
Q 2259 2035 2211 2044 
Q 2163 2054 2041 2060 
Q 1920 2067 1862 2070 
Q 1805 2074 1635 2080 
Q 1466 2086 1376 2086 
z
" transform="scale(0.015625)"/>
       <path id="STIXGeneral-Regular-54" d="M 3795 3149 
L 3642 3149 
Q 3539 3674 3353 3821 
Q 3168 3968 2656 3968 
L 2278 3968 
L 2278 710 
Q 2278 346 2387 243 
Q 2496 141 2893 122 
L 2893 0 
L 1024 0 
L 1024 122 
Q 1427 147 1526 256 
Q 1626 365 1626 787 
L 1626 3968 
L 1242 3968 
Q 723 3968 540 3817 
Q 358 3667 262 3149 
L 109 3149 
L 154 4237 
L 3750 4237 
L 3795 3149 
z
" transform="scale(0.015625)"/>
      </defs>
      <use xlink:href="#STIXGeneral-Regular-52"/>
      <use xlink:href="#STIXGeneral-Regular-6f" transform="translate(66.699997 0)"/>
      <use xlink:href="#STIXGeneral-Regular-62" transform="translate(116.699982 0)"/>
      <use xlink:href="#STIXGeneral-Regular-75" transform="translate(166.699966 0)"/>
      <use xlink:href="#STIXGeneral-Regular-73" transform="translate(216.699951 0)"/>
      <use xlink:href="#STIXGeneral-Regular-74" transform="translate(255.599945 0)"/>
      <use xlink:href="#STIXGeneral-Regular-2d" transform="translate(283.399933 0)"/>
      <use xlink:href="#STIXGeneral-Regular-42" transform="translate(316.699921 0)"/>
      <use xlink:href="#STIXGeneral-Regular-54" transform="translate(383.399918 0)"/>
     </g>
    </g>
    <g id="line2d_65">
     <path d="M 727.8825 65.88375 
L 738.3825 65.88375 
L 748.8825 65.88375 
" style="fill: none; stroke: #ff7f0e; stroke-width: 2; stroke-linecap: square"/>
     <g>
      <use xlink:href="#m18b48e44b6" x="738.3825" y="65.88375" style="fill: #ff7f0e; stroke: #ff7f0e"/>
     </g>
    </g>
    <g id="text_31">
     <!-- PSO -->
     <g style="fill: #0f172a" transform="translate(757.2825 69.55875) scale(0.105 -0.105)">
      <defs>
       <path id="STIXGeneral-Regular-50" d="M 102 4237 
L 1760 4237 
Q 2669 4237 3149 3834 
Q 3469 3565 3469 3072 
Q 3469 2560 3104 2234 
Q 2835 1990 2553 1916 
Q 2272 1843 1734 1843 
Q 1549 1843 1293 1862 
L 1293 717 
Q 1293 352 1398 246 
Q 1504 141 1894 122 
L 1894 0 
L 102 0 
L 102 122 
Q 474 147 557 256 
Q 640 365 640 781 
L 640 3526 
Q 640 3885 547 3987 
Q 454 4090 102 4115 
L 102 4237 
z
M 1293 3770 
L 1293 2118 
Q 1510 2099 1683 2099 
Q 2202 2099 2486 2352 
Q 2771 2605 2771 3040 
Q 2771 3558 2476 3779 
Q 2182 4000 1517 4000 
Q 1382 4000 1337 3952 
Q 1293 3904 1293 3770 
z
" transform="scale(0.015625)"/>
       <path id="STIXGeneral-Regular-4f" d="M 4403 2118 
Q 4403 1133 3820 521 
Q 3238 -90 2310 -90 
Q 1376 -90 797 524 
Q 218 1139 218 2138 
Q 218 3110 797 3718 
Q 1376 4326 2310 4326 
Q 3245 4326 3824 3702 
Q 4403 3078 4403 2118 
z
M 3674 2157 
Q 3674 2701 3520 3133 
Q 3366 3565 3091 3795 
Q 2733 4096 2304 4096 
Q 1760 4096 1389 3667 
Q 1184 3437 1065 3011 
Q 947 2586 947 2125 
Q 947 960 1523 429 
Q 1837 141 2317 141 
Q 2816 141 3142 448 
Q 3674 960 3674 2157 
z
" transform="scale(0.015625)"/>
      </defs>
      <use xlink:href="#STIXGeneral-Regular-50"/>
      <use xlink:href="#STIXGeneral-Regular-53" transform="translate(55.699997 0)"/>
      <use xlink:href="#STIXGeneral-Regular-4f" transform="translate(111.299988 0)"/>
     </g>
    </g>
   </g>
  </g>
 </g>
 <defs>
  <clipPath id="p155d28e037">
   <rect x="42.575" y="23.001094" width="378.265" height="232.57"/>
  </clipPath>
  <clipPath id="p9df47b997c">
   <rect x="435.14" y="23.001094" width="378.265" height="232.57"/>
  </clipPath>
 </defs>
</svg>
