<?xml version="1.0" encoding="utf-8" standalone="no"?>
<!DOCTYPE svg PUBLIC "-//W3C//DTD SVG 1.1//EN"
  "http://www.w3.org/Graphics/SVG/1.1/DTD/svg11.dtd">
<svg xmlns:xlink="http://www.w3.org/1999/xlink" width="888.1398pt" height="338.4pt" viewBox="0 0 888.1398 338.4" xmlns="http://www.w3.org/2000/svg" version="1.1">
 <metadata>
  <rdf:RDF xmlns:dc="http://purl.org/dc/elements/1.1/" xmlns:cc="http://creativecommons.org/ns#" xmlns:rdf="http://www.w3.org/1999/02/22-rdf-syntax-ns#">
   <cc:Work>
    <dc:type rdf:resource="http://purl.org/dc/dcmitype/StillImage"/>
    <dc:date>2026-04-20T12:20:07.261722</dc:date>
    <dc:format>image/svg+xml</dc:format>
    <dc:creator>
     <cc:Agent>
      <dc:title>Matplotlib v3.10.8, https://matplotlib.org/</dc:title>
     </cc:Agent>
    </dc:creator>
   </cc:Work>
  </rdf:RDF>
 </metadata>
 <defs>
  <style type="text/css">*{stroke-linejoin: round; stroke-linecap: butt}</style>
 </defs>
 <g id="figure_1">
  <g id="patch_1">
   <path d="M -0 338.4 
L 888.1398 338.4 
L 888.1398 0 
L -0 0 
z
" style="fill: #ffffff"/>
  </g>
  <g id="axes_1">
   <g id="patch_2">
    <path d="M 37.780893 227.52 
L 151.367067 227.52 
Q 173.210562 227.52 173.210562 219.42 
L 173.210562 131.94 
Q 173.210562 123.84 151.367067 123.84 
L 37.780893 123.84 
Q 15.937398 123.84 15.937398 131.94 
L 15.937398 219.42 
Q 15.937398 227.52 37.780893 227.52 
z
" clip-path="url(#p35f4bf6a36)" style="fill: #e0f2fe; stroke: #0369a1; stroke-width: 1.2; stroke-linejoin: miter"/>
   </g>
   <g id="patch_3">
    <path d="M 195.054057 227.52 
L 317.377629 227.52 
Q 339.221124 227.52 339.221124 219.42 
L 339.221124 131.94 
Q 339.221124 123.84 317.377629 123.84 
L 195.054057 123.84 
Q 173.210562 123.84 173.210562 131.94 
L 173.210562 219.42 
Q 173.210562 227.52 195.054057 227.52 
z
" clip-path="url(#p35f4bf6a36)" style="fill: #dbeafe; stroke: #2563eb; stroke-width: 1.2; stroke-linejoin: miter"/>
   </g>
   <g id="patch_4">
    <path d="M 361.064619 227.52 
L 492.125589 227.52 
Q 513.969084 227.52 513.969084 219.42 
L 513.969084 131.94 
Q 513.969084 123.84 492.125589 123.84 
L 361.064619 123.84 
Q 339.221124 123.84 339.221124 131.94 
L 339.221124 219.42 
Q 339.221124 227.52 361.064619 227.52 
z
" clip-path="url(#p35f4bf6a36)" style="fill: #dcfce7; stroke: #15803d; stroke-width: 1.2; stroke-linejoin: miter"/>
   </g>
   <g id="patch_5">
    <path d="M 535.812579 143.28 
L 675.610947 143.28 
Q 697.454442 143.28 697.454442 135.18 
L 697.454442 73.62 
Q 697.454442 65.52 675.610947 65.52 
L 535.812579 65.52 
Q 513.969084 65.52 513.969084 73.62 
L 513.969084 135.18 
Q 513.969084 143.28 535.812579 143.28 
z
" clip-path="url(#p35f4bf6a36)" style="fill: #fef3c7; stroke: #b45309; stroke-width: 1.2; stroke-linejoin: miter"/>
   </g>
   <g id="patch_6">
    <path d="M 535.812579 292.32 
L 675.610947 292.32 
Q 697.454442 292.32 697.454442 284.22 
L 697.454442 222.66 
Q 697.454442 214.56 675.610947 214.56 
L 535.812579 214.56 
Q 513.969084 214.56 513.969084 222.66 
L 513.969084 284.22 
Q 513.969084 292.32 535.812579 292.32 
z
" clip-path="url(#p35f4bf6a36)" style="fill: #e5e7eb; stroke: #6b7280; stroke-width: 1.2; stroke-linejoin: miter"/>
   </g>
   <g id="patch_7">
    <path d="M 719.297937 156.24 
L 850.358907 156.24 
Q 872.202402 156.24 872.202402 148.14 
L 872.202402 73.62 
Q 872.202402 65.52 850.358907 65.52 
L 719.297937 65.52 
Q 697.454442 65.52 697.454442 73.62 
L 697.454442 148.14 
Q 697.454442 156.24 719.297937 156.24 
z
" clip-path="url(#p35f4bf6a36)" style="fill: #fce7f3; stroke: #be185d; stroke-width: 1.2; stroke-linejoin: miter"/>
   </g>
   <g id="patch_8">
    <path d="M 719.297937 292.32 
L 850.358907 292.32 
Q 872.202402 292.32 872.202402 284.22 
L 872.202402 216.18 
Q 872.202402 208.08 850.358907 208.08 
L 719.297937 208.08 
Q 697.454442 208.08 697.454442 216.18 
L 697.454442 284.22 
Q 697.454442 292.32 719.297937 292.32 
z
" clip-path="url(#p35f4bf6a36)" style="fill: #fde68a; stroke: #a16207; stroke-width: 1.2; stroke-linejoin: miter"/>
   </g>
   <g id="patch_9">
    <path d="M 159.733296 175.68 
Q 173.208703 175.68 184.895254 175.68 
" clip-path="url(#p35f4bf6a36)" style="fill: none; stroke: #475569; stroke-width: 1.6; stroke-linecap: round"/>
    <path d="M 180.095254 173.28 
L 184.895254 175.68 
L 180.095254 178.08 
z
" clip-path="url(#p35f4bf6a36)" style="fill: #475569; stroke: #475569; stroke-width: 1.6; stroke-linecap: round"/>
   </g>
   <g id="patch_10">
    <path d="M 325.743858 175.68 
Q 339.219265 175.68 350.905816 175.68 
" clip-path="url(#p35f4bf6a36)" style="fill: none; stroke: #475569; stroke-width: 1.6; stroke-linecap: round"/>
    <path d="M 346.105816 173.28 
L 350.905816 175.68 
L 346.105816 178.08 
z
" clip-path="url(#p35f4bf6a36)" style="fill: #475569; stroke: #475569; stroke-width: 1.6; stroke-linecap: round"/>
   </g>
   <g id="patch_11">
    <path d="M 498.394928 172.156025 
Q 513.970336 143.277679 528.696569 115.973785 
" clip-path="url(#p35f4bf6a36)" style="fill: none; stroke: #475569; stroke-width: 1.6; stroke-linecap: round"/>
    <path d="M 524.305645 119.0592 
L 528.696569 115.973785 
L 528.530346 121.337774 
z
" clip-path="url(#p35f4bf6a36)" style="fill: #475569; stroke: #475569; stroke-width: 1.6; stroke-linecap: round"/>
   </g>
   <g id="patch_12">
    <path d="M 498.133617 179.327373 
Q 513.968394 214.558464 529.069828 248.157927 
" clip-path="url(#p35f4bf6a36)" style="fill: none; stroke: #475569; stroke-width: 1.6; stroke-linecap: round"/>
    <path d="M 529.291122 242.795929 
L 529.069828 248.157927 
L 524.913005 244.763693 
z
" clip-path="url(#p35f4bf6a36)" style="fill: #475569; stroke: #475569; stroke-width: 1.6; stroke-linecap: round"/>
   </g>
   <g id="patch_13">
    <path d="M 683.977176 110.88 
Q 697.452583 110.88 709.139134 110.88 
" clip-path="url(#p35f4bf6a36)" style="fill: none; stroke: #475569; stroke-width: 1.6; stroke-linecap: round"/>
    <path d="M 704.339134 108.48 
L 709.139134 110.88 
L 704.339134 113.28 
z
" clip-path="url(#p35f4bf6a36)" style="fill: #475569; stroke: #475569; stroke-width: 1.6; stroke-linecap: round"/>
   </g>
   <g id="patch_14">
    <path d="M 683.977176 253.44 
Q 697.452583 253.44 709.139134 253.44 
" clip-path="url(#p35f4bf6a36)" style="fill: none; stroke: #475569; stroke-width: 1.6; stroke-linecap: round"/>
    <path d="M 704.339134 251.04 
L 709.139134 253.44 
L 704.339134 255.84 
z
" clip-path="url(#p35f4bf6a36)" style="fill: #475569; stroke: #475569; stroke-width: 1.6; stroke-linecap: round"/>
   </g>
   <g id="patch_15">
    <path d="M 784.828422 153.758584 
Q 784.828422 182.160906 784.828422 208.774373 
" clip-path="url(#p35f4bf6a36)" style="fill: none; stroke: #a16207; stroke-width: 1.6; stroke-linecap: round"/>
    <path d="M 787.228422 203.974373 
L 784.828422 208.774373 
L 782.428422 203.974373 
z
" clip-path="url(#p35f4bf6a36)" style="fill: #a16207; stroke: #a16207; stroke-width: 1.6; stroke-linecap: round"/>
   </g>
   <g id="text_1">
    <!-- Current-cycle bearings -->
    <g style="fill: #0f172a" transform="translate(48.89273 172.992773) scale(0.1 -0.1)">
     <defs>
      <path id="STIXGeneral-Regular-43" d="M 3930 838 
L 4051 723 
Q 3482 -90 2304 -90 
Q 1376 -90 794 480 
Q 179 1082 179 2080 
Q 179 3014 755 3661 
Q 1357 4326 2310 4326 
Q 2720 4326 3072 4230 
Q 3475 4115 3514 4115 
Q 3725 4115 3782 4326 
L 3910 4326 
L 3968 2874 
L 3821 2874 
Q 3718 3334 3488 3584 
Q 3034 4070 2458 4070 
Q 1747 4070 1334 3548 
Q 922 3027 922 2182 
Q 922 1152 1382 653 
Q 1811 192 2522 192 
Q 2944 192 3251 339 
Q 3558 486 3930 838 
z
" transform="scale(0.015625)"/>
      <path id="STIXGeneral-Regular-75" d="M 3072 320 
L 3072 230 
Q 2573 96 2195 -58 
L 2163 -38 
L 2163 486 
L 2150 486 
Q 1747 -64 1235 -64 
Q 870 -64 662 160 
Q 454 384 454 755 
L 454 2362 
Q 454 2598 371 2688 
Q 288 2778 58 2790 
L 58 2880 
L 992 2880 
L 992 813 
Q 992 595 1123 451 
Q 1254 307 1446 307 
Q 1760 307 1984 506 
Q 2067 582 2099 649 
Q 2131 717 2131 877 
L 2131 2355 
Q 2131 2605 2041 2678 
Q 1952 2752 1658 2771 
L 1658 2880 
L 2669 2880 
L 2669 685 
Q 2669 461 2742 390 
Q 2816 320 3034 320 
L 3072 320 
z
" transform="scale(0.015625)"/>
      <path id="STIXGeneral-Regular-72" d="M 1024 2931 
L 1024 2342 
Q 1267 2688 1430 2816 
Q 1594 2944 1792 2944 
Q 1958 2944 2051 2854 
Q 2144 2765 2144 2605 
Q 2144 2470 2077 2393 
Q 2010 2317 1894 2317 
Q 1773 2317 1638 2445 
Q 1536 2541 1472 2541 
Q 1338 2541 1181 2355 
Q 1024 2170 1024 2016 
L 1024 576 
Q 1024 301 1133 205 
Q 1242 109 1568 96 
L 1568 0 
L 32 0 
L 32 96 
Q 339 154 412 224 
Q 486 294 486 538 
L 486 2138 
Q 486 2349 438 2435 
Q 390 2522 269 2522 
Q 166 2522 45 2496 
L 45 2598 
Q 448 2726 992 2944 
L 1024 2931 
z
" transform="scale(0.015625)"/>
      <path id="STIXGeneral-Regular-65" d="M 2611 1050 
L 2714 1005 
Q 2330 -64 1376 -64 
Q 813 -64 486 329 
Q 160 723 160 1389 
Q 160 2074 525 2509 
Q 890 2944 1485 2944 
Q 2061 2944 2374 2502 
Q 2560 2246 2592 1773 
L 621 1773 
Q 646 1370 700 1158 
Q 755 947 915 730 
Q 1184 378 1626 378 
Q 1939 378 2153 531 
Q 2368 685 2611 1050 
z
M 634 1978 
L 1939 1978 
Q 1882 2381 1750 2547 
Q 1619 2714 1312 2714 
Q 1043 2714 864 2525 
Q 685 2336 634 1978 
z
" transform="scale(0.015625)"/>
      <path id="STIXGeneral-Regular-6e" d="M 3104 0 
L 1773 0 
L 1779 96 
Q 2016 115 2096 233 
Q 2176 352 2176 672 
L 2176 1946 
Q 2176 2592 1709 2592 
Q 1549 2592 1408 2515 
Q 1267 2438 1050 2227 
L 1050 461 
Q 1050 269 1136 192 
Q 1222 115 1466 96 
L 1466 0 
L 115 0 
L 115 96 
Q 358 115 435 214 
Q 512 314 512 602 
L 512 2157 
Q 512 2394 467 2483 
Q 422 2573 288 2573 
Q 160 2573 102 2547 
L 102 2656 
Q 550 2784 979 2944 
L 1030 2925 
L 1030 2426 
L 1037 2426 
Q 1491 2944 1958 2944 
Q 2323 2944 2518 2688 
Q 2714 2432 2714 1958 
L 2714 544 
Q 2714 288 2790 205 
Q 2867 122 3104 96 
L 3104 0 
z
" transform="scale(0.015625)"/>
      <path id="STIXGeneral-Regular-74" d="M 1702 493 
L 1786 422 
Q 1478 -64 1011 -64 
Q 448 -64 448 749 
L 448 2675 
L 109 2675 
Q 83 2694 83 2720 
Q 83 2771 192 2842 
Q 435 2982 813 3526 
Q 826 3546 874 3606 
Q 922 3667 941 3706 
Q 986 3706 986 3622 
L 986 2880 
L 1632 2880 
L 1632 2675 
L 986 2675 
L 986 845 
Q 986 538 1062 403 
Q 1139 269 1318 269 
Q 1510 269 1702 493 
z
" transform="scale(0.015625)"/>
      <path id="STIXGeneral-Regular-2d" d="M 1824 1242 
L 250 1242 
L 250 1645 
L 1824 1645 
L 1824 1242 
z
" transform="scale(0.015625)"/>
      <path id="STIXGeneral-Regular-63" d="M 2547 998 
L 2637 941 
Q 2362 403 2112 205 
Q 1786 -64 1376 -64 
Q 845 -64 502 336 
Q 160 736 160 1357 
Q 160 2170 698 2618 
Q 1094 2944 1562 2944 
Q 1965 2944 2256 2749 
Q 2547 2554 2547 2285 
Q 2547 2176 2457 2096 
Q 2368 2016 2246 2016 
Q 2022 2016 1939 2310 
L 1901 2451 
Q 1850 2630 1773 2694 
Q 1696 2758 1523 2758 
Q 1133 2758 893 2451 
Q 653 2144 653 1645 
Q 653 1094 928 745 
Q 1203 397 1645 397 
Q 1920 397 2118 528 
Q 2317 659 2547 998 
z
" transform="scale(0.015625)"/>
      <path id="STIXGeneral-Regular-79" d="M 3040 2880 
L 3040 2784 
Q 2925 2771 2854 2700 
Q 2784 2630 2720 2458 
L 1760 -160 
Q 1510 -838 1257 -1116 
Q 1005 -1395 640 -1395 
Q 435 -1395 313 -1289 
Q 192 -1184 192 -1024 
Q 192 -902 272 -816 
Q 352 -730 467 -730 
Q 653 -730 800 -813 
Q 883 -858 966 -858 
Q 1101 -858 1286 -576 
Q 1376 -448 1459 -211 
Q 1542 26 1542 115 
Q 1542 198 1274 762 
L 429 2566 
Q 346 2752 90 2790 
L 90 2880 
L 1402 2880 
L 1402 2784 
Q 1197 2778 1117 2739 
Q 1037 2701 1037 2611 
Q 1037 2541 1120 2349 
L 1837 749 
L 2458 2515 
Q 2483 2573 2483 2630 
Q 2483 2784 2189 2784 
L 2189 2880 
L 3040 2880 
z
" transform="scale(0.015625)"/>
      <path id="STIXGeneral-Regular-6c" d="M 1645 0 
L 134 0 
L 134 96 
Q 435 122 531 221 
Q 627 320 627 589 
L 627 3590 
Q 627 3821 569 3910 
Q 512 4000 358 4000 
Q 224 4000 122 3987 
L 122 4090 
Q 730 4237 1133 4371 
L 1165 4346 
L 1165 557 
Q 1165 288 1254 201 
Q 1344 115 1645 96 
L 1645 0 
z
" transform="scale(0.015625)"/>
      <path id="STIXGeneral-Regular-20" transform="scale(0.015625)"/>
      <path id="STIXGeneral-Regular-62" d="M 979 4358 
L 979 2406 
Q 1082 2650 1315 2797 
Q 1549 2944 1843 2944 
Q 2349 2944 2672 2541 
Q 2995 2138 2995 1536 
Q 2995 832 2566 384 
Q 2138 -64 1498 -64 
Q 1107 -64 774 67 
Q 442 198 442 358 
L 442 3622 
Q 442 3859 384 3926 
Q 326 3994 128 3994 
Q 83 3994 19 3981 
L 19 4090 
L 211 4147 
Q 864 4346 947 4371 
L 979 4358 
z
M 979 2035 
L 979 474 
Q 979 326 1161 233 
Q 1344 141 1600 141 
Q 1978 141 2195 416 
Q 2432 710 2432 1261 
Q 2432 1888 2182 2240 
Q 1971 2541 1613 2541 
Q 1357 2541 1168 2390 
Q 979 2240 979 2035 
z
" transform="scale(0.015625)"/>
      <path id="STIXGeneral-Regular-61" d="M 2829 422 
L 2829 243 
Q 2586 -64 2253 -64 
Q 1888 -64 1843 403 
L 1837 403 
Q 1427 -64 909 -64 
Q 608 -64 422 112 
Q 237 288 237 602 
Q 237 1050 685 1350 
Q 992 1555 1837 1869 
L 1837 2214 
Q 1837 2502 1699 2646 
Q 1562 2790 1338 2790 
Q 1146 2790 1018 2697 
Q 890 2605 890 2477 
Q 890 2419 909 2348 
Q 928 2278 928 2208 
Q 928 2112 841 2029 
Q 755 1946 634 1946 
Q 525 1946 441 2029 
Q 358 2112 358 2240 
Q 358 2547 685 2752 
Q 986 2944 1421 2944 
Q 1939 2944 2176 2656 
Q 2291 2522 2323 2384 
Q 2355 2246 2355 1946 
L 2355 723 
Q 2355 301 2554 301 
Q 2682 301 2829 422 
z
M 1837 813 
L 1837 1715 
Q 1248 1510 1018 1293 
Q 800 1094 800 800 
Q 800 557 921 432 
Q 1043 307 1242 307 
Q 1453 307 1613 410 
Q 1747 506 1792 589 
Q 1837 672 1837 813 
z
" transform="scale(0.015625)"/>
      <path id="STIXGeneral-Regular-69" d="M 1152 4045 
Q 1152 3904 1056 3811 
Q 960 3718 819 3718 
Q 685 3718 592 3811 
Q 499 3904 499 4045 
Q 499 4179 595 4275 
Q 691 4371 826 4371 
Q 966 4371 1059 4275 
Q 1152 4179 1152 4045 
z
M 1619 0 
L 102 0 
L 102 96 
Q 435 115 521 211 
Q 608 307 608 666 
L 608 2118 
Q 608 2342 563 2432 
Q 518 2522 397 2522 
Q 243 2522 128 2490 
L 128 2592 
L 1120 2944 
L 1146 2918 
L 1146 672 
Q 1146 314 1226 218 
Q 1306 122 1619 96 
L 1619 0 
z
" transform="scale(0.015625)"/>
      <path id="STIXGeneral-Regular-67" d="M 3008 2483 
L 2477 2483 
Q 2598 2208 2598 1946 
Q 2598 1453 2265 1203 
Q 1933 954 1600 954 
Q 1530 954 1357 973 
L 1235 986 
Q 1107 947 979 812 
Q 851 678 851 582 
Q 851 435 1350 410 
L 2176 371 
Q 2528 358 2739 172 
Q 2950 -13 2950 -314 
Q 2950 -685 2566 -986 
Q 2035 -1395 1286 -1395 
Q 826 -1395 502 -1212 
Q 179 -1030 179 -774 
Q 179 -595 320 -419 
Q 461 -243 806 6 
Q 602 102 534 172 
Q 467 243 467 346 
Q 467 531 762 787 
Q 909 915 1037 1043 
Q 717 1203 579 1401 
Q 442 1600 442 1901 
Q 442 2336 752 2640 
Q 1062 2944 1510 2944 
Q 1766 2944 2022 2848 
L 2163 2797 
Q 2349 2733 2515 2733 
L 3008 2733 
L 3008 2483 
z
M 973 2163 
L 973 2144 
Q 973 1683 1155 1398 
Q 1338 1114 1632 1114 
Q 1850 1114 1978 1270 
Q 2106 1427 2106 1690 
Q 2106 2112 1914 2464 
Q 1754 2765 1446 2765 
Q 1222 2765 1097 2605 
Q 973 2445 973 2163 
z
M 2771 -410 
Q 2771 -230 2595 -163 
Q 2419 -96 1978 -96 
Q 1344 -96 941 -13 
Q 749 -243 688 -348 
Q 627 -454 627 -563 
Q 627 -774 880 -902 
Q 1133 -1030 1555 -1030 
Q 2099 -1030 2435 -860 
Q 2771 -691 2771 -410 
z
" transform="scale(0.015625)"/>
      <path id="STIXGeneral-Regular-73" d="M 998 1926 
L 1664 1523 
Q 1984 1331 2105 1164 
Q 2227 998 2227 736 
Q 2227 416 1961 176 
Q 1696 -64 1331 -64 
Q 1030 -64 864 -6 
Q 691 51 570 51 
Q 461 51 416 -26 
L 333 -26 
L 333 979 
L 435 979 
Q 538 512 730 294 
Q 922 77 1248 77 
Q 1485 77 1632 211 
Q 1779 346 1779 550 
Q 1779 845 1440 1030 
L 1094 1222 
Q 326 1651 326 2150 
Q 326 2522 566 2730 
Q 806 2938 1210 2938 
Q 1491 2938 1638 2867 
Q 1754 2816 1818 2816 
Q 1862 2816 1920 2880 
L 1990 2880 
L 2022 2010 
L 1926 2010 
Q 1818 2445 1654 2621 
Q 1491 2797 1203 2797 
Q 986 2797 854 2688 
Q 723 2579 723 2362 
Q 723 2253 796 2128 
Q 870 2003 998 1926 
z
" transform="scale(0.015625)"/>
     </defs>
     <use xlink:href="#STIXGeneral-Regular-43"/>
     <use xlink:href="#STIXGeneral-Regular-75" transform="translate(66.699997 0)"/>
     <use xlink:href="#STIXGeneral-Regular-72" transform="translate(116.699982 0)"/>
     <use xlink:href="#STIXGeneral-Regular-72" transform="translate(149.999969 0)"/>
     <use xlink:href="#STIXGeneral-Regular-65" transform="translate(183.299957 0)"/>
     <use xlink:href="#STIXGeneral-Regular-6e" transform="translate(227.699951 0)"/>
     <use xlink:href="#STIXGeneral-Regular-74" transform="translate(277.699936 0)"/>
     <use xlink:href="#STIXGeneral-Regular-2d" transform="translate(305.499924 0)"/>
     <use xlink:href="#STIXGeneral-Regular-63" transform="translate(338.799911 0)"/>
     <use xlink:href="#STIXGeneral-Regular-79" transform="translate(383.199905 0)"/>
     <use xlink:href="#STIXGeneral-Regular-63" transform="translate(433.19989 0)"/>
     <use xlink:href="#STIXGeneral-Regular-6c" transform="translate(477.599884 0)"/>
     <use xlink:href="#STIXGeneral-Regular-65" transform="translate(505.399872 0)"/>
     <use xlink:href="#STIXGeneral-Regular-20" transform="translate(549.799866 0)"/>
     <use xlink:href="#STIXGeneral-Regular-62" transform="translate(574.79985 0)"/>
     <use xlink:href="#STIXGeneral-Regular-65" transform="translate(624.799835 0)"/>
     <use xlink:href="#STIXGeneral-Regular-61" transform="translate(669.199829 0)"/>
     <use xlink:href="#STIXGeneral-Regular-72" transform="translate(713.599823 0)"/>
     <use xlink:href="#STIXGeneral-Regular-69" transform="translate(746.899811 0)"/>
     <use xlink:href="#STIXGeneral-Regular-6e" transform="translate(774.699799 0)"/>
     <use xlink:href="#STIXGeneral-Regular-67" transform="translate(824.699783 0)"/>
     <use xlink:href="#STIXGeneral-Regular-73" transform="translate(874.699768 0)"/>
    </g>
    <!-- + reported poses -->
    <g style="fill: #0f172a" transform="translate(60.877886 183.026602) scale(0.1 -0.1)">
     <defs>
      <path id="STIXGeneral-Regular-2b" d="M 4070 1408 
L 2400 1408 
L 2400 -262 
L 1978 -262 
L 1978 1408 
L 307 1408 
L 307 1830 
L 1978 1830 
L 1978 3501 
L 2400 3501 
L 2400 1830 
L 4070 1830 
L 4070 1408 
z
" transform="scale(0.015625)"/>
      <path id="STIXGeneral-Regular-70" d="M 1018 2931 
L 1018 2438 
Q 1421 2944 1939 2944 
Q 2406 2944 2707 2560 
Q 3008 2176 3008 1581 
Q 3008 883 2621 409 
Q 2234 -64 1664 -64 
Q 1466 -64 1328 -6 
Q 1190 51 1018 211 
L 1018 -794 
Q 1018 -1094 1120 -1180 
Q 1222 -1267 1581 -1274 
L 1581 -1389 
L 32 -1389 
L 32 -1280 
Q 314 -1254 397 -1171 
Q 480 -1088 480 -838 
L 480 2157 
Q 480 2381 429 2451 
Q 378 2522 218 2522 
Q 115 2522 58 2515 
L 58 2618 
Q 506 2752 979 2944 
L 1018 2931 
z
M 1018 2138 
L 1018 563 
Q 1018 422 1238 281 
Q 1459 141 1683 141 
Q 2029 141 2243 467 
Q 2458 794 2458 1325 
Q 2458 1888 2243 2224 
Q 2029 2560 1670 2560 
Q 1446 2560 1232 2419 
Q 1018 2278 1018 2138 
z
" transform="scale(0.015625)"/>
      <path id="STIXGeneral-Regular-6f" d="M 3008 1478 
Q 3008 806 2608 371 
Q 2208 -64 1568 -64 
Q 979 -64 582 368 
Q 186 800 186 1459 
Q 186 2125 582 2534 
Q 979 2944 1626 2944 
Q 2221 2944 2614 2537 
Q 3008 2131 3008 1478 
z
M 2432 1306 
Q 2432 2035 2112 2445 
Q 1856 2765 1504 2765 
Q 1171 2765 966 2493 
Q 762 2221 762 1747 
Q 762 928 1101 435 
Q 1318 115 1677 115 
Q 2029 115 2230 432 
Q 2432 749 2432 1306 
z
" transform="scale(0.015625)"/>
      <path id="STIXGeneral-Regular-64" d="M 3142 269 
L 2202 -64 
L 2176 -45 
L 2176 365 
Q 1869 -64 1357 -64 
Q 826 -64 499 317 
Q 173 698 173 1312 
Q 173 1990 563 2467 
Q 954 2944 1504 2944 
Q 1850 2944 2176 2669 
L 2176 3667 
Q 2176 3866 2118 3930 
Q 2061 3994 1882 3994 
Q 1792 3994 1741 3987 
L 1741 4090 
Q 2323 4243 2682 4371 
L 2714 4358 
L 2714 730 
Q 2714 506 2768 435 
Q 2822 365 2995 365 
Q 3034 365 3142 371 
L 3142 269 
z
M 2176 653 
L 2176 2125 
Q 2176 2381 1981 2573 
Q 1786 2765 1523 2765 
Q 1158 2765 940 2438 
Q 723 2112 723 1568 
Q 723 979 963 624 
Q 1203 269 1606 269 
Q 1907 269 2080 474 
Q 2176 582 2176 653 
z
" transform="scale(0.015625)"/>
     </defs>
     <use xlink:href="#STIXGeneral-Regular-2b"/>
     <use xlink:href="#STIXGeneral-Regular-20" transform="translate(68.499985 0)"/>
     <use xlink:href="#STIXGeneral-Regular-72" transform="translate(93.499969 0)"/>
     <use xlink:href="#STIXGeneral-Regular-65" transform="translate(126.799957 0)"/>
     <use xlink:href="#STIXGeneral-Regular-70" transform="translate(171.199951 0)"/>
     <use xlink:href="#STIXGeneral-Regular-6f" transform="translate(221.199936 0)"/>
     <use xlink:href="#STIXGeneral-Regular-72" transform="translate(271.199921 0)"/>
     <use xlink:href="#STIXGeneral-Regular-74" transform="translate(304.499908 0)"/>
     <use xlink:href="#STIXGeneral-Regular-65" transform="translate(332.299896 0)"/>
     <use xlink:href="#STIXGeneral-Regular-64" transform="translate(376.69989 0)"/>
     <use xlink:href="#STIXGeneral-Regular-20" transform="translate(426.699875 0)"/>
     <use xlink:href="#STIXGeneral-Regular-70" transform="translate(451.69986 0)"/>
     <use xlink:href="#STIXGeneral-Regular-6f" transform="translate(501.699844 0)"/>
     <use xlink:href="#STIXGeneral-Regular-73" transform="translate(551.699829 0)"/>
     <use xlink:href="#STIXGeneral-Regular-65" transform="translate(590.599823 0)"/>
     <use xlink:href="#STIXGeneral-Regular-73" transform="translate(634.999817 0)"/>
    </g>
   </g>
   <g id="text_2">
    <!-- Pairwise intersections -->
    <g style="fill: #0f172a" transform="translate(212.464281 172.997461) scale(0.1 -0.1)">
     <defs>
      <path id="STIXGeneral-Regular-50" d="M 102 4237 
L 1760 4237 
Q 2669 4237 3149 3834 
Q 3469 3565 3469 3072 
Q 3469 2560 3104 2234 
Q 2835 1990 2553 1916 
Q 2272 1843 1734 1843 
Q 1549 1843 1293 1862 
L 1293 717 
Q 1293 352 1398 246 
Q 1504 141 1894 122 
L 1894 0 
L 102 0 
L 102 122 
Q 474 147 557 256 
Q 640 365 640 781 
L 640 3526 
Q 640 3885 547 3987 
Q 454 4090 102 4115 
L 102 4237 
z
M 1293 3770 
L 1293 2118 
Q 1510 2099 1683 2099 
Q 2202 2099 2486 2352 
Q 2771 2605 2771 3040 
Q 2771 3558 2476 3779 
Q 2182 4000 1517 4000 
Q 1382 4000 1337 3952 
Q 1293 3904 1293 3770 
z
" transform="scale(0.015625)"/>
      <path id="STIXGeneral-Regular-77" d="M 4442 2880 
L 4442 2784 
Q 4346 2752 4301 2691 
Q 4256 2630 4179 2438 
L 3296 224 
Q 3168 -90 3117 -90 
Q 3085 -90 3062 -48 
Q 3040 -6 2963 186 
L 2381 1696 
L 1664 160 
Q 1549 -90 1504 -90 
Q 1446 -90 1338 192 
L 474 2381 
Q 378 2630 314 2700 
Q 250 2771 134 2784 
L 134 2880 
L 1286 2880 
L 1286 2784 
Q 1120 2765 1056 2720 
Q 992 2675 992 2573 
Q 992 2477 1030 2381 
L 1664 710 
L 2246 1984 
L 2118 2342 
Q 2029 2598 1942 2681 
Q 1856 2765 1677 2784 
L 1677 2880 
L 2976 2880 
L 2976 2784 
Q 2752 2752 2678 2707 
Q 2605 2662 2605 2560 
Q 2605 2458 2714 2176 
L 3251 742 
L 3827 2163 
Q 3936 2432 3936 2592 
Q 3936 2669 3875 2710 
Q 3814 2752 3654 2784 
L 3654 2880 
L 4442 2880 
z
" transform="scale(0.015625)"/>
     </defs>
     <use xlink:href="#STIXGeneral-Regular-50"/>
     <use xlink:href="#STIXGeneral-Regular-61" transform="translate(55.699997 0)"/>
     <use xlink:href="#STIXGeneral-Regular-69" transform="translate(100.099991 0)"/>
     <use xlink:href="#STIXGeneral-Regular-72" transform="translate(127.899979 0)"/>
     <use xlink:href="#STIXGeneral-Regular-77" transform="translate(161.199966 0)"/>
     <use xlink:href="#STIXGeneral-Regular-69" transform="translate(233.399948 0)"/>
     <use xlink:href="#STIXGeneral-Regular-73" transform="translate(261.199936 0)"/>
     <use xlink:href="#STIXGeneral-Regular-65" transform="translate(300.09993 0)"/>
     <use xlink:href="#STIXGeneral-Regular-20" transform="translate(344.499924 0)"/>
     <use xlink:href="#STIXGeneral-Regular-69" transform="translate(369.499908 0)"/>
     <use xlink:href="#STIXGeneral-Regular-6e" transform="translate(397.299896 0)"/>
     <use xlink:href="#STIXGeneral-Regular-74" transform="translate(447.299881 0)"/>
     <use xlink:href="#STIXGeneral-Regular-65" transform="translate(475.099869 0)"/>
     <use xlink:href="#STIXGeneral-Regular-72" transform="translate(519.499863 0)"/>
     <use xlink:href="#STIXGeneral-Regular-73" transform="translate(552.79985 0)"/>
     <use xlink:href="#STIXGeneral-Regular-65" transform="translate(591.699844 0)"/>
     <use xlink:href="#STIXGeneral-Regular-63" transform="translate(636.099838 0)"/>
     <use xlink:href="#STIXGeneral-Regular-74" transform="translate(680.499832 0)"/>
     <use xlink:href="#STIXGeneral-Regular-69" transform="translate(708.29982 0)"/>
     <use xlink:href="#STIXGeneral-Regular-6f" transform="translate(736.099808 0)"/>
     <use xlink:href="#STIXGeneral-Regular-6e" transform="translate(786.099792 0)"/>
     <use xlink:href="#STIXGeneral-Regular-73" transform="translate(836.099777 0)"/>
    </g>
    <!-- + consensus seeds -->
    <g style="fill: #0f172a" transform="translate(219.183031 183.021914) scale(0.1 -0.1)">
     <use xlink:href="#STIXGeneral-Regular-2b"/>
     <use xlink:href="#STIXGeneral-Regular-20" transform="translate(68.499985 0)"/>
     <use xlink:href="#STIXGeneral-Regular-63" transform="translate(93.499969 0)"/>
     <use xlink:href="#STIXGeneral-Regular-6f" transform="translate(137.899963 0)"/>
     <use xlink:href="#STIXGeneral-Regular-6e" transform="translate(187.899948 0)"/>
     <use xlink:href="#STIXGeneral-Regular-73" transform="translate(237.899933 0)"/>
     <use xlink:href="#STIXGeneral-Regular-65" transform="translate(276.799927 0)"/>
     <use xlink:href="#STIXGeneral-Regular-6e" transform="translate(321.199921 0)"/>
     <use xlink:href="#STIXGeneral-Regular-73" transform="translate(371.199905 0)"/>
     <use xlink:href="#STIXGeneral-Regular-75" transform="translate(410.099899 0)"/>
     <use xlink:href="#STIXGeneral-Regular-73" transform="translate(460.099884 0)"/>
     <use xlink:href="#STIXGeneral-Regular-20" transform="translate(498.999878 0)"/>
     <use xlink:href="#STIXGeneral-Regular-73" transform="translate(523.999863 0)"/>
     <use xlink:href="#STIXGeneral-Regular-65" transform="translate(562.899857 0)"/>
     <use xlink:href="#STIXGeneral-Regular-65" transform="translate(607.29985 0)"/>
     <use xlink:href="#STIXGeneral-Regular-64" transform="translate(651.699844 0)"/>
     <use xlink:href="#STIXGeneral-Regular-73" transform="translate(701.699829 0)"/>
    </g>
   </g>
   <g id="text_3">
    <!-- Trimmed IRLS -->
    <g style="fill: #0f172a" transform="translate(395.901354 167.985234) scale(0.1 -0.1)">
     <defs>
      <path id="STIXGeneral-Regular-54" d="M 3795 3149 
L 3642 3149 
Q 3539 3674 3353 3821 
Q 3168 3968 2656 3968 
L 2278 3968 
L 2278 710 
Q 2278 346 2387 243 
Q 2496 141 2893 122 
L 2893 0 
L 1024 0 
L 1024 122 
Q 1427 147 1526 256 
Q 1626 365 1626 787 
L 1626 3968 
L 1242 3968 
Q 723 3968 540 3817 
Q 358 3667 262 3149 
L 109 3149 
L 154 4237 
L 3750 4237 
L 3795 3149 
z
" transform="scale(0.015625)"/>
      <path id="STIXGeneral-Regular-6d" d="M 4960 0 
L 3565 0 
L 3565 96 
Q 3834 122 3907 208 
Q 3981 294 3981 576 
L 3981 1894 
Q 3981 2278 3869 2444 
Q 3757 2611 3488 2611 
Q 3264 2611 3107 2521 
Q 2950 2432 2803 2221 
L 2803 608 
Q 2803 301 2896 201 
Q 2989 102 3264 96 
L 3264 0 
L 1830 0 
L 1830 96 
Q 2112 115 2189 188 
Q 2266 262 2266 550 
L 2266 1901 
Q 2266 2611 1850 2611 
Q 1670 2611 1468 2531 
Q 1267 2451 1171 2336 
Q 1088 2240 1088 2227 
L 1088 448 
Q 1088 243 1177 176 
Q 1267 109 1523 96 
L 1523 0 
L 102 0 
L 102 96 
Q 371 102 460 195 
Q 550 288 550 563 
L 550 2150 
Q 550 2387 499 2480 
Q 448 2573 326 2573 
Q 230 2573 122 2547 
L 122 2656 
Q 557 2778 1011 2944 
L 1062 2925 
L 1062 2451 
L 1075 2451 
Q 1363 2752 1584 2848 
Q 1805 2944 2054 2944 
Q 2560 2944 2733 2406 
Q 3232 2944 3776 2944 
Q 4518 2944 4518 1792 
L 4518 493 
Q 4518 282 4582 202 
Q 4646 122 4794 109 
L 4960 96 
L 4960 0 
z
" transform="scale(0.015625)"/>
      <path id="STIXGeneral-Regular-49" d="M 2016 0 
L 115 0 
L 115 122 
Q 518 134 627 240 
Q 736 346 736 717 
L 736 3526 
Q 736 3898 633 3994 
Q 531 4090 115 4115 
L 115 4237 
L 2016 4237 
L 2016 4115 
Q 1613 4096 1501 3993 
Q 1389 3891 1389 3526 
L 1389 717 
Q 1389 358 1504 246 
Q 1619 134 2016 122 
L 2016 0 
z
" transform="scale(0.015625)"/>
      <path id="STIXGeneral-Regular-52" d="M 4224 0 
L 3187 0 
L 1664 1971 
L 1306 1958 
L 1306 717 
Q 1306 352 1405 249 
Q 1504 147 1875 122 
L 1875 0 
L 109 0 
L 109 122 
Q 474 154 563 262 
Q 653 371 653 794 
L 653 3526 
Q 653 3885 563 3987 
Q 474 4090 109 4115 
L 109 4237 
L 1850 4237 
Q 2726 4237 3187 3859 
Q 3501 3603 3501 3091 
Q 3501 2221 2342 2042 
L 3622 422 
Q 3757 256 3878 198 
Q 4000 141 4224 122 
L 4224 0 
z
M 1306 3731 
L 1306 2195 
Q 1766 2202 1990 2246 
Q 2214 2291 2438 2413 
Q 2803 2618 2803 3142 
Q 2803 4000 1632 4000 
Q 1459 4000 1382 3945 
Q 1306 3891 1306 3731 
z
" transform="scale(0.015625)"/>
      <path id="STIXGeneral-Regular-4c" d="M 3827 1114 
L 3520 0 
L 77 0 
L 77 122 
Q 429 141 531 256 
Q 634 371 634 736 
L 634 3494 
Q 634 3872 541 3981 
Q 448 4090 77 4115 
L 77 4237 
L 1888 4237 
L 1888 4115 
Q 1498 4090 1392 3984 
Q 1286 3878 1286 3507 
L 1286 538 
Q 1286 358 1398 304 
Q 1510 250 1862 250 
L 2310 250 
Q 3085 250 3392 640 
Q 3520 813 3661 1114 
L 3827 1114 
z
" transform="scale(0.015625)"/>
      <path id="STIXGeneral-Regular-53" d="M 3002 2963 
L 2842 2963 
Q 2733 3360 2579 3565 
Q 2189 4064 1651 4064 
Q 1357 4064 1181 3894 
Q 1005 3725 1005 3456 
Q 1005 3328 1069 3206 
Q 1133 3085 1206 2998 
Q 1280 2912 1465 2784 
Q 1651 2656 1766 2589 
Q 1882 2522 2150 2362 
Q 2669 2061 2905 1763 
Q 3142 1466 3142 1107 
Q 3142 576 2771 243 
Q 2400 -90 1837 -90 
Q 1421 -90 1082 58 
Q 915 128 781 128 
Q 704 128 653 70 
Q 602 13 602 -83 
L 461 -83 
L 275 1274 
L 416 1274 
Q 845 141 1734 141 
Q 2074 141 2285 342 
Q 2496 544 2496 858 
Q 2496 1158 2310 1363 
Q 2003 1696 1235 2106 
Q 454 2522 454 3206 
Q 454 3718 768 4022 
Q 1082 4326 1568 4326 
Q 1907 4326 2240 4186 
Q 2413 4109 2522 4109 
Q 2688 4109 2726 4326 
L 2861 4326 
L 3002 2963 
z
" transform="scale(0.015625)"/>
     </defs>
     <use xlink:href="#STIXGeneral-Regular-54"/>
     <use xlink:href="#STIXGeneral-Regular-72" transform="translate(61.099991 0)"/>
     <use xlink:href="#STIXGeneral-Regular-69" transform="translate(94.399979 0)"/>
     <use xlink:href="#STIXGeneral-Regular-6d" transform="translate(122.199966 0)"/>
     <use xlink:href="#STIXGeneral-Regular-6d" transform="translate(199.999954 0)"/>
     <use xlink:href="#STIXGeneral-Regular-65" transform="translate(277.799942 0)"/>
     <use xlink:href="#STIXGeneral-Regular-64" transform="translate(322.199936 0)"/>
     <use xlink:href="#STIXGeneral-Regular-20" transform="translate(372.199921 0)"/>
     <use xlink:href="#STIXGeneral-Regular-49" transform="translate(397.199905 0)"/>
     <use xlink:href="#STIXGeneral-Regular-52" transform="translate(430.499893 0)"/>
     <use xlink:href="#STIXGeneral-Regular-4c" transform="translate(497.19989 0)"/>
     <use xlink:href="#STIXGeneral-Regular-53" transform="translate(558.299881 0)"/>
    </g>
    <!-- with LM updates -->
    <g style="fill: #0f172a" transform="translate(392.429479 178.009688) scale(0.1 -0.1)">
     <defs>
      <path id="STIXGeneral-Regular-68" d="M 3117 0 
L 1760 0 
L 1760 96 
Q 2042 128 2118 224 
Q 2195 320 2195 653 
L 2195 1920 
Q 2195 2598 1722 2598 
Q 1530 2598 1370 2508 
Q 1210 2419 1005 2195 
L 1005 653 
Q 1005 320 1081 224 
Q 1158 128 1440 96 
L 1440 0 
L 58 0 
L 58 96 
Q 333 134 400 224 
Q 467 314 467 653 
L 467 3667 
Q 467 3872 406 3933 
Q 346 3994 141 3994 
Q 83 3994 64 3987 
L 64 4090 
L 237 4141 
Q 730 4288 973 4371 
L 1005 4352 
L 1005 2406 
Q 1229 2694 1446 2819 
Q 1664 2944 1946 2944 
Q 2733 2944 2733 1926 
L 2733 653 
Q 2733 320 2793 233 
Q 2854 147 3117 96 
L 3117 0 
z
" transform="scale(0.015625)"/>
      <path id="STIXGeneral-Regular-4d" d="M 5530 0 
L 3738 0 
L 3738 122 
Q 4115 147 4214 265 
Q 4314 384 4314 787 
L 4314 3661 
L 2682 0 
L 2592 0 
L 979 3514 
L 979 966 
Q 979 448 1088 294 
Q 1197 141 1574 122 
L 1574 0 
L 77 0 
L 77 122 
Q 358 141 480 205 
Q 602 269 650 432 
Q 698 595 698 966 
L 698 3514 
Q 698 3878 589 3984 
Q 480 4090 90 4115 
L 90 4237 
L 1357 4237 
L 2835 1024 
L 4250 4237 
L 5523 4237 
L 5523 4115 
Q 5178 4109 5072 3993 
Q 4966 3878 4966 3520 
L 4966 717 
Q 4966 378 5072 262 
Q 5178 147 5530 122 
L 5530 0 
z
" transform="scale(0.015625)"/>
     </defs>
     <use xlink:href="#STIXGeneral-Regular-77"/>
     <use xlink:href="#STIXGeneral-Regular-69" transform="translate(72.199982 0)"/>
     <use xlink:href="#STIXGeneral-Regular-74" transform="translate(99.999969 0)"/>
     <use xlink:href="#STIXGeneral-Regular-68" transform="translate(127.799957 0)"/>
     <use xlink:href="#STIXGeneral-Regular-20" transform="translate(177.799942 0)"/>
     <use xlink:href="#STIXGeneral-Regular-4c" transform="translate(202.799927 0)"/>
     <use xlink:href="#STIXGeneral-Regular-4d" transform="translate(263.899918 0)"/>
     <use xlink:href="#STIXGeneral-Regular-20" transform="translate(352.799911 0)"/>
     <use xlink:href="#STIXGeneral-Regular-75" transform="translate(377.799896 0)"/>
     <use xlink:href="#STIXGeneral-Regular-70" transform="translate(427.799881 0)"/>
     <use xlink:href="#STIXGeneral-Regular-64" transform="translate(477.799866 0)"/>
     <use xlink:href="#STIXGeneral-Regular-61" transform="translate(527.79985 0)"/>
     <use xlink:href="#STIXGeneral-Regular-74" transform="translate(572.199844 0)"/>
     <use xlink:href="#STIXGeneral-Regular-65" transform="translate(599.999832 0)"/>
     <use xlink:href="#STIXGeneral-Regular-73" transform="translate(644.399826 0)"/>
    </g>
    <!-- and optional bias -->
    <g style="fill: #0f172a" transform="translate(392.429479 188.034141) scale(0.1 -0.1)">
     <use xlink:href="#STIXGeneral-Regular-61"/>
     <use xlink:href="#STIXGeneral-Regular-6e" transform="translate(44.399994 0)"/>
     <use xlink:href="#STIXGeneral-Regular-64" transform="translate(94.399979 0)"/>
     <use xlink:href="#STIXGeneral-Regular-20" transform="translate(144.399963 0)"/>
     <use xlink:href="#STIXGeneral-Regular-6f" transform="translate(169.399948 0)"/>
     <use xlink:href="#STIXGeneral-Regular-70" transform="translate(219.399933 0)"/>
     <use xlink:href="#STIXGeneral-Regular-74" transform="translate(269.399918 0)"/>
     <use xlink:href="#STIXGeneral-Regular-69" transform="translate(297.199905 0)"/>
     <use xlink:href="#STIXGeneral-Regular-6f" transform="translate(324.999893 0)"/>
     <use xlink:href="#STIXGeneral-Regular-6e" transform="translate(374.999878 0)"/>
     <use xlink:href="#STIXGeneral-Regular-61" transform="translate(424.999863 0)"/>
     <use xlink:href="#STIXGeneral-Regular-6c" transform="translate(469.399857 0)"/>
     <use xlink:href="#STIXGeneral-Regular-20" transform="translate(497.199844 0)"/>
     <use xlink:href="#STIXGeneral-Regular-62" transform="translate(522.199829 0)"/>
     <use xlink:href="#STIXGeneral-Regular-69" transform="translate(572.199814 0)"/>
     <use xlink:href="#STIXGeneral-Regular-61" transform="translate(599.999802 0)"/>
     <use xlink:href="#STIXGeneral-Regular-73" transform="translate(644.399796 0)"/>
    </g>
   </g>
   <g id="text_4">
    <!-- Residual / reliability gate -->
    <g style="fill: #0f172a" transform="translate(555.296138 101.708086) scale(0.1 -0.1)">
     <defs>
      <path id="STIXGeneral-Regular-2f" d="M 1837 4326 
L 378 -90 
L -58 -90 
L 1408 4326 
L 1837 4326 
z
" transform="scale(0.015625)"/>
     </defs>
     <use xlink:href="#STIXGeneral-Regular-52"/>
     <use xlink:href="#STIXGeneral-Regular-65" transform="translate(66.699997 0)"/>
     <use xlink:href="#STIXGeneral-Regular-73" transform="translate(111.099991 0)"/>
     <use xlink:href="#STIXGeneral-Regular-69" transform="translate(149.999985 0)"/>
     <use xlink:href="#STIXGeneral-Regular-64" transform="translate(177.799973 0)"/>
     <use xlink:href="#STIXGeneral-Regular-75" transform="translate(227.799957 0)"/>
     <use xlink:href="#STIXGeneral-Regular-61" transform="translate(277.799942 0)"/>
     <use xlink:href="#STIXGeneral-Regular-6c" transform="translate(322.199936 0)"/>
     <use xlink:href="#STIXGeneral-Regular-20" transform="translate(349.999924 0)"/>
     <use xlink:href="#STIXGeneral-Regular-2f" transform="translate(374.999908 0)"/>
     <use xlink:href="#STIXGeneral-Regular-20" transform="translate(402.799896 0)"/>
     <use xlink:href="#STIXGeneral-Regular-72" transform="translate(427.799881 0)"/>
     <use xlink:href="#STIXGeneral-Regular-65" transform="translate(461.099869 0)"/>
     <use xlink:href="#STIXGeneral-Regular-6c" transform="translate(505.499863 0)"/>
     <use xlink:href="#STIXGeneral-Regular-69" transform="translate(533.29985 0)"/>
     <use xlink:href="#STIXGeneral-Regular-61" transform="translate(561.099838 0)"/>
     <use xlink:href="#STIXGeneral-Regular-62" transform="translate(605.499832 0)"/>
     <use xlink:href="#STIXGeneral-Regular-69" transform="translate(655.499817 0)"/>
     <use xlink:href="#STIXGeneral-Regular-6c" transform="translate(683.299805 0)"/>
     <use xlink:href="#STIXGeneral-Regular-69" transform="translate(711.099792 0)"/>
     <use xlink:href="#STIXGeneral-Regular-74" transform="translate(738.89978 0)"/>
     <use xlink:href="#STIXGeneral-Regular-79" transform="translate(766.699768 0)"/>
     <use xlink:href="#STIXGeneral-Regular-20" transform="translate(816.699753 0)"/>
     <use xlink:href="#STIXGeneral-Regular-67" transform="translate(841.699738 0)"/>
     <use xlink:href="#STIXGeneral-Regular-61" transform="translate(891.699722 0)"/>
     <use xlink:href="#STIXGeneral-Regular-74" transform="translate(936.099716 0)"/>
     <use xlink:href="#STIXGeneral-Regular-65" transform="translate(963.899704 0)"/>
    </g>
    <!-- heterogeneous window? -->
    <g style="fill: #0f172a" transform="translate(557.250044 111.741914) scale(0.1 -0.1)">
     <defs>
      <path id="STIXGeneral-Regular-3f" d="M 1562 1050 
L 1453 1050 
Q 1466 1510 1734 2182 
Q 2061 2989 2061 3379 
Q 2061 3706 1859 3920 
Q 1658 4134 1363 4134 
Q 1133 4134 947 4012 
Q 762 3891 762 3738 
Q 762 3616 883 3491 
Q 1005 3366 1005 3264 
Q 1005 3142 934 3065 
Q 864 2989 742 2989 
Q 608 2989 521 3104 
Q 435 3219 435 3411 
Q 435 3808 729 4067 
Q 1024 4326 1485 4326 
Q 1965 4326 2307 4048 
Q 2650 3770 2650 3315 
Q 2650 3027 2522 2787 
Q 2394 2547 1978 2054 
Q 1664 1677 1562 1050 
z
M 1856 288 
Q 1856 147 1760 48 
Q 1664 -51 1523 -51 
Q 1363 -51 1270 48 
Q 1178 147 1178 288 
Q 1178 435 1277 531 
Q 1376 627 1523 627 
Q 1658 627 1757 524 
Q 1856 422 1856 288 
z
" transform="scale(0.015625)"/>
     </defs>
     <use xlink:href="#STIXGeneral-Regular-68"/>
     <use xlink:href="#STIXGeneral-Regular-65" transform="translate(49.999985 0)"/>
     <use xlink:href="#STIXGeneral-Regular-74" transform="translate(94.399979 0)"/>
     <use xlink:href="#STIXGeneral-Regular-65" transform="translate(122.199966 0)"/>
     <use xlink:href="#STIXGeneral-Regular-72" transform="translate(166.59996 0)"/>
     <use xlink:href="#STIXGeneral-Regular-6f" transform="translate(199.899948 0)"/>
     <use xlink:href="#STIXGeneral-Regular-67" transform="translate(249.899933 0)"/>
     <use xlink:href="#STIXGeneral-Regular-65" transform="translate(299.899918 0)"/>
     <use xlink:href="#STIXGeneral-Regular-6e" transform="translate(344.299911 0)"/>
     <use xlink:href="#STIXGeneral-Regular-65" transform="translate(394.299896 0)"/>
     <use xlink:href="#STIXGeneral-Regular-6f" transform="translate(438.69989 0)"/>
     <use xlink:href="#STIXGeneral-Regular-75" transform="translate(488.699875 0)"/>
     <use xlink:href="#STIXGeneral-Regular-73" transform="translate(538.69986 0)"/>
     <use xlink:href="#STIXGeneral-Regular-20" transform="translate(577.599854 0)"/>
     <use xlink:href="#STIXGeneral-Regular-77" transform="translate(602.599838 0)"/>
     <use xlink:href="#STIXGeneral-Regular-69" transform="translate(674.79982 0)"/>
     <use xlink:href="#STIXGeneral-Regular-6e" transform="translate(702.599808 0)"/>
     <use xlink:href="#STIXGeneral-Regular-64" transform="translate(752.599792 0)"/>
     <use xlink:href="#STIXGeneral-Regular-6f" transform="translate(802.599777 0)"/>
     <use xlink:href="#STIXGeneral-Regular-77" transform="translate(852.599762 0)"/>
     <use xlink:href="#STIXGeneral-Regular-3f" transform="translate(924.799744 0)"/>
    </g>
   </g>
   <g id="text_5">
    <!-- Keep all-sensor robust cue -->
    <g style="fill: #0f172a" transform="translate(552.529732 250.757461) scale(0.1 -0.1)">
     <defs>
      <path id="STIXGeneral-Regular-4b" d="M 4627 0 
L 2688 0 
L 2688 122 
L 2861 128 
Q 3130 134 3130 282 
Q 3130 397 2922 643 
Q 2714 890 2253 1370 
L 1613 2029 
L 1446 1894 
L 1446 710 
Q 1446 352 1548 253 
Q 1651 154 2016 122 
L 2016 0 
L 211 0 
L 211 122 
Q 589 141 691 262 
Q 794 384 794 800 
L 794 3514 
Q 794 3872 691 3981 
Q 589 4090 218 4115 
L 218 4237 
L 2022 4237 
L 2022 4115 
Q 1632 4090 1539 3987 
Q 1446 3885 1446 3507 
L 1446 2227 
L 2586 3277 
Q 2861 3533 2973 3667 
Q 3085 3802 3085 3910 
Q 3085 4013 3030 4057 
Q 2976 4102 2822 4109 
L 2662 4115 
L 2662 4237 
L 4320 4237 
L 4320 4115 
Q 3994 4090 3824 4003 
Q 3654 3917 3322 3597 
L 2131 2458 
L 3629 819 
Q 4026 384 4214 253 
Q 4403 122 4627 122 
L 4627 0 
z
" transform="scale(0.015625)"/>
     </defs>
     <use xlink:href="#STIXGeneral-Regular-4b"/>
     <use xlink:href="#STIXGeneral-Regular-65" transform="translate(72.199982 0)"/>
     <use xlink:href="#STIXGeneral-Regular-65" transform="translate(116.599976 0)"/>
     <use xlink:href="#STIXGeneral-Regular-70" transform="translate(160.999969 0)"/>
     <use xlink:href="#STIXGeneral-Regular-20" transform="translate(210.999954 0)"/>
     <use xlink:href="#STIXGeneral-Regular-61" transform="translate(235.999939 0)"/>
     <use xlink:href="#STIXGeneral-Regular-6c" transform="translate(280.399933 0)"/>
     <use xlink:href="#STIXGeneral-Regular-6c" transform="translate(308.199921 0)"/>
     <use xlink:href="#STIXGeneral-Regular-2d" transform="translate(335.999908 0)"/>
     <use xlink:href="#STIXGeneral-Regular-73" transform="translate(369.299896 0)"/>
     <use xlink:href="#STIXGeneral-Regular-65" transform="translate(408.19989 0)"/>
     <use xlink:href="#STIXGeneral-Regular-6e" transform="translate(452.599884 0)"/>
     <use xlink:href="#STIXGeneral-Regular-73" transform="translate(502.599869 0)"/>
     <use xlink:href="#STIXGeneral-Regular-6f" transform="translate(541.499863 0)"/>
     <use xlink:href="#STIXGeneral-Regular-72" transform="translate(591.499847 0)"/>
     <use xlink:href="#STIXGeneral-Regular-20" transform="translate(624.799835 0)"/>
     <use xlink:href="#STIXGeneral-Regular-72" transform="translate(649.79982 0)"/>
     <use xlink:href="#STIXGeneral-Regular-6f" transform="translate(683.099808 0)"/>
     <use xlink:href="#STIXGeneral-Regular-62" transform="translate(733.099792 0)"/>
     <use xlink:href="#STIXGeneral-Regular-75" transform="translate(783.099777 0)"/>
     <use xlink:href="#STIXGeneral-Regular-73" transform="translate(833.099762 0)"/>
     <use xlink:href="#STIXGeneral-Regular-74" transform="translate(871.999756 0)"/>
     <use xlink:href="#STIXGeneral-Regular-20" transform="translate(899.799744 0)"/>
     <use xlink:href="#STIXGeneral-Regular-63" transform="translate(924.799728 0)"/>
     <use xlink:href="#STIXGeneral-Regular-75" transform="translate(969.199722 0)"/>
     <use xlink:href="#STIXGeneral-Regular-65" transform="translate(1019.199707 0)"/>
    </g>
    <!-- (default path) -->
    <g style="fill: #0f172a" transform="translate(578.636763 260.781914) scale(0.1 -0.1)">
     <defs>
      <path id="STIXGeneral-Regular-28" d="M 1946 -1030 
L 1869 -1133 
Q 1126 -710 716 32 
Q 307 774 307 1613 
Q 307 3386 1888 4326 
L 1946 4224 
Q 1293 3667 1075 3126 
Q 858 2586 858 1632 
Q 858 685 1082 96 
Q 1306 -493 1946 -1030 
z
" transform="scale(0.015625)"/>
      <path id="STIXGeneral-Regular-66" d="M 134 2880 
L 659 2880 
Q 666 3264 710 3478 
Q 755 3693 883 3910 
Q 1152 4371 1786 4371 
Q 2074 4371 2262 4259 
Q 2451 4147 2451 3974 
Q 2451 3866 2374 3789 
Q 2298 3712 2182 3712 
Q 2029 3712 1894 3942 
Q 1741 4192 1555 4192 
Q 1197 4192 1197 3622 
L 1197 2880 
L 1978 2880 
L 1978 2675 
L 1197 2675 
L 1197 666 
Q 1197 307 1299 208 
Q 1402 109 1792 96 
L 1792 0 
L 128 0 
L 128 96 
Q 474 115 566 214 
Q 659 314 659 666 
L 659 2675 
L 134 2675 
L 134 2880 
z
" transform="scale(0.015625)"/>
      <path id="STIXGeneral-Regular-29" d="M 186 4224 
L 262 4326 
Q 992 3891 1408 3148 
Q 1824 2406 1824 1581 
Q 1824 -166 243 -1133 
L 186 -1030 
Q 845 -486 1059 54 
Q 1274 595 1274 1562 
Q 1274 2534 1059 3120 
Q 845 3706 186 4224 
z
" transform="scale(0.015625)"/>
     </defs>
     <use xlink:href="#STIXGeneral-Regular-28"/>
     <use xlink:href="#STIXGeneral-Regular-64" transform="translate(33.299988 0)"/>
     <use xlink:href="#STIXGeneral-Regular-65" transform="translate(83.299973 0)"/>
     <use xlink:href="#STIXGeneral-Regular-66" transform="translate(127.699966 0)"/>
     <use xlink:href="#STIXGeneral-Regular-61" transform="translate(160.999954 0)"/>
     <use xlink:href="#STIXGeneral-Regular-75" transform="translate(205.399948 0)"/>
     <use xlink:href="#STIXGeneral-Regular-6c" transform="translate(255.399933 0)"/>
     <use xlink:href="#STIXGeneral-Regular-74" transform="translate(283.199921 0)"/>
     <use xlink:href="#STIXGeneral-Regular-20" transform="translate(310.999908 0)"/>
     <use xlink:href="#STIXGeneral-Regular-70" transform="translate(335.999893 0)"/>
     <use xlink:href="#STIXGeneral-Regular-61" transform="translate(385.999878 0)"/>
     <use xlink:href="#STIXGeneral-Regular-74" transform="translate(430.399872 0)"/>
     <use xlink:href="#STIXGeneral-Regular-68" transform="translate(458.19986 0)"/>
     <use xlink:href="#STIXGeneral-Regular-29" transform="translate(508.199844 0)"/>
    </g>
   </g>
   <g id="text_6">
    <!-- Stage 2 optional -->
    <g style="fill: #0f172a" transform="translate(752.328422 103.171172) scale(0.1 -0.1)">
     <defs>
      <path id="STIXGeneral-Regular-32" d="M 3034 877 
L 2688 0 
L 186 0 
L 186 77 
L 1325 1286 
Q 1773 1754 1965 2144 
Q 2157 2534 2157 2950 
Q 2157 3379 1920 3616 
Q 1683 3853 1267 3853 
Q 922 3853 720 3673 
Q 518 3494 326 3021 
L 192 3053 
Q 301 3648 630 3987 
Q 960 4326 1523 4326 
Q 2054 4326 2380 4006 
Q 2707 3686 2707 3200 
Q 2707 2477 1888 1613 
L 832 486 
L 2330 486 
Q 2541 486 2665 569 
Q 2790 653 2944 915 
L 3034 877 
z
" transform="scale(0.015625)"/>
     </defs>
     <use xlink:href="#STIXGeneral-Regular-53"/>
     <use xlink:href="#STIXGeneral-Regular-74" transform="translate(55.599991 0)"/>
     <use xlink:href="#STIXGeneral-Regular-61" transform="translate(83.399979 0)"/>
     <use xlink:href="#STIXGeneral-Regular-67" transform="translate(127.799973 0)"/>
     <use xlink:href="#STIXGeneral-Regular-65" transform="translate(177.799957 0)"/>
     <use xlink:href="#STIXGeneral-Regular-20" transform="translate(222.199951 0)"/>
     <use xlink:href="#STIXGeneral-Regular-32" transform="translate(247.199936 0)"/>
     <use xlink:href="#STIXGeneral-Regular-20" transform="translate(297.199921 0)"/>
     <use xlink:href="#STIXGeneral-Regular-6f" transform="translate(322.199905 0)"/>
     <use xlink:href="#STIXGeneral-Regular-70" transform="translate(372.19989 0)"/>
     <use xlink:href="#STIXGeneral-Regular-74" transform="translate(422.199875 0)"/>
     <use xlink:href="#STIXGeneral-Regular-69" transform="translate(449.999863 0)"/>
     <use xlink:href="#STIXGeneral-Regular-6f" transform="translate(477.79985 0)"/>
     <use xlink:href="#STIXGeneral-Regular-6e" transform="translate(527.799835 0)"/>
     <use xlink:href="#STIXGeneral-Regular-61" transform="translate(577.79982 0)"/>
     <use xlink:href="#STIXGeneral-Regular-6c" transform="translate(622.199814 0)"/>
    </g>
    <!-- budgeted subset search -->
    <g style="fill: #0f172a" transform="translate(738.726078 113.205) scale(0.1 -0.1)">
     <use xlink:href="#STIXGeneral-Regular-62"/>
     <use xlink:href="#STIXGeneral-Regular-75" transform="translate(49.999985 0)"/>
     <use xlink:href="#STIXGeneral-Regular-64" transform="translate(99.999969 0)"/>
     <use xlink:href="#STIXGeneral-Regular-67" transform="translate(149.999954 0)"/>
     <use xlink:href="#STIXGeneral-Regular-65" transform="translate(199.999939 0)"/>
     <use xlink:href="#STIXGeneral-Regular-74" transform="translate(244.399933 0)"/>
     <use xlink:href="#STIXGeneral-Regular-65" transform="translate(272.199921 0)"/>
     <use xlink:href="#STIXGeneral-Regular-64" transform="translate(316.599915 0)"/>
     <use xlink:href="#STIXGeneral-Regular-20" transform="translate(366.599899 0)"/>
     <use xlink:href="#STIXGeneral-Regular-73" transform="translate(391.599884 0)"/>
     <use xlink:href="#STIXGeneral-Regular-75" transform="translate(430.499878 0)"/>
     <use xlink:href="#STIXGeneral-Regular-62" transform="translate(480.499863 0)"/>
     <use xlink:href="#STIXGeneral-Regular-73" transform="translate(530.499847 0)"/>
     <use xlink:href="#STIXGeneral-Regular-65" transform="translate(569.399841 0)"/>
     <use xlink:href="#STIXGeneral-Regular-74" transform="translate(613.799835 0)"/>
     <use xlink:href="#STIXGeneral-Regular-20" transform="translate(641.599823 0)"/>
     <use xlink:href="#STIXGeneral-Regular-73" transform="translate(666.599808 0)"/>
     <use xlink:href="#STIXGeneral-Regular-65" transform="translate(705.499802 0)"/>
     <use xlink:href="#STIXGeneral-Regular-61" transform="translate(749.899796 0)"/>
     <use xlink:href="#STIXGeneral-Regular-72" transform="translate(794.299789 0)"/>
     <use xlink:href="#STIXGeneral-Regular-63" transform="translate(827.599777 0)"/>
     <use xlink:href="#STIXGeneral-Regular-68" transform="translate(871.999771 0)"/>
    </g>
    <!-- (FIM surrogate + residuals) -->
    <g style="fill: #0f172a" transform="translate(729.052641 123.238828) scale(0.1 -0.1)">
     <defs>
      <path id="STIXGeneral-Regular-46" d="M 3494 3322 
L 3334 3322 
Q 3264 3757 3094 3875 
Q 2925 3994 2349 3994 
L 1504 3994 
Q 1370 3994 1328 3946 
Q 1286 3898 1286 3744 
L 1286 2355 
L 2195 2355 
Q 2598 2355 2736 2470 
Q 2874 2586 2918 2963 
L 3066 2963 
L 3066 1472 
L 2918 1472 
Q 2880 1862 2745 1977 
Q 2611 2093 2195 2093 
L 1286 2093 
L 1286 717 
Q 1286 352 1392 246 
Q 1498 141 1869 122 
L 1869 0 
L 70 0 
L 70 122 
Q 435 147 534 259 
Q 634 371 634 787 
L 634 3526 
Q 634 3878 538 3984 
Q 442 4090 77 4115 
L 77 4237 
L 3462 4237 
L 3494 3322 
z
" transform="scale(0.015625)"/>
     </defs>
     <use xlink:href="#STIXGeneral-Regular-28"/>
     <use xlink:href="#STIXGeneral-Regular-46" transform="translate(33.299988 0)"/>
     <use xlink:href="#STIXGeneral-Regular-49" transform="translate(88.899979 0)"/>
     <use xlink:href="#STIXGeneral-Regular-4d" transform="translate(122.199966 0)"/>
     <use xlink:href="#STIXGeneral-Regular-20" transform="translate(211.09996 0)"/>
     <use xlink:href="#STIXGeneral-Regular-73" transform="translate(236.099945 0)"/>
     <use xlink:href="#STIXGeneral-Regular-75" transform="translate(274.999939 0)"/>
     <use xlink:href="#STIXGeneral-Regular-72" transform="translate(324.999924 0)"/>
     <use xlink:href="#STIXGeneral-Regular-72" transform="translate(358.299911 0)"/>
     <use xlink:href="#STIXGeneral-Regular-6f" transform="translate(391.599899 0)"/>
     <use xlink:href="#STIXGeneral-Regular-67" transform="translate(441.599884 0)"/>
     <use xlink:href="#STIXGeneral-Regular-61" transform="translate(491.599869 0)"/>
     <use xlink:href="#STIXGeneral-Regular-74" transform="translate(535.999863 0)"/>
     <use xlink:href="#STIXGeneral-Regular-65" transform="translate(563.79985 0)"/>
     <use xlink:href="#STIXGeneral-Regular-20" transform="translate(608.199844 0)"/>
     <use xlink:href="#STIXGeneral-Regular-2b" transform="translate(633.199829 0)"/>
     <use xlink:href="#STIXGeneral-Regular-20" transform="translate(701.699814 0)"/>
     <use xlink:href="#STIXGeneral-Regular-72" transform="translate(726.699799 0)"/>
     <use xlink:href="#STIXGeneral-Regular-65" transform="translate(759.999786 0)"/>
     <use xlink:href="#STIXGeneral-Regular-73" transform="translate(804.39978 0)"/>
     <use xlink:href="#STIXGeneral-Regular-69" transform="translate(843.299774 0)"/>
     <use xlink:href="#STIXGeneral-Regular-64" transform="translate(871.099762 0)"/>
     <use xlink:href="#STIXGeneral-Regular-75" transform="translate(921.099747 0)"/>
     <use xlink:href="#STIXGeneral-Regular-61" transform="translate(971.099731 0)"/>
     <use xlink:href="#STIXGeneral-Regular-6c" transform="translate(1015.499725 0)"/>
     <use xlink:href="#STIXGeneral-Regular-73" transform="translate(1043.299713 0)"/>
     <use xlink:href="#STIXGeneral-Regular-29" transform="translate(1082.199707 0)"/>
    </g>
   </g>
   <g id="text_7">
    <!-- Output cue for -->
    <g style="fill: #0f172a" transform="translate(755.668266 242.495859) scale(0.1 -0.1)">
     <defs>
      <path id="STIXGeneral-Regular-4f" d="M 4403 2118 
Q 4403 1133 3820 521 
Q 3238 -90 2310 -90 
Q 1376 -90 797 524 
Q 218 1139 218 2138 
Q 218 3110 797 3718 
Q 1376 4326 2310 4326 
Q 3245 4326 3824 3702 
Q 4403 3078 4403 2118 
z
M 3674 2157 
Q 3674 2701 3520 3133 
Q 3366 3565 3091 3795 
Q 2733 4096 2304 4096 
Q 1760 4096 1389 3667 
Q 1184 3437 1065 3011 
Q 947 2586 947 2125 
Q 947 960 1523 429 
Q 1837 141 2317 141 
Q 2816 141 3142 448 
Q 3674 960 3674 2157 
z
" transform="scale(0.015625)"/>
     </defs>
     <use xlink:href="#STIXGeneral-Regular-4f"/>
     <use xlink:href="#STIXGeneral-Regular-75" transform="translate(72.199982 0)"/>
     <use xlink:href="#STIXGeneral-Regular-74" transform="translate(122.199966 0)"/>
     <use xlink:href="#STIXGeneral-Regular-70" transform="translate(149.999954 0)"/>
     <use xlink:href="#STIXGeneral-Regular-75" transform="translate(199.999939 0)"/>
     <use xlink:href="#STIXGeneral-Regular-74" transform="translate(249.999924 0)"/>
     <use xlink:href="#STIXGeneral-Regular-20" transform="translate(277.799911 0)"/>
     <use xlink:href="#STIXGeneral-Regular-63" transform="translate(302.799896 0)"/>
     <use xlink:href="#STIXGeneral-Regular-75" transform="translate(347.19989 0)"/>
     <use xlink:href="#STIXGeneral-Regular-65" transform="translate(397.199875 0)"/>
     <use xlink:href="#STIXGeneral-Regular-20" transform="translate(441.599869 0)"/>
     <use xlink:href="#STIXGeneral-Regular-66" transform="translate(466.599854 0)"/>
     <use xlink:href="#STIXGeneral-Regular-6f" transform="translate(499.899841 0)"/>
     <use xlink:href="#STIXGeneral-Regular-72" transform="translate(549.899826 0)"/>
    </g>
    <!-- tracking / handoff / -->
    <g style="fill: #0f172a" transform="translate(746.363578 252.520312) scale(0.1 -0.1)">
     <defs>
      <path id="STIXGeneral-Regular-6b" d="M 3232 0 
L 1837 0 
L 1837 96 
L 1958 96 
Q 2093 96 2093 192 
Q 2093 250 2022 339 
L 1062 1606 
L 1062 429 
Q 1062 262 1142 185 
Q 1222 109 1414 102 
L 1542 96 
L 1542 0 
L 45 0 
L 45 96 
Q 390 154 457 214 
Q 525 275 525 525 
L 525 3610 
Q 525 3840 467 3920 
Q 410 4000 250 4000 
Q 211 4000 45 3987 
L 45 4090 
L 237 4141 
Q 621 4243 1037 4371 
L 1062 4358 
L 1062 1670 
L 1939 2451 
Q 2086 2586 2086 2675 
Q 2086 2739 2019 2761 
Q 1952 2784 1766 2790 
L 1766 2880 
L 3072 2880 
L 3072 2784 
Q 2752 2784 2505 2646 
Q 2259 2509 1690 1978 
L 1504 1805 
L 2483 563 
Q 2829 122 3232 96 
L 3232 0 
z
" transform="scale(0.015625)"/>
     </defs>
     <use xlink:href="#STIXGeneral-Regular-74"/>
     <use xlink:href="#STIXGeneral-Regular-72" transform="translate(27.799988 0)"/>
     <use xlink:href="#STIXGeneral-Regular-61" transform="translate(61.099976 0)"/>
     <use xlink:href="#STIXGeneral-Regular-63" transform="translate(105.499969 0)"/>
     <use xlink:href="#STIXGeneral-Regular-6b" transform="translate(149.899963 0)"/>
     <use xlink:href="#STIXGeneral-Regular-69" transform="translate(199.899948 0)"/>
     <use xlink:href="#STIXGeneral-Regular-6e" transform="translate(227.699936 0)"/>
     <use xlink:href="#STIXGeneral-Regular-67" transform="translate(277.699921 0)"/>
     <use xlink:href="#STIXGeneral-Regular-20" transform="translate(327.699905 0)"/>
     <use xlink:href="#STIXGeneral-Regular-2f" transform="translate(352.69989 0)"/>
     <use xlink:href="#STIXGeneral-Regular-20" transform="translate(380.499878 0)"/>
     <use xlink:href="#STIXGeneral-Regular-68" transform="translate(405.499863 0)"/>
     <use xlink:href="#STIXGeneral-Regular-61" transform="translate(455.499847 0)"/>
     <use xlink:href="#STIXGeneral-Regular-6e" transform="translate(499.899841 0)"/>
     <use xlink:href="#STIXGeneral-Regular-64" transform="translate(549.899826 0)"/>
     <use xlink:href="#STIXGeneral-Regular-6f" transform="translate(599.899811 0)"/>
     <use xlink:href="#STIXGeneral-Regular-66" transform="translate(649.899796 0)"/>
     <use xlink:href="#STIXGeneral-Regular-66" transform="translate(683.199783 0)"/>
     <use xlink:href="#STIXGeneral-Regular-20" transform="translate(716.499771 0)"/>
     <use xlink:href="#STIXGeneral-Regular-2f" transform="translate(741.499756 0)"/>
    </g>
    <!-- replanning -->
    <g style="fill: #0f172a" transform="translate(763.443266 262.554141) scale(0.1 -0.1)">
     <use xlink:href="#STIXGeneral-Regular-72"/>
     <use xlink:href="#STIXGeneral-Regular-65" transform="translate(33.299988 0)"/>
     <use xlink:href="#STIXGeneral-Regular-70" transform="translate(77.699982 0)"/>
     <use xlink:href="#STIXGeneral-Regular-6c" transform="translate(127.699966 0)"/>
     <use xlink:href="#STIXGeneral-Regular-61" transform="translate(155.499954 0)"/>
     <use xlink:href="#STIXGeneral-Regular-6e" transform="translate(199.899948 0)"/>
     <use xlink:href="#STIXGeneral-Regular-6e" transform="translate(249.899933 0)"/>
     <use xlink:href="#STIXGeneral-Regular-69" transform="translate(299.899918 0)"/>
     <use xlink:href="#STIXGeneral-Regular-6e" transform="translate(327.699905 0)"/>
     <use xlink:href="#STIXGeneral-Regular-67" transform="translate(377.69989 0)"/>
    </g>
   </g>
   <g id="text_8">
    <!-- Stage 1 is the core contribution; Stage 2 is only activated when budget or credibility dispersion justifies pruning. -->
    <g style="fill: #78350f" transform="translate(380.594009 54.9315) scale(0.102 -0.102)">
     <defs>
      <path id="STIXGeneral-Regular-31" d="M 2522 0 
L 755 0 
L 755 96 
Q 1107 115 1235 227 
Q 1363 339 1363 608 
L 1363 3482 
Q 1363 3795 1171 3795 
Q 1082 3795 883 3718 
L 710 3654 
L 710 3744 
L 1856 4326 
L 1914 4307 
L 1914 486 
Q 1914 275 2042 185 
Q 2170 96 2522 96 
L 2522 0 
z
" transform="scale(0.015625)"/>
      <path id="STIXGeneral-Regular-3b" d="M 1116 2832 
Q 1222 2726 1222 2579 
Q 1222 2432 1116 2329 
Q 1011 2227 870 2227 
Q 723 2227 617 2332 
Q 512 2438 512 2579 
Q 512 2733 614 2835 
Q 717 2938 870 2938 
Q 1011 2938 1116 2832 
z
M 685 -902 
L 621 -781 
Q 1152 -435 1152 -102 
Q 1152 -70 1126 -41 
Q 1101 -13 1062 -13 
Q 1043 -13 979 -25 
Q 915 -38 883 -38 
Q 512 -38 512 294 
Q 512 448 621 550 
Q 730 653 890 653 
Q 1107 653 1254 496 
Q 1402 339 1402 83 
Q 1402 -218 1210 -480 
Q 1018 -742 685 -902 
z
" transform="scale(0.015625)"/>
      <path id="STIXGeneral-Regular-76" d="M 3053 2880 
L 3053 2784 
Q 2906 2771 2835 2688 
Q 2765 2605 2637 2285 
L 1818 230 
Q 1690 -90 1638 -90 
Q 1587 -90 1523 77 
Q 1510 96 1497 141 
Q 1485 186 1472 211 
L 704 2048 
Q 499 2534 403 2652 
Q 307 2771 122 2784 
L 122 2880 
L 1376 2880 
L 1376 2784 
Q 1210 2771 1146 2732 
Q 1082 2694 1082 2611 
Q 1082 2509 1139 2368 
L 1792 730 
L 2426 2387 
Q 2464 2483 2464 2579 
Q 2464 2758 2163 2784 
L 2163 2880 
L 3053 2880 
z
" transform="scale(0.015625)"/>
      <path id="STIXGeneral-Regular-6a" d="M 1242 4045 
Q 1242 3904 1146 3811 
Q 1050 3718 909 3718 
Q 774 3718 681 3811 
Q 589 3904 589 4045 
Q 589 4179 685 4275 
Q 781 4371 915 4371 
Q 1050 4371 1146 4275 
Q 1242 4179 1242 4045 
z
M 1235 2925 
L 1235 0 
Q 1235 -685 956 -1040 
Q 678 -1395 147 -1395 
Q -115 -1395 -281 -1296 
Q -448 -1197 -448 -1043 
Q -448 -941 -371 -867 
Q -294 -794 -186 -794 
Q -38 -794 122 -998 
Q 269 -1178 390 -1178 
Q 538 -1178 608 -1062 
Q 698 -902 698 -288 
L 698 2138 
Q 698 2522 493 2522 
Q 339 2522 237 2502 
L 205 2496 
L 205 2598 
Q 717 2758 1203 2944 
L 1235 2925 
z
" transform="scale(0.015625)"/>
      <path id="STIXGeneral-Regular-2e" d="M 1158 275 
Q 1158 134 1052 32 
Q 947 -70 800 -70 
Q 653 -70 550 32 
Q 448 134 448 281 
Q 448 429 553 534 
Q 659 640 806 640 
Q 947 640 1052 531 
Q 1158 422 1158 275 
z
" transform="scale(0.015625)"/>
     </defs>
     <use xlink:href="#STIXGeneral-Regular-53"/>
     <use xlink:href="#STIXGeneral-Regular-74" transform="translate(55.599991 0)"/>
     <use xlink:href="#STIXGeneral-Regular-61" transform="translate(83.399979 0)"/>
     <use xlink:href="#STIXGeneral-Regular-67" transform="translate(127.799973 0)"/>
     <use xlink:href="#STIXGeneral-Regular-65" transform="translate(177.799957 0)"/>
     <use xlink:href="#STIXGeneral-Regular-20" transform="translate(222.199951 0)"/>
     <use xlink:href="#STIXGeneral-Regular-31" transform="translate(247.199936 0)"/>
     <use xlink:href="#STIXGeneral-Regular-20" transform="translate(297.199921 0)"/>
     <use xlink:href="#STIXGeneral-Regular-69" transform="translate(322.199905 0)"/>
     <use xlink:href="#STIXGeneral-Regular-73" transform="translate(349.999893 0)"/>
     <use xlink:href="#STIXGeneral-Regular-20" transform="translate(388.899887 0)"/>
     <use xlink:href="#STIXGeneral-Regular-74" transform="translate(413.899872 0)"/>
     <use xlink:href="#STIXGeneral-Regular-68" transform="translate(441.69986 0)"/>
     <use xlink:href="#STIXGeneral-Regular-65" transform="translate(491.699844 0)"/>
     <use xlink:href="#STIXGeneral-Regular-20" transform="translate(536.099838 0)"/>
     <use xlink:href="#STIXGeneral-Regular-63" transform="translate(561.099823 0)"/>
     <use xlink:href="#STIXGeneral-Regular-6f" transform="translate(605.499817 0)"/>
     <use xlink:href="#STIXGeneral-Regular-72" transform="translate(655.499802 0)"/>
     <use xlink:href="#STIXGeneral-Regular-65" transform="translate(688.799789 0)"/>
     <use xlink:href="#STIXGeneral-Regular-20" transform="translate(733.199783 0)"/>
     <use xlink:href="#STIXGeneral-Regular-63" transform="translate(758.199768 0)"/>
     <use xlink:href="#STIXGeneral-Regular-6f" transform="translate(802.599762 0)"/>
     <use xlink:href="#STIXGeneral-Regular-6e" transform="translate(852.599747 0)"/>
     <use xlink:href="#STIXGeneral-Regular-74" transform="translate(902.599731 0)"/>
     <use xlink:href="#STIXGeneral-Regular-72" transform="translate(930.399719 0)"/>
     <use xlink:href="#STIXGeneral-Regular-69" transform="translate(963.699707 0)"/>
     <use xlink:href="#STIXGeneral-Regular-62" transform="translate(991.499695 0)"/>
     <use xlink:href="#STIXGeneral-Regular-75" transform="translate(1041.49968 0)"/>
     <use xlink:href="#STIXGeneral-Regular-74" transform="translate(1091.499664 0)"/>
     <use xlink:href="#STIXGeneral-Regular-69" transform="translate(1119.299652 0)"/>
     <use xlink:href="#STIXGeneral-Regular-6f" transform="translate(1147.09964 0)"/>
     <use xlink:href="#STIXGeneral-Regular-6e" transform="translate(1197.099625 0)"/>
     <use xlink:href="#STIXGeneral-Regular-3b" transform="translate(1247.099609 0)"/>
     <use xlink:href="#STIXGeneral-Regular-20" transform="translate(1274.899597 0)"/>
     <use xlink:href="#STIXGeneral-Regular-53" transform="translate(1299.899582 0)"/>
     <use xlink:href="#STIXGeneral-Regular-74" transform="translate(1355.499573 0)"/>
     <use xlink:href="#STIXGeneral-Regular-61" transform="translate(1383.299561 0)"/>
     <use xlink:href="#STIXGeneral-Regular-67" transform="translate(1427.699554 0)"/>
     <use xlink:href="#STIXGeneral-Regular-65" transform="translate(1477.699539 0)"/>
     <use xlink:href="#STIXGeneral-Regular-20" transform="translate(1522.099533 0)"/>
     <use xlink:href="#STIXGeneral-Regular-32" transform="translate(1547.099518 0)"/>
     <use xlink:href="#STIXGeneral-Regular-20" transform="translate(1597.099503 0)"/>
     <use xlink:href="#STIXGeneral-Regular-69" transform="translate(1622.099487 0)"/>
     <use xlink:href="#STIXGeneral-Regular-73" transform="translate(1649.899475 0)"/>
     <use xlink:href="#STIXGeneral-Regular-20" transform="translate(1688.799469 0)"/>
     <use xlink:href="#STIXGeneral-Regular-6f" transform="translate(1713.799454 0)"/>
     <use xlink:href="#STIXGeneral-Regular-6e" transform="translate(1763.799438 0)"/>
     <use xlink:href="#STIXGeneral-Regular-6c" transform="translate(1813.799423 0)"/>
     <use xlink:href="#STIXGeneral-Regular-79" transform="translate(1841.599411 0)"/>
     <use xlink:href="#STIXGeneral-Regular-20" transform="translate(1891.599396 0)"/>
     <use xlink:href="#STIXGeneral-Regular-61" transform="translate(1916.59938 0)"/>
     <use xlink:href="#STIXGeneral-Regular-63" transform="translate(1960.999374 0)"/>
     <use xlink:href="#STIXGeneral-Regular-74" transform="translate(2005.399368 0)"/>
     <use xlink:href="#STIXGeneral-Regular-69" transform="translate(2033.199356 0)"/>
     <use xlink:href="#STIXGeneral-Regular-76" transform="translate(2060.999344 0)"/>
     <use xlink:href="#STIXGeneral-Regular-61" transform="translate(2110.999329 0)"/>
     <use xlink:href="#STIXGeneral-Regular-74" transform="translate(2155.399323 0)"/>
     <use xlink:href="#STIXGeneral-Regular-65" transform="translate(2183.19931 0)"/>
     <use xlink:href="#STIXGeneral-Regular-64" transform="translate(2227.599304 0)"/>
     <use xlink:href="#STIXGeneral-Regular-20" transform="translate(2277.599289 0)"/>
     <use xlink:href="#STIXGeneral-Regular-77" transform="translate(2302.599274 0)"/>
     <use xlink:href="#STIXGeneral-Regular-68" transform="translate(2374.799255 0)"/>
     <use xlink:href="#STIXGeneral-Regular-65" transform="translate(2424.79924 0)"/>
     <use xlink:href="#STIXGeneral-Regular-6e" transform="translate(2469.199234 0)"/>
     <use xlink:href="#STIXGeneral-Regular-20" transform="translate(2519.199219 0)"/>
     <use xlink:href="#STIXGeneral-Regular-62" transform="translate(2544.199203 0)"/>
     <use xlink:href="#STIXGeneral-Regular-75" transform="translate(2594.199188 0)"/>
     <use xlink:href="#STIXGeneral-Regular-64" transform="translate(2644.199173 0)"/>
     <use xlink:href="#STIXGeneral-Regular-67" transform="translate(2694.199158 0)"/>
     <use xlink:href="#STIXGeneral-Regular-65" transform="translate(2744.199142 0)"/>
     <use xlink:href="#STIXGeneral-Regular-74" transform="translate(2788.599136 0)"/>
     <use xlink:href="#STIXGeneral-Regular-20" transform="translate(2816.399124 0)"/>
     <use xlink:href="#STIXGeneral-Regular-6f" transform="translate(2841.399109 0)"/>
     <use xlink:href="#STIXGeneral-Regular-72" transform="translate(2891.399094 0)"/>
     <use xlink:href="#STIXGeneral-Regular-20" transform="translate(2924.699081 0)"/>
     <use xlink:href="#STIXGeneral-Regular-63" transform="translate(2949.699066 0)"/>
     <use xlink:href="#STIXGeneral-Regular-72" transform="translate(2994.09906 0)"/>
     <use xlink:href="#STIXGeneral-Regular-65" transform="translate(3027.399048 0)"/>
     <use xlink:href="#STIXGeneral-Regular-64" transform="translate(3071.799042 0)"/>
     <use xlink:href="#STIXGeneral-Regular-69" transform="translate(3121.799026 0)"/>
     <use xlink:href="#STIXGeneral-Regular-62" transform="translate(3149.599014 0)"/>
     <use xlink:href="#STIXGeneral-Regular-69" transform="translate(3199.598999 0)"/>
     <use xlink:href="#STIXGeneral-Regular-6c" transform="translate(3227.398987 0)"/>
     <use xlink:href="#STIXGeneral-Regular-69" transform="translate(3255.198975 0)"/>
     <use xlink:href="#STIXGeneral-Regular-74" transform="translate(3282.998962 0)"/>
     <use xlink:href="#STIXGeneral-Regular-79" transform="translate(3310.79895 0)"/>
     <use xlink:href="#STIXGeneral-Regular-20" transform="translate(3360.798935 0)"/>
     <use xlink:href="#STIXGeneral-Regular-64" transform="translate(3385.79892 0)"/>
     <use xlink:href="#STIXGeneral-Regular-69" transform="translate(3435.798904 0)"/>
     <use xlink:href="#STIXGeneral-Regular-73" transform="translate(3463.598892 0)"/>
     <use xlink:href="#STIXGeneral-Regular-70" transform="translate(3502.498886 0)"/>
     <use xlink:href="#STIXGeneral-Regular-65" transform="translate(3552.498871 0)"/>
     <use xlink:href="#STIXGeneral-Regular-72" transform="translate(3596.898865 0)"/>
     <use xlink:href="#STIXGeneral-Regular-73" transform="translate(3630.198853 0)"/>
     <use xlink:href="#STIXGeneral-Regular-69" transform="translate(3669.098846 0)"/>
     <use xlink:href="#STIXGeneral-Regular-6f" transform="translate(3696.898834 0)"/>
     <use xlink:href="#STIXGeneral-Regular-6e" transform="translate(3746.898819 0)"/>
     <use xlink:href="#STIXGeneral-Regular-20" transform="translate(3796.898804 0)"/>
     <use xlink:href="#STIXGeneral-Regular-6a" transform="translate(3821.898788 0)"/>
     <use xlink:href="#STIXGeneral-Regular-75" transform="translate(3849.698776 0)"/>
     <use xlink:href="#STIXGeneral-Regular-73" transform="translate(3899.698761 0)"/>
     <use xlink:href="#STIXGeneral-Regular-74" transform="translate(3938.598755 0)"/>
     <use xlink:href="#STIXGeneral-Regular-69" transform="translate(3966.398743 0)"/>
     <use xlink:href="#STIXGeneral-Regular-66" transform="translate(3994.19873 0)"/>
     <use xlink:href="#STIXGeneral-Regular-69" transform="translate(4027.498718 0)"/>
     <use xlink:href="#STIXGeneral-Regular-65" transform="translate(4055.298706 0)"/>
     <use xlink:href="#STIXGeneral-Regular-73" transform="translate(4099.6987 0)"/>
     <use xlink:href="#STIXGeneral-Regular-20" transform="translate(4138.598694 0)"/>
     <use xlink:href="#STIXGeneral-Regular-70" transform="translate(4163.598679 0)"/>
     <use xlink:href="#STIXGeneral-Regular-72" transform="translate(4213.598663 0)"/>
     <use xlink:href="#STIXGeneral-Regular-75" transform="translate(4246.898651 0)"/>
     <use xlink:href="#STIXGeneral-Regular-6e" transform="translate(4296.898636 0)"/>
     <use xlink:href="#STIXGeneral-Regular-69" transform="translate(4346.898621 0)"/>
     <use xlink:href="#STIXGeneral-Regular-6e" transform="translate(4374.698608 0)"/>
     <use xlink:href="#STIXGeneral-Regular-67" transform="translate(4424.698593 0)"/>
     <use xlink:href="#STIXGeneral-Regular-2e" transform="translate(4474.698578 0)"/>
    </g>
   </g>
   <g id="text_9">
    <!-- Outputs are current-cycle localization cues, not a full autonomy stack or distributed swarm planner. -->
    <g style="fill: #475569" transform="translate(411.086712 317.325) scale(0.1 -0.1)">
     <defs>
      <path id="STIXGeneral-Regular-7a" d="M 2675 870 
L 2579 0 
L 173 0 
L 173 96 
L 1875 2688 
L 1011 2688 
Q 710 2688 604 2582 
Q 499 2477 454 2125 
L 339 2125 
L 365 2880 
L 2579 2880 
L 2579 2784 
L 858 192 
L 1709 192 
Q 2246 192 2387 365 
Q 2477 474 2560 896 
L 2675 870 
z
" transform="scale(0.015625)"/>
      <path id="STIXGeneral-Regular-2c" d="M 531 -902 
L 467 -781 
Q 998 -422 998 -96 
Q 998 -13 909 -13 
Q 883 -13 822 -25 
Q 762 -38 723 -38 
Q 352 -38 352 288 
Q 352 454 457 553 
Q 563 653 736 653 
Q 954 653 1101 496 
Q 1248 339 1248 96 
Q 1248 -198 1053 -473 
Q 858 -749 531 -902 
z
" transform="scale(0.015625)"/>
     </defs>
     <use xlink:href="#STIXGeneral-Regular-4f"/>
     <use xlink:href="#STIXGeneral-Regular-75" transform="translate(72.199982 0)"/>
     <use xlink:href="#STIXGeneral-Regular-74" transform="translate(122.199966 0)"/>
     <use xlink:href="#STIXGeneral-Regular-70" transform="translate(149.999954 0)"/>
     <use xlink:href="#STIXGeneral-Regular-75" transform="translate(199.999939 0)"/>
     <use xlink:href="#STIXGeneral-Regular-74" transform="translate(249.999924 0)"/>
     <use xlink:href="#STIXGeneral-Regular-73" transform="translate(277.799911 0)"/>
     <use xlink:href="#STIXGeneral-Regular-20" transform="translate(316.699905 0)"/>
     <use xlink:href="#STIXGeneral-Regular-61" transform="translate(341.69989 0)"/>
     <use xlink:href="#STIXGeneral-Regular-72" transform="translate(386.099884 0)"/>
     <use xlink:href="#STIXGeneral-Regular-65" transform="translate(419.399872 0)"/>
     <use xlink:href="#STIXGeneral-Regular-20" transform="translate(463.799866 0)"/>
     <use xlink:href="#STIXGeneral-Regular-63" transform="translate(488.79985 0)"/>
     <use xlink:href="#STIXGeneral-Regular-75" transform="translate(533.199844 0)"/>
     <use xlink:href="#STIXGeneral-Regular-72" transform="translate(583.199829 0)"/>
     <use xlink:href="#STIXGeneral-Regular-72" transform="translate(616.499817 0)"/>
     <use xlink:href="#STIXGeneral-Regular-65" transform="translate(649.799805 0)"/>
     <use xlink:href="#STIXGeneral-Regular-6e" transform="translate(694.199799 0)"/>
     <use xlink:href="#STIXGeneral-Regular-74" transform="translate(744.199783 0)"/>
     <use xlink:href="#STIXGeneral-Regular-2d" transform="translate(771.999771 0)"/>
     <use xlink:href="#STIXGeneral-Regular-63" transform="translate(805.299759 0)"/>
     <use xlink:href="#STIXGeneral-Regular-79" transform="translate(849.699753 0)"/>
     <use xlink:href="#STIXGeneral-Regular-63" transform="translate(899.699738 0)"/>
     <use xlink:href="#STIXGeneral-Regular-6c" transform="translate(944.099731 0)"/>
     <use xlink:href="#STIXGeneral-Regular-65" transform="translate(971.899719 0)"/>
     <use xlink:href="#STIXGeneral-Regular-20" transform="translate(1016.299713 0)"/>
     <use xlink:href="#STIXGeneral-Regular-6c" transform="translate(1041.299698 0)"/>
     <use xlink:href="#STIXGeneral-Regular-6f" transform="translate(1069.099686 0)"/>
     <use xlink:href="#STIXGeneral-Regular-63" transform="translate(1119.09967 0)"/>
     <use xlink:href="#STIXGeneral-Regular-61" transform="translate(1163.499664 0)"/>
     <use xlink:href="#STIXGeneral-Regular-6c" transform="translate(1207.899658 0)"/>
     <use xlink:href="#STIXGeneral-Regular-69" transform="translate(1235.699646 0)"/>
     <use xlink:href="#STIXGeneral-Regular-7a" transform="translate(1263.499634 0)"/>
     <use xlink:href="#STIXGeneral-Regular-61" transform="translate(1307.899628 0)"/>
     <use xlink:href="#STIXGeneral-Regular-74" transform="translate(1352.299622 0)"/>
     <use xlink:href="#STIXGeneral-Regular-69" transform="translate(1380.099609 0)"/>
     <use xlink:href="#STIXGeneral-Regular-6f" transform="translate(1407.899597 0)"/>
     <use xlink:href="#STIXGeneral-Regular-6e" transform="translate(1457.899582 0)"/>
     <use xlink:href="#STIXGeneral-Regular-20" transform="translate(1507.899567 0)"/>
     <use xlink:href="#STIXGeneral-Regular-63" transform="translate(1532.899551 0)"/>
     <use xlink:href="#STIXGeneral-Regular-75" transform="translate(1577.299545 0)"/>
     <use xlink:href="#STIXGeneral-Regular-65" transform="translate(1627.29953 0)"/>
     <use xlink:href="#STIXGeneral-Regular-73" transform="translate(1671.699524 0)"/>
     <use xlink:href="#STIXGeneral-Regular-2c" transform="translate(1710.599518 0)"/>
     <use xlink:href="#STIXGeneral-Regular-20" transform="translate(1735.599503 0)"/>
     <use xlink:href="#STIXGeneral-Regular-6e" transform="translate(1760.599487 0)"/>
     <use xlink:href="#STIXGeneral-Regular-6f" transform="translate(1810.599472 0)"/>
     <use xlink:href="#STIXGeneral-Regular-74" transform="translate(1860.599457 0)"/>
     <use xlink:href="#STIXGeneral-Regular-20" transform="translate(1888.399445 0)"/>
     <use xlink:href="#STIXGeneral-Regular-61" transform="translate(1913.399429 0)"/>
     <use xlink:href="#STIXGeneral-Regular-20" transform="translate(1957.799423 0)"/>
     <use xlink:href="#STIXGeneral-Regular-66" transform="translate(1982.799408 0)"/>
     <use xlink:href="#STIXGeneral-Regular-75" transform="translate(2016.099396 0)"/>
     <use xlink:href="#STIXGeneral-Regular-6c" transform="translate(2066.09938 0)"/>
     <use xlink:href="#STIXGeneral-Regular-6c" transform="translate(2093.899368 0)"/>
     <use xlink:href="#STIXGeneral-Regular-20" transform="translate(2121.699356 0)"/>
     <use xlink:href="#STIXGeneral-Regular-61" transform="translate(2146.699341 0)"/>
     <use xlink:href="#STIXGeneral-Regular-75" transform="translate(2191.099335 0)"/>
     <use xlink:href="#STIXGeneral-Regular-74" transform="translate(2241.099319 0)"/>
     <use xlink:href="#STIXGeneral-Regular-6f" transform="translate(2268.899307 0)"/>
     <use xlink:href="#STIXGeneral-Regular-6e" transform="translate(2318.899292 0)"/>
     <use xlink:href="#STIXGeneral-Regular-6f" transform="translate(2368.899277 0)"/>
     <use xlink:href="#STIXGeneral-Regular-6d" transform="translate(2418.899261 0)"/>
     <use xlink:href="#STIXGeneral-Regular-79" transform="translate(2496.699249 0)"/>
     <use xlink:href="#STIXGeneral-Regular-20" transform="translate(2546.699234 0)"/>
     <use xlink:href="#STIXGeneral-Regular-73" transform="translate(2571.699219 0)"/>
     <use xlink:href="#STIXGeneral-Regular-74" transform="translate(2610.599213 0)"/>
     <use xlink:href="#STIXGeneral-Regular-61" transform="translate(2638.3992 0)"/>
     <use xlink:href="#STIXGeneral-Regular-63" transform="translate(2682.799194 0)"/>
     <use xlink:href="#STIXGeneral-Regular-6b" transform="translate(2727.199188 0)"/>
     <use xlink:href="#STIXGeneral-Regular-20" transform="translate(2777.199173 0)"/>
     <use xlink:href="#STIXGeneral-Regular-6f" transform="translate(2802.199158 0)"/>
     <use xlink:href="#STIXGeneral-Regular-72" transform="translate(2852.199142 0)"/>
     <use xlink:href="#STIXGeneral-Regular-20" transform="translate(2885.49913 0)"/>
     <use xlink:href="#STIXGeneral-Regular-64" transform="translate(2910.499115 0)"/>
     <use xlink:href="#STIXGeneral-Regular-69" transform="translate(2960.4991 0)"/>
     <use xlink:href="#STIXGeneral-Regular-73" transform="translate(2988.299088 0)"/>
     <use xlink:href="#STIXGeneral-Regular-74" transform="translate(3027.199081 0)"/>
     <use xlink:href="#STIXGeneral-Regular-72" transform="translate(3054.999069 0)"/>
     <use xlink:href="#STIXGeneral-Regular-69" transform="translate(3088.299057 0)"/>
     <use xlink:href="#STIXGeneral-Regular-62" transform="translate(3116.099045 0)"/>
     <use xlink:href="#STIXGeneral-Regular-75" transform="translate(3166.09903 0)"/>
     <use xlink:href="#STIXGeneral-Regular-74" transform="translate(3216.099014 0)"/>
     <use xlink:href="#STIXGeneral-Regular-65" transform="translate(3243.899002 0)"/>
     <use xlink:href="#STIXGeneral-Regular-64" transform="translate(3288.298996 0)"/>
     <use xlink:href="#STIXGeneral-Regular-20" transform="translate(3338.298981 0)"/>
     <use xlink:href="#STIXGeneral-Regular-73" transform="translate(3363.298965 0)"/>
     <use xlink:href="#STIXGeneral-Regular-77" transform="translate(3402.198959 0)"/>
     <use xlink:href="#STIXGeneral-Regular-61" transform="translate(3474.398941 0)"/>
     <use xlink:href="#STIXGeneral-Regular-72" transform="translate(3518.798935 0)"/>
     <use xlink:href="#STIXGeneral-Regular-6d" transform="translate(3552.098923 0)"/>
     <use xlink:href="#STIXGeneral-Regular-20" transform="translate(3629.898911 0)"/>
     <use xlink:href="#STIXGeneral-Regular-70" transform="translate(3654.898895 0)"/>
     <use xlink:href="#STIXGeneral-Regular-6c" transform="translate(3704.89888 0)"/>
     <use xlink:href="#STIXGeneral-Regular-61" transform="translate(3732.698868 0)"/>
     <use xlink:href="#STIXGeneral-Regular-6e" transform="translate(3777.098862 0)"/>
     <use xlink:href="#STIXGeneral-Regular-6e" transform="translate(3827.098846 0)"/>
     <use xlink:href="#STIXGeneral-Regular-65" transform="translate(3877.098831 0)"/>
     <use xlink:href="#STIXGeneral-Regular-72" transform="translate(3921.498825 0)"/>
     <use xlink:href="#STIXGeneral-Regular-2e" transform="translate(3954.798813 0)"/>
    </g>
   </g>
  </g>
 </g>
 <defs>
  <clipPath id="p35f4bf6a36">
   <rect x="7.2" y="7.2" width="873.7398" height="324"/>
  </clipPath>
 </defs>
</svg>
