<?xml version="1.0" encoding="utf-8" standalone="no"?>
<!DOCTYPE svg PUBLIC "-//W3C//DTD SVG 1.1//EN"
  "http://www.w3.org/Graphics/SVG/1.1/DTD/svg11.dtd">
<svg xmlns:xlink="http://www.w3.org/1999/xlink" width="914.4pt" height="295.2pt" viewBox="0 0 914.4 295.2" xmlns="http://www.w3.org/2000/svg" version="1.1">
 <metadata>
  <rdf:RDF xmlns:dc="http://purl.org/dc/elements/1.1/" xmlns:cc="http://creativecommons.org/ns#" xmlns:rdf="http://www.w3.org/1999/02/22-rdf-syntax-ns#">
   <cc:Work>
    <dc:type rdf:resource="http://purl.org/dc/dcmitype/StillImage"/>
    <dc:date>2026-04-19T15:18:39.064763</dc:date>
    <dc:format>image/svg+xml</dc:format>
    <dc:creator>
     <cc:Agent>
      <dc:title>Matplotlib v3.10.8, https://matplotlib.org/</dc:title>
     </cc:Agent>
    </dc:creator>
   </cc:Work>
  </rdf:RDF>
 </metadata>
 <defs>
  <style type="text/css">*{stroke-linejoin: round; stroke-linecap: butt}</style>
 </defs>
 <g id="figure_1">
  <g id="patch_1">
   <path d="M 0 295.2 
L 914.4 295.2 
L 914.4 0 
L 0 0 
z
" style="fill: #ffffff"/>
  </g>
  <g id="axes_1">
   <g id="patch_2">
    <path d="M 38.7 209.376 
L 182.7 209.376 
Q 205.2 209.376 205.2 202.356 
L 205.2 92.844 
Q 205.2 85.824 182.7 85.824 
L 38.7 85.824 
Q 16.2 85.824 16.2 92.844 
L 16.2 202.356 
Q 16.2 209.376 38.7 209.376 
z
" clip-path="url(#p6711b152df)" style="fill: #e2e8f0; stroke: #334155; stroke-width: 1.2; stroke-linejoin: miter"/>
   </g>
   <g id="patch_3">
    <path d="M 227.7 209.376 
L 371.7 209.376 
Q 394.2 209.376 394.2 202.356 
L 394.2 92.844 
Q 394.2 85.824 371.7 85.824 
L 227.7 85.824 
Q 205.2 85.824 205.2 92.844 
L 205.2 202.356 
Q 205.2 209.376 227.7 209.376 
z
" clip-path="url(#p6711b152df)" style="fill: #dbeafe; stroke: #334155; stroke-width: 1.2; stroke-linejoin: miter"/>
   </g>
   <g id="patch_4">
    <path d="M 416.7 248.688 
L 659.7 248.688 
Q 682.2 248.688 682.2 241.668 
L 682.2 53.532 
Q 682.2 46.512 659.7 46.512 
L 416.7 46.512 
Q 394.2 46.512 394.2 53.532 
L 394.2 241.668 
Q 394.2 248.688 416.7 248.688 
z
" clip-path="url(#p6711b152df)" style="fill: #ecfdf5; stroke: #047857; stroke-width: 1.6; stroke-linejoin: miter"/>
   </g>
   <g id="patch_5">
    <path d="M 443.7 158.832 
L 632.7 158.832 
Q 655.2 158.832 655.2 151.812 
L 655.2 92.844 
Q 655.2 85.824 632.7 85.824 
L 443.7 85.824 
Q 421.2 85.824 421.2 92.844 
L 421.2 151.812 
Q 421.2 158.832 443.7 158.832 
z
" clip-path="url(#p6711b152df)" style="fill: #d1fae5; stroke: #0f766e; stroke-width: 1.2; stroke-linejoin: miter"/>
   </g>
   <g id="patch_6">
    <path d="M 443.7 237.456 
L 632.7 237.456 
Q 655.2 237.456 655.2 230.436 
L 655.2 182.7 
Q 655.2 175.68 632.7 175.68 
L 443.7 175.68 
Q 421.2 175.68 421.2 182.7 
L 421.2 230.436 
Q 421.2 237.456 443.7 237.456 
z
" clip-path="url(#p6711b152df)" style="fill: #dcfce7; stroke: #166534; stroke-width: 1.2; stroke-linejoin: miter"/>
   </g>
   <g id="patch_7">
    <path d="M 713.7 175.68 
L 866.7 175.68 
Q 889.2 175.68 889.2 168.66 
L 889.2 120.924 
Q 889.2 113.904 866.7 113.904 
L 713.7 113.904 
Q 691.2 113.904 691.2 120.924 
L 691.2 168.66 
Q 691.2 175.68 713.7 175.68 
z
" clip-path="url(#p6711b152df)" style="fill: #fef3c7; stroke: #b45309; stroke-width: 1.2; stroke-linejoin: miter"/>
   </g>
   <g id="patch_8">
    <path d="M 713.7 254.304 
L 866.7 254.304 
Q 889.2 254.304 889.2 247.284 
L 889.2 199.548 
Q 889.2 192.528 866.7 192.528 
L 713.7 192.528 
Q 691.2 192.528 691.2 199.548 
L 691.2 247.284 
Q 691.2 254.304 713.7 254.304 
z
" clip-path="url(#p6711b152df)" style="fill: #fde68a; stroke: #a16207; stroke-width: 1.2; stroke-linejoin: miter"/>
   </g>
   <g id="patch_9">
    <path d="M 191.203418 147.6 
Q 205.19997 147.6 217.407667 147.6 
" clip-path="url(#p6711b152df)" style="fill: none; stroke: #475569; stroke-width: 1.6; stroke-linecap: round"/>
    <path d="M 212.607667 145.2 
L 217.407667 147.6 
L 212.607667 150 
z
" clip-path="url(#p6711b152df)" style="fill: #475569; stroke: #475569; stroke-width: 1.6; stroke-linecap: round"/>
   </g>
   <g id="patch_10">
    <path d="M 380.203418 147.6 
Q 394.19997 147.6 406.407667 147.6 
" clip-path="url(#p6711b152df)" style="fill: none; stroke: #475569; stroke-width: 1.6; stroke-linecap: round"/>
    <path d="M 401.607667 145.2 
L 406.407667 147.6 
L 401.607667 150 
z
" clip-path="url(#p6711b152df)" style="fill: #475569; stroke: #475569; stroke-width: 1.6; stroke-linecap: round"/>
   </g>
   <g id="patch_11">
    <path d="M 668.20177 147.6 
Q 686.700269 147.6 703.409915 147.6 
" clip-path="url(#p6711b152df)" style="fill: none; stroke: #475569; stroke-width: 1.6; stroke-linecap: round"/>
    <path d="M 698.609915 145.2 
L 703.409915 147.6 
L 698.609915 150 
z
" clip-path="url(#p6711b152df)" style="fill: #475569; stroke: #475569; stroke-width: 1.6; stroke-linecap: round"/>
   </g>
   <g id="patch_12">
    <path d="M 790.2 174.064166 
Q 790.2 184.103799 790.2 192.354577 
" clip-path="url(#p6711b152df)" style="fill: none; stroke: #a16207; stroke-width: 1.6; stroke-linecap: round"/>
    <path d="M 792.6 187.554577 
L 790.2 192.354577 
L 787.8 187.554577 
z
" clip-path="url(#p6711b152df)" style="fill: #a16207; stroke: #a16207; stroke-width: 1.6; stroke-linecap: round"/>
   </g>
   <g id="text_1">
    <!-- Observer Pose Input -->
    <g style="fill: #0f172a" transform="translate(69.86875 139.900547) scale(0.1 -0.1)">
     <defs>
      <path id="STIXGeneral-Regular-4f" d="M 4403 2118 
Q 4403 1133 3820 521 
Q 3238 -90 2310 -90 
Q 1376 -90 797 524 
Q 218 1139 218 2138 
Q 218 3110 797 3718 
Q 1376 4326 2310 4326 
Q 3245 4326 3824 3702 
Q 4403 3078 4403 2118 
z
M 3674 2157 
Q 3674 2701 3520 3133 
Q 3366 3565 3091 3795 
Q 2733 4096 2304 4096 
Q 1760 4096 1389 3667 
Q 1184 3437 1065 3011 
Q 947 2586 947 2125 
Q 947 960 1523 429 
Q 1837 141 2317 141 
Q 2816 141 3142 448 
Q 3674 960 3674 2157 
z
" transform="scale(0.015625)"/>
      <path id="STIXGeneral-Regular-62" d="M 979 4358 
L 979 2406 
Q 1082 2650 1315 2797 
Q 1549 2944 1843 2944 
Q 2349 2944 2672 2541 
Q 2995 2138 2995 1536 
Q 2995 832 2566 384 
Q 2138 -64 1498 -64 
Q 1107 -64 774 67 
Q 442 198 442 358 
L 442 3622 
Q 442 3859 384 3926 
Q 326 3994 128 3994 
Q 83 3994 19 3981 
L 19 4090 
L 211 4147 
Q 864 4346 947 4371 
L 979 4358 
z
M 979 2035 
L 979 474 
Q 979 326 1161 233 
Q 1344 141 1600 141 
Q 1978 141 2195 416 
Q 2432 710 2432 1261 
Q 2432 1888 2182 2240 
Q 1971 2541 1613 2541 
Q 1357 2541 1168 2390 
Q 979 2240 979 2035 
z
" transform="scale(0.015625)"/>
      <path id="STIXGeneral-Regular-73" d="M 998 1926 
L 1664 1523 
Q 1984 1331 2105 1164 
Q 2227 998 2227 736 
Q 2227 416 1961 176 
Q 1696 -64 1331 -64 
Q 1030 -64 864 -6 
Q 691 51 570 51 
Q 461 51 416 -26 
L 333 -26 
L 333 979 
L 435 979 
Q 538 512 730 294 
Q 922 77 1248 77 
Q 1485 77 1632 211 
Q 1779 346 1779 550 
Q 1779 845 1440 1030 
L 1094 1222 
Q 326 1651 326 2150 
Q 326 2522 566 2730 
Q 806 2938 1210 2938 
Q 1491 2938 1638 2867 
Q 1754 2816 1818 2816 
Q 1862 2816 1920 2880 
L 1990 2880 
L 2022 2010 
L 1926 2010 
Q 1818 2445 1654 2621 
Q 1491 2797 1203 2797 
Q 986 2797 854 2688 
Q 723 2579 723 2362 
Q 723 2253 796 2128 
Q 870 2003 998 1926 
z
" transform="scale(0.015625)"/>
      <path id="STIXGeneral-Regular-65" d="M 2611 1050 
L 2714 1005 
Q 2330 -64 1376 -64 
Q 813 -64 486 329 
Q 160 723 160 1389 
Q 160 2074 525 2509 
Q 890 2944 1485 2944 
Q 2061 2944 2374 2502 
Q 2560 2246 2592 1773 
L 621 1773 
Q 646 1370 700 1158 
Q 755 947 915 730 
Q 1184 378 1626 378 
Q 1939 378 2153 531 
Q 2368 685 2611 1050 
z
M 634 1978 
L 1939 1978 
Q 1882 2381 1750 2547 
Q 1619 2714 1312 2714 
Q 1043 2714 864 2525 
Q 685 2336 634 1978 
z
" transform="scale(0.015625)"/>
      <path id="STIXGeneral-Regular-72" d="M 1024 2931 
L 1024 2342 
Q 1267 2688 1430 2816 
Q 1594 2944 1792 2944 
Q 1958 2944 2051 2854 
Q 2144 2765 2144 2605 
Q 2144 2470 2077 2393 
Q 2010 2317 1894 2317 
Q 1773 2317 1638 2445 
Q 1536 2541 1472 2541 
Q 1338 2541 1181 2355 
Q 1024 2170 1024 2016 
L 1024 576 
Q 1024 301 1133 205 
Q 1242 109 1568 96 
L 1568 0 
L 32 0 
L 32 96 
Q 339 154 412 224 
Q 486 294 486 538 
L 486 2138 
Q 486 2349 438 2435 
Q 390 2522 269 2522 
Q 166 2522 45 2496 
L 45 2598 
Q 448 2726 992 2944 
L 1024 2931 
z
" transform="scale(0.015625)"/>
      <path id="STIXGeneral-Regular-76" d="M 3053 2880 
L 3053 2784 
Q 2906 2771 2835 2688 
Q 2765 2605 2637 2285 
L 1818 230 
Q 1690 -90 1638 -90 
Q 1587 -90 1523 77 
Q 1510 96 1497 141 
Q 1485 186 1472 211 
L 704 2048 
Q 499 2534 403 2652 
Q 307 2771 122 2784 
L 122 2880 
L 1376 2880 
L 1376 2784 
Q 1210 2771 1146 2732 
Q 1082 2694 1082 2611 
Q 1082 2509 1139 2368 
L 1792 730 
L 2426 2387 
Q 2464 2483 2464 2579 
Q 2464 2758 2163 2784 
L 2163 2880 
L 3053 2880 
z
" transform="scale(0.015625)"/>
      <path id="STIXGeneral-Regular-20" transform="scale(0.015625)"/>
      <path id="STIXGeneral-Regular-50" d="M 102 4237 
L 1760 4237 
Q 2669 4237 3149 3834 
Q 3469 3565 3469 3072 
Q 3469 2560 3104 2234 
Q 2835 1990 2553 1916 
Q 2272 1843 1734 1843 
Q 1549 1843 1293 1862 
L 1293 717 
Q 1293 352 1398 246 
Q 1504 141 1894 122 
L 1894 0 
L 102 0 
L 102 122 
Q 474 147 557 256 
Q 640 365 640 781 
L 640 3526 
Q 640 3885 547 3987 
Q 454 4090 102 4115 
L 102 4237 
z
M 1293 3770 
L 1293 2118 
Q 1510 2099 1683 2099 
Q 2202 2099 2486 2352 
Q 2771 2605 2771 3040 
Q 2771 3558 2476 3779 
Q 2182 4000 1517 4000 
Q 1382 4000 1337 3952 
Q 1293 3904 1293 3770 
z
" transform="scale(0.015625)"/>
      <path id="STIXGeneral-Regular-6f" d="M 3008 1478 
Q 3008 806 2608 371 
Q 2208 -64 1568 -64 
Q 979 -64 582 368 
Q 186 800 186 1459 
Q 186 2125 582 2534 
Q 979 2944 1626 2944 
Q 2221 2944 2614 2537 
Q 3008 2131 3008 1478 
z
M 2432 1306 
Q 2432 2035 2112 2445 
Q 1856 2765 1504 2765 
Q 1171 2765 966 2493 
Q 762 2221 762 1747 
Q 762 928 1101 435 
Q 1318 115 1677 115 
Q 2029 115 2230 432 
Q 2432 749 2432 1306 
z
" transform="scale(0.015625)"/>
      <path id="STIXGeneral-Regular-49" d="M 2016 0 
L 115 0 
L 115 122 
Q 518 134 627 240 
Q 736 346 736 717 
L 736 3526 
Q 736 3898 633 3994 
Q 531 4090 115 4115 
L 115 4237 
L 2016 4237 
L 2016 4115 
Q 1613 4096 1501 3993 
Q 1389 3891 1389 3526 
L 1389 717 
Q 1389 358 1504 246 
Q 1619 134 2016 122 
L 2016 0 
z
" transform="scale(0.015625)"/>
      <path id="STIXGeneral-Regular-6e" d="M 3104 0 
L 1773 0 
L 1779 96 
Q 2016 115 2096 233 
Q 2176 352 2176 672 
L 2176 1946 
Q 2176 2592 1709 2592 
Q 1549 2592 1408 2515 
Q 1267 2438 1050 2227 
L 1050 461 
Q 1050 269 1136 192 
Q 1222 115 1466 96 
L 1466 0 
L 115 0 
L 115 96 
Q 358 115 435 214 
Q 512 314 512 602 
L 512 2157 
Q 512 2394 467 2483 
Q 422 2573 288 2573 
Q 160 2573 102 2547 
L 102 2656 
Q 550 2784 979 2944 
L 1030 2925 
L 1030 2426 
L 1037 2426 
Q 1491 2944 1958 2944 
Q 2323 2944 2518 2688 
Q 2714 2432 2714 1958 
L 2714 544 
Q 2714 288 2790 205 
Q 2867 122 3104 96 
L 3104 0 
z
" transform="scale(0.015625)"/>
      <path id="STIXGeneral-Regular-70" d="M 1018 2931 
L 1018 2438 
Q 1421 2944 1939 2944 
Q 2406 2944 2707 2560 
Q 3008 2176 3008 1581 
Q 3008 883 2621 409 
Q 2234 -64 1664 -64 
Q 1466 -64 1328 -6 
Q 1190 51 1018 211 
L 1018 -794 
Q 1018 -1094 1120 -1180 
Q 1222 -1267 1581 -1274 
L 1581 -1389 
L 32 -1389 
L 32 -1280 
Q 314 -1254 397 -1171 
Q 480 -1088 480 -838 
L 480 2157 
Q 480 2381 429 2451 
Q 378 2522 218 2522 
Q 115 2522 58 2515 
L 58 2618 
Q 506 2752 979 2944 
L 1018 2931 
z
M 1018 2138 
L 1018 563 
Q 1018 422 1238 281 
Q 1459 141 1683 141 
Q 2029 141 2243 467 
Q 2458 794 2458 1325 
Q 2458 1888 2243 2224 
Q 2029 2560 1670 2560 
Q 1446 2560 1232 2419 
Q 1018 2278 1018 2138 
z
" transform="scale(0.015625)"/>
      <path id="STIXGeneral-Regular-75" d="M 3072 320 
L 3072 230 
Q 2573 96 2195 -58 
L 2163 -38 
L 2163 486 
L 2150 486 
Q 1747 -64 1235 -64 
Q 870 -64 662 160 
Q 454 384 454 755 
L 454 2362 
Q 454 2598 371 2688 
Q 288 2778 58 2790 
L 58 2880 
L 992 2880 
L 992 813 
Q 992 595 1123 451 
Q 1254 307 1446 307 
Q 1760 307 1984 506 
Q 2067 582 2099 649 
Q 2131 717 2131 877 
L 2131 2355 
Q 2131 2605 2041 2678 
Q 1952 2752 1658 2771 
L 1658 2880 
L 2669 2880 
L 2669 685 
Q 2669 461 2742 390 
Q 2816 320 3034 320 
L 3072 320 
z
" transform="scale(0.015625)"/>
      <path id="STIXGeneral-Regular-74" d="M 1702 493 
L 1786 422 
Q 1478 -64 1011 -64 
Q 448 -64 448 749 
L 448 2675 
L 109 2675 
Q 83 2694 83 2720 
Q 83 2771 192 2842 
Q 435 2982 813 3526 
Q 826 3546 874 3606 
Q 922 3667 941 3706 
Q 986 3706 986 3622 
L 986 2880 
L 1632 2880 
L 1632 2675 
L 986 2675 
L 986 845 
Q 986 538 1062 403 
Q 1139 269 1318 269 
Q 1510 269 1702 493 
z
" transform="scale(0.015625)"/>
     </defs>
     <use xlink:href="#STIXGeneral-Regular-4f"/>
     <use xlink:href="#STIXGeneral-Regular-62" transform="translate(72.199982 0)"/>
     <use xlink:href="#STIXGeneral-Regular-73" transform="translate(122.199966 0)"/>
     <use xlink:href="#STIXGeneral-Regular-65" transform="translate(161.09996 0)"/>
     <use xlink:href="#STIXGeneral-Regular-72" transform="translate(205.499954 0)"/>
     <use xlink:href="#STIXGeneral-Regular-76" transform="translate(238.799942 0)"/>
     <use xlink:href="#STIXGeneral-Regular-65" transform="translate(288.799927 0)"/>
     <use xlink:href="#STIXGeneral-Regular-72" transform="translate(333.199921 0)"/>
     <use xlink:href="#STIXGeneral-Regular-20" transform="translate(366.499908 0)"/>
     <use xlink:href="#STIXGeneral-Regular-50" transform="translate(391.499893 0)"/>
     <use xlink:href="#STIXGeneral-Regular-6f" transform="translate(447.19989 0)"/>
     <use xlink:href="#STIXGeneral-Regular-73" transform="translate(497.199875 0)"/>
     <use xlink:href="#STIXGeneral-Regular-65" transform="translate(536.099869 0)"/>
     <use xlink:href="#STIXGeneral-Regular-20" transform="translate(580.499863 0)"/>
     <use xlink:href="#STIXGeneral-Regular-49" transform="translate(605.499847 0)"/>
     <use xlink:href="#STIXGeneral-Regular-6e" transform="translate(638.799835 0)"/>
     <use xlink:href="#STIXGeneral-Regular-70" transform="translate(688.79982 0)"/>
     <use xlink:href="#STIXGeneral-Regular-75" transform="translate(738.799805 0)"/>
     <use xlink:href="#STIXGeneral-Regular-74" transform="translate(788.799789 0)"/>
    </g>
    <!-- GNSS / VIO / INS / SLAM -->
    <g style="fill: #0f172a" transform="translate(55.421094 149.925) scale(0.1 -0.1)">
     <defs>
      <path id="STIXGeneral-Regular-47" d="M 4538 2266 
L 4538 2150 
Q 4256 2125 4173 2035 
Q 4090 1946 4090 1638 
L 4090 358 
Q 3539 -90 2464 -90 
Q 1965 -90 1507 89 
Q 1050 269 736 595 
Q 205 1152 205 2093 
Q 205 3155 890 3776 
Q 1491 4326 2419 4326 
Q 2829 4326 3270 4179 
Q 3443 4115 3552 4115 
Q 3654 4115 3731 4176 
Q 3808 4237 3840 4326 
L 3981 4326 
L 4032 2976 
L 3885 2976 
Q 3680 3475 3430 3718 
Q 3059 4070 2496 4070 
Q 1856 4070 1427 3629 
Q 934 3136 934 2074 
Q 934 1190 1395 678 
Q 1856 166 2618 166 
Q 2982 166 3225 281 
Q 3469 397 3469 557 
L 3469 1562 
Q 3469 1933 3376 2025 
Q 3283 2118 2899 2150 
L 2899 2266 
L 4538 2266 
z
" transform="scale(0.015625)"/>
      <path id="STIXGeneral-Regular-4e" d="M 4525 4237 
L 4525 4115 
Q 4198 4083 4102 4000 
Q 4000 3910 3958 3756 
Q 3917 3603 3917 3245 
L 3917 -70 
L 3802 -70 
L 979 3443 
L 979 960 
Q 979 474 1088 323 
Q 1197 173 1574 122 
L 1574 0 
L 77 0 
L 77 122 
Q 474 166 586 310 
Q 698 454 698 960 
L 698 3776 
Q 531 3981 416 4048 
Q 301 4115 77 4115 
L 77 4237 
L 1165 4237 
L 3635 1146 
L 3635 3322 
Q 3635 3808 3514 3949 
Q 3437 4032 3344 4061 
Q 3251 4090 3008 4115 
L 3008 4237 
L 4525 4237 
z
" transform="scale(0.015625)"/>
      <path id="STIXGeneral-Regular-53" d="M 3002 2963 
L 2842 2963 
Q 2733 3360 2579 3565 
Q 2189 4064 1651 4064 
Q 1357 4064 1181 3894 
Q 1005 3725 1005 3456 
Q 1005 3328 1069 3206 
Q 1133 3085 1206 2998 
Q 1280 2912 1465 2784 
Q 1651 2656 1766 2589 
Q 1882 2522 2150 2362 
Q 2669 2061 2905 1763 
Q 3142 1466 3142 1107 
Q 3142 576 2771 243 
Q 2400 -90 1837 -90 
Q 1421 -90 1082 58 
Q 915 128 781 128 
Q 704 128 653 70 
Q 602 13 602 -83 
L 461 -83 
L 275 1274 
L 416 1274 
Q 845 141 1734 141 
Q 2074 141 2285 342 
Q 2496 544 2496 858 
Q 2496 1158 2310 1363 
Q 2003 1696 1235 2106 
Q 454 2522 454 3206 
Q 454 3718 768 4022 
Q 1082 4326 1568 4326 
Q 1907 4326 2240 4186 
Q 2413 4109 2522 4109 
Q 2688 4109 2726 4326 
L 2861 4326 
L 3002 2963 
z
" transform="scale(0.015625)"/>
      <path id="STIXGeneral-Regular-2f" d="M 1837 4326 
L 378 -90 
L -58 -90 
L 1408 4326 
L 1837 4326 
z
" transform="scale(0.015625)"/>
      <path id="STIXGeneral-Regular-56" d="M 4461 4237 
L 4461 4115 
Q 4262 4109 4134 3990 
Q 4006 3872 3872 3533 
L 2451 -70 
L 2355 -70 
L 794 3411 
Q 589 3866 467 3987 
Q 346 4109 102 4115 
L 102 4237 
L 1798 4237 
L 1798 4115 
L 1619 4102 
Q 1331 4083 1331 3904 
Q 1331 3776 1581 3219 
L 2554 1030 
L 3494 3392 
Q 3616 3699 3616 3853 
Q 3616 3898 3606 3933 
Q 3597 3968 3584 3993 
Q 3571 4019 3536 4038 
Q 3501 4058 3481 4067 
Q 3462 4077 3411 4086 
Q 3360 4096 3337 4099 
Q 3315 4102 3248 4108 
Q 3181 4115 3155 4115 
L 3155 4237 
L 4461 4237 
z
" transform="scale(0.015625)"/>
      <path id="STIXGeneral-Regular-4c" d="M 3827 1114 
L 3520 0 
L 77 0 
L 77 122 
Q 429 141 531 256 
Q 634 371 634 736 
L 634 3494 
Q 634 3872 541 3981 
Q 448 4090 77 4115 
L 77 4237 
L 1888 4237 
L 1888 4115 
Q 1498 4090 1392 3984 
Q 1286 3878 1286 3507 
L 1286 538 
Q 1286 358 1398 304 
Q 1510 250 1862 250 
L 2310 250 
Q 3085 250 3392 640 
Q 3520 813 3661 1114 
L 3827 1114 
z
" transform="scale(0.015625)"/>
      <path id="STIXGeneral-Regular-41" d="M 4525 0 
L 2893 0 
L 2893 122 
Q 3149 122 3245 179 
Q 3334 224 3334 333 
Q 3334 499 3213 781 
L 2950 1382 
L 1274 1382 
L 979 653 
Q 922 506 922 384 
Q 922 237 1027 179 
Q 1133 122 1370 122 
L 1370 0 
L 96 0 
L 96 122 
Q 365 147 486 316 
Q 608 486 902 1190 
L 2221 4314 
L 2349 4314 
L 3923 710 
Q 4064 378 4176 262 
Q 4288 147 4525 122 
L 4525 0 
z
M 2861 1645 
L 2118 3405 
L 1382 1645 
L 2861 1645 
z
" transform="scale(0.015625)"/>
      <path id="STIXGeneral-Regular-4d" d="M 5530 0 
L 3738 0 
L 3738 122 
Q 4115 147 4214 265 
Q 4314 384 4314 787 
L 4314 3661 
L 2682 0 
L 2592 0 
L 979 3514 
L 979 966 
Q 979 448 1088 294 
Q 1197 141 1574 122 
L 1574 0 
L 77 0 
L 77 122 
Q 358 141 480 205 
Q 602 269 650 432 
Q 698 595 698 966 
L 698 3514 
Q 698 3878 589 3984 
Q 480 4090 90 4115 
L 90 4237 
L 1357 4237 
L 2835 1024 
L 4250 4237 
L 5523 4237 
L 5523 4115 
Q 5178 4109 5072 3993 
Q 4966 3878 4966 3520 
L 4966 717 
Q 4966 378 5072 262 
Q 5178 147 5530 122 
L 5530 0 
z
" transform="scale(0.015625)"/>
     </defs>
     <use xlink:href="#STIXGeneral-Regular-47"/>
     <use xlink:href="#STIXGeneral-Regular-4e" transform="translate(72.199982 0)"/>
     <use xlink:href="#STIXGeneral-Regular-53" transform="translate(144.399963 0)"/>
     <use xlink:href="#STIXGeneral-Regular-53" transform="translate(199.999954 0)"/>
     <use xlink:href="#STIXGeneral-Regular-20" transform="translate(255.599945 0)"/>
     <use xlink:href="#STIXGeneral-Regular-2f" transform="translate(280.59993 0)"/>
     <use xlink:href="#STIXGeneral-Regular-20" transform="translate(308.399918 0)"/>
     <use xlink:href="#STIXGeneral-Regular-56" transform="translate(333.399902 0)"/>
     <use xlink:href="#STIXGeneral-Regular-49" transform="translate(405.599884 0)"/>
     <use xlink:href="#STIXGeneral-Regular-4f" transform="translate(438.899872 0)"/>
     <use xlink:href="#STIXGeneral-Regular-20" transform="translate(511.099854 0)"/>
     <use xlink:href="#STIXGeneral-Regular-2f" transform="translate(536.099838 0)"/>
     <use xlink:href="#STIXGeneral-Regular-20" transform="translate(563.899826 0)"/>
     <use xlink:href="#STIXGeneral-Regular-49" transform="translate(588.899811 0)"/>
     <use xlink:href="#STIXGeneral-Regular-4e" transform="translate(622.199799 0)"/>
     <use xlink:href="#STIXGeneral-Regular-53" transform="translate(694.39978 0)"/>
     <use xlink:href="#STIXGeneral-Regular-20" transform="translate(749.999771 0)"/>
     <use xlink:href="#STIXGeneral-Regular-2f" transform="translate(774.999756 0)"/>
     <use xlink:href="#STIXGeneral-Regular-20" transform="translate(802.799744 0)"/>
     <use xlink:href="#STIXGeneral-Regular-53" transform="translate(827.799728 0)"/>
     <use xlink:href="#STIXGeneral-Regular-4c" transform="translate(883.399719 0)"/>
     <use xlink:href="#STIXGeneral-Regular-41" transform="translate(944.49971 0)"/>
     <use xlink:href="#STIXGeneral-Regular-4d" transform="translate(1016.699692 0)"/>
    </g>
    <!-- reported with uncertainty -->
    <g style="fill: #0f172a" transform="translate(60.154688 159.949453) scale(0.1 -0.1)">
     <defs>
      <path id="STIXGeneral-Regular-64" d="M 3142 269 
L 2202 -64 
L 2176 -45 
L 2176 365 
Q 1869 -64 1357 -64 
Q 826 -64 499 317 
Q 173 698 173 1312 
Q 173 1990 563 2467 
Q 954 2944 1504 2944 
Q 1850 2944 2176 2669 
L 2176 3667 
Q 2176 3866 2118 3930 
Q 2061 3994 1882 3994 
Q 1792 3994 1741 3987 
L 1741 4090 
Q 2323 4243 2682 4371 
L 2714 4358 
L 2714 730 
Q 2714 506 2768 435 
Q 2822 365 2995 365 
Q 3034 365 3142 371 
L 3142 269 
z
M 2176 653 
L 2176 2125 
Q 2176 2381 1981 2573 
Q 1786 2765 1523 2765 
Q 1158 2765 940 2438 
Q 723 2112 723 1568 
Q 723 979 963 624 
Q 1203 269 1606 269 
Q 1907 269 2080 474 
Q 2176 582 2176 653 
z
" transform="scale(0.015625)"/>
      <path id="STIXGeneral-Regular-77" d="M 4442 2880 
L 4442 2784 
Q 4346 2752 4301 2691 
Q 4256 2630 4179 2438 
L 3296 224 
Q 3168 -90 3117 -90 
Q 3085 -90 3062 -48 
Q 3040 -6 2963 186 
L 2381 1696 
L 1664 160 
Q 1549 -90 1504 -90 
Q 1446 -90 1338 192 
L 474 2381 
Q 378 2630 314 2700 
Q 250 2771 134 2784 
L 134 2880 
L 1286 2880 
L 1286 2784 
Q 1120 2765 1056 2720 
Q 992 2675 992 2573 
Q 992 2477 1030 2381 
L 1664 710 
L 2246 1984 
L 2118 2342 
Q 2029 2598 1942 2681 
Q 1856 2765 1677 2784 
L 1677 2880 
L 2976 2880 
L 2976 2784 
Q 2752 2752 2678 2707 
Q 2605 2662 2605 2560 
Q 2605 2458 2714 2176 
L 3251 742 
L 3827 2163 
Q 3936 2432 3936 2592 
Q 3936 2669 3875 2710 
Q 3814 2752 3654 2784 
L 3654 2880 
L 4442 2880 
z
" transform="scale(0.015625)"/>
      <path id="STIXGeneral-Regular-69" d="M 1152 4045 
Q 1152 3904 1056 3811 
Q 960 3718 819 3718 
Q 685 3718 592 3811 
Q 499 3904 499 4045 
Q 499 4179 595 4275 
Q 691 4371 826 4371 
Q 966 4371 1059 4275 
Q 1152 4179 1152 4045 
z
M 1619 0 
L 102 0 
L 102 96 
Q 435 115 521 211 
Q 608 307 608 666 
L 608 2118 
Q 608 2342 563 2432 
Q 518 2522 397 2522 
Q 243 2522 128 2490 
L 128 2592 
L 1120 2944 
L 1146 2918 
L 1146 672 
Q 1146 314 1226 218 
Q 1306 122 1619 96 
L 1619 0 
z
" transform="scale(0.015625)"/>
      <path id="STIXGeneral-Regular-68" d="M 3117 0 
L 1760 0 
L 1760 96 
Q 2042 128 2118 224 
Q 2195 320 2195 653 
L 2195 1920 
Q 2195 2598 1722 2598 
Q 1530 2598 1370 2508 
Q 1210 2419 1005 2195 
L 1005 653 
Q 1005 320 1081 224 
Q 1158 128 1440 96 
L 1440 0 
L 58 0 
L 58 96 
Q 333 134 400 224 
Q 467 314 467 653 
L 467 3667 
Q 467 3872 406 3933 
Q 346 3994 141 3994 
Q 83 3994 64 3987 
L 64 4090 
L 237 4141 
Q 730 4288 973 4371 
L 1005 4352 
L 1005 2406 
Q 1229 2694 1446 2819 
Q 1664 2944 1946 2944 
Q 2733 2944 2733 1926 
L 2733 653 
Q 2733 320 2793 233 
Q 2854 147 3117 96 
L 3117 0 
z
" transform="scale(0.015625)"/>
      <path id="STIXGeneral-Regular-63" d="M 2547 998 
L 2637 941 
Q 2362 403 2112 205 
Q 1786 -64 1376 -64 
Q 845 -64 502 336 
Q 160 736 160 1357 
Q 160 2170 698 2618 
Q 1094 2944 1562 2944 
Q 1965 2944 2256 2749 
Q 2547 2554 2547 2285 
Q 2547 2176 2457 2096 
Q 2368 2016 2246 2016 
Q 2022 2016 1939 2310 
L 1901 2451 
Q 1850 2630 1773 2694 
Q 1696 2758 1523 2758 
Q 1133 2758 893 2451 
Q 653 2144 653 1645 
Q 653 1094 928 745 
Q 1203 397 1645 397 
Q 1920 397 2118 528 
Q 2317 659 2547 998 
z
" transform="scale(0.015625)"/>
      <path id="STIXGeneral-Regular-61" d="M 2829 422 
L 2829 243 
Q 2586 -64 2253 -64 
Q 1888 -64 1843 403 
L 1837 403 
Q 1427 -64 909 -64 
Q 608 -64 422 112 
Q 237 288 237 602 
Q 237 1050 685 1350 
Q 992 1555 1837 1869 
L 1837 2214 
Q 1837 2502 1699 2646 
Q 1562 2790 1338 2790 
Q 1146 2790 1018 2697 
Q 890 2605 890 2477 
Q 890 2419 909 2348 
Q 928 2278 928 2208 
Q 928 2112 841 2029 
Q 755 1946 634 1946 
Q 525 1946 441 2029 
Q 358 2112 358 2240 
Q 358 2547 685 2752 
Q 986 2944 1421 2944 
Q 1939 2944 2176 2656 
Q 2291 2522 2323 2384 
Q 2355 2246 2355 1946 
L 2355 723 
Q 2355 301 2554 301 
Q 2682 301 2829 422 
z
M 1837 813 
L 1837 1715 
Q 1248 1510 1018 1293 
Q 800 1094 800 800 
Q 800 557 921 432 
Q 1043 307 1242 307 
Q 1453 307 1613 410 
Q 1747 506 1792 589 
Q 1837 672 1837 813 
z
" transform="scale(0.015625)"/>
      <path id="STIXGeneral-Regular-79" d="M 3040 2880 
L 3040 2784 
Q 2925 2771 2854 2700 
Q 2784 2630 2720 2458 
L 1760 -160 
Q 1510 -838 1257 -1116 
Q 1005 -1395 640 -1395 
Q 435 -1395 313 -1289 
Q 192 -1184 192 -1024 
Q 192 -902 272 -816 
Q 352 -730 467 -730 
Q 653 -730 800 -813 
Q 883 -858 966 -858 
Q 1101 -858 1286 -576 
Q 1376 -448 1459 -211 
Q 1542 26 1542 115 
Q 1542 198 1274 762 
L 429 2566 
Q 346 2752 90 2790 
L 90 2880 
L 1402 2880 
L 1402 2784 
Q 1197 2778 1117 2739 
Q 1037 2701 1037 2611 
Q 1037 2541 1120 2349 
L 1837 749 
L 2458 2515 
Q 2483 2573 2483 2630 
Q 2483 2784 2189 2784 
L 2189 2880 
L 3040 2880 
z
" transform="scale(0.015625)"/>
     </defs>
     <use xlink:href="#STIXGeneral-Regular-72"/>
     <use xlink:href="#STIXGeneral-Regular-65" transform="translate(33.299988 0)"/>
     <use xlink:href="#STIXGeneral-Regular-70" transform="translate(77.699982 0)"/>
     <use xlink:href="#STIXGeneral-Regular-6f" transform="translate(127.699966 0)"/>
     <use xlink:href="#STIXGeneral-Regular-72" transform="translate(177.699951 0)"/>
     <use xlink:href="#STIXGeneral-Regular-74" transform="translate(210.999939 0)"/>
     <use xlink:href="#STIXGeneral-Regular-65" transform="translate(238.799927 0)"/>
     <use xlink:href="#STIXGeneral-Regular-64" transform="translate(283.199921 0)"/>
     <use xlink:href="#STIXGeneral-Regular-20" transform="translate(333.199905 0)"/>
     <use xlink:href="#STIXGeneral-Regular-77" transform="translate(358.19989 0)"/>
     <use xlink:href="#STIXGeneral-Regular-69" transform="translate(430.399872 0)"/>
     <use xlink:href="#STIXGeneral-Regular-74" transform="translate(458.19986 0)"/>
     <use xlink:href="#STIXGeneral-Regular-68" transform="translate(485.999847 0)"/>
     <use xlink:href="#STIXGeneral-Regular-20" transform="translate(535.999832 0)"/>
     <use xlink:href="#STIXGeneral-Regular-75" transform="translate(560.999817 0)"/>
     <use xlink:href="#STIXGeneral-Regular-6e" transform="translate(610.999802 0)"/>
     <use xlink:href="#STIXGeneral-Regular-63" transform="translate(660.999786 0)"/>
     <use xlink:href="#STIXGeneral-Regular-65" transform="translate(705.39978 0)"/>
     <use xlink:href="#STIXGeneral-Regular-72" transform="translate(749.799774 0)"/>
     <use xlink:href="#STIXGeneral-Regular-74" transform="translate(783.099762 0)"/>
     <use xlink:href="#STIXGeneral-Regular-61" transform="translate(810.89975 0)"/>
     <use xlink:href="#STIXGeneral-Regular-69" transform="translate(855.299744 0)"/>
     <use xlink:href="#STIXGeneral-Regular-6e" transform="translate(883.099731 0)"/>
     <use xlink:href="#STIXGeneral-Regular-74" transform="translate(933.099716 0)"/>
     <use xlink:href="#STIXGeneral-Regular-79" transform="translate(960.899704 0)"/>
    </g>
   </g>
   <g id="text_2">
    <!-- Bearing Extraction -->
    <g style="fill: #0f172a" transform="translate(261.789844 139.891172) scale(0.1 -0.1)">
     <defs>
      <path id="STIXGeneral-Regular-42" d="M 2701 2234 
L 2701 2227 
Q 3181 2150 3482 1875 
Q 3795 1594 3795 1139 
Q 3795 608 3379 304 
Q 2963 0 2266 0 
L 109 0 
L 109 122 
Q 486 134 604 246 
Q 723 358 723 723 
L 723 3520 
Q 723 3891 614 3990 
Q 506 4090 109 4115 
L 109 4237 
L 1901 4237 
Q 2726 4237 3152 3958 
Q 3578 3680 3578 3168 
Q 3578 2733 3315 2502 
Q 3130 2342 2701 2234 
z
M 1376 2342 
L 1965 2342 
Q 2925 2342 2925 3136 
Q 2925 3546 2640 3773 
Q 2355 4000 1792 4000 
L 1530 4000 
Q 1376 4000 1376 3795 
L 1376 2342 
z
M 1376 2086 
L 1376 525 
Q 1376 365 1462 301 
Q 1549 237 1773 237 
Q 2208 237 2413 285 
Q 2618 333 2816 512 
Q 3059 723 3059 1146 
Q 3059 1632 2758 1830 
Q 2688 1882 2617 1917 
Q 2547 1952 2492 1974 
Q 2438 1997 2348 2016 
Q 2259 2035 2211 2044 
Q 2163 2054 2041 2060 
Q 1920 2067 1862 2070 
Q 1805 2074 1635 2080 
Q 1466 2086 1376 2086 
z
" transform="scale(0.015625)"/>
      <path id="STIXGeneral-Regular-67" d="M 3008 2483 
L 2477 2483 
Q 2598 2208 2598 1946 
Q 2598 1453 2265 1203 
Q 1933 954 1600 954 
Q 1530 954 1357 973 
L 1235 986 
Q 1107 947 979 812 
Q 851 678 851 582 
Q 851 435 1350 410 
L 2176 371 
Q 2528 358 2739 172 
Q 2950 -13 2950 -314 
Q 2950 -685 2566 -986 
Q 2035 -1395 1286 -1395 
Q 826 -1395 502 -1212 
Q 179 -1030 179 -774 
Q 179 -595 320 -419 
Q 461 -243 806 6 
Q 602 102 534 172 
Q 467 243 467 346 
Q 467 531 762 787 
Q 909 915 1037 1043 
Q 717 1203 579 1401 
Q 442 1600 442 1901 
Q 442 2336 752 2640 
Q 1062 2944 1510 2944 
Q 1766 2944 2022 2848 
L 2163 2797 
Q 2349 2733 2515 2733 
L 3008 2733 
L 3008 2483 
z
M 973 2163 
L 973 2144 
Q 973 1683 1155 1398 
Q 1338 1114 1632 1114 
Q 1850 1114 1978 1270 
Q 2106 1427 2106 1690 
Q 2106 2112 1914 2464 
Q 1754 2765 1446 2765 
Q 1222 2765 1097 2605 
Q 973 2445 973 2163 
z
M 2771 -410 
Q 2771 -230 2595 -163 
Q 2419 -96 1978 -96 
Q 1344 -96 941 -13 
Q 749 -243 688 -348 
Q 627 -454 627 -563 
Q 627 -774 880 -902 
Q 1133 -1030 1555 -1030 
Q 2099 -1030 2435 -860 
Q 2771 -691 2771 -410 
z
" transform="scale(0.015625)"/>
      <path id="STIXGeneral-Regular-45" d="M 3821 1082 
L 3526 0 
L 77 0 
L 77 122 
Q 442 147 538 252 
Q 634 358 634 730 
L 634 3520 
Q 634 3878 534 3987 
Q 435 4096 77 4115 
L 77 4237 
L 3469 4237 
L 3494 3322 
L 3334 3322 
Q 3264 3750 3085 3872 
Q 2906 3994 2349 3994 
L 1510 3994 
Q 1370 3994 1328 3952 
Q 1286 3910 1286 3763 
L 1286 2355 
L 2253 2355 
Q 2656 2355 2787 2470 
Q 2918 2586 2976 2970 
L 3123 2970 
L 3123 1472 
L 2976 1472 
Q 2918 1875 2790 1984 
Q 2662 2093 2253 2093 
L 1286 2093 
L 1286 538 
Q 1286 346 1420 291 
Q 1555 237 1933 237 
L 2163 237 
Q 2848 237 3136 403 
Q 3424 570 3642 1082 
L 3821 1082 
z
" transform="scale(0.015625)"/>
      <path id="STIXGeneral-Regular-78" d="M 3066 0 
L 1779 0 
L 1779 96 
Q 1939 109 1987 137 
Q 2035 166 2035 250 
Q 2035 307 1997 365 
L 1414 1261 
L 909 474 
Q 781 275 781 211 
Q 781 96 1037 96 
L 1037 0 
L 109 0 
L 109 96 
Q 269 109 355 169 
Q 442 230 576 422 
L 1306 1478 
L 704 2400 
Q 557 2624 454 2704 
Q 352 2784 211 2784 
L 154 2784 
L 154 2880 
L 1478 2880 
L 1478 2784 
Q 1203 2778 1203 2643 
Q 1203 2509 1498 2074 
Q 1581 1958 1587 1946 
Q 1619 1990 1779 2227 
Q 1811 2285 1856 2349 
Q 1901 2413 1923 2451 
Q 1946 2490 1971 2528 
Q 1997 2566 2006 2595 
Q 2016 2624 2016 2643 
Q 2016 2765 1760 2784 
L 1760 2880 
L 2771 2880 
L 2771 2784 
Q 2445 2771 2253 2502 
L 1722 1734 
L 2541 480 
Q 2790 96 3066 96 
L 3066 0 
z
" transform="scale(0.015625)"/>
     </defs>
     <use xlink:href="#STIXGeneral-Regular-42"/>
     <use xlink:href="#STIXGeneral-Regular-65" transform="translate(66.699997 0)"/>
     <use xlink:href="#STIXGeneral-Regular-61" transform="translate(111.099991 0)"/>
     <use xlink:href="#STIXGeneral-Regular-72" transform="translate(155.499985 0)"/>
     <use xlink:href="#STIXGeneral-Regular-69" transform="translate(188.799973 0)"/>
     <use xlink:href="#STIXGeneral-Regular-6e" transform="translate(216.59996 0)"/>
     <use xlink:href="#STIXGeneral-Regular-67" transform="translate(266.599945 0)"/>
     <use xlink:href="#STIXGeneral-Regular-20" transform="translate(316.59993 0)"/>
     <use xlink:href="#STIXGeneral-Regular-45" transform="translate(341.599915 0)"/>
     <use xlink:href="#STIXGeneral-Regular-78" transform="translate(402.699905 0)"/>
     <use xlink:href="#STIXGeneral-Regular-74" transform="translate(452.69989 0)"/>
     <use xlink:href="#STIXGeneral-Regular-72" transform="translate(480.499878 0)"/>
     <use xlink:href="#STIXGeneral-Regular-61" transform="translate(513.799866 0)"/>
     <use xlink:href="#STIXGeneral-Regular-63" transform="translate(558.19986 0)"/>
     <use xlink:href="#STIXGeneral-Regular-74" transform="translate(602.599854 0)"/>
     <use xlink:href="#STIXGeneral-Regular-69" transform="translate(630.399841 0)"/>
     <use xlink:href="#STIXGeneral-Regular-6f" transform="translate(658.199829 0)"/>
     <use xlink:href="#STIXGeneral-Regular-6e" transform="translate(708.199814 0)"/>
    </g>
    <!-- EO / DF payloads -->
    <g style="fill: #0f172a" transform="translate(263.729688 149.925) scale(0.1 -0.1)">
     <defs>
      <path id="STIXGeneral-Regular-44" d="M 102 4237 
L 1830 4237 
Q 3078 4237 3750 3654 
Q 4384 3110 4384 2138 
Q 4384 966 3514 410 
Q 2880 0 1901 0 
L 102 0 
L 102 122 
Q 474 147 570 252 
Q 666 358 666 736 
L 666 3520 
Q 666 3891 570 3990 
Q 474 4090 102 4115 
L 102 4237 
z
M 1318 3731 
L 1318 538 
Q 1318 365 1379 301 
Q 1440 237 1626 237 
Q 2125 237 2432 307 
Q 2739 378 3021 570 
Q 3686 1018 3686 2099 
Q 3686 3027 3078 3558 
Q 2803 3802 2476 3901 
Q 2150 4000 1658 4000 
Q 1472 4000 1395 3942 
Q 1318 3885 1318 3731 
z
" transform="scale(0.015625)"/>
      <path id="STIXGeneral-Regular-46" d="M 3494 3322 
L 3334 3322 
Q 3264 3757 3094 3875 
Q 2925 3994 2349 3994 
L 1504 3994 
Q 1370 3994 1328 3946 
Q 1286 3898 1286 3744 
L 1286 2355 
L 2195 2355 
Q 2598 2355 2736 2470 
Q 2874 2586 2918 2963 
L 3066 2963 
L 3066 1472 
L 2918 1472 
Q 2880 1862 2745 1977 
Q 2611 2093 2195 2093 
L 1286 2093 
L 1286 717 
Q 1286 352 1392 246 
Q 1498 141 1869 122 
L 1869 0 
L 70 0 
L 70 122 
Q 435 147 534 259 
Q 634 371 634 787 
L 634 3526 
Q 634 3878 538 3984 
Q 442 4090 77 4115 
L 77 4237 
L 3462 4237 
L 3494 3322 
z
" transform="scale(0.015625)"/>
      <path id="STIXGeneral-Regular-6c" d="M 1645 0 
L 134 0 
L 134 96 
Q 435 122 531 221 
Q 627 320 627 589 
L 627 3590 
Q 627 3821 569 3910 
Q 512 4000 358 4000 
Q 224 4000 122 3987 
L 122 4090 
Q 730 4237 1133 4371 
L 1165 4346 
L 1165 557 
Q 1165 288 1254 201 
Q 1344 115 1645 96 
L 1645 0 
z
" transform="scale(0.015625)"/>
     </defs>
     <use xlink:href="#STIXGeneral-Regular-45"/>
     <use xlink:href="#STIXGeneral-Regular-4f" transform="translate(61.099991 0)"/>
     <use xlink:href="#STIXGeneral-Regular-20" transform="translate(133.299973 0)"/>
     <use xlink:href="#STIXGeneral-Regular-2f" transform="translate(158.299957 0)"/>
     <use xlink:href="#STIXGeneral-Regular-20" transform="translate(186.099945 0)"/>
     <use xlink:href="#STIXGeneral-Regular-44" transform="translate(211.09993 0)"/>
     <use xlink:href="#STIXGeneral-Regular-46" transform="translate(283.299911 0)"/>
     <use xlink:href="#STIXGeneral-Regular-20" transform="translate(338.899902 0)"/>
     <use xlink:href="#STIXGeneral-Regular-70" transform="translate(363.899887 0)"/>
     <use xlink:href="#STIXGeneral-Regular-61" transform="translate(413.899872 0)"/>
     <use xlink:href="#STIXGeneral-Regular-79" transform="translate(458.299866 0)"/>
     <use xlink:href="#STIXGeneral-Regular-6c" transform="translate(508.29985 0)"/>
     <use xlink:href="#STIXGeneral-Regular-6f" transform="translate(536.099838 0)"/>
     <use xlink:href="#STIXGeneral-Regular-61" transform="translate(586.099823 0)"/>
     <use xlink:href="#STIXGeneral-Regular-64" transform="translate(630.499817 0)"/>
     <use xlink:href="#STIXGeneral-Regular-73" transform="translate(680.499802 0)"/>
    </g>
    <!-- asynchronous angle cues -->
    <g style="fill: #0f172a" transform="translate(249.9875 159.958828) scale(0.1 -0.1)">
     <use xlink:href="#STIXGeneral-Regular-61"/>
     <use xlink:href="#STIXGeneral-Regular-73" transform="translate(44.399994 0)"/>
     <use xlink:href="#STIXGeneral-Regular-79" transform="translate(83.299988 0)"/>
     <use xlink:href="#STIXGeneral-Regular-6e" transform="translate(133.299973 0)"/>
     <use xlink:href="#STIXGeneral-Regular-63" transform="translate(183.299957 0)"/>
     <use xlink:href="#STIXGeneral-Regular-68" transform="translate(227.699951 0)"/>
     <use xlink:href="#STIXGeneral-Regular-72" transform="translate(277.699936 0)"/>
     <use xlink:href="#STIXGeneral-Regular-6f" transform="translate(310.999924 0)"/>
     <use xlink:href="#STIXGeneral-Regular-6e" transform="translate(360.999908 0)"/>
     <use xlink:href="#STIXGeneral-Regular-6f" transform="translate(410.999893 0)"/>
     <use xlink:href="#STIXGeneral-Regular-75" transform="translate(460.999878 0)"/>
     <use xlink:href="#STIXGeneral-Regular-73" transform="translate(510.999863 0)"/>
     <use xlink:href="#STIXGeneral-Regular-20" transform="translate(549.899857 0)"/>
     <use xlink:href="#STIXGeneral-Regular-61" transform="translate(574.899841 0)"/>
     <use xlink:href="#STIXGeneral-Regular-6e" transform="translate(619.299835 0)"/>
     <use xlink:href="#STIXGeneral-Regular-67" transform="translate(669.29982 0)"/>
     <use xlink:href="#STIXGeneral-Regular-6c" transform="translate(719.299805 0)"/>
     <use xlink:href="#STIXGeneral-Regular-65" transform="translate(747.099792 0)"/>
     <use xlink:href="#STIXGeneral-Regular-20" transform="translate(791.499786 0)"/>
     <use xlink:href="#STIXGeneral-Regular-63" transform="translate(816.499771 0)"/>
     <use xlink:href="#STIXGeneral-Regular-75" transform="translate(860.899765 0)"/>
     <use xlink:href="#STIXGeneral-Regular-65" transform="translate(910.89975 0)"/>
     <use xlink:href="#STIXGeneral-Regular-73" transform="translate(955.299744 0)"/>
    </g>
   </g>
   <g id="text_3">
    <!-- Corruption-Aware Front End -->
    <g style="fill: #0f172a" transform="translate(468.210938 150.395625) scale(0.12 -0.12)">
     <defs>
      <path id="STIXGeneral-Regular-43" d="M 3930 838 
L 4051 723 
Q 3482 -90 2304 -90 
Q 1376 -90 794 480 
Q 179 1082 179 2080 
Q 179 3014 755 3661 
Q 1357 4326 2310 4326 
Q 2720 4326 3072 4230 
Q 3475 4115 3514 4115 
Q 3725 4115 3782 4326 
L 3910 4326 
L 3968 2874 
L 3821 2874 
Q 3718 3334 3488 3584 
Q 3034 4070 2458 4070 
Q 1747 4070 1334 3548 
Q 922 3027 922 2182 
Q 922 1152 1382 653 
Q 1811 192 2522 192 
Q 2944 192 3251 339 
Q 3558 486 3930 838 
z
" transform="scale(0.015625)"/>
      <path id="STIXGeneral-Regular-2d" d="M 1824 1242 
L 250 1242 
L 250 1645 
L 1824 1645 
L 1824 1242 
z
" transform="scale(0.015625)"/>
     </defs>
     <use xlink:href="#STIXGeneral-Regular-43"/>
     <use xlink:href="#STIXGeneral-Regular-6f" transform="translate(66.699997 0)"/>
     <use xlink:href="#STIXGeneral-Regular-72" transform="translate(116.699982 0)"/>
     <use xlink:href="#STIXGeneral-Regular-72" transform="translate(149.999969 0)"/>
     <use xlink:href="#STIXGeneral-Regular-75" transform="translate(183.299957 0)"/>
     <use xlink:href="#STIXGeneral-Regular-70" transform="translate(233.299942 0)"/>
     <use xlink:href="#STIXGeneral-Regular-74" transform="translate(283.299927 0)"/>
     <use xlink:href="#STIXGeneral-Regular-69" transform="translate(311.099915 0)"/>
     <use xlink:href="#STIXGeneral-Regular-6f" transform="translate(338.899902 0)"/>
     <use xlink:href="#STIXGeneral-Regular-6e" transform="translate(388.899887 0)"/>
     <use xlink:href="#STIXGeneral-Regular-2d" transform="translate(438.899872 0)"/>
     <use xlink:href="#STIXGeneral-Regular-41" transform="translate(472.19986 0)"/>
     <use xlink:href="#STIXGeneral-Regular-77" transform="translate(544.399841 0)"/>
     <use xlink:href="#STIXGeneral-Regular-61" transform="translate(616.599823 0)"/>
     <use xlink:href="#STIXGeneral-Regular-72" transform="translate(660.999817 0)"/>
     <use xlink:href="#STIXGeneral-Regular-65" transform="translate(694.299805 0)"/>
     <use xlink:href="#STIXGeneral-Regular-20" transform="translate(738.699799 0)"/>
     <use xlink:href="#STIXGeneral-Regular-46" transform="translate(763.699783 0)"/>
     <use xlink:href="#STIXGeneral-Regular-72" transform="translate(819.299774 0)"/>
     <use xlink:href="#STIXGeneral-Regular-6f" transform="translate(852.599762 0)"/>
     <use xlink:href="#STIXGeneral-Regular-6e" transform="translate(902.599747 0)"/>
     <use xlink:href="#STIXGeneral-Regular-74" transform="translate(952.599731 0)"/>
     <use xlink:href="#STIXGeneral-Regular-20" transform="translate(980.399719 0)"/>
     <use xlink:href="#STIXGeneral-Regular-45" transform="translate(1005.399704 0)"/>
     <use xlink:href="#STIXGeneral-Regular-6e" transform="translate(1066.499695 0)"/>
     <use xlink:href="#STIXGeneral-Regular-64" transform="translate(1116.49968 0)"/>
    </g>
   </g>
   <g id="text_4">
    <!-- Stage 1 -->
    <g style="fill: #0f172a" transform="translate(523.339844 114.623859) scale(0.1 -0.1)">
     <defs>
      <path id="STIXGeneral-Regular-31" d="M 2522 0 
L 755 0 
L 755 96 
Q 1107 115 1235 227 
Q 1363 339 1363 608 
L 1363 3482 
Q 1363 3795 1171 3795 
Q 1082 3795 883 3718 
L 710 3654 
L 710 3744 
L 1856 4326 
L 1914 4307 
L 1914 486 
Q 1914 275 2042 185 
Q 2170 96 2522 96 
L 2522 0 
z
" transform="scale(0.015625)"/>
     </defs>
     <use xlink:href="#STIXGeneral-Regular-53"/>
     <use xlink:href="#STIXGeneral-Regular-74" transform="translate(55.599991 0)"/>
     <use xlink:href="#STIXGeneral-Regular-61" transform="translate(83.399979 0)"/>
     <use xlink:href="#STIXGeneral-Regular-67" transform="translate(127.799973 0)"/>
     <use xlink:href="#STIXGeneral-Regular-65" transform="translate(177.799957 0)"/>
     <use xlink:href="#STIXGeneral-Regular-20" transform="translate(222.199951 0)"/>
     <use xlink:href="#STIXGeneral-Regular-31" transform="translate(247.199936 0)"/>
    </g>
    <!-- Consensus-assisted -->
    <g style="fill: #0f172a" transform="translate(499.5875 124.657688) scale(0.1 -0.1)">
     <use xlink:href="#STIXGeneral-Regular-43"/>
     <use xlink:href="#STIXGeneral-Regular-6f" transform="translate(66.699997 0)"/>
     <use xlink:href="#STIXGeneral-Regular-6e" transform="translate(116.699982 0)"/>
     <use xlink:href="#STIXGeneral-Regular-73" transform="translate(166.699966 0)"/>
     <use xlink:href="#STIXGeneral-Regular-65" transform="translate(205.59996 0)"/>
     <use xlink:href="#STIXGeneral-Regular-6e" transform="translate(249.999954 0)"/>
     <use xlink:href="#STIXGeneral-Regular-73" transform="translate(299.999939 0)"/>
     <use xlink:href="#STIXGeneral-Regular-75" transform="translate(338.899933 0)"/>
     <use xlink:href="#STIXGeneral-Regular-73" transform="translate(388.899918 0)"/>
     <use xlink:href="#STIXGeneral-Regular-2d" transform="translate(427.799911 0)"/>
     <use xlink:href="#STIXGeneral-Regular-61" transform="translate(461.099899 0)"/>
     <use xlink:href="#STIXGeneral-Regular-73" transform="translate(505.499893 0)"/>
     <use xlink:href="#STIXGeneral-Regular-73" transform="translate(544.399887 0)"/>
     <use xlink:href="#STIXGeneral-Regular-69" transform="translate(583.299881 0)"/>
     <use xlink:href="#STIXGeneral-Regular-73" transform="translate(611.099869 0)"/>
     <use xlink:href="#STIXGeneral-Regular-74" transform="translate(649.999863 0)"/>
     <use xlink:href="#STIXGeneral-Regular-65" transform="translate(677.79985 0)"/>
     <use xlink:href="#STIXGeneral-Regular-64" transform="translate(722.199844 0)"/>
    </g>
    <!-- robust localization -->
    <g style="fill: #0f172a" transform="translate(501.119531 134.682141) scale(0.1 -0.1)">
     <defs>
      <path id="STIXGeneral-Regular-7a" d="M 2675 870 
L 2579 0 
L 173 0 
L 173 96 
L 1875 2688 
L 1011 2688 
Q 710 2688 604 2582 
Q 499 2477 454 2125 
L 339 2125 
L 365 2880 
L 2579 2880 
L 2579 2784 
L 858 192 
L 1709 192 
Q 2246 192 2387 365 
Q 2477 474 2560 896 
L 2675 870 
z
" transform="scale(0.015625)"/>
     </defs>
     <use xlink:href="#STIXGeneral-Regular-72"/>
     <use xlink:href="#STIXGeneral-Regular-6f" transform="translate(33.299988 0)"/>
     <use xlink:href="#STIXGeneral-Regular-62" transform="translate(83.299973 0)"/>
     <use xlink:href="#STIXGeneral-Regular-75" transform="translate(133.299957 0)"/>
     <use xlink:href="#STIXGeneral-Regular-73" transform="translate(183.299942 0)"/>
     <use xlink:href="#STIXGeneral-Regular-74" transform="translate(222.199936 0)"/>
     <use xlink:href="#STIXGeneral-Regular-20" transform="translate(249.999924 0)"/>
     <use xlink:href="#STIXGeneral-Regular-6c" transform="translate(274.999908 0)"/>
     <use xlink:href="#STIXGeneral-Regular-6f" transform="translate(302.799896 0)"/>
     <use xlink:href="#STIXGeneral-Regular-63" transform="translate(352.799881 0)"/>
     <use xlink:href="#STIXGeneral-Regular-61" transform="translate(397.199875 0)"/>
     <use xlink:href="#STIXGeneral-Regular-6c" transform="translate(441.599869 0)"/>
     <use xlink:href="#STIXGeneral-Regular-69" transform="translate(469.399857 0)"/>
     <use xlink:href="#STIXGeneral-Regular-7a" transform="translate(497.199844 0)"/>
     <use xlink:href="#STIXGeneral-Regular-61" transform="translate(541.599838 0)"/>
     <use xlink:href="#STIXGeneral-Regular-74" transform="translate(585.999832 0)"/>
     <use xlink:href="#STIXGeneral-Regular-69" transform="translate(613.79982 0)"/>
     <use xlink:href="#STIXGeneral-Regular-6f" transform="translate(641.599808 0)"/>
     <use xlink:href="#STIXGeneral-Regular-6e" transform="translate(691.599792 0)"/>
    </g>
   </g>
   <g id="text_5">
    <!-- Stage 2 (optional) -->
    <g style="fill: #0f172a" transform="translate(502.370313 198.859172) scale(0.1 -0.1)">
     <defs>
      <path id="STIXGeneral-Regular-32" d="M 3034 877 
L 2688 0 
L 186 0 
L 186 77 
L 1325 1286 
Q 1773 1754 1965 2144 
Q 2157 2534 2157 2950 
Q 2157 3379 1920 3616 
Q 1683 3853 1267 3853 
Q 922 3853 720 3673 
Q 518 3494 326 3021 
L 192 3053 
Q 301 3648 630 3987 
Q 960 4326 1523 4326 
Q 2054 4326 2380 4006 
Q 2707 3686 2707 3200 
Q 2707 2477 1888 1613 
L 832 486 
L 2330 486 
Q 2541 486 2665 569 
Q 2790 653 2944 915 
L 3034 877 
z
" transform="scale(0.015625)"/>
      <path id="STIXGeneral-Regular-28" d="M 1946 -1030 
L 1869 -1133 
Q 1126 -710 716 32 
Q 307 774 307 1613 
Q 307 3386 1888 4326 
L 1946 4224 
Q 1293 3667 1075 3126 
Q 858 2586 858 1632 
Q 858 685 1082 96 
Q 1306 -493 1946 -1030 
z
" transform="scale(0.015625)"/>
      <path id="STIXGeneral-Regular-29" d="M 186 4224 
L 262 4326 
Q 992 3891 1408 3148 
Q 1824 2406 1824 1581 
Q 1824 -166 243 -1133 
L 186 -1030 
Q 845 -486 1059 54 
Q 1274 595 1274 1562 
Q 1274 2534 1059 3120 
Q 845 3706 186 4224 
z
" transform="scale(0.015625)"/>
     </defs>
     <use xlink:href="#STIXGeneral-Regular-53"/>
     <use xlink:href="#STIXGeneral-Regular-74" transform="translate(55.599991 0)"/>
     <use xlink:href="#STIXGeneral-Regular-61" transform="translate(83.399979 0)"/>
     <use xlink:href="#STIXGeneral-Regular-67" transform="translate(127.799973 0)"/>
     <use xlink:href="#STIXGeneral-Regular-65" transform="translate(177.799957 0)"/>
     <use xlink:href="#STIXGeneral-Regular-20" transform="translate(222.199951 0)"/>
     <use xlink:href="#STIXGeneral-Regular-32" transform="translate(247.199936 0)"/>
     <use xlink:href="#STIXGeneral-Regular-20" transform="translate(297.199921 0)"/>
     <use xlink:href="#STIXGeneral-Regular-28" transform="translate(322.199905 0)"/>
     <use xlink:href="#STIXGeneral-Regular-6f" transform="translate(355.499893 0)"/>
     <use xlink:href="#STIXGeneral-Regular-70" transform="translate(405.499878 0)"/>
     <use xlink:href="#STIXGeneral-Regular-74" transform="translate(455.499863 0)"/>
     <use xlink:href="#STIXGeneral-Regular-69" transform="translate(483.29985 0)"/>
     <use xlink:href="#STIXGeneral-Regular-6f" transform="translate(511.099838 0)"/>
     <use xlink:href="#STIXGeneral-Regular-6e" transform="translate(561.099823 0)"/>
     <use xlink:href="#STIXGeneral-Regular-61" transform="translate(611.099808 0)"/>
     <use xlink:href="#STIXGeneral-Regular-6c" transform="translate(655.499802 0)"/>
     <use xlink:href="#STIXGeneral-Regular-29" transform="translate(683.299789 0)"/>
    </g>
    <!-- Adaptive fixed-budget -->
    <g style="fill: #0f172a" transform="translate(493.069531 208.893) scale(0.1 -0.1)">
     <defs>
      <path id="STIXGeneral-Regular-66" d="M 134 2880 
L 659 2880 
Q 666 3264 710 3478 
Q 755 3693 883 3910 
Q 1152 4371 1786 4371 
Q 2074 4371 2262 4259 
Q 2451 4147 2451 3974 
Q 2451 3866 2374 3789 
Q 2298 3712 2182 3712 
Q 2029 3712 1894 3942 
Q 1741 4192 1555 4192 
Q 1197 4192 1197 3622 
L 1197 2880 
L 1978 2880 
L 1978 2675 
L 1197 2675 
L 1197 666 
Q 1197 307 1299 208 
Q 1402 109 1792 96 
L 1792 0 
L 128 0 
L 128 96 
Q 474 115 566 214 
Q 659 314 659 666 
L 659 2675 
L 134 2675 
L 134 2880 
z
" transform="scale(0.015625)"/>
     </defs>
     <use xlink:href="#STIXGeneral-Regular-41"/>
     <use xlink:href="#STIXGeneral-Regular-64" transform="translate(72.199982 0)"/>
     <use xlink:href="#STIXGeneral-Regular-61" transform="translate(122.199966 0)"/>
     <use xlink:href="#STIXGeneral-Regular-70" transform="translate(166.59996 0)"/>
     <use xlink:href="#STIXGeneral-Regular-74" transform="translate(216.599945 0)"/>
     <use xlink:href="#STIXGeneral-Regular-69" transform="translate(244.399933 0)"/>
     <use xlink:href="#STIXGeneral-Regular-76" transform="translate(272.199921 0)"/>
     <use xlink:href="#STIXGeneral-Regular-65" transform="translate(322.199905 0)"/>
     <use xlink:href="#STIXGeneral-Regular-20" transform="translate(366.599899 0)"/>
     <use xlink:href="#STIXGeneral-Regular-66" transform="translate(391.599884 0)"/>
     <use xlink:href="#STIXGeneral-Regular-69" transform="translate(424.899872 0)"/>
     <use xlink:href="#STIXGeneral-Regular-78" transform="translate(452.69986 0)"/>
     <use xlink:href="#STIXGeneral-Regular-65" transform="translate(502.699844 0)"/>
     <use xlink:href="#STIXGeneral-Regular-64" transform="translate(547.099838 0)"/>
     <use xlink:href="#STIXGeneral-Regular-2d" transform="translate(597.099823 0)"/>
     <use xlink:href="#STIXGeneral-Regular-62" transform="translate(630.399811 0)"/>
     <use xlink:href="#STIXGeneral-Regular-75" transform="translate(680.399796 0)"/>
     <use xlink:href="#STIXGeneral-Regular-64" transform="translate(730.39978 0)"/>
     <use xlink:href="#STIXGeneral-Regular-67" transform="translate(780.399765 0)"/>
     <use xlink:href="#STIXGeneral-Regular-65" transform="translate(830.39975 0)"/>
     <use xlink:href="#STIXGeneral-Regular-74" transform="translate(874.799744 0)"/>
    </g>
    <!-- measurement screening -->
    <g style="fill: #0f172a" transform="translate(491.128125 218.926828) scale(0.1 -0.1)">
     <defs>
      <path id="STIXGeneral-Regular-6d" d="M 4960 0 
L 3565 0 
L 3565 96 
Q 3834 122 3907 208 
Q 3981 294 3981 576 
L 3981 1894 
Q 3981 2278 3869 2444 
Q 3757 2611 3488 2611 
Q 3264 2611 3107 2521 
Q 2950 2432 2803 2221 
L 2803 608 
Q 2803 301 2896 201 
Q 2989 102 3264 96 
L 3264 0 
L 1830 0 
L 1830 96 
Q 2112 115 2189 188 
Q 2266 262 2266 550 
L 2266 1901 
Q 2266 2611 1850 2611 
Q 1670 2611 1468 2531 
Q 1267 2451 1171 2336 
Q 1088 2240 1088 2227 
L 1088 448 
Q 1088 243 1177 176 
Q 1267 109 1523 96 
L 1523 0 
L 102 0 
L 102 96 
Q 371 102 460 195 
Q 550 288 550 563 
L 550 2150 
Q 550 2387 499 2480 
Q 448 2573 326 2573 
Q 230 2573 122 2547 
L 122 2656 
Q 557 2778 1011 2944 
L 1062 2925 
L 1062 2451 
L 1075 2451 
Q 1363 2752 1584 2848 
Q 1805 2944 2054 2944 
Q 2560 2944 2733 2406 
Q 3232 2944 3776 2944 
Q 4518 2944 4518 1792 
L 4518 493 
Q 4518 282 4582 202 
Q 4646 122 4794 109 
L 4960 96 
L 4960 0 
z
" transform="scale(0.015625)"/>
     </defs>
     <use xlink:href="#STIXGeneral-Regular-6d"/>
     <use xlink:href="#STIXGeneral-Regular-65" transform="translate(77.799988 0)"/>
     <use xlink:href="#STIXGeneral-Regular-61" transform="translate(122.199982 0)"/>
     <use xlink:href="#STIXGeneral-Regular-73" transform="translate(166.599976 0)"/>
     <use xlink:href="#STIXGeneral-Regular-75" transform="translate(205.499969 0)"/>
     <use xlink:href="#STIXGeneral-Regular-72" transform="translate(255.499954 0)"/>
     <use xlink:href="#STIXGeneral-Regular-65" transform="translate(288.799942 0)"/>
     <use xlink:href="#STIXGeneral-Regular-6d" transform="translate(333.199936 0)"/>
     <use xlink:href="#STIXGeneral-Regular-65" transform="translate(410.999924 0)"/>
     <use xlink:href="#STIXGeneral-Regular-6e" transform="translate(455.399918 0)"/>
     <use xlink:href="#STIXGeneral-Regular-74" transform="translate(505.399902 0)"/>
     <use xlink:href="#STIXGeneral-Regular-20" transform="translate(533.19989 0)"/>
     <use xlink:href="#STIXGeneral-Regular-73" transform="translate(558.199875 0)"/>
     <use xlink:href="#STIXGeneral-Regular-63" transform="translate(597.099869 0)"/>
     <use xlink:href="#STIXGeneral-Regular-72" transform="translate(641.499863 0)"/>
     <use xlink:href="#STIXGeneral-Regular-65" transform="translate(674.79985 0)"/>
     <use xlink:href="#STIXGeneral-Regular-65" transform="translate(719.199844 0)"/>
     <use xlink:href="#STIXGeneral-Regular-6e" transform="translate(763.599838 0)"/>
     <use xlink:href="#STIXGeneral-Regular-69" transform="translate(813.599823 0)"/>
     <use xlink:href="#STIXGeneral-Regular-6e" transform="translate(841.399811 0)"/>
     <use xlink:href="#STIXGeneral-Regular-67" transform="translate(891.399796 0)"/>
    </g>
   </g>
   <g id="text_6">
    <!-- Downstream Target Cue -->
    <g style="fill: #0f172a" transform="translate(741.04375 137.083172) scale(0.1 -0.1)">
     <defs>
      <path id="STIXGeneral-Regular-54" d="M 3795 3149 
L 3642 3149 
Q 3539 3674 3353 3821 
Q 3168 3968 2656 3968 
L 2278 3968 
L 2278 710 
Q 2278 346 2387 243 
Q 2496 141 2893 122 
L 2893 0 
L 1024 0 
L 1024 122 
Q 1427 147 1526 256 
Q 1626 365 1626 787 
L 1626 3968 
L 1242 3968 
Q 723 3968 540 3817 
Q 358 3667 262 3149 
L 109 3149 
L 154 4237 
L 3750 4237 
L 3795 3149 
z
" transform="scale(0.015625)"/>
     </defs>
     <use xlink:href="#STIXGeneral-Regular-44"/>
     <use xlink:href="#STIXGeneral-Regular-6f" transform="translate(72.199982 0)"/>
     <use xlink:href="#STIXGeneral-Regular-77" transform="translate(122.199966 0)"/>
     <use xlink:href="#STIXGeneral-Regular-6e" transform="translate(194.399948 0)"/>
     <use xlink:href="#STIXGeneral-Regular-73" transform="translate(244.399933 0)"/>
     <use xlink:href="#STIXGeneral-Regular-74" transform="translate(283.299927 0)"/>
     <use xlink:href="#STIXGeneral-Regular-72" transform="translate(311.099915 0)"/>
     <use xlink:href="#STIXGeneral-Regular-65" transform="translate(344.399902 0)"/>
     <use xlink:href="#STIXGeneral-Regular-61" transform="translate(388.799896 0)"/>
     <use xlink:href="#STIXGeneral-Regular-6d" transform="translate(433.19989 0)"/>
     <use xlink:href="#STIXGeneral-Regular-20" transform="translate(510.999878 0)"/>
     <use xlink:href="#STIXGeneral-Regular-54" transform="translate(535.999863 0)"/>
     <use xlink:href="#STIXGeneral-Regular-61" transform="translate(597.099854 0)"/>
     <use xlink:href="#STIXGeneral-Regular-72" transform="translate(641.499847 0)"/>
     <use xlink:href="#STIXGeneral-Regular-67" transform="translate(674.799835 0)"/>
     <use xlink:href="#STIXGeneral-Regular-65" transform="translate(724.79982 0)"/>
     <use xlink:href="#STIXGeneral-Regular-74" transform="translate(769.199814 0)"/>
     <use xlink:href="#STIXGeneral-Regular-20" transform="translate(796.999802 0)"/>
     <use xlink:href="#STIXGeneral-Regular-43" transform="translate(821.999786 0)"/>
     <use xlink:href="#STIXGeneral-Regular-75" transform="translate(888.699783 0)"/>
     <use xlink:href="#STIXGeneral-Regular-65" transform="translate(938.699768 0)"/>
    </g>
    <!-- position + confidence -->
    <g style="fill: #0f172a" transform="translate(746.224219 147.117) scale(0.1 -0.1)">
     <defs>
      <path id="STIXGeneral-Regular-2b" d="M 4070 1408 
L 2400 1408 
L 2400 -262 
L 1978 -262 
L 1978 1408 
L 307 1408 
L 307 1830 
L 1978 1830 
L 1978 3501 
L 2400 3501 
L 2400 1830 
L 4070 1830 
L 4070 1408 
z
" transform="scale(0.015625)"/>
     </defs>
     <use xlink:href="#STIXGeneral-Regular-70"/>
     <use xlink:href="#STIXGeneral-Regular-6f" transform="translate(49.999985 0)"/>
     <use xlink:href="#STIXGeneral-Regular-73" transform="translate(99.999969 0)"/>
     <use xlink:href="#STIXGeneral-Regular-69" transform="translate(138.899963 0)"/>
     <use xlink:href="#STIXGeneral-Regular-74" transform="translate(166.699951 0)"/>
     <use xlink:href="#STIXGeneral-Regular-69" transform="translate(194.499939 0)"/>
     <use xlink:href="#STIXGeneral-Regular-6f" transform="translate(222.299927 0)"/>
     <use xlink:href="#STIXGeneral-Regular-6e" transform="translate(272.299911 0)"/>
     <use xlink:href="#STIXGeneral-Regular-20" transform="translate(322.299896 0)"/>
     <use xlink:href="#STIXGeneral-Regular-2b" transform="translate(347.299881 0)"/>
     <use xlink:href="#STIXGeneral-Regular-20" transform="translate(415.799866 0)"/>
     <use xlink:href="#STIXGeneral-Regular-63" transform="translate(440.79985 0)"/>
     <use xlink:href="#STIXGeneral-Regular-6f" transform="translate(485.199844 0)"/>
     <use xlink:href="#STIXGeneral-Regular-6e" transform="translate(535.199829 0)"/>
     <use xlink:href="#STIXGeneral-Regular-66" transform="translate(585.199814 0)"/>
     <use xlink:href="#STIXGeneral-Regular-69" transform="translate(618.499802 0)"/>
     <use xlink:href="#STIXGeneral-Regular-64" transform="translate(646.299789 0)"/>
     <use xlink:href="#STIXGeneral-Regular-65" transform="translate(696.299774 0)"/>
     <use xlink:href="#STIXGeneral-Regular-6e" transform="translate(740.699768 0)"/>
     <use xlink:href="#STIXGeneral-Regular-63" transform="translate(790.699753 0)"/>
     <use xlink:href="#STIXGeneral-Regular-65" transform="translate(835.099747 0)"/>
    </g>
    <!-- for current cycle -->
    <g style="fill: #0f172a" transform="translate(757.159375 157.141453) scale(0.1 -0.1)">
     <use xlink:href="#STIXGeneral-Regular-66"/>
     <use xlink:href="#STIXGeneral-Regular-6f" transform="translate(33.299988 0)"/>
     <use xlink:href="#STIXGeneral-Regular-72" transform="translate(83.299973 0)"/>
     <use xlink:href="#STIXGeneral-Regular-20" transform="translate(116.59996 0)"/>
     <use xlink:href="#STIXGeneral-Regular-63" transform="translate(141.599945 0)"/>
     <use xlink:href="#STIXGeneral-Regular-75" transform="translate(185.999939 0)"/>
     <use xlink:href="#STIXGeneral-Regular-72" transform="translate(235.999924 0)"/>
     <use xlink:href="#STIXGeneral-Regular-72" transform="translate(269.299911 0)"/>
     <use xlink:href="#STIXGeneral-Regular-65" transform="translate(302.599899 0)"/>
     <use xlink:href="#STIXGeneral-Regular-6e" transform="translate(346.999893 0)"/>
     <use xlink:href="#STIXGeneral-Regular-74" transform="translate(396.999878 0)"/>
     <use xlink:href="#STIXGeneral-Regular-20" transform="translate(424.799866 0)"/>
     <use xlink:href="#STIXGeneral-Regular-63" transform="translate(449.79985 0)"/>
     <use xlink:href="#STIXGeneral-Regular-79" transform="translate(494.199844 0)"/>
     <use xlink:href="#STIXGeneral-Regular-63" transform="translate(544.199829 0)"/>
     <use xlink:href="#STIXGeneral-Regular-6c" transform="translate(588.599823 0)"/>
     <use xlink:href="#STIXGeneral-Regular-65" transform="translate(616.399811 0)"/>
    </g>
   </g>
   <g id="text_7">
    <!-- Consumers -->
    <g style="fill: #0f172a" transform="translate(767.699219 215.716547) scale(0.1 -0.1)">
     <use xlink:href="#STIXGeneral-Regular-43"/>
     <use xlink:href="#STIXGeneral-Regular-6f" transform="translate(66.699997 0)"/>
     <use xlink:href="#STIXGeneral-Regular-6e" transform="translate(116.699982 0)"/>
     <use xlink:href="#STIXGeneral-Regular-73" transform="translate(166.699966 0)"/>
     <use xlink:href="#STIXGeneral-Regular-75" transform="translate(205.59996 0)"/>
     <use xlink:href="#STIXGeneral-Regular-6d" transform="translate(255.599945 0)"/>
     <use xlink:href="#STIXGeneral-Regular-65" transform="translate(333.399933 0)"/>
     <use xlink:href="#STIXGeneral-Regular-72" transform="translate(377.799927 0)"/>
     <use xlink:href="#STIXGeneral-Regular-73" transform="translate(411.099915 0)"/>
    </g>
    <!-- tracker / handoff / -->
    <g style="fill: #0f172a" transform="translate(754.239844 225.741) scale(0.1 -0.1)">
     <defs>
      <path id="STIXGeneral-Regular-6b" d="M 3232 0 
L 1837 0 
L 1837 96 
L 1958 96 
Q 2093 96 2093 192 
Q 2093 250 2022 339 
L 1062 1606 
L 1062 429 
Q 1062 262 1142 185 
Q 1222 109 1414 102 
L 1542 96 
L 1542 0 
L 45 0 
L 45 96 
Q 390 154 457 214 
Q 525 275 525 525 
L 525 3610 
Q 525 3840 467 3920 
Q 410 4000 250 4000 
Q 211 4000 45 3987 
L 45 4090 
L 237 4141 
Q 621 4243 1037 4371 
L 1062 4358 
L 1062 1670 
L 1939 2451 
Q 2086 2586 2086 2675 
Q 2086 2739 2019 2761 
Q 1952 2784 1766 2790 
L 1766 2880 
L 3072 2880 
L 3072 2784 
Q 2752 2784 2505 2646 
Q 2259 2509 1690 1978 
L 1504 1805 
L 2483 563 
Q 2829 122 3232 96 
L 3232 0 
z
" transform="scale(0.015625)"/>
     </defs>
     <use xlink:href="#STIXGeneral-Regular-74"/>
     <use xlink:href="#STIXGeneral-Regular-72" transform="translate(27.799988 0)"/>
     <use xlink:href="#STIXGeneral-Regular-61" transform="translate(61.099976 0)"/>
     <use xlink:href="#STIXGeneral-Regular-63" transform="translate(105.499969 0)"/>
     <use xlink:href="#STIXGeneral-Regular-6b" transform="translate(149.899963 0)"/>
     <use xlink:href="#STIXGeneral-Regular-65" transform="translate(199.899948 0)"/>
     <use xlink:href="#STIXGeneral-Regular-72" transform="translate(244.299942 0)"/>
     <use xlink:href="#STIXGeneral-Regular-20" transform="translate(277.59993 0)"/>
     <use xlink:href="#STIXGeneral-Regular-2f" transform="translate(302.599915 0)"/>
     <use xlink:href="#STIXGeneral-Regular-20" transform="translate(330.399902 0)"/>
     <use xlink:href="#STIXGeneral-Regular-68" transform="translate(355.399887 0)"/>
     <use xlink:href="#STIXGeneral-Regular-61" transform="translate(405.399872 0)"/>
     <use xlink:href="#STIXGeneral-Regular-6e" transform="translate(449.799866 0)"/>
     <use xlink:href="#STIXGeneral-Regular-64" transform="translate(499.79985 0)"/>
     <use xlink:href="#STIXGeneral-Regular-6f" transform="translate(549.799835 0)"/>
     <use xlink:href="#STIXGeneral-Regular-66" transform="translate(599.79982 0)"/>
     <use xlink:href="#STIXGeneral-Regular-66" transform="translate(633.099808 0)"/>
     <use xlink:href="#STIXGeneral-Regular-20" transform="translate(666.399796 0)"/>
     <use xlink:href="#STIXGeneral-Regular-2f" transform="translate(691.39978 0)"/>
    </g>
    <!-- formation replanning -->
    <g style="fill: #0f172a" transform="translate(747.845313 235.765453) scale(0.1 -0.1)">
     <use xlink:href="#STIXGeneral-Regular-66"/>
     <use xlink:href="#STIXGeneral-Regular-6f" transform="translate(33.299988 0)"/>
     <use xlink:href="#STIXGeneral-Regular-72" transform="translate(83.299973 0)"/>
     <use xlink:href="#STIXGeneral-Regular-6d" transform="translate(116.59996 0)"/>
     <use xlink:href="#STIXGeneral-Regular-61" transform="translate(194.399948 0)"/>
     <use xlink:href="#STIXGeneral-Regular-74" transform="translate(238.799942 0)"/>
     <use xlink:href="#STIXGeneral-Regular-69" transform="translate(266.59993 0)"/>
     <use xlink:href="#STIXGeneral-Regular-6f" transform="translate(294.399918 0)"/>
     <use xlink:href="#STIXGeneral-Regular-6e" transform="translate(344.399902 0)"/>
     <use xlink:href="#STIXGeneral-Regular-20" transform="translate(394.399887 0)"/>
     <use xlink:href="#STIXGeneral-Regular-72" transform="translate(419.399872 0)"/>
     <use xlink:href="#STIXGeneral-Regular-65" transform="translate(452.69986 0)"/>
     <use xlink:href="#STIXGeneral-Regular-70" transform="translate(497.099854 0)"/>
     <use xlink:href="#STIXGeneral-Regular-6c" transform="translate(547.099838 0)"/>
     <use xlink:href="#STIXGeneral-Regular-61" transform="translate(574.899826 0)"/>
     <use xlink:href="#STIXGeneral-Regular-6e" transform="translate(619.29982 0)"/>
     <use xlink:href="#STIXGeneral-Regular-6e" transform="translate(669.299805 0)"/>
     <use xlink:href="#STIXGeneral-Regular-69" transform="translate(719.299789 0)"/>
     <use xlink:href="#STIXGeneral-Regular-6e" transform="translate(747.099777 0)"/>
     <use xlink:href="#STIXGeneral-Regular-67" transform="translate(797.099762 0)"/>
    </g>
   </g>
   <g id="text_8">
    <!-- Corruption sources handled in this paper: -->
    <g style="fill: #065f46" transform="translate(455.56875 54.886031) scale(0.1 -0.1)">
     <defs>
      <path id="STIXGeneral-Regular-3a" d="M 1123 2832 
Q 1229 2726 1229 2579 
Q 1229 2432 1126 2329 
Q 1024 2227 877 2227 
Q 730 2227 624 2332 
Q 518 2438 518 2579 
Q 518 2733 620 2835 
Q 723 2938 877 2938 
Q 1018 2938 1123 2832 
z
M 1229 282 
Q 1229 141 1126 35 
Q 1024 -70 877 -70 
Q 730 -70 624 35 
Q 518 141 518 282 
Q 518 435 620 537 
Q 723 640 877 640 
Q 1018 640 1123 534 
Q 1229 429 1229 282 
z
" transform="scale(0.015625)"/>
     </defs>
     <use xlink:href="#STIXGeneral-Regular-43"/>
     <use xlink:href="#STIXGeneral-Regular-6f" transform="translate(66.699997 0)"/>
     <use xlink:href="#STIXGeneral-Regular-72" transform="translate(116.699982 0)"/>
     <use xlink:href="#STIXGeneral-Regular-72" transform="translate(149.999969 0)"/>
     <use xlink:href="#STIXGeneral-Regular-75" transform="translate(183.299957 0)"/>
     <use xlink:href="#STIXGeneral-Regular-70" transform="translate(233.299942 0)"/>
     <use xlink:href="#STIXGeneral-Regular-74" transform="translate(283.299927 0)"/>
     <use xlink:href="#STIXGeneral-Regular-69" transform="translate(311.099915 0)"/>
     <use xlink:href="#STIXGeneral-Regular-6f" transform="translate(338.899902 0)"/>
     <use xlink:href="#STIXGeneral-Regular-6e" transform="translate(388.899887 0)"/>
     <use xlink:href="#STIXGeneral-Regular-20" transform="translate(438.899872 0)"/>
     <use xlink:href="#STIXGeneral-Regular-73" transform="translate(463.899857 0)"/>
     <use xlink:href="#STIXGeneral-Regular-6f" transform="translate(502.79985 0)"/>
     <use xlink:href="#STIXGeneral-Regular-75" transform="translate(552.799835 0)"/>
     <use xlink:href="#STIXGeneral-Regular-72" transform="translate(602.79982 0)"/>
     <use xlink:href="#STIXGeneral-Regular-63" transform="translate(636.099808 0)"/>
     <use xlink:href="#STIXGeneral-Regular-65" transform="translate(680.499802 0)"/>
     <use xlink:href="#STIXGeneral-Regular-73" transform="translate(724.899796 0)"/>
     <use xlink:href="#STIXGeneral-Regular-20" transform="translate(763.799789 0)"/>
     <use xlink:href="#STIXGeneral-Regular-68" transform="translate(788.799774 0)"/>
     <use xlink:href="#STIXGeneral-Regular-61" transform="translate(838.799759 0)"/>
     <use xlink:href="#STIXGeneral-Regular-6e" transform="translate(883.199753 0)"/>
     <use xlink:href="#STIXGeneral-Regular-64" transform="translate(933.199738 0)"/>
     <use xlink:href="#STIXGeneral-Regular-6c" transform="translate(983.199722 0)"/>
     <use xlink:href="#STIXGeneral-Regular-65" transform="translate(1010.99971 0)"/>
     <use xlink:href="#STIXGeneral-Regular-64" transform="translate(1055.399704 0)"/>
     <use xlink:href="#STIXGeneral-Regular-20" transform="translate(1105.399689 0)"/>
     <use xlink:href="#STIXGeneral-Regular-69" transform="translate(1130.399673 0)"/>
     <use xlink:href="#STIXGeneral-Regular-6e" transform="translate(1158.199661 0)"/>
     <use xlink:href="#STIXGeneral-Regular-20" transform="translate(1208.199646 0)"/>
     <use xlink:href="#STIXGeneral-Regular-74" transform="translate(1233.199631 0)"/>
     <use xlink:href="#STIXGeneral-Regular-68" transform="translate(1260.999619 0)"/>
     <use xlink:href="#STIXGeneral-Regular-69" transform="translate(1310.999603 0)"/>
     <use xlink:href="#STIXGeneral-Regular-73" transform="translate(1338.799591 0)"/>
     <use xlink:href="#STIXGeneral-Regular-20" transform="translate(1377.699585 0)"/>
     <use xlink:href="#STIXGeneral-Regular-70" transform="translate(1402.69957 0)"/>
     <use xlink:href="#STIXGeneral-Regular-61" transform="translate(1452.699554 0)"/>
     <use xlink:href="#STIXGeneral-Regular-70" transform="translate(1497.099548 0)"/>
     <use xlink:href="#STIXGeneral-Regular-65" transform="translate(1547.099533 0)"/>
     <use xlink:href="#STIXGeneral-Regular-72" transform="translate(1591.499527 0)"/>
     <use xlink:href="#STIXGeneral-Regular-3a" transform="translate(1624.799515 0)"/>
    </g>
    <!-- missing bearings, shared / heterogeneous bias, outliers, pose uncertainty -->
    <g style="fill: #065f46" transform="translate(393.910938 65.251969) scale(0.1 -0.1)">
     <defs>
      <path id="STIXGeneral-Regular-2c" d="M 531 -902 
L 467 -781 
Q 998 -422 998 -96 
Q 998 -13 909 -13 
Q 883 -13 822 -25 
Q 762 -38 723 -38 
Q 352 -38 352 288 
Q 352 454 457 553 
Q 563 653 736 653 
Q 954 653 1101 496 
Q 1248 339 1248 96 
Q 1248 -198 1053 -473 
Q 858 -749 531 -902 
z
" transform="scale(0.015625)"/>
     </defs>
     <use xlink:href="#STIXGeneral-Regular-6d"/>
     <use xlink:href="#STIXGeneral-Regular-69" transform="translate(77.799988 0)"/>
     <use xlink:href="#STIXGeneral-Regular-73" transform="translate(105.599976 0)"/>
     <use xlink:href="#STIXGeneral-Regular-73" transform="translate(144.499969 0)"/>
     <use xlink:href="#STIXGeneral-Regular-69" transform="translate(183.399963 0)"/>
     <use xlink:href="#STIXGeneral-Regular-6e" transform="translate(211.199951 0)"/>
     <use xlink:href="#STIXGeneral-Regular-67" transform="translate(261.199936 0)"/>
     <use xlink:href="#STIXGeneral-Regular-20" transform="translate(311.199921 0)"/>
     <use xlink:href="#STIXGeneral-Regular-62" transform="translate(336.199905 0)"/>
     <use xlink:href="#STIXGeneral-Regular-65" transform="translate(386.19989 0)"/>
     <use xlink:href="#STIXGeneral-Regular-61" transform="translate(430.599884 0)"/>
     <use xlink:href="#STIXGeneral-Regular-72" transform="translate(474.999878 0)"/>
     <use xlink:href="#STIXGeneral-Regular-69" transform="translate(508.299866 0)"/>
     <use xlink:href="#STIXGeneral-Regular-6e" transform="translate(536.099854 0)"/>
     <use xlink:href="#STIXGeneral-Regular-67" transform="translate(586.099838 0)"/>
     <use xlink:href="#STIXGeneral-Regular-73" transform="translate(636.099823 0)"/>
     <use xlink:href="#STIXGeneral-Regular-2c" transform="translate(674.999817 0)"/>
     <use xlink:href="#STIXGeneral-Regular-20" transform="translate(699.999802 0)"/>
     <use xlink:href="#STIXGeneral-Regular-73" transform="translate(724.999786 0)"/>
     <use xlink:href="#STIXGeneral-Regular-68" transform="translate(763.89978 0)"/>
     <use xlink:href="#STIXGeneral-Regular-61" transform="translate(813.899765 0)"/>
     <use xlink:href="#STIXGeneral-Regular-72" transform="translate(858.299759 0)"/>
     <use xlink:href="#STIXGeneral-Regular-65" transform="translate(891.599747 0)"/>
     <use xlink:href="#STIXGeneral-Regular-64" transform="translate(935.999741 0)"/>
     <use xlink:href="#STIXGeneral-Regular-20" transform="translate(985.999725 0)"/>
     <use xlink:href="#STIXGeneral-Regular-2f" transform="translate(1010.99971 0)"/>
     <use xlink:href="#STIXGeneral-Regular-20" transform="translate(1038.799698 0)"/>
     <use xlink:href="#STIXGeneral-Regular-68" transform="translate(1063.799683 0)"/>
     <use xlink:href="#STIXGeneral-Regular-65" transform="translate(1113.799667 0)"/>
     <use xlink:href="#STIXGeneral-Regular-74" transform="translate(1158.199661 0)"/>
     <use xlink:href="#STIXGeneral-Regular-65" transform="translate(1185.999649 0)"/>
     <use xlink:href="#STIXGeneral-Regular-72" transform="translate(1230.399643 0)"/>
     <use xlink:href="#STIXGeneral-Regular-6f" transform="translate(1263.699631 0)"/>
     <use xlink:href="#STIXGeneral-Regular-67" transform="translate(1313.699615 0)"/>
     <use xlink:href="#STIXGeneral-Regular-65" transform="translate(1363.6996 0)"/>
     <use xlink:href="#STIXGeneral-Regular-6e" transform="translate(1408.099594 0)"/>
     <use xlink:href="#STIXGeneral-Regular-65" transform="translate(1458.099579 0)"/>
     <use xlink:href="#STIXGeneral-Regular-6f" transform="translate(1502.499573 0)"/>
     <use xlink:href="#STIXGeneral-Regular-75" transform="translate(1552.499557 0)"/>
     <use xlink:href="#STIXGeneral-Regular-73" transform="translate(1602.499542 0)"/>
     <use xlink:href="#STIXGeneral-Regular-20" transform="translate(1641.399536 0)"/>
     <use xlink:href="#STIXGeneral-Regular-62" transform="translate(1666.399521 0)"/>
     <use xlink:href="#STIXGeneral-Regular-69" transform="translate(1716.399506 0)"/>
     <use xlink:href="#STIXGeneral-Regular-61" transform="translate(1744.199493 0)"/>
     <use xlink:href="#STIXGeneral-Regular-73" transform="translate(1788.599487 0)"/>
     <use xlink:href="#STIXGeneral-Regular-2c" transform="translate(1827.499481 0)"/>
     <use xlink:href="#STIXGeneral-Regular-20" transform="translate(1852.499466 0)"/>
     <use xlink:href="#STIXGeneral-Regular-6f" transform="translate(1877.499451 0)"/>
     <use xlink:href="#STIXGeneral-Regular-75" transform="translate(1927.499435 0)"/>
     <use xlink:href="#STIXGeneral-Regular-74" transform="translate(1977.49942 0)"/>
     <use xlink:href="#STIXGeneral-Regular-6c" transform="translate(2005.299408 0)"/>
     <use xlink:href="#STIXGeneral-Regular-69" transform="translate(2033.099396 0)"/>
     <use xlink:href="#STIXGeneral-Regular-65" transform="translate(2060.899384 0)"/>
     <use xlink:href="#STIXGeneral-Regular-72" transform="translate(2105.299377 0)"/>
     <use xlink:href="#STIXGeneral-Regular-73" transform="translate(2138.599365 0)"/>
     <use xlink:href="#STIXGeneral-Regular-2c" transform="translate(2177.499359 0)"/>
     <use xlink:href="#STIXGeneral-Regular-20" transform="translate(2202.499344 0)"/>
     <use xlink:href="#STIXGeneral-Regular-70" transform="translate(2227.499329 0)"/>
     <use xlink:href="#STIXGeneral-Regular-6f" transform="translate(2277.499313 0)"/>
     <use xlink:href="#STIXGeneral-Regular-73" transform="translate(2327.499298 0)"/>
     <use xlink:href="#STIXGeneral-Regular-65" transform="translate(2366.399292 0)"/>
     <use xlink:href="#STIXGeneral-Regular-20" transform="translate(2410.799286 0)"/>
     <use xlink:href="#STIXGeneral-Regular-75" transform="translate(2435.799271 0)"/>
     <use xlink:href="#STIXGeneral-Regular-6e" transform="translate(2485.799255 0)"/>
     <use xlink:href="#STIXGeneral-Regular-63" transform="translate(2535.79924 0)"/>
     <use xlink:href="#STIXGeneral-Regular-65" transform="translate(2580.199234 0)"/>
     <use xlink:href="#STIXGeneral-Regular-72" transform="translate(2624.599228 0)"/>
     <use xlink:href="#STIXGeneral-Regular-74" transform="translate(2657.899216 0)"/>
     <use xlink:href="#STIXGeneral-Regular-61" transform="translate(2685.699203 0)"/>
     <use xlink:href="#STIXGeneral-Regular-69" transform="translate(2730.099197 0)"/>
     <use xlink:href="#STIXGeneral-Regular-6e" transform="translate(2757.899185 0)"/>
     <use xlink:href="#STIXGeneral-Regular-74" transform="translate(2807.89917 0)"/>
     <use xlink:href="#STIXGeneral-Regular-79" transform="translate(2835.699158 0)"/>
    </g>
   </g>
   <g id="text_9">
    <!-- Engineering gate: keep all-sensor robust fusion when credibility spread is low; screen only when budget or heterogeneity justifies pruning. -->
    <g style="fill: #14532d" transform="translate(274.741992 267.74475) scale(0.095 -0.095)">
     <defs>
      <path id="STIXGeneral-Regular-3b" d="M 1116 2832 
Q 1222 2726 1222 2579 
Q 1222 2432 1116 2329 
Q 1011 2227 870 2227 
Q 723 2227 617 2332 
Q 512 2438 512 2579 
Q 512 2733 614 2835 
Q 717 2938 870 2938 
Q 1011 2938 1116 2832 
z
M 685 -902 
L 621 -781 
Q 1152 -435 1152 -102 
Q 1152 -70 1126 -41 
Q 1101 -13 1062 -13 
Q 1043 -13 979 -25 
Q 915 -38 883 -38 
Q 512 -38 512 294 
Q 512 448 621 550 
Q 730 653 890 653 
Q 1107 653 1254 496 
Q 1402 339 1402 83 
Q 1402 -218 1210 -480 
Q 1018 -742 685 -902 
z
" transform="scale(0.015625)"/>
      <path id="STIXGeneral-Regular-6a" d="M 1242 4045 
Q 1242 3904 1146 3811 
Q 1050 3718 909 3718 
Q 774 3718 681 3811 
Q 589 3904 589 4045 
Q 589 4179 685 4275 
Q 781 4371 915 4371 
Q 1050 4371 1146 4275 
Q 1242 4179 1242 4045 
z
M 1235 2925 
L 1235 0 
Q 1235 -685 956 -1040 
Q 678 -1395 147 -1395 
Q -115 -1395 -281 -1296 
Q -448 -1197 -448 -1043 
Q -448 -941 -371 -867 
Q -294 -794 -186 -794 
Q -38 -794 122 -998 
Q 269 -1178 390 -1178 
Q 538 -1178 608 -1062 
Q 698 -902 698 -288 
L 698 2138 
Q 698 2522 493 2522 
Q 339 2522 237 2502 
L 205 2496 
L 205 2598 
Q 717 2758 1203 2944 
L 1235 2925 
z
" transform="scale(0.015625)"/>
      <path id="STIXGeneral-Regular-2e" d="M 1158 275 
Q 1158 134 1052 32 
Q 947 -70 800 -70 
Q 653 -70 550 32 
Q 448 134 448 281 
Q 448 429 553 534 
Q 659 640 806 640 
Q 947 640 1052 531 
Q 1158 422 1158 275 
z
" transform="scale(0.015625)"/>
     </defs>
     <use xlink:href="#STIXGeneral-Regular-45"/>
     <use xlink:href="#STIXGeneral-Regular-6e" transform="translate(61.099991 0)"/>
     <use xlink:href="#STIXGeneral-Regular-67" transform="translate(111.099976 0)"/>
     <use xlink:href="#STIXGeneral-Regular-69" transform="translate(161.09996 0)"/>
     <use xlink:href="#STIXGeneral-Regular-6e" transform="translate(188.899948 0)"/>
     <use xlink:href="#STIXGeneral-Regular-65" transform="translate(238.899933 0)"/>
     <use xlink:href="#STIXGeneral-Regular-65" transform="translate(283.299927 0)"/>
     <use xlink:href="#STIXGeneral-Regular-72" transform="translate(327.699921 0)"/>
     <use xlink:href="#STIXGeneral-Regular-69" transform="translate(360.999908 0)"/>
     <use xlink:href="#STIXGeneral-Regular-6e" transform="translate(388.799896 0)"/>
     <use xlink:href="#STIXGeneral-Regular-67" transform="translate(438.799881 0)"/>
     <use xlink:href="#STIXGeneral-Regular-20" transform="translate(488.799866 0)"/>
     <use xlink:href="#STIXGeneral-Regular-67" transform="translate(513.79985 0)"/>
     <use xlink:href="#STIXGeneral-Regular-61" transform="translate(563.799835 0)"/>
     <use xlink:href="#STIXGeneral-Regular-74" transform="translate(608.199829 0)"/>
     <use xlink:href="#STIXGeneral-Regular-65" transform="translate(635.999817 0)"/>
     <use xlink:href="#STIXGeneral-Regular-3a" transform="translate(680.399811 0)"/>
     <use xlink:href="#STIXGeneral-Regular-20" transform="translate(708.199799 0)"/>
     <use xlink:href="#STIXGeneral-Regular-6b" transform="translate(733.199783 0)"/>
     <use xlink:href="#STIXGeneral-Regular-65" transform="translate(783.199768 0)"/>
     <use xlink:href="#STIXGeneral-Regular-65" transform="translate(827.599762 0)"/>
     <use xlink:href="#STIXGeneral-Regular-70" transform="translate(871.999756 0)"/>
     <use xlink:href="#STIXGeneral-Regular-20" transform="translate(921.999741 0)"/>
     <use xlink:href="#STIXGeneral-Regular-61" transform="translate(946.999725 0)"/>
     <use xlink:href="#STIXGeneral-Regular-6c" transform="translate(991.399719 0)"/>
     <use xlink:href="#STIXGeneral-Regular-6c" transform="translate(1019.199707 0)"/>
     <use xlink:href="#STIXGeneral-Regular-2d" transform="translate(1046.999695 0)"/>
     <use xlink:href="#STIXGeneral-Regular-73" transform="translate(1080.299683 0)"/>
     <use xlink:href="#STIXGeneral-Regular-65" transform="translate(1119.199677 0)"/>
     <use xlink:href="#STIXGeneral-Regular-6e" transform="translate(1163.59967 0)"/>
     <use xlink:href="#STIXGeneral-Regular-73" transform="translate(1213.599655 0)"/>
     <use xlink:href="#STIXGeneral-Regular-6f" transform="translate(1252.499649 0)"/>
     <use xlink:href="#STIXGeneral-Regular-72" transform="translate(1302.499634 0)"/>
     <use xlink:href="#STIXGeneral-Regular-20" transform="translate(1335.799622 0)"/>
     <use xlink:href="#STIXGeneral-Regular-72" transform="translate(1360.799606 0)"/>
     <use xlink:href="#STIXGeneral-Regular-6f" transform="translate(1394.099594 0)"/>
     <use xlink:href="#STIXGeneral-Regular-62" transform="translate(1444.099579 0)"/>
     <use xlink:href="#STIXGeneral-Regular-75" transform="translate(1494.099564 0)"/>
     <use xlink:href="#STIXGeneral-Regular-73" transform="translate(1544.099548 0)"/>
     <use xlink:href="#STIXGeneral-Regular-74" transform="translate(1582.999542 0)"/>
     <use xlink:href="#STIXGeneral-Regular-20" transform="translate(1610.79953 0)"/>
     <use xlink:href="#STIXGeneral-Regular-66" transform="translate(1635.799515 0)"/>
     <use xlink:href="#STIXGeneral-Regular-75" transform="translate(1669.099503 0)"/>
     <use xlink:href="#STIXGeneral-Regular-73" transform="translate(1719.099487 0)"/>
     <use xlink:href="#STIXGeneral-Regular-69" transform="translate(1757.999481 0)"/>
     <use xlink:href="#STIXGeneral-Regular-6f" transform="translate(1785.799469 0)"/>
     <use xlink:href="#STIXGeneral-Regular-6e" transform="translate(1835.799454 0)"/>
     <use xlink:href="#STIXGeneral-Regular-20" transform="translate(1885.799438 0)"/>
     <use xlink:href="#STIXGeneral-Regular-77" transform="translate(1910.799423 0)"/>
     <use xlink:href="#STIXGeneral-Regular-68" transform="translate(1982.999405 0)"/>
     <use xlink:href="#STIXGeneral-Regular-65" transform="translate(2032.99939 0)"/>
     <use xlink:href="#STIXGeneral-Regular-6e" transform="translate(2077.399384 0)"/>
     <use xlink:href="#STIXGeneral-Regular-20" transform="translate(2127.399368 0)"/>
     <use xlink:href="#STIXGeneral-Regular-63" transform="translate(2152.399353 0)"/>
     <use xlink:href="#STIXGeneral-Regular-72" transform="translate(2196.799347 0)"/>
     <use xlink:href="#STIXGeneral-Regular-65" transform="translate(2230.099335 0)"/>
     <use xlink:href="#STIXGeneral-Regular-64" transform="translate(2274.499329 0)"/>
     <use xlink:href="#STIXGeneral-Regular-69" transform="translate(2324.499313 0)"/>
     <use xlink:href="#STIXGeneral-Regular-62" transform="translate(2352.299301 0)"/>
     <use xlink:href="#STIXGeneral-Regular-69" transform="translate(2402.299286 0)"/>
     <use xlink:href="#STIXGeneral-Regular-6c" transform="translate(2430.099274 0)"/>
     <use xlink:href="#STIXGeneral-Regular-69" transform="translate(2457.899261 0)"/>
     <use xlink:href="#STIXGeneral-Regular-74" transform="translate(2485.699249 0)"/>
     <use xlink:href="#STIXGeneral-Regular-79" transform="translate(2513.499237 0)"/>
     <use xlink:href="#STIXGeneral-Regular-20" transform="translate(2563.499222 0)"/>
     <use xlink:href="#STIXGeneral-Regular-73" transform="translate(2588.499207 0)"/>
     <use xlink:href="#STIXGeneral-Regular-70" transform="translate(2627.3992 0)"/>
     <use xlink:href="#STIXGeneral-Regular-72" transform="translate(2677.399185 0)"/>
     <use xlink:href="#STIXGeneral-Regular-65" transform="translate(2710.699173 0)"/>
     <use xlink:href="#STIXGeneral-Regular-61" transform="translate(2755.099167 0)"/>
     <use xlink:href="#STIXGeneral-Regular-64" transform="translate(2799.499161 0)"/>
     <use xlink:href="#STIXGeneral-Regular-20" transform="translate(2849.499146 0)"/>
     <use xlink:href="#STIXGeneral-Regular-69" transform="translate(2874.49913 0)"/>
     <use xlink:href="#STIXGeneral-Regular-73" transform="translate(2902.299118 0)"/>
     <use xlink:href="#STIXGeneral-Regular-20" transform="translate(2941.199112 0)"/>
     <use xlink:href="#STIXGeneral-Regular-6c" transform="translate(2966.199097 0)"/>
     <use xlink:href="#STIXGeneral-Regular-6f" transform="translate(2993.999084 0)"/>
     <use xlink:href="#STIXGeneral-Regular-77" transform="translate(3043.999069 0)"/>
     <use xlink:href="#STIXGeneral-Regular-3b" transform="translate(3116.199051 0)"/>
     <use xlink:href="#STIXGeneral-Regular-20" transform="translate(3143.999039 0)"/>
     <use xlink:href="#STIXGeneral-Regular-73" transform="translate(3168.999023 0)"/>
     <use xlink:href="#STIXGeneral-Regular-63" transform="translate(3207.899017 0)"/>
     <use xlink:href="#STIXGeneral-Regular-72" transform="translate(3252.299011 0)"/>
     <use xlink:href="#STIXGeneral-Regular-65" transform="translate(3285.598999 0)"/>
     <use xlink:href="#STIXGeneral-Regular-65" transform="translate(3329.998993 0)"/>
     <use xlink:href="#STIXGeneral-Regular-6e" transform="translate(3374.398987 0)"/>
     <use xlink:href="#STIXGeneral-Regular-20" transform="translate(3424.398972 0)"/>
     <use xlink:href="#STIXGeneral-Regular-6f" transform="translate(3449.398956 0)"/>
     <use xlink:href="#STIXGeneral-Regular-6e" transform="translate(3499.398941 0)"/>
     <use xlink:href="#STIXGeneral-Regular-6c" transform="translate(3549.398926 0)"/>
     <use xlink:href="#STIXGeneral-Regular-79" transform="translate(3577.198914 0)"/>
     <use xlink:href="#STIXGeneral-Regular-20" transform="translate(3627.198898 0)"/>
     <use xlink:href="#STIXGeneral-Regular-77" transform="translate(3652.198883 0)"/>
     <use xlink:href="#STIXGeneral-Regular-68" transform="translate(3724.398865 0)"/>
     <use xlink:href="#STIXGeneral-Regular-65" transform="translate(3774.398849 0)"/>
     <use xlink:href="#STIXGeneral-Regular-6e" transform="translate(3818.798843 0)"/>
     <use xlink:href="#STIXGeneral-Regular-20" transform="translate(3868.798828 0)"/>
     <use xlink:href="#STIXGeneral-Regular-62" transform="translate(3893.798813 0)"/>
     <use xlink:href="#STIXGeneral-Regular-75" transform="translate(3943.798798 0)"/>
     <use xlink:href="#STIXGeneral-Regular-64" transform="translate(3993.798782 0)"/>
     <use xlink:href="#STIXGeneral-Regular-67" transform="translate(4043.798767 0)"/>
     <use xlink:href="#STIXGeneral-Regular-65" transform="translate(4093.798752 0)"/>
     <use xlink:href="#STIXGeneral-Regular-74" transform="translate(4138.198746 0)"/>
     <use xlink:href="#STIXGeneral-Regular-20" transform="translate(4165.998734 0)"/>
     <use xlink:href="#STIXGeneral-Regular-6f" transform="translate(4190.998718 0)"/>
     <use xlink:href="#STIXGeneral-Regular-72" transform="translate(4240.998703 0)"/>
     <use xlink:href="#STIXGeneral-Regular-20" transform="translate(4274.298691 0)"/>
     <use xlink:href="#STIXGeneral-Regular-68" transform="translate(4299.298676 0)"/>
     <use xlink:href="#STIXGeneral-Regular-65" transform="translate(4349.29866 0)"/>
     <use xlink:href="#STIXGeneral-Regular-74" transform="translate(4393.698654 0)"/>
     <use xlink:href="#STIXGeneral-Regular-65" transform="translate(4421.498642 0)"/>
     <use xlink:href="#STIXGeneral-Regular-72" transform="translate(4465.898636 0)"/>
     <use xlink:href="#STIXGeneral-Regular-6f" transform="translate(4499.198624 0)"/>
     <use xlink:href="#STIXGeneral-Regular-67" transform="translate(4549.198608 0)"/>
     <use xlink:href="#STIXGeneral-Regular-65" transform="translate(4599.198593 0)"/>
     <use xlink:href="#STIXGeneral-Regular-6e" transform="translate(4643.598587 0)"/>
     <use xlink:href="#STIXGeneral-Regular-65" transform="translate(4693.598572 0)"/>
     <use xlink:href="#STIXGeneral-Regular-69" transform="translate(4737.998566 0)"/>
     <use xlink:href="#STIXGeneral-Regular-74" transform="translate(4765.798553 0)"/>
     <use xlink:href="#STIXGeneral-Regular-79" transform="translate(4793.598541 0)"/>
     <use xlink:href="#STIXGeneral-Regular-20" transform="translate(4843.598526 0)"/>
     <use xlink:href="#STIXGeneral-Regular-6a" transform="translate(4868.598511 0)"/>
     <use xlink:href="#STIXGeneral-Regular-75" transform="translate(4896.398499 0)"/>
     <use xlink:href="#STIXGeneral-Regular-73" transform="translate(4946.398483 0)"/>
     <use xlink:href="#STIXGeneral-Regular-74" transform="translate(4985.298477 0)"/>
     <use xlink:href="#STIXGeneral-Regular-69" transform="translate(5013.098465 0)"/>
     <use xlink:href="#STIXGeneral-Regular-66" transform="translate(5040.898453 0)"/>
     <use xlink:href="#STIXGeneral-Regular-69" transform="translate(5074.198441 0)"/>
     <use xlink:href="#STIXGeneral-Regular-65" transform="translate(5101.998428 0)"/>
     <use xlink:href="#STIXGeneral-Regular-73" transform="translate(5146.398422 0)"/>
     <use xlink:href="#STIXGeneral-Regular-20" transform="translate(5185.298416 0)"/>
     <use xlink:href="#STIXGeneral-Regular-70" transform="translate(5210.298401 0)"/>
     <use xlink:href="#STIXGeneral-Regular-72" transform="translate(5260.298386 0)"/>
     <use xlink:href="#STIXGeneral-Regular-75" transform="translate(5293.598373 0)"/>
     <use xlink:href="#STIXGeneral-Regular-6e" transform="translate(5343.598358 0)"/>
     <use xlink:href="#STIXGeneral-Regular-69" transform="translate(5393.598343 0)"/>
     <use xlink:href="#STIXGeneral-Regular-6e" transform="translate(5421.398331 0)"/>
     <use xlink:href="#STIXGeneral-Regular-67" transform="translate(5471.398315 0)"/>
     <use xlink:href="#STIXGeneral-Regular-2e" transform="translate(5521.3983 0)"/>
    </g>
   </g>
  </g>
 </g>
 <defs>
  <clipPath id="p6711b152df">
   <rect x="7.2" y="7.2" width="900" height="280.8"/>
  </clipPath>
 </defs>
</svg>
