<?xml version="1.0" encoding="utf-8" standalone="no"?>
<!DOCTYPE svg PUBLIC "-//W3C//DTD SVG 1.1//EN"
  "http://www.w3.org/Graphics/SVG/1.1/DTD/svg11.dtd">
<svg xmlns:xlink="http://www.w3.org/1999/xlink" width="842.569062pt" height="345.71875pt" viewBox="0 0 842.569062 345.71875" xmlns="http://www.w3.org/2000/svg" version="1.1">
 <metadata>
  <rdf:RDF xmlns:dc="http://purl.org/dc/elements/1.1/" xmlns:cc="http://creativecommons.org/ns#" xmlns:rdf="http://www.w3.org/1999/02/22-rdf-syntax-ns#">
   <cc:Work>
    <dc:type rdf:resource="http://purl.org/dc/dcmitype/StillImage"/>
    <dc:date>2026-04-19T15:18:54.173535</dc:date>
    <dc:format>image/svg+xml</dc:format>
    <dc:creator>
     <cc:Agent>
      <dc:title>Matplotlib v3.10.8, https://matplotlib.org/</dc:title>
     </cc:Agent>
    </dc:creator>
   </cc:Work>
  </rdf:RDF>
 </metadata>
 <defs>
  <style type="text/css">*{stroke-linejoin: round; stroke-linecap: butt}</style>
 </defs>
 <g id="figure_1">
  <g id="patch_1">
   <path d="M 0 345.71875 
L 842.569062 345.71875 
L 842.569062 0 
L 0 0 
z
" style="fill: #ffffff"/>
  </g>
  <g id="axes_1">
   <g id="patch_2">
    <path d="M 40.610313 322.51875 
L 430.839687 322.51875 
L 430.839687 44.92 
L 40.610313 44.92 
z
" style="fill: #fcfbf8"/>
   </g>
   <g id="patch_3">
    <path d="M 58.348011 322.51875 
L 133.033059 322.51875 
L 133.033059 273.915312 
L 58.348011 273.915312 
z
" clip-path="url(#pc37365e1e3)" style="fill: #047857"/>
   </g>
   <g id="patch_4">
    <path d="M 151.704321 322.51875 
L 226.389369 322.51875 
L 226.389369 275.062296 
L 151.704321 275.062296 
z
" clip-path="url(#pc37365e1e3)" style="fill: #047857"/>
   </g>
   <g id="patch_5">
    <path d="M 245.060631 322.51875 
L 319.745679 322.51875 
L 319.745679 275.779161 
L 245.060631 275.779161 
z
" clip-path="url(#pc37365e1e3)" style="fill: #047857"/>
   </g>
   <g id="patch_6">
    <path d="M 338.416941 322.51875 
L 413.101989 322.51875 
L 413.101989 202.802318 
L 338.416941 202.802318 
z
" clip-path="url(#pc37365e1e3)" style="fill: #047857"/>
   </g>
   <g id="patch_7">
    <path d="M 58.348011 273.915312 
L 133.033059 273.915312 
L 133.033059 181.726491 
L 58.348011 181.726491 
z
" clip-path="url(#pc37365e1e3)" style="fill: #d97706"/>
   </g>
   <g id="patch_8">
    <path d="M 151.704321 275.062296 
L 226.389369 275.062296 
L 226.389369 183.16022 
L 151.704321 183.16022 
z
" clip-path="url(#pc37365e1e3)" style="fill: #d97706"/>
   </g>
   <g id="patch_9">
    <path d="M 245.060631 275.779161 
L 319.745679 275.779161 
L 319.745679 183.446966 
L 245.060631 183.446966 
z
" clip-path="url(#pc37365e1e3)" style="fill: #d97706"/>
   </g>
   <g id="patch_10">
    <path d="M 338.416941 202.802318 
L 413.101989 202.802318 
L 413.101989 100.577388 
L 338.416941 100.577388 
z
" clip-path="url(#pc37365e1e3)" style="fill: #d97706"/>
   </g>
   <g id="patch_11">
    <path d="M 58.348011 181.726491 
L 133.033059 181.726491 
L 133.033059 58.138988 
L 58.348011 58.138988 
z
" clip-path="url(#pc37365e1e3)" style="fill: #b91c1c"/>
   </g>
   <g id="patch_12">
    <path d="M 151.704321 183.16022 
L 226.389369 183.16022 
L 226.389369 58.138988 
L 151.704321 58.138988 
z
" clip-path="url(#pc37365e1e3)" style="fill: #b91c1c"/>
   </g>
   <g id="patch_13">
    <path d="M 245.060631 183.446966 
L 319.745679 183.446966 
L 319.745679 58.138988 
L 245.060631 58.138988 
z
" clip-path="url(#pc37365e1e3)" style="fill: #b91c1c"/>
   </g>
   <g id="patch_14">
    <path d="M 338.416941 100.577388 
L 413.101989 100.577388 
L 413.101989 58.138988 
L 338.416941 58.138988 
z
" clip-path="url(#pc37365e1e3)" style="fill: #b91c1c"/>
   </g>
   <g id="matplotlib.axis_1">
    <g id="xtick_1">
     <g id="line2d_1">
      <defs>
       <path id="ma1e432f521" d="M 0 0 
L 0 3.5 
" style="stroke: #334155; stroke-width: 0.8"/>
      </defs>
      <g>
       <use xlink:href="#ma1e432f521" x="95.690535" y="322.51875" style="fill: #334155; stroke: #334155; stroke-width: 0.8"/>
      </g>
     </g>
     <g id="text_1">
      <!-- LS -->
      <g style="fill: #334155" transform="translate(89.85616 336.348437) scale(0.1 -0.1)">
       <defs>
        <path id="STIXGeneral-Regular-4c" d="M 3827 1114 
L 3520 0 
L 77 0 
L 77 122 
Q 429 141 531 256 
Q 634 371 634 736 
L 634 3494 
Q 634 3872 541 3981 
Q 448 4090 77 4115 
L 77 4237 
L 1888 4237 
L 1888 4115 
Q 1498 4090 1392 3984 
Q 1286 3878 1286 3507 
L 1286 538 
Q 1286 358 1398 304 
Q 1510 250 1862 250 
L 2310 250 
Q 3085 250 3392 640 
Q 3520 813 3661 1114 
L 3827 1114 
z
" transform="scale(0.015625)"/>
        <path id="STIXGeneral-Regular-53" d="M 3002 2963 
L 2842 2963 
Q 2733 3360 2579 3565 
Q 2189 4064 1651 4064 
Q 1357 4064 1181 3894 
Q 1005 3725 1005 3456 
Q 1005 3328 1069 3206 
Q 1133 3085 1206 2998 
Q 1280 2912 1465 2784 
Q 1651 2656 1766 2589 
Q 1882 2522 2150 2362 
Q 2669 2061 2905 1763 
Q 3142 1466 3142 1107 
Q 3142 576 2771 243 
Q 2400 -90 1837 -90 
Q 1421 -90 1082 58 
Q 915 128 781 128 
Q 704 128 653 70 
Q 602 13 602 -83 
L 461 -83 
L 275 1274 
L 416 1274 
Q 845 141 1734 141 
Q 2074 141 2285 342 
Q 2496 544 2496 858 
Q 2496 1158 2310 1363 
Q 2003 1696 1235 2106 
Q 454 2522 454 3206 
Q 454 3718 768 4022 
Q 1082 4326 1568 4326 
Q 1907 4326 2240 4186 
Q 2413 4109 2522 4109 
Q 2688 4109 2726 4326 
L 2861 4326 
L 3002 2963 
z
" transform="scale(0.015625)"/>
       </defs>
       <use xlink:href="#STIXGeneral-Regular-4c"/>
       <use xlink:href="#STIXGeneral-Regular-53" transform="translate(61.099991 0)"/>
      </g>
     </g>
    </g>
    <g id="xtick_2">
     <g id="line2d_2">
      <g>
       <use xlink:href="#ma1e432f521" x="189.046845" y="322.51875" style="fill: #334155; stroke: #334155; stroke-width: 0.8"/>
      </g>
     </g>
     <g id="text_2">
      <!-- GNC-GM -->
      <g style="fill: #334155" transform="translate(168.771064 336.348437) scale(0.1 -0.1)">
       <defs>
        <path id="STIXGeneral-Regular-47" d="M 4538 2266 
L 4538 2150 
Q 4256 2125 4173 2035 
Q 4090 1946 4090 1638 
L 4090 358 
Q 3539 -90 2464 -90 
Q 1965 -90 1507 89 
Q 1050 269 736 595 
Q 205 1152 205 2093 
Q 205 3155 890 3776 
Q 1491 4326 2419 4326 
Q 2829 4326 3270 4179 
Q 3443 4115 3552 4115 
Q 3654 4115 3731 4176 
Q 3808 4237 3840 4326 
L 3981 4326 
L 4032 2976 
L 3885 2976 
Q 3680 3475 3430 3718 
Q 3059 4070 2496 4070 
Q 1856 4070 1427 3629 
Q 934 3136 934 2074 
Q 934 1190 1395 678 
Q 1856 166 2618 166 
Q 2982 166 3225 281 
Q 3469 397 3469 557 
L 3469 1562 
Q 3469 1933 3376 2025 
Q 3283 2118 2899 2150 
L 2899 2266 
L 4538 2266 
z
" transform="scale(0.015625)"/>
        <path id="STIXGeneral-Regular-4e" d="M 4525 4237 
L 4525 4115 
Q 4198 4083 4102 4000 
Q 4000 3910 3958 3756 
Q 3917 3603 3917 3245 
L 3917 -70 
L 3802 -70 
L 979 3443 
L 979 960 
Q 979 474 1088 323 
Q 1197 173 1574 122 
L 1574 0 
L 77 0 
L 77 122 
Q 474 166 586 310 
Q 698 454 698 960 
L 698 3776 
Q 531 3981 416 4048 
Q 301 4115 77 4115 
L 77 4237 
L 1165 4237 
L 3635 1146 
L 3635 3322 
Q 3635 3808 3514 3949 
Q 3437 4032 3344 4061 
Q 3251 4090 3008 4115 
L 3008 4237 
L 4525 4237 
z
" transform="scale(0.015625)"/>
        <path id="STIXGeneral-Regular-43" d="M 3930 838 
L 4051 723 
Q 3482 -90 2304 -90 
Q 1376 -90 794 480 
Q 179 1082 179 2080 
Q 179 3014 755 3661 
Q 1357 4326 2310 4326 
Q 2720 4326 3072 4230 
Q 3475 4115 3514 4115 
Q 3725 4115 3782 4326 
L 3910 4326 
L 3968 2874 
L 3821 2874 
Q 3718 3334 3488 3584 
Q 3034 4070 2458 4070 
Q 1747 4070 1334 3548 
Q 922 3027 922 2182 
Q 922 1152 1382 653 
Q 1811 192 2522 192 
Q 2944 192 3251 339 
Q 3558 486 3930 838 
z
" transform="scale(0.015625)"/>
        <path id="STIXGeneral-Regular-2d" d="M 1824 1242 
L 250 1242 
L 250 1645 
L 1824 1645 
L 1824 1242 
z
" transform="scale(0.015625)"/>
        <path id="STIXGeneral-Regular-4d" d="M 5530 0 
L 3738 0 
L 3738 122 
Q 4115 147 4214 265 
Q 4314 384 4314 787 
L 4314 3661 
L 2682 0 
L 2592 0 
L 979 3514 
L 979 966 
Q 979 448 1088 294 
Q 1197 141 1574 122 
L 1574 0 
L 77 0 
L 77 122 
Q 358 141 480 205 
Q 602 269 650 432 
Q 698 595 698 966 
L 698 3514 
Q 698 3878 589 3984 
Q 480 4090 90 4115 
L 90 4237 
L 1357 4237 
L 2835 1024 
L 4250 4237 
L 5523 4237 
L 5523 4115 
Q 5178 4109 5072 3993 
Q 4966 3878 4966 3520 
L 4966 717 
Q 4966 378 5072 262 
Q 5178 147 5530 122 
L 5530 0 
z
" transform="scale(0.015625)"/>
       </defs>
       <use xlink:href="#STIXGeneral-Regular-47"/>
       <use xlink:href="#STIXGeneral-Regular-4e" transform="translate(72.199982 0)"/>
       <use xlink:href="#STIXGeneral-Regular-43" transform="translate(144.399963 0)"/>
       <use xlink:href="#STIXGeneral-Regular-2d" transform="translate(211.09996 0)"/>
       <use xlink:href="#STIXGeneral-Regular-47" transform="translate(244.399948 0)"/>
       <use xlink:href="#STIXGeneral-Regular-4d" transform="translate(316.59993 0)"/>
      </g>
     </g>
    </g>
    <g id="xtick_3">
     <g id="line2d_3">
      <g>
       <use xlink:href="#ma1e432f521" x="282.403155" y="322.51875" style="fill: #334155; stroke: #334155; stroke-width: 0.8"/>
      </g>
     </g>
     <g id="text_3">
      <!-- Huber -->
      <g style="fill: #334155" transform="translate(269.907842 336.348437) scale(0.1 -0.1)">
       <defs>
        <path id="STIXGeneral-Regular-48" d="M 4499 0 
L 2714 0 
L 2714 122 
Q 3085 147 3181 265 
Q 3277 384 3277 794 
L 3277 2016 
L 1338 2016 
L 1338 723 
Q 1338 371 1440 256 
Q 1542 141 1894 122 
L 1901 0 
L 115 0 
L 115 122 
Q 493 147 589 259 
Q 685 371 685 781 
L 685 3507 
Q 685 3878 585 3980 
Q 486 4083 115 4115 
L 115 4237 
L 1907 4237 
L 1907 4115 
Q 1549 4083 1443 3977 
Q 1338 3872 1338 3507 
L 1338 2298 
L 3277 2298 
L 3277 3507 
Q 3277 3878 3177 3980 
Q 3078 4083 2707 4115 
L 2707 4237 
L 4499 4237 
L 4499 4115 
Q 4141 4083 4035 3977 
Q 3930 3872 3930 3507 
L 3930 710 
Q 3930 371 4035 259 
Q 4141 147 4499 122 
L 4499 0 
z
" transform="scale(0.015625)"/>
        <path id="STIXGeneral-Regular-75" d="M 3072 320 
L 3072 230 
Q 2573 96 2195 -58 
L 2163 -38 
L 2163 486 
L 2150 486 
Q 1747 -64 1235 -64 
Q 870 -64 662 160 
Q 454 384 454 755 
L 454 2362 
Q 454 2598 371 2688 
Q 288 2778 58 2790 
L 58 2880 
L 992 2880 
L 992 813 
Q 992 595 1123 451 
Q 1254 307 1446 307 
Q 1760 307 1984 506 
Q 2067 582 2099 649 
Q 2131 717 2131 877 
L 2131 2355 
Q 2131 2605 2041 2678 
Q 1952 2752 1658 2771 
L 1658 2880 
L 2669 2880 
L 2669 685 
Q 2669 461 2742 390 
Q 2816 320 3034 320 
L 3072 320 
z
" transform="scale(0.015625)"/>
        <path id="STIXGeneral-Regular-62" d="M 979 4358 
L 979 2406 
Q 1082 2650 1315 2797 
Q 1549 2944 1843 2944 
Q 2349 2944 2672 2541 
Q 2995 2138 2995 1536 
Q 2995 832 2566 384 
Q 2138 -64 1498 -64 
Q 1107 -64 774 67 
Q 442 198 442 358 
L 442 3622 
Q 442 3859 384 3926 
Q 326 3994 128 3994 
Q 83 3994 19 3981 
L 19 4090 
L 211 4147 
Q 864 4346 947 4371 
L 979 4358 
z
M 979 2035 
L 979 474 
Q 979 326 1161 233 
Q 1344 141 1600 141 
Q 1978 141 2195 416 
Q 2432 710 2432 1261 
Q 2432 1888 2182 2240 
Q 1971 2541 1613 2541 
Q 1357 2541 1168 2390 
Q 979 2240 979 2035 
z
" transform="scale(0.015625)"/>
        <path id="STIXGeneral-Regular-65" d="M 2611 1050 
L 2714 1005 
Q 2330 -64 1376 -64 
Q 813 -64 486 329 
Q 160 723 160 1389 
Q 160 2074 525 2509 
Q 890 2944 1485 2944 
Q 2061 2944 2374 2502 
Q 2560 2246 2592 1773 
L 621 1773 
Q 646 1370 700 1158 
Q 755 947 915 730 
Q 1184 378 1626 378 
Q 1939 378 2153 531 
Q 2368 685 2611 1050 
z
M 634 1978 
L 1939 1978 
Q 1882 2381 1750 2547 
Q 1619 2714 1312 2714 
Q 1043 2714 864 2525 
Q 685 2336 634 1978 
z
" transform="scale(0.015625)"/>
        <path id="STIXGeneral-Regular-72" d="M 1024 2931 
L 1024 2342 
Q 1267 2688 1430 2816 
Q 1594 2944 1792 2944 
Q 1958 2944 2051 2854 
Q 2144 2765 2144 2605 
Q 2144 2470 2077 2393 
Q 2010 2317 1894 2317 
Q 1773 2317 1638 2445 
Q 1536 2541 1472 2541 
Q 1338 2541 1181 2355 
Q 1024 2170 1024 2016 
L 1024 576 
Q 1024 301 1133 205 
Q 1242 109 1568 96 
L 1568 0 
L 32 0 
L 32 96 
Q 339 154 412 224 
Q 486 294 486 538 
L 486 2138 
Q 486 2349 438 2435 
Q 390 2522 269 2522 
Q 166 2522 45 2496 
L 45 2598 
Q 448 2726 992 2944 
L 1024 2931 
z
" transform="scale(0.015625)"/>
       </defs>
       <use xlink:href="#STIXGeneral-Regular-48"/>
       <use xlink:href="#STIXGeneral-Regular-75" transform="translate(72.199982 0)"/>
       <use xlink:href="#STIXGeneral-Regular-62" transform="translate(122.199966 0)"/>
       <use xlink:href="#STIXGeneral-Regular-65" transform="translate(172.199951 0)"/>
       <use xlink:href="#STIXGeneral-Regular-72" transform="translate(216.599945 0)"/>
      </g>
     </g>
    </g>
    <g id="xtick_4">
     <g id="line2d_4">
      <g>
       <use xlink:href="#ma1e432f521" x="375.759465" y="322.51875" style="fill: #334155; stroke: #334155; stroke-width: 0.8"/>
      </g>
     </g>
     <g id="text_4">
      <!-- Proposed -->
      <g style="fill: #334155" transform="translate(357.14384 336.348437) scale(0.1 -0.1)">
       <defs>
        <path id="STIXGeneral-Regular-50" d="M 102 4237 
L 1760 4237 
Q 2669 4237 3149 3834 
Q 3469 3565 3469 3072 
Q 3469 2560 3104 2234 
Q 2835 1990 2553 1916 
Q 2272 1843 1734 1843 
Q 1549 1843 1293 1862 
L 1293 717 
Q 1293 352 1398 246 
Q 1504 141 1894 122 
L 1894 0 
L 102 0 
L 102 122 
Q 474 147 557 256 
Q 640 365 640 781 
L 640 3526 
Q 640 3885 547 3987 
Q 454 4090 102 4115 
L 102 4237 
z
M 1293 3770 
L 1293 2118 
Q 1510 2099 1683 2099 
Q 2202 2099 2486 2352 
Q 2771 2605 2771 3040 
Q 2771 3558 2476 3779 
Q 2182 4000 1517 4000 
Q 1382 4000 1337 3952 
Q 1293 3904 1293 3770 
z
" transform="scale(0.015625)"/>
        <path id="STIXGeneral-Regular-6f" d="M 3008 1478 
Q 3008 806 2608 371 
Q 2208 -64 1568 -64 
Q 979 -64 582 368 
Q 186 800 186 1459 
Q 186 2125 582 2534 
Q 979 2944 1626 2944 
Q 2221 2944 2614 2537 
Q 3008 2131 3008 1478 
z
M 2432 1306 
Q 2432 2035 2112 2445 
Q 1856 2765 1504 2765 
Q 1171 2765 966 2493 
Q 762 2221 762 1747 
Q 762 928 1101 435 
Q 1318 115 1677 115 
Q 2029 115 2230 432 
Q 2432 749 2432 1306 
z
" transform="scale(0.015625)"/>
        <path id="STIXGeneral-Regular-70" d="M 1018 2931 
L 1018 2438 
Q 1421 2944 1939 2944 
Q 2406 2944 2707 2560 
Q 3008 2176 3008 1581 
Q 3008 883 2621 409 
Q 2234 -64 1664 -64 
Q 1466 -64 1328 -6 
Q 1190 51 1018 211 
L 1018 -794 
Q 1018 -1094 1120 -1180 
Q 1222 -1267 1581 -1274 
L 1581 -1389 
L 32 -1389 
L 32 -1280 
Q 314 -1254 397 -1171 
Q 480 -1088 480 -838 
L 480 2157 
Q 480 2381 429 2451 
Q 378 2522 218 2522 
Q 115 2522 58 2515 
L 58 2618 
Q 506 2752 979 2944 
L 1018 2931 
z
M 1018 2138 
L 1018 563 
Q 1018 422 1238 281 
Q 1459 141 1683 141 
Q 2029 141 2243 467 
Q 2458 794 2458 1325 
Q 2458 1888 2243 2224 
Q 2029 2560 1670 2560 
Q 1446 2560 1232 2419 
Q 1018 2278 1018 2138 
z
" transform="scale(0.015625)"/>
        <path id="STIXGeneral-Regular-73" d="M 998 1926 
L 1664 1523 
Q 1984 1331 2105 1164 
Q 2227 998 2227 736 
Q 2227 416 1961 176 
Q 1696 -64 1331 -64 
Q 1030 -64 864 -6 
Q 691 51 570 51 
Q 461 51 416 -26 
L 333 -26 
L 333 979 
L 435 979 
Q 538 512 730 294 
Q 922 77 1248 77 
Q 1485 77 1632 211 
Q 1779 346 1779 550 
Q 1779 845 1440 1030 
L 1094 1222 
Q 326 1651 326 2150 
Q 326 2522 566 2730 
Q 806 2938 1210 2938 
Q 1491 2938 1638 2867 
Q 1754 2816 1818 2816 
Q 1862 2816 1920 2880 
L 1990 2880 
L 2022 2010 
L 1926 2010 
Q 1818 2445 1654 2621 
Q 1491 2797 1203 2797 
Q 986 2797 854 2688 
Q 723 2579 723 2362 
Q 723 2253 796 2128 
Q 870 2003 998 1926 
z
" transform="scale(0.015625)"/>
        <path id="STIXGeneral-Regular-64" d="M 3142 269 
L 2202 -64 
L 2176 -45 
L 2176 365 
Q 1869 -64 1357 -64 
Q 826 -64 499 317 
Q 173 698 173 1312 
Q 173 1990 563 2467 
Q 954 2944 1504 2944 
Q 1850 2944 2176 2669 
L 2176 3667 
Q 2176 3866 2118 3930 
Q 2061 3994 1882 3994 
Q 1792 3994 1741 3987 
L 1741 4090 
Q 2323 4243 2682 4371 
L 2714 4358 
L 2714 730 
Q 2714 506 2768 435 
Q 2822 365 2995 365 
Q 3034 365 3142 371 
L 3142 269 
z
M 2176 653 
L 2176 2125 
Q 2176 2381 1981 2573 
Q 1786 2765 1523 2765 
Q 1158 2765 940 2438 
Q 723 2112 723 1568 
Q 723 979 963 624 
Q 1203 269 1606 269 
Q 1907 269 2080 474 
Q 2176 582 2176 653 
z
" transform="scale(0.015625)"/>
       </defs>
       <use xlink:href="#STIXGeneral-Regular-50"/>
       <use xlink:href="#STIXGeneral-Regular-72" transform="translate(55.699997 0)"/>
       <use xlink:href="#STIXGeneral-Regular-6f" transform="translate(88.999985 0)"/>
       <use xlink:href="#STIXGeneral-Regular-70" transform="translate(138.999969 0)"/>
       <use xlink:href="#STIXGeneral-Regular-6f" transform="translate(188.999954 0)"/>
       <use xlink:href="#STIXGeneral-Regular-73" transform="translate(238.999939 0)"/>
       <use xlink:href="#STIXGeneral-Regular-65" transform="translate(277.899933 0)"/>
       <use xlink:href="#STIXGeneral-Regular-64" transform="translate(322.299927 0)"/>
      </g>
     </g>
    </g>
   </g>
   <g id="matplotlib.axis_2">
    <g id="ytick_1">
     <g id="line2d_5">
      <path d="M 40.610313 322.51875 
L 430.839687 322.51875 
" clip-path="url(#pc37365e1e3)" style="fill: none; stroke-dasharray: 0.7,1.155; stroke-dashoffset: 0; stroke: #cbd5e1; stroke-opacity: 0.35; stroke-width: 0.7"/>
     </g>
     <g id="line2d_6">
      <defs>
       <path id="m3671949773" d="M 0 0 
L -3.5 0 
" style="stroke: #334155; stroke-width: 0.8"/>
      </defs>
      <g>
       <use xlink:href="#m3671949773" x="40.610313" y="322.51875" style="fill: #334155; stroke: #334155; stroke-width: 0.8"/>
      </g>
     </g>
     <g id="text_5">
      <!-- 0.0 -->
      <g style="fill: #334155" transform="translate(21.110313 325.933594) scale(0.1 -0.1)">
       <defs>
        <path id="STIXGeneral-Regular-30" d="M 3046 2112 
Q 3046 1683 2963 1302 
Q 2880 922 2717 602 
Q 2554 282 2266 96 
Q 1978 -90 1600 -90 
Q 1210 -90 915 108 
Q 621 307 461 640 
Q 301 973 227 1350 
Q 154 1728 154 2150 
Q 154 2746 301 3222 
Q 448 3699 790 4012 
Q 1133 4326 1626 4326 
Q 2253 4326 2649 3712 
Q 3046 3098 3046 2112 
z
M 2432 2080 
Q 2432 3091 2217 3625 
Q 2003 4160 1587 4160 
Q 1190 4160 979 3622 
Q 768 3085 768 2106 
Q 768 1120 979 598 
Q 1190 77 1600 77 
Q 2003 77 2217 598 
Q 2432 1120 2432 2080 
z
" transform="scale(0.015625)"/>
        <path id="STIXGeneral-Regular-2e" d="M 1158 275 
Q 1158 134 1052 32 
Q 947 -70 800 -70 
Q 653 -70 550 32 
Q 448 134 448 281 
Q 448 429 553 534 
Q 659 640 806 640 
Q 947 640 1052 531 
Q 1158 422 1158 275 
z
" transform="scale(0.015625)"/>
       </defs>
       <use xlink:href="#STIXGeneral-Regular-30"/>
       <use xlink:href="#STIXGeneral-Regular-2e" transform="translate(49.999985 0)"/>
       <use xlink:href="#STIXGeneral-Regular-30" transform="translate(74.999969 0)"/>
      </g>
     </g>
    </g>
    <g id="ytick_2">
     <g id="line2d_7">
      <path d="M 40.610313 269.642798 
L 430.839687 269.642798 
" clip-path="url(#pc37365e1e3)" style="fill: none; stroke-dasharray: 0.7,1.155; stroke-dashoffset: 0; stroke: #cbd5e1; stroke-opacity: 0.35; stroke-width: 0.7"/>
     </g>
     <g id="line2d_8">
      <g>
       <use xlink:href="#m3671949773" x="40.610313" y="269.642798" style="fill: #334155; stroke: #334155; stroke-width: 0.8"/>
      </g>
     </g>
     <g id="text_6">
      <!-- 0.2 -->
      <g style="fill: #334155" transform="translate(21.110313 273.057641) scale(0.1 -0.1)">
       <defs>
        <path id="STIXGeneral-Regular-32" d="M 3034 877 
L 2688 0 
L 186 0 
L 186 77 
L 1325 1286 
Q 1773 1754 1965 2144 
Q 2157 2534 2157 2950 
Q 2157 3379 1920 3616 
Q 1683 3853 1267 3853 
Q 922 3853 720 3673 
Q 518 3494 326 3021 
L 192 3053 
Q 301 3648 630 3987 
Q 960 4326 1523 4326 
Q 2054 4326 2380 4006 
Q 2707 3686 2707 3200 
Q 2707 2477 1888 1613 
L 832 486 
L 2330 486 
Q 2541 486 2665 569 
Q 2790 653 2944 915 
L 3034 877 
z
" transform="scale(0.015625)"/>
       </defs>
       <use xlink:href="#STIXGeneral-Regular-30"/>
       <use xlink:href="#STIXGeneral-Regular-2e" transform="translate(49.999985 0)"/>
       <use xlink:href="#STIXGeneral-Regular-32" transform="translate(74.999969 0)"/>
      </g>
     </g>
    </g>
    <g id="ytick_3">
     <g id="line2d_9">
      <path d="M 40.610313 216.766845 
L 430.839687 216.766845 
" clip-path="url(#pc37365e1e3)" style="fill: none; stroke-dasharray: 0.7,1.155; stroke-dashoffset: 0; stroke: #cbd5e1; stroke-opacity: 0.35; stroke-width: 0.7"/>
     </g>
     <g id="line2d_10">
      <g>
       <use xlink:href="#m3671949773" x="40.610313" y="216.766845" style="fill: #334155; stroke: #334155; stroke-width: 0.8"/>
      </g>
     </g>
     <g id="text_7">
      <!-- 0.4 -->
      <g style="fill: #334155" transform="translate(21.110313 220.181689) scale(0.1 -0.1)">
       <defs>
        <path id="STIXGeneral-Regular-34" d="M 3027 1069 
L 2368 1069 
L 2368 0 
L 1869 0 
L 1869 1069 
L 77 1069 
L 77 1478 
L 2086 4326 
L 2368 4326 
L 2368 1478 
L 3027 1478 
L 3027 1069 
z
M 1869 1478 
L 1869 3674 
L 333 1478 
L 1869 1478 
z
" transform="scale(0.015625)"/>
       </defs>
       <use xlink:href="#STIXGeneral-Regular-30"/>
       <use xlink:href="#STIXGeneral-Regular-2e" transform="translate(49.999985 0)"/>
       <use xlink:href="#STIXGeneral-Regular-34" transform="translate(74.999969 0)"/>
      </g>
     </g>
    </g>
    <g id="ytick_4">
     <g id="line2d_11">
      <path d="M 40.610313 163.890893 
L 430.839687 163.890893 
" clip-path="url(#pc37365e1e3)" style="fill: none; stroke-dasharray: 0.7,1.155; stroke-dashoffset: 0; stroke: #cbd5e1; stroke-opacity: 0.35; stroke-width: 0.7"/>
     </g>
     <g id="line2d_12">
      <g>
       <use xlink:href="#m3671949773" x="40.610313" y="163.890893" style="fill: #334155; stroke: #334155; stroke-width: 0.8"/>
      </g>
     </g>
     <g id="text_8">
      <!-- 0.6 -->
      <g style="fill: #334155" transform="translate(21.110313 167.305737) scale(0.1 -0.1)">
       <defs>
        <path id="STIXGeneral-Regular-36" d="M 2854 4378 
L 2867 4275 
Q 2112 4154 1606 3664 
Q 1101 3174 973 2451 
Q 1344 2739 1786 2739 
Q 2349 2739 2672 2380 
Q 2995 2022 2995 1402 
Q 2995 774 2669 378 
Q 2291 -90 1651 -90 
Q 870 -90 518 557 
Q 218 1107 218 1786 
Q 218 2835 915 3552 
Q 1312 3962 1731 4131 
Q 2150 4301 2854 4378 
z
M 2419 1203 
Q 2419 2445 1555 2445 
Q 1235 2445 1024 2275 
Q 813 2106 813 1702 
Q 813 954 1046 522 
Q 1280 90 1722 90 
Q 2061 90 2240 394 
Q 2419 698 2419 1203 
z
" transform="scale(0.015625)"/>
       </defs>
       <use xlink:href="#STIXGeneral-Regular-30"/>
       <use xlink:href="#STIXGeneral-Regular-2e" transform="translate(49.999985 0)"/>
       <use xlink:href="#STIXGeneral-Regular-36" transform="translate(74.999969 0)"/>
      </g>
     </g>
    </g>
    <g id="ytick_5">
     <g id="line2d_13">
      <path d="M 40.610313 111.01494 
L 430.839687 111.01494 
" clip-path="url(#pc37365e1e3)" style="fill: none; stroke-dasharray: 0.7,1.155; stroke-dashoffset: 0; stroke: #cbd5e1; stroke-opacity: 0.35; stroke-width: 0.7"/>
     </g>
     <g id="line2d_14">
      <g>
       <use xlink:href="#m3671949773" x="40.610313" y="111.01494" style="fill: #334155; stroke: #334155; stroke-width: 0.8"/>
      </g>
     </g>
     <g id="text_9">
      <!-- 0.8 -->
      <g style="fill: #334155" transform="translate(21.110313 114.429784) scale(0.1 -0.1)">
       <defs>
        <path id="STIXGeneral-Regular-38" d="M 2848 992 
Q 2848 499 2505 204 
Q 2163 -90 1587 -90 
Q 1050 -90 704 204 
Q 358 499 358 954 
Q 358 1293 524 1533 
Q 691 1773 1190 2125 
Q 710 2522 553 2765 
Q 397 3008 397 3328 
Q 397 3782 745 4054 
Q 1094 4326 1638 4326 
Q 2106 4326 2410 4060 
Q 2714 3795 2714 3411 
Q 2714 3059 2531 2848 
Q 2349 2637 1856 2374 
Q 2432 1990 2640 1689 
Q 2848 1389 2848 992 
z
M 2272 3411 
Q 2272 3744 2086 3945 
Q 1901 4147 1574 4147 
Q 1248 4147 1059 3977 
Q 870 3808 870 3513 
Q 870 3219 1059 2979 
Q 1248 2739 1670 2490 
Q 1997 2682 2134 2896 
Q 2272 3110 2272 3411 
z
M 1734 1741 
L 1357 1997 
Q 1075 1766 960 1545 
Q 845 1325 845 1011 
Q 845 576 1065 333 
Q 1286 90 1658 90 
Q 1971 90 2166 285 
Q 2362 480 2362 794 
Q 2362 1082 2214 1299 
Q 2067 1517 1734 1741 
z
" transform="scale(0.015625)"/>
       </defs>
       <use xlink:href="#STIXGeneral-Regular-30"/>
       <use xlink:href="#STIXGeneral-Regular-2e" transform="translate(49.999985 0)"/>
       <use xlink:href="#STIXGeneral-Regular-38" transform="translate(74.999969 0)"/>
      </g>
     </g>
    </g>
    <g id="ytick_6">
     <g id="line2d_15">
      <path d="M 40.610313 58.138988 
L 430.839687 58.138988 
" clip-path="url(#pc37365e1e3)" style="fill: none; stroke-dasharray: 0.7,1.155; stroke-dashoffset: 0; stroke: #cbd5e1; stroke-opacity: 0.35; stroke-width: 0.7"/>
     </g>
     <g id="line2d_16">
      <g>
       <use xlink:href="#m3671949773" x="40.610313" y="58.138988" style="fill: #334155; stroke: #334155; stroke-width: 0.8"/>
      </g>
     </g>
     <g id="text_10">
      <!-- 1.0 -->
      <g style="fill: #334155" transform="translate(21.110313 61.553832) scale(0.1 -0.1)">
       <defs>
        <path id="STIXGeneral-Regular-31" d="M 2522 0 
L 755 0 
L 755 96 
Q 1107 115 1235 227 
Q 1363 339 1363 608 
L 1363 3482 
Q 1363 3795 1171 3795 
Q 1082 3795 883 3718 
L 710 3654 
L 710 3744 
L 1856 4326 
L 1914 4307 
L 1914 486 
Q 1914 275 2042 185 
Q 2170 96 2522 96 
L 2522 0 
z
" transform="scale(0.015625)"/>
       </defs>
       <use xlink:href="#STIXGeneral-Regular-31"/>
       <use xlink:href="#STIXGeneral-Regular-2e" transform="translate(49.999985 0)"/>
       <use xlink:href="#STIXGeneral-Regular-30" transform="translate(74.999969 0)"/>
      </g>
     </g>
    </g>
    <g id="text_11">
     <!-- Fraction of replay windows -->
     <g style="fill: #0f172a" transform="translate(14.712656 244.362891) rotate(-90) scale(0.11 -0.11)">
      <defs>
       <path id="STIXGeneral-Regular-46" d="M 3494 3322 
L 3334 3322 
Q 3264 3757 3094 3875 
Q 2925 3994 2349 3994 
L 1504 3994 
Q 1370 3994 1328 3946 
Q 1286 3898 1286 3744 
L 1286 2355 
L 2195 2355 
Q 2598 2355 2736 2470 
Q 2874 2586 2918 2963 
L 3066 2963 
L 3066 1472 
L 2918 1472 
Q 2880 1862 2745 1977 
Q 2611 2093 2195 2093 
L 1286 2093 
L 1286 717 
Q 1286 352 1392 246 
Q 1498 141 1869 122 
L 1869 0 
L 70 0 
L 70 122 
Q 435 147 534 259 
Q 634 371 634 787 
L 634 3526 
Q 634 3878 538 3984 
Q 442 4090 77 4115 
L 77 4237 
L 3462 4237 
L 3494 3322 
z
" transform="scale(0.015625)"/>
       <path id="STIXGeneral-Regular-61" d="M 2829 422 
L 2829 243 
Q 2586 -64 2253 -64 
Q 1888 -64 1843 403 
L 1837 403 
Q 1427 -64 909 -64 
Q 608 -64 422 112 
Q 237 288 237 602 
Q 237 1050 685 1350 
Q 992 1555 1837 1869 
L 1837 2214 
Q 1837 2502 1699 2646 
Q 1562 2790 1338 2790 
Q 1146 2790 1018 2697 
Q 890 2605 890 2477 
Q 890 2419 909 2348 
Q 928 2278 928 2208 
Q 928 2112 841 2029 
Q 755 1946 634 1946 
Q 525 1946 441 2029 
Q 358 2112 358 2240 
Q 358 2547 685 2752 
Q 986 2944 1421 2944 
Q 1939 2944 2176 2656 
Q 2291 2522 2323 2384 
Q 2355 2246 2355 1946 
L 2355 723 
Q 2355 301 2554 301 
Q 2682 301 2829 422 
z
M 1837 813 
L 1837 1715 
Q 1248 1510 1018 1293 
Q 800 1094 800 800 
Q 800 557 921 432 
Q 1043 307 1242 307 
Q 1453 307 1613 410 
Q 1747 506 1792 589 
Q 1837 672 1837 813 
z
" transform="scale(0.015625)"/>
       <path id="STIXGeneral-Regular-63" d="M 2547 998 
L 2637 941 
Q 2362 403 2112 205 
Q 1786 -64 1376 -64 
Q 845 -64 502 336 
Q 160 736 160 1357 
Q 160 2170 698 2618 
Q 1094 2944 1562 2944 
Q 1965 2944 2256 2749 
Q 2547 2554 2547 2285 
Q 2547 2176 2457 2096 
Q 2368 2016 2246 2016 
Q 2022 2016 1939 2310 
L 1901 2451 
Q 1850 2630 1773 2694 
Q 1696 2758 1523 2758 
Q 1133 2758 893 2451 
Q 653 2144 653 1645 
Q 653 1094 928 745 
Q 1203 397 1645 397 
Q 1920 397 2118 528 
Q 2317 659 2547 998 
z
" transform="scale(0.015625)"/>
       <path id="STIXGeneral-Regular-74" d="M 1702 493 
L 1786 422 
Q 1478 -64 1011 -64 
Q 448 -64 448 749 
L 448 2675 
L 109 2675 
Q 83 2694 83 2720 
Q 83 2771 192 2842 
Q 435 2982 813 3526 
Q 826 3546 874 3606 
Q 922 3667 941 3706 
Q 986 3706 986 3622 
L 986 2880 
L 1632 2880 
L 1632 2675 
L 986 2675 
L 986 845 
Q 986 538 1062 403 
Q 1139 269 1318 269 
Q 1510 269 1702 493 
z
" transform="scale(0.015625)"/>
       <path id="STIXGeneral-Regular-69" d="M 1152 4045 
Q 1152 3904 1056 3811 
Q 960 3718 819 3718 
Q 685 3718 592 3811 
Q 499 3904 499 4045 
Q 499 4179 595 4275 
Q 691 4371 826 4371 
Q 966 4371 1059 4275 
Q 1152 4179 1152 4045 
z
M 1619 0 
L 102 0 
L 102 96 
Q 435 115 521 211 
Q 608 307 608 666 
L 608 2118 
Q 608 2342 563 2432 
Q 518 2522 397 2522 
Q 243 2522 128 2490 
L 128 2592 
L 1120 2944 
L 1146 2918 
L 1146 672 
Q 1146 314 1226 218 
Q 1306 122 1619 96 
L 1619 0 
z
" transform="scale(0.015625)"/>
       <path id="STIXGeneral-Regular-6e" d="M 3104 0 
L 1773 0 
L 1779 96 
Q 2016 115 2096 233 
Q 2176 352 2176 672 
L 2176 1946 
Q 2176 2592 1709 2592 
Q 1549 2592 1408 2515 
Q 1267 2438 1050 2227 
L 1050 461 
Q 1050 269 1136 192 
Q 1222 115 1466 96 
L 1466 0 
L 115 0 
L 115 96 
Q 358 115 435 214 
Q 512 314 512 602 
L 512 2157 
Q 512 2394 467 2483 
Q 422 2573 288 2573 
Q 160 2573 102 2547 
L 102 2656 
Q 550 2784 979 2944 
L 1030 2925 
L 1030 2426 
L 1037 2426 
Q 1491 2944 1958 2944 
Q 2323 2944 2518 2688 
Q 2714 2432 2714 1958 
L 2714 544 
Q 2714 288 2790 205 
Q 2867 122 3104 96 
L 3104 0 
z
" transform="scale(0.015625)"/>
       <path id="STIXGeneral-Regular-20" transform="scale(0.015625)"/>
       <path id="STIXGeneral-Regular-66" d="M 134 2880 
L 659 2880 
Q 666 3264 710 3478 
Q 755 3693 883 3910 
Q 1152 4371 1786 4371 
Q 2074 4371 2262 4259 
Q 2451 4147 2451 3974 
Q 2451 3866 2374 3789 
Q 2298 3712 2182 3712 
Q 2029 3712 1894 3942 
Q 1741 4192 1555 4192 
Q 1197 4192 1197 3622 
L 1197 2880 
L 1978 2880 
L 1978 2675 
L 1197 2675 
L 1197 666 
Q 1197 307 1299 208 
Q 1402 109 1792 96 
L 1792 0 
L 128 0 
L 128 96 
Q 474 115 566 214 
Q 659 314 659 666 
L 659 2675 
L 134 2675 
L 134 2880 
z
" transform="scale(0.015625)"/>
       <path id="STIXGeneral-Regular-6c" d="M 1645 0 
L 134 0 
L 134 96 
Q 435 122 531 221 
Q 627 320 627 589 
L 627 3590 
Q 627 3821 569 3910 
Q 512 4000 358 4000 
Q 224 4000 122 3987 
L 122 4090 
Q 730 4237 1133 4371 
L 1165 4346 
L 1165 557 
Q 1165 288 1254 201 
Q 1344 115 1645 96 
L 1645 0 
z
" transform="scale(0.015625)"/>
       <path id="STIXGeneral-Regular-79" d="M 3040 2880 
L 3040 2784 
Q 2925 2771 2854 2700 
Q 2784 2630 2720 2458 
L 1760 -160 
Q 1510 -838 1257 -1116 
Q 1005 -1395 640 -1395 
Q 435 -1395 313 -1289 
Q 192 -1184 192 -1024 
Q 192 -902 272 -816 
Q 352 -730 467 -730 
Q 653 -730 800 -813 
Q 883 -858 966 -858 
Q 1101 -858 1286 -576 
Q 1376 -448 1459 -211 
Q 1542 26 1542 115 
Q 1542 198 1274 762 
L 429 2566 
Q 346 2752 90 2790 
L 90 2880 
L 1402 2880 
L 1402 2784 
Q 1197 2778 1117 2739 
Q 1037 2701 1037 2611 
Q 1037 2541 1120 2349 
L 1837 749 
L 2458 2515 
Q 2483 2573 2483 2630 
Q 2483 2784 2189 2784 
L 2189 2880 
L 3040 2880 
z
" transform="scale(0.015625)"/>
       <path id="STIXGeneral-Regular-77" d="M 4442 2880 
L 4442 2784 
Q 4346 2752 4301 2691 
Q 4256 2630 4179 2438 
L 3296 224 
Q 3168 -90 3117 -90 
Q 3085 -90 3062 -48 
Q 3040 -6 2963 186 
L 2381 1696 
L 1664 160 
Q 1549 -90 1504 -90 
Q 1446 -90 1338 192 
L 474 2381 
Q 378 2630 314 2700 
Q 250 2771 134 2784 
L 134 2880 
L 1286 2880 
L 1286 2784 
Q 1120 2765 1056 2720 
Q 992 2675 992 2573 
Q 992 2477 1030 2381 
L 1664 710 
L 2246 1984 
L 2118 2342 
Q 2029 2598 1942 2681 
Q 1856 2765 1677 2784 
L 1677 2880 
L 2976 2880 
L 2976 2784 
Q 2752 2752 2678 2707 
Q 2605 2662 2605 2560 
Q 2605 2458 2714 2176 
L 3251 742 
L 3827 2163 
Q 3936 2432 3936 2592 
Q 3936 2669 3875 2710 
Q 3814 2752 3654 2784 
L 3654 2880 
L 4442 2880 
z
" transform="scale(0.015625)"/>
      </defs>
      <use xlink:href="#STIXGeneral-Regular-46"/>
      <use xlink:href="#STIXGeneral-Regular-72" transform="translate(55.599991 0)"/>
      <use xlink:href="#STIXGeneral-Regular-61" transform="translate(88.899979 0)"/>
      <use xlink:href="#STIXGeneral-Regular-63" transform="translate(133.299973 0)"/>
      <use xlink:href="#STIXGeneral-Regular-74" transform="translate(177.699966 0)"/>
      <use xlink:href="#STIXGeneral-Regular-69" transform="translate(205.499954 0)"/>
      <use xlink:href="#STIXGeneral-Regular-6f" transform="translate(233.299942 0)"/>
      <use xlink:href="#STIXGeneral-Regular-6e" transform="translate(283.299927 0)"/>
      <use xlink:href="#STIXGeneral-Regular-20" transform="translate(333.299911 0)"/>
      <use xlink:href="#STIXGeneral-Regular-6f" transform="translate(358.299896 0)"/>
      <use xlink:href="#STIXGeneral-Regular-66" transform="translate(408.299881 0)"/>
      <use xlink:href="#STIXGeneral-Regular-20" transform="translate(441.599869 0)"/>
      <use xlink:href="#STIXGeneral-Regular-72" transform="translate(466.599854 0)"/>
      <use xlink:href="#STIXGeneral-Regular-65" transform="translate(499.899841 0)"/>
      <use xlink:href="#STIXGeneral-Regular-70" transform="translate(544.299835 0)"/>
      <use xlink:href="#STIXGeneral-Regular-6c" transform="translate(594.29982 0)"/>
      <use xlink:href="#STIXGeneral-Regular-61" transform="translate(622.099808 0)"/>
      <use xlink:href="#STIXGeneral-Regular-79" transform="translate(666.499802 0)"/>
      <use xlink:href="#STIXGeneral-Regular-20" transform="translate(716.499786 0)"/>
      <use xlink:href="#STIXGeneral-Regular-77" transform="translate(741.499771 0)"/>
      <use xlink:href="#STIXGeneral-Regular-69" transform="translate(813.699753 0)"/>
      <use xlink:href="#STIXGeneral-Regular-6e" transform="translate(841.499741 0)"/>
      <use xlink:href="#STIXGeneral-Regular-64" transform="translate(891.499725 0)"/>
      <use xlink:href="#STIXGeneral-Regular-6f" transform="translate(941.49971 0)"/>
      <use xlink:href="#STIXGeneral-Regular-77" transform="translate(991.499695 0)"/>
      <use xlink:href="#STIXGeneral-Regular-73" transform="translate(1063.699677 0)"/>
     </g>
    </g>
   </g>
   <g id="patch_15">
    <path d="M 40.610313 322.51875 
L 40.610313 44.92 
" style="fill: none; stroke: #cbd5e1; stroke-width: 0.9; stroke-linejoin: miter; stroke-linecap: square"/>
   </g>
   <g id="patch_16">
    <path d="M 40.610313 322.51875 
L 430.839687 322.51875 
" style="fill: none; stroke: #cbd5e1; stroke-width: 0.9; stroke-linejoin: miter; stroke-linecap: square"/>
   </g>
   <g id="text_12">
    <!-- 0.18 -->
    <g style="fill: #ffffff" transform="translate(88.690535 300.080781) scale(0.08 -0.08)">
     <use xlink:href="#STIXGeneral-Regular-30"/>
     <use xlink:href="#STIXGeneral-Regular-2e" transform="translate(49.999985 0)"/>
     <use xlink:href="#STIXGeneral-Regular-31" transform="translate(74.999969 0)"/>
     <use xlink:href="#STIXGeneral-Regular-38" transform="translate(124.999954 0)"/>
    </g>
   </g>
   <g id="text_13">
    <!-- 0.18 -->
    <g style="fill: #ffffff" transform="translate(182.046845 300.654273) scale(0.08 -0.08)">
     <use xlink:href="#STIXGeneral-Regular-30"/>
     <use xlink:href="#STIXGeneral-Regular-2e" transform="translate(49.999985 0)"/>
     <use xlink:href="#STIXGeneral-Regular-31" transform="translate(74.999969 0)"/>
     <use xlink:href="#STIXGeneral-Regular-38" transform="translate(124.999954 0)"/>
    </g>
   </g>
   <g id="text_14">
    <!-- 0.18 -->
    <g style="fill: #ffffff" transform="translate(275.403155 301.012705) scale(0.08 -0.08)">
     <use xlink:href="#STIXGeneral-Regular-30"/>
     <use xlink:href="#STIXGeneral-Regular-2e" transform="translate(49.999985 0)"/>
     <use xlink:href="#STIXGeneral-Regular-31" transform="translate(74.999969 0)"/>
     <use xlink:href="#STIXGeneral-Regular-38" transform="translate(124.999954 0)"/>
    </g>
   </g>
   <g id="text_15">
    <!-- 0.45 -->
    <g style="fill: #ffffff" transform="translate(368.759465 264.524284) scale(0.08 -0.08)">
     <defs>
      <path id="STIXGeneral-Regular-35" d="M 2803 4358 
L 2573 3814 
Q 2534 3731 2400 3731 
L 1158 3731 
L 902 3187 
Q 1606 3053 1920 2896 
Q 2234 2739 2502 2368 
Q 2726 2061 2726 1555 
Q 2726 1094 2576 780 
Q 2426 467 2099 224 
Q 1664 -90 1011 -90 
Q 646 -90 422 19 
Q 198 128 198 307 
Q 198 550 486 550 
Q 717 550 960 352 
Q 1210 147 1414 147 
Q 1747 147 2012 480 
Q 2278 813 2278 1229 
Q 2278 1843 1850 2189 
Q 1293 2637 486 2637 
Q 410 2637 410 2688 
L 416 2720 
L 1114 4237 
L 2438 4237 
Q 2547 4237 2608 4269 
Q 2669 4301 2746 4403 
L 2803 4358 
z
" transform="scale(0.015625)"/>
     </defs>
     <use xlink:href="#STIXGeneral-Regular-30"/>
     <use xlink:href="#STIXGeneral-Regular-2e" transform="translate(49.999985 0)"/>
     <use xlink:href="#STIXGeneral-Regular-34" transform="translate(74.999969 0)"/>
     <use xlink:href="#STIXGeneral-Regular-35" transform="translate(124.999954 0)"/>
    </g>
   </g>
   <g id="text_16">
    <!-- Overall replay -->
    <g style="fill: #0f172a" transform="translate(195.463594 38.92) scale(0.13 -0.13)">
     <defs>
      <path id="STIXGeneral-Bold-4f" d="M 4755 2144 
Q 4755 1146 4118 512 
Q 3482 -122 2483 -122 
Q 1491 -122 857 512 
Q 224 1146 224 2138 
Q 224 3155 870 3788 
Q 1517 4422 2522 4422 
Q 3488 4422 4121 3779 
Q 4755 3136 4755 2144 
z
M 3622 2099 
Q 3622 3123 3324 3667 
Q 3027 4211 2464 4211 
Q 1933 4211 1645 3664 
Q 1357 3117 1357 2112 
Q 1357 1107 1651 598 
Q 1946 90 2496 90 
Q 3046 90 3334 602 
Q 3622 1114 3622 2099 
z
" transform="scale(0.015625)"/>
      <path id="STIXGeneral-Bold-76" d="M 3104 2950 
L 3104 2797 
Q 2950 2784 2886 2723 
Q 2822 2662 2733 2445 
L 1709 -90 
L 1542 -90 
L 774 1805 
Q 474 2547 352 2707 
Q 301 2771 134 2797 
L 134 2950 
L 1734 2950 
L 1734 2797 
L 1619 2784 
Q 1395 2758 1395 2630 
Q 1395 2573 1453 2432 
L 1958 1133 
L 2419 2298 
Q 2490 2464 2490 2586 
Q 2490 2701 2416 2742 
Q 2342 2784 2138 2797 
L 2138 2950 
L 3104 2950 
z
" transform="scale(0.015625)"/>
      <path id="STIXGeneral-Bold-65" d="M 2579 806 
L 2733 717 
Q 2451 269 2166 89 
Q 1882 -90 1466 -90 
Q 890 -90 525 342 
Q 160 774 160 1434 
Q 160 2150 528 2588 
Q 896 3027 1498 3027 
Q 2029 3027 2317 2707 
Q 2656 2336 2694 1568 
L 1082 1568 
Q 1101 1299 1133 1116 
Q 1165 934 1241 748 
Q 1318 563 1468 467 
Q 1619 371 1843 371 
Q 2048 371 2214 470 
Q 2381 570 2579 806 
z
M 1907 1805 
L 1907 1939 
Q 1907 2406 1850 2528 
Q 1773 2688 1699 2758 
Q 1626 2829 1498 2829 
Q 1267 2829 1158 2595 
Q 1050 2362 1050 1805 
L 1907 1805 
z
" transform="scale(0.015625)"/>
      <path id="STIXGeneral-Bold-72" d="M 1395 2950 
L 1395 2426 
Q 1619 2752 1817 2889 
Q 2016 3027 2259 3027 
Q 2483 3027 2630 2883 
Q 2778 2739 2778 2522 
Q 2778 2330 2666 2208 
Q 2554 2086 2374 2086 
Q 2138 2086 1990 2330 
Q 1901 2477 1811 2477 
Q 1645 2477 1533 2285 
Q 1421 2093 1421 1811 
L 1421 678 
Q 1421 371 1507 272 
Q 1594 173 1882 154 
L 1882 0 
L 186 0 
L 186 154 
Q 397 192 464 265 
Q 531 339 531 538 
L 531 2387 
Q 531 2611 460 2688 
Q 390 2765 179 2797 
L 179 2950 
L 1395 2950 
z
" transform="scale(0.015625)"/>
      <path id="STIXGeneral-Bold-61" d="M 3027 410 
L 3123 275 
Q 2784 -90 2406 -90 
Q 2170 -90 2051 9 
Q 1933 109 1882 352 
Q 1395 -90 864 -90 
Q 544 -90 352 80 
Q 160 250 160 589 
Q 160 1018 589 1306 
Q 909 1517 1875 1792 
L 1875 2227 
Q 1875 2541 1756 2681 
Q 1638 2822 1357 2822 
Q 1178 2822 1059 2758 
Q 941 2694 941 2586 
Q 941 2515 1011 2438 
Q 1133 2291 1133 2170 
Q 1133 2003 1011 1894 
Q 890 1786 698 1786 
Q 499 1786 390 1901 
Q 282 2016 282 2221 
Q 282 2598 618 2812 
Q 954 3027 1504 3027 
Q 2093 3027 2425 2803 
Q 2758 2579 2758 2170 
L 2758 499 
Q 2758 320 2893 320 
Q 2938 320 2963 346 
L 3027 410 
z
M 1875 621 
L 1875 1568 
Q 1094 1350 1094 794 
Q 1094 589 1187 477 
Q 1280 365 1427 365 
Q 1696 365 1875 621 
z
" transform="scale(0.015625)"/>
      <path id="STIXGeneral-Bold-6c" d="M 1638 0 
L 102 0 
L 102 154 
Q 429 179 429 557 
L 429 3757 
Q 429 4147 96 4173 
L 96 4326 
L 1318 4326 
L 1318 557 
Q 1318 346 1395 253 
Q 1472 160 1638 154 
L 1638 0 
z
" transform="scale(0.015625)"/>
      <path id="STIXGeneral-Bold-20" transform="scale(0.015625)"/>
      <path id="STIXGeneral-Bold-70" d="M 1357 2950 
L 1357 2509 
Q 1517 2790 1712 2908 
Q 1907 3027 2195 3027 
Q 2739 3027 3046 2659 
Q 3354 2291 3354 1594 
Q 3354 838 3024 377 
Q 2694 -83 2125 -83 
Q 1907 -83 1753 -3 
Q 1600 77 1370 301 
L 1370 -506 
Q 1370 -838 1475 -992 
Q 1581 -1146 1862 -1158 
L 1862 -1312 
L 122 -1312 
L 122 -1158 
Q 346 -1120 413 -1040 
Q 480 -960 480 -755 
L 480 2381 
Q 480 2592 409 2678 
Q 339 2765 128 2797 
L 128 2950 
L 1357 2950 
z
M 1370 2214 
L 1370 685 
Q 1446 499 1577 384 
Q 1709 269 1862 269 
Q 2406 269 2406 1498 
Q 2406 2662 1920 2662 
Q 1683 2662 1485 2426 
Q 1370 2291 1370 2214 
z
" transform="scale(0.015625)"/>
      <path id="STIXGeneral-Bold-79" d="M 3085 2950 
L 3085 2797 
Q 2931 2778 2854 2710 
Q 2778 2643 2701 2445 
L 1754 -102 
Q 1466 -877 1261 -1101 
Q 1062 -1312 723 -1312 
Q 448 -1312 275 -1171 
Q 102 -1030 102 -806 
Q 102 -621 211 -499 
Q 320 -378 499 -378 
Q 659 -378 771 -474 
Q 883 -570 883 -710 
Q 883 -736 870 -800 
L 864 -838 
Q 864 -883 896 -915 
Q 928 -947 973 -947 
Q 1216 -947 1395 -422 
L 1510 -83 
L 749 1773 
Q 435 2547 320 2707 
Q 269 2771 102 2797 
L 102 2950 
L 1696 2950 
L 1696 2797 
L 1594 2790 
Q 1363 2771 1363 2630 
Q 1363 2586 1491 2259 
L 1952 1069 
L 2387 2272 
Q 2458 2477 2458 2586 
Q 2458 2701 2387 2745 
Q 2317 2790 2112 2797 
L 2112 2950 
L 3085 2950 
z
" transform="scale(0.015625)"/>
     </defs>
     <use xlink:href="#STIXGeneral-Bold-4f"/>
     <use xlink:href="#STIXGeneral-Bold-76" transform="translate(77.799988 0)"/>
     <use xlink:href="#STIXGeneral-Bold-65" transform="translate(127.799973 0)"/>
     <use xlink:href="#STIXGeneral-Bold-72" transform="translate(172.199966 0)"/>
     <use xlink:href="#STIXGeneral-Bold-61" transform="translate(216.59996 0)"/>
     <use xlink:href="#STIXGeneral-Bold-6c" transform="translate(266.599945 0)"/>
     <use xlink:href="#STIXGeneral-Bold-6c" transform="translate(294.399933 0)"/>
     <use xlink:href="#STIXGeneral-Bold-20" transform="translate(322.199921 0)"/>
     <use xlink:href="#STIXGeneral-Bold-72" transform="translate(347.199905 0)"/>
     <use xlink:href="#STIXGeneral-Bold-65" transform="translate(391.599899 0)"/>
     <use xlink:href="#STIXGeneral-Bold-70" transform="translate(435.999893 0)"/>
     <use xlink:href="#STIXGeneral-Bold-6c" transform="translate(491.599884 0)"/>
     <use xlink:href="#STIXGeneral-Bold-61" transform="translate(519.399872 0)"/>
     <use xlink:href="#STIXGeneral-Bold-79" transform="translate(569.399857 0)"/>
    </g>
   </g>
  </g>
  <g id="axes_2">
   <g id="patch_17">
    <path d="M 445.139687 322.51875 
L 835.369063 322.51875 
L 835.369063 44.92 
L 445.139687 44.92 
z
" style="fill: #fcfbf8"/>
   </g>
   <g id="patch_18">
    <path d="M 462.877386 322.51875 
L 537.562434 322.51875 
L 537.562434 288.48428 
L 462.877386 288.48428 
z
" clip-path="url(#p5702b21dc6)" style="fill: #047857"/>
   </g>
   <g id="patch_19">
    <path d="M 556.233696 322.51875 
L 630.918744 322.51875 
L 630.918744 288.48428 
L 556.233696 288.48428 
z
" clip-path="url(#p5702b21dc6)" style="fill: #047857"/>
   </g>
   <g id="patch_20">
    <path d="M 649.590006 322.51875 
L 724.275054 322.51875 
L 724.275054 289.573383 
L 649.590006 289.573383 
z
" clip-path="url(#p5702b21dc6)" style="fill: #047857"/>
   </g>
   <g id="patch_21">
    <path d="M 742.946316 322.51875 
L 817.631364 322.51875 
L 817.631364 226.949959 
L 742.946316 226.949959 
z
" clip-path="url(#p5702b21dc6)" style="fill: #047857"/>
   </g>
   <g id="patch_22">
    <path d="M 462.877386 288.48428 
L 537.562434 288.48428 
L 537.562434 198.088728 
L 462.877386 198.088728 
z
" clip-path="url(#p5702b21dc6)" style="fill: #d97706"/>
   </g>
   <g id="patch_23">
    <path d="M 556.233696 288.48428 
L 630.918744 288.48428 
L 630.918744 199.722383 
L 556.233696 199.722383 
z
" clip-path="url(#p5702b21dc6)" style="fill: #d97706"/>
   </g>
   <g id="patch_24">
    <path d="M 649.590006 289.573383 
L 724.275054 289.573383 
L 724.275054 200.266934 
L 649.590006 200.266934 
z
" clip-path="url(#p5702b21dc6)" style="fill: #d97706"/>
   </g>
   <g id="patch_25">
    <path d="M 742.946316 226.949959 
L 817.631364 226.949959 
L 817.631364 111.232761 
L 742.946316 111.232761 
z
" clip-path="url(#p5702b21dc6)" style="fill: #d97706"/>
   </g>
   <g id="patch_26">
    <path d="M 462.877386 198.088728 
L 537.562434 198.088728 
L 537.562434 58.138988 
L 462.877386 58.138988 
z
" clip-path="url(#p5702b21dc6)" style="fill: #b91c1c"/>
   </g>
   <g id="patch_27">
    <path d="M 556.233696 199.722383 
L 630.918744 199.722383 
L 630.918744 58.138988 
L 556.233696 58.138988 
z
" clip-path="url(#p5702b21dc6)" style="fill: #b91c1c"/>
   </g>
   <g id="patch_28">
    <path d="M 649.590006 200.266934 
L 724.275054 200.266934 
L 724.275054 58.138988 
L 649.590006 58.138988 
z
" clip-path="url(#p5702b21dc6)" style="fill: #b91c1c"/>
   </g>
   <g id="patch_29">
    <path d="M 742.946316 111.232761 
L 817.631364 111.232761 
L 817.631364 58.138988 
L 742.946316 58.138988 
z
" clip-path="url(#p5702b21dc6)" style="fill: #b91c1c"/>
   </g>
   <g id="matplotlib.axis_3">
    <g id="xtick_5">
     <g id="line2d_17">
      <g>
       <use xlink:href="#ma1e432f521" x="500.21991" y="322.51875" style="fill: #334155; stroke: #334155; stroke-width: 0.8"/>
      </g>
     </g>
     <g id="text_17">
      <!-- LS -->
      <g style="fill: #334155" transform="translate(494.385535 336.348437) scale(0.1 -0.1)">
       <use xlink:href="#STIXGeneral-Regular-4c"/>
       <use xlink:href="#STIXGeneral-Regular-53" transform="translate(61.099991 0)"/>
      </g>
     </g>
    </g>
    <g id="xtick_6">
     <g id="line2d_18">
      <g>
       <use xlink:href="#ma1e432f521" x="593.57622" y="322.51875" style="fill: #334155; stroke: #334155; stroke-width: 0.8"/>
      </g>
     </g>
     <g id="text_18">
      <!-- GNC-GM -->
      <g style="fill: #334155" transform="translate(573.300439 336.348437) scale(0.1 -0.1)">
       <use xlink:href="#STIXGeneral-Regular-47"/>
       <use xlink:href="#STIXGeneral-Regular-4e" transform="translate(72.199982 0)"/>
       <use xlink:href="#STIXGeneral-Regular-43" transform="translate(144.399963 0)"/>
       <use xlink:href="#STIXGeneral-Regular-2d" transform="translate(211.09996 0)"/>
       <use xlink:href="#STIXGeneral-Regular-47" transform="translate(244.399948 0)"/>
       <use xlink:href="#STIXGeneral-Regular-4d" transform="translate(316.59993 0)"/>
      </g>
     </g>
    </g>
    <g id="xtick_7">
     <g id="line2d_19">
      <g>
       <use xlink:href="#ma1e432f521" x="686.93253" y="322.51875" style="fill: #334155; stroke: #334155; stroke-width: 0.8"/>
      </g>
     </g>
     <g id="text_19">
      <!-- Huber -->
      <g style="fill: #334155" transform="translate(674.437217 336.348437) scale(0.1 -0.1)">
       <use xlink:href="#STIXGeneral-Regular-48"/>
       <use xlink:href="#STIXGeneral-Regular-75" transform="translate(72.199982 0)"/>
       <use xlink:href="#STIXGeneral-Regular-62" transform="translate(122.199966 0)"/>
       <use xlink:href="#STIXGeneral-Regular-65" transform="translate(172.199951 0)"/>
       <use xlink:href="#STIXGeneral-Regular-72" transform="translate(216.599945 0)"/>
      </g>
     </g>
    </g>
    <g id="xtick_8">
     <g id="line2d_20">
      <g>
       <use xlink:href="#ma1e432f521" x="780.28884" y="322.51875" style="fill: #334155; stroke: #334155; stroke-width: 0.8"/>
      </g>
     </g>
     <g id="text_20">
      <!-- Proposed -->
      <g style="fill: #334155" transform="translate(761.673215 336.348437) scale(0.1 -0.1)">
       <use xlink:href="#STIXGeneral-Regular-50"/>
       <use xlink:href="#STIXGeneral-Regular-72" transform="translate(55.699997 0)"/>
       <use xlink:href="#STIXGeneral-Regular-6f" transform="translate(88.999985 0)"/>
       <use xlink:href="#STIXGeneral-Regular-70" transform="translate(138.999969 0)"/>
       <use xlink:href="#STIXGeneral-Regular-6f" transform="translate(188.999954 0)"/>
       <use xlink:href="#STIXGeneral-Regular-73" transform="translate(238.999939 0)"/>
       <use xlink:href="#STIXGeneral-Regular-65" transform="translate(277.899933 0)"/>
       <use xlink:href="#STIXGeneral-Regular-64" transform="translate(322.299927 0)"/>
      </g>
     </g>
    </g>
   </g>
   <g id="matplotlib.axis_4">
    <g id="ytick_7">
     <g id="line2d_21">
      <path d="M 445.139687 322.51875 
L 835.369063 322.51875 
" clip-path="url(#p5702b21dc6)" style="fill: none; stroke-dasharray: 0.7,1.155; stroke-dashoffset: 0; stroke: #cbd5e1; stroke-opacity: 0.35; stroke-width: 0.7"/>
     </g>
     <g id="line2d_22">
      <g>
       <use xlink:href="#m3671949773" x="445.139687" y="322.51875" style="fill: #334155; stroke: #334155; stroke-width: 0.8"/>
      </g>
     </g>
    </g>
    <g id="ytick_8">
     <g id="line2d_23">
      <path d="M 445.139687 269.642798 
L 835.369063 269.642798 
" clip-path="url(#p5702b21dc6)" style="fill: none; stroke-dasharray: 0.7,1.155; stroke-dashoffset: 0; stroke: #cbd5e1; stroke-opacity: 0.35; stroke-width: 0.7"/>
     </g>
     <g id="line2d_24">
      <g>
       <use xlink:href="#m3671949773" x="445.139687" y="269.642798" style="fill: #334155; stroke: #334155; stroke-width: 0.8"/>
      </g>
     </g>
    </g>
    <g id="ytick_9">
     <g id="line2d_25">
      <path d="M 445.139687 216.766845 
L 835.369063 216.766845 
" clip-path="url(#p5702b21dc6)" style="fill: none; stroke-dasharray: 0.7,1.155; stroke-dashoffset: 0; stroke: #cbd5e1; stroke-opacity: 0.35; stroke-width: 0.7"/>
     </g>
     <g id="line2d_26">
      <g>
       <use xlink:href="#m3671949773" x="445.139687" y="216.766845" style="fill: #334155; stroke: #334155; stroke-width: 0.8"/>
      </g>
     </g>
    </g>
    <g id="ytick_10">
     <g id="line2d_27">
      <path d="M 445.139687 163.890893 
L 835.369063 163.890893 
" clip-path="url(#p5702b21dc6)" style="fill: none; stroke-dasharray: 0.7,1.155; stroke-dashoffset: 0; stroke: #cbd5e1; stroke-opacity: 0.35; stroke-width: 0.7"/>
     </g>
     <g id="line2d_28">
      <g>
       <use xlink:href="#m3671949773" x="445.139687" y="163.890893" style="fill: #334155; stroke: #334155; stroke-width: 0.8"/>
      </g>
     </g>
    </g>
    <g id="ytick_11">
     <g id="line2d_29">
      <path d="M 445.139687 111.01494 
L 835.369063 111.01494 
" clip-path="url(#p5702b21dc6)" style="fill: none; stroke-dasharray: 0.7,1.155; stroke-dashoffset: 0; stroke: #cbd5e1; stroke-opacity: 0.35; stroke-width: 0.7"/>
     </g>
     <g id="line2d_30">
      <g>
       <use xlink:href="#m3671949773" x="445.139687" y="111.01494" style="fill: #334155; stroke: #334155; stroke-width: 0.8"/>
      </g>
     </g>
    </g>
    <g id="ytick_12">
     <g id="line2d_31">
      <path d="M 445.139687 58.138988 
L 835.369063 58.138988 
" clip-path="url(#p5702b21dc6)" style="fill: none; stroke-dasharray: 0.7,1.155; stroke-dashoffset: 0; stroke: #cbd5e1; stroke-opacity: 0.35; stroke-width: 0.7"/>
     </g>
     <g id="line2d_32">
      <g>
       <use xlink:href="#m3671949773" x="445.139687" y="58.138988" style="fill: #334155; stroke: #334155; stroke-width: 0.8"/>
      </g>
     </g>
    </g>
   </g>
   <g id="patch_30">
    <path d="M 445.139687 322.51875 
L 445.139687 44.92 
" style="fill: none; stroke: #cbd5e1; stroke-width: 0.9; stroke-linejoin: miter; stroke-linecap: square"/>
   </g>
   <g id="patch_31">
    <path d="M 445.139687 322.51875 
L 835.369063 322.51875 
" style="fill: none; stroke: #cbd5e1; stroke-width: 0.9; stroke-linejoin: miter; stroke-linecap: square"/>
   </g>
   <g id="text_21">
    <!-- 0.13 -->
    <g style="fill: #ffffff" transform="translate(493.21991 307.365265) scale(0.08 -0.08)">
     <defs>
      <path id="STIXGeneral-Regular-33" d="M 390 3264 
L 288 3290 
Q 435 3770 748 4048 
Q 1062 4326 1542 4326 
Q 1990 4326 2265 4083 
Q 2541 3840 2541 3450 
Q 2541 2925 1946 2566 
Q 2298 2413 2477 2227 
Q 2758 1914 2758 1402 
Q 2758 890 2464 506 
Q 2246 211 1840 60 
Q 1434 -90 979 -90 
Q 262 -90 262 275 
Q 262 378 339 442 
Q 416 506 525 506 
Q 685 506 915 339 
Q 1197 141 1466 141 
Q 1818 141 2058 425 
Q 2298 710 2298 1120 
Q 2298 1856 1632 2048 
Q 1434 2112 979 2112 
L 979 2202 
Q 1338 2323 1517 2432 
Q 2035 2726 2035 3290 
Q 2035 3610 1852 3776 
Q 1670 3942 1344 3942 
Q 768 3942 390 3264 
z
" transform="scale(0.015625)"/>
     </defs>
     <use xlink:href="#STIXGeneral-Regular-30"/>
     <use xlink:href="#STIXGeneral-Regular-2e" transform="translate(49.999985 0)"/>
     <use xlink:href="#STIXGeneral-Regular-31" transform="translate(74.999969 0)"/>
     <use xlink:href="#STIXGeneral-Regular-33" transform="translate(124.999954 0)"/>
    </g>
   </g>
   <g id="text_22">
    <!-- 0.13 -->
    <g style="fill: #ffffff" transform="translate(586.57622 307.365265) scale(0.08 -0.08)">
     <use xlink:href="#STIXGeneral-Regular-30"/>
     <use xlink:href="#STIXGeneral-Regular-2e" transform="translate(49.999985 0)"/>
     <use xlink:href="#STIXGeneral-Regular-31" transform="translate(74.999969 0)"/>
     <use xlink:href="#STIXGeneral-Regular-33" transform="translate(124.999954 0)"/>
    </g>
   </g>
   <g id="text_23">
    <!-- 0.12 -->
    <g style="fill: #ffffff" transform="translate(679.93253 307.909817) scale(0.08 -0.08)">
     <use xlink:href="#STIXGeneral-Regular-30"/>
     <use xlink:href="#STIXGeneral-Regular-2e" transform="translate(49.999985 0)"/>
     <use xlink:href="#STIXGeneral-Regular-31" transform="translate(74.999969 0)"/>
     <use xlink:href="#STIXGeneral-Regular-32" transform="translate(124.999954 0)"/>
    </g>
   </g>
   <g id="text_24">
    <!-- 0.36 -->
    <g style="fill: #ffffff" transform="translate(773.28884 276.598104) scale(0.08 -0.08)">
     <use xlink:href="#STIXGeneral-Regular-30"/>
     <use xlink:href="#STIXGeneral-Regular-2e" transform="translate(49.999985 0)"/>
     <use xlink:href="#STIXGeneral-Regular-33" transform="translate(74.999969 0)"/>
     <use xlink:href="#STIXGeneral-Regular-36" transform="translate(124.999954 0)"/>
    </g>
   </g>
   <g id="text_25">
    <!-- Disturbed replay -->
    <g style="fill: #0f172a" transform="translate(593.129375 38.92) scale(0.13 -0.13)">
     <defs>
      <path id="STIXGeneral-Bold-44" d="M 90 4326 
L 2086 4326 
Q 3181 4326 3798 3763 
Q 4416 3200 4416 2208 
Q 4416 1715 4221 1267 
Q 4026 819 3680 518 
Q 3085 0 2067 0 
L 90 0 
L 90 160 
Q 365 166 493 281 
Q 621 397 621 627 
L 621 3738 
Q 621 3955 509 4044 
Q 397 4134 90 4166 
L 90 4326 
z
M 1658 3827 
L 1658 640 
Q 1658 416 1738 320 
Q 1818 224 2029 224 
Q 2656 224 2982 685 
Q 3130 896 3216 1289 
Q 3302 1683 3302 2112 
Q 3302 3002 3040 3462 
Q 2669 4109 1997 4109 
Q 1658 4109 1658 3827 
z
" transform="scale(0.015625)"/>
      <path id="STIXGeneral-Bold-69" d="M 1376 3923 
Q 1376 3712 1232 3571 
Q 1088 3430 877 3430 
Q 666 3430 525 3571 
Q 384 3712 384 3923 
Q 384 4134 528 4278 
Q 672 4422 890 4422 
Q 1088 4422 1232 4275 
Q 1376 4128 1376 3923 
z
M 1638 0 
L 102 0 
L 102 154 
Q 326 205 384 275 
Q 442 346 442 563 
L 442 2387 
Q 442 2598 374 2675 
Q 307 2752 96 2797 
L 96 2950 
L 1331 2950 
L 1331 544 
Q 1331 339 1398 259 
Q 1466 179 1638 154 
L 1638 0 
z
" transform="scale(0.015625)"/>
      <path id="STIXGeneral-Bold-73" d="M 2176 2086 
L 2016 2086 
Q 1894 2445 1715 2611 
Q 1498 2816 1235 2816 
Q 1056 2816 934 2710 
Q 813 2605 813 2445 
Q 813 2278 957 2147 
Q 1101 2016 1427 1882 
Q 1907 1683 2108 1452 
Q 2310 1222 2310 883 
Q 2310 454 2035 182 
Q 1760 -90 1325 -90 
Q 992 -90 634 58 
Q 538 96 486 96 
Q 416 96 320 -83 
L 160 -83 
L 160 973 
L 339 973 
Q 544 128 1216 128 
Q 1434 128 1565 243 
Q 1696 358 1696 544 
Q 1696 698 1555 829 
Q 1414 960 1082 1101 
Q 602 1306 387 1539 
Q 173 1773 173 2093 
Q 173 2496 457 2761 
Q 742 3027 1178 3027 
Q 1395 3027 1677 2931 
Q 1818 2886 1875 2886 
Q 1984 2886 2035 3014 
L 2176 3014 
L 2176 2086 
z
" transform="scale(0.015625)"/>
      <path id="STIXGeneral-Bold-74" d="M 1965 717 
L 2125 646 
Q 1926 250 1712 86 
Q 1498 -77 1178 -77 
Q 845 -77 653 105 
Q 461 288 461 608 
L 461 2669 
L 122 2669 
L 122 2842 
Q 435 3053 646 3299 
Q 858 3546 1190 4032 
L 1350 4032 
L 1350 2950 
L 1958 2950 
L 1958 2669 
L 1350 2669 
L 1350 762 
Q 1350 378 1600 378 
Q 1786 378 1965 717 
z
" transform="scale(0.015625)"/>
      <path id="STIXGeneral-Bold-75" d="M 3443 128 
L 3040 83 
Q 2509 26 2195 -83 
L 2195 333 
Q 1946 96 1738 3 
Q 1530 -90 1267 -90 
Q 864 -90 640 153 
Q 416 397 416 838 
L 416 2381 
Q 416 2605 358 2681 
Q 301 2758 102 2797 
L 102 2950 
L 1306 2950 
L 1306 813 
Q 1306 326 1664 326 
Q 1914 326 2189 627 
L 2189 2394 
Q 2189 2611 2112 2694 
Q 2035 2778 1798 2797 
L 1798 2950 
L 3078 2950 
L 3078 672 
Q 3078 461 3155 371 
Q 3232 282 3443 275 
L 3443 128 
z
" transform="scale(0.015625)"/>
      <path id="STIXGeneral-Bold-62" d="M 1350 4326 
L 1350 2669 
Q 1690 3027 2131 3027 
Q 2662 3027 2998 2611 
Q 3334 2195 3334 1530 
Q 3334 806 2931 358 
Q 2528 -90 1888 -90 
Q 1440 -90 1043 275 
L 538 -83 
L 461 -83 
L 461 3802 
Q 461 3994 397 4061 
Q 333 4128 109 4173 
L 109 4326 
L 1350 4326 
z
M 1350 2304 
L 1350 621 
Q 1350 390 1472 252 
Q 1594 115 1792 115 
Q 2394 115 2394 1414 
Q 2394 2682 1798 2682 
Q 1638 2682 1536 2595 
Q 1434 2509 1350 2304 
z
" transform="scale(0.015625)"/>
      <path id="STIXGeneral-Bold-64" d="M 3418 128 
L 3021 77 
Q 2496 6 2170 -83 
L 2170 333 
Q 1946 96 1760 3 
Q 1574 -90 1318 -90 
Q 813 -90 486 332 
Q 160 755 160 1414 
Q 160 2112 509 2569 
Q 858 3027 1389 3027 
Q 1606 3027 1776 2940 
Q 1946 2854 2150 2630 
L 2150 3802 
Q 2150 4026 2067 4086 
Q 1984 4147 1664 4173 
L 1664 4326 
L 3040 4326 
L 3040 646 
Q 3040 442 3120 365 
Q 3200 288 3418 275 
L 3418 128 
z
M 2150 717 
L 2150 2272 
Q 2080 2458 1945 2563 
Q 1811 2669 1651 2669 
Q 1107 2669 1107 1466 
Q 1107 269 1606 269 
Q 1837 269 2029 506 
Q 2150 666 2150 717 
z
" transform="scale(0.015625)"/>
     </defs>
     <use xlink:href="#STIXGeneral-Bold-44"/>
     <use xlink:href="#STIXGeneral-Bold-69" transform="translate(72.199982 0)"/>
     <use xlink:href="#STIXGeneral-Bold-73" transform="translate(99.999969 0)"/>
     <use xlink:href="#STIXGeneral-Bold-74" transform="translate(138.899963 0)"/>
     <use xlink:href="#STIXGeneral-Bold-75" transform="translate(172.199951 0)"/>
     <use xlink:href="#STIXGeneral-Bold-72" transform="translate(227.799942 0)"/>
     <use xlink:href="#STIXGeneral-Bold-62" transform="translate(272.199936 0)"/>
     <use xlink:href="#STIXGeneral-Bold-65" transform="translate(327.799927 0)"/>
     <use xlink:href="#STIXGeneral-Bold-64" transform="translate(372.199921 0)"/>
     <use xlink:href="#STIXGeneral-Bold-20" transform="translate(427.799911 0)"/>
     <use xlink:href="#STIXGeneral-Bold-72" transform="translate(452.799896 0)"/>
     <use xlink:href="#STIXGeneral-Bold-65" transform="translate(497.19989 0)"/>
     <use xlink:href="#STIXGeneral-Bold-70" transform="translate(541.599884 0)"/>
     <use xlink:href="#STIXGeneral-Bold-6c" transform="translate(597.199875 0)"/>
     <use xlink:href="#STIXGeneral-Bold-61" transform="translate(624.999863 0)"/>
     <use xlink:href="#STIXGeneral-Bold-79" transform="translate(674.999847 0)"/>
    </g>
   </g>
  </g>
  <g id="legend_1">
   <g id="patch_32">
    <path d="M 205.469062 18.8 
L 225.469062 18.8 
L 225.469062 11.8 
L 205.469062 11.8 
z
" style="fill: #047857; stroke: #047857; stroke-linejoin: miter"/>
   </g>
   <g id="text_26">
    <!-- Handoff-ready cue ($\leq 1.0$) -->
    <g style="fill: #0f172a" transform="translate(233.469062 18.8) scale(0.1 -0.1)">
     <defs>
      <path id="STIXGeneral-Regular-28" d="M 1946 -1030 
L 1869 -1133 
Q 1126 -710 716 32 
Q 307 774 307 1613 
Q 307 3386 1888 4326 
L 1946 4224 
Q 1293 3667 1075 3126 
Q 858 2586 858 1632 
Q 858 685 1082 96 
Q 1306 -493 1946 -1030 
z
" transform="scale(0.015625)"/>
      <path id="DejaVuSans-2264" d="M 4684 3175 
L 1684 2309 
L 4684 1453 
L 4684 897 
L 678 2047 
L 678 2578 
L 4684 3725 
L 4684 3175 
z
M 678 531 
L 4684 531 
L 4684 0 
L 678 0 
L 678 531 
z
" transform="scale(0.015625)"/>
      <path id="DejaVuSans-31" d="M 794 531 
L 1825 531 
L 1825 4091 
L 703 3866 
L 703 4441 
L 1819 4666 
L 2450 4666 
L 2450 531 
L 3481 531 
L 3481 0 
L 794 0 
L 794 531 
z
" transform="scale(0.015625)"/>
      <path id="DejaVuSans-2e" d="M 684 794 
L 1344 794 
L 1344 0 
L 684 0 
L 684 794 
z
" transform="scale(0.015625)"/>
      <path id="DejaVuSans-30" d="M 2034 4250 
Q 1547 4250 1301 3770 
Q 1056 3291 1056 2328 
Q 1056 1369 1301 889 
Q 1547 409 2034 409 
Q 2525 409 2770 889 
Q 3016 1369 3016 2328 
Q 3016 3291 2770 3770 
Q 2525 4250 2034 4250 
z
M 2034 4750 
Q 2819 4750 3233 4129 
Q 3647 3509 3647 2328 
Q 3647 1150 3233 529 
Q 2819 -91 2034 -91 
Q 1250 -91 836 529 
Q 422 1150 422 2328 
Q 422 3509 836 4129 
Q 1250 4750 2034 4750 
z
" transform="scale(0.015625)"/>
      <path id="STIXGeneral-Regular-29" d="M 186 4224 
L 262 4326 
Q 992 3891 1408 3148 
Q 1824 2406 1824 1581 
Q 1824 -166 243 -1133 
L 186 -1030 
Q 845 -486 1059 54 
Q 1274 595 1274 1562 
Q 1274 2534 1059 3120 
Q 845 3706 186 4224 
z
" transform="scale(0.015625)"/>
     </defs>
     <use xlink:href="#STIXGeneral-Regular-48" transform="translate(0 0.78125)"/>
     <use xlink:href="#STIXGeneral-Regular-61" transform="translate(72.199982 0.78125)"/>
     <use xlink:href="#STIXGeneral-Regular-6e" transform="translate(116.599976 0.78125)"/>
     <use xlink:href="#STIXGeneral-Regular-64" transform="translate(166.59996 0.78125)"/>
     <use xlink:href="#STIXGeneral-Regular-6f" transform="translate(216.599945 0.78125)"/>
     <use xlink:href="#STIXGeneral-Regular-66" transform="translate(266.59993 0.78125)"/>
     <use xlink:href="#STIXGeneral-Regular-66" transform="translate(299.899918 0.78125)"/>
     <use xlink:href="#STIXGeneral-Regular-2d" transform="translate(333.199905 0.78125)"/>
     <use xlink:href="#STIXGeneral-Regular-72" transform="translate(366.499893 0.78125)"/>
     <use xlink:href="#STIXGeneral-Regular-65" transform="translate(399.799881 0.78125)"/>
     <use xlink:href="#STIXGeneral-Regular-61" transform="translate(444.199875 0.78125)"/>
     <use xlink:href="#STIXGeneral-Regular-64" transform="translate(488.599869 0.78125)"/>
     <use xlink:href="#STIXGeneral-Regular-79" transform="translate(538.599854 0.78125)"/>
     <use xlink:href="#STIXGeneral-Regular-20" transform="translate(588.599838 0.78125)"/>
     <use xlink:href="#STIXGeneral-Regular-63" transform="translate(613.599823 0.78125)"/>
     <use xlink:href="#STIXGeneral-Regular-75" transform="translate(657.999817 0.78125)"/>
     <use xlink:href="#STIXGeneral-Regular-65" transform="translate(707.999802 0.78125)"/>
     <use xlink:href="#STIXGeneral-Regular-20" transform="translate(752.399796 0.78125)"/>
     <use xlink:href="#STIXGeneral-Regular-28" transform="translate(777.39978 0.78125)"/>
     <use xlink:href="#DejaVuSans-2264" transform="translate(830.18219 0.78125)"/>
     <use xlink:href="#DejaVuSans-31" transform="translate(933.453674 0.78125)"/>
     <use xlink:href="#DejaVuSans-2e" transform="translate(997.076721 0.78125)"/>
     <use xlink:href="#DejaVuSans-30" transform="translate(1028.863831 0.78125)"/>
     <use xlink:href="#STIXGeneral-Regular-29" transform="translate(1092.486877 0.78125)"/>
    </g>
   </g>
   <g id="patch_33">
    <path d="M 366.069062 18.8 
L 386.069062 18.8 
L 386.069062 11.8 
L 366.069062 11.8 
z
" style="fill: #d97706; stroke: #d97706; stroke-linejoin: miter"/>
   </g>
   <g id="text_27">
    <!-- Degraded cue $(1.0, 5.0]$ -->
    <g style="fill: #0f172a" transform="translate(394.069062 18.8) scale(0.1 -0.1)">
     <defs>
      <path id="STIXGeneral-Regular-44" d="M 102 4237 
L 1830 4237 
Q 3078 4237 3750 3654 
Q 4384 3110 4384 2138 
Q 4384 966 3514 410 
Q 2880 0 1901 0 
L 102 0 
L 102 122 
Q 474 147 570 252 
Q 666 358 666 736 
L 666 3520 
Q 666 3891 570 3990 
Q 474 4090 102 4115 
L 102 4237 
z
M 1318 3731 
L 1318 538 
Q 1318 365 1379 301 
Q 1440 237 1626 237 
Q 2125 237 2432 307 
Q 2739 378 3021 570 
Q 3686 1018 3686 2099 
Q 3686 3027 3078 3558 
Q 2803 3802 2476 3901 
Q 2150 4000 1658 4000 
Q 1472 4000 1395 3942 
Q 1318 3885 1318 3731 
z
" transform="scale(0.015625)"/>
      <path id="STIXGeneral-Regular-67" d="M 3008 2483 
L 2477 2483 
Q 2598 2208 2598 1946 
Q 2598 1453 2265 1203 
Q 1933 954 1600 954 
Q 1530 954 1357 973 
L 1235 986 
Q 1107 947 979 812 
Q 851 678 851 582 
Q 851 435 1350 410 
L 2176 371 
Q 2528 358 2739 172 
Q 2950 -13 2950 -314 
Q 2950 -685 2566 -986 
Q 2035 -1395 1286 -1395 
Q 826 -1395 502 -1212 
Q 179 -1030 179 -774 
Q 179 -595 320 -419 
Q 461 -243 806 6 
Q 602 102 534 172 
Q 467 243 467 346 
Q 467 531 762 787 
Q 909 915 1037 1043 
Q 717 1203 579 1401 
Q 442 1600 442 1901 
Q 442 2336 752 2640 
Q 1062 2944 1510 2944 
Q 1766 2944 2022 2848 
L 2163 2797 
Q 2349 2733 2515 2733 
L 3008 2733 
L 3008 2483 
z
M 973 2163 
L 973 2144 
Q 973 1683 1155 1398 
Q 1338 1114 1632 1114 
Q 1850 1114 1978 1270 
Q 2106 1427 2106 1690 
Q 2106 2112 1914 2464 
Q 1754 2765 1446 2765 
Q 1222 2765 1097 2605 
Q 973 2445 973 2163 
z
M 2771 -410 
Q 2771 -230 2595 -163 
Q 2419 -96 1978 -96 
Q 1344 -96 941 -13 
Q 749 -243 688 -348 
Q 627 -454 627 -563 
Q 627 -774 880 -902 
Q 1133 -1030 1555 -1030 
Q 2099 -1030 2435 -860 
Q 2771 -691 2771 -410 
z
" transform="scale(0.015625)"/>
      <path id="DejaVuSans-28" d="M 1984 4856 
Q 1566 4138 1362 3434 
Q 1159 2731 1159 2009 
Q 1159 1288 1364 580 
Q 1569 -128 1984 -844 
L 1484 -844 
Q 1016 -109 783 600 
Q 550 1309 550 2009 
Q 550 2706 781 3412 
Q 1013 4119 1484 4856 
L 1984 4856 
z
" transform="scale(0.015625)"/>
      <path id="DejaVuSans-2c" d="M 750 794 
L 1409 794 
L 1409 256 
L 897 -744 
L 494 -744 
L 750 256 
L 750 794 
z
" transform="scale(0.015625)"/>
      <path id="DejaVuSans-35" d="M 691 4666 
L 3169 4666 
L 3169 4134 
L 1269 4134 
L 1269 2991 
Q 1406 3038 1543 3061 
Q 1681 3084 1819 3084 
Q 2600 3084 3056 2656 
Q 3513 2228 3513 1497 
Q 3513 744 3044 326 
Q 2575 -91 1722 -91 
Q 1428 -91 1123 -41 
Q 819 9 494 109 
L 494 744 
Q 775 591 1075 516 
Q 1375 441 1709 441 
Q 2250 441 2565 725 
Q 2881 1009 2881 1497 
Q 2881 1984 2565 2268 
Q 2250 2553 1709 2553 
Q 1456 2553 1204 2497 
Q 953 2441 691 2322 
L 691 4666 
z
" transform="scale(0.015625)"/>
      <path id="DejaVuSans-5d" d="M 1947 4863 
L 1947 -844 
L 622 -844 
L 622 -397 
L 1369 -397 
L 1369 4416 
L 622 4416 
L 622 4863 
L 1947 4863 
z
" transform="scale(0.015625)"/>
     </defs>
     <use xlink:href="#STIXGeneral-Regular-44" transform="translate(0 0.015625)"/>
     <use xlink:href="#STIXGeneral-Regular-65" transform="translate(72.199982 0.015625)"/>
     <use xlink:href="#STIXGeneral-Regular-67" transform="translate(116.599976 0.015625)"/>
     <use xlink:href="#STIXGeneral-Regular-72" transform="translate(166.59996 0.015625)"/>
     <use xlink:href="#STIXGeneral-Regular-61" transform="translate(199.899948 0.015625)"/>
     <use xlink:href="#STIXGeneral-Regular-64" transform="translate(244.299942 0.015625)"/>
     <use xlink:href="#STIXGeneral-Regular-65" transform="translate(294.299927 0.015625)"/>
     <use xlink:href="#STIXGeneral-Regular-64" transform="translate(338.699921 0.015625)"/>
     <use xlink:href="#STIXGeneral-Regular-20" transform="translate(388.699905 0.015625)"/>
     <use xlink:href="#STIXGeneral-Regular-63" transform="translate(413.69989 0.015625)"/>
     <use xlink:href="#STIXGeneral-Regular-75" transform="translate(458.099884 0.015625)"/>
     <use xlink:href="#STIXGeneral-Regular-65" transform="translate(508.099869 0.015625)"/>
     <use xlink:href="#STIXGeneral-Regular-20" transform="translate(552.499863 0.015625)"/>
     <use xlink:href="#DejaVuSans-28" transform="translate(577.499847 0.015625)"/>
     <use xlink:href="#DejaVuSans-31" transform="translate(616.513519 0.015625)"/>
     <use xlink:href="#DejaVuSans-2e" transform="translate(680.136566 0.015625)"/>
     <use xlink:href="#DejaVuSans-30" transform="translate(711.923676 0.015625)"/>
     <use xlink:href="#DejaVuSans-2c" transform="translate(775.546722 0.015625)"/>
     <use xlink:href="#DejaVuSans-35" transform="translate(826.816254 0.015625)"/>
     <use xlink:href="#DejaVuSans-2e" transform="translate(890.439301 0.015625)"/>
     <use xlink:href="#DejaVuSans-30" transform="translate(922.22641 0.015625)"/>
     <use xlink:href="#DejaVuSans-5d" transform="translate(985.849457 0.015625)"/>
    </g>
   </g>
   <g id="patch_34">
    <path d="M 516.569062 18.8 
L 536.569062 18.8 
L 536.569062 11.8 
L 516.569062 11.8 
z
" style="fill: #b91c1c; stroke: #b91c1c; stroke-linejoin: miter"/>
   </g>
   <g id="text_28">
    <!-- Unusable cue $(&gt;5.0)$ -->
    <g style="fill: #0f172a" transform="translate(544.569062 18.8) scale(0.1 -0.1)">
     <defs>
      <path id="STIXGeneral-Regular-55" d="M 4512 4237 
L 4512 4115 
Q 4122 4077 4016 3926 
Q 3910 3776 3910 3302 
L 3910 1670 
Q 3910 1178 3840 896 
Q 3770 614 3565 378 
Q 3155 -90 2272 -90 
Q 1574 -90 1184 205 
Q 666 589 666 1594 
L 666 3578 
Q 666 3898 566 3994 
Q 467 4090 90 4115 
L 90 4237 
L 1901 4237 
L 1901 4115 
Q 1517 4083 1417 3977 
Q 1318 3872 1318 3514 
L 1318 1517 
Q 1318 1101 1369 877 
Q 1421 653 1600 480 
Q 1901 192 2419 192 
Q 3066 192 3392 570 
Q 3539 749 3584 963 
Q 3629 1178 3629 1600 
L 3629 3283 
Q 3629 3782 3520 3936 
Q 3411 4090 3027 4115 
L 3027 4237 
L 4512 4237 
z
" transform="scale(0.015625)"/>
      <path id="DejaVuSans-3e" d="M 678 3150 
L 678 3719 
L 4684 2266 
L 4684 1747 
L 678 294 
L 678 863 
L 3897 2003 
L 678 3150 
z
" transform="scale(0.015625)"/>
      <path id="DejaVuSans-29" d="M 513 4856 
L 1013 4856 
Q 1481 4119 1714 3412 
Q 1947 2706 1947 2009 
Q 1947 1309 1714 600 
Q 1481 -109 1013 -844 
L 513 -844 
Q 928 -128 1133 580 
Q 1338 1288 1338 2009 
Q 1338 2731 1133 3434 
Q 928 4138 513 4856 
z
" transform="scale(0.015625)"/>
     </defs>
     <use xlink:href="#STIXGeneral-Regular-55" transform="translate(0 0.125)"/>
     <use xlink:href="#STIXGeneral-Regular-6e" transform="translate(72.199982 0.125)"/>
     <use xlink:href="#STIXGeneral-Regular-75" transform="translate(122.199966 0.125)"/>
     <use xlink:href="#STIXGeneral-Regular-73" transform="translate(172.199951 0.125)"/>
     <use xlink:href="#STIXGeneral-Regular-61" transform="translate(211.099945 0.125)"/>
     <use xlink:href="#STIXGeneral-Regular-62" transform="translate(255.499939 0.125)"/>
     <use xlink:href="#STIXGeneral-Regular-6c" transform="translate(305.499924 0.125)"/>
     <use xlink:href="#STIXGeneral-Regular-65" transform="translate(333.299911 0.125)"/>
     <use xlink:href="#STIXGeneral-Regular-20" transform="translate(377.699905 0.125)"/>
     <use xlink:href="#STIXGeneral-Regular-63" transform="translate(402.69989 0.125)"/>
     <use xlink:href="#STIXGeneral-Regular-75" transform="translate(447.099884 0.125)"/>
     <use xlink:href="#STIXGeneral-Regular-65" transform="translate(497.099869 0.125)"/>
     <use xlink:href="#STIXGeneral-Regular-20" transform="translate(541.499863 0.125)"/>
     <use xlink:href="#DejaVuSans-28" transform="translate(566.499847 0.125)"/>
     <use xlink:href="#DejaVuSans-3e" transform="translate(624.995941 0.125)"/>
     <use xlink:href="#DejaVuSans-35" transform="translate(728.267426 0.125)"/>
     <use xlink:href="#DejaVuSans-2e" transform="translate(791.890472 0.125)"/>
     <use xlink:href="#DejaVuSans-30" transform="translate(823.677582 0.125)"/>
     <use xlink:href="#DejaVuSans-29" transform="translate(887.300629 0.125)"/>
    </g>
   </g>
  </g>
 </g>
 <defs>
  <clipPath id="pc37365e1e3">
   <rect x="40.610313" y="44.92" width="390.229375" height="277.59875"/>
  </clipPath>
  <clipPath id="p5702b21dc6">
   <rect x="445.139687" y="44.92" width="390.229375" height="277.59875"/>
  </clipPath>
 </defs>
</svg>
